<?xml version="1.0" encoding="iso-8859-1"?>
<!-- Generator: Adobe Illustrator 19.0.0, SVG Export Plug-In . SVG Version: 6.00 Build 0)  -->
<svg xmlns="http://www.w3.org/2000/svg" xmlns:xlink="http://www.w3.org/1999/xlink" version="1.1" id="Layer_1" x="0px" y="0px" viewBox="0 0 512 512" style="enable-background:new 0 0 512 512;" xml:space="preserve">
<path style="fill:#E0F7FA;" d="M507.772,209.484C485.892,90.31,381.498,0,256,0C114.616,0,0,114.616,0,256  c0,125.491,90.3,229.881,209.465,251.768L507.772,209.484z"/>
<path style="fill:#B2EBF2;" d="M512,256c0-15.886-1.459-31.431-4.228-46.516l-64.782-64.782L69.006,367.31l140.458,140.458  C224.557,510.54,240.107,512,256,512C397.384,512,512,397.384,512,256z"/>
<g>
	<rect x="386.003" y="307.946" style="fill:#00BCD4;" width="56.988" height="59.359"/>
	<rect x="386.003" y="226.326" style="fill:#00BCD4;" width="56.988" height="59.359"/>
	<polygon style="fill:#00BCD4;" points="284.492,367.31 284.492,307.948 244.87,307.948 256,367.31  "/>
	<rect x="306.755" y="307.946" style="fill:#00BCD4;" width="56.988" height="59.359"/>
	<rect x="386.003" y="144.696" style="fill:#00BCD4;" width="56.988" height="59.359"/>
	<polygon style="fill:#00BCD4;" points="244.87,204.064 284.492,204.064 284.492,144.701 256,144.701  "/>
	<rect x="306.755" y="144.696" style="fill:#00BCD4;" width="56.988" height="59.359"/>
</g>
<g>
	<rect x="227.506" y="307.946" style="fill:#4DD0E1;" width="28.494" height="59.359"/>
	<rect x="148.257" y="307.946" style="fill:#4DD0E1;" width="56.988" height="59.359"/>
	<rect x="69.006" y="226.326" style="fill:#4DD0E1;" width="56.988" height="59.359"/>
	<rect x="227.506" y="144.696" style="fill:#4DD0E1;" width="28.494" height="59.359"/>
	<rect x="69.006" y="307.946" style="fill:#4DD0E1;" width="56.988" height="59.359"/>
	<rect x="69.006" y="144.696" style="fill:#4DD0E1;" width="56.988" height="59.359"/>
	<rect x="148.257" y="144.696" style="fill:#4DD0E1;" width="56.988" height="59.359"/>
</g>
<rect x="244.87" y="178.087" style="fill:#B2EBF2;" width="164.73" height="155.826"/>
<rect x="102.4" y="178.087" style="fill:#FFFFFF;" width="153.6" height="155.826"/>
<polygon style="fill:#455A64;" points="420.728,345.049 255.998,345.049 244.867,333.919 255.998,322.788 398.467,322.788   398.467,189.223 255.998,189.223 244.867,178.093 255.998,166.962 420.728,166.962 "/>
<polygon style="fill:#546E7A;" points="255.998,345.049 91.267,345.049 91.267,166.962 255.998,166.962 255.998,189.223   113.528,189.223 113.528,322.788 255.998,322.788 "/>
<rect x="135.791" y="211.478" style="fill:#26C6DA;" width="22.261" height="89.043"/>
<g>
</g>
<g>
</g>
<g>
</g>
<g>
</g>
<g>
</g>
<g>
</g>
<g>
</g>
<g>
</g>
<g>
</g>
<g>
</g>
<g>
</g>
<g>
</g>
<g>
</g>
<g>
</g>
<g>
</g>
</svg>
