<?xml version="1.0" encoding="iso-8859-1"?>
<!-- Generator: Adobe Illustrator 19.0.0, SVG Export Plug-In . SVG Version: 6.00 Build 0)  -->
<svg xmlns="http://www.w3.org/2000/svg" xmlns:xlink="http://www.w3.org/1999/xlink" version="1.1" id="Layer_1" x="0px" y="0px" viewBox="0 0 512 512" style="enable-background:new 0 0 512 512;" xml:space="preserve">
<path style="fill:#F48FB1;" d="M511.972,258.198c0.007-0.733,0.028-1.464,0.028-2.198C512,114.616,397.385,0,256,0S0,114.616,0,256  s114.616,256,256,256c0.735,0,1.465-0.022,2.198-0.028L511.972,258.198z"/>
<path style="fill:#F06292;" d="M511.972,258.198l-91.242-91.242L91.27,345.043l166.929,166.929  C397.835,510.796,510.796,397.835,511.972,258.198z"/>
<rect x="244.87" y="178.087" style="fill:#B2EBF2;" width="164.73" height="155.826"/>
<rect x="102.4" y="178.087" style="fill:#FFFFFF;" width="153.6" height="155.826"/>
<polygon style="fill:#455A64;" points="420.73,345.043 256,345.043 244.87,333.913 256,322.783 398.47,322.783 398.47,189.217   256,189.217 244.87,178.087 256,166.957 420.73,166.957 "/>
<polygon style="fill:#546E7A;" points="256,345.043 91.27,345.043 91.27,166.957 256,166.957 256,189.217 113.53,189.217   113.53,322.783 256,322.783 "/>
<polygon style="fill:#E91E63;" points="69.009,289.391 69.009,222.609 35.617,256 "/>
<polygon style="fill:#880E4F;" points="442.991,289.391 442.991,222.609 476.383,256 "/>
<g>
</g>
<g>
</g>
<g>
</g>
<g>
</g>
<g>
</g>
<g>
</g>
<g>
</g>
<g>
</g>
<g>
</g>
<g>
</g>
<g>
</g>
<g>
</g>
<g>
</g>
<g>
</g>
<g>
</g>
</svg>
