<?xml version="1.0" encoding="iso-8859-1"?>
<!-- Generator: Adobe Illustrator 19.0.0, SVG Export Plug-In . SVG Version: 6.00 Build 0)  -->
<svg xmlns="http://www.w3.org/2000/svg" xmlns:xlink="http://www.w3.org/1999/xlink" version="1.1" id="Layer_1" x="0px" y="0px" viewBox="0 0 512.001 512.001" style="enable-background:new 0 0 512.001 512.001;" xml:space="preserve">
<path style="fill:#455A64;" d="M502.856,188.034c-11.36-41.407-33.296-80.519-65.829-113.052  c-99.976-99.976-262.07-99.976-362.045,0s-99.976,262.07,0,362.045c32.533,32.533,71.646,54.468,113.052,65.829L502.856,188.034z"/>
<path style="fill:#263238;" d="M437.028,437.028c67.443-67.443,89.379-163.153,65.829-248.993l-89.44-89.44L98.594,413.415  l89.44,89.44C273.875,526.407,369.584,504.47,437.028,437.028z"/>
<polygon style="fill:#CFD8DC;" points="208.779,397.671 224.52,381.93 185.167,342.578 122.202,405.543 161.555,444.895   177.297,429.154 161.555,413.413 193.038,381.93 "/>
<polygon style="fill:#90A4AE;" points="114.332,429.154 98.591,413.413 271.742,208.779 303.225,240.26 "/>
<rect x="174.038" y="177.532" transform="matrix(-0.7071 -0.7071 0.7071 -0.7071 96.1218 662.0123)" style="fill:#CFD8DC;" width="22.261" height="267.133"/>
<path style="fill:#90A4AE;" d="M413.413,98.591L271.742,240.26c39.121,39.121,102.549,39.121,141.67,0  S452.534,137.712,413.413,98.591z"/>
<path style="fill:#CFD8DC;" d="M271.742,98.591c-39.121,39.121-39.121,102.549,0,141.67l141.671-141.67  C374.291,59.47,310.864,59.469,271.742,98.591z"/>
<circle style="fill:#263238;" cx="342.579" cy="169.431" r="66.784"/>
<g>
</g>
<g>
</g>
<g>
</g>
<g>
</g>
<g>
</g>
<g>
</g>
<g>
</g>
<g>
</g>
<g>
</g>
<g>
</g>
<g>
</g>
<g>
</g>
<g>
</g>
<g>
</g>
<g>
</g>
</svg>
