<?xml version="1.0" encoding="iso-8859-1"?>
<!-- Generator: Adobe Illustrator 19.0.0, SVG Export Plug-In . SVG Version: 6.00 Build 0)  -->
<svg xmlns="http://www.w3.org/2000/svg" xmlns:xlink="http://www.w3.org/1999/xlink" version="1.1" id="Layer_1" x="0px" y="0px" viewBox="0 0 512 512" style="enable-background:new 0 0 512 512;" xml:space="preserve">
<path style="fill:#ECEFF1;" d="M511.716,244.123C505.51,108.253,393.403,0,256,0C114.616,0,0,114.616,0,256  c0,137.403,108.253,249.509,244.123,255.716L511.716,244.123z"/>
<path style="fill:#CFD8DC;" d="M511.716,244.123L389.797,122.203l-7.87,7.87c-13.286-13.286-28.666-24.476-45.596-33.047  l-63.635-63.635L256,77.913c-98.355,0-178.087,79.733-178.087,178.087c0,49.178,19.933,93.699,52.161,125.926l-7.87,7.87  l121.919,121.919c3.938,0.18,7.895,0.284,11.877,0.284c141.385,0,256-114.616,256-256C512,252.019,511.896,248.06,511.716,244.123z"/>
<path style="fill:#263238;" d="M256,222.609L244.87,256L256,289.391c18.442,0,33.391-14.95,33.391-33.391  S274.442,222.609,256,222.609z"/>
<path style="fill:#455A64;" d="M222.609,256c0,18.441,14.949,33.391,33.391,33.391v-66.783  C237.559,222.609,222.609,237.559,222.609,256z"/>
<path style="fill:#263238;" d="M478.609,239.304h-34.13c-7.973-91.176-80.604-163.807-171.783-171.78V33.391H256l-11.13,33.391  L256,100.174c86.061,0,155.826,69.766,155.826,155.826S342.061,411.826,256,411.826l-11.13,33.391L256,478.609h16.696v-34.133  c91.178-7.974,163.809-80.603,171.783-171.78h34.13V239.304z"/>
<path style="fill:#455A64;" d="M256,100.174V33.391h-16.696v34.133c-91.177,7.974-163.809,80.604-171.783,171.78h-34.13v33.391  h34.13c7.974,91.176,80.604,163.807,171.783,171.78v34.133H256v-66.783c-86.061,0-155.826-69.766-155.826-155.826  S169.939,100.174,256,100.174z"/>
<g>
</g>
<g>
</g>
<g>
</g>
<g>
</g>
<g>
</g>
<g>
</g>
<g>
</g>
<g>
</g>
<g>
</g>
<g>
</g>
<g>
</g>
<g>
</g>
<g>
</g>
<g>
</g>
<g>
</g>
</svg>
