<?xml version="1.0" encoding="iso-8859-1"?>
<!-- Generator: Adobe Illustrator 19.0.0, SVG Export Plug-In . SVG Version: 6.00 Build 0)  -->
<svg xmlns="http://www.w3.org/2000/svg" xmlns:xlink="http://www.w3.org/1999/xlink" version="1.1" id="Layer_1" x="0px" y="0px" viewBox="0 0 512 512" style="enable-background:new 0 0 512 512;" xml:space="preserve">
<path style="fill:#FF7043;" d="M452.08,91.404l-23.612-7.871l-7.871-23.612C320.014-24.705,169.65-19.699,74.976,74.974  s-99.679,245.038-15.053,345.622l23.612,7.871l7.871,23.612l367.695-40.203c4.629-6.016,8.963-12.186,12.984-18.498L452.08,91.404z"/>
<g>
	<path style="fill:#FF5722;" d="M459.102,411.875L326.838,279.612h-15.741v-15.741l-62.966-62.966l-86.578,55.094L100.162,411.84   l-8.757,40.239c100.584,84.626,250.948,79.62,345.622-15.052C445.032,429.022,452.38,420.611,459.102,411.875z"/>
	<path style="fill:#FF5722;" d="M370.127,291.418l101.959,101.959c59.211-92.946,52.54-215.748-20.004-301.972l-40.239,8.757   L370.127,291.418z"/>
</g>
<rect x="154.745" y="217.316" transform="matrix(-0.7071 0.7071 -0.7071 -0.7071 511.2081 245.1443)" style="fill:#FFFFFF;" width="100.177" height="22.261"/>
<rect x="233.449" y="296.022" transform="matrix(-0.7071 0.7071 -0.7071 -0.7071 701.2181 323.852)" style="fill:#ECEFF1;" width="100.177" height="22.261"/>
<path style="fill:#37474F;" d="M74.976,437.026c5.305,5.305,10.795,10.31,16.43,15.052l24.498-24.498l-15.741-31.482L74.976,437.026  z"/>
<path style="fill:#607D8B;" d="M84.421,396.099l-24.498,24.498c4.742,5.636,9.748,11.125,15.052,16.43l33.056-33.056L84.421,396.099  z"/>
<polygon style="fill:#263238;" points="100.162,411.84 115.903,427.581 205.63,432.304 256.002,381.932 200.907,295.354 "/>
<g>
	<polygon style="fill:#37474F;" points="208.778,303.224 130.071,256.001 79.698,306.372 84.421,396.099 100.162,411.84  "/>
	<polygon style="fill:#37474F;" points="216.649,295.354 200.907,295.354 193.037,318.965 267.808,393.737 291.42,370.125  "/>
</g>
<rect x="114.577" y="253.075" transform="matrix(-0.7071 -0.7071 0.7071 -0.7071 95.095 578.9327)" style="fill:#607D8B;" width="105.742" height="33.392"/>
<path style="fill:#37474F;" d="M427.584,115.901l24.498-24.498c-4.742-5.636-9.748-11.125-15.052-16.43l-40.928,25.186  L427.584,115.901z"/>
<path style="fill:#607D8B;" d="M396.1,84.419l7.871,23.612l33.056-33.056c-5.305-5.305-10.795-10.311-16.43-15.052L396.1,84.419z"/>
<polygon style="fill:#263238;" points="411.842,100.16 427.584,115.901 432.305,205.628 381.934,255.999 295.356,200.905 "/>
<g>
	<polygon style="fill:#37474F;" points="303.227,208.776 256.003,130.068 306.374,79.696 396.101,84.419 411.842,100.16  "/>
	<polygon style="fill:#37474F;" points="318.968,193.034 295.356,200.905 295.356,216.646 370.127,291.418 393.739,267.806  "/>
</g>
<rect x="216.911" y="150.752" transform="matrix(-0.7071 -0.7071 0.7071 -0.7071 342.144 476.6165)" style="fill:#607D8B;" width="105.742" height="33.392"/>
<g>
</g>
<g>
</g>
<g>
</g>
<g>
</g>
<g>
</g>
<g>
</g>
<g>
</g>
<g>
</g>
<g>
</g>
<g>
</g>
<g>
</g>
<g>
</g>
<g>
</g>
<g>
</g>
<g>
</g>
</svg>
