<?xml version="1.0" encoding="iso-8859-1"?>
<!-- Generator: Adobe Illustrator 19.0.0, SVG Export Plug-In . SVG Version: 6.00 Build 0)  -->
<svg xmlns="http://www.w3.org/2000/svg" xmlns:xlink="http://www.w3.org/1999/xlink" version="1.1" id="Layer_1" x="0px" y="0px" viewBox="0 0 512 512" style="enable-background:new 0 0 512 512;" xml:space="preserve">
<path style="fill:#FFCCBC;" d="M503.102,188.926C473.627,80.078,374.173,0,256,0C114.615,0,0,114.615,0,256  c0,117.856,79.648,217.094,188.05,246.865L503.102,188.926z"/>
<path style="fill:#FFAB91;" d="M512,256c0-23.211-3.108-45.694-8.898-67.074l-90.014-90.014L98.592,413.408l89.458,89.458  C209.691,508.809,232.471,512,256,512C397.384,512,512,397.384,512,256z"/>
<path d="M478.609,256c0-122.942-99.665-222.609-222.609-222.609L166.057,256L256,478.609  C378.943,478.609,478.609,378.942,478.609,256z"/>
<g>
	<path style="fill:#37474F;" d="M33.391,256c0,122.942,99.665,222.609,222.609,222.609V33.391   C133.057,33.391,33.391,133.058,33.391,256z"/>
	<path style="fill:#37474F;" d="M175.051,233.739L256,456.348c110.649,0,200.348-89.699,200.348-200.348L175.051,233.739z"/>
</g>
<path style="fill:#455A64;" d="M256,55.652L175.052,256h281.296C456.348,145.351,366.649,55.652,256,55.652z"/>
<path style="fill:#ECEFF1;" d="M256,256v200.348c-110.648,0-200.348-89.7-200.348-200.348l100.174-33.391L256,256z"/>
<path style="fill:#FFFFFF;" d="M256,55.652V256H55.652C55.652,145.352,145.352,55.652,256,55.652z"/>
<g>
</g>
<g>
</g>
<g>
</g>
<g>
</g>
<g>
</g>
<g>
</g>
<g>
</g>
<g>
</g>
<g>
</g>
<g>
</g>
<g>
</g>
<g>
</g>
<g>
</g>
<g>
</g>
<g>
</g>
</svg>
