<?xml version="1.0" encoding="iso-8859-1"?>
<!-- Generator: Adobe Illustrator 19.0.0, SVG Export Plug-In . SVG Version: 6.00 Build 0)  -->
<svg xmlns="http://www.w3.org/2000/svg" xmlns:xlink="http://www.w3.org/1999/xlink" version="1.1" id="Layer_1" x="0px" y="0px" viewBox="0 0 512 512" style="enable-background:new 0 0 512 512;" xml:space="preserve">
<path style="fill:#78909C;" d="M504.026,192.374C475.737,81.771,375.42,0,256,0C114.616,0,0,114.616,0,256  c0,119.42,81.771,219.737,192.374,248.026L504.026,192.374z"/>
<path style="fill:#455A64;" d="M512,256c0-21.965-2.77-43.283-7.974-63.626L389.565,77.913l-267.13,356.174l69.939,69.939  C212.717,509.23,234.035,512,256,512C397.384,512,512,397.384,512,256z"/>
<polygon style="fill:#E0F7FA;" points="256,77.913 211.478,256 256,434.087 322.783,434.087 345.043,389.565 389.565,367.304   389.565,77.913 "/>
<rect x="122.435" y="77.913" style="fill:#FFFFFF;" width="133.565" height="356.174"/>
<polygon style="fill:#80DEEA;" points="322.783,434.087 322.783,367.304 389.565,367.304 "/>
<polygon style="fill:#455A64;" points="256,122.435 244.87,133.565 256,144.696 345.043,144.696 345.043,122.435 "/>
<rect x="166.957" y="122.435" style="fill:#78909C;" width="89.043" height="22.261"/>
<polygon style="fill:#455A64;" points="256,166.957 244.87,178.087 256,189.217 345.043,189.217 345.043,166.957 "/>
<rect x="166.957" y="166.957" style="fill:#78909C;" width="89.043" height="22.261"/>
<polygon style="fill:#455A64;" points="256,211.478 244.87,222.609 256,233.739 345.043,233.739 345.043,211.478 "/>
<rect x="166.957" y="211.478" style="fill:#78909C;" width="89.043" height="22.261"/>
<polygon style="fill:#455A64;" points="256,300.522 244.87,311.652 256,322.783 345.043,322.783 345.043,300.522 "/>
<rect x="166.957" y="300.522" style="fill:#78909C;" width="89.043" height="22.261"/>
<polygon style="fill:#455A64;" points="256,256 244.87,267.13 256,278.261 345.043,278.261 345.043,256 "/>
<rect x="166.957" y="256" style="fill:#78909C;" width="89.043" height="22.261"/>
<g>
</g>
<g>
</g>
<g>
</g>
<g>
</g>
<g>
</g>
<g>
</g>
<g>
</g>
<g>
</g>
<g>
</g>
<g>
</g>
<g>
</g>
<g>
</g>
<g>
</g>
<g>
</g>
<g>
</g>
</svg>
