<?xml version="1.0" encoding="iso-8859-1"?>
<!-- Generator: Adobe Illustrator 19.0.0, SVG Export Plug-In . SVG Version: 6.00 Build 0)  -->
<svg xmlns="http://www.w3.org/2000/svg" xmlns:xlink="http://www.w3.org/1999/xlink" version="1.1" id="Layer_1" x="0px" y="0px" viewBox="0 0 512 512" style="enable-background:new 0 0 512 512;" xml:space="preserve">
<path style="fill:#80DEEA;" d="M502.213,185.661C471.649,78.477,372.991,0,256,0C114.616,0,0,114.616,0,256  c0,116.834,78.27,215.382,185.234,246.085L502.213,185.661z"/>
<path style="fill:#00BCD4;" d="M512,256c0-24.393-3.415-47.99-9.788-70.339L396.243,79.692l-211.478,68.791v233.739l-85.9,33.495  l86.369,86.369C207.709,508.537,231.45,512,256,512C397.384,512,512,397.384,512,256z"/>
<path style="fill:#263238;" d="M284.939,98.242l-33.391,33.468l33.391,33.468l89.043-14.84v158.422  c-9.302-6.288-20.862-10.016-33.391-10.016c-30.736,0-55.652,22.424-55.652,50.087s24.917,50.087,55.652,50.087  s55.652-22.424,55.652-50.087V79.692L284.939,98.242z"/>
<path style="fill:#006064;" d="M173.635,116.793v225.359c-9.302-6.288-20.862-10.016-33.391-10.016  c-30.736,0-55.652,22.424-55.652,50.087c0,27.662,24.917,50.087,55.652,50.087s55.652-22.424,55.652-50.087V180.019l89.043-14.84  V98.242L173.635,116.793z"/>
<g>
</g>
<g>
</g>
<g>
</g>
<g>
</g>
<g>
</g>
<g>
</g>
<g>
</g>
<g>
</g>
<g>
</g>
<g>
</g>
<g>
</g>
<g>
</g>
<g>
</g>
<g>
</g>
<g>
</g>
</svg>
