<?xml version="1.0" encoding="iso-8859-1"?>
<!-- Generator: Adobe Illustrator 19.0.0, SVG Export Plug-In . SVG Version: 6.00 Build 0)  -->
<svg xmlns="http://www.w3.org/2000/svg" xmlns:xlink="http://www.w3.org/1999/xlink" version="1.1" id="Layer_1" x="0px" y="0px" viewBox="0 0 512 512" style="enable-background:new 0 0 512 512;" xml:space="preserve">
<path style="fill:#006064;" d="M505.657,199.161C479.805,85.133,377.849,0,256,0C114.616,0,0,114.616,0,256  c0,121.849,85.133,223.805,199.161,249.657L505.657,199.161z"/>
<path style="fill:#263238;" d="M512,256c0-19.536-2.198-38.557-6.343-56.839l-64.846-64.846l-60.881-11.996l-60.147-60.147  l-86.607-13.164l-47.901,80.614c0,0-85.26-19.438-110.763,21.594s33.119,108.417,33.119,108.417l-29.879,43.804l-6.486,74.323  l127.895,127.895C217.443,509.802,236.464,512,256,512C397.385,512,512,397.385,512,256z"/>
<path style="fill:#BF360C;" d="M311.652,256c0,30.736-24.917,55.652-55.652,55.652L233.514,256L256,200.348  C286.736,200.348,311.652,225.264,311.652,256z"/>
<path style="fill:#E64A19;" d="M200.348,256c0-30.736,24.917-55.652,55.652-55.652v111.304  C225.264,311.652,200.348,286.736,200.348,256z"/>
<path style="fill:#0097A7;" d="M444.705,352.1l4.085,15.204c-14.28,24.721-48.429,35.039-96.156,29.039  c-29.741-3.74-62.909-13.501-96.634-28.238v-24.398c34.827,16.139,69.131,26.735,99.406,30.542  c37.721,4.742,64.723-1.848,74.095-18.076L444.705,352.1z"/>
<path style="fill:#00ACC1;" d="M256,343.708v24.398c-16.673-7.268-33.491-15.761-50.087-25.355  c-50.176-28.961-92.705-64.579-119.763-100.263c-29.062-38.344-37.209-73.071-22.94-97.792l15.215-4.074l4.074,15.204  c-9.372,16.228-1.581,42.919,21.382,73.205c25.311,33.38,65.503,66.927,113.163,94.442C229.977,330.941,243.022,337.72,256,343.708z  "/>
<path style="fill:#B2EBF2;" d="M448.79,144.696l-4.085,15.204l-15.204-4.074c-9.372-16.228-36.374-22.817-74.095-18.076  c-30.275,3.807-64.579,14.403-99.406,30.542v-24.398c33.725-14.737,66.894-24.498,96.634-28.238  C400.362,109.657,434.51,119.975,448.79,144.696z"/>
<path style="fill:#E0F7FA;" d="M256,143.894v24.398c-12.978,5.988-26.023,12.767-38.957,20.235  c-47.661,27.514-87.853,61.062-113.163,94.442c-22.962,30.286-30.753,56.977-21.382,73.205l-4.074,15.204l-15.215-4.074  c-14.269-24.721-6.122-59.448,22.94-97.792c27.058-35.684,69.587-71.302,119.763-100.263  C222.509,159.655,239.327,151.162,256,143.894z"/>
<path style="fill:#4DD0E1;" d="M256,478.609l-11.13-11.13l11.13-11.13c18.743,0,37.954-20.094,52.705-55.129  c16.256-38.607,25.208-90.18,25.208-145.219s-8.952-106.612-25.208-145.219C293.954,75.746,274.744,55.652,256,55.652l-11.13-11.13  L256,33.391c28.55,0,54.554,24.417,73.222,68.752c17.381,41.279,26.952,95.92,26.952,153.857s-9.572,112.579-26.952,153.857  C310.554,454.193,284.551,478.609,256,478.609z"/>
<g>
	<path style="fill:#80DEEA;" d="M256,478.609c-28.55,0-54.554-24.417-73.222-68.752c-17.38-41.278-26.952-95.92-26.952-153.857   s9.572-112.579,26.952-153.857C201.446,57.808,227.45,33.391,256,33.391v22.261c-18.743,0-37.954,20.094-52.705,55.129   c-16.256,38.607-25.208,90.18-25.208,145.219s8.952,106.612,25.208,145.219c14.752,35.035,33.962,55.129,52.705,55.129V478.609z"/>
	<path style="fill:#80DEEA;" d="M448.79,144.696c14.269,24.721,6.122,59.448-22.94,97.792   c-27.058,35.684-69.587,71.302-119.763,100.263c-16.595,9.594-33.414,18.087-50.087,25.355l-11.13-6.367L256,343.708   c12.978-5.988,26.023-12.767,38.957-20.235c47.661-27.514,87.853-61.062,113.163-94.442c22.962-30.286,30.753-56.977,21.382-73.205   L448.79,144.696z"/>
</g>
<path style="fill:#00ACC1;" d="M425.85,269.512c29.062,38.344,37.209,73.071,22.94,97.792l-19.289-11.13  c9.372-16.228,1.581-42.919-21.382-73.205c-25.311-33.38-65.503-66.927-113.163-94.442c-12.934-7.469-25.978-14.247-38.957-20.235  l-11.13-16.696l11.13-7.702c16.673,7.268,33.491,15.761,50.087,25.355C356.263,198.211,398.792,233.828,425.85,269.512z"/>
<path style="fill:#00BCD4;" d="M256,143.894v24.398c-34.827-16.139-69.131-26.735-99.406-30.542  c-37.721-4.742-64.723,1.848-74.095,18.076l-19.289-11.13c14.28-24.721,48.429-35.039,96.156-29.039  C189.106,119.396,222.275,129.158,256,143.894z"/>
<circle style="fill:#E64A19;" cx="304.039" cy="77.913" r="22.261"/>
<circle style="fill:#FF7043;" cx="77.752" cy="303.438" r="22.261"/>
<circle style="fill:#E64A19;" cx="386.204" cy="386.649" r="22.261"/>
<path style="fill:#B2EBF2;" d="M256,343.708v24.398c-33.725,14.737-66.894,24.498-96.634,28.238  c-47.727,5.999-81.875-4.319-96.156-29.039l19.289-11.13c9.372,16.228,36.374,22.817,74.095,18.076  C186.869,370.443,221.173,359.847,256,343.708z"/>
<g>
</g>
<g>
</g>
<g>
</g>
<g>
</g>
<g>
</g>
<g>
</g>
<g>
</g>
<g>
</g>
<g>
</g>
<g>
</g>
<g>
</g>
<g>
</g>
<g>
</g>
<g>
</g>
<g>
</g>
</svg>
