<?xml version="1.0" encoding="iso-8859-1"?>
<!-- Generator: Adobe Illustrator 19.0.0, SVG Export Plug-In . SVG Version: 6.00 Build 0)  -->
<svg xmlns="http://www.w3.org/2000/svg" xmlns:xlink="http://www.w3.org/1999/xlink" version="1.1" id="Layer_1" x="0px" y="0px" viewBox="0 0 512 512" style="enable-background:new 0 0 512 512;" xml:space="preserve">
<path style="fill:#FFF9C4;" d="M502.664,187.305C472.645,79.283,373.586,0,256,0C114.615,0,0,114.616,0,256  c0,122.631,86.232,225.103,201.361,250.135L502.664,187.305z"/>
<path style="fill:#FFCCBC;" d="M512,256c0-23.798-3.26-46.832-9.336-68.695l-90.838-90.838l-83.204,83.204l-64-64l-148.238,32.993  L91.552,396.328l109.808,109.808C218.969,509.964,237.245,512,256,512C397.384,512,512,397.384,512,256z"/>
<path style="fill:#E91E63;" d="M267.687,194.137v123.726c0,49.486-39.513,89.6-111.861,89.6l22.261-64.278  c18.41,0,33.391-14.97,33.391-33.391V202.207c0-18.421-14.982-33.391-33.391-33.391l-22.261-66.783  C228.174,102.033,267.687,144.651,267.687,194.137z"/>
<path style="fill:#F06292;" d="M178.087,343.185v64.278c-49.486,0-89.6-40.114-89.6-89.6V194.137c0-49.486,40.114-89.6,89.6-89.6  v64.278c-18.41,0-33.391,14.97-33.391,33.391v107.587C144.696,328.214,159.677,343.185,178.087,343.185z"/>
<polygon style="fill:#AD1457;" points="411.826,96.467 411.826,415.533 367.304,415.533 333.913,256 367.304,96.467 "/>
<rect x="322.783" y="96.467" style="fill:#E91E63;" width="44.522" height="319.065"/>
<path style="fill:#AD1457;" d="M300.522,202.207v107.587c0,67.517-54.929,122.435-122.435,122.435l-22.261-22.261l22.261-22.261  c43.03,0,77.913-34.883,77.913-77.913V202.207c0-43.03-34.883-77.913-77.913-77.913l-22.261-22.261l22.261-22.261  C245.593,79.772,300.522,134.689,300.522,202.207z"/>
<path style="fill:#E91E63;" d="M178.087,387.706v44.522c-67.506,0-122.435-54.918-122.435-122.435V202.207  c0-67.517,54.929-122.435,122.435-122.435v44.522c-43.03,0-77.913,34.883-77.913,77.913v107.587  C100.174,352.824,135.057,387.706,178.087,387.706z"/>
<g>
</g>
<g>
</g>
<g>
</g>
<g>
</g>
<g>
</g>
<g>
</g>
<g>
</g>
<g>
</g>
<g>
</g>
<g>
</g>
<g>
</g>
<g>
</g>
<g>
</g>
<g>
</g>
<g>
</g>
</svg>
