<?xml version="1.0" encoding="iso-8859-1"?>
<!-- Generator: Adobe Illustrator 19.0.0, SVG Export Plug-In . SVG Version: 6.00 Build 0)  -->
<svg xmlns="http://www.w3.org/2000/svg" xmlns:xlink="http://www.w3.org/1999/xlink" version="1.1" id="Layer_1" x="0px" y="0px" viewBox="0 0 512 512" style="enable-background:new 0 0 512 512;" xml:space="preserve">
<path style="fill:#F9A825;" d="M511.972,253.745C510.759,113.4,396.632,0,256,0C114.616,0,0,114.616,0,256  c0,118.321,80.279,217.876,189.335,247.214L511.972,253.745z"/>
<path style="fill:#F57F17;" d="M383.081,166.697L279.6,63.216L95.722,409.6l93.614,93.614C210.592,508.932,232.937,512,256,512  c141.385,0,256-114.616,256-256c0-0.754-0.022-1.503-0.029-2.254l-95.914-95.914L383.081,166.697z"/>
<polygon style="fill:#FFEB3B;" points="256,120.209 233.739,164.73 322.783,164.73 322.783,120.209 "/>
<rect x="189.217" y="120.209" style="fill:#FFF59D;" width="66.783" height="44.522"/>
<path style="fill:#C2185B;" d="M390.925,353.948l38.361-146.169c7.673-35.92-16.1-65.309-52.831-65.309H256l-58.744,211.478H390.925  z"/>
<path style="fill:#EC407A;" d="M121.075,353.948L82.714,207.778c-7.673-35.92,16.1-65.309,52.831-65.309H256v211.478H121.075z"/>
<path style="fill:#FBC02D;" d="M256,53.426l-11.13,33.391L256,120.209c18.412,0,33.391-14.979,33.391-33.391  S274.412,53.426,256,53.426z"/>
<path style="fill:#FFEB3B;" d="M222.609,86.817c0,18.412,14.979,33.391,33.391,33.391V53.426  C237.588,53.426,222.609,68.405,222.609,86.817z"/>
<path style="fill:#FBC02D;" d="M392.33,240.802v22.319c0,18.441-14.949,33.391-33.391,33.391c-18.441,0-33.391-14.95-33.391-33.391  v-18.637l-69.542-46.363l-22.266,166.957l182.539-11.13l40.07-155.826L392.33,240.802z"/>
<g>
	<path style="fill:#FFEB3B;" d="M255.994,198.122l-69.553,46.369v18.63c0,18.441-14.949,33.391-33.391,33.391   s-33.391-14.95-33.391-33.391v-22.327l-64.007-42.673l40.07,155.826L256,365.078L255.994,198.122z"/>
	<polygon style="fill:#FFEB3B;" points="256,353.948 230.029,381.774 256,409.6 416.278,409.6 416.278,353.948  "/>
</g>
<rect x="95.722" y="353.948" style="fill:#FFF59D;" width="160.278" height="55.652"/>
<g>
</g>
<g>
</g>
<g>
</g>
<g>
</g>
<g>
</g>
<g>
</g>
<g>
</g>
<g>
</g>
<g>
</g>
<g>
</g>
<g>
</g>
<g>
</g>
<g>
</g>
<g>
</g>
<g>
</g>
</svg>
