<?xml version="1.0" encoding="iso-8859-1"?>
<!-- Generator: Adobe Illustrator 19.0.0, SVG Export Plug-In . SVG Version: 6.00 Build 0)  -->
<svg xmlns="http://www.w3.org/2000/svg" xmlns:xlink="http://www.w3.org/1999/xlink" version="1.1" id="Layer_1" x="0px" y="0px" viewBox="0 0 512 512" style="enable-background:new 0 0 512 512;" xml:space="preserve">
<path style="fill:#E91E63;" d="M206.158,52.681l117.983,117.983l11.13-11.13l37.843,37.843l26.713-26.713l110.89,110.89  C511.55,273.148,512,264.627,512,256C512,114.615,397.385-0.001,256,0C114.615,0,0,114.615,0,256  c0,107.645,66.446,199.759,160.555,237.599l247.096-31.35L172.955,227.553L206.158,52.681z"/>
<path style="fill:#C2185B;" d="M510.717,281.553l-110.89-110.89l-26.713,26.713l-37.843-37.843l-11.13,11.13L206.157,52.68  l-33.203,174.87L407.65,462.247C464.481,420.392,503.374,355.615,510.717,281.553z"/>
<path style="fill:#0097A7;" d="M261.097,440.765l22.261,69.778c46.218-4.911,88.756-22.122,124.294-48.295L261.097,440.765z"/>
<path style="fill:#00BCD4;" d="M160.555,493.598C190.052,505.46,222.26,512,256,512c9.499,0,18.873-0.533,28.103-1.543v-69.692  l-123.548,21.484V493.598z"/>
<path style="fill:#FFAB91;" d="M38.121,263.013c0,15.981,12.957,28.939,28.939,28.939c51.553,0.001,93.496,41.943,93.496,93.496  h57.878c0-83.466-67.906-151.373-151.374-151.374C51.078,234.074,38.121,247.031,38.121,263.013z"/>
<path style="fill:#FF7043;" d="M289.668,178.422v48.974h53.426v-48.974c0-14.753-11.96-26.713-26.713-26.713  S289.668,163.67,289.668,178.422z"/>
<path style="fill:#FF8A65;" d="M225.112,167.292v48.974h53.426v-48.974c0-14.753-11.96-26.713-26.713-26.713  S225.112,152.539,225.112,167.292z"/>
<path style="fill:#FF7043;" d="M354.225,189.552v26.713l53.426-22.261v-4.452c0-14.753-11.96-26.713-26.713-26.713  S354.225,174.8,354.225,189.552z"/>
<g>
	<path style="fill:#FF8A65;" d="M160.555,71.57v122.435l53.426,44.522V71.57c0-14.753-11.96-26.713-26.713-26.713   C172.515,44.857,160.555,56.818,160.555,71.57z"/>
	<polygon style="fill:#FF8A65;" points="407.651,405.483 407.651,194.005 284.103,194.005 261.842,427.744  "/>
</g>
<polygon style="fill:#FFAB91;" points="160.555,405.483 284.103,427.744 284.103,194.005 160.555,194.005 "/>
<polygon style="fill:#E0F7FA;" points="284.103,462.248 407.651,462.248 407.651,405.483 284.103,405.483 261.842,435.535 "/>
<rect x="160.557" y="405.482" style="fill:#FFFFFF;" width="123.548" height="56.765"/>
<g>
</g>
<g>
</g>
<g>
</g>
<g>
</g>
<g>
</g>
<g>
</g>
<g>
</g>
<g>
</g>
<g>
</g>
<g>
</g>
<g>
</g>
<g>
</g>
<g>
</g>
<g>
</g>
<g>
</g>
</svg>
