<?xml version="1.0" encoding="iso-8859-1"?>
<!-- Generator: Adobe Illustrator 19.0.0, SVG Export Plug-In . SVG Version: 6.00 Build 0)  -->
<svg xmlns="http://www.w3.org/2000/svg" xmlns:xlink="http://www.w3.org/1999/xlink" version="1.1" id="Layer_1" x="0px" y="0px" viewBox="0 0 512 512" style="enable-background:new 0 0 512 512;" xml:space="preserve">
<path style="fill:#FFCCBC;" d="M500.59,180.206C468.281,75.826,370.997,0,256,0C114.615,0,0,114.615,0,256  c0,117.534,79.211,216.556,187.158,246.625L500.59,180.206z"/>
<path style="fill:#FFAB91;" d="M89.043,290.504l33.171,33.171l-33.171,11.351l44.522,44.522l-34.741,34.741l88.334,88.336  C209.064,508.727,232.149,512,256,512c141.384,0,256-114.615,256-256c0-26.388-3.996-51.841-11.41-75.793l-77.634-77.634  l-52.842,10.584l-9.486,38.496L89.043,290.504z"/>
<polygon style="fill:#FF5722;" points="228.135,151.652 228.135,279.374 89.043,268.243 66.705,162.783 "/>
<rect x="205.88" y="151.652" style="fill:#FF7043;" width="159.321" height="127.722"/>
<polygon style="fill:#E64A19;" points="205.913,140.522 364.869,140.522 364.869,162.783 205.874,162.783 66.705,162.783   66.705,140.522 "/>
<path style="fill:#263238;" d="M113.328,390.678l9.107,33.391c18.442,0,33.391-14.949,33.391-33.391s-14.949-33.391-33.391-33.391  L113.328,390.678z"/>
<path style="fill:#37474F;" d="M89.043,390.678c0,18.442,14.949,33.391,33.391,33.391v-66.783  C103.993,357.287,89.043,372.236,89.043,390.678z"/>
<path style="fill:#263238;" d="M289.304,390.678l9.107,33.391c18.442,0,33.391-14.949,33.391-33.391s-14.949-33.391-33.391-33.391  L289.304,390.678z"/>
<g>
	<path style="fill:#37474F;" d="M265.019,390.678c0,18.442,14.949,33.391,33.391,33.391v-66.783   C279.969,357.287,265.019,372.236,265.019,390.678z"/>
	<rect x="89.043" y="268.243" style="fill:#37474F;" width="276.146" height="22.261"/>
</g>
<polygon style="fill:#263238;" points="89.043,335.026 376.323,335.026 376.323,124.834 422.957,124.834 422.957,102.574   354.062,102.574 354.062,312.765 89.043,312.765 "/>
<g>
</g>
<g>
</g>
<g>
</g>
<g>
</g>
<g>
</g>
<g>
</g>
<g>
</g>
<g>
</g>
<g>
</g>
<g>
</g>
<g>
</g>
<g>
</g>
<g>
</g>
<g>
</g>
<g>
</g>
</svg>
