<?xml version="1.0" encoding="iso-8859-1"?>
<!-- Generator: Adobe Illustrator 19.0.0, SVG Export Plug-In . SVG Version: 6.00 Build 0)  -->
<svg xmlns="http://www.w3.org/2000/svg" xmlns:xlink="http://www.w3.org/1999/xlink" version="1.1" id="Layer_1" x="0px" y="0px" viewBox="0 0 512.001 512.001" style="enable-background:new 0 0 512.001 512.001;" xml:space="preserve">
<path style="fill:#B2EBF2;" d="M502.856,188.034c-11.36-41.407-33.296-80.519-65.829-113.052  c-99.976-99.976-262.07-99.976-362.045,0s-99.976,262.07,0,362.045c32.533,32.533,71.646,54.468,113.052,65.829L502.856,188.034z"/>
<path style="fill:#4DD0E1;" d="M437.028,437.028c67.443-67.443,89.379-163.153,65.829-248.993l-89.44-89.44L114.335,429.156  l73.699,73.699C273.875,526.407,369.584,504.47,437.028,437.028z"/>
<polygon style="fill:#263238;" points="98.594,397.674 130.076,413.415 208.782,334.711 193.04,303.228 "/>
<g>
	<polygon style="fill:#455A64;" points="200.912,311.098 177.299,303.228 98.594,381.933 106.465,405.545  "/>
	<polygon style="fill:#455A64;" points="219.8,276.468 193.04,318.97 208.782,334.711 243.412,300.08  "/>
</g>
<g>
	
		<rect x="191.362" y="269.292" transform="matrix(-0.7071 -0.7071 0.7071 -0.7071 137.9436 644.697)" style="fill:#78909C;" width="22.261" height="48.974"/>
	<polygon style="fill:#78909C;" points="98.594,413.415 114.335,429.156 130.076,413.415 114.335,397.674 98.594,397.674  "/>
</g>
<rect x="87.462" y="386.542" transform="matrix(-0.7071 0.7071 -0.7071 -0.7071 449.5057 609.1544)" style="fill:#B0BEC5;" width="22.261" height="22.261"/>
<path style="fill:#78909C;" d="M413.415,98.594L287.487,177.3l-78.706,125.929c56.508,56.508,148.126,56.508,204.634,0  S469.923,155.102,413.415,98.594z"/>
<path style="fill:#B0BEC5;" d="M208.782,98.594c-56.508,56.508-56.508,148.126,0,204.634L413.415,98.594  C356.907,42.085,265.29,42.086,208.782,98.594z"/>
<path style="fill:#E0F7FA;" d="M311.098,89.605l-33.392,111.306l33.392,111.306c61.473,0,111.306-49.833,111.306-111.306  S372.572,89.605,311.098,89.605z"/>
<path style="fill:#FFFFFF;" d="M199.792,200.911c0,61.473,49.833,111.306,111.306,111.306V89.605  C249.626,89.605,199.792,139.438,199.792,200.911z"/>
<polygon style="fill:#263238;" points="377.883,189.781 311.099,189.781 299.969,200.911 311.099,212.042 377.883,212.042 "/>
<rect x="244.318" y="189.778" style="fill:#455A64;" width="66.784" height="22.261"/>
<g>
</g>
<g>
</g>
<g>
</g>
<g>
</g>
<g>
</g>
<g>
</g>
<g>
</g>
<g>
</g>
<g>
</g>
<g>
</g>
<g>
</g>
<g>
</g>
<g>
</g>
<g>
</g>
<g>
</g>
</svg>
