<?xml version="1.0" encoding="iso-8859-1"?>
<!-- Generator: Adobe Illustrator 19.0.0, SVG Export Plug-In . SVG Version: 6.00 Build 0)  -->
<svg xmlns="http://www.w3.org/2000/svg" xmlns:xlink="http://www.w3.org/1999/xlink" version="1.1" id="Layer_1" x="0px" y="0px" viewBox="0 0 512 512" style="enable-background:new 0 0 512 512;" xml:space="preserve">
<path style="fill:#F8BBD0;" d="M502.388,186.283C472.029,78.782,373.217,0,256,0C114.615,0,0,114.616,0,256  c0,117.226,78.795,216.045,186.309,246.394L502.388,186.283z"/>
<path style="fill:#F48FB1;" d="M512,256c0-24.168-3.354-47.553-9.612-69.717l-64.725-64.725L97.949,414.034l88.36,88.36  C208.466,508.649,231.841,512,256,512C397.385,512,512,397.384,512,256z"/>
<path style="fill:#263238;" d="M364.356,414.034V147.627H231.152l-50.265,133.203l50.265,133.203H364.356z"/>
<path style="fill:#880E4F;" d="M231.152,414.034V147.627H97.949v266.407H231.152z"/>
<path style="fill:#FCE4EC;" d="M342.095,391.773V169.888H231.152l-41.865,110.943l41.865,110.943H342.095z"/>
<path style="fill:#FFFFFF;" d="M231.152,391.773V169.888H120.21v221.885H231.152z"/>
<polygon style="fill:#E91E63;" points="390.441,74.337 231.171,233.608 208.909,274.922 231.169,328.055 437.663,121.559 "/>
<polygon style="fill:#F06292;" points="167.425,169.854 120.199,217.072 231.169,328.055 231.171,233.608 "/>
<g>
</g>
<g>
</g>
<g>
</g>
<g>
</g>
<g>
</g>
<g>
</g>
<g>
</g>
<g>
</g>
<g>
</g>
<g>
</g>
<g>
</g>
<g>
</g>
<g>
</g>
<g>
</g>
<g>
</g>
</svg>
