<?xml version="1.0" encoding="iso-8859-1"?>
<!-- Generator: Adobe Illustrator 19.0.0, SVG Export Plug-In . SVG Version: 6.00 Build 0)  -->
<svg xmlns="http://www.w3.org/2000/svg" xmlns:xlink="http://www.w3.org/1999/xlink" version="1.1" id="Layer_1" x="0px" y="0px" viewBox="0 0 512 512" style="enable-background:new 0 0 512 512;" xml:space="preserve">
<path style="fill:#FBE9E7;" d="M503.008,188.572C473.412,79.905,374.045,0,256,0C114.616,0,0,114.616,0,256  c0,118.045,79.905,217.411,188.572,247.007L503.008,188.572z"/>
<path style="fill:#FFCCBC;" d="M512,256c0-23.339-3.142-45.942-8.993-67.428l-89.789-89.789L98.783,413.217l89.789,89.789  C210.057,508.858,232.661,512,256,512C397.385,512,512,397.385,512,256z"/>
<path style="fill:#C2185B;" d="M426.296,130.226v251.548c0,24.487-20.035,44.522-44.522,44.522H256L200.348,256L256,85.704h125.774  C406.261,85.704,426.296,105.739,426.296,130.226z"/>
<path style="fill:#E91E63;" d="M256,85.704v340.591H130.226c-24.487,0-44.522-20.035-44.522-44.522V130.226  c0-24.487,20.035-44.522,44.522-44.522H256z"/>
<path style="fill:#880E4F;" d="M256,211.478L241.16,256L256,300.522c24.549,0,44.522-19.972,44.522-44.522  S280.549,211.478,256,211.478z"/>
<path style="fill:#C2185B;" d="M211.478,256c0,24.549,19.972,44.522,44.522,44.522v-89.043  C231.451,211.478,211.478,231.451,211.478,256z"/>
<path style="fill:#FFCCBC;" d="M256,228.174L246.725,256L256,283.826c15.343,0,27.826-12.483,27.826-27.826  S271.343,228.174,256,228.174z"/>
<path style="fill:#FFFFFF;" d="M228.174,256c0,15.343,12.483,27.826,27.826,27.826v-55.652  C240.657,228.174,228.174,240.657,228.174,256z"/>
<path style="fill:#AD1457;" d="M164.73,302.748l-14.84,44.522l14.84,44.522c24.549,0,44.522-19.972,44.522-44.522  S189.28,302.748,164.73,302.748z"/>
<path style="fill:#C2185B;" d="M120.209,347.27c0,24.549,19.972,44.522,44.522,44.522v-89.043  C140.181,302.748,120.209,322.72,120.209,347.27z"/>
<path style="fill:#FBE9E7;" d="M164.73,319.443l-9.275,27.826l9.275,27.826c15.343,0,27.826-12.483,27.826-27.826  C192.557,331.926,180.074,319.443,164.73,319.443z"/>
<path style="fill:#FFFFFF;" d="M136.904,347.27c0,15.343,12.483,27.826,27.826,27.826v-55.652  C149.387,319.443,136.904,331.926,136.904,347.27z"/>
<path style="fill:#AD1457;" d="M164.73,120.209l-14.84,44.522l14.84,44.522c24.549,0,44.522-19.972,44.522-44.522  S189.28,120.209,164.73,120.209z"/>
<path style="fill:#C2185B;" d="M120.209,164.73c0,24.549,19.972,44.522,44.522,44.522v-89.043  C140.181,120.209,120.209,140.181,120.209,164.73z"/>
<path style="fill:#FBE9E7;" d="M164.73,136.904l-9.275,27.826l9.275,27.826c15.343,0,27.826-12.483,27.826-27.826  S180.074,136.904,164.73,136.904z"/>
<path style="fill:#FFFFFF;" d="M136.904,164.73c0,15.343,12.483,27.826,27.826,27.826v-55.652  C149.387,136.904,136.904,149.387,136.904,164.73z"/>
<path style="fill:#880E4F;" d="M347.27,120.209l-14.84,44.522l14.84,44.522c24.549,0,44.522-19.972,44.522-44.522  S371.819,120.209,347.27,120.209z"/>
<path style="fill:#AD1457;" d="M302.748,164.73c0,24.549,19.972,44.522,44.522,44.522v-89.043  C322.72,120.209,302.748,140.181,302.748,164.73z"/>
<path style="fill:#FFCCBC;" d="M347.27,136.904l-9.275,27.826l9.275,27.826c15.343,0,27.826-12.483,27.826-27.826  S362.613,136.904,347.27,136.904z"/>
<path style="fill:#FBE9E7;" d="M319.443,164.73c0,15.343,12.483,27.826,27.826,27.826v-55.652  C331.926,136.904,319.443,149.387,319.443,164.73z"/>
<path style="fill:#880E4F;" d="M347.27,302.748l-14.84,44.522l14.84,44.522c24.549,0,44.522-19.972,44.522-44.522  S371.819,302.748,347.27,302.748z"/>
<path style="fill:#AD1457;" d="M302.748,347.27c0,24.549,19.972,44.522,44.522,44.522v-89.043  C322.72,302.748,302.748,322.72,302.748,347.27z"/>
<path style="fill:#FFCCBC;" d="M347.27,319.443l-9.275,27.826l9.275,27.826c15.343,0,27.826-12.483,27.826-27.826  C375.096,331.926,362.613,319.443,347.27,319.443z"/>
<path style="fill:#FBE9E7;" d="M319.443,347.27c0,15.343,12.483,27.826,27.826,27.826v-55.652  C331.926,319.443,319.443,331.926,319.443,347.27z"/>
<g>
</g>
<g>
</g>
<g>
</g>
<g>
</g>
<g>
</g>
<g>
</g>
<g>
</g>
<g>
</g>
<g>
</g>
<g>
</g>
<g>
</g>
<g>
</g>
<g>
</g>
<g>
</g>
<g>
</g>
</svg>
