<?xml version="1.0" encoding="iso-8859-1"?>
<!-- Generator: Adobe Illustrator 19.0.0, SVG Export Plug-In . SVG Version: 6.00 Build 0)  -->
<svg xmlns="http://www.w3.org/2000/svg" xmlns:xlink="http://www.w3.org/1999/xlink" version="1.1" id="Layer_1" x="0px" y="0px" viewBox="0 0 512 512" style="enable-background:new 0 0 512 512;" xml:space="preserve">
<path style="fill:#006064;" d="M201.005,201.005c85.432-85.432,210.927-103.889,210.927-103.889l90.933,90.933  C473.095,79.648,373.856,0,256,0C114.616,0,0,114.615,0,256c0,117.856,79.648,217.095,188.05,246.865l-90.933-90.933  C97.115,411.932,115.574,286.436,201.005,201.005z"/>
<path style="fill:#263238;" d="M512,256c0-23.529-3.191-46.309-9.135-67.951l-90.933-90.933c0,0-125.496,18.458-210.927,103.889  S97.115,411.932,97.115,411.932l90.933,90.933C209.691,508.809,232.471,512,256,512C397.385,512,512,397.384,512,256z"/>
<path style="fill:#FFF59D;" d="M404.569,104.468L257.202,218.455l52.836,78.737C381.44,225.79,435.879,135.778,404.569,104.468z"/>
<path style="fill:#FFF9C4;" d="M404.569,104.468L290.593,218.455l-16.974-68.708C303.215,127.052,374.283,78.033,404.569,104.468z"/>
<path style="fill:#FFEB3B;" d="M334.348,176.941c-11.454-11.454-24.784-19.89-39.001-25.307l-9.444-9.444l-18.999,2.719  c-32.111-3.246-65.363,7.432-89.965,32.032l46.905,110.504l110.504,46.905C377.815,290.882,377.815,220.407,334.348,176.941z"/>
<path style="fill:#00ACC1;" d="M218.446,257.2l78.748,52.836c-71.402,71.402-161.414,125.841-192.723,94.542L218.446,257.2z"/>
<path style="fill:#00BCD4;" d="M218.446,290.591L104.47,404.578c-26.435-30.297,22.584-101.365,45.279-130.95L218.446,290.591z"/>
<path style="fill:#80DEEA;" d="M176.941,334.348c43.467,43.467,113.941,43.467,157.408,0L176.941,176.941  c-24.602,24.602-35.279,57.854-32.032,89.965l-2.719,18.997l9.444,9.444C157.05,309.564,165.486,322.894,176.941,334.348z"/>
<path style="fill:#FFF9C4;" d="M266.872,145.227c9.656,0.942,19.211,3.141,28.402,6.599c56.054-40.103,92.246-47.642,100.917-38.97  c5.768,5.768,5.474,25.466-14.338,61.997c-19.367,35.709-51.624,76.965-90.83,116.171l15.741,15.741  c78.221-78.221,139.464-175.352,105.168-209.648C379.713,64.897,299.829,119.962,266.872,145.227z"/>
<path style="fill:#00BCD4;" d="M174.852,381.853c-36.53,19.812-56.228,20.106-61.997,14.338  c-8.672-8.672-1.132-44.863,38.97-100.917c-3.458-9.19-5.658-18.746-6.599-28.402c-25.265,32.956-80.331,112.84-48.111,145.06  c34.296,34.296,131.427-26.946,209.648-105.168l-15.741-15.741C251.817,330.229,210.561,362.486,174.852,381.853z"/>
<g>
	<rect x="244.614" y="167.491" style="fill:#FFF9C4;" width="22.261" height="22.261"/>
	<rect x="278.005" y="200.882" style="fill:#FFF9C4;" width="22.261" height="22.261"/>
</g>
<g>
</g>
<g>
</g>
<g>
</g>
<g>
</g>
<g>
</g>
<g>
</g>
<g>
</g>
<g>
</g>
<g>
</g>
<g>
</g>
<g>
</g>
<g>
</g>
<g>
</g>
<g>
</g>
<g>
</g>
</svg>
