<?xml version="1.0" encoding="iso-8859-1"?>
<!-- Generator: Adobe Illustrator 19.0.0, SVG Export Plug-In . SVG Version: 6.00 Build 0)  -->
<svg xmlns="http://www.w3.org/2000/svg" xmlns:xlink="http://www.w3.org/1999/xlink" version="1.1" id="Layer_1" x="0px" y="0px" viewBox="0 0 512 512" style="enable-background:new 0 0 512 512;" xml:space="preserve">
<path style="fill:#78909C;" d="M498.075,172.518C463.459,72.124,368.155,0,256,0C114.616,0,0,114.616,0,256  c0,119.42,81.771,219.737,192.374,248.026L498.075,172.518z"/>
<path style="fill:#455A64;" d="M389.565,172.522l-267.13,261.565l69.939,69.939C212.717,509.23,234.035,512,256,512  c112.154,0,207.464-72.122,242.079-172.516L389.565,172.522z"/>
<polygon style="fill:#E0F7FA;" points="256,77.913 211.478,256 256,434.087 322.783,434.087 345.043,389.565 389.565,367.304   389.565,77.913 "/>
<rect x="122.435" y="77.913" style="fill:#FFFFFF;" width="133.565" height="356.174"/>
<polygon style="fill:#80DEEA;" points="322.783,434.087 322.783,367.304 389.565,367.304 "/>
<path style="fill:#B0BEC5;" d="M512,256l-144.696,11.13l22.261-94.609h108.5C507.091,198.689,512,226.771,512,256z"/>
<polygon style="fill:#FBC02D;" points="389.565,172.522 389.565,270.358 229.064,289.191 250.913,172.522 "/>
<path style="fill:#90A4AE;" d="M345.043,256H512c0,29.229-4.909,57.311-13.935,83.478h-108.5L345.043,256z"/>
<polygon style="fill:#F9A825;" points="389.565,256 389.565,339.478 250.913,339.478 195.673,256 "/>
<polygon style="fill:#FFEB3B;" points="256,126.33 256,256 170.296,278.261 84.591,256 "/>
<polygon style="fill:#FBC02D;" points="256,256 84.591,256 256,385.67 "/>
<g>
</g>
<g>
</g>
<g>
</g>
<g>
</g>
<g>
</g>
<g>
</g>
<g>
</g>
<g>
</g>
<g>
</g>
<g>
</g>
<g>
</g>
<g>
</g>
<g>
</g>
<g>
</g>
<g>
</g>
</svg>
