<?xml version="1.0" encoding="iso-8859-1"?>
<!-- Generator: Adobe Illustrator 19.0.0, SVG Export Plug-In . SVG Version: 6.00 Build 0)  -->
<svg xmlns="http://www.w3.org/2000/svg" xmlns:xlink="http://www.w3.org/1999/xlink" version="1.1" id="Layer_1" x="0px" y="0px" viewBox="0 0 512 512" style="enable-background:new 0 0 512 512;" xml:space="preserve">
<path style="fill:#0097A7;" d="M503.84,191.652C475.3,81.415,375.159,0,256,0C114.616,0,0,114.616,0,256  c0,119.15,81.401,219.283,191.625,247.832L503.84,191.652z"/>
<path style="fill:#006064;" d="M512,256c0-22.225-2.837-43.787-8.16-64.348L387.607,75.419L124.383,436.591l67.242,67.242  C212.194,509.161,233.765,512,256,512C397.385,512,512,397.385,512,256z"/>
<path style="fill:#FFEB3B;" d="M356.174,62.33H256l-66.783,210.365L256,449.67h100.174c24.487,0,44.522-20.035,44.522-44.522  V106.852C400.696,82.365,380.661,62.33,356.174,62.33z"/>
<g>
	<path style="fill:#FFF9C4;" d="M155.826,62.33c-24.487,0-44.522,20.035-44.522,44.522v298.296   c0,24.487,20.035,44.522,44.522,44.522H256V62.33H155.826z"/>
	<path style="fill:#FFF9C4;" d="M256,427.409L212.773,256L256,84.591h100.174c12.275,0,22.261,9.986,22.261,22.261v298.296   c0,12.275-9.986,22.261-22.261,22.261H256z"/>
</g>
<path style="fill:#FFFFFF;" d="M155.826,427.409c-12.275,0-22.261-9.986-22.261-22.261V106.852c0-12.275,9.986-22.261,22.261-22.261  H256v342.817H155.826z"/>
<polygon points="278.261,304.417 278.261,371.2 244.87,371.2 256,304.417 "/>
<g>
	<rect x="233.739" y="304.417" style="fill:#263238;" width="22.261" height="66.783"/>
	<polygon style="fill:#263238;" points="325.704,360.07 325.704,382.33 256,382.33 228.174,371.2 256,360.07  "/>
</g>
<rect x="186.29" y="360.07" style="fill:#006064;" width="69.699" height="22.261"/>
<path style="fill:#263238;" d="M303.443,337.808c-19.558,0-36.87-9.635-47.443-24.42l-22.261-91.858L256,129.671l92.585,112.959  c8.224,10.049,13.154,22.891,13.154,36.887C361.739,311.708,335.64,337.808,303.443,337.808z"/>
<path style="fill:#006064;" d="M208.557,337.808c-32.196,0-58.296-26.1-58.296-58.291c0-13.997,4.931-26.839,13.154-36.887  L256,129.671v183.717C245.426,328.173,228.115,337.808,208.557,337.808z"/>
<g>
</g>
<g>
</g>
<g>
</g>
<g>
</g>
<g>
</g>
<g>
</g>
<g>
</g>
<g>
</g>
<g>
</g>
<g>
</g>
<g>
</g>
<g>
</g>
<g>
</g>
<g>
</g>
<g>
</g>
</svg>
