<?xml version="1.0" encoding="iso-8859-1"?>
<!-- Generator: Adobe Illustrator 19.0.0, SVG Export Plug-In . SVG Version: 6.00 Build 0)  -->
<svg xmlns="http://www.w3.org/2000/svg" xmlns:xlink="http://www.w3.org/1999/xlink" version="1.1" id="Layer_1" x="0px" y="0px" viewBox="0 0 512 512" style="enable-background:new 0 0 512 512;" xml:space="preserve">
<path style="fill:#80DEEA;" d="M502.801,187.809C472.949,79.53,373.769,0,256,0C114.616,0,0,114.616,0,256  c0,117.769,79.53,216.949,187.809,246.801L502.801,187.809z"/>
<path style="fill:#26C6DA;" d="M512,256c0-23.615-3.213-46.477-9.199-68.191l-82.07-82.07L91.27,406.261l96.54,96.54  C209.522,508.787,232.385,512,256,512C397.384,512,512,397.384,512,256z"/>
<rect x="233.739" y="317.217" style="fill:#ECEFF1;" width="175.861" height="77.913"/>
<rect x="102.4" y="317.217" style="fill:#FFFFFF;" width="153.6" height="77.913"/>
<rect x="233.739" y="217.043" style="fill:#26C6DA;" width="175.861" height="122.435"/>
<rect x="102.4" y="217.043" style="fill:#4DD0E1;" width="153.6" height="122.435"/>
<g>
	<polygon style="fill:#FFFFFF;" points="135.791,244.87 135.791,311.652 169.183,278.261  "/>
	<polygon style="fill:#FFFFFF;" points="342.817,278.261 376.209,311.652 376.209,244.87  "/>
</g>
<rect x="233.739" y="161.391" style="fill:#ECEFF1;" width="175.861" height="55.652"/>
<rect x="102.4" y="161.391" style="fill:#FFFFFF;" width="153.6" height="55.652"/>
<path style="fill:#455A64;" d="M398.47,161.391v44.522H267.13v-44.522H244.87L256,228.174h142.47v100.174H256l-5.565,38.957  L256,406.261h164.73V172.522L398.47,161.391z M398.47,384H267.13v-33.391H398.47V384z"/>
<polygon style="fill:#263238;" points="256,105.739 233.739,139.13 256,172.522 420.73,172.522 420.73,105.739 "/>
<path style="fill:#546E7A;" d="M113.53,228.174H256v-55.652l-11.13-11.13v44.522H113.53v-44.522l-22.261,11.13v233.739H256v-77.913  H113.53V228.174z M244.87,350.609V384H113.53v-33.391H244.87z"/>
<rect x="91.27" y="105.739" style="fill:#455A64;" width="164.73" height="66.783"/>
<g>
</g>
<g>
</g>
<g>
</g>
<g>
</g>
<g>
</g>
<g>
</g>
<g>
</g>
<g>
</g>
<g>
</g>
<g>
</g>
<g>
</g>
<g>
</g>
<g>
</g>
<g>
</g>
<g>
</g>
</svg>
