<?xml version="1.0" encoding="iso-8859-1"?>
<!-- Generator: Adobe Illustrator 19.0.0, SVG Export Plug-In . SVG Version: 6.00 Build 0)  -->
<svg xmlns="http://www.w3.org/2000/svg" xmlns:xlink="http://www.w3.org/1999/xlink" version="1.1" id="Layer_1" x="0px" y="0px" viewBox="0 0 512 512" style="enable-background:new 0 0 512 512;" xml:space="preserve">
<path style="fill:#C2185B;" d="M504.924,196.055C477.939,83.593,376.74,0,256,0C114.615,0,0,114.616,0,256  c0,120.211,82.864,221.053,194.583,248.565L504.924,196.055z"/>
<path style="fill:#880E4F;" d="M512,256c0-20.646-2.461-40.714-7.076-59.945l-62.49-62.49L68.452,378.435l126.131,126.13  C214.261,509.411,234.827,512,256,512C397.384,512,512,397.384,512,256z"/>
<path style="fill:#F57F17;" d="M420.174,328.348c0-12.295,9.966-22.261,22.261-22.261v-27.826c-12.295,0-22.261-9.966-22.261-22.261  c0-12.295,9.966-22.261,22.261-22.261v-27.826c-12.295,0-22.261-9.966-22.261-22.261c0-12.295,9.966-22.261,22.261-22.261v-27.826  h-66.783l-11.13,11.13l-11.13-11.13h-97.948L208.223,256l47.221,122.435h97.948l11.13-11.13l11.13,11.13h66.783v-27.826  C430.14,350.609,420.174,340.642,420.174,328.348z"/>
<g>
	<path style="fill:#F9A825;" d="M68.452,133.565v27.826c12.295,0,22.261,9.966,22.261,22.261c0,12.295-9.966,22.261-22.261,22.261   v27.826c12.295,0,22.261,9.966,22.261,22.261c0,12.295-9.966,22.261-22.261,22.261v27.826c12.295,0,22.261,9.966,22.261,22.261   s-9.966,22.261-22.261,22.261v27.826h186.991v-244.87H68.452z"/>
	<rect x="353.391" y="345.043" style="fill:#F9A825;" width="22.261" height="33.391"/>
	<rect x="353.391" y="133.565" style="fill:#F9A825;" width="22.261" height="33.391"/>
</g>
<polygon style="fill:#FFEB3B;" points="255.443,155.826 210.922,256 255.443,356.174 397.913,356.174 397.913,155.826 "/>
<rect x="112.974" y="155.826" style="fill:#FFF59D;" width="142.47" height="200.348"/>
<g>
	<rect x="353.391" y="311.652" style="fill:#F9A825;" width="22.261" height="22.261"/>
	<rect x="353.391" y="267.13" style="fill:#F9A825;" width="22.261" height="22.261"/>
	<rect x="353.391" y="222.609" style="fill:#F9A825;" width="22.261" height="22.261"/>
	<rect x="353.391" y="178.087" style="fill:#F9A825;" width="22.261" height="22.261"/>
</g>
<g>
</g>
<g>
</g>
<g>
</g>
<g>
</g>
<g>
</g>
<g>
</g>
<g>
</g>
<g>
</g>
<g>
</g>
<g>
</g>
<g>
</g>
<g>
</g>
<g>
</g>
<g>
</g>
<g>
</g>
</svg>
