<?xml version="1.0" encoding="iso-8859-1"?>
<!-- Generator: Adobe Illustrator 19.0.0, SVG Export Plug-In . SVG Version: 6.00 Build 0)  -->
<svg xmlns="http://www.w3.org/2000/svg" xmlns:xlink="http://www.w3.org/1999/xlink" version="1.1" id="Layer_1" x="0px" y="0px" viewBox="0 0 512 512" style="enable-background:new 0 0 512 512;" xml:space="preserve">
<path style="fill:#E0F7FA;" d="M502.801,187.809C472.949,79.53,373.769,0,256,0C114.616,0,0,114.616,0,256  c0,117.769,79.53,216.949,187.809,246.801L502.801,187.809z"/>
<path style="fill:#B2EBF2;" d="M512,256c0-23.615-3.213-46.477-9.199-68.191l-82.07-82.07L91.27,406.261l96.54,96.54  C209.522,508.787,232.385,512,256,512C397.384,512,512,397.384,512,256z"/>
<rect x="233.739" y="317.217" style="fill:#ECEFF1;" width="175.861" height="77.913"/>
<rect x="102.4" y="317.217" style="fill:#FFFFFF;" width="153.6" height="77.913"/>
<rect x="233.739" y="239.304" style="fill:#26C6DA;" width="175.861" height="77.913"/>
<rect x="102.4" y="239.304" style="fill:#4DD0E1;" width="153.6" height="77.913"/>
<rect x="233.739" y="161.391" style="fill:#ECEFF1;" width="175.861" height="77.913"/>
<rect x="102.4" y="161.391" style="fill:#FFFFFF;" width="153.6" height="77.913"/>
<g>
	<rect x="250.435" y="161.391" style="fill:#455A64;" width="16.696" height="66.783"/>
	<polygon style="fill:#455A64;" points="420.73,172.522 398.47,161.391 398.47,228.174 420.73,228.174  "/>
	<polygon style="fill:#455A64;" points="398.47,384 267.13,384 267.13,317.217 250.435,317.217 256,406.261 420.73,406.261    420.73,328.348 398.47,317.217  "/>
</g>
<g>
	<path style="fill:#263238;" d="M250.435,228.174v100.174H420.73V228.174H250.435z M398.47,306.087H267.13v-55.652H398.47V306.087z"/>
	<polygon style="fill:#263238;" points="256,105.739 233.739,139.13 256,172.522 420.73,172.522 420.73,105.739  "/>
</g>
<g>
	<polygon style="fill:#546E7A;" points="113.53,161.391 91.27,172.522 91.27,228.174 113.53,239.304  "/>
	<polygon style="fill:#546E7A;" points="256,172.522 244.87,161.391 244.87,239.304 256,228.174  "/>
	<polygon style="fill:#546E7A;" points="244.87,317.217 244.87,384 113.53,384 113.53,317.217 91.27,328.348 91.27,406.261    256,406.261 256,328.348  "/>
</g>
<path style="fill:#37474F;" d="M256,328.348V228.174H91.27v100.174H256z M113.53,250.435H244.87v55.652H113.53V250.435z"/>
<rect x="91.27" y="105.739" style="fill:#455A64;" width="164.73" height="66.783"/>
<g>
</g>
<g>
</g>
<g>
</g>
<g>
</g>
<g>
</g>
<g>
</g>
<g>
</g>
<g>
</g>
<g>
</g>
<g>
</g>
<g>
</g>
<g>
</g>
<g>
</g>
<g>
</g>
<g>
</g>
</svg>
