<?xml version="1.0" encoding="iso-8859-1"?>
<!-- Generator: Adobe Illustrator 19.0.0, SVG Export Plug-In . SVG Version: 6.00 Build 0)  -->
<svg xmlns="http://www.w3.org/2000/svg" xmlns:xlink="http://www.w3.org/1999/xlink" version="1.1" id="Layer_1" x="0px" y="0px" viewBox="0 0 512 512" style="enable-background:new 0 0 512 512;" xml:space="preserve">
<path style="fill:#E0F7FA;" d="M502.801,187.809C472.949,79.53,373.769,0,256,0C114.616,0,0,114.616,0,256  c0,117.769,79.53,216.949,187.809,246.801L502.801,187.809z"/>
<path style="fill:#B2EBF2;" d="M512,256c0-23.615-3.213-46.477-9.199-68.191l-82.07-82.07L91.27,406.261l96.54,96.54  C209.522,508.787,232.385,512,256,512C397.384,512,512,397.384,512,256z"/>
<rect x="233.739" y="317.217" style="fill:#ECEFF1;" width="175.861" height="77.913"/>
<rect x="102.4" y="317.217" style="fill:#FFFFFF;" width="153.6" height="77.913"/>
<rect x="233.739" y="239.304" style="fill:#B2EBF2;" width="175.861" height="77.913"/>
<rect x="102.4" y="239.304" style="fill:#E0F7FA;" width="153.6" height="77.913"/>
<rect x="233.739" y="161.391" style="fill:#ECEFF1;" width="175.861" height="77.913"/>
<rect x="102.4" y="161.391" style="fill:#FFFFFF;" width="153.6" height="77.913"/>
<path style="fill:#455A64;" d="M398.47,161.391v55.652H267.13v-55.652h-21.148L256,406.261h164.73v-66.783l11.13-61.217  l-11.13-61.217v-44.522L398.47,161.391z M398.47,384H267.13v-44.522H398.47V384z M398.47,306.087H267.13v-55.652H398.47V306.087z"/>
<polygon style="fill:#263238;" points="256,105.739 233.739,139.13 256,172.522 420.73,172.522 420.73,105.739 "/>
<path style="fill:#546E7A;" d="M244.87,161.391v55.652H113.53v-55.652l-22.261,11.13v44.522l-11.13,61.217l11.13,61.217v66.783H256  V172.522L244.87,161.391z M244.87,384H113.53v-44.522H244.87V384z M244.87,306.087H113.53v-55.652H244.87V306.087z"/>
<rect x="91.27" y="105.739" style="fill:#455A64;" width="164.73" height="66.783"/>
<polygon style="fill:#00BCD4;" points="256,205.913 244.87,217.043 256,228.174 420.73,228.174 420.73,328.348 256,328.348   244.87,339.478 256,350.609 442.991,350.609 442.991,205.913 "/>
<polygon style="fill:#4DD0E1;" points="91.27,328.348 91.27,228.174 256,228.174 256,205.913 69.009,205.913 69.009,350.609   256,350.609 256,328.348 "/>
<g>
</g>
<g>
</g>
<g>
</g>
<g>
</g>
<g>
</g>
<g>
</g>
<g>
</g>
<g>
</g>
<g>
</g>
<g>
</g>
<g>
</g>
<g>
</g>
<g>
</g>
<g>
</g>
<g>
</g>
</svg>
