<?xml version="1.0" encoding="iso-8859-1"?>
<!-- Generator: Adobe Illustrator 19.0.0, SVG Export Plug-In . SVG Version: 6.00 Build 0)  -->
<svg xmlns="http://www.w3.org/2000/svg" xmlns:xlink="http://www.w3.org/1999/xlink" version="1.1" id="Layer_1" x="0px" y="0px" viewBox="0 0 512 512" style="enable-background:new 0 0 512 512;" xml:space="preserve">
<path style="fill:#FFAB91;" d="M503.214,189.335C473.876,80.279,374.321,0,256,0C114.615,0,0,114.616,0,256  c0,118.321,80.279,217.876,189.335,247.214L503.214,189.335z"/>
<path style="fill:#F48FB1;" d="M512,256c0-23.063-3.068-45.407-8.786-66.665l-78.031-78.031L86.817,400.696l102.518,102.518  C210.592,508.932,232.937,512,256,512C397.385,512,512,397.384,512,256z"/>
<polygon style="fill:#80DEEA;" points="244.87,133.565 204.957,267.13 244.87,400.696 402.922,400.696 402.922,133.565 "/>
<rect x="86.817" y="133.565" style="fill:#B2EBF2;" width="158.052" height="267.13"/>
<polygon style="fill:#E0F7FA;" points="244.87,155.826 210.578,267.13 244.87,378.435 380.661,378.435 380.661,155.826 "/>
<rect x="109.078" y="155.826" style="fill:#FFFFFF;" width="135.791" height="222.609"/>
<path style="fill:#455A64;" d="M335.026,111.304l-34.021,122.435l34.021,122.435h90.157v-244.87H335.026z"/>
<path style="fill:#546E7A;" d="M244.87,111.304v244.87h90.157v-244.87H244.87z"/>
<polygon points="335.026,133.565 309.405,233.739 335.026,333.913 402.922,333.913 402.922,133.565 "/>
<rect x="267.13" y="133.565" style="fill:#263238;" width="67.896" height="200.348"/>
<g>
</g>
<g>
</g>
<g>
</g>
<g>
</g>
<g>
</g>
<g>
</g>
<g>
</g>
<g>
</g>
<g>
</g>
<g>
</g>
<g>
</g>
<g>
</g>
<g>
</g>
<g>
</g>
<g>
</g>
</svg>
