<?xml version="1.0" encoding="iso-8859-1"?>
<!-- Generator: Adobe Illustrator 19.0.0, SVG Export Plug-In . SVG Version: 6.00 Build 0)  -->
<svg xmlns="http://www.w3.org/2000/svg" xmlns:xlink="http://www.w3.org/1999/xlink" version="1.1" id="Layer_1" x="0px" y="0px" viewBox="0 0 512 512" style="enable-background:new 0 0 512 512;" xml:space="preserve">
<path style="fill:#FF8A65;" d="M503.214,189.335C473.876,80.279,374.321,0,256,0C114.615,0,0,114.616,0,256  c0,118.321,80.279,217.876,189.335,247.214L503.214,189.335z"/>
<path style="fill:#FF5722;" d="M512,256c0-23.063-3.068-45.407-8.786-66.665l-78.031-78.031L86.817,400.696l102.518,102.518  C210.592,508.932,232.937,512,256,512C397.385,512,512,397.384,512,256z"/>
<polygon style="fill:#80DEEA;" points="402.922,133.565 244.87,133.565 204.957,267.13 244.87,400.696 402.922,400.696 "/>
<rect x="86.817" y="133.565" style="fill:#B2EBF2;" width="158.052" height="267.13"/>
<polygon style="fill:#E0F7FA;" points="244.87,155.826 210.578,267.13 244.87,378.435 380.661,378.435 380.661,155.826 "/>
<rect x="109.078" y="155.826" style="fill:#FFFFFF;" width="135.791" height="222.609"/>
<rect x="312.765" y="122.435" style="fill:#ECEFF1;" width="101.287" height="66.783"/>
<path style="fill:#455A64;" d="M307.2,111.304l-44.522,44.522l44.522,44.522h117.983v-89.043H307.2z M402.922,178.087H318.33  v-44.522h84.591V178.087z"/>
<rect x="200.348" y="122.435" style="fill:#FFFFFF;" width="101.287" height="66.783"/>
<path style="fill:#546E7A;" d="M189.217,111.304v89.043H307.2v-89.043H189.217z M211.478,133.565h84.591v44.522h-84.591V133.565z"/>
<g>
</g>
<g>
</g>
<g>
</g>
<g>
</g>
<g>
</g>
<g>
</g>
<g>
</g>
<g>
</g>
<g>
</g>
<g>
</g>
<g>
</g>
<g>
</g>
<g>
</g>
<g>
</g>
<g>
</g>
</svg>
