<?xml version="1.0" encoding="iso-8859-1"?>
<!-- Generator: Adobe Illustrator 19.0.0, SVG Export Plug-In . SVG Version: 6.00 Build 0)  -->
<svg xmlns="http://www.w3.org/2000/svg" xmlns:xlink="http://www.w3.org/1999/xlink" version="1.1" id="Layer_1" x="0px" y="0px" viewBox="0 0 512 512" style="enable-background:new 0 0 512 512;" xml:space="preserve">
<path style="fill:#FF8A65;" d="M503.214,189.335C473.876,80.279,374.321,0,256,0C114.615,0,0,114.616,0,256  c0,118.321,80.279,217.876,189.335,247.214L503.214,189.335z"/>
<path style="fill:#FF5722;" d="M512,256c0-23.063-3.068-45.407-8.786-66.665l-78.031-78.031L86.817,400.696l102.518,102.518  C210.592,508.932,232.937,512,256,512C397.385,512,512,397.384,512,256z"/>
<polygon style="fill:#80DEEA;" points="244.87,133.565 204.957,267.13 244.87,400.696 402.922,400.696 402.922,133.565 "/>
<rect x="86.817" y="133.565" style="fill:#B2EBF2;" width="158.052" height="267.13"/>
<polygon style="fill:#FFFFFF;" points="109.078,155.826 109.078,378.435 189.217,378.435 244.87,356.174 244.87,155.826 "/>
<rect x="312.765" y="166.957" style="fill:#ECEFF1;" width="101.287" height="200.348"/>
<path style="fill:#455A64;" d="M284.939,144.696L307.2,378.435h117.983V178.087L284.939,144.696z M402.922,289.391H318.33V244.87  h84.591V289.391z M402.922,356.174H318.33v-44.522h84.591V356.174z M402.922,222.609H318.33v-44.522h84.591V222.609z"/>
<rect x="200.348" y="166.957" style="fill:#FFFFFF;" width="101.287" height="200.348"/>
<path style="fill:#546E7A;" d="M189.217,178.087v200.348H307.2V155.826L189.217,178.087z M296.07,289.391h-84.591V244.87h84.591  V289.391z M296.07,356.174h-84.591v-44.522h84.591V356.174z M296.07,222.609h-84.591v-44.522h84.591V222.609z"/>
<polygon style="fill:#263238;" points="307.2,111.304 284.939,144.696 307.2,178.087 425.183,178.087 425.183,111.304 "/>
<rect x="189.217" y="111.304" style="fill:#455A64;" width="117.983" height="66.783"/>
<g>
</g>
<g>
</g>
<g>
</g>
<g>
</g>
<g>
</g>
<g>
</g>
<g>
</g>
<g>
</g>
<g>
</g>
<g>
</g>
<g>
</g>
<g>
</g>
<g>
</g>
<g>
</g>
<g>
</g>
</svg>
