<?xml version="1.0" encoding="iso-8859-1"?>
<!-- Generator: Adobe Illustrator 19.0.0, SVG Export Plug-In . SVG Version: 6.00 Build 0)  -->
<svg xmlns="http://www.w3.org/2000/svg" xmlns:xlink="http://www.w3.org/1999/xlink" version="1.1" id="Layer_1" x="0px" y="0px" viewBox="0 0 512 512" style="enable-background:new 0 0 512 512;" xml:space="preserve">
<path style="fill:#4DD0E1;" d="M511.916,262.596c0.056-2.192,0.083-4.39,0.083-6.596C512,114.616,397.385,0,256,0  C114.616,0,0,114.616,0,256s114.616,256,256,256c2.205,0,4.403-0.028,6.596-0.083L511.916,262.596z"/>
<path style="fill:#00ACC1;" d="M511.916,262.596l-84.508-84.509l-20.618,19.45l-86.234-86.233L84.591,333.913l178.003,178.003  C398.74,508.474,508.474,398.74,511.916,262.596z"/>
<rect x="95.722" y="256" style="fill:#FFFFFF;" width="106.852" height="66.783"/>
<rect x="95.722" y="189.217" style="fill:#E0F7FA;" width="106.852" height="66.783"/>
<rect x="244.87" y="189.217" style="fill:#26C6DA;" width="64.557" height="133.565"/>
<rect x="202.574" y="189.217" style="fill:#4DD0E1;" width="53.426" height="133.565"/>
<rect x="244.87" y="322.783" style="fill:#CFD8DC;" width="64.557" height="66.783"/>
<rect x="202.574" y="322.783" style="fill:#ECEFF1;" width="53.426" height="66.783"/>
<rect x="244.87" y="122.435" style="fill:#CFD8DC;" width="64.557" height="66.783"/>
<rect x="202.574" y="122.435" style="fill:#ECEFF1;" width="53.426" height="66.783"/>
<rect x="309.426" y="322.783" style="fill:#CFD8DC;" width="106.852" height="66.783"/>
<rect x="309.426" y="256" style="fill:#B2EBF2;" width="106.852" height="66.783"/>
<rect x="309.426" y="189.217" style="fill:#CFD8DC;" width="106.852" height="66.783"/>
<rect x="95.722" y="122.435" style="fill:#FFFFFF;" width="106.852" height="66.783"/>
<polygon style="fill:#455A64;" points="256,111.304 244.87,122.435 256,133.565 298.296,133.565 298.296,178.087 256,178.087   244.87,189.217 256,200.348 320.557,200.348 320.557,111.304 "/>
<path style="fill:#263238;" d="M298.296,178.087v133.565H256l-11.13,11.13l11.13,11.13h42.296v44.522H256l-11.13,11.13l11.13,11.13  h171.409V178.087H298.296z M405.148,378.435h-84.591v-44.522h84.591V378.435z M405.148,311.652h-84.591V267.13h84.591V311.652z   M405.148,244.87h-84.591v-44.522h84.591V244.87z"/>
<path style="fill:#546E7A;" d="M256,133.565v-22.261H84.591v222.609h129.113V200.348H256v-22.261h-42.296v-44.522H256z   M191.443,311.652h-84.591V267.13h84.591V311.652z M191.443,244.87h-84.591v-44.522h84.591V244.87z M191.443,178.087h-84.591  v-44.522h84.591V178.087z"/>
<polygon style="fill:#37474F;" points="256,333.913 256,311.652 191.443,311.652 191.443,400.696 256,400.696 256,378.435   213.704,378.435 213.704,333.913 "/>
<g>
</g>
<g>
</g>
<g>
</g>
<g>
</g>
<g>
</g>
<g>
</g>
<g>
</g>
<g>
</g>
<g>
</g>
<g>
</g>
<g>
</g>
<g>
</g>
<g>
</g>
<g>
</g>
<g>
</g>
</svg>
