<?xml version="1.0" encoding="iso-8859-1"?>
<!-- Generator: Adobe Illustrator 19.0.0, SVG Export Plug-In . SVG Version: 6.00 Build 0)  -->
<svg xmlns="http://www.w3.org/2000/svg" xmlns:xlink="http://www.w3.org/1999/xlink" version="1.1" id="Layer_1" x="0px" y="0px" viewBox="0 0 512.001 512.001" style="enable-background:new 0 0 512.001 512.001;" xml:space="preserve">
<path style="fill:#4DD0E1;" d="M511.411,273.219c0.378-5.692,0.589-11.43,0.59-17.219C512,114.616,397.385,0.001,256,0.001  S0,114.616,0,256.001s114.616,256,256,256c5.789,0,11.527-0.211,17.219-0.59L511.411,273.219z"/>
<path style="fill:#00ACC1;" d="M433.626,219.922L358.4,144.696L62.33,300.522l210.888,210.888  c127.661-8.48,229.711-110.531,238.192-238.192l-61.742-61.739L433.626,219.922z"/>
<rect x="256" y="155.827" style="fill:#CFD8DC;" width="91.27" height="66.783"/>
<rect x="256" y="222.609" style="fill:#26C6DA;" width="91.27" height="66.783"/>
<rect x="347.27" y="222.609" style="fill:#CFD8DC;" width="91.27" height="66.783"/>
<rect x="347.27" y="289.392" style="fill:#B2EBF2;" width="91.27" height="66.783"/>
<rect x="256" y="289.392" style="fill:#CFD8DC;" width="91.27" height="66.783"/>
<rect x="164.73" y="289.392" style="fill:#ECEFF1;" width="91.27" height="66.783"/>
<rect x="164.73" y="222.609" style="fill:#4DD0E1;" width="91.27" height="66.783"/>
<rect x="164.73" y="155.827" style="fill:#ECEFF1;" width="91.27" height="66.783"/>
<rect x="73.461" y="222.609" style="fill:#E0F7FA;" width="91.27" height="66.783"/>
<rect x="73.461" y="155.827" style="fill:#FFFFFF;" width="91.27" height="66.783"/>
<path style="fill:#546E7A;" d="M256,233.74l11.13-11.13L256,144.696H62.33v155.826h113.53v-22.261V233.74H256z M244.87,166.957  v44.522h-69.009v-44.522H244.87z M153.6,166.957v44.522H84.591v-44.522H153.6z M153.6,278.261H84.591V233.74H153.6V278.261z"/>
<polygon style="fill:#455A64;" points="256,144.696 256,222.609 267.13,222.609 267.13,166.957 336.139,166.957 336.139,222.609   358.4,222.609 358.4,144.696 "/>
<path style="fill:#37474F;" d="M256,289.392v-11.13H153.6v89.043H256l11.13-77.913H256z M244.87,345.044h-69.009v-44.522h69.009  V345.044z"/>
<path style="fill:#263238;" d="M256,211.479v22.261h80.139v44.522H256v89.043h193.67V211.479H256z M336.139,345.044H267.13v-44.522  h69.009V345.044z M427.409,345.044H358.4v-44.522h69.009V345.044z M427.409,278.261H358.4V233.74h69.009V278.261z"/>
<g>
</g>
<g>
</g>
<g>
</g>
<g>
</g>
<g>
</g>
<g>
</g>
<g>
</g>
<g>
</g>
<g>
</g>
<g>
</g>
<g>
</g>
<g>
</g>
<g>
</g>
<g>
</g>
<g>
</g>
</svg>
