<?xml version="1.0" encoding="iso-8859-1"?>
<!-- Generator: Adobe Illustrator 19.0.0, SVG Export Plug-In . SVG Version: 6.00 Build 0)  -->
<svg xmlns="http://www.w3.org/2000/svg" xmlns:xlink="http://www.w3.org/1999/xlink" version="1.1" id="Layer_1" x="0px" y="0px" viewBox="0 0 512 512" style="enable-background:new 0 0 512 512;" xml:space="preserve">
<path style="fill:#FFCCBC;" d="M508.692,214.849C489.004,93.032,383.374,0,256,0C114.616,0,0,114.616,0,256  c0,127.374,93.032,233.005,214.849,252.691L508.692,214.849z"/>
<path style="fill:#FFAB91;" d="M512,256c0-14.01-1.143-27.752-3.308-41.151l-47.105-47.105L51.988,345.83L214.85,508.692  C228.248,510.857,241.99,512,256,512C397.384,512,512,397.384,512,256z"/>
<rect x="67.57" y="178.877" style="fill:#FFFFFF;" width="189.217" height="155.826"/>
<rect x="256.79" y="178.877" style="fill:#B2EBF2;" width="189.217" height="155.826"/>
<path style="fill:#455A64;" d="M256.787,167.743l-8.904,89.043l8.904,89.043h204.8V167.743H256.787z M439.326,323.57H267.917  V190.004h171.409V323.57z"/>
<path style="fill:#546E7A;" d="M51.987,167.743V345.83h204.8V167.743H51.987z M245.656,323.57H74.248V190.004h171.409V323.57z"/>
<g>
</g>
<g>
</g>
<g>
</g>
<g>
</g>
<g>
</g>
<g>
</g>
<g>
</g>
<g>
</g>
<g>
</g>
<g>
</g>
<g>
</g>
<g>
</g>
<g>
</g>
<g>
</g>
<g>
</g>
</svg>
