<?xml version="1.0" encoding="iso-8859-1"?>
<!-- Generator: Adobe Illustrator 19.0.0, SVG Export Plug-In . SVG Version: 6.00 Build 0)  -->
<svg xmlns="http://www.w3.org/2000/svg" xmlns:xlink="http://www.w3.org/1999/xlink" version="1.1" id="Layer_1" x="0px" y="0px" viewBox="0 0 512 512" style="enable-background:new 0 0 512 512;" xml:space="preserve">
<path style="fill:#FFEB3B;" d="M504.027,192.375C475.738,81.771,375.421,0,256,0C114.616,0,0,114.616,0,256  c0,119.42,81.771,219.737,192.374,248.026L504.027,192.375z"/>
<path style="fill:#FBC02D;" d="M512,256c0-21.965-2.77-43.282-7.974-63.625l-75.504-75.506L83.478,395.13l108.896,108.896  C212.717,509.23,234.035,512,256,512C397.384,512,512,397.384,512,256z"/>
<polygon style="fill:#E0F7FA;" points="256,116.87 211.478,256 256,395.13 428.522,395.13 428.522,116.87 "/>
<rect x="83.478" y="116.87" style="fill:#FFFFFF;" width="172.522" height="278.261"/>
<polygon style="fill:#00BCD4;" points="406.261,139.13 256,139.13 211.478,250.435 256,361.739 406.261,328.348 "/>
<polygon style="fill:#4DD0E1;" points="105.739,139.13 105.739,328.348 256,361.739 256,139.13 "/>
<polygon style="fill:#00838F;" points="393.539,305.909 393.539,306.087 362.336,283.687 299.927,283.687 268.722,306.087   268.722,305.913 256.004,317.217 244.87,345.043 256,372.87 406.261,372.87 406.261,317.217 "/>
<polygon style="fill:#E0F7FA;" points="331.134,250.435 268.722,305.913 299.926,291.478 331.13,305.913 362.335,291.478   393.539,305.909 "/>
<path style="fill:#FFEB3B;" d="M256,161.391l-11.13,33.391L256,228.174c18.442,0,33.391-14.95,33.391-33.391  S274.442,161.391,256,161.391z"/>
<path style="fill:#FFF59D;" d="M222.609,194.783c0,18.441,14.949,33.391,33.391,33.391v-66.783  C237.559,161.391,222.609,176.342,222.609,194.783z"/>
<polygon style="fill:#0097A7;" points="243.278,305.909 243.278,306.087 212.075,283.687 149.667,283.687 118.461,306.087   118.461,305.913 105.744,317.217 105.739,372.87 256,372.87 256,317.217 "/>
<polygon style="fill:#FFFFFF;" points="180.873,250.435 118.461,305.913 149.665,291.478 180.87,305.913 212.074,291.478   243.278,305.909 "/>
<g>
</g>
<g>
</g>
<g>
</g>
<g>
</g>
<g>
</g>
<g>
</g>
<g>
</g>
<g>
</g>
<g>
</g>
<g>
</g>
<g>
</g>
<g>
</g>
<g>
</g>
<g>
</g>
<g>
</g>
</svg>
