<?xml version="1.0" encoding="iso-8859-1"?>
<!-- Generator: Adobe Illustrator 19.0.0, SVG Export Plug-In . SVG Version: 6.00 Build 0)  -->
<svg xmlns="http://www.w3.org/2000/svg" xmlns:xlink="http://www.w3.org/1999/xlink" version="1.1" id="Layer_1" x="0px" y="0px" viewBox="0 0 512 512" style="enable-background:new 0 0 512 512;" xml:space="preserve">
<path style="fill:#455A64;" d="M502.92,188.251C473.217,79.747,373.929,0,256,0C114.615,0,0,114.615,0,256  c0,117.929,79.747,217.217,188.251,246.92L502.92,188.251z"/>
<path style="fill:#37474F;" d="M512,256c0-23.455-3.172-46.167-9.079-67.749l-89.586-89.586c0,0-202.195-65.398-291.131,23.538  S98.666,413.334,98.666,413.334l89.586,89.586C209.832,508.828,232.545,512,256,512C397.384,512,512,397.384,512,256z"/>
<path style="fill:#546E7A;" d="M256,55.652l-22.261,20.035L256,100.174c85.927,0,155.826,69.899,155.826,155.826  S341.927,411.826,256,411.826l-22.261,22.261L256,456.348c110.47,0,200.348-89.878,200.348-200.348S366.47,55.652,256,55.652z"/>
<g>
	<path style="fill:#607D8B;" d="M256,100.174V55.652C145.53,55.652,55.652,145.53,55.652,256S145.53,456.348,256,456.348v-44.522   c-85.927,0-155.826-69.899-155.826-155.826S170.073,100.174,256,100.174z"/>
	<path style="fill:#607D8B;" d="M256,33.391c122.746,0,222.609,99.862,222.609,222.609S378.746,478.609,256,478.609l-22.261-16.696   L256,445.217c104.337,0,189.217-84.881,189.217-189.217S360.337,66.783,256,66.783l-22.261-16.696L256,33.391z"/>
</g>
<path style="fill:#90A4AE;" d="M256,445.217v33.391c-122.746,0-222.609-99.862-222.609-222.609S133.254,33.391,256,33.391v33.391  C151.663,66.783,66.783,151.663,66.783,256S151.663,445.217,256,445.217z"/>
<g>
</g>
<g>
</g>
<g>
</g>
<g>
</g>
<g>
</g>
<g>
</g>
<g>
</g>
<g>
</g>
<g>
</g>
<g>
</g>
<g>
</g>
<g>
</g>
<g>
</g>
<g>
</g>
<g>
</g>
</svg>
