<?xml version="1.0" encoding="iso-8859-1"?>
<!-- Generator: Adobe Illustrator 19.0.0, SVG Export Plug-In . SVG Version: 6.00 Build 0)  -->
<svg xmlns="http://www.w3.org/2000/svg" xmlns:xlink="http://www.w3.org/1999/xlink" version="1.1" id="Layer_1" x="0px" y="0px" viewBox="0 0 512 512" style="enable-background:new 0 0 512 512;" xml:space="preserve">
<path style="fill:#CFD8DC;" d="M501.93,184.713C471.057,78.018,372.645,0,256,0C114.616,0,0,114.616,0,256  C0,382.908,92.353,488.229,213.514,508.47L501.93,184.713z"/>
<path style="fill:#B0BEC5;" d="M512,256c0-24.741-3.522-48.657-10.07-71.287l-67.843-67.843l-356.174,256l135.601,135.601  C227.335,510.779,241.524,512,256,512C397.385,512,512,397.385,512,256z"/>
<polygon style="fill:#263238;" points="300.522,406.261 256,406.261 222.609,350.609 300.522,350.609 "/>
<rect x="211.478" y="350.609" style="fill:#37474F;" width="44.522" height="55.652"/>
<polygon style="fill:#455A64;" points="356.174,417.391 256,417.391 200.348,406.261 256,395.13 356.174,395.13 "/>
<rect x="155.826" y="395.13" style="fill:#546E7A;" width="100.174" height="22.261"/>
<polygon style="fill:#455A64;" points="434.087,372.87 256,372.87 200.348,239.304 256,116.87 434.087,116.87 "/>
<rect x="77.913" y="116.87" style="fill:#546E7A;" width="178.087" height="256"/>
<polygon style="fill:#263238;" points="411.826,139.13 256,139.13 211.478,239.304 256,350.609 411.826,350.609 "/>
<rect x="100.174" y="139.13" style="fill:#37474F;" width="155.826" height="211.478"/>
<g>
</g>
<g>
</g>
<g>
</g>
<g>
</g>
<g>
</g>
<g>
</g>
<g>
</g>
<g>
</g>
<g>
</g>
<g>
</g>
<g>
</g>
<g>
</g>
<g>
</g>
<g>
</g>
<g>
</g>
</svg>
