<?xml version="1.0" encoding="iso-8859-1"?>
<!-- Generator: Adobe Illustrator 19.0.0, SVG Export Plug-In . SVG Version: 6.00 Build 0)  -->
<svg xmlns="http://www.w3.org/2000/svg" xmlns:xlink="http://www.w3.org/1999/xlink" version="1.1" id="Layer_1" x="0px" y="0px" viewBox="0 0 512.001 512.001" style="enable-background:new 0 0 512.001 512.001;" xml:space="preserve">
<path style="fill:#FFF176;" d="M502.856,188.036c-11.36-41.407-33.296-80.519-65.829-113.052  c-99.976-99.976-262.07-99.976-362.045,0s-99.976,262.07,0,362.045c33.923,33.923,74.999,56.32,118.371,67.222L502.856,188.036z"/>
<path style="fill:#FDD835;" d="M437.028,437.029c67.443-67.443,89.379-163.153,65.829-248.993l-89.441-89.44L128.104,439.002  l65.25,65.25C277.809,525.481,370.974,503.083,437.028,437.029z"/>
<path style="fill:#607D8B;" d="M413.415,98.596l-82.64,51.159l-51.159,82.64c36.948,36.948,96.852,36.948,133.799,0  S450.363,135.544,413.415,98.596z"/>
<path style="fill:#90A4AE;" d="M279.616,98.596c-36.948,36.948-36.948,96.852,0,133.799L413.415,98.596  C376.468,61.649,316.564,61.649,279.616,98.596z"/>
<polygon style="fill:#B0BEC5;" points="429.156,232.396 354.386,157.625 338.645,157.625 338.645,173.367 413.415,248.137 "/>
<rect x="298" y="75.249" transform="matrix(-0.7071 0.7071 -0.7071 -0.7071 618.3124 0.1247)" style="fill:#ECEFF1;" width="22.261" height="105.74"/>
<polygon style="fill:#263238;" points="263.875,216.654 116.298,364.232 179.106,395.556 304.488,288.749 "/>
<g>
	<polygon style="fill:#37474F;" points="223.263,207.525 116.456,332.907 132.04,379.973 279.616,232.396  "/>
	<polygon style="fill:#37474F;" points="179.106,395.556 147.781,364.232 108.427,372.102 100.557,411.455 128.104,439.002  "/>
</g>
<polygon style="fill:#455A64;" points="116.456,332.907 73.011,383.908 100.557,411.455 147.781,364.232 "/>
<polygon style="fill:#37474F;" points="295.395,216.617 263.876,216.653 263.875,248.137 304.488,288.749 338.53,259.751 "/>
<polygon style="fill:#455A64;" points="252.262,173.483 223.263,207.525 263.875,248.137 295.395,216.617 "/>
<g>
</g>
<g>
</g>
<g>
</g>
<g>
</g>
<g>
</g>
<g>
</g>
<g>
</g>
<g>
</g>
<g>
</g>
<g>
</g>
<g>
</g>
<g>
</g>
<g>
</g>
<g>
</g>
<g>
</g>
</svg>
