<?xml version="1.0" encoding="iso-8859-1"?>
<!-- Generator: Adobe Illustrator 19.0.0, SVG Export Plug-In . SVG Version: 6.00 Build 0)  -->
<svg xmlns="http://www.w3.org/2000/svg" xmlns:xlink="http://www.w3.org/1999/xlink" version="1.1" id="Layer_1" x="0px" y="0px" viewBox="0 0 512 512" style="enable-background:new 0 0 512 512;" xml:space="preserve">
<path style="fill:#B2EBF2;" d="M503.102,188.926C473.627,80.078,374.173,0,256,0C114.615,0,0,114.615,0,256  c0,117.856,79.648,217.094,188.05,246.865L503.102,188.926z"/>
<path style="fill:#26C6DA;" d="M512,256c0-23.211-3.108-45.694-8.898-67.074l-90.014-90.014L98.592,413.408l89.458,89.458  C209.691,508.809,232.471,512,256,512C397.384,512,512,397.384,512,256z"/>
<path style="fill:#BF360C;" d="M478.609,256c0,122.942-99.665,222.609-222.609,222.609L166.057,256L256,33.391  C378.943,33.391,478.609,133.058,478.609,256z"/>
<path style="fill:#E64A19;" d="M33.391,256c0-122.942,99.665-222.609,222.609-222.609v445.217  C133.057,478.609,33.391,378.942,33.391,256z"/>
<path style="fill:#FF5722;" d="M434.087,256c0,98.354-79.733,178.087-178.087,178.087L184.046,256L256,77.913  C354.354,77.913,434.087,157.646,434.087,256z"/>
<path style="fill:#FF8A65;" d="M77.913,256c0-98.354,79.733-178.087,178.087-178.087v356.174  C157.645,434.087,77.913,354.354,77.913,256z"/>
<path style="fill:#FFF9C4;" d="M256,411.826l-16.403-164.027L411.826,256C411.826,341.926,341.926,411.826,256,411.826z"/>
<g>
	<path style="fill:#FFFDE7;" d="M256,100.174c85.926,0,155.826,69.9,155.826,155.826H239.597L256,100.174z"/>
	<path style="fill:#FFFDE7;" d="M256,256v155.826c-85.926,0-155.826-69.9-155.826-155.826l77.913-24.604L256,256z"/>
</g>
<path style="fill:#FFFFFF;" d="M256,100.174V256H100.174C100.174,170.074,170.074,100.174,256,100.174z"/>
<g>
	<rect x="244.87" y="122.435" style="fill:#B2EBF2;" width="22.261" height="22.261"/>
	
		<rect x="183.649" y="138.836" transform="matrix(-0.866 0.5 -0.5 -0.866 438.4463 182.4471)" style="fill:#B2EBF2;" width="22.26" height="22.26"/>
	
		<rect x="138.83" y="183.658" transform="matrix(-0.5 0.866 -0.866 -0.5 393.6326 162.3162)" style="fill:#B2EBF2;" width="22.26" height="22.26"/>
	<rect x="122.435" y="244.87" style="fill:#B2EBF2;" width="22.261" height="22.261"/>
	
		<rect x="138.828" y="306.093" transform="matrix(0.5 0.866 -0.866 0.5 349.6987 28.7415)" style="fill:#B2EBF2;" width="22.26" height="22.26"/>
	
		<rect x="183.652" y="350.915" transform="matrix(0.866 0.5 -0.5 0.866 207.1237 -48.8863)" style="fill:#B2EBF2;" width="22.26" height="22.26"/>
</g>
<g>
	<rect x="244.87" y="367.304" style="fill:#80DEEA;" width="22.261" height="22.261"/>
	
		<rect x="306.098" y="350.915" transform="matrix(0.866 -0.5 0.5 0.866 -138.5239 207.1249)" style="fill:#80DEEA;" width="22.26" height="22.26"/>
	
		<rect x="350.909" y="306.071" transform="matrix(0.5 -0.866 0.866 0.5 -93.6861 472.1302)" style="fill:#80DEEA;" width="22.26" height="22.26"/>
	<rect x="367.304" y="244.87" style="fill:#80DEEA;" width="22.261" height="22.261"/>
	
		<rect x="350.909" y="183.636" transform="matrix(-0.5 -0.866 0.866 -0.5 374.3923 605.6845)" style="fill:#80DEEA;" width="22.26" height="22.26"/>
	
		<rect x="306.076" y="138.836" transform="matrix(-0.866 -0.5 0.5 -0.866 516.9284 438.4455)" style="fill:#80DEEA;" width="22.26" height="22.26"/>
</g>
<polygon style="fill:#006064;" points="345.043,267.13 244.87,267.13 244.87,189.217 267.13,189.217 267.13,244.87 345.043,244.87   "/>
<g>
</g>
<g>
</g>
<g>
</g>
<g>
</g>
<g>
</g>
<g>
</g>
<g>
</g>
<g>
</g>
<g>
</g>
<g>
</g>
<g>
</g>
<g>
</g>
<g>
</g>
<g>
</g>
<g>
</g>
</svg>
