<?xml version="1.0" encoding="iso-8859-1"?>
<!-- Generator: Adobe Illustrator 19.0.0, SVG Export Plug-In . SVG Version: 6.00 Build 0)  -->
<svg xmlns="http://www.w3.org/2000/svg" xmlns:xlink="http://www.w3.org/1999/xlink" version="1.1" id="Layer_1" x="0px" y="0px" viewBox="0 0 512 512" style="enable-background:new 0 0 512 512;" xml:space="preserve">
<path style="fill:#FFEE58;" d="M504.386,193.847C476.612,82.5,375.947,0,256,0C114.616,0,0,114.616,0,256  c0,135.239,104.871,245.97,237.725,255.343L504.386,193.847z"/>
<path style="fill:#FDD835;" d="M137.333,410.951l100.392,100.393C243.762,511.77,249.854,512,256,512c141.384,0,256-114.616,256-256  c0-21.437-2.651-42.253-7.614-62.153l-64.733-64.733L137.333,410.951z"/>
<path style="fill:#FFF9C4;" d="M256,33.391L221.565,256L256,478.604c11.479-3.011,50.633-14.717,89.691-42.984  c42.864-31.015,93.961-88.897,93.961-188.525V129.113L256,33.391z"/>
<path style="fill:#FFFFFF;" d="M72.348,129.113v117.983c0,99.641,51.113,157.523,94.009,188.54  c38.898,28.174,78.13,39.935,89.643,42.969V33.391L72.348,129.113z"/>
<path style="fill:#263238;" d="M256,58.495L211.49,256l44.528,199.479c14.552-4.365,45.65-15.477,76.622-37.892  c38.664-27.975,84.75-80.263,84.75-170.49V142.613L256,58.495z"/>
<path style="fill:#78909C;" d="M256,58.495L94.609,142.613v104.482c0,90.248,46.109,142.532,84.805,170.51  c30.884,22.369,62.037,33.498,76.605,37.871L256,58.495z"/>
<path style="fill:#546E7A;" d="M256.041,83.598l139.13,72.516v90.981c0,80.847-41.105,127.539-75.602,152.481  c-24.508,17.752-49.548,27.802-63.548,32.533l-55.642-174.257L256.041,83.598z"/>
<path style="fill:#607D8B;" d="M256,83.598l-139.13,72.516v90.981c0,80.847,41.105,127.539,75.602,152.481  c24.508,17.752,49.548,27.802,63.548,32.533L256,83.598z"/>
<path style="fill:#FFEE58;" d="M256,203.006l-33.382,102.728l33.402,102.728c12.745-4.834,31.846-13.43,50.523-26.947  c30.257-21.894,66.326-62.986,66.326-134.42v-44.09H256z"/>
<path style="fill:#FFF9C4;" d="M256.039,203.006l-0.02,205.458c-12.745-4.834-31.846-13.43-50.523-26.947  c-30.258-21.894-66.326-62.987-66.326-134.421v-44.09L256.039,203.006L256.039,203.006z"/>
<g>
</g>
<g>
</g>
<g>
</g>
<g>
</g>
<g>
</g>
<g>
</g>
<g>
</g>
<g>
</g>
<g>
</g>
<g>
</g>
<g>
</g>
<g>
</g>
<g>
</g>
<g>
</g>
<g>
</g>
</svg>
