<?xml version="1.0" encoding="iso-8859-1"?>
<!-- Generator: Adobe Illustrator 19.0.0, SVG Export Plug-In . SVG Version: 6.00 Build 0)  -->
<svg xmlns="http://www.w3.org/2000/svg" xmlns:xlink="http://www.w3.org/1999/xlink" version="1.1" id="Layer_1" x="0px" y="0px" viewBox="0 0 512 512" style="enable-background:new 0 0 512 512;" xml:space="preserve">
<path style="fill:#FFF176;" d="M502.801,187.809C472.949,79.53,373.769,0,256,0C114.616,0,0,114.616,0,256  c0,117.769,79.53,216.949,187.809,246.801L502.801,187.809z"/>
<path style="fill:#FDD835;" d="M512,256c0-23.615-3.213-46.477-9.199-68.191L400.696,85.704L111.304,426.296l76.505,76.505  C209.522,508.787,232.385,512,256,512C397.384,512,512,397.384,512,256z"/>
<polygon style="fill:#BF360C;" points="333.913,85.704 289.391,256 333.913,426.296 400.696,426.296 400.696,85.704 "/>
<polygon style="fill:#ECEFF1;" points="356.174,107.965 333.913,256 356.174,404.035 378.435,404.035 378.435,107.965 "/>
<rect x="311.652" y="107.965" style="fill:#FFFFFF;" width="44.522" height="296.07"/>
<polygon style="fill:#E64A19;" points="333.913,85.704 239.304,85.704 194.783,256 239.304,426.296 333.913,426.296 "/>
<polygon style="fill:#FF5722;" points="144.696,85.704 122.435,256 144.696,426.296 239.304,426.296 239.304,85.704 "/>
<rect x="111.304" y="85.704" style="fill:#BF360C;" width="33.391" height="340.591"/>
<path style="fill:#FF7043;" d="M278.261,107.965h-38.957L194.783,256l44.522,148.035h38.957c0-18.441,14.95-33.391,33.391-33.391  V141.357C293.211,141.357,278.261,126.406,278.261,107.965z"/>
<path style="fill:#FF8A65;" d="M200.348,107.965c0,18.441-14.95,33.391-33.391,33.391v229.287c18.441,0,33.391,14.95,33.391,33.391  h38.957v-296.07H200.348z"/>
<g>
</g>
<g>
</g>
<g>
</g>
<g>
</g>
<g>
</g>
<g>
</g>
<g>
</g>
<g>
</g>
<g>
</g>
<g>
</g>
<g>
</g>
<g>
</g>
<g>
</g>
<g>
</g>
<g>
</g>
</svg>
