<?xml version="1.0" encoding="iso-8859-1"?>
<!-- Generator: Adobe Illustrator 19.0.0, SVG Export Plug-In . SVG Version: 6.00 Build 0)  -->
<svg xmlns="http://www.w3.org/2000/svg" xmlns:xlink="http://www.w3.org/1999/xlink" version="1.1" id="Layer_1" x="0px" y="0px" viewBox="0 0 512 512" style="enable-background:new 0 0 512 512;" xml:space="preserve">
<path style="fill:#37474F;" d="M503.214,189.335C473.876,80.279,374.321,0,256,0C114.615,0,0,114.616,0,256  c0,118.321,80.279,217.876,189.335,247.214L503.214,189.335z"/>
<path style="fill:#263238;" d="M512,256c0-23.063-3.068-45.407-8.786-66.665L389.565,75.687l-267.13,360.626l66.901,66.901  C210.592,508.932,232.937,512,256,512C397.384,512,512,397.384,512,256z"/>
<polygon style="fill:#B0BEC5;" points="256,75.687 233.739,188.104 389.565,165.843 389.565,75.687 "/>
<polygon style="fill:#CFD8DC;" points="122.435,75.687 122.435,165.843 256,188.104 256,75.687 "/>
<polygon style="fill:#90A4AE;" points="256,165.843 233.739,278.261 389.565,256 389.565,165.843 "/>
<g>
	<polygon style="fill:#B0BEC5;" points="122.435,165.843 122.435,256 256,278.261 256,165.843  "/>
	<polygon style="fill:#B0BEC5;" points="256,256 233.739,368.417 389.565,346.156 389.565,256  "/>
</g>
<polygon style="fill:#CFD8DC;" points="122.435,256 122.435,346.156 256,368.417 256,256 "/>
<polygon style="fill:#90A4AE;" points="256,346.156 235.201,391.235 256,436.313 389.565,436.313 389.565,346.156 "/>
<rect x="122.435" y="346.156" style="fill:#B0BEC5;" width="133.565" height="90.157"/>
<polygon style="fill:#263238;" points="256,380.104 240.486,391.235 256,402.365 311.096,402.365 311.096,380.104 "/>
<rect x="333.357" y="380.104" style="fill:#FFEB3B;" width="22.261" height="22.261"/>
<rect x="156.383" y="380.104" style="fill:#37474F;" width="99.617" height="22.261"/>
<polygon style="fill:#263238;" points="256,289.948 240.486,301.078 256,312.209 311.096,312.209 311.096,289.948 "/>
<rect x="333.357" y="289.948" style="fill:#FFF59D;" width="22.261" height="22.261"/>
<rect x="156.383" y="289.948" style="fill:#37474F;" width="99.617" height="22.261"/>
<polygon style="fill:#263238;" points="256,199.791 240.486,210.922 256,222.052 311.096,222.052 311.096,199.791 "/>
<rect x="156.383" y="199.791" style="fill:#37474F;" width="99.617" height="22.261"/>
<polygon style="fill:#263238;" points="256,109.635 240.486,120.765 256,131.896 311.096,131.896 311.096,109.635 "/>
<rect x="156.383" y="109.635" style="fill:#37474F;" width="99.617" height="22.261"/>
<rect x="333.357" y="109.635" style="fill:#FFF59D;" width="22.261" height="22.261"/>
<rect x="333.357" y="199.791" style="fill:#FFEB3B;" width="22.261" height="22.261"/>
<g>
</g>
<g>
</g>
<g>
</g>
<g>
</g>
<g>
</g>
<g>
</g>
<g>
</g>
<g>
</g>
<g>
</g>
<g>
</g>
<g>
</g>
<g>
</g>
<g>
</g>
<g>
</g>
<g>
</g>
</svg>
