<?xml version="1.0" encoding="iso-8859-1"?>
<!-- Generator: Adobe Illustrator 19.0.0, SVG Export Plug-In . SVG Version: 6.00 Build 0)  -->
<svg xmlns="http://www.w3.org/2000/svg" xmlns:xlink="http://www.w3.org/1999/xlink" version="1.1" id="Layer_1" x="0px" y="0px" viewBox="0 0 512 512" style="enable-background:new 0 0 512 512;" xml:space="preserve">
<path style="fill:#FFF9C4;" d="M504.924,196.056C477.939,83.593,376.74,0,256,0C114.615,0,0,114.616,0,256  c0,120.211,82.864,221.053,194.583,248.565L504.924,196.056z"/>
<path style="fill:#FFCCBC;" d="M512,256c0-20.646-2.461-40.714-7.076-59.944l-62.49-62.491L68.452,378.435l126.131,126.13  C214.261,509.411,234.827,512,256,512C397.384,512,512,397.384,512,256z"/>
<polygon style="fill:#AD1457;" points="442.435,155.826 244.313,144.696 244.313,367.304 442.435,356.174 "/>
<g>
	<polygon style="fill:#E91E63;" points="68.452,155.826 68.452,356.174 255.443,367.304 255.443,144.696  "/>
	<polygon style="fill:#E91E63;" points="442.435,133.565 255.443,133.565 230.483,144.696 255.443,155.826 442.435,155.826  "/>
</g>
<rect x="68.452" y="133.565" style="fill:#F06292;" width="186.991" height="22.261"/>
<polygon style="fill:#E91E63;" points="442.435,356.174 255.443,356.174 230.483,367.304 255.443,378.435 442.435,378.435 "/>
<rect x="68.452" y="356.174" style="fill:#F06292;" width="186.991" height="22.261"/>
<polygon style="fill:#FFFFFF;" points="179.757,322.783 157.496,322.783 202.017,189.217 224.278,189.217 "/>
<polygon style="fill:#FCE4EC;" points="255.443,244.87 244.313,256 255.443,267.13 281.695,267.13 289.115,244.87 "/>
<polygon style="fill:#FFFFFF;" points="92.659,267.13 152.582,267.13 160.002,244.87 100.079,244.87 "/>
<g>
	<polygon style="fill:#FCE4EC;" points="350.885,267.13 411.921,267.13 419.341,244.87 358.305,244.87  "/>
	<polygon style="fill:#FCE4EC;" points="308.87,322.783 286.609,322.783 331.13,189.217 353.391,189.217  "/>
</g>
<polygon style="fill:#FFFFFF;" points="229.192,244.87 221.772,267.13 255.443,267.13 255.443,244.87 "/>
<g>
</g>
<g>
</g>
<g>
</g>
<g>
</g>
<g>
</g>
<g>
</g>
<g>
</g>
<g>
</g>
<g>
</g>
<g>
</g>
<g>
</g>
<g>
</g>
<g>
</g>
<g>
</g>
<g>
</g>
</svg>
