<?xml version="1.0" encoding="iso-8859-1"?>
<!-- Generator: Adobe Illustrator 19.0.0, SVG Export Plug-In . SVG Version: 6.00 Build 0)  -->
<svg xmlns="http://www.w3.org/2000/svg" xmlns:xlink="http://www.w3.org/1999/xlink" version="1.1" id="Layer_1" x="0px" y="0px" viewBox="0 0 512 512" style="enable-background:new 0 0 512 512;" xml:space="preserve">
<path style="fill:#80DEEA;" d="M504.026,192.374C475.737,81.771,375.42,0,256,0C114.616,0,0,114.616,0,256  c0,119.42,81.771,219.737,192.374,248.026L504.026,192.374z"/>
<path style="fill:#00BCD4;" d="M512,256c0-21.965-2.77-43.283-7.974-63.626L389.565,77.913l-267.13,356.174l69.939,69.939  C212.717,509.23,234.035,512,256,512C397.384,512,512,397.384,512,256z"/>
<polygon style="fill:#E0F7FA;" points="256,77.913 211.478,256 256,434.087 322.783,434.087 345.043,389.565 389.565,367.304   389.565,77.913 "/>
<rect x="122.435" y="77.913" style="fill:#FFFFFF;" width="133.565" height="356.174"/>
<g>
	<polygon style="fill:#80DEEA;" points="322.783,434.087 322.783,367.304 389.565,367.304  "/>
	<path style="fill:#80DEEA;" d="M244.87,314.755h-13.357c-35.596,0-64.557-28.96-64.557-64.557s28.96-64.557,64.557-64.557h13.357   v22.261h-13.357c-23.322,0-42.296,18.974-42.296,42.296s18.974,42.296,42.296,42.296h13.357V314.755z"/>
</g>
<polygon style="fill:#00BCD4;" points="345.043,207.903 345.043,185.642 267.13,185.642 267.13,314.755 289.391,314.755   289.391,261.329 333.913,261.329 333.913,239.068 289.391,239.068 289.391,207.903 "/>
<g>
</g>
<g>
</g>
<g>
</g>
<g>
</g>
<g>
</g>
<g>
</g>
<g>
</g>
<g>
</g>
<g>
</g>
<g>
</g>
<g>
</g>
<g>
</g>
<g>
</g>
<g>
</g>
<g>
</g>
</svg>
