<?xml version="1.0" encoding="iso-8859-1"?>
<!-- Generator: Adobe Illustrator 19.0.0, SVG Export Plug-In . SVG Version: 6.00 Build 0)  -->
<svg xmlns="http://www.w3.org/2000/svg" xmlns:xlink="http://www.w3.org/1999/xlink" version="1.1" id="Layer_1" x="0px" y="0px" viewBox="0 0 512 512" style="enable-background:new 0 0 512 512;" xml:space="preserve">
<path style="fill:#FFEB3B;" d="M409.601,51.182L256,51.183v409.633h153.602C471.781,414.111,512,339.752,512,256  C512,172.247,471.78,97.888,409.601,51.182z"/>
<path style="fill:#FFF59D;" d="M256,51.183H102.397C40.219,97.889,0,172.248,0,256c0,83.753,40.22,158.112,102.399,204.818h153.602  L256,51.183z"/>
<g>
	<path style="fill:#006064;" d="M278.262,0.955L140.8,256l136.592,255.118c49.374-4.086,94.77-22.185,132.208-50.307V51.189   C372.382,23.233,327.299,5.18,278.262,0.955z"/>
	<polygon style="fill:#006064;" points="35.617,289.391 35.617,222.609 69.009,256  "/>
</g>
<polygon style="fill:#263238;" points="476.383,289.391 476.383,222.609 442.991,256 "/>
<path style="fill:#00838F;" d="M102.4,51.189v409.622c37.218,27.956,82.301,46.009,131.337,50.234  c7.337,0.632,7.924-510.748,0.87-510.163C185.235,4.966,139.838,23.067,102.4,51.189z"/>
<path style="fill:#B2EBF2;" d="M278.261,511.026V0.974C270.923,0.342,263.502,0,256,0c-0.416,0-0.829,0.013-1.244,0.016L243.757,256  l10.999,255.984c0.415,0.002,0.828,0.016,1.244,0.016C263.502,512,270.923,511.658,278.261,511.026z"/>
<path style="fill:#FFFFFF;" d="M233.739,0.974v510.052C241.077,511.658,248.498,512,256,512V0  C248.498,0,241.077,0.342,233.739,0.974z"/>
<g>
</g>
<g>
</g>
<g>
</g>
<g>
</g>
<g>
</g>
<g>
</g>
<g>
</g>
<g>
</g>
<g>
</g>
<g>
</g>
<g>
</g>
<g>
</g>
<g>
</g>
<g>
</g>
<g>
</g>
</svg>
