<?xml version="1.0" encoding="iso-8859-1"?>
<!-- Generator: Adobe Illustrator 19.0.0, SVG Export Plug-In . SVG Version: 6.00 Build 0)  -->
<svg xmlns="http://www.w3.org/2000/svg" xmlns:xlink="http://www.w3.org/1999/xlink" version="1.1" id="Layer_1" x="0px" y="0px" viewBox="0 0 512 512" style="enable-background:new 0 0 512 512;" xml:space="preserve">
<path style="fill:#546E7A;" d="M510.073,287.465C511.338,277.152,512,266.654,512,256C512,114.615,397.384,0,256,0S0,114.615,0,256  c0,129.948,96.825,237.27,222.264,253.785L510.073,287.465z"/>
<path style="fill:#37474F;" d="M510.073,287.465L478.609,256L51.957,339.478l170.307,170.307C233.304,511.239,244.562,512,256,512  C386.731,512,494.563,414.004,510.073,287.465z"/>
<polygon style="fill:#FBC02D;" points="51.957,172.522 51.957,256 371.977,289.183 316.741,172.522 "/>
<polygon style="fill:#F9A825;" points="51.957,256 51.957,339.478 316.741,339.478 371.977,256 "/>
<polygon style="fill:#FFEB3B;" points="307.2,126.33 307.2,256 392.904,278.261 478.609,256 "/>
<polygon style="fill:#FBC02D;" points="307.2,256 307.2,385.67 478.609,256 "/>
<g>
</g>
<g>
</g>
<g>
</g>
<g>
</g>
<g>
</g>
<g>
</g>
<g>
</g>
<g>
</g>
<g>
</g>
<g>
</g>
<g>
</g>
<g>
</g>
<g>
</g>
<g>
</g>
<g>
</g>
</svg>
