<?xml version="1.0" encoding="iso-8859-1"?>
<!-- Generator: Adobe Illustrator 19.0.0, SVG Export Plug-In . SVG Version: 6.00 Build 0)  -->
<svg xmlns="http://www.w3.org/2000/svg" xmlns:xlink="http://www.w3.org/1999/xlink" version="1.1" id="Layer_1" x="0px" y="0px" viewBox="0 0 512 512" style="enable-background:new 0 0 512 512;" xml:space="preserve">
<path style="fill:#FFCCBC;" d="M502.92,188.251C473.217,79.747,373.929,0,256,0C114.615,0,0,114.615,0,256  c0,117.929,79.747,217.217,188.251,246.92L502.92,188.251z"/>
<path style="fill:#FFAB91;" d="M502.92,188.252l-89.587-89.587l-7.797,7.797C367.268,68.193,314.398,44.522,256,44.522  C139.204,44.522,44.522,139.203,44.522,256c0,58.398,23.67,111.268,61.941,149.539l-7.797,7.797l89.586,89.586  C209.832,508.828,232.545,512,256,512c141.384,0,256-114.616,256-256C512,232.545,508.828,209.832,502.92,188.252z"/>
<path style="fill:#880E4F;" d="M256,33.391c122.746,0,222.609,99.862,222.609,222.609S378.746,478.609,256,478.609l-22.261-16.696  L256,445.217c104.337,0,189.217-84.881,189.217-189.217S360.337,66.783,256,66.783l-22.261-16.696L256,33.391z"/>
<path style="fill:#E91E63;" d="M256,445.217v33.391c-122.746,0-222.609-99.862-222.609-222.609S133.254,33.391,256,33.391v33.391  C151.663,66.783,66.783,151.663,66.783,256S151.663,445.217,256,445.217z"/>
<polygon style="fill:#C2185B;" points="256,209.623 233.739,279.188 256,348.753 395.13,209.623 "/>
<polygon style="fill:#E91E63;" points="116.87,209.623 256,348.753 256,209.623 "/>
<g>
</g>
<g>
</g>
<g>
</g>
<g>
</g>
<g>
</g>
<g>
</g>
<g>
</g>
<g>
</g>
<g>
</g>
<g>
</g>
<g>
</g>
<g>
</g>
<g>
</g>
<g>
</g>
<g>
</g>
</svg>
