<?xml version="1.0" encoding="iso-8859-1"?>
<!-- Generator: Adobe Illustrator 19.0.0, SVG Export Plug-In . SVG Version: 6.00 Build 0)  -->
<svg xmlns="http://www.w3.org/2000/svg" xmlns:xlink="http://www.w3.org/1999/xlink" version="1.1" id="Layer_1" x="0px" y="0px" viewBox="0 0 512 512" style="enable-background:new 0 0 512 512;" xml:space="preserve">
<path style="fill:#37474F;" d="M510.073,287.465C511.338,277.152,512,266.654,512,256C512,114.616,397.385,0,256,0S0,114.616,0,256  c0,122.939,86.666,225.621,202.23,250.325L510.073,287.465z"/>
<path style="fill:#263238;" d="M510.073,287.465L256,33.391v45.365l-38.558,21.417l29.816,29.816l-81.227,59.227l50.318,50.318  l-101.73,38.725l49.784,49.784L63.21,367.304l139.02,139.02C219.57,510.032,237.554,512,256,512  C386.731,512,494.563,414.004,510.073,287.465z"/>
<polygon style="fill:#0097A7;" points="256,300.522 233.739,333.913 256,367.304 448.79,367.304 410.232,300.522 "/>
<polygon style="fill:#4DD0E1;" points="294.558,100.174 256,33.391 244.87,77.913 256,100.174 "/>
<polygon style="fill:#00BCD4;" points="256,122.435 233.739,155.826 256,189.217 345.968,189.217 307.41,122.435 "/>
<polygon style="fill:#00ACC1;" points="397.38,278.261 358.822,211.478 256,211.478 233.739,244.87 256,278.261 "/>
<polygon style="fill:#4DD0E1;" points="204.59,122.435 166.032,189.217 256,189.217 256,122.435 "/>
<polygon style="fill:#B2EBF2;" points="256,100.174 256,33.391 217.442,100.174 "/>
<polygon style="fill:#00BCD4;" points="256,278.261 256,211.478 153.178,211.478 114.62,278.261 "/>
<polygon style="fill:#00ACC1;" points="101.768,300.522 63.21,367.304 256,367.304 256,300.522 "/>
<g>
</g>
<g>
</g>
<g>
</g>
<g>
</g>
<g>
</g>
<g>
</g>
<g>
</g>
<g>
</g>
<g>
</g>
<g>
</g>
<g>
</g>
<g>
</g>
<g>
</g>
<g>
</g>
<g>
</g>
</svg>
