<?xml version="1.0" encoding="iso-8859-1"?>
<!-- Generator: Adobe Illustrator 19.0.0, SVG Export Plug-In . SVG Version: 6.00 Build 0)  -->
<svg xmlns="http://www.w3.org/2000/svg" xmlns:xlink="http://www.w3.org/1999/xlink" version="1.1" id="Layer_1" x="0px" y="0px" viewBox="0 0 512 512" style="enable-background:new 0 0 512 512;" xml:space="preserve">
<path style="fill:#37474F;" d="M502.388,186.283C472.029,78.782,373.217,0,256,0C114.615,0,0,114.616,0,256  c0,117.217,78.782,216.029,186.283,246.388L502.388,186.283z"/>
<path style="fill:#263238;" d="M512,256c0-24.168-3.354-47.553-9.612-69.717l-76.092-76.092L85.704,401.809l100.579,100.579  C208.449,508.646,231.832,512,256,512C397.384,512,512,397.384,512,256z"/>
<polygon style="fill:#546E7A;" points="256,179.182 202.15,262.122 256,345.061 415.165,345.061 415.165,179.182 "/>
<rect x="96.835" y="179.178" style="fill:#90A4AE;" width="159.165" height="165.877"/>
<polygon style="fill:#B0BEC5;" points="256,110.191 229.481,151.374 256,192.557 426.296,192.557 426.296,110.191 "/>
<rect x="85.704" y="110.191" style="fill:#CFD8DC;" width="170.296" height="82.365"/>
<polygon style="fill:#B0BEC5;" points="256,214.817 229.481,256 256,297.183 426.296,297.183 426.296,214.817 "/>
<rect x="85.704" y="214.817" style="fill:#CFD8DC;" width="170.296" height="82.365"/>
<polygon style="fill:#B0BEC5;" points="256,319.443 229.481,360.626 256,401.809 426.296,401.809 426.296,319.443 "/>
<rect x="85.704" y="319.443" style="fill:#CFD8DC;" width="170.296" height="82.365"/>
<g>
</g>
<g>
</g>
<g>
</g>
<g>
</g>
<g>
</g>
<g>
</g>
<g>
</g>
<g>
</g>
<g>
</g>
<g>
</g>
<g>
</g>
<g>
</g>
<g>
</g>
<g>
</g>
<g>
</g>
</svg>
