<?xml version="1.0" encoding="iso-8859-1"?>
<!-- Generator: Adobe Illustrator 19.0.0, SVG Export Plug-In . SVG Version: 6.00 Build 0)  -->
<svg xmlns="http://www.w3.org/2000/svg" xmlns:xlink="http://www.w3.org/1999/xlink" version="1.1" id="Layer_1" x="0px" y="0px" viewBox="0 0 512 512" style="enable-background:new 0 0 512 512;" xml:space="preserve">
<path style="fill:#0097A7;" d="M503.84,191.652C475.3,81.415,375.159,0,256,0C114.616,0,0,114.616,0,256  c0,119.15,81.401,219.283,191.625,247.832L503.84,191.652z"/>
<path style="fill:#006064;" d="M512,256c0-22.225-2.837-43.787-8.16-64.348L387.607,75.419L124.383,436.591l67.242,67.242  C212.194,509.161,233.765,512,256,512C397.385,512,512,397.385,512,256z"/>
<path style="fill:#FFEB3B;" d="M356.174,62.33H256l-66.783,210.365L256,449.67h100.174c24.487,0,44.522-20.035,44.522-44.522  V106.852C400.696,82.365,380.661,62.33,356.174,62.33z"/>
<g>
	<path style="fill:#FFF9C4;" d="M155.826,62.33c-24.487,0-44.522,20.035-44.522,44.522v298.296   c0,24.487,20.035,44.522,44.522,44.522H256V62.33H155.826z"/>
	<path style="fill:#FFF9C4;" d="M256,427.409L212.773,256L256,84.591h100.174c12.275,0,22.261,9.986,22.261,22.261v298.296   c0,12.275-9.986,22.261-22.261,22.261H256z"/>
</g>
<path style="fill:#FFFFFF;" d="M155.826,427.409c-12.275,0-22.261-9.986-22.261-22.261V106.852c0-12.275,9.986-22.261,22.261-22.261  H256v342.817H155.826z"/>
<polygon style="fill:#E91E63;" points="256,140.8 220.633,256 256,371.2 356.174,256 "/>
<polygon style="fill:#F06292;" points="155.826,256 256,371.2 256,140.8 "/>
<g>
</g>
<g>
</g>
<g>
</g>
<g>
</g>
<g>
</g>
<g>
</g>
<g>
</g>
<g>
</g>
<g>
</g>
<g>
</g>
<g>
</g>
<g>
</g>
<g>
</g>
<g>
</g>
<g>
</g>
</svg>
