<?xml version="1.0" encoding="iso-8859-1"?>
<!-- Generator: Adobe Illustrator 19.0.0, SVG Export Plug-In . SVG Version: 6.00 Build 0)  -->
<svg xmlns="http://www.w3.org/2000/svg" xmlns:xlink="http://www.w3.org/1999/xlink" version="1.1" id="Layer_1" x="0px" y="0px" viewBox="0 0 512 512" style="enable-background:new 0 0 512 512;" xml:space="preserve">
<path style="fill:#FFF9C4;" d="M511.721,244.233C505.569,108.311,393.44,0,256,0C114.615,0,0,114.615,0,256  c0,130.096,97.045,237.519,222.692,253.845L511.721,244.233z"/>
<path style="fill:#FFF176;" d="M512,256c0-3.945-0.103-7.866-0.279-11.767L332.701,65.214L186.886,78.461l-41.069,354.508  l76.877,76.877C233.596,511.262,244.712,512,256,512C397.384,512,512,397.384,512,256z"/>
<path style="fill:#37474F;" d="M256.001,38.958L233.74,55.653l22.261,22.261c35.295,0,64,28.717,64,64v86.372h38.957v-86.372  C358.958,85.143,312.772,38.958,256.001,38.958z"/>
<path style="fill:#607D8B;" d="M364.523,141.914v86.372h-22.261c0,0,0-38.734,0-86.372s-38.623-86.261-86.261-86.261l-11.13-11.13  l11.13-11.13C315.838,33.392,364.523,82.077,364.523,141.914z"/>
<path style="fill:#546E7A;" d="M153.045,141.914v86.372h38.957v-86.372c0-35.283,28.705-64,64-64V38.958  C199.23,38.958,153.045,85.143,153.045,141.914z"/>
<path style="fill:#90A4AE;" d="M256.001,33.392v22.261c-47.638,0-86.261,38.623-86.261,86.261s0,86.372,0,86.372h-22.261v-86.372  C147.479,82.077,196.164,33.392,256.001,33.392z"/>
<path style="fill:#37474F;" d="M256.001,166.957l-55.652,155.826l55.652,155.826c86.061,0,155.826-69.766,155.826-155.826  S342.062,166.957,256.001,166.957z"/>
<path style="fill:#546E7A;" d="M100.175,322.783c0,86.061,69.766,155.826,155.826,155.826V166.957  C169.941,166.957,100.175,236.722,100.175,322.783z"/>
<path style="fill:#263238;" d="M256.001,189.217l-44.522,133.565l44.522,133.565c73.648,0,133.565-59.917,133.565-133.565  S329.65,189.217,256.001,189.217z"/>
<path style="fill:#37474F;" d="M122.436,322.783c0,73.648,59.917,133.565,133.565,133.565v-267.13  C182.353,189.217,122.436,249.135,122.436,322.783z"/>
<path style="fill:#607D8B;" d="M289.392,306.087c0,9.884-4.296,18.766-11.13,24.877v41.906h-22.261l-11.13-50.087l11.13-50.087  C274.444,272.696,289.392,287.644,289.392,306.087z"/>
<path style="fill:#90A4AE;" d="M256.001,272.696V372.87H233.74v-41.906c-6.834-6.111-11.13-14.993-11.13-24.877  C222.61,287.644,237.558,272.696,256.001,272.696z"/>
<g>
</g>
<g>
</g>
<g>
</g>
<g>
</g>
<g>
</g>
<g>
</g>
<g>
</g>
<g>
</g>
<g>
</g>
<g>
</g>
<g>
</g>
<g>
</g>
<g>
</g>
<g>
</g>
<g>
</g>
</svg>
