<?xml version="1.0" encoding="iso-8859-1"?>
<!-- Generator: Adobe Illustrator 19.0.0, SVG Export Plug-In . SVG Version: 6.00 Build 0)  -->
<svg xmlns="http://www.w3.org/2000/svg" xmlns:xlink="http://www.w3.org/1999/xlink" version="1.1" id="Layer_1" x="0px" y="0px" viewBox="0 0 512 512" style="enable-background:new 0 0 512 512;" xml:space="preserve">
<path style="fill:#607D8B;" d="M503.656,191.036c-11.111-42.517-33.31-82.736-66.627-116.053  c-99.975-99.976-262.07-99.976-362.045,0s-99.976,262.07,0,362.045c32.533,32.533,71.645,54.468,113.052,65.829L503.656,191.036z"/>
<path style="fill:#37474F;" d="M437.029,437.027c66.658-66.658,88.857-160.928,66.627-245.991l-66.194-66.194L98.596,413.415  l89.44,89.44C273.876,526.406,369.585,504.47,437.029,437.027z"/>
<path style="fill:#FBC02D;" d="M200.016,398.571l-101.42,14.845l114.859-128.179l1.299,54.576  C199.263,355.303,194.608,377.819,200.016,398.571z"/>
<polygon style="fill:#00BCD4;" points="412.316,99.696 437.462,124.842 317.498,269.392 259.194,242.57 "/>
<polygon style="fill:#B0BEC5;" points="280.058,231.952 317.498,269.392 260.375,338.212 201.346,294.924 "/>
<path style="fill:#FFEB3B;" d="M220.114,291.896L98.596,413.415l14.845-101.42c20.752,5.407,43.268,0.752,58.759-14.738  L220.114,291.896z"/>
<polygon style="fill:#80DEEA;" points="387.16,74.557 412.316,99.696 264.317,247.693 242.618,194.512 "/>
<g>
	<polygon style="fill:#ECEFF1;" points="242.618,194.512 280.058,231.952 209.216,302.794 173.806,251.628  "/>
	<polygon style="fill:#ECEFF1;" points="260.376,338.211 214.754,339.812 193.476,318.535 189.541,290.988 217.088,294.922  "/>
</g>
<polygon style="fill:#FFFFFF;" points="217.088,294.922 193.476,318.535 172.198,297.257 173.807,251.627 "/>
<rect x="145.595" y="344.151" transform="matrix(-0.7071 0.7071 -0.7071 -0.7071 518.7684 495.6812)" style="fill:#455A64;" width="22.261" height="22.261"/>
<g>
</g>
<g>
</g>
<g>
</g>
<g>
</g>
<g>
</g>
<g>
</g>
<g>
</g>
<g>
</g>
<g>
</g>
<g>
</g>
<g>
</g>
<g>
</g>
<g>
</g>
<g>
</g>
<g>
</g>
</svg>
