<?xml version="1.0" encoding="iso-8859-1"?>
<!-- Generator: Adobe Illustrator 19.0.0, SVG Export Plug-In . SVG Version: 6.00 Build 0)  -->
<svg xmlns="http://www.w3.org/2000/svg" xmlns:xlink="http://www.w3.org/1999/xlink" version="1.1" id="Layer_1" x="0px" y="0px" viewBox="0 0 512 512" style="enable-background:new 0 0 512 512;" xml:space="preserve">
<path style="fill:#E64A19;" d="M505.105,196.792C478.385,83.957,377.003,0,256,0C114.615,0,0,114.616,0,256  c0,121.002,83.957,222.385,196.792,249.105L505.105,196.792z"/>
<path style="fill:#BF360C;" d="M512,256c0-20.382-2.395-40.203-6.895-59.208L398.47,90.157l-75.687,61.276l-237.078-0.059  l137.569,137.569L85.704,394.017l111.087,111.087C215.797,509.605,235.618,512,256,512C397.385,512,512,397.384,512,256z"/>
<rect x="85.704" y="360.626" style="fill:#FBC02D;" width="120.209" height="33.391"/>
<rect x="306.087" y="360.626" style="fill:#F9A825;" width="120.209" height="33.391"/>
<rect x="85.704" y="117.983" style="fill:#FBC02D;" width="120.209" height="33.391"/>
<rect x="306.087" y="117.983" style="fill:#F9A825;" width="120.209" height="33.391"/>
<polygon style="fill:#FFEB3B;" points="353.948,378.435 256,378.435 235.943,256 256,133.565 353.948,133.565 "/>
<rect x="158.052" y="133.565" style="fill:#FFF9C4;" width="97.948" height="244.87"/>
<polygon style="fill:#FBC02D;" points="387.339,343.93 256,343.93 232.971,377.322 256,410.713 387.339,410.713 "/>
<rect x="124.661" y="343.93" style="fill:#FFEB3B;" width="131.339" height="66.783"/>
<polygon style="fill:#FBC02D;" points="387.339,168.07 256,168.07 232.971,134.678 256,101.287 387.339,101.287 "/>
<rect x="124.661" y="101.287" style="fill:#FFEB3B;" width="131.339" height="66.783"/>
<rect x="113.53" y="332.8" style="fill:#F9A825;" width="22.261" height="89.043"/>
<rect x="376.209" y="332.8" style="fill:#F57F17;" width="22.261" height="89.043"/>
<rect x="113.53" y="90.157" style="fill:#F9A825;" width="22.261" height="89.043"/>
<rect x="376.209" y="90.157" style="fill:#F57F17;" width="22.261" height="89.043"/>
<g>
</g>
<g>
</g>
<g>
</g>
<g>
</g>
<g>
</g>
<g>
</g>
<g>
</g>
<g>
</g>
<g>
</g>
<g>
</g>
<g>
</g>
<g>
</g>
<g>
</g>
<g>
</g>
<g>
</g>
</svg>
