<?xml version="1.0" encoding="iso-8859-1"?>
<!-- Generator: Adobe Illustrator 19.0.0, SVG Export Plug-In . SVG Version: 6.00 Build 0)  -->
<svg xmlns="http://www.w3.org/2000/svg" xmlns:xlink="http://www.w3.org/1999/xlink" version="1.1" id="Layer_1" x="0px" y="0px" viewBox="0 0 512 512" style="enable-background:new 0 0 512 512;" xml:space="preserve">
<path style="fill:#80DEEA;" d="M502.388,186.283C472.031,78.782,373.217,0,256,0C114.616,0,0,114.616,0,256s114.616,256,256,256  c0.739,0,1.473-0.022,2.21-0.028L502.388,186.283z"/>
<path style="fill:#00BCD4;" d="M512,256c0-24.168-3.354-47.551-9.612-69.717l-90.562-90.562l-33.391,38.142v155.528  c0,32.703-12.734,63.45-35.86,86.575c-23.125,23.126-53.871,35.86-86.575,35.86s-63.45-12.734-86.575-35.86  c-0.524-0.524-1.037-1.057-1.55-1.589l-22.061,25.199l112.395,112.395C398.575,510.782,512,396.646,512,256z"/>
<path style="fill:#006064;" d="M311.652,95.722v193.67c0,30.687-24.966,55.652-55.652,55.652l-33.391,61.217H256  c64.442,0,116.87-52.428,116.87-116.87V95.722H311.652z"/>
<path style="fill:#0097A7;" d="M256,345.043v50.087c-58.301,0-105.739-47.438-105.739-105.739V95.722h50.087v193.67  C200.348,320.078,225.313,345.043,256,345.043z"/>
<path style="fill:#263238;" d="M411.826,95.722c0,0,0,107.609,0,193.67S342.061,445.217,256,445.217l-33.391-25.043L256,395.13  c58.301,0,105.739-47.438,105.739-105.739V95.722H411.826z"/>
<path style="fill:#00838F;" d="M256,395.13v50.087c-86.061,0-155.826-69.766-155.826-155.826s0-193.67,0-193.67h50.087v193.67  C150.261,347.693,197.699,395.13,256,395.13z"/>
<polygon style="fill:#E0F7FA;" points="178.087,117.983 178.087,173.635 150.261,173.635 139.13,145.809 150.261,117.983 "/>
<rect x="122.435" y="117.983" style="fill:#FFFFFF;" width="27.826" height="55.652"/>
<g>
</g>
<g>
</g>
<g>
</g>
<g>
</g>
<g>
</g>
<g>
</g>
<g>
</g>
<g>
</g>
<g>
</g>
<g>
</g>
<g>
</g>
<g>
</g>
<g>
</g>
<g>
</g>
<g>
</g>
</svg>
