<?xml version="1.0" encoding="iso-8859-1"?>
<!-- Generator: Adobe Illustrator 19.0.0, SVG Export Plug-In . SVG Version: 6.00 Build 0)  -->
<svg xmlns="http://www.w3.org/2000/svg" xmlns:xlink="http://www.w3.org/1999/xlink" version="1.1" id="Layer_1" x="0px" y="0px" viewBox="0 0 512 512" style="enable-background:new 0 0 512 512;" xml:space="preserve">
<path style="fill:#E91E63;" d="M256,11.13c0,0-11.177-10.95-16.697-10.595C105.7,9.137,0,120.225,0,256  c0,120.635,83.448,221.763,195.764,248.853L256,11.13z"/>
<path style="fill:#AD1457;" d="M509.958,223.516C494.681,102.892,395.471,8.44,272.697,0.535l-16.696,163.082  c-0.001,0-149.985,251.489-149.985,251.489l89.748,89.748C215.083,509.513,235.25,512,256,512c141.385,0,256-114.616,256-256  C512,244.996,511.304,234.153,509.958,223.516z"/>
<path style="fill:#263238;" d="M272.696,0.557C267.175,0.2,261.611,0,256,0c-11.877,0-17.435,0.604-16.696,0.557v168.626h33.391  V0.557z"/>
<polygon style="fill:#455A64;" points="256,107.965 233.739,152.487 289.391,152.487 289.391,107.965 "/>
<rect x="222.609" y="107.965" style="fill:#607D8B;" width="33.391" height="44.522"/>
<polygon style="fill:#90A4AE;" points="372.87,130.226 256,130.226 233.739,213.704 256,297.183 372.87,297.183 "/>
<rect x="139.13" y="130.226" style="fill:#B0BEC5;" width="116.87" height="166.957"/>
<path style="fill:#ECEFF1;" d="M244.87,235.965c0-58.398-47.341-105.739-105.739-105.739S33.391,177.567,33.391,235.965  c0,14.019,2.735,27.398,7.689,39.64l46.456,114.788c8.257,20.395,28.239,34.789,51.594,34.789c23.356,0,43.339-14.394,51.594-34.789  l46.456-114.788C242.135,263.363,244.87,249.984,244.87,235.965z"/>
<path style="fill:#B0BEC5;" d="M478.609,235.965c0-58.398-47.341-105.739-105.739-105.739S267.13,177.567,267.13,235.965  c0,14.019,2.735,27.398,7.689,39.64l46.456,114.788c8.257,20.395,28.239,34.789,51.594,34.789c23.356,0,43.339-14.394,51.594-34.789  l46.456-114.788C475.874,263.363,478.609,249.984,478.609,235.965z"/>
<circle style="fill:#90A4AE;" cx="139.13" cy="235.965" r="83.478"/>
<circle style="fill:#CFD8DC;" cx="139.13" cy="369.53" r="33.391"/>
<circle style="fill:#90A4AE;" cx="372.87" cy="369.53" r="33.391"/>
<polygon style="fill:#B0BEC5;" points="194.783,219.27 155.826,219.27 155.826,180.313 122.435,180.313 122.435,219.27   83.478,219.27 83.478,252.661 122.435,252.661 122.435,291.617 155.826,291.617 155.826,252.661 194.783,252.661 "/>
<circle style="fill:#607D8B;" cx="372.87" cy="235.965" r="83.478"/>
<g>
	<circle style="fill:#ECEFF1;" cx="372.87" cy="191.443" r="16.696"/>
	<circle style="fill:#ECEFF1;" cx="372.87" cy="280.487" r="16.696"/>
	<circle style="fill:#ECEFF1;" cx="417.391" cy="235.965" r="16.696"/>
	<circle style="fill:#ECEFF1;" cx="328.348" cy="235.965" r="16.696"/>
</g>
<g>
</g>
<g>
</g>
<g>
</g>
<g>
</g>
<g>
</g>
<g>
</g>
<g>
</g>
<g>
</g>
<g>
</g>
<g>
</g>
<g>
</g>
<g>
</g>
<g>
</g>
<g>
</g>
<g>
</g>
</svg>
