<?xml version="1.0" encoding="iso-8859-1"?>
<!-- Generator: Adobe Illustrator 19.0.0, SVG Export Plug-In . SVG Version: 6.00 Build 0)  -->
<svg xmlns="http://www.w3.org/2000/svg" xmlns:xlink="http://www.w3.org/1999/xlink" version="1.1" id="Layer_1" x="0px" y="0px" viewBox="0 0 512.001 512.001" style="enable-background:new 0 0 512.001 512.001;" xml:space="preserve">
<path style="fill:#546E7A;" d="M511.919,262.439c0.052-2.14,0.081-4.286,0.081-6.439c0-141.385-114.616-256-256-256  c-141.385,0-256,114.615-256,256c0,137.445,108.321,249.579,244.251,255.721L511.919,262.439z"/>
<path style="fill:#37474F;" d="M161.803,126.015l-39.536,263.72l121.986,121.986c3.896,0.176,7.81,0.279,11.749,0.279  c139.232,0,252.501-111.152,255.919-249.561L366.35,116.87L161.803,126.015z"/>
<path style="fill:#F9A825;" d="M395.131,256h-50.087c0,49.096-39.947,89.043-89.043,89.043S166.957,305.096,166.957,256  s39.947-89.043,89.043-89.043l44.522-66.104h-59.129c-79.1,7.387-141.219,74.149-141.219,155.147  c0,85.923,69.904,155.826,155.826,155.826c80.621,0,147.138-61.542,155.04-140.116L395.131,256z"/>
<path style="fill:#FBC02D;" d="M395.131,256h50.087c0,104.337-84.881,189.217-189.217,189.217S66.783,360.337,66.783,256  S151.664,66.783,256.001,66.783l22.261,25.043l-22.261,25.043c-76.845,0-139.13,62.286-139.13,139.13s62.286,139.13,139.13,139.13  S395.131,332.845,395.131,256z"/>
<polygon style="fill:#FFEB3B;" points="256.001,33.391 256.001,116.87 311.175,131.2 366.35,116.87 "/>
<polygon style="fill:#FBC02D;" points="256.001,116.87 256.001,200.348 366.35,116.87 "/>
<g>
</g>
<g>
</g>
<g>
</g>
<g>
</g>
<g>
</g>
<g>
</g>
<g>
</g>
<g>
</g>
<g>
</g>
<g>
</g>
<g>
</g>
<g>
</g>
<g>
</g>
<g>
</g>
<g>
</g>
</svg>
