<?xml version="1.0" encoding="iso-8859-1"?>
<!-- Generator: Adobe Illustrator 19.0.0, SVG Export Plug-In . SVG Version: 6.00 Build 0)  -->
<svg xmlns="http://www.w3.org/2000/svg" xmlns:xlink="http://www.w3.org/1999/xlink" version="1.1" id="Layer_1" x="0px" y="0px" viewBox="0 0 512 512" style="enable-background:new 0 0 512 512;" xml:space="preserve">
<path style="fill:#546E7A;" d="M172.517,13.921C72.122,48.536,0,143.845,0,256c0,119.421,81.771,219.738,192.375,248.026  L467.478,256L172.517,13.921z"/>
<path style="fill:#37474F;" d="M512,256c0-112.154-72.127-207.45-172.522-242.066L256,389.565l35.533,35.533l-169.098,8.989  l69.939,69.939C212.718,509.23,234.035,512,256,512C397.385,512,512,397.385,512,256z"/>
<path style="fill:#FBC02D;" d="M172.522,227.698l116.661,55.236L256,0c-29.231,0-57.312,4.912-83.478,13.934V227.698z"/>
<path style="fill:#F9A825;" d="M339.478,227.698V13.934C313.312,4.912,285.231,0,256,0v282.933L339.478,227.698z"/>
<polygon style="fill:#FFEB3B;" points="126.33,218.157 256,218.157 278.261,303.861 256,389.565 "/>
<g>
	<polygon style="fill:#FBC02D;" points="256,218.157 256,389.565 385.67,218.157  "/>
	<polygon style="fill:#FBC02D;" points="256,411.826 235.201,422.957 256,434.087 389.565,434.087 389.565,411.826  "/>
</g>
<rect x="122.435" y="411.826" style="fill:#FFEB3B;" width="133.565" height="22.261"/>
<g>
</g>
<g>
</g>
<g>
</g>
<g>
</g>
<g>
</g>
<g>
</g>
<g>
</g>
<g>
</g>
<g>
</g>
<g>
</g>
<g>
</g>
<g>
</g>
<g>
</g>
<g>
</g>
<g>
</g>
</svg>
