<?xml version="1.0" encoding="iso-8859-1"?>
<!-- Generator: Adobe Illustrator 19.0.0, SVG Export Plug-In . SVG Version: 6.00 Build 0)  -->
<svg xmlns="http://www.w3.org/2000/svg" xmlns:xlink="http://www.w3.org/1999/xlink" version="1.1" id="Layer_1" x="0px" y="0px" viewBox="0 0 512 512" style="enable-background:new 0 0 512 512;" xml:space="preserve">
<path style="fill:#FFAB91;" d="M478.235,190.983l31.594,31.594C493.451,96.986,386.056,0,256,0C114.615,0,0,114.615,0,256  s114.615,256,256,256c29.609,0,58.037-5.044,84.492-14.29L478.235,190.983z"/>
<path style="fill:#FF8A65;" d="M512,256c0-11.329-0.745-22.483-2.172-33.424l-31.594-31.594l-322.409-23.53l-60.215,85.375  l31.528,31.528l62.125,6.472l-0.217,55.435l31.471,31.471l29.223,6.962l6.261,28.522l84.49,84.49  C440.357,462.802,512,367.775,512,256z"/>
<path style="fill:#263238;" d="M478.23,190.987l-30.364,30.364l-236.299-78.603L256,98.783  C342.695,98.783,421.298,134.044,478.23,190.987z"/>
<path style="fill:#37474F;" d="M33.77,190.987l30.364,30.364L256,141.857V98.783C169.305,98.783,90.702,134.044,33.77,190.987z"/>
<path d="M447.866,221.351l-31.477,31.477c-42.474-42.474-99.395-66.449-160.39-66.449l-22.172-22.261L256,141.857  C328.47,141.857,396.611,170.084,447.866,221.351z"/>
<g>
	<path style="fill:#263238;" d="M256,230.901l-43.331,46.136l140.711,38.801l31.477-31.477   C351.844,251.347,306.265,230.901,256,230.901z"/>
	<path style="fill:#263238;" d="M291.484,377.734L256,413.217l-11.13-25.105L256,363.008   C269.846,363.008,282.39,368.64,291.484,377.734z"/>
</g>
<g>
	<path style="fill:#37474F;" d="M256,363.008v50.209l-35.484-35.484C229.61,368.64,242.154,363.008,256,363.008z"/>
	<path style="fill:#37474F;" d="M256,230.901v44.522l-97.38,40.415l-31.477-31.477C160.156,251.347,205.735,230.901,256,230.901z"/>
</g>
<path style="fill:#263238;" d="M256,141.857v44.522c-30.497,0-59.971,5.999-87.14,17.297  c-27.169,11.297-52.013,27.915-73.249,49.152l-31.477-31.477c25.366-25.377,54.851-45.156,87.63-58.78  C184.81,148.825,219.882,141.857,256,141.857z"/>
<path d="M353.38,315.837l-30.431,30.431c-17.152-17.152-40.838-27.782-66.95-27.782l-21.07-21.532L256,275.423  C292.73,275.423,327.313,289.781,353.38,315.837z"/>
<path style="fill:#263238;" d="M256,275.423v43.064c-26.112,0-49.798,10.63-66.95,27.782l-30.431-30.431  C184.687,289.781,219.27,275.423,256,275.423z"/>
<g>
</g>
<g>
</g>
<g>
</g>
<g>
</g>
<g>
</g>
<g>
</g>
<g>
</g>
<g>
</g>
<g>
</g>
<g>
</g>
<g>
</g>
<g>
</g>
<g>
</g>
<g>
</g>
<g>
</g>
</svg>
