<?xml version="1.0" encoding="iso-8859-1"?>
<!-- Generator: Adobe Illustrator 19.0.0, SVG Export Plug-In . SVG Version: 6.00 Build 0)  -->
<svg xmlns="http://www.w3.org/2000/svg" xmlns:xlink="http://www.w3.org/1999/xlink" version="1.1" id="Layer_1" x="0px" y="0px" viewBox="0 0 512 512" style="enable-background:new 0 0 512 512;" xml:space="preserve">
<path style="fill:#F06292;" d="M503.8,191.502C475.207,81.341,375.106,0,256,0C114.615,0,0,114.616,0,256s114.615,256,256,256  c15.044,0,29.781-1.31,44.112-3.799L503.8,191.502z"/>
<path style="fill:#E91E63;" d="M512,256c0-22.28-2.852-43.892-8.2-64.498L405.048,92.75L256,464.152l44.112,44.049  C420.473,487.295,512,382.342,512,256z"/>
<polygon style="fill:#E0F7FA;" points="206.57,92.75 170.93,263.424 33.391,241.163 107.709,92.75 "/>
<polygon style="fill:#B2EBF2;" points="306.187,92.75 341.827,263.424 479.366,241.163 405.048,92.75 "/>
<polygon style="fill:#80DEEA;" points="256.378,92.75 234.118,285.685 375.218,241.163 306.187,92.75 "/>
<polygon style="fill:#B2EBF2;" points="256.378,92.75 256.378,285.685 137.539,241.163 206.57,92.75 "/>
<polygon style="fill:#0097A7;" points="374.466,241.165 374.466,316.157 256,464.152 214.794,316.157 256,241.165 "/>
<g>
	<polygon style="fill:#00BCD4;" points="374.466,241.165 256,464.152 478.609,241.165  "/>
	<polygon style="fill:#00BCD4;" points="137.534,241.165 137.534,316.157 256,464.152 256,241.165  "/>
</g>
<polygon style="fill:#80DEEA;" points="137.539,241.163 256,464.152 33.391,241.165 "/>
<polygon style="fill:#E0F7FA;" points="320.294,78.643 306.187,42.941 298.766,92.75 306.187,142.559 320.294,106.857   355.996,92.75 "/>
<polygon style="fill:#FFFFFF;" points="292.08,78.643 256.378,92.75 292.08,106.857 306.187,142.559 306.187,42.941 "/>
<polygon style="fill:#E0F7FA;" points="395.745,219.887 374.466,166.035 363.273,241.165 374.466,316.296 395.745,262.444   449.596,241.165 "/>
<polygon style="fill:#FFFFFF;" points="353.186,219.887 299.335,241.165 353.186,262.444 374.466,316.296 374.466,166.035 "/>
<g>
</g>
<g>
</g>
<g>
</g>
<g>
</g>
<g>
</g>
<g>
</g>
<g>
</g>
<g>
</g>
<g>
</g>
<g>
</g>
<g>
</g>
<g>
</g>
<g>
</g>
<g>
</g>
<g>
</g>
</svg>
