<?xml version="1.0" encoding="iso-8859-1"?>
<!-- Generator: Adobe Illustrator 19.0.0, SVG Export Plug-In . SVG Version: 6.00 Build 0)  -->
<svg xmlns="http://www.w3.org/2000/svg" xmlns:xlink="http://www.w3.org/1999/xlink" version="1.1" id="Layer_1" x="0px" y="0px" viewBox="0 0 512 512" style="enable-background:new 0 0 512 512;" xml:space="preserve">
<path style="fill:#F48FB1;" d="M504.027,192.375C475.738,81.771,375.421,0,256,0C114.616,0,0,114.616,0,256  c0,119.42,81.771,219.738,192.375,248.026L504.027,192.375z"/>
<g>
	<path style="fill:#EC407A;" d="M512,256c0-21.965-2.77-43.282-7.974-63.625L439.652,128L72.348,384l120.026,120.026   C212.718,509.23,234.035,512,256,512C397.385,512,512,397.385,512,256z"/>
	
		<rect x="114.956" y="116.603" transform="matrix(-0.7071 -0.7071 0.7071 -0.7071 140.0331 352.1479)" style="fill:#EC407A;" width="55.986" height="60.937"/>
	<polygon style="fill:#EC407A;" points="322.783,83.478 256,258.34 403.199,163.895  "/>
</g>
<polygon style="fill:#455A64;" points="322.783,83.478 256,83.478 233.739,150.261 345.043,128 "/>
<polygon style="fill:#607D8B;" points="189.217,83.478 166.957,128 256,150.261 256,83.478 "/>
<rect x="94.609" y="105.739" style="fill:#CFD8DC;" width="50.087" height="44.522"/>
<polygon style="fill:#263238;" points="256,128 200.348,267.13 256,384 439.652,384 439.652,128 "/>
<rect x="72.348" y="128" style="fill:#37474F;" width="183.652" height="256"/>
<circle style="fill:#607D8B;" cx="350.609" cy="256" r="33.391"/>
<path style="fill:#455A64;" d="M256,161.391L222.609,256L256,350.609c52.251,0,94.609-42.358,94.609-94.609  S308.251,161.391,256,161.391z"/>
<path style="fill:#607D8B;" d="M161.391,256c0,52.251,42.358,94.609,94.609,94.609V161.391  C203.749,161.391,161.391,203.749,161.391,256z"/>
<path style="fill:#B2EBF2;" d="M256,194.783L222.609,256L256,317.217c33.81,0,61.217-27.408,61.217-61.217  S289.81,194.783,256,194.783z"/>
<path style="fill:#FFFFFF;" d="M194.783,256c0,33.81,27.408,61.217,61.217,61.217V194.783  C222.19,194.783,194.783,222.19,194.783,256z"/>
<rect x="395.13" y="150.261" style="fill:#FFEB3B;" width="22.261" height="22.261"/>
<g>
</g>
<g>
</g>
<g>
</g>
<g>
</g>
<g>
</g>
<g>
</g>
<g>
</g>
<g>
</g>
<g>
</g>
<g>
</g>
<g>
</g>
<g>
</g>
<g>
</g>
<g>
</g>
<g>
</g>
</svg>
