<?xml version="1.0" encoding="iso-8859-1"?>
<!-- Generator: Adobe Illustrator 19.0.0, SVG Export Plug-In . SVG Version: 6.00 Build 0)  -->
<svg xmlns="http://www.w3.org/2000/svg" xmlns:xlink="http://www.w3.org/1999/xlink" version="1.1" id="Layer_1" x="0px" y="0px" viewBox="0 0 512 512" style="enable-background:new 0 0 512 512;" xml:space="preserve">
<path style="fill:#546E7A;" d="M511.723,244.316C505.614,108.356,393.468,0,256,0C114.616,0,0,114.616,0,256  c0,137.468,108.356,249.614,244.316,255.723L511.723,244.316z"/>
<path style="fill:#37474F;" d="M512,256c0-3.917-0.102-7.809-0.277-11.684L392.448,125.04l-0.002,17.928l-26.1-26.099  l-246.794,33.391V386.96l124.764,124.764C248.191,511.898,252.083,512,256,512C397.384,512,512,397.384,512,256z"/>
<path style="fill:#F9A825;" d="M146.395,366.653l54.213-41.012c-20.487-16.328-33.654-41.47-33.654-69.641  c0-49.096,39.947-89.043,89.043-89.043l44.522-66.104H241.39c-79.1,7.387-141.218,74.15-141.218,155.147  C100.172,299.228,117.87,338.396,146.395,366.653z"/>
<path style="fill:#FBC02D;" d="M159.799,356.513C133.343,331.186,116.867,295.52,116.867,256c0-76.845,62.286-139.13,139.13-139.13  l22.261-25.043l-22.261-25.043C151.661,66.783,66.78,151.663,66.78,256c0,50.776,20.107,96.939,52.772,130.96L159.799,356.513z"/>
<path style="fill:#F9A825;" d="M365.605,145.347l-54.213,41.012c20.487,16.328,33.654,41.47,33.654,69.641  c0,49.096-39.947,89.043-89.043,89.043l-44.522,66.104h59.129c79.1-7.387,141.219-74.15,141.219-155.147  C411.828,212.772,394.13,173.604,365.605,145.347z"/>
<path style="fill:#FBC02D;" d="M352.201,155.487c26.456,25.327,42.931,60.994,42.931,100.513c0,76.845-62.286,139.13-139.13,139.13  l-22.261,25.043l22.261,25.043c104.337,0,189.217-84.881,189.217-189.217c0-50.776-20.107-96.939-52.772-130.96L352.201,155.487z"/>
<polygon style="fill:#FFEB3B;" points="255.998,33.391 255.998,116.87 311.172,131.201 366.346,116.87 "/>
<g>
	<polygon style="fill:#FBC02D;" points="255.998,116.87 255.998,200.348 366.346,116.87  "/>
	<polygon style="fill:#FBC02D;" points="255.998,478.609 255.998,395.13 200.823,380.799 145.648,395.13  "/>
</g>
<polygon style="fill:#FFEB3B;" points="255.998,395.13 255.998,311.652 145.648,395.13 "/>
<g>
</g>
<g>
</g>
<g>
</g>
<g>
</g>
<g>
</g>
<g>
</g>
<g>
</g>
<g>
</g>
<g>
</g>
<g>
</g>
<g>
</g>
<g>
</g>
<g>
</g>
<g>
</g>
<g>
</g>
</svg>
