<?xml version="1.0" encoding="iso-8859-1"?>
<!-- Generator: Adobe Illustrator 19.0.0, SVG Export Plug-In . SVG Version: 6.00 Build 0)  -->
<svg xmlns="http://www.w3.org/2000/svg" xmlns:xlink="http://www.w3.org/1999/xlink" version="1.1" id="Layer_1" x="0px" y="0px" viewBox="0 0 512 512" style="enable-background:new 0 0 512 512;" xml:space="preserve">
<path style="fill:#F06292;" d="M509.681,221.526C492.842,96.446,385.692,0,256,0C114.615,0,0,114.615,0,256  c0,121.727,84.961,223.603,198.816,249.582L509.681,221.526z"/>
<path style="fill:#E91E63;" d="M512,256c0-11.693-0.8-23.197-2.318-34.474L462.655,174.5h-350.93v62.381l41.72,41.72L139.13,445.896  l59.686,59.686C217.204,509.777,236.341,512,256,512C397.385,512,512,397.384,512,256z"/>
<polygon points="372.87,84.714 335.903,172.508 400.275,236.88 462.655,174.5 "/>
<g>
	<polygon style="fill:#263238;" points="334.982,75.843 244.87,116.447 244.87,434.766 372.87,423.635 372.87,84.714  "/>
	<polygon style="fill:#263238;" points="49.345,174.5 111.725,236.88 182.413,166.192 139.13,84.714  "/>
</g>
<polygon style="fill:#37474F;" points="177.018,75.843 139.13,84.714 139.13,423.635 256,434.766 256,116.447 "/>
<polygon points="372.87,423.635 372.87,445.896 256,445.896 244.87,434.766 256,423.635 "/>
<rect x="139.13" y="423.635" style="fill:#263238;" width="116.87" height="22.261"/>
<path d="M334.982,75.843l-3.239,5.71c-8.537,15.026-34.093,40.459-75.743,40.459l-11.13-11.13L256,99.751  c39.802,0,56.387-29.195,56.387-29.195L334.982,75.843z"/>
<path style="fill:#263238;" d="M256,99.751v22.261c-41.65,0-67.206-25.433-75.743-40.459l-3.239-5.71l22.595-5.287  C199.613,70.556,216.198,99.751,256,99.751z"/>
<g>
</g>
<g>
</g>
<g>
</g>
<g>
</g>
<g>
</g>
<g>
</g>
<g>
</g>
<g>
</g>
<g>
</g>
<g>
</g>
<g>
</g>
<g>
</g>
<g>
</g>
<g>
</g>
<g>
</g>
</svg>
