<?xml version="1.0" encoding="iso-8859-1"?>
<!-- Generator: Adobe Illustrator 19.0.0, SVG Export Plug-In . SVG Version: 6.00 Build 0)  -->
<svg xmlns="http://www.w3.org/2000/svg" xmlns:xlink="http://www.w3.org/1999/xlink" version="1.1" id="Layer_1" x="0px" y="0px" viewBox="0 0 512.001 512.001" style="enable-background:new 0 0 512.001 512.001;" xml:space="preserve">
<path style="fill:#EC407A;" d="M504.256,193.368c-10.901-43.376-33.3-84.459-67.226-118.385  c-99.977-99.977-262.071-99.977-362.047,0s-99.977,262.071,0,362.047c33.926,33.926,75.008,56.325,118.385,67.226L504.256,193.368z"/>
<path style="fill:#C2185B;" d="M437.031,437.031c66.051-66.051,88.449-159.211,67.226-243.663l-65.258-65.258L128.109,438.999  l65.258,65.258C277.82,525.48,370.979,503.082,437.031,437.031z"/>
<polygon style="fill:#FF8A65;" points="411.451,100.563 240.266,240.266 100.563,411.452 128.109,438.999 438.998,128.111 "/>
<rect x="22.411" y="222.76" transform="matrix(-0.7071 0.7071 -0.7071 -0.7071 584.819 242.2366)" style="fill:#FFAB91;" width="439.658" height="38.957"/>
<polygon style="fill:#B0BEC5;" points="332.745,69.081 282.373,34.45 219.409,97.414 254.039,147.786 324.875,139.916 "/>
<polygon style="fill:#78909C;" points="442.933,179.269 364.227,179.269 364.227,257.975 414.599,292.606 477.564,229.641 "/>
<polygon style="fill:#263238;" points="395.71,116.304 332.745,147.786 301.263,210.752 356.357,265.845 450.804,171.398 "/>
<rect x="254.158" y="97.029" transform="matrix(-0.7071 0.7071 -0.7071 -0.7071 644.0383 5.2025)" style="fill:#37474F;" width="133.567" height="77.914"/>
<rect x="282.257" y="144.518" transform="matrix(-0.7071 0.7071 -0.7071 -0.7071 610.9036 58.2524)" style="fill:#263238;" width="22.261" height="22.261"/>
<g>
</g>
<g>
</g>
<g>
</g>
<g>
</g>
<g>
</g>
<g>
</g>
<g>
</g>
<g>
</g>
<g>
</g>
<g>
</g>
<g>
</g>
<g>
</g>
<g>
</g>
<g>
</g>
<g>
</g>
</svg>
