<?xml version="1.0" encoding="iso-8859-1"?>
<!-- Generator: Adobe Illustrator 19.0.0, SVG Export Plug-In . SVG Version: 6.00 Build 0)  -->
<svg xmlns="http://www.w3.org/2000/svg" xmlns:xlink="http://www.w3.org/1999/xlink" version="1.1" id="Layer_1" x="0px" y="0px" viewBox="0 0 512 512" style="enable-background:new 0 0 512 512;" xml:space="preserve">
<path style="fill:#FFEB3B;" d="M502.92,188.251C473.217,79.747,373.929,0,256,0C114.615,0,0,114.616,0,256  c0,117.929,79.747,217.217,188.251,246.92L502.92,188.251z"/>
<path style="fill:#FBC02D;" d="M502.921,188.252l-89.587-89.587l-23.538,23.538C355.555,87.96,308.251,66.783,256,66.783  C151.499,66.783,66.783,151.497,66.783,256c0,52.251,21.179,99.555,55.421,133.797l-23.538,23.538l89.586,89.586  C209.832,508.828,232.545,512,256,512c141.384,0,256-114.616,256-256C512,232.545,508.828,209.832,502.921,188.252z"/>
<path style="fill:#263238;" d="M256,33.391l-22.261,22.261L256,77.913c74.561,0,138.407,45.826,164.941,110.845L256,232.954  l-11.13,84.154l11.13,161.5c122.943,0,222.609-99.665,222.609-222.609S378.943,33.391,256,33.391z M278.261,432.705V273.082  l154.179-41.313c1.079,7.925,1.647,16.011,1.647,24.232C434.087,346.815,366.109,421.749,278.261,432.705z"/>
<path style="fill:#37474F;" d="M91.059,188.758C117.593,123.739,181.439,77.913,256,77.913V33.391  C133.057,33.391,33.391,133.057,33.391,256S133.057,478.609,256,478.609V232.954L91.059,188.758z M233.739,432.705  C145.891,421.749,77.913,346.815,77.913,256c0-8.221,0.57-16.306,1.647-24.232l154.179,41.314V432.705z"/>
<path style="fill:#263238;" d="M256,189.217L233.739,256L256,322.783c36.883,0,66.783-29.9,66.783-66.783  S292.883,189.217,256,189.217z"/>
<path style="fill:#37474F;" d="M189.217,256c0,36.883,29.9,66.783,66.783,66.783V189.217  C219.117,189.217,189.217,219.117,189.217,256z"/>
<path style="fill:#455A64;" d="M256,211.478L233.739,256L256,300.522c24.588,0,44.522-19.932,44.522-44.522  S280.588,211.478,256,211.478z"/>
<path style="fill:#607D8B;" d="M211.478,256c0,24.589,19.933,44.522,44.522,44.522v-89.043  C231.412,211.478,211.478,231.411,211.478,256z"/>
<g>
</g>
<g>
</g>
<g>
</g>
<g>
</g>
<g>
</g>
<g>
</g>
<g>
</g>
<g>
</g>
<g>
</g>
<g>
</g>
<g>
</g>
<g>
</g>
<g>
</g>
<g>
</g>
<g>
</g>
</svg>
