<?xml version="1.0" encoding="iso-8859-1"?>
<!-- Generator: Adobe Illustrator 19.0.0, SVG Export Plug-In . SVG Version: 6.00 Build 0)  -->
<svg xmlns="http://www.w3.org/2000/svg" xmlns:xlink="http://www.w3.org/1999/xlink" version="1.1" id="Layer_1" x="0px" y="0px" viewBox="0 0 512 512" style="enable-background:new 0 0 512 512;" xml:space="preserve">
<path style="fill:#FF8A65;" d="M503.102,188.926C473.627,80.078,374.173,0,256,0C114.615,0,0,114.615,0,256  c0,117.856,79.648,217.094,188.05,246.865L503.102,188.926z"/>
<path style="fill:#FF5722;" d="M512,256c0-23.211-3.108-45.694-8.898-67.074l-90.014-90.014L98.592,413.408l89.458,89.458  C209.691,508.809,232.471,512,256,512C397.384,512,512,397.384,512,256z"/>
<path d="M466.73,184.068l-43.114-74.562c-31.811-36.369-75.267-62.293-124.551-71.953L121.535,256l177.53,218.446  c49.283-9.66,92.74-35.584,124.551-71.952l43.114-74.562c7.7-22.565,11.878-46.761,11.878-71.933S474.43,206.632,466.73,184.068z"/>
<path style="fill:#37474F;" d="M211.137,37.914c-48.542,9.934-91.33,35.666-122.753,71.592L45.27,184.067  C37.569,206.632,33.391,230.829,33.391,256s4.178,49.367,11.878,71.932l43.118,74.567c31.423,35.922,74.209,61.654,122.749,71.587  L256,456.348V55.652L211.137,37.914z"/>
<path style="fill:#FFFFFF;" d="M150.171,219.492L86.93,256.004L45.301,327.92c4.581,13.433,10.545,26.622,17.909,39.375  c7.368,12.762,15.811,24.519,25.151,35.217l83.104-0.096l63.238-36.51L150.171,219.492z"/>
<g>
	<path style="fill:#E0F7FA;" d="M277.298,365.904l63.241,36.512l83.095,0.094c9.344-10.684,17.782-22.443,25.146-35.197   c7.368-12.762,13.329-25.953,17.922-39.389L425.067,256l-63.238-36.51L277.298,365.904z"/>
	<path style="fill:#E0F7FA;" d="M340.536,109.579v73.027H256l-22.261-73.027L256,33.391c14.737,0,29.139,1.425,43.064,4.174   L340.536,109.579z"/>
</g>
<path style="fill:#FFFFFF;" d="M256,33.391v149.215h-84.536v-73.027l41.472-72.014C226.872,34.827,241.263,33.391,256,33.391z"/>
<path style="fill:#E0F7FA;" d="M171.248,256l42.376-73.396l-42.162-73.02l-83.096-0.093c-9.343,10.684-17.782,22.443-25.146,35.197  c-7.368,12.762-13.329,25.953-17.922,39.389L86.932,256H171.248z"/>
<path style="fill:#B2EBF2;" d="M298.374,329.394l42.162,73.027l-41.472,72.014c-13.935,2.738-28.327,4.174-43.064,4.174  l-22.261-76.188L256,329.394H298.374z"/>
<path style="fill:#E0F7FA;" d="M256,329.394v149.215c-14.737,0-29.139-1.425-43.064-4.174l-41.472-72.014l42.162-73.027H256z"/>
<path style="fill:#B2EBF2;" d="M298.376,182.603L340.75,256l84.319-0.004l41.629-71.917c-4.581-13.433-10.545-26.622-17.909-39.375  c-7.368-12.762-15.811-24.519-25.151-35.217l-83.104,0.096L298.376,182.603z"/>
<g>
</g>
<g>
</g>
<g>
</g>
<g>
</g>
<g>
</g>
<g>
</g>
<g>
</g>
<g>
</g>
<g>
</g>
<g>
</g>
<g>
</g>
<g>
</g>
<g>
</g>
<g>
</g>
<g>
</g>
</svg>
