<?xml version="1.0" encoding="iso-8859-1"?>
<!-- Generator: Adobe Illustrator 19.0.0, SVG Export Plug-In . SVG Version: 6.00 Build 0)  -->
<svg xmlns="http://www.w3.org/2000/svg" xmlns:xlink="http://www.w3.org/1999/xlink" version="1.1" id="Layer_1" x="0px" y="0px" viewBox="0 0 512 512" style="enable-background:new 0 0 512 512;" xml:space="preserve">
<path style="fill:#E0F7FA;" d="M504.745,195.319C477.495,83.228,376.476,0,256,0C114.615,0,0,114.616,0,256  c0,125.978,90.997,230.701,210.846,252.029L504.745,195.319z"/>
<path style="fill:#CFD8DC;" d="M512,256c0-20.91-2.526-41.226-7.255-60.681L376.209,66.783L58.991,356.174l151.855,151.855  C225.504,510.637,240.592,512,256,512C397.384,512,512,397.384,512,256z"/>
<polygon style="fill:#607D8B;" points="342.817,233.739 342.817,350.609 431.861,306.087 431.861,256 "/>
<polygon style="fill:#90A4AE;" points="342.817,256 431.861,256 431.861,205.913 342.817,161.391 "/>
<polygon points="309.426,222.609 342.817,445.217 376.209,445.217 376.209,256 "/>
<polygon style="fill:#263238;" points="342.817,66.783 309.426,256 376.209,256 376.209,66.783 "/>
<polygon style="fill:#37474F;" points="342.817,445.217 164.73,356.174 142.47,233.739 342.817,256 "/>
<g>
	<polygon style="fill:#607D8B;" points="342.817,256 142.47,256 164.73,155.826 342.817,66.783  "/>
	<polygon style="fill:#607D8B;" points="111.861,225.51 58.991,256 58.991,356.174 164.73,356.174 164.73,256  "/>
</g>
<rect x="58.991" y="155.826" style="fill:#90A4AE;" width="105.739" height="100.174"/>
<g>
</g>
<g>
</g>
<g>
</g>
<g>
</g>
<g>
</g>
<g>
</g>
<g>
</g>
<g>
</g>
<g>
</g>
<g>
</g>
<g>
</g>
<g>
</g>
<g>
</g>
<g>
</g>
<g>
</g>
</svg>
