<?xml version="1.0" encoding="iso-8859-1"?>
<!-- Generator: Adobe Illustrator 19.0.0, SVG Export Plug-In . SVG Version: 6.00 Build 0)  -->
<svg xmlns="http://www.w3.org/2000/svg" xmlns:xlink="http://www.w3.org/1999/xlink" version="1.1" id="Layer_1" x="0px" y="0px" viewBox="0 0 512.001 512.001" style="enable-background:new 0 0 512.001 512.001;" xml:space="preserve">
<path style="fill:#0097A7;" d="M510.075,287.465c1.263-10.312,1.926-20.811,1.926-31.465c0-141.384-114.615-256-256-256  c-141.384,0-256,114.616-256,256c0,138.344,109.742,251.037,246.919,255.822L510.075,287.465z"/>
<path style="fill:#006064;" d="M510.075,287.465L478.61,256l-105.144,23.496l-98.022-98.022l-150.783,30.004l50.088,50.088  L35.618,278.261l62.717,62.717l-18.195,4.066l166.78,166.78c3.015,0.106,6.04,0.177,9.081,0.178  C386.732,512,494.564,414.004,510.075,287.465z"/>
<polygon style="fill:#E0F7FA;" points="35.618,256 35.618,278.261 211.479,278.261 211.479,300.522 80.14,300.522 80.14,345.043   318.331,345.043 318.331,233.739 "/>
<polygon style="fill:#FFFFFF;" points="318.331,166.957 124.661,166.957 124.661,211.478 256.001,211.478 256.001,233.739   35.618,233.739 35.618,256 318.331,256 "/>
<polygon style="fill:#E0F7FA;" points="307.201,126.33 307.201,256 392.905,278.261 478.609,256 "/>
<polygon style="fill:#B2EBF2;" points="307.201,256 307.201,385.67 478.609,256 "/>
<g>
</g>
<g>
</g>
<g>
</g>
<g>
</g>
<g>
</g>
<g>
</g>
<g>
</g>
<g>
</g>
<g>
</g>
<g>
</g>
<g>
</g>
<g>
</g>
<g>
</g>
<g>
</g>
<g>
</g>
</svg>
