<?xml version="1.0" encoding="iso-8859-1"?>
<!-- Generator: Adobe Illustrator 19.0.0, SVG Export Plug-In . SVG Version: 6.00 Build 0)  -->
<svg xmlns="http://www.w3.org/2000/svg" xmlns:xlink="http://www.w3.org/1999/xlink" version="1.1" id="Layer_1" x="0px" y="0px" viewBox="0 0 512 512" style="enable-background:new 0 0 512 512;" xml:space="preserve">
<path style="fill:#607D8B;" d="M502.865,188.05C473.095,79.648,373.856,0,256,0C114.616,0,0,114.616,0,256  c0,117.856,79.648,217.095,188.05,246.865L502.865,188.05z"/>
<path style="fill:#37474F;" d="M512,256c0-23.529-3.191-46.309-9.135-67.951l-89.458-89.458L306.761,82.449L76.55,312.662  l6.302,85.005L188.05,502.865c21.641,5.944,44.422,9.135,67.951,9.135C397.385,512,512,397.385,512,256z"/>
<g>
	<path style="fill:#00BCD4;" d="M185.171,397.663c-28.212,28.212-74.111,28.213-102.32,0.004v-15.741h15.741   c19.528,19.528,51.305,19.529,70.834,0l161.24-161.437c10.854-10.854,10.854-28.507,0.004-39.356v-15.741h15.741   c19.528,19.528,19.529,51.305,0,70.834L185.171,397.663z"/>
	<path style="fill:#00BCD4;" d="M413.408,232.389l-196.759,196.76l-15.741-15.741l196.76-196.76   c28.208-28.208,28.209-74.106,0-102.315V98.592h15.741C450.296,135.48,450.296,195.501,413.408,232.389z"/>
</g>
<g>
	<path style="fill:#80DEEA;" d="M346.411,165.392l-15.741,15.741c-10.85-10.85-28.503-10.85-39.352,0L130.078,342.57l-15.75-15.732   l161.244-161.442C295.107,145.862,326.882,145.863,346.411,165.392z"/>
	<path style="fill:#80DEEA;" d="M413.408,98.592l-15.741,15.741c-28.209-28.209-74.108-28.208-102.315,0L98.592,311.093   c-19.529,19.529-19.528,51.305,0,70.834l-15.741,15.741c-28.209-28.209-28.208-74.108,0-102.315l196.759-196.76   C316.499,61.704,376.52,61.704,413.408,98.592z"/>
</g>
<g>
</g>
<g>
</g>
<g>
</g>
<g>
</g>
<g>
</g>
<g>
</g>
<g>
</g>
<g>
</g>
<g>
</g>
<g>
</g>
<g>
</g>
<g>
</g>
<g>
</g>
<g>
</g>
<g>
</g>
</svg>
