<?xml version="1.0" encoding="iso-8859-1"?>
<!-- Generator: Adobe Illustrator 19.0.0, SVG Export Plug-In . SVG Version: 6.00 Build 0)  -->
<svg xmlns="http://www.w3.org/2000/svg" xmlns:xlink="http://www.w3.org/1999/xlink" version="1.1" id="Layer_1" x="0px" y="0px" viewBox="0 0 512 512" style="enable-background:new 0 0 512 512;" xml:space="preserve">
<path style="fill:#FFEB3B;" d="M409.601,51.182L256,51.183v409.633h153.602C471.781,414.111,512,339.752,512,256  C512,172.247,471.78,97.888,409.601,51.182z"/>
<path style="fill:#FFF59D;" d="M256,51.183H102.397C40.219,97.889,0,172.248,0,256c0,83.753,40.22,158.112,102.399,204.818h153.602  L256,51.183z"/>
<g>
	<path style="fill:#006064;" d="M409.6,460.811V51.189C366.813,19.05,313.632,0,256,0c-1.614,0-3.22,0.031-4.826,0.061L140.8,256   l110.374,255.939c1.606,0.03,3.212,0.061,4.826,0.061C313.632,512,366.813,492.95,409.6,460.811z"/>
	<polygon style="fill:#006064;" points="69.009,289.391 69.009,222.609 35.617,256  "/>
</g>
<polygon style="fill:#263238;" points="442.991,289.391 442.991,222.609 476.383,256 "/>
<path style="fill:#00838F;" d="M102.4,51.189v409.622C145.186,492.95,198.368,512,256,512V0C198.368,0,145.186,19.05,102.4,51.189z"/>
<polygon style="fill:#B2EBF2;" points="278.261,35.617 278.261,160.278 256,160.278 243.757,97.948 256,35.617 "/>
<rect x="233.739" y="35.617" style="fill:#FFFFFF;" width="22.261" height="124.661"/>
<polygon style="fill:#B2EBF2;" points="278.261,351.722 278.261,476.383 256,476.383 243.757,414.052 256,351.722 "/>
<rect x="233.739" y="351.722" style="fill:#FFFFFF;" width="22.261" height="124.661"/>
<polygon style="fill:#B2EBF2;" points="278.261,193.67 278.261,318.33 256,318.33 243.757,256 256,193.67 "/>
<rect x="233.739" y="193.67" style="fill:#FFFFFF;" width="22.261" height="124.661"/>
<g>
</g>
<g>
</g>
<g>
</g>
<g>
</g>
<g>
</g>
<g>
</g>
<g>
</g>
<g>
</g>
<g>
</g>
<g>
</g>
<g>
</g>
<g>
</g>
<g>
</g>
<g>
</g>
<g>
</g>
</svg>
