<?xml version="1.0" encoding="iso-8859-1"?>
<!-- Generator: Adobe Illustrator 19.0.0, SVG Export Plug-In . SVG Version: 6.00 Build 0)  -->
<svg xmlns="http://www.w3.org/2000/svg" xmlns:xlink="http://www.w3.org/1999/xlink" version="1.1" id="Layer_1" x="0px" y="0px" viewBox="0 0 512 512" style="enable-background:new 0 0 512 512;" xml:space="preserve">
<path style="fill:#0097A7;" d="M511.754,266.884C511.905,263.274,512,259.649,512,256C512,114.616,397.385,0,256,0  C114.616,0,0,114.616,0,256c0,117.217,78.782,216.031,186.283,246.388L511.754,266.884z"/>
<path style="fill:#006064;" d="M511.754,266.884l-95.476-95.476L95.722,411.826l90.562,90.562C208.447,508.647,231.832,512,256,512  C393.737,512,506.049,403.219,511.754,266.884z"/>
<polygon style="fill:#E0F7FA;" points="95.722,171.409 95.722,411.826 256,371.757 256,211.478 "/>
<polygon style="fill:#B2EBF2;" points="416.278,171.409 256,211.478 256,371.757 416.278,411.826 "/>
<polygon style="fill:#80DEEA;" points="256,251.548 235.965,331.687 256,411.826 416.278,411.826 "/>
<polygon style="fill:#B2EBF2;" points="95.722,411.826 256,411.826 256,251.548 "/>
<polygon style="fill:#E0F7FA;" points="256,171.409 235.965,113.53 256,33.391 416.278,171.409 "/>
<polygon style="fill:#FFFFFF;" points="95.722,171.409 256,33.391 256,171.409 "/>
<polygon style="fill:#4DD0E1;" points="256,171.409 235.965,249.322 256,327.235 416.278,171.409 "/>
<polygon style="fill:#80DEEA;" points="95.722,171.409 256,327.235 256,171.409 "/>
<g>
</g>
<g>
</g>
<g>
</g>
<g>
</g>
<g>
</g>
<g>
</g>
<g>
</g>
<g>
</g>
<g>
</g>
<g>
</g>
<g>
</g>
<g>
</g>
<g>
</g>
<g>
</g>
<g>
</g>
</svg>
