<?xml version="1.0" encoding="iso-8859-1"?>
<!-- Generator: Adobe Illustrator 19.0.0, SVG Export Plug-In . SVG Version: 6.00 Build 0)  -->
<svg xmlns="http://www.w3.org/2000/svg" xmlns:xlink="http://www.w3.org/1999/xlink" version="1.1" id="Layer_1" x="0px" y="0px" viewBox="0 0 512 512" style="enable-background:new 0 0 512 512;" xml:space="preserve">
<path style="fill:#FFEB3B;" d="M502.388,186.283C472.029,78.782,373.217,0,256,0C114.615,0,0,114.615,0,256  c0,117.217,78.782,216.029,186.283,246.388L502.388,186.283z"/>
<path style="fill:#FBC02D;" d="M512,256c0-24.168-3.354-47.551-9.612-69.717l-73.866-73.866L83.478,399.583l102.805,102.805  C208.449,508.646,231.832,512,256,512C397.385,512,512,397.384,512,256z"/>
<polygon style="fill:#B2EBF2;" points="278.261,112.417 239.484,233.739 278.261,355.061 428.522,355.061 428.522,112.417 "/>
<rect x="128" y="112.417" style="fill:#E0F7FA;" width="150.261" height="242.643"/>
<polygon style="fill:#00ACC1;" points="406.261,134.678 278.261,134.678 240.335,229.022 278.261,323.366 406.261,295.062 "/>
<polygon style="fill:#00BCD4;" points="150.261,134.678 150.261,295.062 278.261,323.366 278.261,134.678 "/>
<polygon style="fill:#006064;" points="342.264,229.022 278.265,285.628 278.261,332.8 406.261,332.8 406.261,285.628 "/>
<polygon style="fill:#E0F7FA;" points="233.739,156.939 194.962,278.261 233.739,399.583 384,399.583 384,156.939 "/>
<rect x="83.478" y="156.939" style="fill:#FFFFFF;" width="150.261" height="242.643"/>
<polygon style="fill:#00BCD4;" points="361.739,179.2 233.739,179.2 195.813,273.544 233.739,367.888 361.739,339.584 "/>
<polygon style="fill:#4DD0E1;" points="105.739,179.2 105.739,339.584 233.739,367.888 233.739,179.2 "/>
<polygon style="fill:#00838F;" points="350.901,320.564 350.901,320.716 324.322,301.729 271.159,301.729 244.577,320.716   244.577,320.568 233.744,330.15 224.257,353.736 233.739,377.322 361.739,377.322 361.739,330.15 "/>
<polygon style="fill:#E0F7FA;" points="297.742,273.544 244.577,320.568 271.157,308.333 297.739,320.568 324.321,308.333   350.901,320.564 "/>
<path style="fill:#FFEB3B;" d="M233.739,201.461l-9.647,28.939l9.647,28.939c15.982,0,28.939-12.957,28.939-28.939  S249.721,201.461,233.739,201.461z"/>
<path style="fill:#FFF59D;" d="M204.8,230.4c0,15.982,12.957,28.939,28.939,28.939v-57.878  C217.757,201.461,204.8,214.418,204.8,230.4z"/>
<polygon style="fill:#0097A7;" points="222.901,320.564 222.901,320.716 196.322,301.729 143.159,301.729 116.577,320.716   116.577,320.568 105.744,330.15 105.739,377.322 233.739,377.322 233.739,330.15 "/>
<polygon style="fill:#FFFFFF;" points="169.742,273.544 116.577,320.568 143.157,308.333 169.739,320.568 196.321,308.333   222.901,320.564 "/>
<g>
</g>
<g>
</g>
<g>
</g>
<g>
</g>
<g>
</g>
<g>
</g>
<g>
</g>
<g>
</g>
<g>
</g>
<g>
</g>
<g>
</g>
<g>
</g>
<g>
</g>
<g>
</g>
<g>
</g>
</svg>
