<?xml version="1.0" encoding="iso-8859-1"?>
<!-- Generator: Adobe Illustrator 19.0.0, SVG Export Plug-In . SVG Version: 6.00 Build 0)  -->
<svg xmlns="http://www.w3.org/2000/svg" xmlns:xlink="http://www.w3.org/1999/xlink" version="1.1" id="Layer_1" x="0px" y="0px" viewBox="0 0 512 512" style="enable-background:new 0 0 512 512;" xml:space="preserve">
<path style="fill:#F06292;" d="M504.745,195.318C477.495,83.227,376.475,0,256,0C114.616,0,0,114.616,0,256  c0,120.475,83.227,221.495,195.318,248.744L504.745,195.318z"/>
<path style="fill:#E91E63;" d="M512,256c0-20.91-2.526-41.227-7.255-60.682L378.435,69.009l-244.87,373.983l61.753,61.753  C214.773,509.474,235.09,512,256,512C397.384,512,512,397.384,512,256z"/>
<polygon style="fill:#FFF59D;" points="378.435,115.757 378.435,376.209 238.995,408.993 238.995,103.008 "/>
<polygon style="fill:#FFFFFF;" points="256,103.008 256,408.993 133.565,376.209 133.565,113.53 "/>
<polygon style="fill:#263238;" points="378.435,69.009 378.435,113.53 256,113.53 221.991,91.27 256,69.009 "/>
<rect x="133.565" y="69.009" style="fill:#006064;" width="122.435" height="44.522"/>
<polygon style="fill:#263238;" points="378.435,376.209 378.435,442.991 256,442.991 221.991,409.6 256,376.209 "/>
<rect x="133.565" y="376.209" style="fill:#006064;" width="122.435" height="66.783"/>
<rect x="244.87" y="398.47" style="fill:#00838F;" width="22.261" height="22.261"/>
<g>
</g>
<g>
</g>
<g>
</g>
<g>
</g>
<g>
</g>
<g>
</g>
<g>
</g>
<g>
</g>
<g>
</g>
<g>
</g>
<g>
</g>
<g>
</g>
<g>
</g>
<g>
</g>
<g>
</g>
</svg>
