<?xml version="1.0" encoding="iso-8859-1"?>
<!-- Generator: Adobe Illustrator 19.0.0, SVG Export Plug-In . SVG Version: 6.00 Build 0)  -->
<svg xmlns="http://www.w3.org/2000/svg" xmlns:xlink="http://www.w3.org/1999/xlink" version="1.1" id="Layer_1" x="0px" y="0px" viewBox="0 0 512 512" style="enable-background:new 0 0 512 512;" xml:space="preserve">
<path style="fill:#FFF176;" d="M511.672,242.96C504.882,107.635,393.011,0,256,0C114.615,0,0,114.616,0,256  c0,117.866,79.662,217.11,188.077,246.873L511.672,242.96z"/>
<path style="fill:#FDD835;" d="M512,256c0-4.373-0.111-8.721-0.328-13.04L334.704,65.991l-157.409,190.8L256,335.495L98.601,413.399  l89.474,89.474c21.633,5.939,44.405,9.127,67.923,9.127C397.384,512,512,397.385,512,256z"/>
<path style="fill:#0097A7;" d="M367.304,178.087v-33.391c0-61.471-49.833-111.304-111.304-111.304l-44.522,128l44.522,128  C317.471,289.391,367.304,239.558,367.304,178.087z"/>
<path style="fill:#00BCD4;" d="M256,289.391v-256c-61.471,0-111.304,49.833-111.304,111.304v33.391  C144.696,239.558,194.529,289.391,256,289.391z"/>
<path style="fill:#263238;" d="M345.047,322.784c36.486,0,78.47,27.08,93.718,60.316c-23.396,33.581-55.808,60.405-93.718,76.967  l-33.391-68.641L345.047,322.784z"/>
<path style="fill:#ECEFF1;" d="M290.29,322.784l-78.808,76.7l77.49,76.7c19.645-2.918,38.456-8.407,56.075-16.117V322.784H290.29z"/>
<path style="fill:#37474F;" d="M166.953,322.784c-36.486,0-78.47,27.08-93.718,60.316c23.396,33.581,55.808,60.405,93.718,76.967  l33.391-68.641L166.953,322.784z"/>
<path style="fill:#FFFFFF;" d="M221.71,322.784h-54.757v137.283c17.623,7.711,36.434,13.2,56.082,16.118l32.962-120.009  L221.71,322.784z"/>
<path style="fill:#546E7A;" d="M256.003,322.783l-8.908,111.304l7.122,44.501c0.595,0.004,1.189,0.022,1.785,0.022  c11.203,0,22.209-0.837,32.966-2.434l-16.274-120.002l17.594-33.391H256.003z"/>
<path style="fill:#78909C;" d="M239.304,356.174l-16.268,120.002c10.758,1.597,21.763,2.434,32.965,2.434V322.783h-34.292  L239.304,356.174z"/>
<g>
</g>
<g>
</g>
<g>
</g>
<g>
</g>
<g>
</g>
<g>
</g>
<g>
</g>
<g>
</g>
<g>
</g>
<g>
</g>
<g>
</g>
<g>
</g>
<g>
</g>
<g>
</g>
<g>
</g>
</svg>
