<?xml version="1.0" encoding="iso-8859-1"?>
<!-- Generator: Adobe Illustrator 19.0.0, SVG Export Plug-In . SVG Version: 6.00 Build 0)  -->
<svg xmlns="http://www.w3.org/2000/svg" xmlns:xlink="http://www.w3.org/1999/xlink" version="1.1" id="Layer_1" x="0px" y="0px" viewBox="0 0 512.001 512.001" style="enable-background:new 0 0 512.001 512.001;" xml:space="preserve">
<path style="fill:#37474F;" d="M511.619,269.941c0.248-4.616,0.382-9.263,0.382-13.941c0-141.384-114.615-256-256-256  s-256,114.616-256,256c0,140.304,112.874,254.225,252.765,255.959L511.619,269.941z"/>
<path style="fill:#263238;" d="M511.619,269.941l-168.801-168.8l-256,244.87L252.766,511.96c1.079,0.013,2.153,0.041,3.235,0.041  C392.707,512,504.377,404.843,511.619,269.941z"/>
<polygon style="fill:#546E7A;" points="214.818,156.793 170.296,223.576 214.818,290.359 331.688,290.359 331.688,156.793 "/>
<polygon style="fill:#90A4AE;" points="97.948,156.793 97.948,290.359 225.948,290.359 214.818,236.968 214.818,156.793 "/>
<g>
	<polygon style="fill:#B0BEC5;" points="214.818,190.185 192.557,223.576 214.818,256.967 342.818,256.967 342.818,190.185  "/>
	<polygon style="fill:#B0BEC5;" points="214.818,101.141 192.557,134.532 214.818,167.924 342.818,167.924 342.818,101.141  "/>
</g>
<g>
	<rect x="86.818" y="101.142" style="fill:#CFD8DC;" width="128" height="66.783"/>
	<polygon style="fill:#CFD8DC;" points="86.818,190.185 86.818,256.967 225.948,256.967 214.818,236.968 214.818,190.185  "/>
	<rect x="86.818" y="279.229" style="fill:#CFD8DC;" width="139.13" height="66.783"/>
</g>
<polygon style="fill:#FFFFFF;" points="214.818,388.27 214.818,236.968 425.183,214.379 425.183,410.859 "/>
<polygon style="fill:#80DEEA;" points="308.87,249.257 237.079,256.967 237.079,301.489 308.87,301.489 "/>
<g>
	<polygon style="fill:#00BCD4;" points="331.131,301.489 402.922,301.489 402.922,239.159 331.131,246.867  "/>
	<polygon style="fill:#00BCD4;" points="331.131,323.75 331.131,378.37 402.922,386.08 402.922,323.75  "/>
</g>
<polygon style="fill:#80DEEA;" points="308.87,323.75 237.079,323.75 237.079,368.272 308.87,375.981 "/>
<g>
</g>
<g>
</g>
<g>
</g>
<g>
</g>
<g>
</g>
<g>
</g>
<g>
</g>
<g>
</g>
<g>
</g>
<g>
</g>
<g>
</g>
<g>
</g>
<g>
</g>
<g>
</g>
<g>
</g>
</svg>
