<?xml version="1.0" encoding="iso-8859-1"?>
<!-- Generator: Adobe Illustrator 19.0.0, SVG Export Plug-In . SVG Version: 6.00 Build 0)  -->
<svg xmlns="http://www.w3.org/2000/svg" xmlns:xlink="http://www.w3.org/1999/xlink" version="1.1" id="Layer_1" x="0px" y="0px" viewBox="0 0 512 512" style="enable-background:new 0 0 512 512;" xml:space="preserve">
<path style="fill:#78909C;" d="M509.024,216.85C490.178,94.049,384.073,0,256,0C114.616,0,0,114.616,0,256  c0,128.072,94.049,234.178,216.85,253.023L509.024,216.85z"/>
<path style="fill:#455A64;" d="M512,256c0-13.312-1.018-26.386-2.977-39.15L370.087,77.913L119.652,411.826l97.198,97.198  C229.614,510.983,242.688,512,256,512C397.384,512,512,397.384,512,256z"/>
<polygon style="fill:#FBC02D;" points="267.13,100.174 225.391,267.13 267.13,434.087 392.348,434.087 392.348,100.174 "/>
<rect x="141.913" y="100.174" style="fill:#FFF59D;" width="125.217" height="333.913"/>
<polygon style="fill:#E0F7FA;" points="244.87,77.913 203.13,244.87 244.87,411.826 307.478,411.826 328.348,370.087   370.087,349.217 370.087,77.913 "/>
<rect x="119.652" y="77.913" style="fill:#FFFFFF;" width="125.217" height="333.913"/>
<polygon style="fill:#80DEEA;" points="307.478,411.826 307.478,349.217 370.087,349.217 "/>
<g>
</g>
<g>
</g>
<g>
</g>
<g>
</g>
<g>
</g>
<g>
</g>
<g>
</g>
<g>
</g>
<g>
</g>
<g>
</g>
<g>
</g>
<g>
</g>
<g>
</g>
<g>
</g>
<g>
</g>
</svg>
