<?xml version="1.0" encoding="iso-8859-1"?>
<!-- Generator: Adobe Illustrator 19.0.0, SVG Export Plug-In . SVG Version: 6.00 Build 0)  -->
<svg xmlns="http://www.w3.org/2000/svg" xmlns:xlink="http://www.w3.org/1999/xlink" version="1.1" id="Layer_1" x="0px" y="0px" viewBox="0 0 512 512" style="enable-background:new 0 0 512 512;" xml:space="preserve">
<path style="fill:#546E7A;" d="M509.785,222.264C493.27,96.825,385.948,0,256,0C114.616,0,0,114.616,0,256s114.616,256,256,256  c10.654,0,21.152-0.662,31.465-1.927L509.785,222.264z"/>
<path style="fill:#37474F;" d="M512,256c0-11.438-0.761-22.696-2.215-33.736L339.478,51.957L256,478.609l31.465,31.465  C414.004,494.563,512,386.731,512,256z"/>
<polygon style="fill:#FBC02D;" points="172.522,51.957 256,51.957 289.183,371.977 172.522,316.741 "/>
<polygon style="fill:#F9A825;" points="256,51.957 339.478,51.957 339.478,316.741 256,371.977 "/>
<polygon style="fill:#FFEB3B;" points="126.33,307.2 256,307.2 278.261,392.904 256,478.609 "/>
<polygon style="fill:#FBC02D;" points="256,307.2 385.67,307.2 256,478.609 "/>
<g>
</g>
<g>
</g>
<g>
</g>
<g>
</g>
<g>
</g>
<g>
</g>
<g>
</g>
<g>
</g>
<g>
</g>
<g>
</g>
<g>
</g>
<g>
</g>
<g>
</g>
<g>
</g>
<g>
</g>
</svg>
