<?xml version="1.0" encoding="iso-8859-1"?>
<!-- Generator: Adobe Illustrator 19.0.0, SVG Export Plug-In . SVG Version: 6.00 Build 0)  -->
<svg xmlns="http://www.w3.org/2000/svg" xmlns:xlink="http://www.w3.org/1999/xlink" version="1.1" id="Layer_1" x="0px" y="0px" viewBox="0 0 512 512" style="enable-background:new 0 0 512 512;" xml:space="preserve">
<path style="fill:#FFF9C4;" d="M509.716,221.772C492.985,96.572,385.777,0,256,0C114.616,0,0,114.616,0,256  c0,120.105,82.717,220.876,194.287,248.494L509.716,221.772z"/>
<g>
	<path style="fill:#FFF176;" d="M512,256c0-11.608-0.788-23.03-2.284-34.228L405.537,117.593L106.463,416.669l87.825,87.825   C214.054,509.387,234.721,512,256,512C397.385,512,512,397.385,512,256z"/>
	<path style="fill:#FFF176;" d="M456.348,267.13c0-79.75-46.605-148.6-114.059-180.841l-52.897-52.898l-22.565,22.565   c-3.588-0.183-7.193-0.304-10.827-0.304c-19.263,0-37.918,2.59-55.652,7.416l-10.262,14.825   C111.821,105.151,55.652,179.576,55.652,267.13c0,110.649,89.699,200.348,200.348,200.348S456.348,377.779,456.348,267.13z"/>
</g>
<path style="fill:#263238;" d="M311.652,63.068v70.465c52.287,21.807,89.043,73.407,89.043,133.599  c0,79.913-64.782,144.696-144.696,144.696l-22.261,33.391L256,478.61c116.796,0,211.478-94.682,211.478-211.478  C467.478,169.598,401.446,87.5,311.652,63.068z"/>
<path style="fill:#455A64;" d="M111.304,267.13c0-60.191,36.756-111.792,89.043-133.599V63.068  C110.554,87.5,44.522,169.598,44.522,267.13c0,116.796,94.682,211.478,211.478,211.478v-66.783  C176.087,411.826,111.304,347.044,111.304,267.13z"/>
<polygon style="fill:#37474F;" points="256,33.391 233.739,144.696 256,267.13 289.391,267.13 289.391,33.391 "/>
<rect x="222.609" y="33.391" style="fill:#546E7A;" width="33.391" height="233.739"/>
<g>
</g>
<g>
</g>
<g>
</g>
<g>
</g>
<g>
</g>
<g>
</g>
<g>
</g>
<g>
</g>
<g>
</g>
<g>
</g>
<g>
</g>
<g>
</g>
<g>
</g>
<g>
</g>
<g>
</g>
</svg>
