<?xml version="1.0" encoding="iso-8859-1"?>
<!-- Generator: Adobe Illustrator 19.0.0, SVG Export Plug-In . SVG Version: 6.00 Build 0)  -->
<svg xmlns="http://www.w3.org/2000/svg" xmlns:xlink="http://www.w3.org/1999/xlink" version="1.1" id="Layer_1" x="0px" y="0px" viewBox="0 0 512 512" style="enable-background:new 0 0 512 512;" xml:space="preserve">
<path style="fill:#B0BEC5;" d="M503.102,188.926C473.627,80.078,374.173,0,256,0C114.615,0,0,114.615,0,256  c0,117.856,79.648,217.094,188.05,246.865L503.102,188.926z"/>
<path style="fill:#78909C;" d="M512,256c0-23.211-3.108-45.694-8.898-67.074l-90.014-90.014L98.592,413.408l89.458,89.458  C209.691,508.809,232.471,512,256,512C397.384,512,512,397.384,512,256z"/>
<path style="fill:#E0F7FA;" d="M256,33.391L181.797,256L256,478.609c122.748,0,222.609-99.862,222.609-222.609  S378.748,33.391,256,33.391z"/>
<path style="fill:#FFFFFF;" d="M33.391,256c0,122.746,99.861,222.609,222.609,222.609V33.391  C133.252,33.391,33.391,133.254,33.391,256z"/>
<path style="fill:#E64A19;" d="M256,55.652l-22.919,35.366L256,122.435c24.736,0,47.919,6.767,67.807,18.536L256,208.778  l-22.261,61.217L256,303.223l115.029-115.03c11.769,19.888,18.537,43.07,18.537,67.807c0,73.648-59.917,133.565-133.565,133.565  l-22.919,31.417L256,456.348c110.473,0,200.348-89.876,200.348-200.348S366.473,55.652,256,55.652z"/>
<path style="fill:#FF5722;" d="M256,122.435V55.652C145.527,55.652,55.652,145.528,55.652,256S145.527,456.348,256,456.348v-66.783  c-24.736,0-47.919-6.767-67.807-18.536L256,303.223v-94.445L140.97,323.807c-11.768-19.888-18.536-43.07-18.536-67.807  C122.435,182.352,182.351,122.435,256,122.435z"/>
<g>
</g>
<g>
</g>
<g>
</g>
<g>
</g>
<g>
</g>
<g>
</g>
<g>
</g>
<g>
</g>
<g>
</g>
<g>
</g>
<g>
</g>
<g>
</g>
<g>
</g>
<g>
</g>
<g>
</g>
</svg>
