<?xml version="1.0" encoding="iso-8859-1"?>
<!-- Generator: Adobe Illustrator 19.0.0, SVG Export Plug-In . SVG Version: 6.00 Build 0)  -->
<svg xmlns="http://www.w3.org/2000/svg" xmlns:xlink="http://www.w3.org/1999/xlink" version="1.1" id="Layer_1" x="0px" y="0px" viewBox="0 0 512 512" style="enable-background:new 0 0 512 512;" xml:space="preserve">
<path style="fill:#CFD8DC;" d="M502.865,188.05C473.095,79.648,373.856,0,256,0C114.616,0,0,114.616,0,256  c0,119.413,81.761,219.726,192.354,248.022L502.865,188.05z"/>
<path style="fill:#B0BEC5;" d="M512,256c0-23.529-3.191-46.309-9.135-67.951l-89.458-89.458L170.984,340.984l-43.287,98.38  l64.657,64.657C212.703,509.229,234.027,512,256,512C397.385,512,512,397.385,512,256z"/>
<polygon style="fill:#607D8B;" points="304.402,226.489 172.573,358.319 155.242,325.247 287.072,193.418 "/>
<polygon style="fill:#455A64;" points="318.553,224.899 178.853,364.599 170.998,341.003 294.958,217.045 "/>
<path style="fill:#FF5722;" d="M241.833,238.685L413.408,98.592c19.558,19.558,19.558,51.26,0,70.817L292.975,289.828  L241.833,238.685z"/>
<path style="fill:#FF7043;" d="M413.408,98.592L257.574,254.426l-35.409-35.409L342.59,98.592  C362.149,79.034,393.85,79.034,413.408,98.592z"/>
<path style="fill:#D84315;" d="M397.668,114.333L249.704,246.556l27.531,27.531l120.431-120.418  C408.513,142.824,408.513,125.178,397.668,114.333z"/>
<path style="fill:#FF5722;" d="M358.331,114.333L237.906,234.758l19.669,19.669l140.093-140.093  C386.823,103.489,369.176,103.487,358.331,114.333z"/>
<polygon style="fill:#BF360C;" points="248.13,263.87 291.405,307.145 307.145,291.405 263.87,248.13 248.13,248.13 "/>
<rect x="203.732" y="223.221" transform="matrix(0.7071 0.7071 -0.7071 0.7071 234.3515 -97.0714)" style="fill:#D84315;" width="61.239" height="22.261"/>
<polygon style="fill:#78909C;" points="170.984,340.984 150.819,368.047 127.695,329.183 155.242,325.247 "/>
<polygon style="fill:#546E7A;" points="186.723,356.728 182.788,384.275 147.387,364.615 170.998,341.003 "/>
<polygon style="fill:#455A64;" points="182.788,384.275 127.695,439.368 100.165,411.837 111.97,368.55 155.257,356.744 "/>
<rect x="74.973" y="351.021" transform="matrix(-0.7071 0.7071 -0.7071 -0.7071 456.4798 551.9412)" style="fill:#607D8B;" width="77.912" height="38.978"/>
<g>
</g>
<g>
</g>
<g>
</g>
<g>
</g>
<g>
</g>
<g>
</g>
<g>
</g>
<g>
</g>
<g>
</g>
<g>
</g>
<g>
</g>
<g>
</g>
<g>
</g>
<g>
</g>
<g>
</g>
</svg>
