<?xml version="1.0" encoding="iso-8859-1"?>
<!-- Generator: Adobe Illustrator 19.0.0, SVG Export Plug-In . SVG Version: 6.00 Build 0)  -->
<svg xmlns="http://www.w3.org/2000/svg" xmlns:xlink="http://www.w3.org/1999/xlink" version="1.1" id="Layer_1" x="0px" y="0px" viewBox="0 0 512 512" style="enable-background:new 0 0 512 512;" xml:space="preserve">
<path style="fill:#4DD0E1;" d="M503.436,190.189c-11.183-42.204-33.313-82.111-66.409-115.206  c-99.975-99.976-262.07-99.976-362.045,0s-99.976,262.07,0,362.045c33.096,33.096,73.002,55.226,115.206,66.409L503.436,190.189z"/>
<path style="fill:#00ACC1;" d="M437.027,437.027c66.879-66.879,89.008-161.554,66.409-246.838l-67.196-67.196L256.005,256.005  L122.993,436.24l67.196,67.196C275.472,526.037,370.147,503.908,437.027,437.027z"/>
<polygon style="fill:#263238;" points="345.729,142.67 142.669,345.729 193.828,365.406 365.406,193.828 "/>
<polygon style="fill:#455A64;" points="365.406,146.605 318.182,146.605 146.604,318.182 154.475,357.536 "/>
<polygon style="fill:#80DEEA;" points="341.794,170.216 365.406,193.828 436.24,122.993 412.628,99.382 361.47,119.057 "/>
<rect x="348.711" y="72.905" transform="matrix(-0.7071 -0.7071 0.7071 -0.7071 536.8199 468.3431)" style="fill:#FFFFFF;" width="33.392" height="100.175"/>
<polygon style="fill:#80DEEA;" points="99.381,412.629 122.993,436.24 193.828,365.406 170.216,341.795 119.057,361.47 "/>
<rect x="72.905" y="348.712" transform="matrix(-0.7071 0.7071 -0.7071 -0.7071 468.3427 536.821)" style="fill:#FFFFFF;" width="100.175" height="33.392"/>
<g>
</g>
<g>
</g>
<g>
</g>
<g>
</g>
<g>
</g>
<g>
</g>
<g>
</g>
<g>
</g>
<g>
</g>
<g>
</g>
<g>
</g>
<g>
</g>
<g>
</g>
<g>
</g>
<g>
</g>
</svg>
