<?xml version="1.0" encoding="iso-8859-1"?>
<!-- Generator: Adobe Illustrator 19.0.0, SVG Export Plug-In . SVG Version: 6.00 Build 0)  -->
<svg xmlns="http://www.w3.org/2000/svg" xmlns:xlink="http://www.w3.org/1999/xlink" version="1.1" id="Layer_1" x="0px" y="0px" viewBox="0 0 512 512" style="enable-background:new 0 0 512 512;" xml:space="preserve">
<path style="fill:#80DEEA;" d="M502.388,186.283C472.029,78.782,373.217,0,256,0C114.616,0,0,114.616,0,256  c0,117.217,78.782,216.029,186.283,246.388L502.388,186.283z"/>
<path style="fill:#00BCD4;" d="M512,256c0-24.168-3.354-47.551-9.612-69.717l-88.336-88.336l-42.296,36.73l-36.73-36.73  l-165.843,36.73l-36.73-36.73L97.948,414.052l88.336,88.336C208.449,508.646,231.832,512,256,512C397.384,512,512,397.384,512,256z"/>
<path style="fill:#263238;" d="M379.548,97.948v22.261h-44.522V97.948H256L199.336,256L256,414.052h79.026v-22.261h44.522v22.261  h34.504V97.948H379.548z M379.548,357.287h-44.522v-44.522h44.522V357.287z M379.548,278.261h-44.522v-44.522h44.522V278.261z   M379.548,199.235h-44.522v-44.522h44.522V199.235z"/>
<path style="fill:#006064;" d="M176.974,97.948v22.261h-44.522V97.948H97.948v316.104h34.504v-22.261h44.522v22.261H256V97.948  H176.974z M176.974,357.287h-44.522v-44.522h44.522V357.287z M176.974,278.261h-44.522v-44.522h44.522V278.261z M176.974,199.235  h-44.522v-44.522h44.522V199.235z"/>
<polygon style="fill:#00838F;" points="312.765,120.209 312.765,244.87 256,244.87 235.649,182.539 256,120.209 "/>
<rect x="199.235" y="120.209" style="fill:#90A4AE;" width="56.765" height="124.661"/>
<polygon style="fill:#00838F;" points="312.765,267.13 312.765,391.791 256,391.791 235.649,329.461 256,267.13 "/>
<rect x="199.235" y="267.13" style="fill:#90A4AE;" width="56.765" height="124.661"/>
<g>
</g>
<g>
</g>
<g>
</g>
<g>
</g>
<g>
</g>
<g>
</g>
<g>
</g>
<g>
</g>
<g>
</g>
<g>
</g>
<g>
</g>
<g>
</g>
<g>
</g>
<g>
</g>
<g>
</g>
</svg>
