<?xml version="1.0" encoding="iso-8859-1"?>
<!-- Generator: Adobe Illustrator 19.0.0, SVG Export Plug-In . SVG Version: 6.00 Build 0)  -->
<svg xmlns="http://www.w3.org/2000/svg" xmlns:xlink="http://www.w3.org/1999/xlink" version="1.1" id="Layer_1" x="0px" y="0px" viewBox="0 0 512 512" style="enable-background:new 0 0 512 512;" xml:space="preserve">
<path style="fill:#B0BEC5;" d="M502.387,186.281C472.028,78.781,373.216,0,256,0C114.615,0,0,114.616,0,256  c0,117.217,78.781,216.028,186.281,246.387L502.387,186.281z"/>
<path style="fill:#78909C;" d="M512,256c0-24.169-3.354-47.554-9.613-69.719l-88.333-88.333L97.948,414.053l88.333,88.333  C208.446,508.646,231.831,512,256,512C397.385,512,512,397.384,512,256z"/>
<polygon style="fill:#E0F7FA;" points="414.052,97.948 414.052,414.052 256,414.052 183.841,256 256,97.948 "/>
<rect x="97.948" y="97.948" style="fill:#FFFFFF;" width="158.052" height="316.104"/>
<polygon style="fill:#0097A7;" points="391.791,120.209 391.791,391.791 256,391.791 194.005,256 256,120.209 "/>
<rect x="120.209" y="120.209" style="fill:#00BCD4;" width="135.791" height="271.583"/>
<polygon style="fill:#E0F7FA;" points="358.4,153.6 256,153.6 236.256,181.426 256,358.4 283.826,358.4 283.826,209.252   358.4,209.252 "/>
<polygon style="fill:#FFFFFF;" points="153.6,153.6 153.6,209.252 228.174,209.252 228.174,358.4 256,358.4 256,153.6 "/>
<g>
</g>
<g>
</g>
<g>
</g>
<g>
</g>
<g>
</g>
<g>
</g>
<g>
</g>
<g>
</g>
<g>
</g>
<g>
</g>
<g>
</g>
<g>
</g>
<g>
</g>
<g>
</g>
<g>
</g>
</svg>
