<?xml version="1.0" encoding="iso-8859-1"?>
<!-- Generator: Adobe Illustrator 19.0.0, SVG Export Plug-In . SVG Version: 6.00 Build 0)  -->
<svg xmlns="http://www.w3.org/2000/svg" xmlns:xlink="http://www.w3.org/1999/xlink" version="1.1" id="Layer_1" x="0px" y="0px" viewBox="0 0 512 512" style="enable-background:new 0 0 512 512;" xml:space="preserve">
<path style="fill:#C2185B;" d="M509.891,223.024C493.712,97.215,386.21,0,256,0C114.615,0,0,114.615,0,256  c0,29.348,4.939,57.542,14.031,83.797L509.891,223.024z"/>
<path style="fill:#880E4F;" d="M512,256c0-11.174-0.72-22.18-2.108-32.976l-81.732-81.732L124.436,374.22L84.28,445.857  C129.696,486.961,189.923,512,256,512C397.384,512,512,397.384,512,256z"/>
<path style="fill:#FF8A65;" d="M333.714,172.773c-10.758-10.758-28.208-10.758-38.965,0L182.202,285.32l27.561,50.37  l123.952-123.952C344.472,200.98,344.471,183.53,333.714,172.773z"/>
<path style="fill:#FF7043;" d="M396.678,141.291c-10.758-10.758-28.208-10.758-38.965,0L245.166,253.838l27.561,50.37  l123.951-123.952C407.435,169.499,407.435,152.048,396.678,141.291z"/>
<path style="fill:#FF8A65;" d="M428.159,141.291c-10.758-10.758-28.208-10.758-38.965,0L276.647,253.838l27.561,50.37  L428.16,180.256C438.918,169.499,438.916,152.048,428.159,141.291z"/>
<path style="fill:#FFAB91;" d="M459.641,172.773c-10.758-10.758-28.208-10.758-38.965,0L317.434,276.015l-134.693-13.842  L47.448,306.394l-33.401,33.401c14.237,41.115,38.647,77.476,70.234,106.063l55.898-55.898l182.792-46.999  c4.661-1.205,9.072-3.623,12.72-7.271l123.952-123.952C470.399,200.98,470.399,183.531,459.641,172.773z"/>
<path style="fill:#FFCCBC;" d="M325.142,256.595c0-15.364-12.462-27.826-27.826-27.826l-139.13,0.114l0.075,0.252  c-18.918-1.594-38.386,4.833-52.862,19.309l-64.534,64.534c31.297,31.297,82.038,31.297,113.333,0l28.544-28.544  c51.968-0.004,114.574-0.012,114.574-0.012C312.681,284.422,325.142,271.96,325.142,256.595z"/>
<path style="fill:#FFAB91;" d="M297.316,239.9h-22.261l5.565,16.696l-5.565,16.696h22.271c9.197,0,16.686-7.49,16.686-16.696  C314.012,247.389,306.522,239.9,297.316,239.9z"/>
<path style="fill:#FFFFFF;" d="M275.055,239.9l0.01,33.391c9.197,0,16.686-7.49,16.686-16.696  C291.751,247.389,284.261,239.9,275.055,239.9z"/>
<g>
</g>
<g>
</g>
<g>
</g>
<g>
</g>
<g>
</g>
<g>
</g>
<g>
</g>
<g>
</g>
<g>
</g>
<g>
</g>
<g>
</g>
<g>
</g>
<g>
</g>
<g>
</g>
<g>
</g>
</svg>
