<?xml version="1.0" encoding="iso-8859-1"?>
<!-- Generator: Adobe Illustrator 19.0.0, SVG Export Plug-In . SVG Version: 6.00 Build 0)  -->
<svg xmlns="http://www.w3.org/2000/svg" xmlns:xlink="http://www.w3.org/1999/xlink" version="1.1" id="Layer_1" x="0px" y="0px" viewBox="0 0 512 512" style="enable-background:new 0 0 512 512;" xml:space="preserve">
<path style="fill:#E64A19;" d="M256,0C114.616,0,0,114.615,0,256s114.616,256,256,256c10.654,0,21.152-0.662,31.465-1.927  l210.615-337.557C463.464,72.122,368.154,0,256,0z"/>
<path style="fill:#BF360C;" d="M277.825,199.355L204.8,126.33l-68.096,92.987L33.391,256l254.073,254.073  c89.77-11.004,165.167-68.471,201.407-147.62l9.193-22.975L277.825,199.355z"/>
<path style="fill:#FF7043;" d="M512,256l-144.696,11.13l22.261-94.609h108.5C507.091,198.689,512,226.771,512,256z"/>
<path style="fill:#FF5722;" d="M345.043,256H512c0,29.229-4.909,57.311-13.935,83.478h-108.5L345.043,256z"/>
<polygon style="fill:#FF7043;" points="400.696,172.522 400.696,289.391 177.864,289.191 199.713,172.522 "/>
<polygon style="fill:#FF5722;" points="400.696,256 400.696,339.478 199.713,339.478 144.473,256 "/>
<polygon style="fill:#FFF59D;" points="204.8,126.33 204.8,256 119.096,278.261 33.391,256 "/>
<polygon style="fill:#FFEB3B;" points="204.8,256 33.391,256 204.8,385.67 "/>
<polygon style="fill:#FBC02D;" points="414.052,146.087 414.052,190.052 308.881,206.834 326.122,146.087 "/>
<polygon style="fill:#FFEB3B;" points="326.122,146.087 326.122,206.834 238.191,190.052 238.191,146.087 "/>
<polygon style="fill:#F9A825;" points="414.052,190.052 414.052,234.017 308.881,250.799 326.122,190.052 "/>
<g>
	<polygon style="fill:#FBC02D;" points="326.122,190.052 326.122,250.799 238.191,234.017 238.191,190.052  "/>
	<polygon style="fill:#FBC02D;" points="414.052,234.017 414.052,277.983 308.881,294.764 326.122,234.017  "/>
</g>
<polygon style="fill:#FFEB3B;" points="326.122,234.017 326.122,294.764 238.191,277.983 238.191,234.017 "/>
<polygon style="fill:#F9A825;" points="414.052,277.983 414.052,321.948 308.881,338.729 326.122,277.983 "/>
<g>
	<polygon style="fill:#FBC02D;" points="326.122,277.983 326.122,338.729 238.191,321.948 238.191,277.983  "/>
	<polygon style="fill:#FBC02D;" points="414.052,321.948 414.052,365.913 308.881,382.694 326.122,321.948  "/>
</g>
<polygon style="fill:#FFEB3B;" points="326.122,321.948 326.122,382.694 238.191,365.913 238.191,321.948 "/>
<polygon style="fill:#F9A825;" points="414.052,365.913 414.052,409.878 326.122,409.878 303.861,387.896 326.122,365.913 "/>
<rect x="238.191" y="365.913" style="fill:#FBC02D;" width="87.93" height="43.965"/>
<path style="fill:#F57F17;" d="M326.122,58.157l-27.056,87.93l27.056,87.93c48.562,0,87.93-39.368,87.93-87.93  S374.684,58.157,326.122,58.157z"/>
<path style="fill:#F9A825;" d="M238.191,146.087c0,48.562,39.368,87.93,87.93,87.93V58.157  C277.559,58.157,238.191,97.525,238.191,146.087z"/>
<path style="fill:#FFEB3B;" d="M326.122,80.417l-20.206,65.67l20.206,65.67c36.268,0,65.67-29.401,65.67-65.67  S362.39,80.417,326.122,80.417z"/>
<path style="fill:#FFF9C4;" d="M260.452,146.087c0,36.269,29.401,65.67,65.67,65.67V80.417  C289.853,80.417,260.452,109.818,260.452,146.087z"/>
<g>
</g>
<g>
</g>
<g>
</g>
<g>
</g>
<g>
</g>
<g>
</g>
<g>
</g>
<g>
</g>
<g>
</g>
<g>
</g>
<g>
</g>
<g>
</g>
<g>
</g>
<g>
</g>
<g>
</g>
</svg>
