<?xml version="1.0" encoding="iso-8859-1"?>
<!-- Generator: Adobe Illustrator 19.0.0, SVG Export Plug-In . SVG Version: 6.00 Build 0)  -->
<svg xmlns="http://www.w3.org/2000/svg" xmlns:xlink="http://www.w3.org/1999/xlink" version="1.1" id="Layer_1" x="0px" y="0px" viewBox="0 0 512 512" style="enable-background:new 0 0 512 512;" xml:space="preserve">
<path style="fill:#C2185B;" d="M502.388,186.283C472.029,78.782,373.217,0,256,0C114.616,0,0,114.616,0,256  c0,117.217,78.782,216.029,186.283,246.388L502.388,186.283z"/>
<path style="fill:#880E4F;" d="M512,256c0-24.168-3.354-47.551-9.612-69.717l-96.127-96.127L105.739,421.843l80.544,80.544  C208.447,508.647,231.832,512,256,512C397.384,512,512,397.384,512,256z"/>
<rect x="339.478" y="355.061" style="fill:#00BCD4;" width="66.783" height="66.783"/>
<polygon style="fill:#B2EBF2;" points="211.478,101.287 256,421.843 339.478,421.843 361.739,377.322 406.261,355.061   406.261,145.809 "/>
<g>
	<polygon style="fill:#E0F7FA;" points="105.739,145.809 105.739,421.843 256,421.843 256,101.287  "/>
	<polygon style="fill:#E0F7FA;" points="256,168.07 211.478,283.826 256,399.583 350.609,399.583 384,366.191 384,168.07  "/>
</g>
<rect x="128" y="168.07" style="fill:#FFFFFF;" width="128" height="231.513"/>
<polygon style="fill:#80DEEA;" points="339.478,421.843 406.261,355.061 339.478,355.061 "/>
<polygon style="fill:#FF7043;" points="406.261,90.157 256,90.157 233.739,117.983 256,145.809 406.261,145.809 "/>
<rect x="105.739" y="90.157" style="fill:#FF8A65;" width="150.261" height="55.652"/>
<polygon style="fill:#263238;" points="272.696,203.687 256,203.687 244.87,283.826 256,363.965 272.696,363.965 "/>
<polygon style="fill:#455A64;" points="239.304,203.687 217.043,225.948 217.043,248.209 239.304,248.209 239.304,363.965   256,363.965 256,203.687 "/>
<g>
</g>
<g>
</g>
<g>
</g>
<g>
</g>
<g>
</g>
<g>
</g>
<g>
</g>
<g>
</g>
<g>
</g>
<g>
</g>
<g>
</g>
<g>
</g>
<g>
</g>
<g>
</g>
<g>
</g>
</svg>
