<?xml version="1.0" encoding="iso-8859-1"?>
<!-- Generator: Adobe Illustrator 19.0.0, SVG Export Plug-In . SVG Version: 6.00 Build 0)  -->
<svg xmlns="http://www.w3.org/2000/svg" xmlns:xlink="http://www.w3.org/1999/xlink" version="1.1" id="Layer_1" x="0px" y="0px" viewBox="0 0 512 512" style="enable-background:new 0 0 512 512;" xml:space="preserve">
<path style="fill:#F06292;" d="M504.026,192.374C475.737,81.771,375.42,0,256,0C114.616,0,0,114.616,0,256  c0,119.42,81.771,219.737,192.374,248.026L504.026,192.374z"/>
<path style="fill:#E91E63;" d="M512,256c0-21.965-2.77-43.283-7.974-63.626L389.565,77.913l-267.13,356.174l69.939,69.939  C212.717,509.23,234.035,512,256,512C397.384,512,512,397.384,512,256z"/>
<polygon style="fill:#E0F7FA;" points="256,77.913 211.478,256 256,434.087 322.783,434.087 345.043,389.565 389.565,367.304   389.565,77.913 "/>
<path style="fill:#E91E63;" d="M189.217,44.522c-18.442,0-33.391,14.95-33.391,33.391s14.949,33.391,33.391,33.391  s33.391-14.95,33.391-33.391S207.659,44.522,189.217,44.522z M189.217,89.043c-6.147,0-11.13-4.984-11.13-11.13  s4.983-11.13,11.13-11.13c6.147,0,11.13,4.984,11.13,11.13S195.365,89.043,189.217,89.043z"/>
<rect x="122.435" y="77.913" style="fill:#FFFFFF;" width="133.565" height="356.174"/>
<polygon style="fill:#80DEEA;" points="322.783,434.087 322.783,367.304 389.565,367.304 "/>
<path style="fill:#E91E63;" d="M200.348,66.783v55.652c0,6.146-4.983,11.13-11.13,11.13c-6.147,0-11.13-4.984-11.13-11.13v-22.261  h-22.261v22.261c0,18.441,14.949,33.391,33.391,33.391s33.391-14.95,33.391-33.391V77.913L200.348,66.783z"/>
<g>
</g>
<g>
</g>
<g>
</g>
<g>
</g>
<g>
</g>
<g>
</g>
<g>
</g>
<g>
</g>
<g>
</g>
<g>
</g>
<g>
</g>
<g>
</g>
<g>
</g>
<g>
</g>
<g>
</g>
</svg>
