<?xml version="1.0" encoding="iso-8859-1"?>
<!-- Generator: Adobe Illustrator 19.0.0, SVG Export Plug-In . SVG Version: 6.00 Build 0)  -->
<svg xmlns="http://www.w3.org/2000/svg" xmlns:xlink="http://www.w3.org/1999/xlink" version="1.1" id="Layer_1" x="0px" y="0px" viewBox="0 0 512 512" style="enable-background:new 0 0 512 512;" xml:space="preserve">
<path style="fill:#FFAB91;" d="M503.419,190.098C474.342,80.653,374.598,0,256,0C114.616,0,0,114.616,0,256  c0,122.034,85.395,224.112,199.684,249.77L503.419,190.098z"/>
<path style="fill:#FF7043;" d="M512,256c0-22.787-2.993-44.873-8.58-65.902l-82.411-82.411L144.696,450.783l54.989,54.989  C217.806,509.84,236.65,512,256,512C397.384,512,512,397.384,512,256z"/>
<polygon style="fill:#37474F;" points="256,283.826 434.087,283.826 434.087,261.565 256,239.304 "/>
<g>
	<path style="fill:#546E7A;" d="M389.565,94.609H256l-66.783,94.609l51.069,72.348h193.801V139.13   C434.087,114.643,414.052,94.609,389.565,94.609z"/>
	<polygon style="fill:#546E7A;" points="77.913,283.826 256,283.826 256,239.304 77.913,261.565  "/>
</g>
<path style="fill:#78909C;" d="M122.435,94.609c-24.487,0-44.522,20.035-44.522,44.522v122.435H256V94.609H122.435z"/>
<polygon style="fill:#E0F7FA;" points="233.739,317.217 256,450.783 300.522,450.783 322.783,406.261 367.304,384 367.304,339.478   "/>
<polygon style="fill:#FFFFFF;" points="144.696,339.478 144.696,450.783 256,450.783 256,294.957 "/>
<polygon style="fill:#B2EBF2;" points="367.304,339.478 367.304,228.174 233.739,205.913 256,339.478 "/>
<g>
	<polygon style="fill:#E0F7FA;" points="256,205.913 144.696,228.174 144.696,339.478 256,339.478  "/>
	<polygon style="fill:#E0F7FA;" points="367.304,228.174 367.304,183.652 233.739,161.391 256,228.174  "/>
</g>
<polygon style="fill:#FFFFFF;" points="256,161.391 144.696,183.652 144.696,228.174 256,228.174 "/>
<polygon style="fill:#80DEEA;" points="300.522,450.783 300.522,384 367.304,384 "/>
<circle style="fill:#FFEB3B;" cx="400.696" cy="161.391" r="11.13"/>
<circle style="fill:#FFFFFF;" cx="400.696" cy="205.913" r="11.13"/>
<path style="fill:#263238;" d="M345.043,150.261H256l-22.261,16.696L256,183.652h111.304v-11.13  C367.304,160.227,357.338,150.261,345.043,150.261z"/>
<path style="fill:#455A64;" d="M166.957,150.261c-12.295,0-22.261,9.966-22.261,22.261v11.13H256v-33.391H166.957z"/>
<g>
</g>
<g>
</g>
<g>
</g>
<g>
</g>
<g>
</g>
<g>
</g>
<g>
</g>
<g>
</g>
<g>
</g>
<g>
</g>
<g>
</g>
<g>
</g>
<g>
</g>
<g>
</g>
<g>
</g>
</svg>
