<?xml version="1.0" encoding="iso-8859-1"?>
<!-- Generator: Adobe Illustrator 19.0.0, SVG Export Plug-In . SVG Version: 6.00 Build 0)  -->
<svg xmlns="http://www.w3.org/2000/svg" xmlns:xlink="http://www.w3.org/1999/xlink" version="1.1" id="Layer_1" x="0px" y="0px" viewBox="0 0 512 512" style="enable-background:new 0 0 512 512;" xml:space="preserve">
<path style="fill:#FF7043;" d="M507.586,208.51C485.318,89.819,381.156,0,256,0C114.615,0,0,114.616,0,256  c0,125.156,89.819,229.318,208.511,251.585L507.586,208.51z"/>
<path style="fill:#FF5722;" d="M512,256c0-16.229-1.527-32.099-4.414-47.49l-54.822-54.821L256,256L153.689,452.764l54.822,54.821  C223.901,510.473,239.771,512,256,512C397.385,512,512,397.384,512,256z"/>
<polygon style="fill:#37474F;" points="452.764,153.689 350.442,256 233.739,278.261 256,161.558 358.311,59.236 405.537,106.463   "/>
<polygon style="fill:#263238;" points="452.764,358.311 358.311,452.764 256,350.442 222.609,256 350.442,256 "/>
<polygon style="fill:#37474F;" points="208.779,233.739 161.558,256 59.236,358.311 153.689,452.764 256,350.442 256,256 "/>
<polygon style="fill:#455A64;" points="256,161.558 256,256 161.558,256 59.236,153.689 106.463,106.463 153.689,59.236 "/>
<g>
</g>
<g>
</g>
<g>
</g>
<g>
</g>
<g>
</g>
<g>
</g>
<g>
</g>
<g>
</g>
<g>
</g>
<g>
</g>
<g>
</g>
<g>
</g>
<g>
</g>
<g>
</g>
<g>
</g>
</svg>
