<?xml version="1.0" encoding="iso-8859-1"?>
<!-- Generator: Adobe Illustrator 19.0.0, SVG Export Plug-In . SVG Version: 6.00 Build 0)  -->
<svg xmlns="http://www.w3.org/2000/svg" xmlns:xlink="http://www.w3.org/1999/xlink" version="1.1" id="Layer_1" x="0px" y="0px" viewBox="0 0 512 512" style="enable-background:new 0 0 512 512;" xml:space="preserve">
<path style="fill:#E0F7FA;" d="M511.854,247.755C507.499,110.188,394.625,0,256,0C114.616,0,0,114.616,0,256  c0,125.01,89.611,229.074,208.097,251.506L511.854,247.755z"/>
<path style="fill:#CFD8DC;" d="M259.36,188.404l-139.353,8.403l16.165,119.253l127.863,121.124l-108.209,18.051l52.271,52.271  C223.617,510.444,239.626,512,256,512c141.385,0,256-114.616,256-256c0-2.76-0.059-5.506-0.146-8.245L326.833,62.733L259.36,188.404  z"/>
<polygon points="222.609,372.87 256,445.217 311.652,445.217 311.652,372.87 "/>
<rect x="200.348" y="372.87" style="fill:#263238;" width="55.652" height="72.348"/>
<polygon style="fill:#37474F;" points="256,432.974 240.348,444.104 256,455.235 356.174,455.235 356.174,432.974 "/>
<rect x="155.826" y="432.974" style="fill:#455A64;" width="100.174" height="22.261"/>
<g>
	<path style="fill:#607D8B;" d="M256,390.957c79.786,0,144.696-64.91,144.696-144.696v-34.087l11.13-33.391H256v22.261h122.435   v45.217c0,67.511-54.924,122.435-122.435,122.435l-11.13,11.13L256,390.957z"/>
	<path style="fill:#607D8B;" d="M356.174,133.565v45.217l-137.739,67.478L256,33.391C311.322,33.391,356.174,78.245,356.174,133.565   z"/>
</g>
<path style="fill:#90A4AE;" d="M256,33.391v212.87l-100.174-67.478v-45.217C155.826,78.245,200.68,33.391,256,33.391z"/>
<path style="fill:#37474F;" d="M356.174,201.043v45.217c0,55.32-44.853,100.174-100.174,100.174l-22.261-161.391L356.174,201.043z"/>
<path style="fill:#455A64;" d="M256,185.043v161.391c-55.32,0-100.174-44.853-100.174-100.174v-45.217L256,185.043z"/>
<path style="fill:#90A4AE;" d="M256,390.957c-79.786,0-144.696-64.91-144.696-144.696v-34.087l-11.13-33.391H256v22.261H133.565  v45.217c0,67.511,54.924,122.435,122.435,122.435V390.957z"/>
<polygon points="256,178.783 240.348,189.913 256,201.043 356.174,201.043 356.174,178.783 "/>
<rect x="155.826" y="178.777" style="fill:#263238;" width="100.174" height="22.261"/>
<rect x="89.043" y="167.647" style="fill:#37474F;" width="22.261" height="44.522"/>
<rect x="400.696" y="167.647" width="22.261" height="44.522"/>
<g>
</g>
<g>
</g>
<g>
</g>
<g>
</g>
<g>
</g>
<g>
</g>
<g>
</g>
<g>
</g>
<g>
</g>
<g>
</g>
<g>
</g>
<g>
</g>
<g>
</g>
<g>
</g>
<g>
</g>
</svg>
