<?xml version="1.0" encoding="iso-8859-1"?>
<!-- Generator: Adobe Illustrator 19.0.0, SVG Export Plug-In . SVG Version: 6.00 Build 0)  -->
<svg xmlns="http://www.w3.org/2000/svg" xmlns:xlink="http://www.w3.org/1999/xlink" version="1.1" id="Layer_1" x="0px" y="0px" viewBox="0 0 512 512" style="enable-background:new 0 0 512 512;" xml:space="preserve">
<path style="fill:#ECEFF1;" d="M507.561,208.386C485.245,89.757,381.113,0,256,0C114.615,0,0,114.616,0,256  c0,117.101,78.624,215.838,185.963,246.301L507.561,208.386z"/>
<path style="fill:#CFD8DC;" d="M512,256c0-16.273-1.536-32.185-4.439-47.614l-49.544-49.544l-7.469,6.122l-77.412-77.412  L76.243,392.582l109.719,109.719C208.223,508.619,231.716,512,256,512C397.385,512,512,397.384,512,256z"/>
<polygon style="fill:#263238;" points="368.974,325.799 368.974,392.582 435.757,392.582 435.757,348.06 "/>
<polygon style="fill:#D84315;" points="435.757,314.668 435.757,348.06 335.583,348.06 286.264,292.408 "/>
<rect x="385.358" y="158.842" style="fill:#BF360C;" width="72.659" height="44.522"/>
<g>
	<polygon style="fill:#E64A19;" points="435.757,292.408 435.757,314.668 256,314.668 211.478,203.364 256,87.552 373.137,87.552    435.757,236.755 400.952,264.582  "/>
	<rect x="53.983" y="158.842" style="fill:#E64A19;" width="72.659" height="44.522"/>
</g>
<polygon style="fill:#37474F;" points="143.026,325.799 143.026,392.582 76.243,392.582 76.243,348.06 "/>
<path style="fill:#FFEB3B;" d="M385.67,236.755c-15.364,0-27.826,12.453-27.826,27.826c0,15.364,12.462,27.826,27.826,27.826h50.087  v-55.652L385.67,236.755z"/>
<polygon style="fill:#E64A19;" points="236.867,292.408 176.417,348.06 76.243,348.06 76.243,314.668 "/>
<polygon style="fill:#FF5722;" points="256,87.552 256,314.668 76.243,314.668 76.243,292.408 111.048,264.582 76.243,236.755   138.863,87.552 "/>
<path style="fill:#FFF59D;" d="M126.33,236.755c15.364,0,27.826,12.453,27.826,27.826c0,15.364-12.462,27.826-27.826,27.826H76.243  v-55.652L126.33,236.755z"/>
<polygon style="fill:#FFF9C4;" points="256,314.668 233.739,331.364 256,348.06 335.583,348.06 319.655,314.668 "/>
<polygon style="fill:#FFFDE7;" points="256,314.668 256,348.06 176.417,348.06 192.345,314.668 "/>
<polygon style="fill:#E0F7FA;" points="358.338,109.813 256,109.813 233.739,156.589 256,203.364 397.6,203.364 "/>
<polygon style="fill:#FFFFFF;" points="153.662,109.813 114.4,203.364 256,203.364 256,109.813 "/>
<g>
</g>
<g>
</g>
<g>
</g>
<g>
</g>
<g>
</g>
<g>
</g>
<g>
</g>
<g>
</g>
<g>
</g>
<g>
</g>
<g>
</g>
<g>
</g>
<g>
</g>
<g>
</g>
<g>
</g>
</svg>
