<?xml version="1.0" encoding="iso-8859-1"?>
<!-- Generator: Adobe Illustrator 19.0.0, SVG Export Plug-In . SVG Version: 6.00 Build 0)  -->
<svg xmlns="http://www.w3.org/2000/svg" xmlns:xlink="http://www.w3.org/1999/xlink" version="1.1" id="Layer_1" x="0px" y="0px" viewBox="0 0 512 512" style="enable-background:new 0 0 512 512;" xml:space="preserve">
<path style="fill:#E91E63;" d="M505.296,197.577C478.864,84.345,377.285,0,256,0C114.615,0,0,114.615,0,256  c0,117.856,79.648,217.094,188.05,246.865L505.296,197.577z"/>
<path style="fill:#AD1457;" d="M512,256c0-20.1-2.323-39.657-6.704-58.423l-63.955-63.955l-47.222-15.741L98.592,413.408  l89.458,89.458C209.691,508.809,232.471,512,256,512C397.384,512,512,397.384,512,256z"/>
<path style="fill:#F9A825;" d="M288.588,333.598l14.482-14.482c30.427-30.427,30.427-79.758,0-110.186l-112.861,65.64  L98.592,413.408c43.467,43.467,113.941,43.467,157.408,0C278.015,391.394,288.871,362.451,288.588,333.598z"/>
<path style="fill:#FDD835;" d="M192.883,208.932l-14.482,14.482c-28.852-0.285-57.795,10.573-79.81,32.588  c-43.467,43.467-43.467,113.941,0,157.408l204.477-204.477C272.642,178.504,223.31,178.504,192.883,208.932z"/>
<path style="fill:#FFF9C4;" d="M268.911,243.089L221.689,266.7l-23.612,47.223c19.529,19.529,51.305,19.529,70.834,0  C288.44,294.393,288.44,262.618,268.911,243.089z"/>
<path style="fill:#FFFFFF;" d="M198.077,243.089c-19.529,19.529-19.529,51.305,0,70.834l70.834-70.834  C249.382,223.56,217.607,223.56,198.077,243.089z"/>
<path d="M253.171,258.829l-26.234,13.117l-13.117,26.234c10.85,10.85,28.503,10.849,39.352,0  C264.019,287.332,264.019,269.679,253.171,258.829z"/>
<path style="fill:#263238;" d="M213.818,258.829c-10.849,10.849-10.85,28.503,0,39.352l39.352-39.352  C242.321,247.981,224.668,247.981,213.818,258.829z"/>
<polygon style="fill:#FF7043;" points="245.3,266.7 229.559,250.959 331.155,149.363 367.337,160.404 "/>
<polygon style="fill:#E64A19;" points="261.041,282.44 245.3,266.7 358.702,153.298 362.637,180.844 "/>
<g>
	<polygon style="fill:#FFFFFF;" points="362.637,86.4 378.378,70.659 394.119,86.4 394.119,117.881  "/>
	
		<rect x="343.637" y="103.488" transform="matrix(-0.7071 0.7071 -0.7071 -0.7071 694.5432 -36.1923)" style="fill:#FFFFFF;" width="22.261" height="44.521"/>
</g>
<g>
	<polygon style="fill:#FFF9C4;" points="394.119,117.881 425.6,117.881 441.341,133.622 425.6,149.363  "/>
	
		<rect x="375.111" y="134.976" transform="matrix(-0.7071 0.7071 -0.7071 -0.7071 770.5383 -4.6945)" style="fill:#FFF9C4;" width="22.261" height="44.521"/>
</g>
<polygon style="fill:#E64A19;" points="425.6,117.881 378.378,165.103 346.897,149.363 409.859,102.141 "/>
<polygon style="fill:#FF7043;" points="409.859,102.141 354.767,157.233 346.897,133.622 394.119,86.4 "/>
<polygon style="fill:#FFF9C4;" points="378.378,165.103 362.637,180.844 346.897,165.103 351.904,154.371 362.637,149.363 "/>
<rect x="335.765" y="138.222" transform="matrix(-0.7071 0.7071 -0.7071 -0.7071 697.7952 9.6687)" style="fill:#FFFFFF;" width="22.261" height="22.261"/>
<polygon style="fill:#E64A19;" points="202.013,380.821 186.272,396.562 150.855,361.145 155.864,350.413 166.596,345.404 "/>
<rect x="129.888" y="310.529" transform="matrix(-0.7071 0.7071 -0.7071 -0.7071 478.0188 473.1434)" style="fill:#FF7043;" width="22.261" height="50.086"/>
<g>
</g>
<g>
</g>
<g>
</g>
<g>
</g>
<g>
</g>
<g>
</g>
<g>
</g>
<g>
</g>
<g>
</g>
<g>
</g>
<g>
</g>
<g>
</g>
<g>
</g>
<g>
</g>
<g>
</g>
</svg>
