<?xml version="1.0" encoding="iso-8859-1"?>
<!-- Generator: Adobe Illustrator 19.0.0, SVG Export Plug-In . SVG Version: 6.00 Build 0)  -->
<svg xmlns="http://www.w3.org/2000/svg" xmlns:xlink="http://www.w3.org/1999/xlink" version="1.1" id="Layer_1" x="0px" y="0px" viewBox="0 0 512 512" style="enable-background:new 0 0 512 512;" xml:space="preserve">
<path style="fill:#E0F7FA;" d="M504.022,192.354C475.725,81.761,375.413,0,256,0C114.616,0,0,114.616,0,256  c0,119.412,81.761,219.725,192.354,248.022L504.022,192.354z"/>
<path style="fill:#CFD8DC;" d="M512,256c0-21.973-2.771-43.296-7.978-63.646l-68.576-68.576L248.13,248.13L123.777,435.445  l68.576,68.576C212.703,509.229,234.027,512,256,512C397.385,512,512,397.385,512,256z"/>
<path style="fill:#455A64;" d="M476.383,222.609H336.614l98.832-98.832l-47.223-47.222l-98.832,98.832V35.617H256l-22.261,71.235  L256,178.087c43.03,0,77.913,34.883,77.913,77.913S299.03,333.913,256,333.913l-22.261,71.235L256,476.383h33.391V336.613  l98.832,98.832l47.222-47.222l-98.83-98.832h139.768V222.609z"/>
<circle style="fill:#CFD8DC;" cx="256" cy="256" r="77.913"/>
<path style="fill:#607D8B;" d="M178.087,256c0-43.03,34.883-77.913,77.913-77.913V35.617h-33.391v139.769l-98.832-98.832  l-47.222,47.222l98.832,98.832H35.617v66.783h139.769l-98.832,98.832l47.222,47.222l98.832-98.832v139.769H256v-142.47  C212.97,333.913,178.087,299.03,178.087,256z"/>
<path style="fill:#37474F;" d="M256,77.913L222.609,128L256,178.087c43.03,0,77.913,34.883,77.913,77.913  S299.03,333.913,256,333.913L222.609,384L256,434.087c98.354,0,178.087-79.732,178.087-178.087S354.355,77.913,256,77.913z"/>
<path style="fill:#546E7A;" d="M178.087,256c0-43.03,34.883-77.913,77.913-77.913V77.913c-98.354,0-178.087,79.732-178.087,178.087  S157.646,434.087,256,434.087V333.913C212.97,333.913,178.087,299.03,178.087,256z"/>
<path style="fill:#455A64;" d="M256,100.174l-33.391,38.957L256,178.087c43.03,0,77.913,34.883,77.913,77.913  S299.03,333.913,256,333.913l-33.391,38.957L256,411.826c86.061,0,155.826-69.766,155.826-155.826S342.061,100.174,256,100.174z"/>
<path style="fill:#607D8B;" d="M178.087,256c0-43.03,34.883-77.913,77.913-77.913v-77.913c-86.061,0-155.826,69.766-155.826,155.826  S169.939,411.826,256,411.826v-77.913C212.97,333.913,178.087,299.03,178.087,256z"/>
<path style="fill:#263238;" d="M256,166.957l-11.13,11.13l11.13,11.13c36.883,0,66.783,29.9,66.783,66.783  s-29.9,66.783-66.783,66.783l-11.13,11.13l11.13,11.13c49.178,0,89.043-39.866,89.043-89.043S305.178,166.957,256,166.957z"/>
<path style="fill:#455A64;" d="M189.217,256c0-36.883,29.9-66.783,66.783-66.783v-22.261c-49.178,0-89.043,39.866-89.043,89.043  s39.866,89.043,89.043,89.043v-22.261C219.117,322.783,189.217,292.883,189.217,256z"/>
<g>
</g>
<g>
</g>
<g>
</g>
<g>
</g>
<g>
</g>
<g>
</g>
<g>
</g>
<g>
</g>
<g>
</g>
<g>
</g>
<g>
</g>
<g>
</g>
<g>
</g>
<g>
</g>
<g>
</g>
</svg>
