<?xml version="1.0" encoding="iso-8859-1"?>
<!-- Generator: Adobe Illustrator 19.0.0, SVG Export Plug-In . SVG Version: 6.00 Build 0)  -->
<svg xmlns="http://www.w3.org/2000/svg" xmlns:xlink="http://www.w3.org/1999/xlink" version="1.1" id="Layer_1" x="0px" y="0px" viewBox="0 0 512 512" style="enable-background:new 0 0 512 512;" xml:space="preserve">
<path style="fill:#4DD0E1;" d="M504.027,192.375C475.738,81.771,375.421,0,256,0C114.616,0,0,114.616,0,256  c0,119.42,81.771,219.737,192.374,248.026L504.027,192.375z"/>
<path style="fill:#00ACC1;" d="M504.027,192.375l-75.506-75.506l-24.129,19.458l-63.98-63.98l-144.696,11.13v142.884h97.033  L83.478,395.13l108.896,108.896C212.717,509.231,234.035,512,256,512c141.384,0,256-114.616,256-256  C512,234.035,509.23,212.719,504.027,192.375z"/>
<polygon style="fill:#CFD8DC;" points="340.413,183.652 318.152,183.652 318.152,94.609 256,94.609 244.87,83.478 256,72.348   340.413,72.348 "/>
<polygon style="fill:#FFFFFF;" points="206.848,183.652 184.587,183.652 184.587,72.348 256,72.348 256,94.609 206.848,94.609 "/>
<polygon style="fill:#37474F;" points="211.478,161.391 256,395.13 428.522,395.13 428.522,205.913 "/>
<polygon style="fill:#455A64;" points="83.478,205.913 83.478,395.13 256,395.13 256,161.391 "/>
<polygon style="fill:#263238;" points="256,116.87 211.478,172.522 256,228.174 278.261,228.174 428.522,205.913 428.522,116.87 "/>
<polygon style="fill:#37474F;" points="83.478,116.87 83.478,205.913 233.739,228.174 256,228.174 256,116.87 "/>
<polygon style="fill:#90A4AE;" points="278.261,228.174 244.87,217.043 256,272.696 278.261,272.696 "/>
<g>
	<polygon style="fill:#B0BEC5;" points="233.739,228.174 233.739,272.696 256,272.696 256,217.043  "/>
	<polygon style="fill:#B0BEC5;" points="278.261,205.913 256,205.913 244.87,217.043 256,228.174 278.261,228.174  "/>
</g>
<rect x="233.739" y="205.913" style="fill:#FFFFFF;" width="22.261" height="22.261"/>
<rect x="339.478" y="306.087" style="fill:#263238;" width="22.261" height="22.261"/>
<rect x="105.739" y="328.348" style="fill:#37474F;" width="22.261" height="22.261"/>
<rect x="384" y="350.609" style="fill:#263238;" width="22.261" height="22.261"/>
<g>
</g>
<g>
</g>
<g>
</g>
<g>
</g>
<g>
</g>
<g>
</g>
<g>
</g>
<g>
</g>
<g>
</g>
<g>
</g>
<g>
</g>
<g>
</g>
<g>
</g>
<g>
</g>
<g>
</g>
</svg>
