<?xml version="1.0" encoding="iso-8859-1"?>
<!-- Generator: Adobe Illustrator 19.0.0, SVG Export Plug-In . SVG Version: 6.00 Build 0)  -->
<svg xmlns="http://www.w3.org/2000/svg" xmlns:xlink="http://www.w3.org/1999/xlink" version="1.1" id="Layer_1" x="0px" y="0px" viewBox="0 0 512 512" style="enable-background:new 0 0 512 512;" xml:space="preserve">
<path style="fill:#C2185B;" d="M511.929,250.364C508.93,111.583,395.5,0,256,0C114.616,0,0,114.616,0,256  c0,117.154,78.697,215.926,186.111,246.341L511.929,250.364z"/>
<g>
	<path style="fill:#880E4F;" d="M512,256c0-1.884-0.031-3.761-0.071-5.636l-50.016-50.016L97.822,414.052l88.289,88.289   C208.326,508.632,231.77,512,256,512C397.385,512,512,397.385,512,256z"/>
	<polygon style="fill:#880E4F;" points="276.526,34.649 256,43.264 122.538,296.927 246.556,454.334 471.383,229.506  "/>
</g>
<rect x="196.07" y="31.197" transform="matrix(-0.9221 -0.387 0.387 -0.9221 347.644 331.5595)" style="fill:#4DD0E1;" width="22.261" height="199.172"/>
<rect x="205.199" y="119.668" transform="matrix(-0.387 -0.9221 0.9221 -0.387 302.1351 462.4584)" style="fill:#00BCD4;" width="199.183" height="22.261"/>
<polygon style="fill:#263238;" points="428.522,233.739 256,233.739 256,402.922 402.922,402.922 "/>
<polygon style="fill:#455A64;" points="83.478,233.739 109.078,402.922 256,402.922 256,233.739 "/>
<polygon style="fill:#78909C;" points="441.212,235.404 419.2,232.074 395.032,391.791 342.308,391.791 354.203,234.579   332.004,232.899 319.982,391.791 267.13,391.791 267.13,233.739 244.87,233.739 256,414.052 414.179,414.052 "/>
<g>
	<polygon style="fill:#B0BEC5;" points="244.87,233.739 244.87,391.791 192.018,391.791 179.996,232.899 157.798,234.579    169.692,391.791 116.966,391.791 92.799,232.074 70.79,235.404 97.822,414.052 256,414.052 256,233.739  "/>
	<polygon style="fill:#B0BEC5;" points="461.913,200.348 256,200.348 233.739,222.609 256,244.87 461.913,244.87  "/>
</g>
<rect x="50.087" y="200.348" style="fill:#ECEFF1;" width="205.913" height="44.522"/>
<g>
</g>
<g>
</g>
<g>
</g>
<g>
</g>
<g>
</g>
<g>
</g>
<g>
</g>
<g>
</g>
<g>
</g>
<g>
</g>
<g>
</g>
<g>
</g>
<g>
</g>
<g>
</g>
<g>
</g>
</svg>
