<?xml version="1.0" encoding="iso-8859-1"?>
<!-- Generator: Adobe Illustrator 19.0.0, SVG Export Plug-In . SVG Version: 6.00 Build 0)  -->
<svg xmlns="http://www.w3.org/2000/svg" xmlns:xlink="http://www.w3.org/1999/xlink" version="1.1" id="Layer_1" x="0px" y="0px" viewBox="0 0 512 512" style="enable-background:new 0 0 512 512;" xml:space="preserve">
<path style="fill:#FFAB91;" d="M511.283,236.774C501.452,104.37,390.916,0,256,0C114.616,0,0,114.616,0,256  c0,121.198,84.226,222.717,197.337,249.237L511.283,236.774z"/>
<path style="fill:#FF7043;" d="M511.284,236.774L401.603,127.093l-14.82,14.82L278.261,33.391L110.398,418.298l86.94,86.939  C216.176,509.655,235.814,512,256,512c141.384,0,256-114.617,256-256.001C512.001,249.532,511.755,243.122,511.284,236.774z"/>
<polygon style="fill:#37474F;" points="278.262,100.174 233.74,100.174 256.001,33.391 278.262,33.391 "/>
<rect x="233.739" y="33.391" style="fill:#546E7A;" width="22.261" height="66.783"/>
<path style="fill:#263238;" d="M256.001,66.783l-44.522,205.913l44.522,205.913c113.723,0,205.913-92.19,205.913-205.913  S369.724,66.783,256.001,66.783z"/>
<path style="fill:#455A64;" d="M50.088,272.696c0,113.723,92.19,205.913,205.913,205.913V66.783  C142.279,66.783,50.088,158.974,50.088,272.696z"/>
<path style="fill:#E0F7FA;" d="M256.001,111.304l-44.522,161.391l44.522,161.391c89.134,0,161.391-72.258,161.391-161.391  S345.135,111.304,256.001,111.304z"/>
<path style="fill:#FFFFFF;" d="M94.61,272.696c0,89.134,72.258,161.391,161.391,161.391V111.304  C166.867,111.304,94.61,183.562,94.61,272.696z"/>
<rect x="94.609" y="261.565" style="fill:#E0F7FA;" width="33.391" height="22.261"/>
<g>
	<rect x="384" y="261.565" style="fill:#80DEEA;" width="33.391" height="22.261"/>
	<rect x="244.87" y="111.304" style="fill:#80DEEA;" width="22.261" height="33.391"/>
	<rect x="244.87" y="400.696" style="fill:#80DEEA;" width="22.261" height="33.391"/>
	<path style="fill:#80DEEA;" d="M256.001,100.174l-11.13,11.13l11.13,11.13c82.986,0,150.261,67.273,150.261,150.261   s-67.275,150.261-150.261,150.261l-11.13,11.13l11.13,11.13c95.281,0,172.522-77.241,172.522-172.522   S351.282,100.174,256.001,100.174z"/>
</g>
<path style="fill:#E0F7FA;" d="M83.479,272.696c0,95.281,77.241,172.522,172.522,172.522v-22.261  c-82.986,0-150.261-67.273-150.261-150.261s67.275-150.261,150.261-150.261v-22.261C160.72,100.174,83.479,177.415,83.479,272.696z"/>
<polygon style="fill:#607D8B;" points="149.751,378.947 265.184,281.878 228.454,245.15 "/>
<polygon style="fill:#263238;" points="283.548,300.242 256.001,272.696 149.751,378.947 "/>
<polygon style="fill:#880E4F;" points="362.252,166.446 265.184,281.878 228.454,245.15 "/>
<g>
	<polygon style="fill:#E91E63;" points="283.548,300.242 256.001,272.696 362.252,166.446  "/>
	<path style="fill:#E91E63;" d="M224.52,241.214l24.675,38.289l38.289,24.675c17.387-17.387,17.387-45.577,0-62.964   C270.097,223.827,241.907,223.827,224.52,241.214z"/>
</g>
<path style="fill:#607D8B;" d="M224.52,304.178c17.387,17.387,45.577,17.387,62.964,0l-62.964-62.964  C207.133,258.601,207.133,286.791,224.52,304.178z"/>
<path style="fill:#E0F7FA;" d="M256.001,250.435l-11.13,22.261l11.13,22.261c12.295,0,22.261-9.966,22.261-22.261  C278.262,260.402,268.296,250.435,256.001,250.435z"/>
<path style="fill:#FFFFFF;" d="M233.74,272.696c0,12.295,9.966,22.261,22.261,22.261v-44.522  C243.706,250.435,233.74,260.402,233.74,272.696z"/>
<g>
</g>
<g>
</g>
<g>
</g>
<g>
</g>
<g>
</g>
<g>
</g>
<g>
</g>
<g>
</g>
<g>
</g>
<g>
</g>
<g>
</g>
<g>
</g>
<g>
</g>
<g>
</g>
<g>
</g>
</svg>
