<?xml version="1.0" encoding="iso-8859-1"?>
<!-- Generator: Adobe Illustrator 19.0.0, SVG Export Plug-In . SVG Version: 6.00 Build 0)  -->
<svg xmlns="http://www.w3.org/2000/svg" xmlns:xlink="http://www.w3.org/1999/xlink" version="1.1" id="Layer_1" x="0px" y="0px" viewBox="0 0 512 512" style="enable-background:new 0 0 512 512;" xml:space="preserve">
<path style="fill:#455A64;" d="M510.796,231.144C498.295,101.424,388.998,0,256,0C114.616,0,0,114.616,0,256  c0,117.769,79.53,216.949,187.809,246.801L510.796,231.144z"/>
<path style="fill:#263238;" d="M512,256c0-8.387-0.416-16.676-1.204-24.856l-91.039-91.039L342.849,200.1l-93.387-93.387  l-59.568,59.568l86.028,86.028L85.704,400.696l102.105,102.105C209.522,508.787,232.385,512,256,512  C397.384,512,512,397.384,512,256z"/>
<path style="fill:#FF5722;" d="M404.035,133.565H233.739v89.043h192.557v-66.783C426.296,143.583,416.278,133.565,404.035,133.565z"/>
<path style="fill:#FF7043;" d="M233.739,100.174H107.965c-12.243,0-22.261,10.017-22.261,22.261v100.174H256V122.435  C256,110.191,245.983,100.174,233.739,100.174z"/>
<polygon style="fill:#E0F7FA;" points="200.348,356.174 256,77.913 318.609,77.913 339.478,119.652 381.217,140.522   381.217,356.174 "/>
<rect x="130.783" y="77.913" style="fill:#FFFFFF;" width="125.217" height="278.261"/>
<polygon style="fill:#80DEEA;" points="318.609,77.913 318.609,140.522 381.217,140.522 "/>
<path style="fill:#FFAB91;" d="M437.426,189.217H256l-22.261,105.739L256,400.696h170.296l29.92-189.49  C458.124,199.112,449.67,189.217,437.426,189.217z"/>
<g>
	<rect x="337.252" y="312.765" style="fill:#FF8A65;" width="22.261" height="22.261"/>
	<rect x="381.774" y="357.287" style="fill:#FF8A65;" width="22.261" height="22.261"/>
</g>
<path style="fill:#FFCCBC;" d="M73.461,189.217c-12.243,0-20.648,9.887-18.676,21.97l30.919,189.508H256V189.217H73.461z"/>
<rect x="211.478" y="211.478" style="fill:#FFAB91;" width="22.261" height="22.261"/>
<g>
</g>
<g>
</g>
<g>
</g>
<g>
</g>
<g>
</g>
<g>
</g>
<g>
</g>
<g>
</g>
<g>
</g>
<g>
</g>
<g>
</g>
<g>
</g>
<g>
</g>
<g>
</g>
<g>
</g>
</svg>
