<?xml version="1.0" encoding="iso-8859-1"?>
<!-- Generator: Adobe Illustrator 19.0.0, SVG Export Plug-In . SVG Version: 6.00 Build 0)  -->
<svg xmlns="http://www.w3.org/2000/svg" xmlns:xlink="http://www.w3.org/1999/xlink" version="1.1" id="Layer_1" x="0px" y="0px" viewBox="0 0 512 512" style="enable-background:new 0 0 512 512;" xml:space="preserve">
<path style="fill:#C2185B;" d="M502.865,188.049C473.095,79.649,373.856,0.001,256,0.001c-141.385,0-256,114.615-256,256  C0,395.054,110.868,508.21,249.031,511.904L502.865,188.049z"/>
<path style="fill:#880E4F;" d="M512,256.001c0-23.529-3.191-46.309-9.135-67.951l-89.458-89.458L211.532,474.404l37.498,37.498  c2.316,0.062,4.638,0.097,6.969,0.097C397.385,512.001,512,397.385,512,256.001z"/>
<path style="fill:#FF5722;" d="M413.408,98.593l-26.918,11.139l-11.845,27.622c8.694,8.694,8.693,22.788,0,31.481  c-8.693,8.693-22.788,8.694-31.481,0l-130.452,83.23l-88.149,135.371l86.968,86.968l201.876-201.876V98.593H413.408z"/>
<path style="fill:#FF8A65;" d="M343.165,137.355c8.693-8.693,22.788-8.694,31.481,0l38.762-38.762H239.472L37.596,300.469  l86.968,86.968l218.601-218.601C334.472,160.142,334.472,146.047,343.165,137.355z"/>
<polygon style="fill:#FFF9C4;" points="318.57,193.431 216.648,263.871 140.305,371.696 211.532,442.923 389.797,264.658 "/>
<rect x="67.772" y="196.587" transform="matrix(-0.7071 0.7071 -0.7071 -0.7071 505.4983 284.5201)" style="fill:#FFFFFF;" width="252.102" height="100.729"/>
<polygon style="fill:#FFF176;" points="287.088,224.912 222.834,271.6 171.787,340.213 211.532,379.959 326.834,264.658 "/>
<rect x="128.029" y="234.586" transform="matrix(-0.7071 0.7071 -0.7071 -0.7071 543.4889 300.2591)" style="fill:#FFF9C4;" width="163.059" height="56.208"/>
<g>
</g>
<g>
</g>
<g>
</g>
<g>
</g>
<g>
</g>
<g>
</g>
<g>
</g>
<g>
</g>
<g>
</g>
<g>
</g>
<g>
</g>
<g>
</g>
<g>
</g>
<g>
</g>
<g>
</g>
</svg>
