<?xml version="1.0" encoding="iso-8859-1"?>
<!-- Generator: Adobe Illustrator 19.0.0, SVG Export Plug-In . SVG Version: 6.00 Build 0)  -->
<svg xmlns="http://www.w3.org/2000/svg" xmlns:xlink="http://www.w3.org/1999/xlink" version="1.1" id="Layer_1" x="0px" y="0px" viewBox="0 0 512 512" style="enable-background:new 0 0 512 512;" xml:space="preserve">
<path style="fill:#FFF59D;" d="M507.599,208.58C485.359,89.854,381.181,0,256,0C114.616,0,0,114.616,0,256s114.616,256,256,256  c10.512,0,20.871-0.648,31.049-1.879L507.599,208.58z"/>
<path style="fill:#FDD835;" d="M256,479.072l31.049,31.049C413.789,494.796,512,386.874,512,256c0-16.205-1.523-32.051-4.402-47.42  L386.588,87.569L256,479.072z"/>
<path style="fill:#D84315;" d="M440.765,218.157c0-101.88-82.885-184.765-184.765-184.765l-61.588,184.765L256,479.072  l130.649-130.266h-0.124C420.018,315.344,440.765,269.128,440.765,218.157z"/>
<path style="fill:#FF5722;" d="M256,33.391c-101.88,0-184.765,82.885-184.765,184.765c0,53.85,23.162,102.389,60.04,136.19  L256,479.072v-76.15V33.391z"/>
<path style="fill:#FFAB91;" d="M256,89.043l-43.038,129.113L256,347.27c71.194,0,129.113-57.919,129.113-129.113  S327.194,89.043,256,89.043z"/>
<path style="fill:#FFCCBC;" d="M126.887,218.157c0,71.194,57.919,129.113,129.113,129.113V89.043  C184.806,89.043,126.887,146.964,126.887,218.157z"/>
<path style="fill:#FFF9C4;" d="M256,111.304l-35.617,106.852L256,325.009c58.919,0,106.852-47.933,106.852-106.852  S314.919,111.304,256,111.304z"/>
<path style="fill:#FFFFFF;" d="M149.148,218.157c0,58.919,47.933,106.852,106.852,106.852V111.304  C197.081,111.304,149.148,159.239,149.148,218.157z"/>
<g>
</g>
<g>
</g>
<g>
</g>
<g>
</g>
<g>
</g>
<g>
</g>
<g>
</g>
<g>
</g>
<g>
</g>
<g>
</g>
<g>
</g>
<g>
</g>
<g>
</g>
<g>
</g>
<g>
</g>
</svg>
