<?xml version="1.0" encoding="iso-8859-1"?>
<!-- Generator: Adobe Illustrator 19.0.0, SVG Export Plug-In . SVG Version: 6.00 Build 0)  -->
<svg xmlns="http://www.w3.org/2000/svg" xmlns:xlink="http://www.w3.org/1999/xlink" version="1.1" id="Layer_1" x="0px" y="0px" viewBox="0 0 512 512" style="enable-background:new 0 0 512 512;" xml:space="preserve">
<path style="fill:#E91E63;" d="M502.801,187.809C472.949,79.53,373.769,0,256,0C114.616,0,0,114.616,0,256  c0,117.769,79.53,216.949,187.809,246.801L502.801,187.809z"/>
<path style="fill:#AD1457;" d="M512,256c0-23.615-3.213-46.477-9.199-68.191L400.696,85.704L111.304,426.296l76.505,76.505  C209.522,508.787,232.385,512,256,512C397.384,512,512,397.384,512,256z"/>
<polygon style="fill:#F9A825;" points="333.913,85.704 289.391,256 333.913,426.296 400.696,426.296 400.696,85.704 "/>
<polygon style="fill:#ECEFF1;" points="356.174,107.965 333.913,256 356.174,404.035 378.435,404.035 378.435,381.774   367.304,358.678 378.435,335.583 378.435,313.322 367.304,290.226 378.435,267.13 378.435,107.965 "/>
<rect x="345.043" y="267.13" style="fill:#E91E63;" width="33.391" height="46.191"/>
<rect x="345.043" y="335.583" style="fill:#AD1457;" width="33.391" height="46.191"/>
<polygon style="fill:#FFFFFF;" points="311.652,107.965 311.652,404.035 356.174,404.035 356.174,244.871 345.043,221.774   356.174,198.678 356.174,176.417 345.043,153.322 356.174,130.226 356.174,107.965 "/>
<rect x="322.783" y="130.226" style="fill:#F48FB1;" width="33.391" height="46.191"/>
<rect x="322.783" y="198.678" style="fill:#F06292;" width="33.391" height="46.191"/>
<polygon style="fill:#FDD835;" points="333.913,85.704 239.304,85.704 194.783,256 239.304,426.296 333.913,426.296 "/>
<polygon style="fill:#FFEB3B;" points="144.696,85.704 122.435,256 144.696,426.296 239.304,426.296 239.304,85.704 "/>
<rect x="111.304" y="85.704" style="fill:#FBC02D;" width="33.391" height="340.591"/>
<path style="fill:#37474F;" d="M267.13,256c0,15.349-12.477,27.826-27.826,27.826S211.478,271.349,211.478,256  s12.477-27.826,27.826-27.826l22.261-33.391h-22.261c-33.755,0-61.217,27.462-61.217,61.217s27.462,61.217,61.217,61.217  s61.217-27.462,61.217-61.217H267.13z"/>
<path style="fill:#455A64;" d="M289.391,256h22.261c0,39.891-32.456,72.348-72.348,72.348S166.957,295.891,166.957,256  s32.456-72.348,72.348-72.348l22.261,22.261h-22.261c-27.659,0-50.087,22.428-50.087,50.087s22.428,50.087,50.087,50.087  S289.391,283.659,289.391,256z"/>
<polygon style="fill:#37474F;" points="239.304,163.812 239.304,205.913 267.13,213.141 294.957,205.913 "/>
<polygon style="fill:#263238;" points="239.304,205.913 239.304,248.014 294.957,205.913 "/>
<g>
</g>
<g>
</g>
<g>
</g>
<g>
</g>
<g>
</g>
<g>
</g>
<g>
</g>
<g>
</g>
<g>
</g>
<g>
</g>
<g>
</g>
<g>
</g>
<g>
</g>
<g>
</g>
<g>
</g>
</svg>
