<?xml version="1.0" encoding="iso-8859-1"?>
<!-- Generator: Adobe Illustrator 19.0.0, SVG Export Plug-In . SVG Version: 6.00 Build 0)  -->
<svg xmlns="http://www.w3.org/2000/svg" xmlns:xlink="http://www.w3.org/1999/xlink" version="1.1" id="Layer_1" x="0px" y="0px" viewBox="0 0 512 512" style="enable-background:new 0 0 512 512;" xml:space="preserve">
<path style="fill:#F8BBD0;" d="M502.42,186.404C472.102,78.84,373.26,0,256,0C114.616,0,0,114.616,0,256s114.616,256,256,256  c10.654,0,21.152-0.662,31.465-1.927L502.42,186.404z"/>
<path style="fill:#F48FB1;" d="M512,256c0-24.124-3.342-47.467-9.58-69.596l-75.89-75.89L256,478.609l31.465,31.465  C414.004,494.563,512,386.731,512,256z"/>
<path style="fill:#E91E63;" d="M347.826,77.913c-38.124,0-71.767,19.172-91.826,48.396l-44.522,176.15L256,478.609l178.225-219.226  c15.568-19.147,24.905-43.563,24.905-70.165C459.13,127.746,409.298,77.913,347.826,77.913z"/>
<path style="fill:#F06292;" d="M164.174,77.913c-61.472,0-111.304,49.832-111.304,111.304c0,26.601,9.337,51.019,24.905,70.165  L256,478.609V126.309C235.941,97.085,202.299,77.913,164.174,77.913z"/>
<g>
	<rect x="108.522" y="178.087" style="fill:#EC407A;" width="22.261" height="22.261"/>
	<rect x="153.043" y="133.565" style="fill:#EC407A;" width="22.261" height="22.261"/>
</g>
<g>
</g>
<g>
</g>
<g>
</g>
<g>
</g>
<g>
</g>
<g>
</g>
<g>
</g>
<g>
</g>
<g>
</g>
<g>
</g>
<g>
</g>
<g>
</g>
<g>
</g>
<g>
</g>
<g>
</g>
</svg>
