<?xml version="1.0" encoding="iso-8859-1"?>
<!-- Generator: Adobe Illustrator 19.0.0, SVG Export Plug-In . SVG Version: 6.00 Build 0)  -->
<svg xmlns="http://www.w3.org/2000/svg" xmlns:xlink="http://www.w3.org/1999/xlink" version="1.1" id="Layer_1" x="0px" y="0px" viewBox="0 0 512 512" style="enable-background:new 0 0 512 512;" xml:space="preserve">
<path style="fill:#FF7043;" d="M502.388,186.283C472.029,78.782,373.217,0,256,0C114.616,0,0,114.616,0,256  c0,117.217,78.782,216.029,186.283,246.388L502.388,186.283z"/>
<path style="fill:#FF5722;" d="M512,256c0-24.168-3.354-47.551-9.612-69.717l-88.336-88.336L97.948,414.052l88.336,88.336  C208.447,508.647,231.832,512,256,512C397.384,512,512,397.384,512,256z"/>
<polygon style="fill:#FBC02D;" points="414.052,97.948 256,97.948 211.478,256 256,414.052 414.052,414.052 "/>
<rect x="97.948" y="97.948" style="fill:#FFEB3B;" width="158.052" height="316.104"/>
<path style="fill:#E91E63;" d="M256,120.209L211.478,256L256,391.791c74.996,0,135.791-60.796,135.791-135.791  S330.996,120.209,256,120.209z"/>
<path style="fill:#EC407A;" d="M120.209,256c0,74.996,60.796,135.791,135.791,135.791V120.209  C181.004,120.209,120.209,181.004,120.209,256z"/>
<polygon style="fill:#00BCD4;" points="256,142.47 222.609,256 256,312.765 354.321,312.765 "/>
<polygon style="fill:#4DD0E1;" points="157.68,312.765 256,312.765 256,142.47 "/>
<g>
</g>
<g>
</g>
<g>
</g>
<g>
</g>
<g>
</g>
<g>
</g>
<g>
</g>
<g>
</g>
<g>
</g>
<g>
</g>
<g>
</g>
<g>
</g>
<g>
</g>
<g>
</g>
<g>
</g>
</svg>
