<?xml version="1.0" encoding="iso-8859-1"?>
<!-- Generator: Adobe Illustrator 19.0.0, SVG Export Plug-In . SVG Version: 6.00 Build 0)  -->
<svg xmlns="http://www.w3.org/2000/svg" xmlns:xlink="http://www.w3.org/1999/xlink" version="1.1" id="Layer_1" x="0px" y="0px" viewBox="0 0 512 512" style="enable-background:new 0 0 512 512;" xml:space="preserve">
<path style="fill:#00838F;" d="M502.865,188.05C473.095,79.648,373.856,0,256,0C114.615,0,0,114.615,0,256  c0,117.856,79.648,217.094,188.049,246.865L502.865,188.05z"/>
<path style="fill:#006064;" d="M98.592,413.408l89.458,89.458C209.691,508.809,232.471,512,256,512c141.384,0,256-114.615,256-256  c0-23.529-3.191-46.309-9.134-67.95l-89.458-89.458L98.592,413.408z"/>
<path style="fill:#FDD835;" d="M468.828,232.389c0,104.501-84.716,189.217-189.217,189.217l-76.452-189.217l76.452-189.217  C384.112,43.172,468.828,127.888,468.828,232.389z"/>
<path style="fill:#FFEB3B;" d="M279.611,43.172c-104.501,0-189.217,84.716-189.217,189.217c0,37.38,10.844,72.227,29.552,101.573  l-21.354,79.447l79.446-21.354c29.345,18.708,64.193,29.552,101.573,29.552V43.172z"/>
<path style="fill:#FFF9C4;" d="M446.568,232.389c0,92.207-74.749,166.956-166.957,166.956l-67.457-166.957l67.457-166.957  C371.819,65.432,446.568,140.182,446.568,232.389z"/>
<path style="fill:#FFFDE7;" d="M112.654,232.389c0-92.207,74.749-166.957,166.956-166.957v333.913  C187.403,399.345,112.654,324.596,112.654,232.389z"/>
<circle style="fill:#0097A7;" cx="229.521" cy="288.045" r="27.826"/>
<circle style="fill:#00BCD4;" cx="229.521" cy="176.74" r="27.826"/>
<path style="fill:#00838F;" d="M346.394,232.389c0,27.316-16.394,51.622-41.766,61.922l16.746,41.253  c42.246-17.149,69.542-57.647,69.542-103.174l-22.261-22.261L346.394,232.389z"/>
<path style="fill:#00ACC1;" d="M321.372,129.215l-16.746,41.253c25.372,10.299,41.766,34.606,41.766,61.922h44.522  C390.915,186.862,363.618,146.364,321.372,129.215z"/>
<g>
</g>
<g>
</g>
<g>
</g>
<g>
</g>
<g>
</g>
<g>
</g>
<g>
</g>
<g>
</g>
<g>
</g>
<g>
</g>
<g>
</g>
<g>
</g>
<g>
</g>
<g>
</g>
<g>
</g>
</svg>
