<?xml version="1.0" encoding="iso-8859-1"?>
<!-- Generator: Adobe Illustrator 19.0.0, SVG Export Plug-In . SVG Version: 6.00 Build 0)  -->
<svg xmlns="http://www.w3.org/2000/svg" xmlns:xlink="http://www.w3.org/1999/xlink" version="1.1" id="Layer_1" x="0px" y="0px" viewBox="0 0 512 512" style="enable-background:new 0 0 512 512;" xml:space="preserve">
<path style="fill:#FFF9C4;" d="M511.721,244.234C505.57,108.312,393.44,0,256,0C114.615,0,0,114.616,0,256  c0,119.182,81.446,219.34,191.716,247.858L511.721,244.234z"/>
<path style="fill:#FFF176;" d="M512,256c0-3.945-0.103-7.865-0.279-11.766L332.7,65.213l-138.613,5.678L116.87,429.011  l74.847,74.847C212.257,509.171,233.798,512,256,512C397.384,512,512,397.384,512,256z"/>
<path style="fill:#37474F;" d="M256,38.957l-22.261,16.696L256,77.913c35.295,0,64,28.717,64,64v86.372h38.957v-86.372  C358.957,85.142,312.771,38.957,256,38.957z"/>
<path style="fill:#607D8B;" d="M364.522,141.913v86.372h-22.261c0,0,0-38.734,0-86.372S303.638,55.652,256,55.652l-11.13-11.13  L256,33.391C315.837,33.391,364.522,82.076,364.522,141.913z"/>
<path style="fill:#546E7A;" d="M153.043,141.913v86.372H192v-86.372c0-35.283,28.705-64,64-64V38.957  C199.229,38.957,153.043,85.142,153.043,141.913z"/>
<path style="fill:#90A4AE;" d="M256,33.391v22.261c-47.638,0-86.261,38.623-86.261,86.261s0,86.372,0,86.372h-22.261v-86.372  C147.478,82.076,196.163,33.391,256,33.391z"/>
<polygon style="fill:#263238;" points="395.13,217.533 395.13,406.751 211.478,423.446 256,206.403 "/>
<g>
	<polygon style="fill:#37474F;" points="256,206.403 256,423.446 116.87,406.751 116.87,217.533  "/>
	<polygon style="fill:#37474F;" points="395.13,195.272 395.13,217.533 256,217.533 230.704,206.403 256,195.272  "/>
</g>
<rect x="116.87" y="195.272" style="fill:#607D8B;" width="139.13" height="22.261"/>
<polygon style="fill:#37474F;" points="395.13,406.751 395.13,429.011 256,429.011 230.704,417.881 256,406.751 "/>
<g>
	<rect x="116.87" y="406.751" style="fill:#607D8B;" width="139.13" height="22.261"/>
	<path style="fill:#607D8B;" d="M289.391,295.446c0,9.884-4.296,18.766-11.13,24.877v41.906H256l-11.13-50.087L256,262.055   C274.443,262.055,289.391,277.003,289.391,295.446z"/>
</g>
<path style="fill:#90A4AE;" d="M256,262.055v100.174h-22.261v-41.906c-6.834-6.111-11.13-14.993-11.13-24.877  C222.609,277.003,237.557,262.055,256,262.055z"/>
<g>
</g>
<g>
</g>
<g>
</g>
<g>
</g>
<g>
</g>
<g>
</g>
<g>
</g>
<g>
</g>
<g>
</g>
<g>
</g>
<g>
</g>
<g>
</g>
<g>
</g>
<g>
</g>
<g>
</g>
</svg>
