<?xml version="1.0" encoding="iso-8859-1"?>
<!-- Generator: Adobe Illustrator 19.0.0, SVG Export Plug-In . SVG Version: 6.00 Build 0)  -->
<svg xmlns="http://www.w3.org/2000/svg" xmlns:xlink="http://www.w3.org/1999/xlink" version="1.1" id="Layer_1" x="0px" y="0px" viewBox="0 0 512 512" style="enable-background:new 0 0 512 512;" xml:space="preserve">
<path style="fill:#37474F;" d="M511.672,242.96C504.882,107.635,393.011,0,256,0C114.615,0,0,114.616,0,256  c0,117.866,79.662,217.11,188.077,246.873L511.672,242.96z"/>
<path style="fill:#263238;" d="M512,256c0-4.373-0.111-8.721-0.328-13.04L334.704,65.991l-157.409,190.8L256,335.495L98.601,413.399  l89.474,89.474c21.633,5.939,44.405,9.127,67.923,9.127C397.384,512,512,397.385,512,256z"/>
<path style="fill:#00BCD4;" d="M367.304,178.087v-33.391c0-61.471-49.833-111.304-111.304-111.304l-44.522,128l44.522,128  C317.471,289.391,367.304,239.558,367.304,178.087z"/>
<path style="fill:#4DD0E1;" d="M256,289.391v-256c-61.471,0-111.304,49.833-111.304,111.304v33.391  C144.696,239.558,194.529,289.391,256,289.391z"/>
<path style="fill:#00BCD4;" d="M438.764,383.097c-15.243-33.233-57.23-60.315-93.72-60.315l-133.565,77.913L256,478.609  C331.69,478.609,398.545,440.824,438.764,383.097z"/>
<path style="fill:#4DD0E1;" d="M166.957,322.783c-36.49,0-78.477,27.081-93.72,60.315C113.455,440.824,180.31,478.609,256,478.609  V384L166.957,322.783z"/>
<path style="fill:#E0F7FA;" d="M345.043,322.783C331.544,358.551,296.494,384,256,384l-22.261-31.905L256,322.783H345.043z"/>
<path style="fill:#FFFFFF;" d="M166.957,322.783C180.456,358.551,215.506,384,256,384v-61.217H166.957z"/>
<g>
</g>
<g>
</g>
<g>
</g>
<g>
</g>
<g>
</g>
<g>
</g>
<g>
</g>
<g>
</g>
<g>
</g>
<g>
</g>
<g>
</g>
<g>
</g>
<g>
</g>
<g>
</g>
<g>
</g>
</svg>
