<?xml version="1.0" encoding="iso-8859-1"?>
<!-- Generator: Adobe Illustrator 19.0.0, SVG Export Plug-In . SVG Version: 6.00 Build 0)  -->
<svg xmlns="http://www.w3.org/2000/svg" xmlns:xlink="http://www.w3.org/1999/xlink" version="1.1" id="Layer_1" x="0px" y="0px" viewBox="0 0 512 512" style="enable-background:new 0 0 512 512;" xml:space="preserve">
<path style="fill:#B2EBF2;" d="M511.854,247.752C507.498,110.187,394.624,0,256,0C114.615,0,0,114.615,0,256  c0,138.624,110.186,251.498,247.752,255.854L511.854,247.752z"/>
<path style="fill:#80DEEA;" d="M512,256c0-2.761-0.059-5.508-0.146-8.248l-62.585-62.586L62.731,326.834l185.021,185.02  c2.74,0.087,5.487,0.146,8.248,0.146C397.384,512,512,397.384,512,256z"/>
<polygon style="fill:#00838F;" points="256,133.565 222.609,261.565 333.913,261.565 333.913,133.565 "/>
<rect x="178.087" y="133.565" style="fill:#00ACC1;" width="77.913" height="128"/>
<path style="fill:#00838F;" d="M333.913,278.261c0-43.03-34.883-77.913-77.913-77.913l-31.48,77.913L256,356.174  C299.03,356.174,333.913,321.291,333.913,278.261z"/>
<path style="fill:#00ACC1;" d="M178.087,278.261c0,43.03,34.883,77.913,77.913,77.913V200.348  C212.97,200.348,178.087,235.231,178.087,278.261z"/>
<polygon style="fill:#263238;" points="256,155.826 215.188,219.826 256,283.826 378.435,283.826 378.435,155.826 "/>
<rect x="133.565" y="155.826" style="fill:#00838F;" width="122.435" height="128"/>
<path style="fill:#006064;" d="M233.739,256c0-55.324-44.849-100.174-100.174-100.174L93.09,256l40.475,100.174  C188.89,356.174,233.739,311.324,233.739,256z"/>
<path style="fill:#00838F;" d="M33.391,256c0,55.324,44.849,100.174,100.174,100.174V155.826  C78.24,155.826,33.391,200.676,33.391,256z"/>
<path style="fill:#B2EBF2;" d="M211.478,256c0-43.03-34.883-77.913-77.913-77.913L102.085,256l31.48,77.913  C176.595,333.913,211.478,299.03,211.478,256z"/>
<path style="fill:#FFFFFF;" d="M55.652,256c0,43.03,34.883,77.913,77.913,77.913V178.087C90.535,178.087,55.652,212.97,55.652,256z"/>
<path style="fill:#263238;" d="M478.609,256c0-55.324-44.849-100.174-100.174-100.174L337.96,256l40.475,100.174  C433.76,356.174,478.609,311.324,478.609,256z"/>
<path style="fill:#006064;" d="M278.261,256c0,55.324,44.849,100.174,100.174,100.174V155.826  C323.11,155.826,278.261,200.676,278.261,256z"/>
<path style="fill:#00BCD4;" d="M456.348,256c0-43.03-34.883-77.913-77.913-77.913L346.955,256l31.48,77.913  C421.465,333.913,456.348,299.03,456.348,256z"/>
<path style="fill:#B2EBF2;" d="M300.522,256c0,43.03,34.883,77.913,77.913,77.913V178.087  C335.405,178.087,300.522,212.97,300.522,256z"/>
<g>
</g>
<g>
</g>
<g>
</g>
<g>
</g>
<g>
</g>
<g>
</g>
<g>
</g>
<g>
</g>
<g>
</g>
<g>
</g>
<g>
</g>
<g>
</g>
<g>
</g>
<g>
</g>
<g>
</g>
</svg>
