<?xml version="1.0" encoding="iso-8859-1"?>
<!-- Generator: Adobe Illustrator 19.0.0, SVG Export Plug-In . SVG Version: 6.00 Build 0)  -->
<svg xmlns="http://www.w3.org/2000/svg" xmlns:xlink="http://www.w3.org/1999/xlink" version="1.1" id="Layer_1" x="0px" y="0px" viewBox="0 0 512.001 512.001" style="enable-background:new 0 0 512.001 512.001;" xml:space="preserve">
<path style="fill:#FFCCBC;" d="M502.856,188.034c-11.36-41.407-33.296-80.519-65.829-113.052  c-99.976-99.976-262.07-99.976-362.045,0s-99.976,262.07,0,362.045c32.533,32.533,71.646,54.468,113.052,65.829L502.856,188.034z"/>
<path style="fill:#FFAB91;" d="M437.028,437.028c67.443-67.443,89.379-163.153,65.829-248.993l-89.44-89.44L114.335,429.156  l73.699,73.699C273.875,526.407,369.584,504.47,437.028,437.028z"/>
<polygon style="fill:#263238;" points="98.594,397.674 130.076,413.415 208.782,334.711 193.04,303.228 "/>
<g>
	<polygon style="fill:#455A64;" points="200.912,311.098 177.299,303.228 98.594,381.933 106.465,405.545  "/>
	<polygon style="fill:#455A64;" points="219.8,276.468 193.04,318.97 208.782,334.711 243.412,300.08  "/>
</g>
<g>
	
		<rect x="191.362" y="269.292" transform="matrix(-0.7071 -0.7071 0.7071 -0.7071 137.9436 644.697)" style="fill:#78909C;" width="22.261" height="48.974"/>
	<polygon style="fill:#78909C;" points="98.594,413.415 114.335,429.156 130.076,413.415 114.335,397.674 98.594,397.674  "/>
</g>
<rect x="87.462" y="386.542" transform="matrix(-0.7071 0.7071 -0.7071 -0.7071 449.5057 609.1544)" style="fill:#B0BEC5;" width="22.261" height="22.261"/>
<path style="fill:#78909C;" d="M413.415,98.594L287.487,177.3l-78.706,125.929c56.508,56.508,148.126,56.508,204.634,0  S469.923,155.102,413.415,98.594z"/>
<path style="fill:#B0BEC5;" d="M208.782,98.594c-56.508,56.508-56.508,148.126,0,204.634L413.415,98.594  C356.907,42.085,265.29,42.086,208.782,98.594z"/>
<path style="fill:#E0F7FA;" d="M311.098,89.605l-33.392,111.306l33.392,111.306c61.473,0,111.306-49.833,111.306-111.306  S372.572,89.605,311.098,89.605z"/>
<path style="fill:#FFFFFF;" d="M199.792,200.911c0,61.473,49.833,111.306,111.306,111.306V89.605  C249.626,89.605,199.792,139.438,199.792,200.911z"/>
<path style="fill:#FF7043;" d="M311.099,111.866l-33.392,89.045l33.392,89.045c49.178,0,89.045-39.867,89.045-89.045  S360.277,111.866,311.099,111.866z"/>
<path style="fill:#FFAB91;" d="M222.054,200.911c0,49.178,39.867,89.045,89.045,89.045v-178.09  C261.921,111.866,222.054,151.733,222.054,200.911z"/>
<path style="fill:#B2EBF2;" d="M311.099,150.824l-16.567,50.088l16.567,50.088c37.117,0,69.628-19.857,89.045-50.088  C380.726,170.681,348.215,150.824,311.099,150.824z"/>
<path style="fill:#FFFFFF;" d="M222.054,200.911c19.417,30.231,51.928,50.088,89.045,50.088V150.824  C273.981,150.824,241.472,170.68,222.054,200.911z"/>
<path style="fill:#25BBCC;" d="M311.099,150.824l-17.574,50.088l17.574,50.088c27.663,0,50.088-22.425,50.088-50.088  S338.761,150.824,311.099,150.824z"/>
<path style="fill:#4DD0E1;" d="M261.011,200.911c0,27.663,22.425,50.088,50.088,50.088V150.824  C283.436,150.824,261.011,173.249,261.011,200.911z"/>
<path style="fill:#263238;" d="M311.099,173.085l-10.306,27.827l10.306,27.827c15.368,0,27.827-12.459,27.827-27.827  S326.467,173.085,311.099,173.085z"/>
<path style="fill:#1C2D62;" d="M283.273,200.911c0,15.368,12.459,27.827,27.827,27.827v-55.653  C295.73,173.085,283.273,185.543,283.273,200.911z"/>
<g>
</g>
<g>
</g>
<g>
</g>
<g>
</g>
<g>
</g>
<g>
</g>
<g>
</g>
<g>
</g>
<g>
</g>
<g>
</g>
<g>
</g>
<g>
</g>
<g>
</g>
<g>
</g>
<g>
</g>
</svg>
