<?xml version="1.0" encoding="iso-8859-1"?>
<!-- Generator: Adobe Illustrator 19.0.0, SVG Export Plug-In . SVG Version: 6.00 Build 0)  -->
<svg xmlns="http://www.w3.org/2000/svg" xmlns:xlink="http://www.w3.org/1999/xlink" version="1.1" id="Layer_1" x="0px" y="0px" viewBox="0 0 512 512" style="enable-background:new 0 0 512 512;" xml:space="preserve">
<path style="fill:#37474F;" d="M506.61,203.536C482.402,87.317,379.402,0,256,0C114.615,0,0,114.616,0,256  c0,117.866,79.662,217.111,188.078,246.873L506.61,203.536z"/>
<path style="fill:#263238;" d="M512,256c0-17.982-1.863-35.528-5.39-52.464l-66.842-66.842L72.232,298.873l71.188,71.188  l-44.077,44.077l88.735,88.735c21.633,5.938,44.404,9.127,67.922,9.127C397.384,512,512,397.384,512,256z"/>
<path style="fill:#00838F;" d="M233.739,231.975v-28.383c0-52.251-42.358-94.609-94.609-94.609l-37.843,108.8l37.843,108.8  C191.381,326.584,233.739,284.227,233.739,231.975z"/>
<path style="fill:#0097A7;" d="M139.13,326.584v-217.6c-52.251,0-94.609,42.358-94.609,94.609v28.383  C44.522,284.227,86.88,326.584,139.13,326.584z"/>
<g>
	<path style="fill:#00838F;" d="M467.478,231.975v-28.383c0-52.251-42.358-94.609-94.609-94.609l-37.843,108.8l37.843,108.8   C425.12,326.584,467.478,284.227,467.478,231.975z"/>
	<path style="fill:#00838F;" d="M372.871,359.975l-41.184,42.504h91.924c11.312-12.934,21.15-27.188,29.256-42.504L372.871,359.975   L372.871,359.975z"/>
</g>
<g>
	<polygon style="fill:#0097A7;" points="372.871,402.482 331.687,359.975 372.871,359.975  "/>
	<path style="fill:#0097A7;" d="M139.129,359.975H59.134c8.105,15.314,17.944,29.569,29.256,42.504h91.923L139.129,359.975z"/>
</g>
<polygon style="fill:#00838F;" points="139.129,402.482 180.313,359.975 139.129,359.975 "/>
<path style="fill:#0097A7;" d="M372.87,326.584v-217.6c-52.251,0-94.609,42.358-94.609,94.609v28.383  C278.261,284.227,320.619,326.584,372.87,326.584z"/>
<path style="fill:#00BCD4;" d="M372.87,209.714v-35.061c0-64.545-52.324-116.87-116.87-116.87l-46.748,134.4L256,326.584  C320.545,326.584,372.87,274.259,372.87,209.714z"/>
<path style="fill:#4DD0E1;" d="M256,326.584v-268.8c-64.545,0-116.87,52.324-116.87,116.87v35.061  C139.13,274.259,191.455,326.584,256,326.584z"/>
<path style="fill:#00BCD4;" d="M342.442,359.975h-86.443l-44.52,59.316l44.522,59.316c66.849,0,126.808-29.473,167.613-76.127  C404.726,377.986,371.759,359.975,342.442,359.975z"/>
<path style="fill:#4DD0E1;" d="M169.558,359.975h86.441v118.634c-66.849,0-126.808-29.473-167.613-76.127  C107.274,377.986,140.241,359.975,169.558,359.975z"/>
<g>
</g>
<g>
</g>
<g>
</g>
<g>
</g>
<g>
</g>
<g>
</g>
<g>
</g>
<g>
</g>
<g>
</g>
<g>
</g>
<g>
</g>
<g>
</g>
<g>
</g>
<g>
</g>
<g>
</g>
</svg>
