<?xml version="1.0" encoding="iso-8859-1"?>
<!-- Generator: Adobe Illustrator 19.0.0, SVG Export Plug-In . SVG Version: 6.00 Build 0)  -->
<svg xmlns="http://www.w3.org/2000/svg" xmlns:xlink="http://www.w3.org/1999/xlink" version="1.1" id="Layer_1" x="0px" y="0px" viewBox="0 0 512 512" style="enable-background:new 0 0 512 512;" xml:space="preserve">
<path style="fill:#B2EBF2;" d="M505.926,200.396C480.531,85.749,378.287,0,256,0C114.615,0,0,114.615,0,256  c0,116.934,78.402,215.552,185.505,246.166L505.926,200.396z"/>
<path style="fill:#80DEEA;" d="M512,256c0-19.098-2.108-37.7-6.074-55.604L367.304,61.774l-65.762,67.803l-67.803-67.803  L89.043,405.704l96.462,96.462C207.901,508.567,231.549,512,256,512C397.385,512,512,397.384,512,256z"/>
<rect x="222.609" y="117.426" width="66.783" height="67.896"/>
<polygon style="fill:#00838F;" points="144.696,61.774 144.696,95.165 189.217,106.296 233.739,95.165 233.739,61.774 "/>
<g>
	<polygon style="fill:#006064;" points="144.696,95.165 144.696,128.557 233.739,117.426 233.739,95.165  "/>
	<polygon style="fill:#006064;" points="278.261,61.774 278.261,95.165 322.783,106.296 367.304,95.165 367.304,61.774  "/>
</g>
<polygon style="fill:#263238;" points="278.261,95.165 278.261,117.426 367.304,128.557 367.304,95.165 "/>
<polygon style="fill:#00838F;" points="89.043,289.948 161.391,301.078 233.739,289.948 233.739,117.426 116.87,117.426 "/>
<polygon style="fill:#006064;" points="395.13,117.426 278.261,117.426 278.261,289.948 350.609,301.078 422.957,289.948 "/>
<polygon style="fill:#263238;" points="278.261,289.948 278.261,372.313 350.609,394.574 422.957,372.313 422.957,289.948 "/>
<g>
	<rect x="278.261" y="372.313" style="fill:#006064;" width="144.696" height="33.391"/>
	<polygon style="fill:#006064;" points="89.043,289.948 89.043,372.313 161.391,394.574 233.739,372.313 233.739,289.948  "/>
</g>
<rect x="89.043" y="372.313" style="fill:#00838F;" width="144.696" height="33.391"/>
<polygon style="fill:#263238;" points="256,139.687 233.739,203.687 256,267.687 322.783,267.687 322.783,139.687 "/>
<g>
	<rect x="189.217" y="139.687" style="fill:#006064;" width="66.783" height="128"/>
	<polygon style="fill:#006064;" points="233.739,200.904 256,245.426 300.522,245.426 300.522,223.165  "/>
</g>
<polygon style="fill:#00838F;" points="211.478,223.165 211.478,245.426 256,245.426 256,200.904 "/>
<polygon points="256,161.948 241.16,192.557 256,223.165 300.522,223.165 300.522,161.948 "/>
<rect x="211.478" y="161.948" style="fill:#263238;" width="44.522" height="61.217"/>
<g>
</g>
<g>
</g>
<g>
</g>
<g>
</g>
<g>
</g>
<g>
</g>
<g>
</g>
<g>
</g>
<g>
</g>
<g>
</g>
<g>
</g>
<g>
</g>
<g>
</g>
<g>
</g>
<g>
</g>
</svg>
