<?xml version="1.0" encoding="iso-8859-1"?>
<!-- Generator: Adobe Illustrator 19.0.0, SVG Export Plug-In . SVG Version: 6.00 Build 0)  -->
<svg xmlns="http://www.w3.org/2000/svg" xmlns:xlink="http://www.w3.org/1999/xlink" version="1.1" id="Layer_1" x="0px" y="0px" viewBox="0 0 512 512" style="enable-background:new 0 0 512 512;" xml:space="preserve">
<path style="fill:#FDD835;" d="M506.081,201.107C480.952,86.105,378.54,0,256,0C114.616,0,0,114.616,0,256  c0,127.374,93.032,233.005,214.849,252.691L506.081,201.107z"/>
<path style="fill:#F9A825;" d="M506.081,201.108l-56.411-56.412L40.07,311.652l47.377,47.377l-13.985,8.275l141.388,141.387  C228.248,510.858,241.99,512,256,512c141.384,0,256-114.616,256-256C512,237.155,509.945,218.792,506.081,201.108z"/>
<rect x="40.07" y="200.348" style="fill:#455A64;" width="80.139" height="111.304"/>
<polygon style="fill:#263238;" points="449.67,144.696 261.565,144.696 213.704,256 261.565,367.304 449.67,367.304 "/>
<rect x="73.461" y="144.696" style="fill:#455A64;" width="188.104" height="222.609"/>
<polygon style="fill:#FFEB3B;" points="309.426,166.957 261.565,166.957 239.304,256 261.565,345.043 309.426,345.043 "/>
<rect x="213.704" y="166.957" style="fill:#FFF59D;" width="47.861" height="178.087"/>
<rect x="95.722" y="166.957" style="fill:#607D8B;" width="95.722" height="178.087"/>
<rect x="331.687" y="166.957" style="fill:#FFEB3B;" width="95.722" height="178.087"/>
<g>
</g>
<g>
</g>
<g>
</g>
<g>
</g>
<g>
</g>
<g>
</g>
<g>
</g>
<g>
</g>
<g>
</g>
<g>
</g>
<g>
</g>
<g>
</g>
<g>
</g>
<g>
</g>
<g>
</g>
</svg>
