<?xml version="1.0" encoding="iso-8859-1"?>
<!-- Generator: Adobe Illustrator 19.0.0, SVG Export Plug-In . SVG Version: 6.00 Build 0)  -->
<svg xmlns="http://www.w3.org/2000/svg" xmlns:xlink="http://www.w3.org/1999/xlink" version="1.1" id="Layer_1" x="0px" y="0px" viewBox="0 0 512.001 512.001" style="enable-background:new 0 0 512.001 512.001;" xml:space="preserve">
<path style="fill:#455A64;" d="M502.856,188.034c-11.36-41.407-33.296-80.519-65.829-113.052  c-99.976-99.976-262.07-99.976-362.045,0s-99.976,262.07,0,362.045c32.533,32.533,71.646,54.468,113.052,65.829L502.856,188.034z"/>
<path style="fill:#263238;" d="M437.028,437.028c67.443-67.443,89.379-163.153,65.829-248.993l-89.44-89.44L98.594,413.415  l89.44,89.44C273.875,526.407,369.584,504.47,437.028,437.028z"/>
<path style="fill:#90A4AE;" d="M413.415,240.264c39.121-39.121,39.121-102.549,0-141.67L271.742,208.785L98.594,413.415h86.576  v-31.482h31.482v-31.482h31.482V318.97l56.715-56.715C341.034,276.944,384.065,269.614,413.415,240.264z"/>
<path style="fill:#CFD8DC;" d="M271.746,98.594c-29.35,29.35-36.68,72.382-21.991,108.567L98.594,358.322v55.093L413.415,98.594  C374.295,59.472,310.868,59.472,271.746,98.594z"/>
<path style="fill:#607D8B;" d="M413.236,136.543l-94.266,9.274l-31.482,78.706c30.428,30.428,79.76,30.428,110.188,0  C421.467,200.73,426.653,165.377,413.236,136.543z"/>
<path style="fill:#90A4AE;" d="M375.454,98.768c-28.832-13.41-64.178-8.222-87.968,15.567c-30.428,30.428-30.428,79.76,0,110.188  l66.72-66.72L375.454,98.768z"/>
<path style="fill:#263238;" d="M373.272,176.508l39.965-39.965c-3.741-8.04-8.927-15.574-15.562-22.209l-55.095,39.351  l-39.355,55.091l89.724-12.593L373.272,176.508z"/>
<path style="fill:#455A64;" d="M375.454,98.768l-39.962,39.962l-19.677-19.677l-12.593,89.724l94.451-94.442  C391.037,107.697,383.5,102.509,375.454,98.768z"/>
<g>
</g>
<g>
</g>
<g>
</g>
<g>
</g>
<g>
</g>
<g>
</g>
<g>
</g>
<g>
</g>
<g>
</g>
<g>
</g>
<g>
</g>
<g>
</g>
<g>
</g>
<g>
</g>
<g>
</g>
</svg>
