<?xml version="1.0" encoding="iso-8859-1"?>
<!-- Generator: Adobe Illustrator 19.0.0, SVG Export Plug-In . SVG Version: 6.00 Build 0)  -->
<svg xmlns="http://www.w3.org/2000/svg" xmlns:xlink="http://www.w3.org/1999/xlink" version="1.1" id="Layer_1" x="0px" y="0px" viewBox="0 0 512.001 512.001" style="enable-background:new 0 0 512.001 512.001;" xml:space="preserve">
<path style="fill:#455A64;" d="M502.856,188.034c-11.36-41.407-33.296-80.519-65.829-113.052  c-99.976-99.976-262.07-99.976-362.045,0s-99.976,262.07,0,362.045c32.533,32.533,71.646,54.468,113.052,65.829L502.856,188.034z"/>
<path style="fill:#263238;" d="M437.028,437.028c67.443-67.443,89.379-163.153,65.829-248.993l-89.44-89.44L98.594,413.415  l89.44,89.44C273.875,526.407,369.584,504.47,437.028,437.028z"/>
<path style="fill:#90A4AE;" d="M413.415,240.264c39.121-39.121,39.121-102.549,0-141.67L271.742,208.785L98.594,413.415h86.576  v-31.482h31.482v-31.482h31.482V318.97l56.715-56.715C341.034,276.944,384.065,269.614,413.415,240.264z"/>
<path style="fill:#CFD8DC;" d="M271.746,98.594c-29.35,29.35-36.68,72.382-21.991,108.567L98.594,358.322v55.093L413.415,98.594  C374.295,59.472,310.868,59.472,271.746,98.594z"/>
<path style="fill:#607D8B;" d="M397.674,114.335l-78.706,31.482l-31.482,78.706c30.428,30.428,79.76,30.428,110.188,0  S428.102,144.762,397.674,114.335z"/>
<path style="fill:#90A4AE;" d="M287.487,114.335c-30.428,30.428-30.428,79.76,0,110.188l110.188-110.188  C367.248,83.907,317.915,83.907,287.487,114.335z"/>
<polygon style="fill:#263238;" points="412.003,204.801 381.059,163.334 397.674,114.335 348.484,147.785 315.034,196.976   330.393,246.383 360.267,204.139 "/>
<polygon style="fill:#455A64;" points="348.675,130.951 307.209,100.007 307.87,151.743 265.626,181.617 315.034,196.976   397.674,114.335 "/>
<g>
</g>
<g>
</g>
<g>
</g>
<g>
</g>
<g>
</g>
<g>
</g>
<g>
</g>
<g>
</g>
<g>
</g>
<g>
</g>
<g>
</g>
<g>
</g>
<g>
</g>
<g>
</g>
<g>
</g>
</svg>
