<?xml version="1.0" encoding="iso-8859-1"?>
<!-- Generator: Adobe Illustrator 19.0.0, SVG Export Plug-In . SVG Version: 6.00 Build 0)  -->
<svg xmlns="http://www.w3.org/2000/svg" xmlns:xlink="http://www.w3.org/1999/xlink" version="1.1" id="Layer_1" x="0px" y="0px" viewBox="0 0 512 512" style="enable-background:new 0 0 512 512;" xml:space="preserve">
<path style="fill:#80DEEA;" d="M504.026,192.375C475.738,81.771,375.42,0,256,0C114.616,0,0,114.616,0,256  c0,119.42,81.771,219.738,192.375,248.026L504.026,192.375z"/>
<path style="fill:#00BCD4;" d="M512,256c0-21.965-2.77-43.282-7.974-63.625l-75.504-75.506L83.478,395.13l108.896,108.896  C212.718,509.23,234.035,512,256,512C397.385,512,512,397.385,512,256z"/>
<polygon style="fill:#E0F7FA;" points="428.522,161.391 256,139.13 278.261,350.609 428.522,350.609 "/>
<rect x="278.261" y="183.652" style="fill:#FFFFFF;" width="128" height="144.696"/>
<polygon style="fill:#FFAB91;" points="350.609,116.87 317.217,183.652 384,161.391 428.522,161.391 428.522,116.87 "/>
<polygon style="fill:#00ACC1;" points="350.609,116.87 278.261,116.87 256,144.696 278.261,172.522 350.609,172.522 "/>
<rect x="128" y="116.87" style="fill:#26C6DA;" width="150.261" height="55.652"/>
<polygon style="fill:#80DEEA;" points="384,205.913 211.478,183.652 233.739,395.13 384,395.13 "/>
<polygon style="fill:#B2EBF2;" points="83.478,205.913 83.478,395.13 233.739,395.13 233.739,183.652 "/>
<polygon style="fill:#E0F7FA;" points="361.739,228.174 233.739,228.174 189.217,300.522 233.739,372.87 361.739,372.87 "/>
<rect x="105.739" y="228.174" style="fill:#FFFFFF;" width="128" height="144.696"/>
<polygon style="fill:#FF5722;" points="306.087,161.391 283.826,183.652 306.087,205.913 384,205.913 384,161.391 "/>
<polygon style="fill:#006064;" points="306.087,161.391 233.739,161.391 211.478,183.652 233.739,205.913 306.087,205.913 "/>
<rect x="83.478" y="161.391" style="fill:#00838F;" width="150.261" height="44.522"/>
<g>
</g>
<g>
</g>
<g>
</g>
<g>
</g>
<g>
</g>
<g>
</g>
<g>
</g>
<g>
</g>
<g>
</g>
<g>
</g>
<g>
</g>
<g>
</g>
<g>
</g>
<g>
</g>
<g>
</g>
</svg>
