<?xml version="1.0" encoding="iso-8859-1"?>
<!-- Generator: Adobe Illustrator 19.0.0, SVG Export Plug-In . SVG Version: 6.00 Build 0)  -->
<svg xmlns="http://www.w3.org/2000/svg" xmlns:xlink="http://www.w3.org/1999/xlink" version="1.1" id="Layer_1" x="0px" y="0px" viewBox="0 0 512 512" style="enable-background:new 0 0 512 512;" xml:space="preserve">
<path style="fill:#FFEB3B;" d="M510.073,287.465C511.338,277.152,512,266.654,512,256C512,114.615,397.385,0,256,0S0,114.615,0,256  c0,129.948,96.825,237.27,222.264,253.785L510.073,287.465z"/>
<path style="fill:#FBC02D;" d="M510.073,287.465L256,33.391l-83.478,426.652l49.742,49.742C233.304,511.239,244.562,512,256,512  C386.731,512,494.563,414.004,510.073,287.465z"/>
<polygon style="fill:#37474F;" points="172.522,460.043 256,460.043 289.183,140.023 172.522,195.259 "/>
<polygon style="fill:#263238;" points="256,460.043 339.478,460.043 339.478,195.259 256,140.023 "/>
<polygon style="fill:#546E7A;" points="126.33,204.8 256,204.8 278.261,119.096 256,33.391 "/>
<polygon style="fill:#37474F;" points="256,204.8 385.67,204.8 256,33.391 "/>
<g>
</g>
<g>
</g>
<g>
</g>
<g>
</g>
<g>
</g>
<g>
</g>
<g>
</g>
<g>
</g>
<g>
</g>
<g>
</g>
<g>
</g>
<g>
</g>
<g>
</g>
<g>
</g>
<g>
</g>
</svg>
