<?xml version="1.0" encoding="iso-8859-1"?>
<!-- Generator: Adobe Illustrator 19.0.0, SVG Export Plug-In . SVG Version: 6.00 Build 0)  -->
<svg xmlns="http://www.w3.org/2000/svg" xmlns:xlink="http://www.w3.org/1999/xlink" version="1.1" id="Layer_1" x="0px" y="0px" viewBox="0 0 512 512" style="enable-background:new 0 0 512 512;" xml:space="preserve">
<path style="fill:#E0F7FA;" d="M502.801,187.809C472.949,79.53,373.769,0,256,0C114.616,0,0,114.616,0,256  c0,117.769,79.53,216.949,187.809,246.801L502.801,187.809z"/>
<path style="fill:#CFD8DC;" d="M512,256c0-23.615-3.213-46.477-9.199-68.191L400.696,85.704L111.304,426.296l76.505,76.505  C209.522,508.787,232.385,512,256,512C397.384,512,512,397.384,512,256z"/>
<polygon style="fill:#0097A7;" points="333.913,85.704 289.391,256 333.913,426.296 400.696,426.296 400.696,85.704 "/>
<polygon style="fill:#ECEFF1;" points="356.174,107.965 333.913,256 356.174,404.035 378.435,404.035 378.435,107.965 "/>
<rect x="311.652" y="107.965" style="fill:#FFFFFF;" width="44.522" height="296.07"/>
<polygon style="fill:#00BCD4;" points="333.913,85.704 239.304,85.704 194.783,256 239.304,426.296 333.913,426.296 "/>
<polygon style="fill:#4DD0E1;" points="144.696,85.704 122.435,256 144.696,426.296 239.304,426.296 239.304,85.704 "/>
<rect x="111.304" y="85.704" style="fill:#0097A7;" width="33.391" height="340.591"/>
<path style="fill:#263238;" d="M239.304,153.414L233.739,256l5.565,102.696c6.904-6.653,11.13-15.554,11.13-25.34V196.08  l61.217-10.202v-44.522L239.304,153.414z"/>
<path style="fill:#006064;" d="M228.174,155.27v145.102c-5.815-2.746-12.443-4.302-19.478-4.302  c-23.052,0-41.739,16.693-41.739,37.287c0,20.591,18.687,37.287,41.739,37.287c12.097,0,22.985-4.602,30.609-11.947V153.414  L228.174,155.27z"/>
<g>
</g>
<g>
</g>
<g>
</g>
<g>
</g>
<g>
</g>
<g>
</g>
<g>
</g>
<g>
</g>
<g>
</g>
<g>
</g>
<g>
</g>
<g>
</g>
<g>
</g>
<g>
</g>
<g>
</g>
</svg>
