<?xml version="1.0" encoding="iso-8859-1"?>
<!-- Generator: Adobe Illustrator 19.0.0, SVG Export Plug-In . SVG Version: 6.00 Build 0)  -->
<svg xmlns="http://www.w3.org/2000/svg" xmlns:xlink="http://www.w3.org/1999/xlink" version="1.1" id="Layer_1" x="0px" y="0px" viewBox="0 0 512.001 512.001" style="enable-background:new 0 0 512.001 512.001;" xml:space="preserve">
<path style="fill:#F9A825;" d="M509.095,217.331C490.453,94.295,384.241,0,256.001,0c-141.384,0-256,114.616-256,256  c0,139.122,110.976,252.322,249.233,255.91L509.095,217.331z"/>
<path style="fill:#F57F17;" d="M512.001,256c0-13.145-0.994-26.059-2.905-38.669L374.057,82.292L211.479,474.156l37.754,37.754  c2.248,0.058,4.504,0.09,6.767,0.09C397.385,512,512.001,397.384,512.001,256z"/>
<path style="fill:#FFF176;" d="M256.001,33.391l-44.522,369.53h111.304l8.959-53.75c54.138-27.608,91.215-83.885,91.215-148.824  C422.957,108.14,348.208,33.391,256.001,33.391z"/>
<path style="fill:#FFFDE7;" d="M89.044,200.348c0,64.939,37.078,121.216,91.215,148.824l8.959,53.75h66.783V33.391  C163.793,33.391,89.044,108.14,89.044,200.348z"/>
<path style="fill:#FDD835;" d="M256.001,55.652l-44.522,144.696l44.522,144.696c79.913,0,144.696-64.782,144.696-144.696  S335.914,55.652,256.001,55.652z"/>
<path style="fill:#FFEB3B;" d="M111.305,200.348c0,79.913,64.782,144.696,144.696,144.696V55.652  C176.087,55.652,111.305,120.435,111.305,200.348z"/>
<polygon style="fill:#37474F;" points="233.74,396.243 256.001,474.156 300.522,474.156 322.783,451.896 311.653,440.765   322.783,429.635 322.783,396.243 "/>
<polygon style="fill:#546E7A;" points="189.218,396.243 189.218,429.635 200.348,440.763 189.218,451.896 211.479,474.156   256.001,474.156 256.001,396.243 "/>
<polygon style="fill:#78909C;" points="322.783,429.635 256.001,429.635 244.87,440.765 256.001,451.896 322.783,451.896 "/>
<rect x="189.218" y="429.635" style="fill:#90A4AE;" width="66.783" height="22.261"/>
<polygon style="fill:#FFF9C4;" points="314.799,208.215 287.648,227.935 256.001,205.758 244.87,219.35 256.001,232.94   287.878,255.279 304.234,243.4 298.968,274.997 256.001,274.997 244.87,286.128 256.001,297.258 295.258,297.258 278.867,395.603   300.826,399.262 332.667,208.215 "/>
<polygon style="fill:#FFFFFF;" points="224.121,255.28 255.996,232.937 256.001,205.758 224.351,227.933 197.202,208.215   179.334,208.215 211.176,399.262 233.134,395.603 216.743,297.258 256.001,297.258 256.001,274.997 213.033,274.997   207.767,243.401 "/>
<polygon style="fill:#78909C;" points="333.914,385.113 256.001,385.113 244.87,396.243 256.001,407.374 333.914,407.374 "/>
<rect x="178.087" y="385.113" style="fill:#90A4AE;" width="77.913" height="22.261"/>
<g>
</g>
<g>
</g>
<g>
</g>
<g>
</g>
<g>
</g>
<g>
</g>
<g>
</g>
<g>
</g>
<g>
</g>
<g>
</g>
<g>
</g>
<g>
</g>
<g>
</g>
<g>
</g>
<g>
</g>
</svg>
