<?xml version="1.0" encoding="iso-8859-1"?>
<!-- Generator: Adobe Illustrator 19.0.0, SVG Export Plug-In . SVG Version: 6.00 Build 0)  -->
<svg xmlns="http://www.w3.org/2000/svg" xmlns:xlink="http://www.w3.org/1999/xlink" version="1.1" id="Layer_1" x="0px" y="0px" viewBox="0 0 512 512" style="enable-background:new 0 0 512 512;" xml:space="preserve">
<path style="fill:#EC407A;" d="M511.932,261.339c0.037-1.776,0.068-3.554,0.068-5.339C512,114.616,397.384,0,256,0  C114.615,0,0,114.615,0,256c0,119.42,81.771,219.738,192.375,248.026L511.932,261.339z"/>
<path style="fill:#E91E63;" d="M275.001,68.929L244.87,38.797l-22.261,105.739l31.501,31.501L59.845,188.496l-4.05,82.785  l102.694,102.694l-83.915,12.251l117.801,117.8C212.718,509.23,234.035,512,256,512c139.6,0,253.088-111.743,255.932-250.661  L289.391,38.797L275.001,68.929z"/>
<path style="fill:#FBE9E7;" d="M256,166.797l-44.522,109.714L256,386.226c79.913,0,144.696-64.782,144.696-144.696v-74.733H256z"/>
<path style="fill:#FFFFFF;" d="M99.061,166.797c-33.755,0-61.217,27.462-61.217,61.217s27.462,61.217,61.217,61.217h20.302  c19.714,56.474,73.44,96.994,136.637,96.994V166.797H99.061z M99.061,266.971c-21.481,0-38.957-17.476-38.957-38.957  s17.476-38.957,38.957-38.957h12.243v52.472c0,8.681,0.767,17.181,2.232,25.441H99.061z"/>
<polygon style="fill:#FBE9E7;" points="381.774,419.617 404.035,386.226 233.739,375.096 256,419.617 "/>
<polygon style="fill:#FFFFFF;" points="130.226,419.617 107.965,386.226 256,375.096 256,419.617 "/>
<polygon style="fill:#FFAB91;" points="437.426,386.226 437.426,363.965 256,363.965 223.62,375.096 256,386.226 "/>
<rect x="74.574" y="363.965" style="fill:#FFCCBC;" width="181.426" height="22.261"/>
<rect x="267.13" y="38.797" style="fill:#F48FB1;" width="22.261" height="105.739"/>
<rect x="222.609" y="38.797" style="fill:#F8BBD0;" width="22.261" height="105.739"/>
<g>
</g>
<g>
</g>
<g>
</g>
<g>
</g>
<g>
</g>
<g>
</g>
<g>
</g>
<g>
</g>
<g>
</g>
<g>
</g>
<g>
</g>
<g>
</g>
<g>
</g>
<g>
</g>
<g>
</g>
</svg>
