<?xml version="1.0" encoding="iso-8859-1"?>
<!-- Generator: Adobe Illustrator 19.0.0, SVG Export Plug-In . SVG Version: 6.00 Build 0)  -->
<svg xmlns="http://www.w3.org/2000/svg" xmlns:xlink="http://www.w3.org/1999/xlink" version="1.1" id="Layer_1" x="0px" y="0px" viewBox="0 0 512 512" style="enable-background:new 0 0 512 512;" xml:space="preserve">
<path style="fill:#FFF9C4;" d="M502.388,186.283C472.029,78.782,373.217,0,256,0C114.615,0,0,114.615,0,256  c0,141.008,114.008,255.377,254.872,255.986L502.388,186.283z"/>
<path style="fill:#FFF176;" d="M512,256c0-24.168-3.354-47.551-9.612-69.717l-79.431-79.431L256,309.426l-38.957,164.73  l37.829,37.829c0.376,0.001,0.75,0.014,1.128,0.014C397.384,512,512,397.384,512,256z"/>
<g>
	<polygon style="fill:#E64A19;" points="422.957,106.852 422.957,151.374 222.497,173.635 256,106.852  "/>
	<polygon style="fill:#E64A19;" points="300.522,309.426 294.957,474.156 256,474.156 234.014,287.165  "/>
</g>
<g>
	<polygon style="fill:#FF5722;" points="256,287.165 256,474.156 217.043,474.156 211.478,309.426  "/>
	<polygon style="fill:#FF5722;" points="256,106.852 256,173.635 89.043,151.374 89.043,106.852  "/>
	<polygon style="fill:#FF5722;" points="422.957,151.374 300.522,309.426 256,309.426 222.497,230.4 256,151.374  "/>
</g>
<polygon style="fill:#FF8A65;" points="256,151.374 256,173.635 222.497,230.4 256,287.165 256,309.426 211.478,309.426   89.043,151.374 "/>
<polygon style="fill:#FF7043;" points="222.393,287.165 134.447,173.635 256,173.635 256,287.165 "/>
<g>
</g>
<g>
</g>
<g>
</g>
<g>
</g>
<g>
</g>
<g>
</g>
<g>
</g>
<g>
</g>
<g>
</g>
<g>
</g>
<g>
</g>
<g>
</g>
<g>
</g>
<g>
</g>
<g>
</g>
</svg>
