<?xml version="1.0" encoding="iso-8859-1"?>
<!-- Generator: Adobe Illustrator 19.0.0, SVG Export Plug-In . SVG Version: 6.00 Build 0)  -->
<svg xmlns="http://www.w3.org/2000/svg" xmlns:xlink="http://www.w3.org/1999/xlink" version="1.1" id="Layer_1" x="0px" y="0px" viewBox="0 0 512 512" style="enable-background:new 0 0 512 512;" xml:space="preserve">
<path style="fill:#E64A19;" d="M511.889,248.653C507.999,110.667,394.927,0,256,0C114.615,0,0,114.616,0,256  c0,121.783,85.039,223.695,198.972,249.616L511.889,248.653z"/>
<path style="fill:#BF360C;" d="M512,256c0-2.458-0.043-4.905-0.111-7.347l-91.158-91.157l-75.687,40.07L244.87,97.391L91.27,397.913  l107.703,107.703C217.312,509.788,236.397,512,256,512C397.385,512,512,397.384,512,256z"/>
<polygon style="fill:#FBC02D;" points="420.73,157.496 420.73,217.6 328.872,239.861 343.93,157.496 "/>
<polygon style="fill:#FFEB3B;" points="343.93,157.496 343.93,239.861 267.13,217.6 267.13,157.496 "/>
<polygon style="fill:#F9A825;" points="420.73,217.6 420.73,277.704 328.872,299.965 343.93,217.6 "/>
<g>
	<polygon style="fill:#FBC02D;" points="343.93,217.6 343.93,299.965 267.13,277.704 267.13,217.6  "/>
	<polygon style="fill:#FBC02D;" points="420.73,277.704 420.73,337.809 328.872,360.07 343.93,277.704  "/>
</g>
<polygon style="fill:#FFEB3B;" points="343.93,277.704 343.93,360.07 267.13,337.809 267.13,277.704 "/>
<polygon style="fill:#F9A825;" points="420.73,337.809 420.73,397.913 343.93,397.913 316.397,367.861 343.93,337.809 "/>
<rect x="267.13" y="337.809" style="fill:#FBC02D;" width="76.8" height="60.104"/>
<polygon style="fill:#F9A825;" points="244.87,97.391 244.87,157.496 153.011,179.757 168.07,97.391 "/>
<g>
	<polygon style="fill:#FBC02D;" points="168.07,97.391 168.07,179.757 91.27,157.496 91.27,97.391  "/>
	<polygon style="fill:#FBC02D;" points="244.87,157.496 244.87,217.6 153.011,239.861 168.07,157.496  "/>
</g>
<polygon style="fill:#FFEB3B;" points="168.07,157.496 168.07,239.861 91.27,217.6 91.27,157.496 "/>
<polygon style="fill:#F9A825;" points="244.87,217.6 244.87,277.704 153.011,299.965 168.07,217.6 "/>
<g>
	<polygon style="fill:#FBC02D;" points="168.07,217.6 168.07,299.965 91.27,277.704 91.27,217.6  "/>
	<polygon style="fill:#FBC02D;" points="244.87,277.704 244.87,337.809 153.011,360.07 168.07,277.704  "/>
</g>
<polygon style="fill:#FFEB3B;" points="168.07,277.704 168.07,360.07 91.27,337.809 91.27,277.704 "/>
<polygon style="fill:#F9A825;" points="244.87,337.809 244.87,397.913 168.07,397.913 140.536,367.861 168.07,337.809 "/>
<rect x="91.27" y="337.809" style="fill:#FBC02D;" width="76.8" height="60.104"/>
<path style="fill:#F9A825;" d="M256,249.878l-27.056,87.93L256,425.739c48.562,0,87.93-39.368,87.93-87.93  S304.562,249.878,256,249.878z"/>
<g>
	<path style="fill:#FFEB3B;" d="M168.07,337.809c0,48.562,39.368,87.93,87.93,87.93V249.878   C207.438,249.878,168.07,289.247,168.07,337.809z"/>
	<path style="fill:#FFEB3B;" d="M256,272.139l-20.206,65.67L256,403.478c36.269,0,65.67-29.401,65.67-65.67   S292.268,272.139,256,272.139z"/>
</g>
<path style="fill:#FFF9C4;" d="M190.33,337.809c0,36.268,29.401,65.67,65.67,65.67V272.139  C219.731,272.139,190.33,301.54,190.33,337.809z"/>
<g>
</g>
<g>
</g>
<g>
</g>
<g>
</g>
<g>
</g>
<g>
</g>
<g>
</g>
<g>
</g>
<g>
</g>
<g>
</g>
<g>
</g>
<g>
</g>
<g>
</g>
<g>
</g>
<g>
</g>
</svg>
