<?xml version="1.0" encoding="iso-8859-1"?>
<!-- Generator: Adobe Illustrator 19.0.0, SVG Export Plug-In . SVG Version: 6.00 Build 0)  -->
<svg xmlns="http://www.w3.org/2000/svg" xmlns:xlink="http://www.w3.org/1999/xlink" version="1.1" id="Layer_1" x="0px" y="0px" viewBox="0 0 512 512" style="enable-background:new 0 0 512 512;" xml:space="preserve">
<path style="fill:#546E7A;" d="M511.721,244.25C505.578,108.321,393.445,0,256,0C114.616,0,0,114.616,0,256s114.616,256,256,256  c2.154,0,4.301-0.029,6.441-0.081L511.721,244.25z"/>
<path style="fill:#37474F;" d="M512,256c0-3.939-0.103-7.855-0.279-11.75L389.738,122.266C155.823,122.266,66.785,256,66.785,256  l121.387,121.387l-42.518,17.743l116.787,116.787C400.849,508.501,512,395.232,512,256z"/>
<path style="fill:#4DD0E1;" d="M116.873,256.001h50.087c0-49.096,39.947-89.043,89.043-89.043s89.043,39.947,89.043,89.043  s-39.947,89.043-89.043,89.043l-44.522,66.104h59.129c79.1-7.387,141.219-74.15,141.219-155.147  c0-85.923-69.904-155.826-155.826-155.826c-80.621,0-147.138,61.542-155.04,140.115L116.873,256.001z"/>
<path style="fill:#00BCD4;" d="M116.872,256.001H66.785c0-104.337,84.881-189.217,189.217-189.217S445.22,151.664,445.22,256.001  s-84.881,189.217-189.217,189.217l-22.261-25.043l22.261-25.043c76.845,0,139.13-62.286,139.13-139.13s-62.286-139.13-139.13-139.13  S116.872,179.157,116.872,256.001z"/>
<polygon style="fill:#4DD0E1;" points="256.002,478.61 256.002,395.132 200.828,380.8 145.654,395.132 "/>
<polygon style="fill:#B2EBF2;" points="256.002,395.132 256.002,311.653 145.654,395.132 "/>
<polygon style="fill:#FFFFFF;" points="322.785,267.132 244.87,267.13 244.87,189.219 267.13,189.219 267.13,244.87   322.785,244.871 "/>
<g>
</g>
<g>
</g>
<g>
</g>
<g>
</g>
<g>
</g>
<g>
</g>
<g>
</g>
<g>
</g>
<g>
</g>
<g>
</g>
<g>
</g>
<g>
</g>
<g>
</g>
<g>
</g>
<g>
</g>
</svg>
