<?xml version="1.0" encoding="iso-8859-1"?>
<!-- Generator: Adobe Illustrator 19.0.0, SVG Export Plug-In . SVG Version: 6.00 Build 0)  -->
<svg xmlns="http://www.w3.org/2000/svg" xmlns:xlink="http://www.w3.org/1999/xlink" version="1.1" id="Layer_1" x="0px" y="0px" viewBox="0 0 512 512" style="enable-background:new 0 0 512 512;" xml:space="preserve">
<path style="fill:#FF5722;" d="M506.236,201.818C481.375,86.459,378.792,0,256,0C114.615,0,0,114.615,0,256  c0,120.982,83.928,222.349,196.733,249.09L506.236,201.818z"/>
<path style="fill:#BF360C;" d="M512,256c0-18.592-2-36.715-5.764-54.182l-116.67-116.67l-15.357,26.487l-61.217-61.217  L206.81,56.484l-73.245,385.439l63.167,63.167C215.757,509.6,235.597,512,256,512C397.385,512,512,397.384,512,256z"/>
<polygon style="fill:#90A4AE;" points="398.425,196.452 378.435,441.923 256,441.923 233.739,174.191 "/>
<polygon style="fill:#B0BEC5;" points="256,174.191 256,441.923 133.565,441.923 113.575,196.452 "/>
<polygon style="fill:#78909C;" points="400.696,168.626 398.425,196.452 256,196.452 233.739,140.8 "/>
<polygon style="fill:#90A4AE;" points="256,140.8 256,196.452 113.575,196.452 111.304,168.626 "/>
<path style="fill:#CFD8DC;" d="M322.783,74.017v33.391h-22.261V74.017c0-6.133-4.998-11.13-11.13-11.13H256l-11.13-11.13L256,40.626  h33.391C307.801,40.626,322.783,55.608,322.783,74.017z"/>
<path style="fill:#FFFFFF;" d="M256,40.626v22.261h-33.391c-6.133,0-11.13,4.998-11.13,11.13v33.391h-22.261V74.017  c0-18.41,14.982-33.391,33.391-33.391H256z"/>
<polygon style="fill:#B0BEC5;" points="400.696,151.93 233.739,163.061 256,85.148 389.565,85.148 "/>
<g>
	<polygon style="fill:#CFD8DC;" points="256,85.148 256,163.061 111.304,151.93 122.435,85.148  "/>
	<rect x="256" y="151.93" style="fill:#CFD8DC;" width="166.957" height="22.261"/>
</g>
<rect x="89.043" y="151.93" style="fill:#FFFFFF;" width="166.957" height="22.261"/>
<g>
</g>
<g>
</g>
<g>
</g>
<g>
</g>
<g>
</g>
<g>
</g>
<g>
</g>
<g>
</g>
<g>
</g>
<g>
</g>
<g>
</g>
<g>
</g>
<g>
</g>
<g>
</g>
<g>
</g>
</svg>
