<?xml version="1.0" encoding="iso-8859-1"?>
<!-- Generator: Adobe Illustrator 19.0.0, SVG Export Plug-In . SVG Version: 6.00 Build 0)  -->
<svg xmlns="http://www.w3.org/2000/svg" xmlns:xlink="http://www.w3.org/1999/xlink" version="1.1" id="Layer_1" x="0px" y="0px" viewBox="0 0 512.001 512.001" style="enable-background:new 0 0 512.001 512.001;" xml:space="preserve">
<path style="fill:#E91E63;" d="M502.856,188.034c-11.36-41.407-33.296-80.519-65.829-113.052  c-99.976-99.976-262.07-99.976-362.045,0s-99.976,262.07,0,362.045c32.533,32.533,71.646,54.468,113.052,65.829L502.856,188.034z"/>
<path style="fill:#C2185B;" d="M437.028,437.028c67.443-67.443,89.379-163.153,65.829-248.993l-89.44-89.44L114.335,429.156  l73.699,73.699C273.875,526.407,369.584,504.47,437.028,437.028z"/>
<polygon style="fill:#F57F17;" points="366.979,176.512 335.498,145.03 98.594,413.415 114.335,429.156 "/>
<rect x="38.399" y="268.093" transform="matrix(-0.7071 0.7071 -0.7071 -0.7071 567.957 323.1911)" style="fill:#F9A825;" width="357.29" height="22.261"/>
<polygon style="fill:#FBC02D;" points="434.939,234.481 388.456,172.196 413.415,98.594 300.384,176.646 289.282,222.728   312.351,296.943 357.226,233.489 "/>
<polygon style="fill:#FFEB3B;" points="339.814,123.554 277.527,77.071 278.521,154.783 215.066,199.658 289.282,222.728   413.415,98.594 "/>
<g>
</g>
<g>
</g>
<g>
</g>
<g>
</g>
<g>
</g>
<g>
</g>
<g>
</g>
<g>
</g>
<g>
</g>
<g>
</g>
<g>
</g>
<g>
</g>
<g>
</g>
<g>
</g>
<g>
</g>
</svg>
