<?xml version="1.0" encoding="iso-8859-1"?>
<!-- Generator: Adobe Illustrator 19.0.0, SVG Export Plug-In . SVG Version: 6.00 Build 0)  -->
<svg xmlns="http://www.w3.org/2000/svg" xmlns:xlink="http://www.w3.org/1999/xlink" version="1.1" id="Layer_1" x="0px" y="0px" viewBox="0 0 512 512" style="enable-background:new 0 0 512 512;" xml:space="preserve">
<path style="fill:#FFEB3B;" d="M509.785,222.264C493.27,96.825,385.948,0,256,0C114.616,0,0,114.616,0,256s114.616,256,256,256  c10.654,0,21.152-0.662,31.465-1.927L509.785,222.264z"/>
<path style="fill:#FBC02D;" d="M512,256c0-11.438-0.761-22.696-2.215-33.736l-49.742-49.742l-171.486,37.566L204.8,126.33  L33.391,256l254.073,254.073C414.004,494.563,512,386.731,512,256z"/>
<polygon style="fill:#37474F;" points="460.043,172.522 460.043,256 140.023,289.183 195.259,172.522 "/>
<polygon style="fill:#263238;" points="460.043,256 460.043,339.478 195.259,339.478 140.023,256 "/>
<polygon style="fill:#546E7A;" points="204.8,126.33 204.8,256 119.096,278.261 33.391,256 "/>
<polygon style="fill:#37474F;" points="204.8,256 204.8,385.67 33.391,256 "/>
<g>
</g>
<g>
</g>
<g>
</g>
<g>
</g>
<g>
</g>
<g>
</g>
<g>
</g>
<g>
</g>
<g>
</g>
<g>
</g>
<g>
</g>
<g>
</g>
<g>
</g>
<g>
</g>
<g>
</g>
</svg>
