<?xml version="1.0" encoding="iso-8859-1"?>
<!-- Generator: Adobe Illustrator 19.0.0, SVG Export Plug-In . SVG Version: 6.00 Build 0)  -->
<svg xmlns="http://www.w3.org/2000/svg" xmlns:xlink="http://www.w3.org/1999/xlink" version="1.1" id="Layer_1" x="0px" y="0px" viewBox="0 0 512 512" style="enable-background:new 0 0 512 512;" xml:space="preserve">
<path style="fill:#CFD8DC;" d="M503.231,189.329C473.895,80.272,374.322,0,256,0C114.615,0,0,114.616,0,256  c0,118.322,80.273,217.896,189.33,247.233L503.231,189.329z"/>
<path style="fill:#B0BEC5;" d="M122.435,436.313l66.901,66.901C210.592,508.931,232.937,512,256,512c141.384,0,256-114.615,256-256  c0-23.063-3.068-45.408-8.786-66.665L389.565,75.687L122.435,436.313z"/>
<polygon style="fill:#D84315;" points="389.565,75.687 389.565,436.313 256,436.313 189.217,267.13 256,75.687 "/>
<rect x="122.435" y="75.687" style="fill:#FF5722;" width="133.565" height="360.626"/>
<polygon style="fill:#BF360C;" points="367.304,97.948 367.304,186.991 256,186.991 233.739,142.47 256,97.948 "/>
<rect x="144.696" y="97.948" style="fill:#D84315;" width="111.304" height="89.043"/>
<polygon style="fill:#BF360C;" points="367.304,276.035 367.304,414.052 256,414.052 233.739,345.043 256,276.035 "/>
<rect x="144.696" y="276.035" style="fill:#D84315;" width="111.304" height="138.017"/>
<polygon style="fill:#FF5722;" points="345.043,298.296 345.043,391.791 256,391.791 238.191,345.043 256,298.296 "/>
<rect x="166.957" y="298.296" style="fill:#FF7043;" width="89.043" height="93.496"/>
<polygon style="fill:#ECEFF1;" points="345.043,120.209 345.043,164.73 256,164.73 238.191,142.47 256,120.209 "/>
<rect x="166.957" y="120.209" style="fill:#FFFFFF;" width="89.043" height="44.522"/>
<path style="fill:#FBC02D;" d="M256,209.252l-7.421,22.261L256,253.774c12.275,0,22.261-9.986,22.261-22.261  S268.275,209.252,256,209.252z"/>
<path style="fill:#FFEB3B;" d="M233.739,231.513c0,12.275,9.986,22.261,22.261,22.261v-44.522  C243.725,209.252,233.739,219.238,233.739,231.513z"/>
<rect x="345.043" y="209.252" style="fill:#FBC02D;" width="22.261" height="44.522"/>
<g>
</g>
<g>
</g>
<g>
</g>
<g>
</g>
<g>
</g>
<g>
</g>
<g>
</g>
<g>
</g>
<g>
</g>
<g>
</g>
<g>
</g>
<g>
</g>
<g>
</g>
<g>
</g>
<g>
</g>
</svg>
