<?xml version="1.0" encoding="iso-8859-1"?>
<!-- Generator: Adobe Illustrator 19.0.0, SVG Export Plug-In . SVG Version: 6.00 Build 0)  -->
<svg xmlns="http://www.w3.org/2000/svg" xmlns:xlink="http://www.w3.org/1999/xlink" version="1.1" id="Layer_1" x="0px" y="0px" viewBox="0 0 512 512" style="enable-background:new 0 0 512 512;" xml:space="preserve">
<path style="fill:#FFEB3B;" d="M497.2,341.938C506.772,315.075,512,286.15,512,256C512,114.615,397.384,0,256,0  C114.615,0,0,114.615,0,256s114.615,256,256,256c19.093,0,37.691-2.107,55.591-6.072L497.2,341.938z"/>
<path style="fill:#FBC02D;" d="M497.2,341.938L370.155,214.894l-24.26,24.26L210.733,103.992l-61.792,98.209l-109.617,31.46  l272.267,272.267C397.978,486.798,467.946,424.036,497.2,341.938z"/>
<path style="fill:#37474F;" d="M210.855,148.48c124.16,0,225.48,101.788,225.48,225.948l-29.332-49.79l-229.718-90.932V148.48  H210.855z"/>
<path style="fill:#263238;" d="M268.989,233.706c84.424,0,154.991,61.818,167.346,140.722  c-24.71-33.636-64.523-55.507-109.212-55.507H177.286v-85.215H268.989z"/>
<polygon style="fill:#546E7A;" points="210.733,103.992 210.733,233.661 125.028,255.922 39.324,233.661 "/>
<polygon style="fill:#37474F;" points="210.733,233.661 210.733,363.331 39.324,233.661 "/>
<g>
</g>
<g>
</g>
<g>
</g>
<g>
</g>
<g>
</g>
<g>
</g>
<g>
</g>
<g>
</g>
<g>
</g>
<g>
</g>
<g>
</g>
<g>
</g>
<g>
</g>
<g>
</g>
<g>
</g>
</svg>
