<?xml version="1.0" encoding="iso-8859-1"?>
<!-- Generator: Adobe Illustrator 19.0.0, SVG Export Plug-In . SVG Version: 6.00 Build 0)  -->
<svg xmlns="http://www.w3.org/2000/svg" xmlns:xlink="http://www.w3.org/1999/xlink" version="1.1" id="Layer_1" x="0px" y="0px" viewBox="0 0 512 512" style="enable-background:new 0 0 512 512;" xml:space="preserve">
<path style="fill:#FCE4EC;" d="M508.462,213.461C488.199,92.325,382.89,0,256,0C114.616,0,0,114.616,0,256  c0,127.374,93.032,233.003,214.849,252.691L508.462,213.461z"/>
<path style="fill:#F8BBD0;" d="M512,256c0-14.495-1.223-28.702-3.538-42.539l-81.031-81.031l36.435,104.91L316.133,89.607  L51.2,345.043l163.649,163.647C228.247,510.857,241.989,512,256,512C397.385,512,512,397.384,512,256z"/>
<polygon style="fill:#607D8B;" points="289.391,237.726 289.391,333.664 361.739,297.116 361.739,256 "/>
<polygon style="fill:#90A4AE;" points="289.391,256 361.739,256 361.739,214.884 289.391,178.336 "/>
<polygon points="293.872,422.393 260.479,233.739 316.131,256 316.133,422.393 "/>
<polygon style="fill:#263238;" points="293.872,89.607 271.609,256 316.131,256 316.133,89.607 "/>
<polygon style="fill:#37474F;" points="293.872,256 116.87,211.478 139.13,345.043 293.872,422.393 "/>
<polygon style="fill:#607D8B;" points="293.872,256 116.87,256 139.13,166.957 293.872,89.607 "/>
<g>
	<path style="fill:#FCE4EC;" d="M456.27,256l11.13-11.13l11.13,11.13c0,46.726-18.154,90.613-51.1,123.57l-15.75-15.75   C440.442,335.071,456.27,296.782,456.27,256z"/>
	<path style="fill:#FCE4EC;" d="M407.886,256l11.13-11.13L430.136,256c0,32.345-12.321,64.701-36.942,89.333l-15.75-15.75   C397.735,309.293,407.886,282.646,407.886,256z"/>
</g>
<g>
	<path style="fill:#FFFFFF;" d="M478.531,256H456.27c0-40.782-15.827-79.071-44.589-107.821l15.75-15.75   C460.377,165.387,478.531,209.274,478.531,256z"/>
	<path style="fill:#FFFFFF;" d="M430.136,256h-22.25c0-26.646-10.151-53.293-30.442-73.583l15.75-15.75   C417.814,191.299,430.136,223.655,430.136,256z"/>
</g>
<polygon style="fill:#607D8B;" points="95.165,230.931 51.2,256 51.2,345.043 139.13,345.043 139.13,256 "/>
<rect x="51.2" y="166.957" style="fill:#90A4AE;" width="87.93" height="89.043"/>
<g>
</g>
<g>
</g>
<g>
</g>
<g>
</g>
<g>
</g>
<g>
</g>
<g>
</g>
<g>
</g>
<g>
</g>
<g>
</g>
<g>
</g>
<g>
</g>
<g>
</g>
<g>
</g>
<g>
</g>
</svg>
