<?xml version="1.0" encoding="iso-8859-1"?>
<!-- Generator: Adobe Illustrator 19.0.0, SVG Export Plug-In . SVG Version: 6.00 Build 0)  -->
<svg xmlns="http://www.w3.org/2000/svg" xmlns:xlink="http://www.w3.org/1999/xlink" version="1.1" id="Layer_1" x="0px" y="0px" viewBox="0 0 512 512" style="enable-background:new 0 0 512 512;" xml:space="preserve">
<path style="fill:#B2EBF2;" d="M506.106,201.225C481.022,86.164,378.582,0,256,0C114.616,0,0,114.616,0,256  c0,119.072,81.297,219.15,191.411,247.775L506.106,201.225z"/>
<path style="fill:#4DD0E1;" d="M512,256c0-18.803-2.047-37.126-5.894-54.775L359.513,54.632l-128,66.597V349.18l-106.419,88.279  l66.317,66.317C212.045,509.138,233.688,512,256,512C397.384,512,512,397.384,512,256z"/>
<polygon style="fill:#263238;" points="241.53,74.296 230.4,114.458 241.53,154.62 359.513,134.957 359.513,54.632 "/>
<path style="fill:#006064;" d="M214.817,78.748V349.18c-11.162-7.545-25.035-12.02-40.07-12.02  c-36.883,0-66.783,26.91-66.783,60.104s29.9,60.104,66.783,60.104s66.783-26.91,66.783-60.104V74.296L214.817,78.748z"/>
<g>
</g>
<g>
</g>
<g>
</g>
<g>
</g>
<g>
</g>
<g>
</g>
<g>
</g>
<g>
</g>
<g>
</g>
<g>
</g>
<g>
</g>
<g>
</g>
<g>
</g>
<g>
</g>
<g>
</g>
</svg>
