<?xml version="1.0" encoding="iso-8859-1"?>
<!-- Generator: Adobe Illustrator 19.0.0, SVG Export Plug-In . SVG Version: 6.00 Build 0)  -->
<svg xmlns="http://www.w3.org/2000/svg" xmlns:xlink="http://www.w3.org/1999/xlink" version="1.1" id="Layer_1" x="0px" y="0px" viewBox="0 0 512 512" style="enable-background:new 0 0 512 512;" xml:space="preserve">
<path style="fill:#E0F7FA;" d="M256,0C114.615,0,0,114.616,0,256c0,116.5,77.82,214.824,184.312,245.827l317.515-317.513  C470.825,77.82,372.5,0,256,0z"/>
<path style="fill:#CFD8DC;" d="M110.052,427.548l74.264,74.264C207.065,508.435,231.115,512,256,512c141.384,0,256-114.616,256-256  c0-24.885-3.565-48.935-10.188-71.683l-99.864-99.864L110.052,427.548z"/>
<path style="fill:#37474F;" d="M408.487,100.174v311.652c0,12.243-10.017,22.261-22.261,22.261H256L201.928,256L256,77.913h130.226  C398.47,77.913,408.487,87.93,408.487,100.174z"/>
<path style="fill:#607D8B;" d="M256,77.913v356.174H125.774c-12.243,0-22.261-10.017-22.261-22.261V100.174  c0-12.243,10.017-22.261,22.261-22.261H256z"/>
<g>
	<circle style="fill:#B0BEC5;" cx="136.904" cy="111.304" r="11.13"/>
	<circle style="fill:#B0BEC5;" cx="136.904" cy="400.696" r="11.13"/>
	<circle style="fill:#B0BEC5;" cx="375.096" cy="111.304" r="11.13"/>
	<circle style="fill:#B0BEC5;" cx="375.096" cy="400.696" r="11.13"/>
</g>
<polygon style="fill:#CFD8DC;" points="256,100.174 289.391,232.07 256,355.276 125.774,355.276 125.774,169.183 194.783,100.174   "/>
<polygon style="fill:#B0BEC5;" points="317.217,100.174 256,100.174 256,411.826 317.217,411.826 386.226,342.817 386.226,169.183   "/>
<path style="fill:#CFD8DC;" d="M256,122.435L211.478,230.4L256,338.365c59.628,0,107.965-48.337,107.965-107.965  S315.628,122.435,256,122.435z"/>
<path style="fill:#FFFFFF;" d="M148.035,230.4c0,59.628,48.337,107.965,107.965,107.965v-215.93  C196.372,122.435,148.035,170.772,148.035,230.4z"/>
<path style="fill:#607D8B;" d="M256,179.197L234.886,230.4L256,281.603c28.279,0,51.203-22.924,51.203-51.203  S284.279,179.197,256,179.197z"/>
<path style="fill:#90A4AE;" d="M204.797,230.4c0,28.279,22.924,51.203,51.203,51.203V179.196  C227.721,179.197,204.797,202.121,204.797,230.4z"/>
<path style="fill:#B0BEC5;" d="M256,201.461L244.066,230.4L256,259.339c15.982,0,28.939-12.957,28.939-28.939  S271.982,201.461,256,201.461z"/>
<path style="fill:#CFD8DC;" d="M227.061,230.4c0,15.982,12.957,28.939,28.939,28.939v-57.878  C240.018,201.461,227.061,214.418,227.061,230.4z"/>
<polygon style="fill:#90A4AE;" points="307.2,345.322 307.2,365.368 256,372.268 244.87,355.272 256,338.365 "/>
<path style="fill:#B0BEC5;" d="M256,338.365v33.903l-78.336,10.563c-1.258,0.178-2.549,0.267-3.851,0.267  c-15.371,0-27.826-12.455-27.826-27.826c0-15.36,12.455-27.826,27.826-27.826c1.302,0,2.593,0.1,3.851,0.278L256,338.365z"/>
<g>
</g>
<g>
</g>
<g>
</g>
<g>
</g>
<g>
</g>
<g>
</g>
<g>
</g>
<g>
</g>
<g>
</g>
<g>
</g>
<g>
</g>
<g>
</g>
<g>
</g>
<g>
</g>
<g>
</g>
</svg>
