<?xml version="1.0" encoding="iso-8859-1"?>
<!-- Generator: Adobe Illustrator 19.0.0, SVG Export Plug-In . SVG Version: 6.00 Build 0)  -->
<svg xmlns="http://www.w3.org/2000/svg" xmlns:xlink="http://www.w3.org/1999/xlink" version="1.1" id="Layer_1" x="0px" y="0px" viewBox="0 0 512 512" style="enable-background:new 0 0 512 512;" xml:space="preserve">
<path style="fill:#FF5722;" d="M507.433,207.719C484.853,89.421,380.878,0,256,0C114.615,0,0,114.615,0,256  c0,117.142,78.68,215.905,186.075,246.331L507.433,207.719z"/>
<path style="fill:#BF360C;" d="M295.243,170.059L173.88,48.696l64.019,263.185c0,0-184.954-68.472-144.384,97.891l92.561,92.561  C208.302,508.629,231.757,512,256,512c141.384,0,256-114.615,256-256c0-16.508-1.582-32.643-4.567-48.28L366.767,67.053  L295.243,170.059z"/>
<polygon style="fill:#E0F7FA;" points="243.144,168.671 226.511,225.414 154.602,59.826 173.88,48.696 "/>
<path style="fill:#4DD0E1;" d="M154.602,59.826L243.144,213.2l-38.556,22.253l-66.282-114.81  C126.063,99.439,133.398,72.07,154.602,59.826z"/>
<path style="fill:#E0F7FA;" d="M320.356,302.403l-10.93,48.206l-46.369-102.923c0-0.011,12.856-22.272,12.856-22.272  L320.356,302.403z"/>
<polygon style="fill:#4DD0E1;" points="301.078,313.533 312.209,332.811 295.914,393.628 237.357,292.196 263.057,247.686 "/>
<polygon style="fill:#B2EBF2;" points="275.912,225.414 246.262,276.774 230.3,190.931 243.144,168.671 "/>
<path style="fill:#00ACC1;" d="M263.057,247.674c0,0.011-25.7,44.522-25.7,44.522l-32.768-56.743l25.7-44.511L263.057,247.674z"/>
<path style="fill:#4DD0E1;" d="M324.43,287.196c-37.206,21.481-49.999,69.226-28.518,106.431  c21.481,37.206,69.226,49.999,106.431,28.518s49.999-69.226,28.518-106.431S361.636,265.716,324.43,287.196z M341.126,316.114  c21.26-12.275,48.543-4.964,60.818,16.296c12.275,21.26,4.964,48.543-16.296,60.818s-48.543,4.964-60.818-16.296  C312.555,355.672,319.865,328.389,341.126,316.114z"/>
<polygon style="fill:#FFFFFF;" points="338.121,48.695 191.644,302.402 207.658,362.167 357.399,59.825 "/>
<g>
	<path style="fill:#B2EBF2;" d="M81.139,315.715c-21.481,37.206-8.687,84.951,28.518,106.431s84.951,8.687,106.431-28.518   s8.687-84.951-28.518-106.431C150.364,265.716,102.619,278.509,81.139,315.715z M187.17,376.932   c-12.275,21.26-39.558,28.571-60.818,16.296s-28.571-39.558-16.296-60.818c12.275-21.26,39.558-28.571,60.818-16.296   S199.445,355.672,187.17,376.932z"/>
	<path style="fill:#B2EBF2;" d="M199.792,332.81l16.296,60.818l157.608-272.985c12.243-21.207,4.911-48.574-16.296-60.818   L199.792,332.81z"/>
</g>
<g>
</g>
<g>
</g>
<g>
</g>
<g>
</g>
<g>
</g>
<g>
</g>
<g>
</g>
<g>
</g>
<g>
</g>
<g>
</g>
<g>
</g>
<g>
</g>
<g>
</g>
<g>
</g>
<g>
</g>
</svg>
