<?xml version="1.0" encoding="iso-8859-1"?>
<!-- Generator: Adobe Illustrator 19.0.0, SVG Export Plug-In . SVG Version: 6.00 Build 0)  -->
<svg xmlns="http://www.w3.org/2000/svg" xmlns:xlink="http://www.w3.org/1999/xlink" version="1.1" id="Layer_1" x="0px" y="0px" viewBox="0 0 512 512" style="enable-background:new 0 0 512 512;" xml:space="preserve">
<path style="fill:#FFEB3B;" d="M505.77,199.683C480.111,85.394,378.035,0,256,0C114.616,0,0,114.616,0,256  c0,122.034,85.395,224.112,199.684,249.77L505.77,199.683z"/>
<path style="fill:#FBC02D;" d="M144.696,450.783l54.989,54.989C217.806,509.84,236.65,512,256,512c141.384,0,256-114.616,256-256  c0-19.35-2.16-38.194-6.23-56.317L367.304,61.217L144.696,450.783z"/>
<polygon style="fill:#455A64;" points="256,61.217 200.348,239.304 367.304,239.304 367.304,61.217 "/>
<rect x="144.696" y="61.217" style="fill:#546E7A;" width="111.304" height="178.087"/>
<rect x="166.957" y="83.478" style="fill:#37474F;" width="22.261" height="155.826"/>
<g>
	<rect x="244.87" y="83.478" style="fill:#263238;" width="22.261" height="155.826"/>
	<rect x="322.783" y="83.478" style="fill:#263238;" width="22.261" height="155.826"/>
</g>
<polygon style="fill:#607D8B;" points="256,161.391 189.217,256 256,350.609 456.348,350.609 456.348,161.391 "/>
<rect x="55.652" y="161.391" style="fill:#90A4AE;" width="200.348" height="189.217"/>
<polygon style="fill:#E0F7FA;" points="256,228.174 233.739,317.217 256,450.783 300.522,450.783 322.783,406.261 367.304,384   367.304,250.435 "/>
<polygon style="fill:#FFFFFF;" points="144.696,250.435 144.696,450.783 256,450.783 256,228.174 "/>
<polygon style="fill:#80DEEA;" points="300.522,450.783 300.522,384 367.304,384 "/>
<polygon style="fill:#4DD0E1;" points="292.427,239.304 233.739,239.304 256,339.478 292.427,339.478 "/>
<rect x="189.217" y="239.304" style="fill:#80DEEA;" width="66.783" height="100.174"/>
<circle style="fill:#FFF59D;" cx="233.739" cy="250.435" r="22.261"/>
<polygon style="fill:#0097A7;" points="292.427,250.435 286.258,257.975 286.356,257.975 274.138,276.464 274.138,313.446   286.356,331.94 286.261,331.94 292.427,339.478 322.783,339.478 322.783,239.304 "/>
<polygon style="fill:#FFFFFF;" points="256,294.954 286.261,331.94 278.388,313.448 286.261,294.957 278.388,276.466   286.258,257.973 "/>
<circle style="fill:#FFEB3B;" cx="422.957" cy="194.783" r="11.13"/>
<path style="fill:#263238;" d="M345.043,217.043H256l-22.261,16.696L256,250.435h111.304v-11.13  C367.304,227.01,357.338,217.043,345.043,217.043z"/>
<path style="fill:#455A64;" d="M166.957,217.043c-12.295,0-22.261,9.966-22.261,22.261v11.13H256v-33.391H166.957z"/>
<g>
</g>
<g>
</g>
<g>
</g>
<g>
</g>
<g>
</g>
<g>
</g>
<g>
</g>
<g>
</g>
<g>
</g>
<g>
</g>
<g>
</g>
<g>
</g>
<g>
</g>
<g>
</g>
<g>
</g>
</svg>
