<?xml version="1.0" encoding="iso-8859-1"?>
<!-- Generator: Adobe Illustrator 19.0.0, SVG Export Plug-In . SVG Version: 6.00 Build 0)  -->
<svg xmlns="http://www.w3.org/2000/svg" xmlns:xlink="http://www.w3.org/1999/xlink" version="1.1" id="Layer_1" x="0px" y="0px" viewBox="0 0 512 512" style="enable-background:new 0 0 512 512;" xml:space="preserve">
<path style="fill:#E91E63;" d="M502.801,187.809C472.949,79.53,373.769,0,256,0C114.616,0,0,114.616,0,256  c0,117.769,79.53,216.949,187.809,246.801L502.801,187.809z"/>
<path style="fill:#AD1457;" d="M512,256c0-23.615-3.213-46.477-9.199-68.191L400.696,85.704L111.304,426.296l76.505,76.505  C209.522,508.787,232.385,512,256,512C397.384,512,512,397.384,512,256z"/>
<polygon style="fill:#F9A825;" points="333.913,85.704 289.391,256 333.913,426.296 400.696,426.296 400.696,85.704 "/>
<polygon style="fill:#ECEFF1;" points="356.174,107.965 333.913,256 356.174,404.035 378.435,404.035 378.435,381.774   367.304,358.678 378.435,335.583 378.435,313.322 367.304,290.226 378.435,267.13 378.435,107.965 "/>
<rect x="345.043" y="267.13" style="fill:#E91E63;" width="33.391" height="46.191"/>
<rect x="345.043" y="335.583" style="fill:#AD1457;" width="33.391" height="46.191"/>
<polygon style="fill:#FFFFFF;" points="311.652,107.965 311.652,404.035 356.174,404.035 356.174,244.871 345.043,221.774   356.174,198.678 356.174,176.417 345.043,153.322 356.174,130.226 356.174,107.965 "/>
<rect x="322.783" y="130.226" style="fill:#F48FB1;" width="33.391" height="46.191"/>
<rect x="322.783" y="198.678" style="fill:#F06292;" width="33.391" height="46.191"/>
<polygon style="fill:#FDD835;" points="333.913,85.704 239.304,85.704 194.783,256 239.304,426.296 333.913,426.296 "/>
<polygon style="fill:#FFEB3B;" points="144.696,85.704 122.435,256 144.696,426.296 239.304,426.296 239.304,85.704 "/>
<rect x="111.304" y="85.704" style="fill:#FBC02D;" width="33.391" height="340.591"/>
<g>
	<polygon style="fill:#263238;" points="228.156,289.409 239.304,356.174 272.696,356.174 272.696,289.391  "/>
	<path style="fill:#263238;" d="M239.304,155.826l-11.148,66.848c0.012-0.023,44.54-0.066,44.54-0.066v-66.783H239.304z"/>
</g>
<path style="fill:#37474F;" d="M239.304,155.826c-24.549,0-44.522,19.972-44.522,44.522v111.304  c0,24.549,19.972,44.522,44.522,44.522V155.826z"/>
<g>
</g>
<g>
</g>
<g>
</g>
<g>
</g>
<g>
</g>
<g>
</g>
<g>
</g>
<g>
</g>
<g>
</g>
<g>
</g>
<g>
</g>
<g>
</g>
<g>
</g>
<g>
</g>
<g>
</g>
</svg>
