<?xml version="1.0" encoding="iso-8859-1"?>
<!-- Generator: Adobe Illustrator 19.0.0, SVG Export Plug-In . SVG Version: 6.00 Build 0)  -->
<svg xmlns="http://www.w3.org/2000/svg" xmlns:xlink="http://www.w3.org/1999/xlink" version="1.1" id="Layer_1" x="0px" y="0px" viewBox="0 0 512.001 512.001" style="enable-background:new 0 0 512.001 512.001;" xml:space="preserve">
<path style="fill:#CFD8DC;" d="M505.026,196.516c-10.594-44.536-33.252-86.787-67.997-121.533  c-99.977-99.977-262.071-99.977-362.046,0c-99.977,99.977-99.977,262.071,0,362.046c34.746,34.746,76.996,57.402,121.533,67.997  L505.026,196.516z"/>
<path style="fill:#B0BEC5;" d="M437.03,437.03c65.23-65.23,87.888-156.902,67.997-240.514L378.772,70.261l-38.291,22.549  L317.933,131.1L131.1,317.932l-38.291,22.55l-22.55,38.291l126.255,126.255C280.128,524.917,371.799,502.26,437.03,437.03z"/>
<g>
	<path style="fill:#607D8B;" d="M261.98,320.868c8.926,33.419,0.284,70.552-25.933,96.769   c-27.814,27.814-67.907,35.843-102.829,24.108l44.996-45.201l-13.065-49.68l90.858-122.341l35.418,66.9L261.98,320.868z"/>
	<path style="fill:#607D8B;" d="M433.599,215.268l-52.694-21.212l60.839-60.839C450.803,160.159,448.087,190.185,433.599,215.268z"/>
</g>
<path style="fill:#455A64;" d="M433.599,215.268c-4.282,7.43-9.61,14.426-15.961,20.779c-26.217,26.217-63.35,34.859-96.769,25.933  l-29.444,29.444l-35.418-35.418l29.657-61.139l61.312-29.829l0.118,0.464l49.553,12.814L433.599,215.268z"/>
<path style="fill:#90A4AE;" d="M130.998,317.829l-60.737,60.942c-9.044-26.941-6.328-56.951,8.162-82.035L130.998,317.829z"/>
<path style="fill:#78909C;" d="M271.747,240.265l-106.6,106.6l-0.039-0.165l-49.852-13.129l-36.835-36.835  c4.282-7.43,9.602-14.419,15.954-20.771c26.217-26.217,63.35-34.859,96.769-25.933l29.444-29.444L271.747,240.265z"/>
<path style="fill:#607D8B;" d="M346.974,165.038l-90.968,90.968l-35.418-35.418l29.444-29.444  c-8.926-33.419-0.284-70.552,25.933-96.769C303.78,66.561,343.865,58.54,378.771,70.26l-44.808,45.39L346.974,165.038z"/>
<polygon style="fill:#37474F;" points="331.842,181.734 315.487,181.12 315.975,197.349 350.736,232.111 366.477,216.37 "/>
<g>
	
		<rect x="294.43" y="146.042" transform="matrix(-0.7071 0.7071 -0.7071 -0.7071 642.6865 76.2067)" style="fill:#455A64;" width="22.261" height="50.332"/>
	<polygon style="fill:#455A64;" points="198.759,315.157 182.404,314.542 182.892,330.771 217.653,365.533 233.396,349.792  "/>
</g>
<rect x="161.353" y="279.455" transform="matrix(-0.7071 0.7071 -0.7071 -0.7071 509.8473 398.0572)" style="fill:#607D8B;" width="22.261" height="50.332"/>
<g>
</g>
<g>
</g>
<g>
</g>
<g>
</g>
<g>
</g>
<g>
</g>
<g>
</g>
<g>
</g>
<g>
</g>
<g>
</g>
<g>
</g>
<g>
</g>
<g>
</g>
<g>
</g>
<g>
</g>
</svg>
