<?xml version="1.0" encoding="iso-8859-1"?>
<!-- Generator: Adobe Illustrator 19.0.0, SVG Export Plug-In . SVG Version: 6.00 Build 0)  -->
<svg xmlns="http://www.w3.org/2000/svg" xmlns:xlink="http://www.w3.org/1999/xlink" version="1.1" id="Layer_1" x="0px" y="0px" viewBox="0 0 512 512" style="enable-background:new 0 0 512 512;" xml:space="preserve">
<path style="fill:#00ACC1;" d="M502.388,186.283C472.029,78.782,373.217,0,256,0C114.615,0,0,114.616,0,256  c0,117.217,78.782,216.029,186.283,246.388L502.388,186.283z"/>
<path style="fill:#00838F;" d="M512,256c0-24.168-3.354-47.551-9.612-69.717L400.696,84.591L111.304,427.409l74.979,74.979  C208.449,508.646,231.832,512,256,512C397.385,512,512,397.384,512,256z"/>
<path style="fill:#E0F7FA;" d="M233.739,95.722h155.826c0,72.415-31.399,118.84-89.043,154.713v11.13  c57.645,35.873,89.043,82.298,89.043,154.713H233.739V95.722z"/>
<path style="fill:#FFFFFF;" d="M256,95.722v320.556H122.435c0-72.415,31.399-118.84,89.043-154.713v-11.13  c-57.645-35.873-89.043-82.298-89.043-154.713H256z"/>
<g>
	<rect x="244.87" y="220.75" style="fill:#FF5722;" width="22.261" height="70.5"/>
	<path style="fill:#FF5722;" d="M267.13,231.88l15.75-9.795c26.88-16.729,44.8-31.622,56.198-48.451H256l-22.261,27.826L256,231.88   H267.13z"/>
	<path style="fill:#FF5722;" d="M282.88,289.914l-15.75-9.795H256l-22.261,136.159l122.435-11.13   C356.174,351.789,339.044,324.864,282.88,289.914z"/>
</g>
<g>
	<path style="fill:#FF7043;" d="M244.87,280.12l-15.75,9.795c-56.164,34.95-73.294,61.874-73.294,115.233L256,416.278V280.12H244.87   z"/>
	<path style="fill:#FF7043;" d="M229.12,222.086l15.75,9.795H256v-58.246h-83.078C184.32,190.464,202.24,205.357,229.12,222.086z"/>
</g>
<path style="fill:#B2EBF2;" d="M133.565,416.278l-22.261-11.13c0-75.77,33.55-114.028,88.151-149.148  c-54.6-35.12-88.151-73.377-88.151-149.148l22.261-11.13v11.13c0,68.922,29.449,100.314,83.794,134.133l5.249,3.267v23.496  l-5.249,3.267c-54.345,33.819-83.794,65.21-83.794,134.133V416.278z"/>
<path style="fill:#80DEEA;" d="M378.435,416.278v-11.13c0-68.923-29.449-100.314-83.794-134.133l-5.249-3.267v-23.496l5.249-3.267  c54.345-33.819,83.794-65.211,83.794-134.133v-11.13l22.261,11.13c0,75.77-33.55,114.028-88.151,149.148  c54.6,35.12,88.151,73.377,88.151,149.148L378.435,416.278z"/>
<polygon points="400.696,84.591 400.696,106.852 256,106.852 229.692,95.722 256,84.591 "/>
<rect x="111.304" y="84.591" style="fill:#006064;" width="144.696" height="22.261"/>
<polygon points="400.696,427.409 400.696,405.148 256,405.148 229.692,416.278 256,427.409 "/>
<rect x="111.304" y="405.148" style="fill:#006064;" width="144.696" height="22.261"/>
<g>
</g>
<g>
</g>
<g>
</g>
<g>
</g>
<g>
</g>
<g>
</g>
<g>
</g>
<g>
</g>
<g>
</g>
<g>
</g>
<g>
</g>
<g>
</g>
<g>
</g>
<g>
</g>
<g>
</g>
</svg>
