<?xml version="1.0" encoding="iso-8859-1"?>
<!-- Generator: Adobe Illustrator 19.0.0, SVG Export Plug-In . SVG Version: 6.00 Build 0)  -->
<svg xmlns="http://www.w3.org/2000/svg" xmlns:xlink="http://www.w3.org/1999/xlink" version="1.1" id="Layer_1" x="0px" y="0px" viewBox="0 0 512 512" style="enable-background:new 0 0 512 512;" xml:space="preserve">
<path style="fill:#CFD8DC;" d="M508.139,211.513C487.08,91.335,382.21,0,256,0C114.616,0,0,114.615,0,256  c0,117.493,79.156,216.488,187.046,246.594L508.139,211.513z"/>
<path style="fill:#B0BEC5;" d="M512,256c0-15.175-1.329-30.038-3.861-44.487L411.826,115.2l-18.922,25.6l-92.383-92.383  l-44.523,200.346l-66.781-66.78l-89.043,233.739l86.872,86.872C208.985,508.716,232.109,512,256,512  C397.384,512,512,397.384,512,256z"/>
<polygon style="fill:#E64A19;" points="144.696,181.983 189.217,181.983 189.217,404.591 111.304,404.591 "/>
<polygon style="fill:#FF5722;" points="100.174,181.983 144.696,181.983 144.696,404.591 100.174,393.461 "/>
<polygon style="fill:#E64A19;" points="256,48.417 300.522,48.417 300.522,404.591 222.609,404.591 "/>
<rect x="211.478" y="48.417" style="fill:#FF5722;" width="44.522" height="356.174"/>
<polygon style="fill:#E64A19;" points="367.304,115.2 411.826,115.2 411.826,393.461 333.913,404.591 "/>
<rect x="322.783" y="115.2" style="fill:#FF5722;" width="44.522" height="289.391"/>
<polygon style="fill:#263238;" points="411.826,393.461 411.826,415.722 256,415.722 233.739,404.591 256,393.461 "/>
<rect x="100.174" y="393.461" style="fill:#37474F;" width="155.826" height="22.261"/>
<g>
</g>
<g>
</g>
<g>
</g>
<g>
</g>
<g>
</g>
<g>
</g>
<g>
</g>
<g>
</g>
<g>
</g>
<g>
</g>
<g>
</g>
<g>
</g>
<g>
</g>
<g>
</g>
<g>
</g>
</svg>
