<?xml version="1.0" encoding="iso-8859-1"?>
<!-- Generator: Adobe Illustrator 19.0.0, SVG Export Plug-In . SVG Version: 6.00 Build 0)  -->
<svg xmlns="http://www.w3.org/2000/svg" xmlns:xlink="http://www.w3.org/1999/xlink" version="1.1" id="Layer_1" x="0px" y="0px" viewBox="0 0 512 512" style="enable-background:new 0 0 512 512;" xml:space="preserve">
<path style="fill:#FF5722;" d="M511.987,254.979C511.436,114.065,397.044,0,256,0C114.615,0,0,114.616,0,256  c0,117.195,78.751,215.993,186.222,246.371L511.987,254.979z"/>
<path style="fill:#BF360C;" d="M217.045,51.757l-94.61,386.827l63.787,63.787C208.405,508.641,231.81,512,256,512  c141.384,0,256-114.616,256-256c0-0.342-0.011-0.68-0.013-1.021L301.861,44.853L217.045,51.757z"/>
<path style="fill:#CFD8DC;" d="M311.653,68.452v33.391h-22.261V68.452c0-6.133-4.998-11.13-11.13-11.13h-22.261l-11.13-11.13  l11.13-11.13h22.261C296.672,35.061,311.653,50.042,311.653,68.452z"/>
<path style="fill:#FFFFFF;" d="M256.001,35.061v22.261H233.74c-6.133,0-11.13,4.998-11.13,11.13v33.391h-22.261V68.452  c0-18.41,14.982-33.391,33.391-33.391H256.001z"/>
<polygon style="fill:#90A4AE;" points="389.565,190.887 389.565,438.584 256,438.584 233.739,168.626 "/>
<polygon style="fill:#B0BEC5;" points="256,168.626 256,438.584 122.435,438.584 122.435,190.887 "/>
<polygon style="fill:#90A4AE;" points="267.13,140.8 267.13,190.887 122.435,190.887 122.436,168.626 "/>
<polygon style="fill:#78909C;" points="389.566,168.626 389.565,190.887 256,190.887 256,140.8 "/>
<rect x="172.522" y="140.8" style="fill:#90A4AE;" width="22.261" height="247.697"/>
<g>
	<rect x="317.217" y="140.8" style="fill:#78909C;" width="22.261" height="247.697"/>
	<rect x="244.87" y="140.8" style="fill:#78909C;" width="22.261" height="247.697"/>
</g>
<polygon style="fill:#CFD8DC;" points="389.566,146.365 389.566,168.626 256.001,168.626 233.74,118.539 "/>
<polygon style="fill:#FFFFFF;" points="256.001,118.539 256.001,168.626 122.436,168.626 122.436,146.365 "/>
<path style="fill:#B0BEC5;" d="M389.566,124.104v22.261H256.001l-22.261-33.391l22.261-33.391h89.043  C369.532,79.583,389.566,99.617,389.566,124.104z"/>
<path style="fill:#CFD8DC;" d="M256.001,79.583v66.783H122.436v-22.261c0-24.487,20.035-44.522,44.522-44.522H256.001z"/>
<g>
</g>
<g>
</g>
<g>
</g>
<g>
</g>
<g>
</g>
<g>
</g>
<g>
</g>
<g>
</g>
<g>
</g>
<g>
</g>
<g>
</g>
<g>
</g>
<g>
</g>
<g>
</g>
<g>
</g>
</svg>
