<?xml version="1.0" encoding="iso-8859-1"?>
<!-- Generator: Adobe Illustrator 19.0.0, SVG Export Plug-In . SVG Version: 6.00 Build 0)  -->
<svg xmlns="http://www.w3.org/2000/svg" xmlns:xlink="http://www.w3.org/1999/xlink" version="1.1" id="Layer_1" x="0px" y="0px" viewBox="0 0 512 512" style="enable-background:new 0 0 512 512;" xml:space="preserve">
<path style="fill:#00BCD4;" d="M504.027,192.375C475.738,81.771,375.421,0,256,0C114.616,0,0,114.616,0,256  c0,119.42,81.771,219.738,192.375,248.026L504.027,192.375z"/>
<path style="fill:#0097A7;" d="M512,256c0-21.965-2.77-43.282-7.974-63.625l-69.939-69.94L77.913,389.565l114.462,114.462  C212.718,509.23,234.035,512,256,512C397.385,512,512,397.385,512,256z"/>
<polygon style="fill:#E0F7FA;" points="77.913,122.435 77.913,389.565 256,345.043 256,166.957 "/>
<polygon style="fill:#B2EBF2;" points="434.087,122.435 256,166.957 256,345.043 434.087,389.565 "/>
<polygon style="fill:#80DEEA;" points="256,211.478 233.739,300.522 256,389.565 434.087,389.565 "/>
<polygon style="fill:#B2EBF2;" points="77.913,389.565 256,389.565 256,211.478 "/>
<polygon style="fill:#E0F7FA;" points="256,122.435 233.739,211.478 256,300.522 434.087,122.435 "/>
<polygon style="fill:#FFFFFF;" points="77.913,122.435 256,300.522 256,122.435 "/>
<g>
</g>
<g>
</g>
<g>
</g>
<g>
</g>
<g>
</g>
<g>
</g>
<g>
</g>
<g>
</g>
<g>
</g>
<g>
</g>
<g>
</g>
<g>
</g>
<g>
</g>
<g>
</g>
<g>
</g>
</svg>
