<?xml version="1.0" encoding="iso-8859-1"?>
<!-- Generator: Adobe Illustrator 19.0.0, SVG Export Plug-In . SVG Version: 6.00 Build 0)  -->
<svg xmlns="http://www.w3.org/2000/svg" xmlns:xlink="http://www.w3.org/1999/xlink" version="1.1" id="Layer_1" x="0px" y="0px" viewBox="0 0 512 512" style="enable-background:new 0 0 512 512;" xml:space="preserve">
<path style="fill:#FF7043;" d="M256,0C114.615,0,0,114.616,0,256c0,53.805,16.603,103.728,44.963,144.934l465.396-173.911  C495.964,99.283,387.586,0,256,0z"/>
<path style="fill:#FF5722;" d="M512,256c0-9.799-0.57-19.464-1.642-28.977l-41.859-41.859h-27.541v-27.541l-86.577-86.577  l-114.796,86.962L111.068,467.032C152.278,495.388,202.195,512,256,512C397.385,512,512,397.384,512,256z"/>
<rect x="207.599" y="92.88" transform="matrix(-0.7071 0.7071 -0.7071 -0.7071 566.8472 -10.0802)" style="fill:#FFFFFF;" width="155.825" height="38.956"/>
<rect x="321.718" y="207" transform="matrix(-0.7071 0.7071 -0.7071 -0.7071 842.356 104.041)" style="fill:#ECEFF1;" width="155.825" height="38.956"/>
<path style="fill:#37474F;" d="M115.81,371.007l-43.59,63.181c0.917,0.946,1.825,1.897,2.76,2.832  c11.292,11.292,23.382,21.295,36.078,30.035l37.807-37.807L115.81,371.007z"/>
<path style="fill:#607D8B;" d="M44.947,400.944c8.741,12.696,18.743,24.785,30.033,36.076c0.001,0.001,53.422-53.419,53.422-53.419  l-45.648-20.463L44.947,400.944z"/>
<polygon style="fill:#263238;" points="116.157,395.845 149.214,428.9 289.021,435.483 382.965,341.539 240.805,199.379 "/>
<g>
	<polygon style="fill:#37474F;" points="276.714,235.288 170.464,129.037 76.52,222.982 83.102,362.789 116.157,395.845  "/>
	<polygon style="fill:#37474F;" points="297.177,214.825 266.731,220.583 260.973,251.029 382.965,373.02 419.168,336.817  "/>
</g>
<rect x="131.815" y="146.33" transform="matrix(-0.7071 -0.7071 0.7071 -0.7071 250.7041 447.7038)" style="fill:#607D8B;" width="172.52" height="51.2"/>
<g>
</g>
<g>
</g>
<g>
</g>
<g>
</g>
<g>
</g>
<g>
</g>
<g>
</g>
<g>
</g>
<g>
</g>
<g>
</g>
<g>
</g>
<g>
</g>
<g>
</g>
<g>
</g>
<g>
</g>
</svg>
