<?xml version="1.0" encoding="iso-8859-1"?>
<!-- Generator: Adobe Illustrator 19.0.0, SVG Export Plug-In . SVG Version: 6.00 Build 0)  -->
<svg xmlns="http://www.w3.org/2000/svg" xmlns:xlink="http://www.w3.org/1999/xlink" version="1.1" id="Layer_1" x="0px" y="0px" viewBox="0 0 512 512" style="enable-background:new 0 0 512 512;" xml:space="preserve">
<path style="fill:#FFF176;" d="M504.026,192.374C475.737,81.771,375.42,0,256,0C114.616,0,0,114.616,0,256  c0,119.42,81.771,219.737,192.374,248.026L504.026,192.374z"/>
<path style="fill:#FFEB3B;" d="M512,256c0-21.965-2.77-43.283-7.974-63.626L389.565,77.913l-267.13,356.174l69.939,69.939  C212.717,509.23,234.035,512,256,512C397.384,512,512,397.384,512,256z"/>
<polygon style="fill:#FF5722;" points="322.783,77.913 211.478,100.174 256,434.087 389.565,434.087 389.565,77.913 "/>
<g>
	<polygon style="fill:#FF7043;" points="189.217,77.913 122.435,77.913 122.435,434.087 256,434.087 256,100.174  "/>
	<polygon style="fill:#FF7043;" points="256,100.174 233.739,278.261 256,411.826 367.304,411.826 367.304,100.174  "/>
</g>
<rect x="144.696" y="100.174" style="fill:#FF8A65;" width="111.304" height="311.652"/>
<polygon style="fill:#455A64;" points="256,77.913 300.522,77.913 311.652,100.174 256,100.174 244.87,89.043 "/>
<polygon style="fill:#607D8B;" points="211.478,77.913 256,77.913 256,100.174 200.348,100.174 "/>
<polygon style="fill:#CFD8DC;" points="300.522,77.913 300.522,122.435 256,122.435 244.87,133.565 256,144.696 322.783,144.696   322.783,77.913 "/>
<polygon style="fill:#ECEFF1;" points="211.478,122.435 211.478,77.913 189.217,77.913 189.217,144.696 256,144.696 256,122.435 "/>
<g>
</g>
<g>
</g>
<g>
</g>
<g>
</g>
<g>
</g>
<g>
</g>
<g>
</g>
<g>
</g>
<g>
</g>
<g>
</g>
<g>
</g>
<g>
</g>
<g>
</g>
<g>
</g>
<g>
</g>
</svg>
