<?xml version="1.0" encoding="iso-8859-1"?>
<!-- Generator: Adobe Illustrator 19.0.0, SVG Export Plug-In . SVG Version: 6.00 Build 0)  -->
<svg xmlns="http://www.w3.org/2000/svg" xmlns:xlink="http://www.w3.org/1999/xlink" version="1.1" id="Layer_1" x="0px" y="0px" viewBox="0 0 512 512" style="enable-background:new 0 0 512 512;" xml:space="preserve">
<path style="fill:#78909C;" d="M504.026,192.374C475.737,81.771,375.42,0,256,0C114.616,0,0,114.616,0,256  c0,119.42,81.771,219.737,192.374,248.026L504.026,192.374z"/>
<path style="fill:#455A64;" d="M512,256c0-21.965-2.77-43.283-7.974-63.626L389.565,77.913l-267.13,356.174l69.939,69.939  C212.717,509.23,234.035,512,256,512C397.384,512,512,397.384,512,256z"/>
<polygon style="fill:#E0F7FA;" points="256,77.913 211.478,256 256,434.087 322.783,434.087 345.043,389.565 389.565,367.304   389.565,77.913 "/>
<rect x="122.435" y="77.913" style="fill:#FFFFFF;" width="133.565" height="356.174"/>
<polygon style="fill:#80DEEA;" points="322.783,434.087 322.783,367.304 389.565,367.304 "/>
<polygon style="fill:#455A64;" points="212.177,299.823 196.437,299.823 160.436,335.823 160.436,351.564 176.177,351.564   212.177,315.563 "/>
<rect x="199.073" y="283.911" transform="matrix(-0.7071 0.7071 -0.7071 -0.7071 579.0085 350.2504)" style="fill:#546E7A;" width="35.784" height="22.261"/>
<g>
	
		<rect x="149.299" y="340.439" transform="matrix(-0.7071 0.7071 -0.7071 -0.7071 522.4676 486.7257)" style="fill:#78909C;" width="22.261" height="22.261"/>
	<path style="fill:#78909C;" d="M342.039,169.961l-75.071,46.919l-46.919,75.071c33.687,33.687,88.304,33.687,121.992,0   S375.727,203.648,342.039,169.961z"/>
</g>
<path style="fill:#B0BEC5;" d="M220.048,169.961c-33.687,33.687-33.687,88.304,0,121.992l121.992-121.992  C308.352,136.274,253.735,136.274,220.048,169.961z"/>
<circle style="fill:#E0F7FA;" cx="281.043" cy="230.957" r="64"/>
<g>
</g>
<g>
</g>
<g>
</g>
<g>
</g>
<g>
</g>
<g>
</g>
<g>
</g>
<g>
</g>
<g>
</g>
<g>
</g>
<g>
</g>
<g>
</g>
<g>
</g>
<g>
</g>
<g>
</g>
</svg>
