<?xml version="1.0" encoding="iso-8859-1"?>
<!-- Generator: Adobe Illustrator 19.0.0, SVG Export Plug-In . SVG Version: 6.00 Build 0)  -->
<svg xmlns="http://www.w3.org/2000/svg" xmlns:xlink="http://www.w3.org/1999/xlink" version="1.1" id="Layer_1" x="0px" y="0px" viewBox="0 0 512 512" style="enable-background:new 0 0 512 512;" xml:space="preserve">
<path style="fill:#80DEEA;" d="M502.387,186.281C472.028,78.781,373.216,0,256,0C114.615,0,0,114.616,0,256  c0,117.217,78.781,216.028,186.281,246.387L502.387,186.281z"/>
<path style="fill:#00BCD4;" d="M512,256c0-24.169-3.354-47.554-9.613-69.719l-88.333-88.333l-130.227,38.957L244.87,97.948  L98.593,244.87l45.87,45.87L97.948,414.053l88.333,88.333C208.446,508.646,231.831,512,256,512C397.385,512,512,397.384,512,256z"/>
<polygon style="fill:#263238;" points="244.87,98.593 244.87,244.87 171.731,244.87 138.34,171.731 171.731,98.593 "/>
<rect x="98.593" y="98.593" style="fill:#37474F;" width="73.138" height="146.276"/>
<polygon points="414.053,97.948 414.053,244.87 340.592,244.87 307.054,171.409 340.592,97.948 "/>
<rect x="267.13" y="97.948" style="fill:#37474F;" width="73.461" height="146.922"/>
<polygon style="fill:#263238;" points="244.87,97.948 244.87,244.87 171.409,244.87 137.87,171.409 171.409,97.948 "/>
<rect x="97.948" y="97.948" style="fill:#455A64;" width="73.461" height="146.922"/>
<polygon points="414.053,267.132 414.053,414.053 340.592,414.053 307.054,340.592 340.592,267.132 "/>
<rect x="267.13" y="267.13" style="fill:#37474F;" width="73.461" height="146.922"/>
<polygon style="fill:#263238;" points="244.87,267.132 244.87,414.053 171.409,414.053 137.87,340.592 171.409,267.132 "/>
<rect x="97.948" y="267.13" style="fill:#455A64;" width="73.461" height="146.922"/>
<g>
	<rect x="120.765" y="329.461" style="fill:#FFFFFF;" width="101.287" height="22.261"/>
	<polygon style="fill:#FFFFFF;" points="222.052,160.278 182.539,160.278 182.539,120.765 160.278,120.765 160.278,160.278    120.765,160.278 120.765,182.539 160.278,182.539 160.278,222.052 182.539,222.052 182.539,182.539 222.052,182.539  "/>
</g>
<g>
	<polygon style="fill:#CFD8DC;" points="384.274,199.348 356.334,171.409 384.274,143.469 368.533,127.728 340.592,155.668    312.653,127.728 296.912,143.469 324.852,171.409 296.912,199.348 312.653,215.089 340.592,187.149 368.533,215.089  "/>
	<circle style="fill:#CFD8DC;" cx="340.591" cy="298.296" r="11.13"/>
	<circle style="fill:#CFD8DC;" cx="340.591" cy="382.887" r="11.13"/>
	<rect x="289.948" y="329.461" style="fill:#CFD8DC;" width="101.287" height="22.261"/>
</g>
<g>
</g>
<g>
</g>
<g>
</g>
<g>
</g>
<g>
</g>
<g>
</g>
<g>
</g>
<g>
</g>
<g>
</g>
<g>
</g>
<g>
</g>
<g>
</g>
<g>
</g>
<g>
</g>
<g>
</g>
</svg>
