<?xml version="1.0" encoding="iso-8859-1"?>
<!-- Generator: Adobe Illustrator 19.0.0, SVG Export Plug-In . SVG Version: 6.00 Build 0)  -->
<svg xmlns="http://www.w3.org/2000/svg" xmlns:xlink="http://www.w3.org/1999/xlink" version="1.1" id="Layer_1" x="0px" y="0px" viewBox="0 0 512 512" style="enable-background:new 0 0 512 512;" xml:space="preserve">
<path style="fill:#455A64;" d="M447.524,223.643l62.681,62.681C511.378,276.378,512,266.262,512,256C512,114.616,397.385,0,256,0  C114.616,0,0,114.616,0,256c0,117.217,78.782,216.031,186.283,246.388L447.524,223.643z"/>
<path style="fill:#263238;" d="M447.524,223.643l-213.642-46.527L148.035,91.27L80.219,239.384l101.763,101.763l-78.47,78.47  l82.77,82.77C208.449,508.647,231.832,512,256,512c131.123,0,239.203-98.587,254.205-225.677L447.524,223.643z"/>
<g>
	<rect x="103.513" y="91.27" style="fill:#FFF9C4;" width="44.522" height="104.626"/>
	<polygon style="fill:#FFF9C4;" points="408.487,203.687 256,47.861 233.739,274.922 311.652,419.617 408.487,419.617  "/>
</g>
<polygon style="fill:#FFFFFF;" points="103.513,203.687 103.513,419.617 200.348,419.617 256,286.052 256,47.861 "/>
<polygon style="fill:#EC407A;" points="311.652,286.052 256,286.052 230.957,352.835 256,419.617 311.652,419.617 "/>
<rect x="200.348" y="286.052" style="fill:#F06292;" width="55.652" height="133.565"/>
<polygon style="fill:#C2185B;" points="256,32.12 244.87,63.603 256,63.603 431.782,239.384 447.522,223.643 "/>
<polygon style="fill:#E91E63;" points="64.477,223.643 80.218,239.384 256,63.603 256,32.12 "/>
<g>
</g>
<g>
</g>
<g>
</g>
<g>
</g>
<g>
</g>
<g>
</g>
<g>
</g>
<g>
</g>
<g>
</g>
<g>
</g>
<g>
</g>
<g>
</g>
<g>
</g>
<g>
</g>
<g>
</g>
</svg>
