<?xml version="1.0" encoding="iso-8859-1"?>
<!-- Generator: Adobe Illustrator 19.0.0, SVG Export Plug-In . SVG Version: 6.00 Build 0)  -->
<svg xmlns="http://www.w3.org/2000/svg" xmlns:xlink="http://www.w3.org/1999/xlink" version="1.1" id="Layer_1" x="0px" y="0px" viewBox="0 0 512 512" style="enable-background:new 0 0 512 512;" xml:space="preserve">
<path style="fill:#37474F;" d="M502.163,185.495C471.545,78.397,372.931,0,256,0C114.615,0,0,114.616,0,256  c0,117.865,79.661,217.109,188.073,246.872L502.163,185.495z"/>
<path style="fill:#263238;" d="M512,256c0-24.455-3.434-48.106-9.837-70.505l-95.112-95.112l-302.103,190.8l72.642,72.642  l-69.281,69.281l79.765,79.765C209.707,508.811,232.48,512,256,512C397.384,512,512,397.384,512,256z"/>
<path style="fill:#00838F;" d="M455.081,355.681c-17.106,34.097-42.71,63.191-74.036,84.502l-108.349-37.701l55.652-55.306h89.043  C429.742,347.175,442.72,350.288,455.081,355.681z"/>
<g>
	<rect x="272.696" y="347.181" style="fill:#0097A7;" width="55.652" height="59.701"/>
	<path style="fill:#0097A7;" d="M217.043,202.479v-33.391c0-61.471,49.833-111.304,111.304-111.304l44.522,128l-44.522,128   C266.876,313.784,217.043,263.952,217.043,202.479z"/>
</g>
<path style="fill:#00838F;" d="M328.348,313.784v-256c61.471,0,111.304,49.833,111.304,111.304v33.391  C439.652,263.952,389.819,313.784,328.348,313.784z"/>
<path style="fill:#00BCD4;" d="M366.728,408.145c-14.987-33.534-57.302-60.97-94.032-60.97h-89.043l-33.391,59.701l33.391,59.701  c22.684,7.791,47.019,12.031,72.348,12.031c46.358,0,89.403-14.177,125.047-38.423L366.728,408.145z"/>
<path style="fill:#4DD0E1;" d="M56.919,355.681c25.935,51.696,71.404,91.892,126.733,110.897V347.175H94.609  C82.258,347.175,69.28,350.288,56.919,355.681z"/>
<path style="fill:#00BCD4;" d="M294.957,202.479v-33.391c0-61.471-49.833-111.304-111.304-111.304l-44.522,128l44.522,128  C245.123,313.784,294.957,263.952,294.957,202.479z"/>
<path style="fill:#4DD0E1;" d="M183.652,313.784v-256c-61.471,0-111.304,49.833-111.304,111.304v33.391  C72.348,263.952,122.18,313.784,183.652,313.784z"/>
<g>
</g>
<g>
</g>
<g>
</g>
<g>
</g>
<g>
</g>
<g>
</g>
<g>
</g>
<g>
</g>
<g>
</g>
<g>
</g>
<g>
</g>
<g>
</g>
<g>
</g>
<g>
</g>
<g>
</g>
</svg>
