<?xml version="1.0" encoding="iso-8859-1"?>
<!-- Generator: Adobe Illustrator 19.0.0, SVG Export Plug-In . SVG Version: 6.00 Build 0)  -->
<svg version="1.1" id="Layer_1" xmlns="http://www.w3.org/2000/svg" xmlns:xlink="http://www.w3.org/1999/xlink" x="0px" y="0px"
	 viewBox="0 0 460 460" style="enable-background:new 0 0 460 460;" xml:space="preserve">
<g>
	<path style="fill:#FFAD9E;" d="M230.332,0C103.307,0,0,102.974,0,230c0,100.586,64.778,186.092,154.816,217.329l292.719-292.316
		C416.527,64.805,331.102,0,230.332,0z"/>
	<path style="fill:#FF7F4F;" d="M57.503,349.997l97.318,97.317C178.488,455.525,203.893,460,230.332,460
		C357.358,460,460,357.025,460,230c0-26.256-4.396-51.479-12.476-74.982l-45.021-45.021L57.503,349.997z"/>
	<polygon style="fill:#FFFFFF;" points="230.333,109.997 250.333,229.767 230.333,349.996 57.503,349.996 57.503,109.997 	"/>
	<rect x="230.333" y="109.997" style="fill:#C2FBFF;" width="172.17" height="240"/>
	<rect x="362.5" y="128.333" style="fill:#121149;" width="20" height="201.667"/>
	<rect x="324.643" y="128.333" style="fill:#121149;" width="20" height="171.667"/>
	<rect x="294.786" y="128.333" style="fill:#121149;" width="20" height="171.667"/>
	<rect x="238.928" y="128.333" style="fill:#121149;" width="30" height="171.667"/>
	<rect x="201.071" y="128.333" style="fill:#366796;" width="20" height="171.667"/>
	<rect x="163.214" y="128.333" style="fill:#366796;" width="20" height="171.667"/>
	<rect x="123.357" y="128.333" style="fill:#366796;" width="30" height="171.667"/>
	<rect x="77.5" y="130" style="fill:#366796;" width="20" height="200"/>
</g>
<g>
</g>
<g>
</g>
<g>
</g>
<g>
</g>
<g>
</g>
<g>
</g>
<g>
</g>
<g>
</g>
<g>
</g>
<g>
</g>
<g>
</g>
<g>
</g>
<g>
</g>
<g>
</g>
<g>
</g>
</svg>
