<?xml version="1.0" encoding="iso-8859-1"?>
<!-- Generator: Adobe Illustrator 19.0.0, SVG Export Plug-In . SVG Version: 6.00 Build 0)  -->
<svg version="1.1" id="Layer_1" xmlns="http://www.w3.org/2000/svg" xmlns:xlink="http://www.w3.org/1999/xlink" x="0px" y="0px"
	 viewBox="0 0 460 460" style="enable-background:new 0 0 460 460;" xml:space="preserve">
<g>
	<path style="fill:#FF7F4F;" d="M230,0C102.974,0,0,102.975,0,230c0,99.983,63.797,185.065,152.904,216.761l306.597-232.035
		C451.639,94.821,351.893,0,230,0z"/>
	<path style="fill:#FF5419;" d="M460,230c0-5.136-0.186-10.228-0.518-15.279L270,25.238l-100,110l60.003,60.002L85.667,225.238
		l74.732,74.732l-54.732,99.53l47.246,47.246C177.013,455.318,202.958,460,230,460C357.026,460,460,357.025,460,230z"/>
	<path style="fill:#FF7F4F;" d="M265,165.238c0,19.33-15.67,35-35,35l-15-35l15-35C249.33,130.238,265,145.908,265,165.238z"/>
	<path style="fill:#38C6D9;" d="M195,165.238c0,19.33,15.67,35,35,35v-70C210.67,130.238,195,145.908,195,165.238z"/>
	<polygon style="fill:#38C6D9;" points="230,195.238 210,282.369 230,369.5 324.333,369.5 324.333,399.5 354.333,399.5 
		354.333,225.238 374.333,225.238 374.333,195.238 	"/>
	<polygon style="fill:#71E2F0;" points="85.667,195.238 85.667,225.238 105.667,225.238 105.667,399.5 135.667,399.5 135.667,369.5 
		230,369.5 230,195.238 	"/>
	<polygon style="fill:#71E2F0;" points="334.33,287.37 334.33,349.5 230,349.5 220,278.49 	"/>
	<polygon style="fill:#C2FBFF;" points="334.33,225.24 334.33,287.37 220.18,287.37 230,225.24 	"/>
	<polygon style="fill:#C2FBFF;" points="230,287.37 230,349.5 125.67,349.5 125.67,287.37 177.835,267.37 	"/>
	<rect x="125.67" y="225.24" style="fill:#FFFFFF;" width="104.33" height="62.13"/>
	<polygon style="fill:#FFEDB5;" points="270,25.238 290,135.238 230,135.238 210,83.405 230,25.238 	"/>
	<polygon style="fill:#FFFFFF;" points="230,25.238 230,135.238 170,135.238 190,25.238 	"/>
	<rect x="195.201" y="246.305" style="fill:#71E2F0;" width="70" height="20"/>
	<rect x="195.201" y="308.435" style="fill:#38C6D9;" width="70" height="20"/>
</g>
<g>
</g>
<g>
</g>
<g>
</g>
<g>
</g>
<g>
</g>
<g>
</g>
<g>
</g>
<g>
</g>
<g>
</g>
<g>
</g>
<g>
</g>
<g>
</g>
<g>
</g>
<g>
</g>
<g>
</g>
</svg>
