<?xml version="1.0" encoding="iso-8859-1"?>
<!-- Generator: Adobe Illustrator 19.0.0, SVG Export Plug-In . SVG Version: 6.00 Build 0)  -->
<svg version="1.1" id="Layer_1" xmlns="http://www.w3.org/2000/svg" xmlns:xlink="http://www.w3.org/1999/xlink" x="0px" y="0px"
	 viewBox="0 0 460 460" style="enable-background:new 0 0 460 460;" xml:space="preserve">
<g>
	<path style="fill:#61A2B3;" d="M230,0C102.974,0,0,102.975,0,230c0,99.311,62.943,183.919,151.112,216.112l295-295
		C413.919,62.943,329.311,0,230,0z"/>
	<path style="fill:#366796;" d="M446.112,151.112L395,100L65,360l86.112,86.112C175.717,455.096,202.285,460,230,460
		c127.026,0,230-102.975,230-230C460,202.286,455.096,175.717,446.112,151.112z"/>
	<polygon style="fill:#C2FBFF;" points="230,160 147.5,150 65,160 65,360 230,360 240,260 	"/>
	<polygon style="fill:#71E2F0;" points="395,160 312.5,150 230,160 230,360 395,360 	"/>
	<path style="fill:#FFFFFF;" d="M230,150l20,98.307L230,340H85V160L230,150z"/>
	<path style="fill:#C2FBFF;" d="M375,160v180H230V150L375,160z"/>
	<polygon style="fill:#71E2F0;" points="65,100 65,160 230,160 240,130 230,100 	"/>
	<rect x="230" y="100" style="fill:#38C6D9;" width="165" height="60"/>
	<circle style="fill:#FFFFFF;" cx="285" cy="130" r="10"/>
	<circle style="fill:#71E2F0;" cx="365" cy="130" r="10"/>
	<circle style="fill:#FFFFFF;" cx="325" cy="130" r="10"/>
	<rect x="230" y="180" style="fill:#38C6D9;" width="125" height="20"/>
	<rect x="230" y="220" style="fill:#38C6D9;" width="125" height="20"/>
	<rect x="230" y="300" style="fill:#38C6D9;" width="62.5" height="20"/>
	<rect x="230" y="260" style="fill:#38C6D9;" width="125" height="20"/>
	<polygon style="fill:#38C6D9;" points="157.5,320 137.5,250 157.5,180 210,180 210,320 	"/>
	<rect x="105" y="180" style="fill:#71E2F0;" width="52.5" height="140"/>
</g>
<g>
</g>
<g>
</g>
<g>
</g>
<g>
</g>
<g>
</g>
<g>
</g>
<g>
</g>
<g>
</g>
<g>
</g>
<g>
</g>
<g>
</g>
<g>
</g>
<g>
</g>
<g>
</g>
<g>
</g>
</svg>
