<?xml version="1.0" encoding="iso-8859-1"?>
<!-- Generator: Adobe Illustrator 19.0.0, SVG Export Plug-In . SVG Version: 6.00 Build 0)  -->
<svg version="1.1" id="Layer_1" xmlns="http://www.w3.org/2000/svg" xmlns:xlink="http://www.w3.org/1999/xlink" x="0px" y="0px"
	 viewBox="0 0 460 460" style="enable-background:new 0 0 460 460;" xml:space="preserve">
<g>
	<path style="fill:#366796;" d="M230,0C102.974,0,0,102.975,0,230c0,100.824,64.875,186.496,155.158,217.549l292.391-292.39
		C416.496,64.875,330.824,0,230,0z"/>
	<path style="fill:#121149;" d="M447.539,155.164l-96.352-96.352L108.813,401.188l46.352,46.352
		C178.626,455.609,203.799,460,230,460c127.026,0,230-102.975,230-230C460,203.799,455.609,178.626,447.539,155.164z"/>
	<path style="fill:#D48B07;" d="M360,80v300c0,16.5-13.5,30-30,30H230l-20-180l20-180h100C346.5,50,360,63.5,360,80z"/>
	<path style="fill:#FFC61B;" d="M230,50v360H130c-16.5,0-30-13.5-30-30V80c0-16.5,13.5-30,30-30H230z"/>
	<polygon style="fill:#FFC61B;" points="330,80 330,380 230,380 200,230 230,80 	"/>
	<rect x="130" y="80" style="fill:#FEE187;" width="100" height="300"/>
	<rect x="150.004" y="200.003" style="fill:#FFFFFF;" width="40" height="40"/>
	<polygon style="fill:#C2FBFF;" points="250,200 250,240 230,240 220,220 230,200 	"/>
	<rect x="210" y="200" style="fill:#FFFFFF;" width="20" height="40"/>
	<rect x="270.004" y="200.003" style="fill:#C2FBFF;" width="40" height="40"/>
	<rect x="150.004" y="260.003" style="fill:#FFFFFF;" width="40" height="40"/>
	<polygon style="fill:#C2FBFF;" points="250,260.003 250,300.003 230,300.003 220,280.003 230,260.003 	"/>
	<rect x="210" y="260.003" style="fill:#FFFFFF;" width="20" height="40"/>
	<rect x="150.004" y="320.003" style="fill:#FFFFFF;" width="40" height="40"/>
	<polygon style="fill:#C2FBFF;" points="250,320.003 250,360.003 230,360.003 220,340.003 230,320.003 	"/>
	<rect x="210" y="320.003" style="fill:#FFFFFF;" width="20" height="40"/>
	<rect x="270.004" y="260.003" style="fill:#FEE187;" width="40" height="100"/>
	<polygon style="fill:#C2FBFF;" points="310,100 310,180 230,180 210,140 230,100 	"/>
	<rect x="150" y="100" style="fill:#FFFFFF;" width="80" height="80"/>
	<rect x="260" y="120" style="fill:#71E2F0;" width="30" height="40"/>
</g>
<g>
</g>
<g>
</g>
<g>
</g>
<g>
</g>
<g>
</g>
<g>
</g>
<g>
</g>
<g>
</g>
<g>
</g>
<g>
</g>
<g>
</g>
<g>
</g>
<g>
</g>
<g>
</g>
<g>
</g>
</svg>
