<?xml version="1.0" encoding="iso-8859-1"?>
<!-- Generator: Adobe Illustrator 19.0.0, SVG Export Plug-In . SVG Version: 6.00 Build 0)  -->
<svg version="1.1" id="Layer_1" xmlns="http://www.w3.org/2000/svg" xmlns:xlink="http://www.w3.org/1999/xlink" x="0px" y="0px"
	 viewBox="0 0 459.994 459.994" style="enable-background:new 0 0 459.994 459.994;" xml:space="preserve">
<g>
	<path style="fill:#71E2F0;" d="M230.004,0c-127.026,0-230,102.974-230,230c0,115.604,85.289,211.287,196.376,227.56
		l261.018-262.296C440.651,84.72,345.221,0,230.004,0z"/>
	<path style="fill:#38C6D9;" d="M392.638,392.634c53.773-53.773,75.339-127.546,64.728-197.373L361.29,99.185L99.66,360.815
		l96.723,96.723C265.879,467.75,339.152,446.12,392.638,392.634z"/>
	<path style="fill:#940030;" d="M230.337,44.667c102.176,0,185,82.824,185,185s-82.824,185-185,185l-48.261-185L230.337,44.667z"/>
	<path style="fill:#FF0F27;" d="M230.337,414.667c-102.176,0-185-82.824-185-185s82.824-185,185-185V414.667z"/>
	<path style="fill:#71E2F0;" d="M230.337,384.667l-16.316-163.158l171.316,8.158C385.337,315.137,315.807,384.667,230.337,384.667z"
		/>
	<path style="fill:#C2FBFF;" d="M230.337,74.667c85.47,0,155,69.53,155,155H214.021L230.337,74.667z"/>
	<path style="fill:#C2FBFF;" d="M230.337,229.667v155c-85.47,0-155-69.53-155-155l77.5-24.474L230.337,229.667z"/>
	<path style="fill:#FFFFFF;" d="M230.337,74.667v155h-155C75.337,144.196,144.866,74.667,230.337,74.667z"/>
	<polygon style="fill:#71E2F0;" points="240.337,104.667 240.337,124.667 230.337,124.667 223.337,114.667 230.337,104.667 	"/>
	<rect x="220.337" y="104.667" style="fill:#C2FBFF;" width="10" height="20"/>
	
		<rect x="162.834" y="120.078" transform="matrix(0.5 0.866 -0.866 0.5 199.0646 -84.6399)" style="fill:#C2FBFF;" width="20" height="20"/>
	
		<rect x="120.748" y="162.171" transform="matrix(0.866 0.5 -0.5 0.866 103.6047 -42.3075)" style="fill:#C2FBFF;" width="20" height="20"/>
	
		<rect x="277.834" y="120.081" transform="matrix(-0.5 0.866 -0.866 -0.5 544.4066 -54.147)" style="fill:#71E2F0;" width="20" height="20"/>
	
		<rect x="319.922" y="162.163" transform="matrix(-0.866 0.5 -0.5 -0.866 701.7234 156.2939)" style="fill:#71E2F0;" width="20" height="20"/>
	<polygon style="fill:#71E2F0;" points="125.337,239.667 105.337,239.667 105.337,229.667 115.337,222.667 125.337,229.667 	"/>
	<rect x="105.337" y="219.667" style="fill:#C2FBFF;" width="20" height="10"/>
	
		<rect x="120.747" y="277.174" transform="matrix(0.866 -0.5 0.5 0.866 -126.0723 103.8506)" style="fill:#71E2F0;" width="20" height="20"/>
	
		<rect x="162.846" y="319.256" transform="matrix(0.5 -0.866 0.866 0.5 -198.7207 314.3115)" style="fill:#71E2F0;" width="20" height="20"/>
	<polygon style="fill:#38C6D9;" points="240.337,334.667 240.337,354.667 230.337,354.667 223.337,344.667 230.337,334.667 	"/>
	<rect x="220.337" y="334.667" style="fill:#71E2F0;" width="10" height="20"/>
	
		<rect x="277.846" y="319.252" transform="matrix(-0.5 -0.866 0.866 -0.5 146.6329 743.1616)" style="fill:#38C6D9;" width="20" height="20"/>
	
		<rect x="319.922" y="277.16" transform="matrix(-0.866 -0.5 0.5 -0.866 472.0563 700.8099)" style="fill:#38C6D9;" width="20" height="20"/>
	<polygon style="fill:#940030;" points="355.336,244.993 230.045,245.003 240.049,215.003 355.336,215.003 	"/>
	<polygon style="fill:#FF0F27;" points="215.701,155.287 215.701,230.005 244.723,220.001 245.15,155.379 	"/>
	<circle style="fill:#61A2B3;" cx="230.337" cy="229.667" r="20"/>
</g>
<g>
</g>
<g>
</g>
<g>
</g>
<g>
</g>
<g>
</g>
<g>
</g>
<g>
</g>
<g>
</g>
<g>
</g>
<g>
</g>
<g>
</g>
<g>
</g>
<g>
</g>
<g>
</g>
<g>
</g>
</svg>
