<?xml version="1.0" encoding="iso-8859-1"?>
<!-- Generator: Adobe Illustrator 19.0.0, SVG Export Plug-In . SVG Version: 6.00 Build 0)  -->
<svg version="1.1" id="Layer_1" xmlns="http://www.w3.org/2000/svg" xmlns:xlink="http://www.w3.org/1999/xlink" x="0px" y="0px"
	 viewBox="0 0 460 460" style="enable-background:new 0 0 460 460;" xml:space="preserve">
<g>
	<path style="fill:#FF7F4F;" d="M230,0C102.974,0,0,102.975,0,230c0,110.322,77.674,202.503,181.318,224.838l273.52-273.521
		C432.503,77.674,340.322,0,230,0z"/>
	<path style="fill:#FF5419;" d="M460,230c0-16.704-1.797-32.986-5.179-48.679L426,152.5l-392,155l147.321,147.321
		C197.014,458.203,213.296,460,230,460C357.026,460,460,357.025,460,230z"/>
	<polygon style="fill:#FFFFFF;" points="302.533,178.631 229.604,105.702 157.467,177.84 143.324,163.698 229.604,77.418 
		316.676,164.489 	"/>
	<polygon style="fill:#71E2F0;" points="426,152.5 426,182.5 219.6,192.5 229.6,152.5 	"/>
	<polygon style="fill:#C2FBFF;" points="229.6,152.5 229.6,202.5 34,182.5 34,152.5 	"/>
	<polygon style="fill:#38C6D9;" points="426,182.5 426,307.5 229.6,307.5 209.6,182.5 	"/>
	<rect x="34" y="182.5" style="fill:#71E2F0;" width="195.6" height="125"/>
	<path style="fill:#FFFFFF;" d="M54.546,242.192c0-3.899,0.705-7.754,2.115-11.565c1.409-3.81,3.465-7.214,6.165-10.215
		c2.7-3,5.999-5.429,9.9-7.29c3.899-1.859,8.339-2.79,13.32-2.79c5.879,0,10.964,1.291,15.255,3.87
		c4.289,2.581,7.484,5.94,9.585,10.08l-9.54,6.57c-0.841-1.8-1.86-3.314-3.06-4.545c-1.201-1.229-2.49-2.205-3.87-2.925
		c-1.381-0.72-2.821-1.245-4.32-1.575c-1.5-0.329-2.97-0.495-4.41-0.495c-3.121,0-5.836,0.63-8.145,1.89
		c-2.311,1.26-4.23,2.896-5.76,4.905c-1.53,2.011-2.686,4.291-3.465,6.84c-0.781,2.551-1.17,5.085-1.17,7.605
		c0,2.821,0.45,5.535,1.35,8.145s2.174,4.905,3.825,6.885c1.649,1.98,3.629,3.57,5.94,4.77c2.309,1.201,4.845,1.8,7.605,1.8
		c1.44,0,2.939-0.18,4.5-0.54c1.56-0.36,3.044-0.93,4.455-1.71c1.409-0.779,2.714-1.785,3.915-3.015
		c1.2-1.229,2.16-2.714,2.88-4.455l10.17,5.85c-1.021,2.4-2.475,4.516-4.365,6.345c-1.89,1.831-4.021,3.375-6.39,4.635
		c-2.371,1.26-4.905,2.221-7.605,2.88c-2.7,0.66-5.341,0.99-7.92,0.99c-4.561,0-8.73-0.959-12.51-2.88
		c-3.78-1.92-7.036-4.424-9.765-7.515c-2.731-3.089-4.86-6.6-6.39-10.53C55.312,250.278,54.546,246.273,54.546,242.192z"/>
	<path style="fill:#FFFFFF;" d="M121.056,274.592v-63.9h12.42v53.01h32.58v10.89L121.056,274.592L121.056,274.592z"/>
	<path style="fill:#FFFFFF;" d="M197.736,275.042c-4.68,0-8.926-0.914-12.735-2.745c-3.811-1.83-7.08-4.26-9.81-7.29
		c-2.73-3.029-4.846-6.494-6.345-10.395c-1.5-3.899-2.25-7.889-2.25-11.97c0-4.259,0.794-8.339,2.385-12.24
		c1.589-3.899,3.78-7.349,6.57-10.35c2.79-3,6.104-5.384,9.945-7.155c3.839-1.769,8.01-2.655,12.51-2.655
		c4.619,0,8.834,0.945,12.645,2.835c3.809,1.89,7.065,4.365,9.765,7.425s4.8,6.541,6.3,10.44c1.499,3.901,2.25,7.861,2.25,11.88
		c0,4.261-0.781,8.325-2.34,12.195c-1.561,3.87-3.721,7.29-6.48,10.26c-2.76,2.97-6.061,5.341-9.9,7.11
		C206.405,274.157,202.236,275.042,197.736,275.042z M179.196,242.642c0,2.761,0.419,5.431,1.26,8.01
		c0.84,2.581,2.055,4.86,3.645,6.84c1.589,1.98,3.54,3.571,5.85,4.77c2.309,1.201,4.935,1.8,7.875,1.8c3,0,5.654-0.615,7.965-1.845
		c2.309-1.229,4.26-2.865,5.85-4.905c1.589-2.039,2.79-4.334,3.6-6.885c0.81-2.549,1.215-5.144,1.215-7.785
		c0-2.759-0.436-5.429-1.305-8.01c-0.871-2.579-2.101-4.86-3.69-6.84c-1.59-1.98-3.541-3.555-5.85-4.725
		c-2.311-1.17-4.905-1.755-7.785-1.755c-3.001,0-5.67,0.616-8.01,1.845c-2.34,1.23-4.29,2.851-5.85,4.86
		c-1.561,2.011-2.745,4.291-3.555,6.84C179.601,237.408,179.196,240.002,179.196,242.642z"/>
	<path style="fill:#FFFFFF;" d="M277.477,227.432c-0.421-0.419-1.186-0.99-2.296-1.71s-2.461-1.424-4.05-2.115
		c-1.59-0.689-3.315-1.274-5.175-1.755c-1.86-0.479-3.75-0.72-5.67-0.72c-3.42,0-5.971,0.63-7.65,1.89
		c-1.68,1.26-2.52,3.03-2.52,5.31c0,1.32,0.314,2.416,0.945,3.285c0.63,0.871,1.544,1.636,2.744,2.295
		c1.2,0.661,2.715,1.26,4.546,1.8c1.829,0.54,3.944,1.111,6.345,1.71c3.119,0.841,5.954,1.741,8.505,2.7
		c2.55,0.96,4.709,2.16,6.479,3.6s3.135,3.166,4.096,5.175c0.959,2.011,1.439,4.486,1.439,7.425c0,3.42-0.646,6.345-1.935,8.775
		c-1.291,2.43-3.03,4.396-5.22,5.895c-2.191,1.5-4.711,2.596-7.561,3.285c-2.851,0.689-5.836,1.035-8.955,1.035
		c-4.801,0-9.54-0.72-14.22-2.16s-8.881-3.479-12.6-6.12l5.489-10.71c0.54,0.54,1.515,1.246,2.925,2.115
		c1.409,0.87,3.074,1.741,4.995,2.61c1.92,0.871,4.051,1.606,6.391,2.205c2.34,0.6,4.739,0.9,7.2,0.9c6.84,0,10.26-2.189,10.26-6.57
		c0-1.38-0.392-2.55-1.17-3.51c-0.781-0.959-1.891-1.8-3.33-2.52c-1.44-0.72-3.182-1.379-5.221-1.98
		c-2.04-0.599-4.319-1.26-6.84-1.98c-3.06-0.839-5.715-1.755-7.965-2.745c-2.25-0.99-4.126-2.16-5.625-3.51
		c-1.5-1.35-2.625-2.91-3.375-4.68c-0.751-1.769-1.125-3.884-1.125-6.345c0-3.24,0.6-6.12,1.8-8.64s2.865-4.62,4.995-6.3
		c2.129-1.679,4.604-2.954,7.425-3.825c2.82-0.869,5.851-1.305,9.091-1.305c4.5,0,8.64,0.706,12.42,2.115
		c3.779,1.41,7.079,3.075,9.899,4.995L277.477,227.432z"/>
	<path style="fill:#FFFFFF;" d="M339.845,263.702v10.89h-44.37v-63.9h43.56v10.89h-31.14v15.39h26.91v10.08h-26.91v16.65
		L339.845,263.702L339.845,263.702z"/>
	<path style="fill:#FFFFFF;" d="M350.465,274.592v-63.9h23.22c5.22,0,9.795,0.841,13.726,2.52c3.929,1.68,7.214,3.96,9.854,6.84
		c2.64,2.88,4.619,6.255,5.94,10.125c1.318,3.87,1.979,7.996,1.979,12.375c0,4.86-0.735,9.256-2.205,13.185
		c-1.471,3.931-3.586,7.29-6.345,10.08c-2.761,2.79-6.075,4.95-9.945,6.48s-8.205,2.295-13.005,2.295L350.465,274.592
		L350.465,274.592z M392.675,242.552c0-3.06-0.421-5.879-1.26-8.46c-0.841-2.579-2.07-4.799-3.69-6.66
		c-1.62-1.859-3.615-3.299-5.985-4.32c-2.37-1.02-5.055-1.53-8.055-1.53h-10.8v42.12h10.8c3.061,0,5.774-0.54,8.146-1.62
		c2.369-1.08,4.35-2.565,5.939-4.455c1.589-1.89,2.805-4.125,3.646-6.705C392.254,248.343,392.675,245.553,392.675,242.552z"/>
</g>
<g>
</g>
<g>
</g>
<g>
</g>
<g>
</g>
<g>
</g>
<g>
</g>
<g>
</g>
<g>
</g>
<g>
</g>
<g>
</g>
<g>
</g>
<g>
</g>
<g>
</g>
<g>
</g>
<g>
</g>
</svg>
