<?xml version="1.0" encoding="iso-8859-1"?>
<!-- Generator: Adobe Illustrator 19.0.0, SVG Export Plug-In . SVG Version: 6.00 Build 0)  -->
<svg version="1.1" id="Layer_1" xmlns="http://www.w3.org/2000/svg" xmlns:xlink="http://www.w3.org/1999/xlink" x="0px" y="0px"
	 viewBox="0 0 459.994 459.994" style="enable-background:new 0 0 459.994 459.994;" xml:space="preserve">
<g>
	<path style="fill:#FF6161;" d="M230.004,0c-127.026,0-230,102.974-230,230c0,115.604,85.289,211.287,196.376,227.56
		l261.018-262.296C440.651,84.72,345.221,0,230.004,0z"/>
	<path style="fill:#FF0F27;" d="M392.638,392.634c53.773-53.773,75.339-127.546,64.728-197.373L361.29,99.185L99.66,360.815
		l96.723,96.723C265.879,467.75,339.152,446.12,392.638,392.634z"/>
	<path style="fill:#121149;" d="M145.337,229.667l85,185c102.173,0,185-82.827,185-185s-82.827-185-185-185L145.337,229.667z"/>
	<path style="fill:#273B7A;" d="M230.337,44.667v370c-102.173,0-185-82.827-185-185S128.164,44.667,230.337,44.667z"/>
	<path style="fill:#273B7A;" d="M154.526,229.667l75.811,165c91.127,0,165-73.873,165-165s-73.873-165-165-165L154.526,229.667z"/>
	<path style="fill:#366796;" d="M230.337,64.667v330c-91.127,0-165-73.873-165-165S139.21,64.667,230.337,64.667z"/>
	<path style="fill:#121149;" d="M375.337,229.667h-145l-25.65-45.65l25.65-99.35C310.417,84.667,375.337,149.587,375.337,229.667z"
		/>
	<path style="fill:#121149;" d="M230.337,229.667l102.53,102.53c-26.24,26.24-62.49,42.47-102.53,42.47l-26.62-95L230.337,229.667z"
		/>
	<path style="fill:#273B7A;" d="M230.337,229.667v145c-80.08,0-145-64.92-145-145L230.337,229.667L230.337,229.667z"/>
	<path style="fill:#273B7A;" d="M230.337,84.667v145l-102.53-102.53C154.047,100.897,190.297,84.667,230.337,84.667z"/>
	<path style="fill:#FF6161;" d="M200.472,229.667l29.865,65c35.898,0,65-29.102,65-65s-29.102-65-65-65L200.472,229.667z"/>
	<path style="fill:#FFAD9E;" d="M230.337,164.667v130c-35.898,0-65-29.101-65-65S194.438,164.667,230.337,164.667z"/>
	<circle style="fill:#121149;" cx="230.337" cy="229.667" r="20"/>
</g>
<g>
</g>
<g>
</g>
<g>
</g>
<g>
</g>
<g>
</g>
<g>
</g>
<g>
</g>
<g>
</g>
<g>
</g>
<g>
</g>
<g>
</g>
<g>
</g>
<g>
</g>
<g>
</g>
<g>
</g>
</svg>
