<?xml version="1.0" encoding="iso-8859-1"?>
<!-- Generator: Adobe Illustrator 19.0.0, SVG Export Plug-In . SVG Version: 6.00 Build 0)  -->
<svg version="1.1" id="Layer_1" xmlns="http://www.w3.org/2000/svg" xmlns:xlink="http://www.w3.org/1999/xlink" x="0px" y="0px"
	 viewBox="0 0 460 460" style="enable-background:new 0 0 460 460;" xml:space="preserve">
<g>
	<path style="fill:#FEE187;" d="M230,0C102.974,0,0,102.975,0,230c0,101.057,65.175,186.891,155.784,217.763l295.564-280.472
		C424.049,70.744,335.286,0,230,0z"/>
	<path style="fill:#FFC61B;" d="M460,230c0-21.738-3.019-42.771-8.655-62.705L327.05,43L109.511,401.486l46.27,46.271
		C179.066,455.69,204.029,460,230,460C357.026,460,460,357.025,460,230z"/>
	<polygon style="fill:#38C6D9;" points="282.499,113 293.1,395 361,395 361,123 	"/>
	<polygon style="fill:#C2FBFF;" points="293.1,113 293.1,395 230.05,395 210.05,118 	"/>
	<polygon style="fill:#C2FBFF;" points="280.593,94.581 327.05,73 361,123 293.1,123 	"/>
	<polygon style="fill:#FFFFFF;" points="200.95,43 200.95,73 167,123 167,395 230.05,395 230.05,123 293.1,123 327.05,73 327.05,43 
			"/>
	<rect x="147" y="188.745" style="fill:#940030;" width="20" height="62.823"/>
	<path style="fill:#FF0F27;" d="M93.947,226.732c-30.773,12.751-45.853,47.395-34.645,78.408c3.927,10.87,43.53,87.466,43.53,87.466
		c8.173,15.774,27.209,22.932,43.93,16.007c3.884-1.61,7.319-3.847,10.237-6.544l10-83.026l-10-83.026
		C139.868,222.043,115.805,217.681,93.947,226.732z"/>
	<path style="fill:#C2001B;" d="M220.052,226.732c-21.857-9.052-45.92-4.689-63.052,9.284v166.052
		c2.919,2.698,6.354,4.934,10.237,6.544c16.72,6.925,35.763-0.233,43.93-16.014c0,0,39.604-76.589,43.53-87.453
		C265.905,274.134,250.831,239.483,220.052,226.732z"/>
</g>
<g>
</g>
<g>
</g>
<g>
</g>
<g>
</g>
<g>
</g>
<g>
</g>
<g>
</g>
<g>
</g>
<g>
</g>
<g>
</g>
<g>
</g>
<g>
</g>
<g>
</g>
<g>
</g>
<g>
</g>
</svg>
