<?xml version="1.0" encoding="iso-8859-1"?>
<!-- Generator: Adobe Illustrator 19.0.0, SVG Export Plug-In . SVG Version: 6.00 Build 0)  -->
<svg version="1.1" id="Layer_1" xmlns="http://www.w3.org/2000/svg" xmlns:xlink="http://www.w3.org/1999/xlink" x="0px" y="0px"
	 viewBox="0 0 460 460" style="enable-background:new 0 0 460 460;" xml:space="preserve">
<g>
	<path style="fill:#FFC61B;" d="M230,0C102.975,0,0,102.975,0,230c0,121.053,93.519,220.264,212.251,229.325l232.612-311.559
		C411.771,61.354,328.051,0,230,0z"/>
	<path style="fill:#D48B07;" d="M460,230c0-28.975-5.373-56.691-15.152-82.226l-57.916-57.916L73.068,320.142L212.25,459.325
		C218.109,459.772,224.028,460,230,460C357.026,460,460,357.025,460,230z"/>
	<rect x="180" y="315.996" style="fill:#C2FBFF;" width="100" height="50"/>
	<path style="fill:#FFFFFF;" d="M230,104l10,182L67.21,276V104c0-11,9-20,20-20h89.981L230,104z"/>
	<path style="fill:#C2FBFF;" d="M392.79,104v172L230,286V104l52.808-20h89.982C383.79,84,392.79,93,392.79,104z"/>
	<polygon style="fill:#FEE187;" points="230,356 240,366 230,376 128.922,376 128.922,356 	"/>
	<rect x="230" y="356" style="fill:#FFC61B;" width="101.078" height="20"/>
	<path style="fill:#FEE187;" d="M230,276l10,25l-10,25H87.21c-11,0-20-9-20-20v-30H230z"/>
	<path style="fill:#FFC61B;" d="M392.79,276v30c0,11-9,20-20,20H230v-50H392.79z"/>
	<path style="fill:#121149;" d="M230,0c-1.057,0-2.108,0.026-3.162,0.04L210,160l20,76l93.79-93.79h-40.98V6.101
		C265.852,2.117,248.174,0,230,0z"/>
	<path style="fill:#273B7A;" d="M177.19,142.21h-40.98L230,236V0c-18.174,0-35.852,2.117-52.81,6.101V142.21z"/>
</g>
<g>
</g>
<g>
</g>
<g>
</g>
<g>
</g>
<g>
</g>
<g>
</g>
<g>
</g>
<g>
</g>
<g>
</g>
<g>
</g>
<g>
</g>
<g>
</g>
<g>
</g>
<g>
</g>
<g>
</g>
</svg>
