<?xml version="1.0" encoding="iso-8859-1"?>
<!-- Generator: Adobe Illustrator 19.0.0, SVG Export Plug-In . SVG Version: 6.00 Build 0)  -->
<svg version="1.1" id="Layer_1" xmlns="http://www.w3.org/2000/svg" xmlns:xlink="http://www.w3.org/1999/xlink" x="0px" y="0px"
	 viewBox="0 0 460 460" style="enable-background:new 0 0 460 460;" xml:space="preserve">
<g>
	<path style="fill:#FF7F4F;" d="M230,0C102.975,0,0,102.975,0,230c0,98.967,62.507,183.335,150.196,215.778L447.33,154.523
		C416.094,64.571,330.588,0,230,0z"/>
	<path style="fill:#FF5419;" d="M98.927,394.5l51.269,51.269C175.058,454.968,201.94,460,230,460c127.025,0,230-102.975,230-230
		c0-26.441-4.476-51.834-12.688-75.479l-86.24-86.24L98.927,394.5z"/>
	<polygon style="fill:#C2FBFF;" points="276.563,87.084 276.563,48.281 230,48.281 214.479,87.084 	"/>
	<rect x="183.437" y="48.281" style="fill:#FFFFFF;" width="46.563" height="38.802"/>
	<polygon style="fill:#38C6D9;" points="214.829,371.741 230.002,394.5 361.073,394.5 361.073,68.281 302,68.281 	"/>
	<polygon style="fill:#71E2F0;" points="158,68.281 98.927,68.281 98.927,394.5 230.002,394.5 230.002,371.741 	"/>
	<polygon style="fill:#C2FBFF;" points="206.661,88.281 230,374.5 341.073,374.5 341.073,88.281 	"/>
	<rect x="118.927" y="88.281" style="fill:#FFFFFF;" width="111.073" height="286.219"/>
	<polygon style="fill:#71E2F0;" points="230,68.281 214.827,88.281 230,108.281 302,108.281 302,68.281 	"/>
	<rect x="158" y="68.281" style="fill:#C2FBFF;" width="72" height="40"/>
	<polygon style="fill:#FFC61B;" points="321.224,220.914 277.097,265.867 286.369,328.158 229.999,300.074 207.656,249.691 
		229.999,154.623 259.111,210.48 	"/>
	<polygon style="fill:#FEE187;" points="229.999,154.623 229.999,300.074 173.606,328.158 182.901,265.867 138.774,220.914 
		200.886,210.48 	"/>
</g>
<g>
</g>
<g>
</g>
<g>
</g>
<g>
</g>
<g>
</g>
<g>
</g>
<g>
</g>
<g>
</g>
<g>
</g>
<g>
</g>
<g>
</g>
<g>
</g>
<g>
</g>
<g>
</g>
<g>
</g>
</svg>
