<?xml version="1.0" encoding="iso-8859-1"?>
<!-- Generator: Adobe Illustrator 19.0.0, SVG Export Plug-In . SVG Version: 6.00 Build 0)  -->
<svg version="1.1" id="Layer_1" xmlns="http://www.w3.org/2000/svg" xmlns:xlink="http://www.w3.org/1999/xlink" x="0px" y="0px"
	 viewBox="0 0 460 460" style="enable-background:new 0 0 460 460;" xml:space="preserve">
<g>
	<path style="fill:#366796;" d="M230,0C102.975,0,0,102.974,0,230c0,121.053,93.519,220.263,212.25,229.325l232.614-311.557
		C411.772,61.356,328.051,0,230,0z"/>
	<path style="fill:#273B7A;" d="M460,230c0-28.975-5.373-56.691-15.152-82.226l-57.916-57.916L73.068,320.142L212.25,459.325
		C218.109,459.772,224.028,460,230,460C357.026,460,460,357.025,460,230z"/>
	<rect x="180" y="315.996" style="fill:#C2FBFF;" width="100" height="50"/>
	<path style="fill:#FFFFFF;" d="M230,84H87.21c-11,0-20,9-20,20v172L240,286L230,84z"/>
	<path style="fill:#C2FBFF;" d="M372.79,84H230v202l162.79-10V104C392.79,93,383.79,84,372.79,84z"/>
	<polygon style="fill:#FEE187;" points="230,356 240,366 230,376 128.922,376 128.922,356 	"/>
	<rect x="230" y="356" style="fill:#FFC61B;" width="101.078" height="20"/>
	<path style="fill:#FEE187;" d="M230,276l10,25l-10,25H87.21c-11,0-20-9-20-20v-30H230z"/>
	<path style="fill:#FFC61B;" d="M392.79,276v30c0,11-9,20-20,20H230v-50H392.79z"/>
	<path style="fill:#C2001B;" d="M257.001,158.073h-12V131c0-8.271-6.729-15-15-15s-15,6.729-15,15v27.073h-12V131
		c0-14.888,12.112-27,27-27s27,12.112,27,27V158.073z"/>
	<polygon style="fill:#FF0F27;" points="230,133.921 241.246,194.961 230,248.021 177.123,228.073 177.123,133.921 	"/>
	<polygon style="fill:#C2001B;" points="230,133.921 230,228.073 177.123,228.073 177.123,256 282.878,256 282.878,133.921 	"/>
</g>
<g>
</g>
<g>
</g>
<g>
</g>
<g>
</g>
<g>
</g>
<g>
</g>
<g>
</g>
<g>
</g>
<g>
</g>
<g>
</g>
<g>
</g>
<g>
</g>
<g>
</g>
<g>
</g>
<g>
</g>
</svg>
