<?xml version="1.0" encoding="iso-8859-1"?>
<!-- Generator: Adobe Illustrator 19.0.0, SVG Export Plug-In . SVG Version: 6.00 Build 0)  -->
<svg version="1.1" id="Layer_1" xmlns="http://www.w3.org/2000/svg" xmlns:xlink="http://www.w3.org/1999/xlink" x="0px" y="0px"
	 viewBox="0 0 460 460" style="enable-background:new 0 0 460 460;" xml:space="preserve">
<g>
	<path style="fill:#366796;" d="M230,0C102.974,0,0,102.974,0,230c0,107.766,74.116,198.222,174.156,223.174l279.017-279.018
		C428.221,74.116,337.766,0,230,0z"/>
	<path style="fill:#273B7A;" d="M460,230c0-19.26-2.381-37.962-6.841-55.841L339,60L121,400l53.159,53.159
		C192.038,457.619,210.74,460,230,460C357.025,460,460,357.025,460,230z"/>
	<polygon style="fill:#C2FBFF;" points="214.429,75.652 339,80 339,330 230,337.826 	"/>
	<polygon style="fill:#FFFFFF;" points="230,337.826 121,330 121,80 230,75.652 	"/>
	<polygon style="fill:#61A2B3;" points="230,400 206.643,365 230,330 339,330 339,400 	"/>
	<rect x="121" y="330" style="fill:#71E2F0;" width="109" height="70"/>
	<polygon style="fill:#61A2B3;" points="230,60 339,60 339,80 230,80 214.429,70 	"/>
	<circle style="fill:#FFFFFF;" cx="230" cy="365" r="15"/>
	<rect x="121" y="60" style="fill:#71E2F0;" width="109" height="20"/>
	<path style="fill:#C2001B;" d="M263.252,187.61h-15v-42.869c0-10.064-8.188-18.252-18.252-18.252s-18.252,8.188-18.252,18.252
		v42.869h-15v-42.869c0-18.335,14.917-33.252,33.252-33.252s33.252,14.917,33.252,33.252V187.61z"/>
	<polygon style="fill:#FF0F27;" points="230,148.989 244.094,225.489 230,291.989 163.729,266.989 163.729,148.989 	"/>
	<polygon style="fill:#C2001B;" points="230,148.989 230,266.989 163.729,266.989 163.729,301.989 296.271,301.989 296.271,148.989 
			"/>
</g>
<g>
</g>
<g>
</g>
<g>
</g>
<g>
</g>
<g>
</g>
<g>
</g>
<g>
</g>
<g>
</g>
<g>
</g>
<g>
</g>
<g>
</g>
<g>
</g>
<g>
</g>
<g>
</g>
<g>
</g>
</svg>
