<?xml version="1.0" encoding="iso-8859-1"?>
<!-- Generator: Adobe Illustrator 19.0.0, SVG Export Plug-In . SVG Version: 6.00 Build 0)  -->
<svg version="1.1" id="Layer_1" xmlns="http://www.w3.org/2000/svg" xmlns:xlink="http://www.w3.org/1999/xlink" x="0px" y="0px"
	 viewBox="0 0 460 460" style="enable-background:new 0 0 460 460;" xml:space="preserve">
<g>
	<path style="fill:#273B7A;" d="M230,0C102.975,0,0,102.975,0,230c0,107.767,74.117,198.223,174.158,223.174l279.015-279.019
		C428.221,74.116,337.766,0,230,0z"/>
	<path style="fill:#121149;" d="M460,230c0-19.26-2.381-37.962-6.841-55.841L339,60L121,400l53.159,53.159
		C192.038,457.619,210.74,460,230,460C357.025,460,460,357.025,460,230z"/>
	<polygon style="fill:#C2FBFF;" points="214.429,75.652 319,80 339,208.394 339,330 230,337.826 	"/>
	<polygon style="fill:#FFFFFF;" points="230,337.826 121,330 121,208.394 141,80 230,75.652 	"/>
	<polygon style="fill:#61A2B3;" points="230,400 206.643,365 230,330 339,330 339,400 	"/>
	<rect x="121" y="330" style="fill:#71E2F0;" width="109" height="70"/>
	<polygon style="fill:#61A2B3;" points="230,60 339,60 339,80 230,80 214.429,70 	"/>
	<circle style="fill:#FFFFFF;" cx="230" cy="365" r="15"/>
	<rect x="121" y="60" style="fill:#71E2F0;" width="109" height="20"/>
	<polygon style="fill:#C2001B;" points="339,80 339,208.394 311.75,215.821 284.5,208.394 269.646,172.221 284.5,80 	"/>
	<polygon style="fill:#FF0F27;" points="284.5,80 284.5,208.394 257.25,215.821 230,208.394 215.146,172.221 230,80 	"/>
	<polygon style="fill:#C2001B;" points="230,80 230,208.394 202.75,215.821 175.5,208.394 160.646,172.221 175.5,80 	"/>
	<polygon style="fill:#FF0F27;" points="175.5,80 175.5,208.394 148.25,215.821 121,208.394 121,80 	"/>
	<path style="fill:#940030;" d="M175.5,208.394H230c0,15.047-12.203,27.28-27.25,27.28S175.5,223.442,175.5,208.394z"/>
	<path style="fill:#940030;" d="M284.5,208.394H339c0,7.108-2.726,13.592-7.189,18.449c-4.976,5.429-12.121,8.831-20.061,8.831
		C296.703,235.674,284.5,223.442,284.5,208.394z"/>
	<path style="fill:#C2001B;" d="M121,208.394h54.5c0,15.047-12.203,27.28-27.25,27.28c-7.94,0-15.084-3.402-20.061-8.831
		C123.726,221.986,121,215.502,121,208.394z"/>
	<path style="fill:#C2001B;" d="M230,208.394h54.5c0,15.047-12.203,27.28-27.25,27.28S230,223.442,230,208.394z"/>
</g>
<g>
</g>
<g>
</g>
<g>
</g>
<g>
</g>
<g>
</g>
<g>
</g>
<g>
</g>
<g>
</g>
<g>
</g>
<g>
</g>
<g>
</g>
<g>
</g>
<g>
</g>
<g>
</g>
<g>
</g>
</svg>
