<?xml version="1.0" encoding="iso-8859-1"?>
<!-- Generator: Adobe Illustrator 19.0.0, SVG Export Plug-In . SVG Version: 6.00 Build 0)  -->
<svg version="1.1" id="Layer_1" xmlns="http://www.w3.org/2000/svg" xmlns:xlink="http://www.w3.org/1999/xlink" x="0px" y="0px"
	 viewBox="0 0 460 460" style="enable-background:new 0 0 460 460;" xml:space="preserve">
<g>
	<path style="fill:#FF7F4F;" d="M230,0C102.974,0,0,102.975,0,230c0,110.135,77.411,202.19,180.791,224.724l273.933-273.932
		C432.191,77.411,340.136,0,230,0z"/>
	<path style="fill:#FF5419;" d="M56.088,330l124.706,124.706C196.649,458.162,213.109,460,230,460c127.026,0,230-102.975,230-230
		c0-16.891-1.838-33.351-5.294-49.206L403.912,130L56.088,330z"/>
	<polygon style="fill:#71E2F0;" points="203.914,212.609 230.001,430 403.914,330 403.914,130 	"/>
	<polygon style="fill:#FFFFFF;" points="383.91,278.43 383.91,318.43 320,355.18 320,315.18 352.28,284.618 	"/>
	<polygon style="fill:#C2FBFF;" points="383.91,258.43 383.91,278.43 320,315.18 320,295.18 	"/>
	<polygon style="fill:#C2FBFF;" points="230.001,203.913 230.001,430 56.088,330 56.088,130 	"/>
	<polygon style="fill:#71E2F0;" points="56.086,130 116.881,164.956 232.063,131.113 290.789,64.95 229.999,30 	"/>
	<polygon style="fill:#38C6D9;" points="169.214,195.047 229.999,230 403.912,130 343.129,95.042 227.093,129.373 	"/>
	<polygon style="fill:#FFFFFF;" points="169.214,282.003 116.881,251.912 116.881,164.956 167.325,168.896 169.214,195.047 	"/>
	<polygon style="fill:#C2FBFF;" points="116.881,164.956 290.789,64.95 343.129,95.042 169.214,195.047 	"/>
</g>
<g>
</g>
<g>
</g>
<g>
</g>
<g>
</g>
<g>
</g>
<g>
</g>
<g>
</g>
<g>
</g>
<g>
</g>
<g>
</g>
<g>
</g>
<g>
</g>
<g>
</g>
<g>
</g>
<g>
</g>
</svg>
