<?xml version="1.0" encoding="iso-8859-1"?>
<!-- Generator: Adobe Illustrator 19.0.0, SVG Export Plug-In . SVG Version: 6.00 Build 0)  -->
<svg version="1.1" id="Layer_1" xmlns="http://www.w3.org/2000/svg" xmlns:xlink="http://www.w3.org/1999/xlink" x="0px" y="0px"
	 viewBox="0 0 460 460" style="enable-background:new 0 0 460 460;" xml:space="preserve">
<g>
	<path style="fill:#FF7F4F;" d="M230,0C102.974,0,0,102.974,0,230c0,115.291,84.828,210.77,195.475,227.426L459.7,218.16
		C453.538,96.637,353.054,0,230,0z"/>
	<path style="fill:#FF5419;" d="M460,230c0-3.971-0.101-7.919-0.3-11.841L290.232,48.691L173.559,165.365l80.206,80.206
		L92.84,299.89l93.97,93.969l-23.647,31.247l32.313,32.314c11.263,1.695,22.79,2.58,34.524,2.58C357.025,460,460,357.025,460,230z"
		/>
	<path style="fill:#FFAD9E;" d="M114.784,308.994c-17.12,0-31.048-13.928-31.048-31.048c0-17.121,13.928-31.049,31.048-31.049v20
		c-6.092,0-11.048,4.957-11.048,11.049s4.956,11.048,11.048,11.048c6.093,0,11.049-4.956,11.049-11.048h20
		C145.833,295.066,131.905,308.994,114.784,308.994z"/>
	<path style="fill:#FFC61B;" d="M314.395,107.028c0,45.565-36.935,82.5-82.5,82.5l-57.75-82.5l57.75-82.5
		C277.46,24.528,314.395,61.463,314.395,107.028z"/>
	<path style="fill:#FEE187;" d="M149.395,107.028c0,45.565,36.935,82.5,82.5,82.5v-165
		C186.331,24.528,149.395,61.463,149.395,107.028z"/>
	<path style="fill:#FFEDB5;" d="M231.895,169.528l-39.063-62.5l39.063-62.5c34.463,0,62.5,28.037,62.5,62.5
		S266.358,169.528,231.895,169.528z"/>
	<path style="fill:#FFFFFF;" d="M169.395,107.028c0,34.463,28.037,62.5,62.5,62.5v-125
		C197.433,44.528,169.395,72.565,169.395,107.028z"/>
	<path style="fill:#FFAD9E;" d="M370.933,279.827v46.24l-32.72,10c-6.59,19.64-19.91,36.72-37.58,49.12v39.92h-37.49v-22.71
		c-9.91,2.58-20.4,3.97-31.25,3.97l-30-98.42l30-98.42c16.64,0,32.41,3.26,46.57,9.08c4.27-16.02,18.87-27.82,36.23-27.82v51.68
		c10.69,10.64,18.81,23.34,23.52,37.36L370.933,279.827L370.933,279.827z"/>
	<path style="fill:#FFEDB5;" d="M231.893,209.527v196.84c-10.85,0-21.33-1.39-31.24-3.97v22.71h-37.49v-39.92
		c-25.7-18.02-42.18-45.92-42.18-77.24C120.983,253.587,170.643,209.527,231.893,209.527z"/>
	<path style="fill:#FF6161;" d="M263.258,255.604c-9.813-4.033-20.364-6.077-31.364-6.077l-10-9.86l10-10.14
		c13.62,0,26.73,2.55,38.966,7.578L263.258,255.604z"/>
	<path style="fill:#FFAD9E;" d="M200.53,255.604l-7.602-18.499c12.235-5.028,25.346-7.578,38.966-7.578v20
		C220.894,249.526,210.342,251.571,200.53,255.604z"/>
</g>
<g>
</g>
<g>
</g>
<g>
</g>
<g>
</g>
<g>
</g>
<g>
</g>
<g>
</g>
<g>
</g>
<g>
</g>
<g>
</g>
<g>
</g>
<g>
</g>
<g>
</g>
<g>
</g>
<g>
</g>
</svg>
