<?xml version="1.0" encoding="iso-8859-1"?>
<!-- Generator: Adobe Illustrator 19.0.0, SVG Export Plug-In . SVG Version: 6.00 Build 0)  -->
<svg version="1.1" id="Layer_1" xmlns="http://www.w3.org/2000/svg" xmlns:xlink="http://www.w3.org/1999/xlink" x="0px" y="0px"
	 viewBox="0 0 460 460" style="enable-background:new 0 0 460 460;" xml:space="preserve">
<g>
	<path style="fill:#FF0F27;" d="M230,0C102.974,0,0,102.975,0,230s102.974,230,230,230c11.095,0,22.006-0.786,32.681-2.304
		l195.355-257.882C443.255,87.053,346.793,0,230,0z"/>
	<path style="fill:#C2001B;" d="M458.027,199.815L337.911,79.698L230,425l32.678,32.679C374.224,441.81,460,345.93,460,230
		C460,219.768,459.323,209.694,458.027,199.815z"/>
	<path style="fill:#71E2F0;" d="M77.391,187.609c0,37.334,13.413,71.53,35.674,98.05L230,425l8.478-195L230,35
		C145.717,35,77.391,103.325,77.391,187.609z"/>
	<path style="fill:#71E2F0;" d="M230,35v390l116.935-139.342c22.261-26.52,35.674-60.716,35.674-98.05
		C382.609,103.325,314.283,35,230,35z"/>
	<path style="fill:#FFFFFF;" d="M230,55c-73.233,0-132.608,59.376-132.608,132.609S156.767,320.217,230,320.217l16.576-132.608
		L230,55z"/>
	<path style="fill:#C2FBFF;" d="M230,55v265.217c73.233,0,132.608-59.375,132.608-132.608S303.233,55,230,55z"/>
	<path style="fill:#C2001B;" d="M263.252,158.479h-15V115.61c0-10.064-8.188-18.252-18.252-18.252s-18.252,8.188-18.252,18.252
		v42.869h-15V115.61c0-18.335,14.917-33.252,33.252-33.252s33.252,14.917,33.252,33.252V158.479z"/>
	<polygon style="fill:#FF0F27;" points="230,119.859 244.094,196.359 230,262.859 163.729,237.859 163.729,119.859 	"/>
	<polygon style="fill:#C2001B;" points="230,119.859 230,237.858 163.729,237.858 163.729,272.858 296.271,272.858 296.271,119.859 
			"/>
</g>
<g>
</g>
<g>
</g>
<g>
</g>
<g>
</g>
<g>
</g>
<g>
</g>
<g>
</g>
<g>
</g>
<g>
</g>
<g>
</g>
<g>
</g>
<g>
</g>
<g>
</g>
<g>
</g>
<g>
</g>
</svg>
