<?xml version="1.0" encoding="iso-8859-1"?>
<!-- Generator: Adobe Illustrator 19.0.0, SVG Export Plug-In . SVG Version: 6.00 Build 0)  -->
<svg version="1.1" id="Layer_1" xmlns="http://www.w3.org/2000/svg" xmlns:xlink="http://www.w3.org/1999/xlink" x="0px" y="0px"
	 viewBox="0 0 460 460" style="enable-background:new 0 0 460 460;" xml:space="preserve">
<g>
	<path style="fill:#38C6D9;" d="M230,0C102.974,0,0,102.974,0,230c0,97.49,60.656,180.813,146.287,214.291
		C172.23,454.433,200.465,460,230,460l219.259-299.67C419.745,67.363,332.739,0,230,0z"/>
	<path style="fill:#5488A8;" d="M460,230c0-24.289-3.777-47.693-10.755-69.671l-44.787-44.787l-21.624,21.626l-47.501-47.501
		l-17.856,13.86l-58.002-58.002L187.5,117.5L68.677,366.671l77.612,77.612C172.232,454.426,200.464,460,230,460
		C357.025,460,460,357.025,460,230z"/>
	<path style="fill:#FFC61B;" d="M410.333,129.667v50c0,11-9,20-20,20h-160v-90h160C401.333,109.667,410.333,118.667,410.333,129.667
		z"/>
	<path style="fill:#FEE187;" d="M230.333,109.667v90h-160c-11,0-20-9-20-20v-50c0-11,9-20,20-20
		C70.333,109.667,230.333,109.667,230.333,109.667z"/>
	<path style="fill:#C2FBFF;" d="M403.853,311.387c9.06,43.05-19.52,78.28-63.52,78.28h-110l-50-170l170-80h30v60L403.853,311.387z"
		/>
	<path style="fill:#FFFFFF;" d="M230.333,159.667v230h-110c-44,0-72.58-35.23-63.52-78.28l23.52-111.72v-60h30L230.333,159.667z"/>
	<polygon style="fill:#FFFFFF;" points="209.476,109.667 125.333,109.667 125.333,89.667 201.191,89.667 238.262,52.595 
		252.405,66.738 	"/>
	<circle style="fill:#FFFFFF;" cx="245.333" cy="59.667" r="20"/>
	<polygon style="fill:#FEE187;" points="251.191,109.667 335.333,109.667 335.333,89.667 259.476,89.667 222.405,52.595 
		208.262,66.738 	"/>
	<circle style="fill:#FEE187;" cx="215.333" cy="59.667" r="20"/>
	<path style="fill:#38C6D9;" d="M350.333,202.786l24.16,114.78c2.49,11.8,0.43,22.53-5.8,30.2c-6.23,7.67-16.3,11.9-28.36,11.9h-110
		l-40-110l40-110h120V202.786z"/>
	<path style="fill:#71E2F0;" d="M230.333,139.667v220h-110c-12.06,0-22.13-4.23-28.36-11.9c-6.23-7.67-8.29-18.4-5.8-30.2
		l24.16-114.78v-63.12L230.333,139.667L230.333,139.667z"/>
	<rect x="140.333" y="202.786" style="fill:#38C6D9;" width="20" height="20"/>
	<rect x="180.333" y="242.786" style="fill:#38C6D9;" width="20" height="20"/>
</g>
<g>
</g>
<g>
</g>
<g>
</g>
<g>
</g>
<g>
</g>
<g>
</g>
<g>
</g>
<g>
</g>
<g>
</g>
<g>
</g>
<g>
</g>
<g>
</g>
<g>
</g>
<g>
</g>
<g>
</g>
</svg>
