<?xml version="1.0" encoding="iso-8859-1"?>
<!-- Generator: Adobe Illustrator 19.0.0, SVG Export Plug-In . SVG Version: 6.00 Build 0)  -->
<svg version="1.1" id="Layer_1" xmlns="http://www.w3.org/2000/svg" xmlns:xlink="http://www.w3.org/1999/xlink" x="0px" y="0px"
	 viewBox="0 0 460 460" style="enable-background:new 0 0 460 460;" xml:space="preserve">
<g>
	<path style="fill:#273B7A;" d="M230.333,0.001C103.308,0.001,0,102.975,0,230.001c0,98.328,61.902,182.244,148.789,215.142
		l295.782-298.252C411.341,60.941,328.052,0.001,230.333,0.001z"/>
	<path style="fill:#121149;" d="M460,230.001c0-29.309-5.475-57.331-15.442-83.109l-65.724-65.725l-297,297l66.958,66.958
		c25.36,9.603,52.842,14.875,81.542,14.875C357.359,460,460,357.026,460,230.001z"/>
	<rect x="298.833" y="368.167" style="fill:#D48B07;" width="50" height="30"/>
	<rect x="121.833" y="368.167" style="fill:#FFC61B;" width="50" height="30"/>
	<polygon style="fill:#FEE187;" points="378.833,81.168 378.833,378.167 230.333,378.167 165.333,229.668 230.333,81.168 	"/>
	<rect x="81.833" y="81.168" style="fill:#FFEDB5;" width="148.5" height="297"/>
	<path style="fill:#D48B07;" d="M338.833,151.168v157c0,16.5-13.5,30-30,30h-78.5l-45-108.5l45-108.5h78.5
		C325.333,121.168,338.833,134.668,338.833,151.168z"/>
	<path style="fill:#E0A300;" d="M230.333,121.168v217h-78.5c-16.5,0-30-13.5-30-30v-157c0-16.5,13.5-30,30-30
		C151.833,121.167,230.333,121.167,230.333,121.168z"/>
	<path style="fill:#121149;" d="M230.333,284.667l-23.571-55l23.571-55c30.327,0,55,24.673,55,55S260.661,284.667,230.333,284.667z"
		/>
	<path style="fill:#273B7A;" d="M175.333,229.668c0,30.327,24.673,55,55,55v-110C200.006,174.668,175.333,199.34,175.333,229.668z"
		/>
	<rect x="111.833" y="161.833" style="fill:#273B7A;" width="20" height="50"/>
	<rect x="111.833" y="247.501" style="fill:#273B7A;" width="20" height="50"/>
	<path style="fill:#FFC61B;" d="M230.333,264.667l-15-35l15-35c19.299,0,35,15.701,35,35S249.632,264.667,230.333,264.667z"/>
	<path style="fill:#FEE187;" d="M195.333,229.668c0,19.299,15.701,35,35,35v-70C211.034,194.668,195.333,210.368,195.333,229.668z"
		/>
</g>
<g>
</g>
<g>
</g>
<g>
</g>
<g>
</g>
<g>
</g>
<g>
</g>
<g>
</g>
<g>
</g>
<g>
</g>
<g>
</g>
<g>
</g>
<g>
</g>
<g>
</g>
<g>
</g>
<g>
</g>
</svg>
