<?xml version="1.0" encoding="iso-8859-1"?>
<!-- Generator: Adobe Illustrator 19.0.0, SVG Export Plug-In . SVG Version: 6.00 Build 0)  -->
<svg version="1.1" id="Layer_1" xmlns="http://www.w3.org/2000/svg" xmlns:xlink="http://www.w3.org/1999/xlink" x="0px" y="0px"
	 viewBox="0 0 460 460" style="enable-background:new 0 0 460 460;" xml:space="preserve">
<g>
	<path style="fill:#C2001B;" d="M230,0C102.974,0,0,102.974,0,230c0,103.512,68.381,191.054,162.434,219.916l294.828-255.515
		C440.151,84.28,344.918,0,230,0z"/>
	<path style="fill:#940030;" d="M457.255,194.402L360,97.147l-14.903,17.755l-66.626-66.626L213,41l-37,26l-76,320.47l62.436,62.437
		C183.801,456.463,206.487,460,230,460c127.026,0,230-102.975,230-230C460,217.892,459.058,206.005,457.255,194.402z"/>
	<path style="fill:#FFAD9E;" d="M229.6,28l-10,10l10,10c27.1,0,49.147,22.047,49.147,49.147v73.844h20V97.147
		C298.747,59.019,267.728,28,229.6,28z"/>
	<path style="fill:#FFEDB5;" d="M160.453,97.147v73.844h20V97.147C180.453,70.047,202.5,48,229.6,48V28
		C191.472,28,160.453,59.019,160.453,97.147z"/>
	<polygon style="fill:#FFEDB5;" points="230,97.147 257.647,242.309 230,387.471 100,387.471 100,97.147 	"/>
	<rect x="230" y="97.147" style="fill:#FFAD9E;" width="130" height="290.324"/>
	<path style="fill:#FFEDB5;" d="M330,242.309c0,55.228-44.772,100-100,100l-50-100l50-100C285.228,142.309,330,187.08,330,242.309z"
		/>
	<path style="fill:#FFFFFF;" d="M130,242.309c0,55.229,44.772,100,100,100v-200C174.772,142.309,130,187.08,130,242.309z"/>
	<path style="fill:#940030;" d="M230,132.31c60.65,0,110,49.34,110,110c0,60.65-49.35,110-110,110l-10-10l10-10
		c2.15,0,8.43-5.49,14.08-22.45c5.19-15.55,8.34-35.7,9.08-57.55H230l-10-10l10-10h23.16c-0.74-21.85-3.89-42-9.08-57.55
		c-5.65-16.96-11.93-22.45-14.08-22.45l-10-10L230,132.31z M273.17,232.31h46.27c-3.91-35.25-28.26-64.41-60.89-75.36
		c1.56,3.38,3.07,7.18,4.51,11.49C268.88,185.91,272.4,208.3,273.17,232.31z M319.44,252.31h-46.27
		c-0.77,24.01-4.29,46.4-10.11,63.87c-1.44,4.31-2.95,8.11-4.51,11.48C291.18,316.72,315.53,287.55,319.44,252.31z"/>
	<path style="fill:#C2001B;" d="M230,332.31v20c-60.65,0-110-49.35-110-110c0-60.66,49.35-110,110-110v20
		c-2.15,0-8.43,5.49-14.08,22.45c-5.19,15.55-8.34,35.7-9.08,57.55H230v20h-23.16c0.74,21.85,3.89,42,9.08,57.55
		C221.57,326.82,227.85,332.31,230,332.31z M196.94,168.44c1.44-4.31,2.95-8.11,4.51-11.49c-32.63,10.95-56.98,40.11-60.89,75.36
		h46.27C187.6,208.3,191.12,185.91,196.94,168.44z M201.45,327.66c-1.56-3.37-3.07-7.17-4.51-11.48
		c-5.82-17.47-9.34-39.86-10.11-63.87h-46.27C144.47,287.55,168.82,316.72,201.45,327.66z"/>
</g>
<g>
</g>
<g>
</g>
<g>
</g>
<g>
</g>
<g>
</g>
<g>
</g>
<g>
</g>
<g>
</g>
<g>
</g>
<g>
</g>
<g>
</g>
<g>
</g>
<g>
</g>
<g>
</g>
<g>
</g>
</svg>
