<?xml version="1.0" encoding="iso-8859-1"?>
<!-- Generator: Adobe Illustrator 19.0.0, SVG Export Plug-In . SVG Version: 6.00 Build 0)  -->
<svg version="1.1" id="Layer_1" xmlns="http://www.w3.org/2000/svg" xmlns:xlink="http://www.w3.org/1999/xlink" x="0px" y="0px"
	 viewBox="0 0 460 460" style="enable-background:new 0 0 460 460;" xml:space="preserve">
<g>
	<path style="fill:#C2FBFF;" d="M230,0C102.975,0,0,102.974,0,230c0,115.344,84.906,210.857,195.627,227.449l264.371-228.393
		C459.489,102.464,356.71,0,230,0z"/>
	<path style="fill:#71E2F0;" d="M460,230c0-0.316-0.011-0.629-0.012-0.944l-59.373-59.373l-77.846,17.548L217.828,82.289H203.38
		L83.101,203.976l20.551,161.49l91.976,91.976C206.842,459.122,218.318,460,230,460C357.026,460,460,357.025,460,230z"/>
	
		<rect x="134.723" y="47.864" transform="matrix(-0.7071 -0.7071 0.7071 -0.7071 164.249 326.3948)" style="fill:#366796;" width="30" height="162.633"/>
	
		<rect x="228.96" y="114.18" transform="matrix(-0.7071 -0.7071 0.7071 -0.7071 438.332 439.9225)" style="fill:#273B7A;" width="162.633" height="30"/>
	<path style="fill:#5488A8;" d="M230,199.682l-160.615,10l22.038,134.873c2.661,16.284,18.338,29.607,34.838,29.607H230
		l28.668-82.24L230,199.682z"/>
	<path style="fill:#366796;" d="M230,199.682v174.48h103.739c16.5,0,32.177-13.323,34.838-29.607l22.038-134.873L230,199.682z"/>
	<path style="fill:#366796;" d="M87.12,199.683l24.042,141.647c1.078,6.596,8.416,12.832,15.099,12.832H230l20-77.24l-20-77.24
		L87.12,199.683z"/>
	<path style="fill:#273B7A;" d="M372.88,199.683L348.838,341.33c-1.078,6.596-8.416,12.832-15.099,12.832H230v-154.48
		L372.88,199.683z"/>
	<rect x="59.385" y="169.682" style="fill:#121149;" width="341.23" height="40"/>
	<path style="fill:#FFEDB5;" d="M415.35,204.972v40.42c0,45.18-19.97,71.97-36.72,86.49c-17.96,15.57-35.96,20.5-37.96,21.01
		l-4.96,1.27l-20-90.4l20-86.41L415.35,204.972z"/>
	<path style="fill:#FFFFFF;" d="M335.71,177.352v176.81l-4.97-1.27c-1.99-0.51-20-5.44-37.95-21.01
		c-16.76-14.52-36.73-41.31-36.73-86.49v-40.42L335.71,177.352z"/>
	<path style="fill:#121149;" d="M395.35,219.203v26.19c0,72.844-59.643,88.125-59.643,88.125l-10.476-69.756l10.476-65.244
		L395.35,219.203z"/>
	<path style="fill:#D48B07;" d="M276.064,219.203v26.19c0,72.844,59.643,88.125,59.643,88.125v-135L276.064,219.203z"/>
</g>
<g>
</g>
<g>
</g>
<g>
</g>
<g>
</g>
<g>
</g>
<g>
</g>
<g>
</g>
<g>
</g>
<g>
</g>
<g>
</g>
<g>
</g>
<g>
</g>
<g>
</g>
<g>
</g>
<g>
</g>
</svg>
