<?xml version="1.0" encoding="iso-8859-1"?>
<!-- Generator: Adobe Illustrator 19.0.0, SVG Export Plug-In . SVG Version: 6.00 Build 0)  -->
<svg version="1.1" id="Layer_1" xmlns="http://www.w3.org/2000/svg" xmlns:xlink="http://www.w3.org/1999/xlink" x="0px" y="0px"
	 viewBox="0 0 460 460" style="enable-background:new 0 0 460 460;" xml:space="preserve">
<g>
	<path style="fill:#C2001B;" d="M230,0C102.975,0,0,102.975,0,230c0,103.515,68.383,191.057,162.439,219.917l294.822-255.519
		C440.15,84.279,344.917,0,230,0z"/>
	<path style="fill:#940030;" d="M457.255,194.402L360,97.146l-14.903,17.755l-66.626-66.626L213,41l-37,26l-38.656,163H21.407
		l93.713,93.713L100,387.471l62.437,62.437C183.801,456.463,206.487,460,230,460c127.025,0,230-102.975,230-230
		C460,217.892,459.058,206.005,457.255,194.402z"/>
	<path style="fill:#FFAD9E;" d="M229.6,28l-10,10l10,10c27.1,0,49.147,22.047,49.147,49.147v73.844h20V97.147
		C298.747,59.019,267.728,28,229.6,28z"/>
	<path style="fill:#FFEDB5;" d="M229.6,48c-27.1,0-49.147,22.047-49.147,49.147v73.844h-20V97.147
		C160.453,59.019,191.472,28,229.6,28V48z"/>
	<polygon style="fill:#FFEDB5;" points="230,97.147 237.647,192.935 230,277.471 165,286.906 100,265 100,97.147 	"/>
	<polygon style="fill:#FFAD9E;" points="360,97.147 360,265 295,286.906 230,277.471 230,97.147 	"/>
	<polygon style="fill:#FFEDB5;" points="230,326.235 237.647,358.792 230,387.471 100,387.471 157.552,326.235 193.776,315.102 	"/>
	<polygon style="fill:#FFAD9E;" points="240,255 230,326.235 157.552,326.235 100,265 	"/>
	<polygon style="fill:#FF6161;" points="100,265 172.848,326.235 100,387.471 	"/>
	<polygon style="fill:#FFAD9E;" points="360,387.471 230,387.471 230,326.235 266.224,315.102 302.448,326.235 	"/>
	<polygon style="fill:#FF6161;" points="360,265 302.448,326.235 230,326.235 230,255 	"/>
	<polygon style="fill:#FF0F27;" points="360,387.471 287.152,326.235 360,265 	"/>
	<polygon style="fill:#121149;" points="21.408,230 54.154,215.417 64.154,230 54.154,244.583 	"/>
	<polygon style="fill:#FFFFFF;" points="100,195 54.154,215.417 54.154,244.583 100,265 110,230 	"/>
	<polygon style="fill:#366796;" points="351.991,230 220.996,240 100,230 100,195 330,195 	"/>
	<polygon style="fill:#273B7A;" points="330,265 100,265 100,230 351.991,230 	"/>
	<polygon style="fill:#FFFFFF;" points="360,195 330,195 330,265 360,265 370,230 	"/>
	<path style="fill:#FF6161;" d="M421.64,245v-30c0-11-9-20-20-20H360v70h41.64C412.64,265,421.64,256,421.64,245z"/>
</g>
<g>
</g>
<g>
</g>
<g>
</g>
<g>
</g>
<g>
</g>
<g>
</g>
<g>
</g>
<g>
</g>
<g>
</g>
<g>
</g>
<g>
</g>
<g>
</g>
<g>
</g>
<g>
</g>
<g>
</g>
</svg>
