<?xml version="1.0" encoding="iso-8859-1"?>
<!-- Generator: Adobe Illustrator 19.0.0, SVG Export Plug-In . SVG Version: 6.00 Build 0)  -->
<svg version="1.1" id="Layer_1" xmlns="http://www.w3.org/2000/svg" xmlns:xlink="http://www.w3.org/1999/xlink" x="0px" y="0px"
	 viewBox="0 0 460 460" style="enable-background:new 0 0 460 460;" xml:space="preserve">
<g>
	<path style="fill:#C2FBFF;" d="M230,0C102.975,0,0,102.975,0,230c0,107.767,74.117,198.223,174.158,223.174l279.015-279.019
		C428.221,74.116,337.766,0,230,0z"/>
	<path style="fill:#71E2F0;" d="M460,230c0-19.26-2.381-37.962-6.841-55.841L339,60L121,400l53.159,53.159
		C192.038,457.619,210.74,460,230,460C357.025,460,460,357.025,460,230z"/>
	<polygon style="fill:#273B7A;" points="214.429,75.652 339,80 339,330 230,337.826 	"/>
	<polygon style="fill:#366796;" points="230,337.826 121,330 121,80 230,75.652 	"/>
	<polygon style="fill:#61A2B3;" points="230,400 206.643,365 230,330 339,330 339,400 	"/>
	<rect x="121" y="330" style="fill:#71E2F0;" width="109" height="70"/>
	<polygon style="fill:#61A2B3;" points="230,60 339,60 339,80 230,80 214.429,70 	"/>
	<circle style="fill:#FFFFFF;" cx="230" cy="365" r="15"/>
	<rect x="121" y="60" style="fill:#71E2F0;" width="109" height="20"/>
	<polygon style="fill:#C2FBFF;" points="287.129,205 235.211,197.012 175.307,205 175.307,298.427 287.126,298.427 	"/>
	<polygon style="fill:#FFFFFF;" points="286.919,111.366 175.1,111.366 175.307,205 287.129,205 	"/>
	<path style="fill:#38C6D9;" d="M263.298,205c0,18.38-14.897,33.277-33.277,33.277c-18.376,0-33.277-14.897-33.277-33.277
		l33.277-7.395L263.298,205z"/>
	<path style="fill:#71E2F0;" d="M263.298,205h-66.554c0-18.38,14.901-33.277,33.277-33.277
		C248.401,171.723,263.298,186.62,263.298,205z"/>
	<path style="fill:#38C6D9;" d="M273.298,265.783V205L283,195l10.298,10v102.236H166.702V205l8.605-10l11.395,10v60.772
		c10.547,2.721,18.963,10.977,21.748,21.465h43.141C254.373,276.762,262.771,268.516,273.298,265.783z"/>
	<path style="fill:#71E2F0;" d="M273.298,144.217V205h20V102.764H166.702V205h20v-60.772c10.547-2.721,18.963-10.977,21.748-21.465
		h43.141C254.373,133.238,262.771,141.484,273.298,144.217z"/>
</g>
<g>
</g>
<g>
</g>
<g>
</g>
<g>
</g>
<g>
</g>
<g>
</g>
<g>
</g>
<g>
</g>
<g>
</g>
<g>
</g>
<g>
</g>
<g>
</g>
<g>
</g>
<g>
</g>
<g>
</g>
</svg>
