<?xml version="1.0" encoding="iso-8859-1"?>
<!-- Generator: Adobe Illustrator 19.0.0, SVG Export Plug-In . SVG Version: 6.00 Build 0)  -->
<svg version="1.1" id="Layer_1" xmlns="http://www.w3.org/2000/svg" xmlns:xlink="http://www.w3.org/1999/xlink" x="0px" y="0px"
	 viewBox="0 0 459.994 459.994" style="enable-background:new 0 0 459.994 459.994;" xml:space="preserve">
<g>
	<path style="fill:#366796;" d="M230.004,0c-127.026,0-230,102.974-230,230c0,115.604,85.289,211.287,196.376,227.56
		l261.018-262.296C440.651,84.72,345.221,0,230.004,0z"/>
	<path style="fill:#121149;" d="M392.638,392.634c53.773-53.773,75.339-127.546,64.728-197.373L361.29,99.185L99.66,360.815
		l96.723,96.723C265.879,467.75,339.152,446.12,392.638,392.634z"/>
	<path style="fill:#D48B07;" d="M230.337,409.667v-180h180C410.337,328.922,329.593,409.667,230.337,409.667z"/>
	<path style="fill:#E0A300;" d="M230.337,49.667c99.256,0,180,80.744,180,180h-180V49.667z"/>
	<path style="fill:#E0A300;" d="M230.337,229.667v180c-99.256,0-180-80.744-180-180L230.337,229.667L230.337,229.667z"/>
	<path style="fill:#FFC61B;" d="M230.337,49.667v180h-180C50.337,130.411,131.081,49.667,230.337,49.667z"/>
	<path style="fill:#FEE187;" d="M240.337,44.937c97.38,5.21,175,86.07,175,184.73s-77.62,179.52-175,184.73l-10-10.62l10-10.62
		c15.7-4.7,30.93-20.23,42.93-44.22c1.8-3.6,3.51-7.36,5.12-11.23c-15.32-5.76-31.51-9.23-48.05-10.23l-10-10.015l10-10.015
		c18.89,1.02,37.37,4.91,54.86,11.46c7.37-23.68,11.67-50.76,12.49-79.24h-77.35v-20h77.35c-0.82-28.48-5.12-55.56-12.49-79.24
		c-17.49,6.55-35.97,10.44-54.86,11.46l-10-10.015l10-10.015c16.54-1,32.73-4.47,48.05-10.23c-1.61-3.87-3.32-7.63-5.12-11.23
		c-12-23.99-27.23-39.52-42.93-44.22l-10-10.62L240.337,44.937z M327.697,219.667h67.33c-2.53-42.15-20.96-80.08-49.35-107.87
		c-9.99,7.97-20.72,14.84-32,20.53C321.847,157.816,326.837,187.536,327.697,219.667z M395.027,239.667h-67.33
		c-0.86,32.13-5.85,61.85-14.02,87.34c11.28,5.69,22.01,12.56,32,20.53C374.067,319.746,392.497,281.816,395.027,239.667z
		 M330.257,98.457c-14.09-10.76-29.95-19.31-47.07-25.11c8.99,10.81,16.93,24.36,23.53,40.07
		C314.937,109.127,322.817,104.127,330.257,98.457z M283.187,385.987c17.12-5.8,32.98-14.35,47.07-25.11
		c-7.44-5.67-15.32-10.67-23.54-14.96C300.117,361.626,292.177,375.177,283.187,385.987z"/>
	<path style="fill:#FFFFFF;" d="M240.337,327.477v65.68v21.24c-3.31,0.18-6.65,0.27-10,0.27c-102.01,0-185-82.99-185-185
		s82.99-185,185-185c3.35,0,6.69,0.09,10,0.27v21.24v65.68v20.03v155.56V327.477z M220.337,393.156v-65.68
		c-16.54,1-32.73,4.47-48.05,10.23c1.61,3.87,3.32,7.63,5.12,11.23C189.407,372.927,204.637,388.457,220.337,393.156z
		 M220.337,307.447v-67.78h-67.35c0.82,28.48,5.12,55.56,12.49,79.24C182.967,312.357,201.447,308.466,220.337,307.447z
		 M220.337,219.667v-67.78c-18.88-1.02-37.37-4.91-54.86-11.46c-7.37,23.68-11.67,50.76-12.49,79.24L220.337,219.667
		L220.337,219.667z M220.337,131.857v-65.68c-15.7,4.7-30.93,20.23-42.93,44.22c-1.8,3.6-3.51,7.35-5.12,11.23
		C187.607,127.387,203.797,130.857,220.337,131.857z M153.957,113.417c6.6-15.71,14.54-29.26,23.53-40.07
		c-17.12,5.8-32.98,14.35-47.07,25.11C137.857,104.127,145.737,109.127,153.957,113.417z M177.487,385.987
		c-8.99-10.81-16.93-24.36-23.53-40.07c-8.22,4.29-16.1,9.29-23.54,14.96C144.507,371.637,160.367,380.186,177.487,385.987z
		 M132.977,219.667c0.86-32.13,5.85-61.85,14.02-87.34c-11.28-5.69-22.01-12.56-32-20.53c-28.39,27.79-46.82,65.72-49.35,107.87
		L132.977,219.667L132.977,219.667z M146.997,327.007c-8.17-25.49-13.16-55.21-14.02-87.34h-67.33
		c2.53,42.15,20.96,80.08,49.35,107.87C124.987,339.566,135.717,332.697,146.997,327.007z"/>
</g>
<g>
</g>
<g>
</g>
<g>
</g>
<g>
</g>
<g>
</g>
<g>
</g>
<g>
</g>
<g>
</g>
<g>
</g>
<g>
</g>
<g>
</g>
<g>
</g>
<g>
</g>
<g>
</g>
<g>
</g>
</svg>
