<?xml version="1.0" encoding="iso-8859-1"?>
<!-- Generator: Adobe Illustrator 19.0.0, SVG Export Plug-In . SVG Version: 6.00 Build 0)  -->
<svg xmlns="http://www.w3.org/2000/svg" xmlns:xlink="http://www.w3.org/1999/xlink" version="1.1" id="Layer_1" x="0px" y="0px" viewBox="0 0 512 512" style="enable-background:new 0 0 512 512;" xml:space="preserve">
<path style="fill:#84DBFF;" d="M494.14,428.651H17.86c-9.864,0-17.86-7.997-17.86-17.86V101.209c0-9.864,7.997-17.86,17.86-17.86  H494.14c9.864,0,17.86,7.997,17.86,17.86v309.581C512,420.654,504.003,428.651,494.14,428.651z"/>
<g>
	<path style="fill:#54C9EB;" d="M0,256v154.791c0,9.864,7.997,17.86,17.86,17.86H494.14c9.864,0,17.86-7.997,17.86-17.86V256H0z"/>
	<rect x="238.14" y="83.349" style="fill:#54C9EB;" width="35.721" height="345.302"/>
</g>
<g>
	<path style="fill:#1C3D66;" d="M75.414,315.577V196.423c0-13.742,14.91-22.328,26.791-15.467l103.191,59.577   c11.901,6.872,11.881,24.076,0,30.934l-103.191,59.577C90.33,337.901,75.414,329.334,75.414,315.577z"/>
	<path style="fill:#1C3D66;" d="M409.795,331.044l-103.191-59.577c-11.901-6.872-11.881-24.076,0-30.934l103.191-59.577   c11.899-6.87,26.791,1.744,26.791,15.467v119.153C436.586,329.406,421.594,337.857,409.795,331.044z"/>
</g>
<rect x="238.14" y="256" style="fill:#1BB3F9;" width="35.721" height="172.651"/>
<g>
	<path style="fill:#163457;" d="M75.414,256v59.577c0,13.757,14.916,22.324,26.791,15.467l103.191-59.577   c5.942-3.43,8.917-9.448,8.918-15.467H75.414z"/>
	<path style="fill:#163457;" d="M297.686,256c-0.001,6.015,2.968,12.032,8.918,15.467l103.191,59.577   c11.799,6.813,26.791-1.637,26.791-15.467V256H297.686z"/>
</g>
<g>
</g>
<g>
</g>
<g>
</g>
<g>
</g>
<g>
</g>
<g>
</g>
<g>
</g>
<g>
</g>
<g>
</g>
<g>
</g>
<g>
</g>
<g>
</g>
<g>
</g>
<g>
</g>
<g>
</g>
</svg>
