<?xml version="1.0" encoding="iso-8859-1"?>
<!-- Generator: Adobe Illustrator 19.0.0, SVG Export Plug-In . SVG Version: 6.00 Build 0)  -->
<svg xmlns="http://www.w3.org/2000/svg" xmlns:xlink="http://www.w3.org/1999/xlink" version="1.1" id="Layer_1" x="0px" y="0px" viewBox="0 0 512 512" style="enable-background:new 0 0 512 512;" xml:space="preserve">
<path style="fill:#EFEFEF;" d="M494.14,428.651H17.86c-9.864,0-17.86-7.997-17.86-17.86V101.209c0-9.864,7.997-17.86,17.86-17.86  H494.14c9.864,0,17.86,7.997,17.86,17.86v309.581C512,420.654,504.003,428.651,494.14,428.651z"/>
<path style="fill:#C5D8DF;" d="M0,256v154.791c0,9.864,7.997,17.86,17.86,17.86H494.14c9.864,0,17.86-7.997,17.86-17.86V256H0z"/>
<path style="fill:#1C3D66;" d="M136.485,314.369l-74.308-42.902c-11.902-6.873-11.88-24.076,0-30.934l74.308-42.902  c11.9-6.872,26.791,1.748,26.791,15.467v85.805C163.276,312.732,148.285,321.184,136.485,314.369z"/>
<path style="fill:#163457;" d="M53.259,256c-0.001,6.015,2.968,12.032,8.918,15.467l74.308,42.902  c11.8,6.813,26.791-1.638,26.791-15.467V256H53.259z"/>
<path style="fill:#1C3D66;" d="M348.724,298.902v-85.805c0-13.741,14.91-22.328,26.791-15.467l74.308,42.902  c11.902,6.873,11.88,24.076,0,30.934l-74.308,42.902C363.67,321.21,348.724,312.667,348.724,298.902z"/>
<path style="fill:#163457;" d="M348.724,256v42.902c0,13.764,14.946,22.308,26.791,15.467l74.308-42.902  c5.942-3.43,8.917-9.448,8.918-15.467L348.724,256L348.724,256z"/>
<g>
	<path style="fill:#C5D8DF;" d="M256,306.251c-9.864,0-17.86-7.997-17.86-17.86v-64.781c0-9.864,7.997-17.86,17.86-17.86   s17.86,7.997,17.86,17.86v64.781C273.86,298.254,265.864,306.251,256,306.251z"/>
	<path style="fill:#C5D8DF;" d="M256,165.963c-9.864,0-17.86-7.997-17.86-17.86V83.321c0-9.864,7.997-17.86,17.86-17.86   s17.86,7.997,17.86,17.86v64.781C273.86,157.966,265.864,165.963,256,165.963z"/>
</g>
<g>
	<path style="fill:#9CC2D0;" d="M238.14,256v32.391c0,9.864,7.997,17.86,17.86,17.86s17.86-7.997,17.86-17.86V256H238.14z"/>
	<path style="fill:#9CC2D0;" d="M256,446.539c-9.864,0-17.86-7.997-17.86-17.86v-64.781c0-9.864,7.997-17.86,17.86-17.86   s17.86,7.997,17.86,17.86v64.781C273.86,438.543,265.864,446.539,256,446.539z"/>
</g>
<g>
</g>
<g>
</g>
<g>
</g>
<g>
</g>
<g>
</g>
<g>
</g>
<g>
</g>
<g>
</g>
<g>
</g>
<g>
</g>
<g>
</g>
<g>
</g>
<g>
</g>
<g>
</g>
<g>
</g>
</svg>
