<?xml version="1.0" encoding="iso-8859-1"?>
<!-- Generator: Adobe Illustrator 19.0.0, SVG Export Plug-In . SVG Version: 6.00 Build 0)  -->
<svg xmlns="http://www.w3.org/2000/svg" xmlns:xlink="http://www.w3.org/1999/xlink" version="1.1" id="Layer_1" x="0px" y="0px" viewBox="0 0 512 512" style="enable-background:new 0 0 512 512;" xml:space="preserve">
<path style="fill:#EFEFEF;" d="M493.268,488.324H18.732C8.387,488.324,0,479.938,0,469.593V184.802  c0-10.345,8.387-18.732,18.732-18.732h474.537c10.345,0,18.732,8.387,18.732,18.732v284.791  C512,479.938,503.613,488.324,493.268,488.324z"/>
<g>
	<path style="fill:#C5D8DF;" d="M493.268,166.07H256v322.254h237.268c10.345,0,18.732-8.387,18.732-18.732V184.802   C512,174.457,503.613,166.07,493.268,166.07z"/>
	<polygon style="fill:#C5D8DF;" points="512,327.087 274.912,327.087 274.912,166.07 237.448,166.07 237.448,327.087 0,327.087    0,364.55 237.448,364.55 237.448,488.324 274.912,488.324 274.912,364.55 512,364.55  "/>
</g>
<g>
	<polygon style="fill:#9CC2D0;" points="274.912,327.087 274.912,166.07 256,166.07 256,488.324 274.912,488.324 274.912,364.55    512,364.55 512,327.087  "/>
	<path style="fill:#9CC2D0;" d="M512,203.534H0V42.407c0-10.345,8.387-18.732,18.732-18.732h474.537   c10.345,0,18.732,8.387,18.732,18.732V203.534z"/>
</g>
<path style="fill:#72ABC0;" d="M512,42.407c0-10.345-8.387-18.732-18.732-18.732H256v179.858h256V42.407z"/>
<g>
</g>
<g>
</g>
<g>
</g>
<g>
</g>
<g>
</g>
<g>
</g>
<g>
</g>
<g>
</g>
<g>
</g>
<g>
</g>
<g>
</g>
<g>
</g>
<g>
</g>
<g>
</g>
<g>
</g>
</svg>
