<?xml version="1.0" encoding="iso-8859-1"?>
<!-- Generator: Adobe Illustrator 19.0.0, SVG Export Plug-In . SVG Version: 6.00 Build 0)  -->
<svg xmlns="http://www.w3.org/2000/svg" xmlns:xlink="http://www.w3.org/1999/xlink" version="1.1" id="Layer_1" x="0px" y="0px" viewBox="0 0 512 512" style="enable-background:new 0 0 512 512;" xml:space="preserve">
<path style="fill:#FFE365;" d="M493.268,512H18.732C8.387,512,0,503.613,0,493.268V18.732C0,8.387,8.387,0,18.732,0h474.537  C503.613,0,512,8.387,512,18.732v474.537C512,503.613,503.613,512,493.268,512z"/>
<g>
	<path style="fill:#FFC733;" d="M493.268,0H256v512h237.268c10.345,0,18.732-8.387,18.732-18.732V18.732   C512,8.387,503.613,0,493.268,0z"/>
	<path style="fill:#FFC733;" d="M369.117,131.766C369.116,131.766,369.116,131.766,369.117,131.766   c-33.672-33.673-88.461-33.673-122.134,0c-29.123,29.124-33.035,74.034-11.781,107.425L123.076,351.317   c-7.315,7.314-7.315,19.175,0,26.49l22.235,22.236c7.314,7.314,19.174,7.317,26.49,0c7.315-7.314,7.315-19.174,0-26.49l-8.99-8.99   l12.299-12.299l8.99,8.99c7.313,7.314,19.175,7.317,26.49,0c7.315-7.314,7.315-19.174,0-26.49l-8.99-8.99l60.089-60.089   c33.662,21.43,78.498,17.145,107.425-11.782C402.868,220.151,402.872,165.522,369.117,131.766z M342.625,227.409   c-19.113,19.111-50.04,19.111-69.152,0c-19.065-19.066-19.065-50.087,0-69.154c19.111-19.11,50.041-19.111,69.152,0   C361.734,177.367,361.739,208.297,342.625,227.409z"/>
</g>
<path style="fill:#FFAF00;" d="M369.117,131.766C369.116,131.766,369.116,131.766,369.117,131.766  c-30.814-30.815-79.3-33.411-113.117-7.829v147.435l5.691-5.691c33.662,21.43,78.498,17.145,107.425-11.782  C402.868,220.15,402.872,165.522,369.117,131.766z M342.625,227.409c-19.113,19.111-50.04,19.111-69.152,0  c-19.065-19.066-19.065-50.087,0-69.154c19.111-19.11,50.04-19.111,69.152,0C361.734,177.366,361.739,208.298,342.625,227.409z"/>
<g>
</g>
<g>
</g>
<g>
</g>
<g>
</g>
<g>
</g>
<g>
</g>
<g>
</g>
<g>
</g>
<g>
</g>
<g>
</g>
<g>
</g>
<g>
</g>
<g>
</g>
<g>
</g>
<g>
</g>
</svg>
