<?xml version="1.0" encoding="iso-8859-1"?>
<!-- Generator: Adobe Illustrator 19.0.0, SVG Export Plug-In . SVG Version: 6.00 Build 0)  -->
<svg xmlns="http://www.w3.org/2000/svg" xmlns:xlink="http://www.w3.org/1999/xlink" version="1.1" id="Layer_1" x="0px" y="0px" viewBox="0 0 512 512" style="enable-background:new 0 0 512 512;" xml:space="preserve">
<path style="fill:#FFE365;" d="M447.433,512H64.555c-9.22,0-16.695-7.475-16.695-16.695V16.712c0-9.22,7.475-16.695,16.695-16.695  h261.04c4.429,0,8.675,1.759,11.805,4.889l121.837,121.839c3.131,3.131,4.891,7.377,4.891,11.805v356.756  C464.128,504.527,456.653,512,447.433,512z"/>
<path style="fill:#FFC733;" d="M459.238,126.744L337.401,4.907c-3.131-3.131-7.377-4.891-11.805-4.891h-69.603V512h191.439  c9.22,0,16.695-7.475,16.695-16.695V138.55C464.128,134.122,462.37,129.875,459.238,126.744z"/>
<path style="fill:#FFAF00;" d="M447.433,155.239H325.599c-9.22,0-16.695-7.475-16.695-16.695V16.708  c0-14.867,18.028-22.279,28.5-11.806l121.834,121.834C469.713,137.213,462.297,155.239,447.433,155.239z"/>
<path style="fill:#1BB3F9;" d="M311.957,414.323l-76.19-95.776c-5.286-6.644-4.744-16.195,1.26-22.198l28.851-28.852  c6.003-6.005,15.557-6.546,22.198-1.26l95.777,76.192c7.791,6.196,8.462,17.822,1.412,24.87l-48.437,48.436  C329.797,422.767,318.175,422.141,311.957,414.323z"/>
<path style="fill:#008BE5;" d="M383.852,342.429l-95.777-76.192c-6.642-5.286-16.197-4.745-22.198,1.26l-9.882,9.883v66.595  l55.962,70.348c6.218,7.818,17.841,8.443,24.87,1.412l48.437-48.436C392.314,360.251,391.643,348.625,383.852,342.429z"/>
<path style="fill:#84DBFF;" d="M144.873,286.582c-30.669-30.668-30.669-80.57,0-111.237c30.738-30.74,80.496-30.745,111.238,0  c30.669,30.668,30.669,80.57,0,111.237C225.374,317.323,175.615,317.327,144.873,286.582z"/>
<path style="fill:#54C9EB;" d="M256.111,175.345c-0.038-0.039-0.079-0.073-0.117-0.111v111.461c0.038-0.039,0.079-0.073,0.117-0.111  C286.78,255.914,286.78,206.013,256.111,175.345z"/>
<g>
</g>
<g>
</g>
<g>
</g>
<g>
</g>
<g>
</g>
<g>
</g>
<g>
</g>
<g>
</g>
<g>
</g>
<g>
</g>
<g>
</g>
<g>
</g>
<g>
</g>
<g>
</g>
<g>
</g>
</svg>
