<?xml version="1.0" encoding="iso-8859-1"?>
<!-- Generator: Adobe Illustrator 19.0.0, SVG Export Plug-In . SVG Version: 6.00 Build 0)  -->
<svg xmlns="http://www.w3.org/2000/svg" xmlns:xlink="http://www.w3.org/1999/xlink" version="1.1" id="Layer_1" x="0px" y="0px" viewBox="0 0 512 512" style="enable-background:new 0 0 512 512;" xml:space="preserve">
<path style="fill:#EFEFEF;" d="M256,512C114.508,512,0,397.503,0,256C0,114.508,114.497,0,256,0c141.493,0,256,114.497,256,256  C512,397.493,397.503,512,256,512z"/>
<path style="fill:#9CC2D0;" d="M256.032,0v512C397.499,511.982,512,397.503,512,256C512,114.533,397.535,0.018,256.032,0z"/>
<path style="fill:#C5D8DF;" d="M238.933,0.573v510.853C244.59,511.796,250.279,512,256,512c5.721,0,11.41-0.204,17.067-0.573V0.573  C267.41,0.204,261.721,0,256,0C250.279,0,244.59,0.204,238.933,0.573z"/>
<g>
</g>
<g>
</g>
<g>
</g>
<g>
</g>
<g>
</g>
<g>
</g>
<g>
</g>
<g>
</g>
<g>
</g>
<g>
</g>
<g>
</g>
<g>
</g>
<g>
</g>
<g>
</g>
<g>
</g>
</svg>
