<?xml version="1.0" encoding="iso-8859-1"?>
<!-- Generator: Adobe Illustrator 19.0.0, SVG Export Plug-In . SVG Version: 6.00 Build 0)  -->
<svg xmlns="http://www.w3.org/2000/svg" xmlns:xlink="http://www.w3.org/1999/xlink" version="1.1" id="Layer_1" x="0px" y="0px" viewBox="0 0 512 512" style="enable-background:new 0 0 512 512;" xml:space="preserve">
<path style="fill:#FFE365;" d="M446.512,512H65.488c-9.864,0-17.86-7.997-17.86-17.86V17.86C47.628,7.997,55.625,0,65.488,0h381.023  c9.864,0,17.86,7.997,17.86,17.86V494.14C464.372,504.003,456.375,512,446.512,512z"/>
<path style="fill:#FFC733;" d="M446.512,0H256v512h190.512c9.864,0,17.86-7.997,17.86-17.86V17.86  C464.372,7.997,456.375,0,446.512,0z"/>
<g>
	<path style="fill:#1C3D66;" d="M331.345,157.313h-150.69c-9.864,0-17.86-7.997-17.86-17.86c0-9.864,7.997-17.86,17.86-17.86   h150.691c9.864,0,17.86,7.997,17.86,17.86C349.207,149.316,341.21,157.313,331.345,157.313z"/>
	<path style="fill:#1C3D66;" d="M218.682,312.709h-77.699c-9.864,0-17.86-7.997-17.86-17.86V217.15c0-9.864,7.997-17.86,17.86-17.86   h77.699c9.864,0,17.86,7.997,17.86,17.86v77.699C236.543,304.714,228.546,312.709,218.682,312.709z"/>
	<path style="fill:#1C3D66;" d="M371.017,390.408H140.983c-9.864,0-17.86-7.997-17.86-17.86s7.997-17.86,17.86-17.86h230.032   c9.864,0,17.86,7.997,17.86,17.86S380.88,390.408,371.017,390.408z"/>
</g>
<g>
	<path style="fill:#163457;" d="M331.345,121.592H256v35.721h75.345c9.864,0,17.86-7.997,17.86-17.86   C349.205,129.588,341.21,121.592,331.345,121.592z"/>
	<path style="fill:#163457;" d="M371.017,235.012h-79.342c-9.864,0-17.86-7.997-17.86-17.86s7.997-17.86,17.86-17.86h79.342   c9.864,0,17.86,7.997,17.86,17.86S380.88,235.012,371.017,235.012z"/>
	<path style="fill:#163457;" d="M371.017,312.709h-79.342c-9.864,0-17.86-7.997-17.86-17.86s7.997-17.86,17.86-17.86h79.342   c9.864,0,17.86,7.997,17.86,17.86S380.88,312.709,371.017,312.709z"/>
	<path style="fill:#163457;" d="M371.017,354.687H256v35.721h115.017c9.864,0,17.86-7.997,17.86-17.86   S380.88,354.687,371.017,354.687z"/>
</g>
<g>
</g>
<g>
</g>
<g>
</g>
<g>
</g>
<g>
</g>
<g>
</g>
<g>
</g>
<g>
</g>
<g>
</g>
<g>
</g>
<g>
</g>
<g>
</g>
<g>
</g>
<g>
</g>
<g>
</g>
</svg>
