<?xml version="1.0" encoding="iso-8859-1"?>
<!-- Generator: Adobe Illustrator 19.0.0, SVG Export Plug-In . SVG Version: 6.00 Build 0)  -->
<svg xmlns="http://www.w3.org/2000/svg" xmlns:xlink="http://www.w3.org/1999/xlink" version="1.1" id="Layer_1" x="0px" y="0px" viewBox="0 0 512 512" style="enable-background:new 0 0 512 512;" xml:space="preserve">
<path style="fill:#FFC733;" d="M256,206.911c-8.836,0-16-7.164-16-16V86.39c0-8.836,7.164-16,16-16c8.836,0,16,7.164,16,16v104.521  C272,199.747,264.836,206.911,256,206.911z"/>
<g>
	<path style="fill:#FFAF00;" d="M256,70.39c-0.002,0-0.004,0-0.006,0V206.91c0.002,0,0.004,0,0.006,0c8.836,0,16-7.164,16-16V86.39   C272,77.554,264.836,70.39,256,70.39z"/>
	<path style="fill:#FFAF00;" d="M458.165,385.246H53.835c-8.836,0-16-7.164-16-16v-77.818c0-8.836,7.164-16,16-16h404.331   c8.836,0,16,7.164,16,16v77.818C474.165,378.082,467.002,385.246,458.165,385.246z"/>
</g>
<path style="fill:#FF9000;" d="M458.165,275.428H256v109.818h202.165c8.836,0,16-7.164,16-16v-77.818  C474.165,282.592,467.002,275.428,458.165,275.428z"/>
<path style="fill:#FFC733;" d="M132.483,307.428H53.835c-6.044,0-11.572-3.406-14.29-8.803  c-25.462-50.56-11.674-97.052,13.286-120.699c24.096-22.829,58.227-26.023,89.073-8.34c8.052,4.615,10.491,15.097,5.331,22.791  c-16.709,24.921-16.882,59.259-0.463,91.854C152.123,294.851,144.393,307.428,132.483,307.428z"/>
<path style="fill:#FFAF00;" d="M458.165,307.428h-78.649c-11.891,0-19.648-12.561-14.289-23.198  c16.419-32.595,16.246-66.933-0.463-91.854c-5.169-7.709-2.706-18.183,5.331-22.791c30.846-17.683,64.978-14.487,89.073,8.34  c24.96,23.647,38.749,70.139,13.286,120.699C469.738,304.022,464.209,307.428,458.165,307.428z"/>
<path style="fill:#FFE365;" d="M322.084,137.562c-24.165,0.45-48.667,11.229-66.084,28.128  c-17.418-16.898-41.919-27.678-66.084-28.128c-67.546-1.254-112.614,79.884-71.723,161.066c2.719,5.397,8.246,8.802,14.289,8.802  H256h123.517c6.044,0,11.571-3.405,14.289-8.802C434.656,217.531,389.668,136.276,322.084,137.562z"/>
<g>
	<path style="fill:#FFC733;" d="M472.578,441.61H39.422C17.685,441.61,0,423.925,0,402.188v-9.519   c0-21.738,17.685-39.422,39.422-39.422h433.155c21.738,0,39.422,17.685,39.422,39.422v9.519   C512,423.925,494.315,441.61,472.578,441.61z"/>
	<path style="fill:#FFC733;" d="M256,307.428h123.517c6.044,0,11.571-3.405,14.289-8.802c40.849-81.095-4.139-162.35-71.723-161.066   c-24.165,0.45-48.667,11.229-66.084,28.128v141.74H256z"/>
</g>
<path style="fill:#FFAF00;" d="M472.578,353.246H256v88.364h216.578c21.738,0,39.422-17.685,39.422-39.422v-9.519  C512,370.931,494.315,353.246,472.578,353.246z"/>
<g>
</g>
<g>
</g>
<g>
</g>
<g>
</g>
<g>
</g>
<g>
</g>
<g>
</g>
<g>
</g>
<g>
</g>
<g>
</g>
<g>
</g>
<g>
</g>
<g>
</g>
<g>
</g>
<g>
</g>
</svg>
