<?xml version="1.0" encoding="iso-8859-1"?>
<!-- Generator: Adobe Illustrator 19.0.0, SVG Export Plug-In . SVG Version: 6.00 Build 0)  -->
<svg xmlns="http://www.w3.org/2000/svg" xmlns:xlink="http://www.w3.org/1999/xlink" version="1.1" id="Layer_1" x="0px" y="0px" viewBox="0 0 512 512" style="enable-background:new 0 0 512 512;" xml:space="preserve">
<path style="fill:#FFE365;" d="M447.433,512H64.555c-9.22,0-16.695-7.475-16.695-16.695V16.712c0-9.22,7.475-16.695,16.695-16.695  h261.04c4.429,0,8.675,1.759,11.805,4.889l121.837,121.839c3.131,3.131,4.891,7.377,4.891,11.805v356.756  C464.128,504.527,456.653,512,447.433,512z"/>
<path style="fill:#FFC733;" d="M459.238,126.744L337.401,4.907c-3.131-3.131-7.377-4.891-11.805-4.891h-69.603V512h191.439  c9.22,0,16.695-7.475,16.695-16.695V138.55C464.128,134.122,462.37,129.876,459.238,126.744z"/>
<path style="fill:#FFAF00;" d="M447.433,155.239H325.599c-9.22,0-16.695-7.475-16.695-16.695V16.708  c0-14.867,18.028-22.279,28.5-11.806l121.834,121.834C469.713,137.213,462.297,155.239,447.433,155.239z"/>
<g>
</g>
<g>
</g>
<g>
</g>
<g>
</g>
<g>
</g>
<g>
</g>
<g>
</g>
<g>
</g>
<g>
</g>
<g>
</g>
<g>
</g>
<g>
</g>
<g>
</g>
<g>
</g>
<g>
</g>
</svg>
