<?xml version="1.0" encoding="iso-8859-1"?>
<!-- Generator: Adobe Illustrator 19.0.0, SVG Export Plug-In . SVG Version: 6.00 Build 0)  -->
<svg xmlns="http://www.w3.org/2000/svg" xmlns:xlink="http://www.w3.org/1999/xlink" version="1.1" id="Layer_1" x="0px" y="0px" viewBox="0 0 512 512" style="enable-background:new 0 0 512 512;" xml:space="preserve">
<path style="fill:#84DBFF;" d="M389.524,423.483H205.915c-6.978,0-13.251-4.257-15.827-10.743l-13.99-35.224l-99.01-88.678  c-16.897-15.133-20.932-39.51-9.812-59.281c13.51-24.021,44.521-31.752,67.729-16.884l24.59,15.758V51.955  C159.595,23.307,182.902,0,211.55,0s51.954,23.307,51.954,51.955v84.695l129.826,16.208c0.054,0.007,0.109,0.015,0.163,0.022  c24.148,3.253,42.356,24.079,42.356,48.444l-0.002,125.28c0,6.204-1.161,12.274-3.452,18.043l-27.044,68.094  C402.775,419.226,396.502,423.483,389.524,423.483z"/>
<g>
	<path style="fill:#54C9EB;" d="M393.493,152.879c-0.055-0.007-0.109-0.015-0.163-0.022l-90.409-11.287v281.912h86.604   c6.978,0,13.251-4.257,15.825-10.744l27.044-68.094c2.291-5.768,3.452-11.838,3.452-18.043l0.002-125.28   C435.848,176.958,417.64,156.132,393.493,152.879z"/>
	<path style="fill:#54C9EB;" d="M433.933,512H171.907c-9.404,0-17.029-7.624-17.029-17.029v-88.518   c0-9.404,7.624-17.029,17.029-17.029h262.026c9.404,0,17.029,7.624,17.029,17.029v88.518C450.962,504.376,443.337,512,433.933,512z   "/>
</g>
<path style="fill:#1BB3F9;" d="M433.933,389.424H302.92V512h131.013c9.404,0,17.029-7.624,17.029-17.029v-88.518  C450.962,397.049,443.337,389.424,433.933,389.424z"/>
<g>
</g>
<g>
</g>
<g>
</g>
<g>
</g>
<g>
</g>
<g>
</g>
<g>
</g>
<g>
</g>
<g>
</g>
<g>
</g>
<g>
</g>
<g>
</g>
<g>
</g>
<g>
</g>
<g>
</g>
</svg>
