<?xml version="1.0" encoding="iso-8859-1"?>
<!-- Generator: Adobe Illustrator 19.0.0, SVG Export Plug-In . SVG Version: 6.00 Build 0)  -->
<svg xmlns="http://www.w3.org/2000/svg" xmlns:xlink="http://www.w3.org/1999/xlink" version="1.1" id="Layer_1" x="0px" y="0px" viewBox="0 0 512 512" style="enable-background:new 0 0 512 512;" xml:space="preserve">
<path style="fill:#1C3D66;" d="M256.654,284.505l-38.129-38.129c-7.692-7.692-7.692-20.161,0-27.853  c7.69-7.692,20.161-7.692,27.853,0l38.129,38.129c7.692,7.692,7.692,20.161,0,27.853  C276.816,292.196,264.346,292.197,256.654,284.505z"/>
<path style="fill:#163457;" d="M218.526,218.523l65.981,65.981c7.69-7.692,7.69-20.161-0.001-27.851l-38.129-38.129  C238.687,210.832,226.218,210.831,218.526,218.523z"/>
<path style="fill:#84DBFF;" d="M42.217,246.377c-56.288-56.287-56.288-147.874,0-204.16c56.287-56.288,147.874-56.288,204.16,0  c56.288,56.287,56.288,147.874,0,204.16C190.093,302.662,98.506,302.666,42.217,246.377z"/>
<path style="fill:#54C9EB;" d="M246.377,42.216C190.09-14.072,98.505-14.072,42.217,42.215l204.16,204.16  C302.665,190.088,302.665,98.503,246.377,42.216z"/>
<path style="fill:#1BB3F9;" d="M379.44,504.567L226.143,311.865c-6.235-7.837-5.595-19.105,1.486-26.188l58.049-58.049  c7.082-7.081,18.35-7.722,26.188-1.486l192.703,153.297c9.194,7.315,9.981,21.024,1.665,29.339l-97.454,97.454  C400.484,514.53,386.777,513.789,379.44,504.567z"/>
<path style="fill:#54C9EB;" d="M186.514,124.601h-22.52V102.08c0-10.877-8.818-19.695-19.695-19.695  c-10.877,0-19.695,8.818-19.695,19.695V124.6h-22.522c-10.877,0-19.695,8.818-19.695,19.695c0,10.877,8.818,19.695,19.695,19.695  h22.521v22.52c0,10.877,8.818,19.695,19.695,19.695c10.877,0,19.695-8.818,19.695-19.695v-22.52h22.52  c10.877,0,19.695-8.818,19.695-19.695C206.207,133.418,197.391,124.601,186.514,124.601z"/>
<path style="fill:#008BE5;" d="M504.569,379.439L311.866,226.142c-7.837-6.235-19.105-5.595-26.188,1.486l-29.024,29.024  l200.853,200.853l48.727-48.727C514.55,400.462,513.762,386.753,504.569,379.439z"/>
<path style="fill:#1BB3F9;" d="M163.992,124.601V102.08c0-10.877-8.818-19.695-19.695-19.695c-10.877,0-19.695,8.818-19.695,19.695  v22.519l39.391,39.391h22.519c10.877,0,19.695-8.818,19.695-19.695s-8.818-19.695-19.695-19.695h-22.52V124.601z"/>
<g>
</g>
<g>
</g>
<g>
</g>
<g>
</g>
<g>
</g>
<g>
</g>
<g>
</g>
<g>
</g>
<g>
</g>
<g>
</g>
<g>
</g>
<g>
</g>
<g>
</g>
<g>
</g>
<g>
</g>
</svg>
