<?xml version="1.0" encoding="iso-8859-1"?>
<!-- Generator: Adobe Illustrator 19.0.0, SVG Export Plug-In . SVG Version: 6.00 Build 0)  -->
<svg xmlns="http://www.w3.org/2000/svg" xmlns:xlink="http://www.w3.org/1999/xlink" version="1.1" id="Layer_1" x="0px" y="0px" viewBox="0 0 512 512" style="enable-background:new 0 0 512 512;" xml:space="preserve">
<path style="fill:#84DBFF;" d="M358.575,466.399H16.657C7.458,466.399,0,458.942,0,449.743V107.837  C0,98.638,7.458,91.18,16.657,91.18h205.166c9.199,0,16.657,7.458,16.657,16.657v120.105h120.095  c9.199,0,16.657,7.458,16.657,16.657v205.144C375.232,458.942,367.774,466.399,358.575,466.399z"/>
<g>
	<path style="fill:#54C9EB;" d="M358.575,227.942H238.48V107.837c0-9.199-7.458-16.657-16.657-16.657h-34.207v375.219h170.959   c9.199,0,16.657-7.458,16.657-16.657V244.598C375.232,235.4,367.774,227.942,358.575,227.942z"/>
	<path style="fill:#54C9EB;" d="M238.48,227.942v-23.558l-73.88,73.88l-13.646-13.647c-9.057-9.059-24.555-4.896-27.867,7.467   l-18.612,69.462c-3.296,12.292,7.957,23.734,20.4,20.401l69.462-18.612c12.38-3.319,16.515-18.821,7.467-27.868l-13.647-13.647   l73.878-73.878H238.48V227.942z"/>
</g>
<path style="fill:#1BB3F9;" d="M188.155,301.82l73.878-73.878H238.48v-23.558l-50.864,50.864v89.886l6.72-1.801  c12.38-3.319,16.515-18.821,7.467-27.868L188.155,301.82z"/>
<path style="fill:#9CC2D0;" d="M495.343,261.251H221.818c-9.199,0-16.657-7.458-16.657-16.657V62.257  c0-9.199,7.458-16.657,16.657-16.657h273.526c9.199,0,16.657,7.458,16.657,16.657v182.337  C512,253.793,504.542,261.251,495.343,261.251z"/>
<path style="fill:#72ABC0;" d="M495.343,45.601H358.58v215.65h136.763c9.199,0,16.657-7.458,16.657-16.657V62.257  C512,53.058,504.542,45.601,495.343,45.601z"/>
<g>
</g>
<g>
</g>
<g>
</g>
<g>
</g>
<g>
</g>
<g>
</g>
<g>
</g>
<g>
</g>
<g>
</g>
<g>
</g>
<g>
</g>
<g>
</g>
<g>
</g>
<g>
</g>
<g>
</g>
</svg>
