<?xml version="1.0" encoding="iso-8859-1"?>
<!-- Generator: Adobe Illustrator 19.0.0, SVG Export Plug-In . SVG Version: 6.00 Build 0)  -->
<svg xmlns="http://www.w3.org/2000/svg" xmlns:xlink="http://www.w3.org/1999/xlink" version="1.1" id="Layer_1" x="0px" y="0px" viewBox="0 0 512 512" style="enable-background:new 0 0 512 512;" xml:space="preserve">
<path style="fill:#EFEFEF;" d="M494.14,428.651H17.86c-9.864,0-17.86-7.997-17.86-17.86V101.209c0-9.864,7.997-17.86,17.86-17.86  H494.14c9.864,0,17.86,7.997,17.86,17.86v309.581C512,420.654,504.003,428.651,494.14,428.651z"/>
<g>
	<path style="fill:#C5D8DF;" d="M0,256v154.791c0,9.864,7.997,17.86,17.86,17.86H494.14c9.864,0,17.86-7.997,17.86-17.86V256H0z"/>
	<rect x="238.14" y="83.349" style="fill:#C5D8DF;" width="35.721" height="345.302"/>
</g>
<rect x="238.14" y="256" style="fill:#9CC2D0;" width="35.721" height="172.651"/>
<g>
	<path style="fill:#1C3D66;" d="M99.228,315.577V196.423c0-13.742,14.91-22.328,26.791-15.467l103.191,59.577   c5.526,3.191,8.93,9.086,8.93,15.467c0,6.381-3.404,12.277-8.93,15.467l-103.191,59.577   C114.144,337.901,99.228,329.334,99.228,315.577z"/>
	<path style="fill:#1C3D66;" d="M385.981,331.044l-103.191-59.577c-5.526-3.191-8.93-9.086-8.93-15.467   c0-6.381,3.404-12.277,8.93-15.467l103.191-59.577c11.899-6.87,26.791,1.744,26.791,15.467v119.153   C412.772,329.406,397.78,337.857,385.981,331.044z"/>
</g>
<g>
	<path style="fill:#163457;" d="M99.228,315.577c0,13.757,14.916,22.324,26.791,15.467l103.191-59.577   c5.526-3.191,8.93-9.086,8.93-15.467H99.228V315.577z"/>
	<path style="fill:#163457;" d="M273.86,256c0,6.381,3.404,12.277,8.93,15.467l103.191,59.577   c11.799,6.813,26.791-1.637,26.791-15.467V256H273.86z"/>
</g>
<g>
</g>
<g>
</g>
<g>
</g>
<g>
</g>
<g>
</g>
<g>
</g>
<g>
</g>
<g>
</g>
<g>
</g>
<g>
</g>
<g>
</g>
<g>
</g>
<g>
</g>
<g>
</g>
<g>
</g>
</svg>
