<?xml version="1.0" encoding="iso-8859-1"?>
<!-- Generator: Adobe Illustrator 19.0.0, SVG Export Plug-In . SVG Version: 6.00 Build 0)  -->
<svg xmlns="http://www.w3.org/2000/svg" xmlns:xlink="http://www.w3.org/1999/xlink" version="1.1" id="Layer_1" x="0px" y="0px" viewBox="0 0 512.001 512.001" style="enable-background:new 0 0 512.001 512.001;" xml:space="preserve">
<path style="fill:#FFE365;" d="M427.678,512.001H44.8c-9.22,0-16.695-7.475-16.695-16.695V16.708c0-9.22,7.475-16.695,16.695-16.695  h261.035c4.429,0,8.675,1.76,11.805,4.891l121.843,121.842c3.131,3.131,4.891,7.377,4.891,11.805v128.587  c0,7.428-4.907,13.963-12.042,16.034c-2.271,0.659-4.359,1.895-6.039,3.574L309.781,403.247l-3.424,23.486  c0.429-0.063,0.865-0.127,1.31-0.191c5.712-0.836,12.957-1.898,22.168-3.241l86.038-86.037c10.48-10.478,28.5-3.056,28.5,11.805  v146.239C444.373,504.527,436.898,512.001,427.678,512.001z"/>
<path style="fill:#FFC733;" d="M426.292,286.746c1.681-1.68,3.769-2.916,6.039-3.574c7.134-2.07,12.042-8.605,12.042-16.034V138.551  c0-4.429-1.759-8.674-4.891-11.805L317.641,4.903c-3.131-3.131-7.377-4.891-11.805-4.891H236.24v511.988h191.439  c9.22,0,16.695-7.475,16.695-16.695V349.066c0-14.862-18.02-22.283-28.5-11.805l-86.038,86.037  c-9.211,1.345-16.456,2.405-22.168,3.241c-0.444,0.066-0.882,0.129-1.31,0.191l3.424-23.486L426.292,286.746z"/>
<path style="fill:#FFAF00;" d="M427.677,155.239H305.843c-9.22,0-16.695-7.475-16.695-16.695V16.708  c0-14.871,18.033-22.278,28.5-11.805l121.834,121.834C449.957,137.213,442.542,155.239,427.677,155.239z"/>
<path style="fill:#1C3D66;" d="M287.969,462.845c-12.727,0-19.178-9.901-17.832-19.133l7.402-50.765  c0.519-3.558,2.173-6.855,4.715-9.397l96.799-96.788c6.518-6.517,17.087-6.519,23.609,0l43.664,43.653  c6.517,6.516,6.52,17.094,0.001,23.612l-96.8,96.799c-2.542,2.543-5.839,4.197-9.397,4.716  C293.948,462.272,290.829,462.845,287.969,462.845z"/>
<path style="fill:#163457;" d="M469.946,263.123c-18.558-18.524-48.732-18.518-67.263,0.011l-23.617,23.617  c-0.004,0.004-0.009,0.008-0.012,0.011l-11.808,11.807l67.28,67.261l11.804-11.804l23.628-23.629  C488.567,311.789,488.521,281.664,469.946,263.123z"/>
<g>
</g>
<g>
</g>
<g>
</g>
<g>
</g>
<g>
</g>
<g>
</g>
<g>
</g>
<g>
</g>
<g>
</g>
<g>
</g>
<g>
</g>
<g>
</g>
<g>
</g>
<g>
</g>
<g>
</g>
</svg>
