<?xml version="1.0" encoding="iso-8859-1"?>
<!-- Generator: Adobe Illustrator 19.0.0, SVG Export Plug-In . SVG Version: 6.00 Build 0)  -->
<svg xmlns="http://www.w3.org/2000/svg" xmlns:xlink="http://www.w3.org/1999/xlink" version="1.1" id="Layer_1" x="0px" y="0px" viewBox="0 0 512 512" style="enable-background:new 0 0 512 512;" xml:space="preserve">
<path style="fill:#EFEFEF;" d="M456.263,189.416H55.737c-9.859,0-17.86,7.99-17.86,17.86v240.366c0,9.871,8.001,17.86,17.86,17.86  h400.527c9.859,0,17.86-7.99,17.86-17.86V207.277C474.124,197.406,466.122,189.416,456.263,189.416z"/>
<path style="fill:#C5D8DF;" d="M456.263,189.416H256v276.087h200.263c9.859,0,17.86-7.99,17.86-17.86V207.277  C474.124,197.406,466.122,189.416,456.263,189.416z"/>
<path style="fill:#EFEFEF;" d="M494.14,46.497H17.86C8.001,46.497,0,54.486,0,64.357v142.919c0,9.859,8.001,17.86,17.86,17.86  H494.14c9.859,0,17.86-8.001,17.86-17.86V64.357C512,54.486,503.999,46.497,494.14,46.497z"/>
<g>
	<path style="fill:#C5D8DF;" d="M494.14,46.497H256v178.64h238.14c9.859,0,17.86-8.001,17.86-17.86V64.357   C512,54.486,503.999,46.497,494.14,46.497z"/>
	<polygon style="fill:#C5D8DF;" points="474.124,260.858 474.124,225.137 274.015,225.137 274.015,46.497 238.294,46.497    238.294,225.137 37.876,225.137 37.876,260.858 238.294,260.858 238.294,345.32 37.876,345.32 37.876,381.041 238.294,381.041    238.294,465.503 274.015,465.503 274.015,381.041 474.124,381.041 474.124,345.32 274.015,345.32 274.015,260.858  "/>
</g>
<polygon style="fill:#9CC2D0;" points="474.124,260.858 474.124,225.137 274.015,225.137 274.015,46.497 256,46.497 256,465.503   274.015,465.503 274.015,381.041 474.124,381.041 474.124,345.32 274.015,345.32 274.015,260.858 "/>
<g>
</g>
<g>
</g>
<g>
</g>
<g>
</g>
<g>
</g>
<g>
</g>
<g>
</g>
<g>
</g>
<g>
</g>
<g>
</g>
<g>
</g>
<g>
</g>
<g>
</g>
<g>
</g>
<g>
</g>
</svg>
