<?xml version="1.0" encoding="iso-8859-1"?>
<!-- Generator: Adobe Illustrator 19.0.0, SVG Export Plug-In . SVG Version: 6.00 Build 0)  -->
<svg xmlns="http://www.w3.org/2000/svg" xmlns:xlink="http://www.w3.org/1999/xlink" version="1.1" id="Layer_1" x="0px" y="0px" viewBox="0 0 512 512" style="enable-background:new 0 0 512 512;" xml:space="preserve">
<path style="fill:#EFEFEF;" d="M404.687,406.191H107.313c-9.025,0-16.341-7.316-16.341-16.341V211.383  c0-9.025,7.316-16.341,16.341-16.341h297.375c9.025,0,16.341,7.316,16.341,16.341v178.468  C421.028,398.876,413.712,406.191,404.687,406.191z"/>
<g>
	<path style="fill:#C5D8DF;" d="M404.687,195.042H256v211.15h148.687c9.025,0,16.341-7.316,16.341-16.341V211.383   C421.028,202.357,413.712,195.042,404.687,195.042z"/>
	<polygon style="fill:#C5D8DF;" points="421.028,300.617 272.453,300.617 272.453,195.042 239.771,195.042 239.771,300.617    90.972,300.617 90.972,333.299 239.771,333.299 239.771,406.191 272.453,406.191 272.453,333.299 421.028,333.299  "/>
</g>
<polygon style="fill:#9CC2D0;" points="272.453,300.617 272.453,195.042 256,195.042 256,406.191 272.453,406.191 272.453,333.299   421.028,333.299 421.028,300.617 "/>
<path style="fill:#1C3D66;" d="M54.093,357.633L8.16,331.113c-10.888-6.286-10.871-22.027,0-28.303l45.934-26.519  c10.889-6.287,24.512,1.6,24.512,14.151v53.04C78.605,356.133,64.89,363.869,54.093,357.633z"/>
<path style="fill:#9CC2D0;" d="M421.028,227.724H90.972V122.15c0-9.025,7.316-16.341,16.341-16.341h297.375  c9.025,0,16.341,7.316,16.341,16.341v105.575H421.028z"/>
<path style="fill:#72ABC0;" d="M421.028,122.149c0-9.025-7.316-16.341-16.341-16.341H256v121.916h165.028V122.149z"/>
<path style="fill:#163457;" d="M433.395,343.477v-53.04c0-12.573,13.643-20.427,24.512-14.151l45.934,26.519  c10.888,6.286,10.871,22.027,0,28.303l-45.934,26.519C447.018,363.916,433.395,356.027,433.395,343.477z"/>
<g>
</g>
<g>
</g>
<g>
</g>
<g>
</g>
<g>
</g>
<g>
</g>
<g>
</g>
<g>
</g>
<g>
</g>
<g>
</g>
<g>
</g>
<g>
</g>
<g>
</g>
<g>
</g>
<g>
</g>
</svg>
