<?xml version="1.0" encoding="iso-8859-1"?>
<!-- Generator: Adobe Illustrator 19.0.0, SVG Export Plug-In . SVG Version: 6.00 Build 0)  -->
<svg xmlns="http://www.w3.org/2000/svg" xmlns:xlink="http://www.w3.org/1999/xlink" version="1.1" id="Layer_1" x="0px" y="0px" viewBox="0 0 512 512" style="enable-background:new 0 0 512 512;" xml:space="preserve">
<path style="fill:#84DBFF;" d="M393.621,511.988H18.285C8.187,511.988,0,503.801,0,493.703V118.377  c0-10.098,8.187-18.285,18.285-18.285h275.256c10.098,0,18.285,8.187,18.285,18.285v81.809h81.797  c10.098,0,18.285,8.187,18.285,18.285v275.232C411.906,503.801,403.72,511.988,393.621,511.988z"/>
<g>
	<path style="fill:#54C9EB;" d="M393.621,200.186h-81.797v-81.809c0-10.098-8.187-18.285-18.285-18.285h-87.588v411.895H393.62   c10.098,0,18.285-8.187,18.285-18.285V218.471C411.906,208.373,403.72,200.186,393.621,200.186z"/>
	<path style="fill:#54C9EB;" d="M311.826,200.186v-25.861L180.688,305.462l-14.981-14.981c-9.946-9.948-26.957-5.37-30.591,8.197   l-20.431,76.251c-3.606,13.456,8.713,26.056,22.394,22.394l76.251-20.431c13.589-3.641,18.128-20.661,8.196-30.591l-14.981-14.981   L337.68,200.185h-25.854V200.186z"/>
</g>
<path style="fill:#1BB3F9;" d="M206.547,331.32l131.134-131.134h-25.856v-25.861L205.952,280.198v98.671l7.377-1.977  c13.589-3.641,18.128-20.661,8.196-30.591L206.547,331.32z"/>
<path style="fill:#9CC2D0;" d="M493.715,236.756H293.541c-10.098,0-18.285-8.187-18.285-18.285V18.297  c0-10.098,8.187-18.285,18.285-18.285h200.174C503.813,0.012,512,8.199,512,18.297v200.174  C512,228.569,503.813,236.756,493.715,236.756z"/>
<path style="fill:#72ABC0;" d="M493.715,0.012H393.629v236.744h100.086c10.098,0,18.285-8.187,18.285-18.285V18.297  C512,8.199,503.813,0.012,493.715,0.012z"/>
<g>
</g>
<g>
</g>
<g>
</g>
<g>
</g>
<g>
</g>
<g>
</g>
<g>
</g>
<g>
</g>
<g>
</g>
<g>
</g>
<g>
</g>
<g>
</g>
<g>
</g>
<g>
</g>
<g>
</g>
</svg>
