<?xml version="1.0" encoding="iso-8859-1"?>
<!-- Generator: Adobe Illustrator 19.0.0, SVG Export Plug-In . SVG Version: 6.00 Build 0)  -->
<svg xmlns="http://www.w3.org/2000/svg" xmlns:xlink="http://www.w3.org/1999/xlink" version="1.1" id="Layer_1" x="0px" y="0px" viewBox="0 0 512 512" style="enable-background:new 0 0 512 512;" xml:space="preserve">
<path style="fill:#84DBFF;" d="M393.621,511.988H18.285C8.187,511.988,0,503.801,0,493.703V118.377  c0-10.098,8.187-18.285,18.285-18.285h275.256c10.098,0,18.285,8.187,18.285,18.285v81.808h81.797  c10.098,0,18.285,8.187,18.285,18.285v275.233C411.906,503.801,403.72,511.988,393.621,511.988z"/>
<g>
	<path style="fill:#54C9EB;" d="M393.621,200.186h-81.797v-81.809c0-10.098-8.187-18.285-18.285-18.285h-87.588v411.895H393.62   c10.098,0,18.285-8.187,18.285-18.285V218.471C411.906,208.373,403.72,200.186,393.621,200.186z"/>
	<path style="fill:#54C9EB;" d="M311.826,200.186v-25.861L155.361,330.789l3.584-37.684c0.956-10.053-6.419-18.977-16.472-19.934   c-10.063-0.964-18.977,6.419-19.934,16.472l-8.392,88.259c0,0.005-0.001,0.01-0.001,0.015l-0.001,0.015   c-0.002,0.027-0.001,0.052-0.004,0.079c-1.023,11.339,8.512,20.936,19.937,19.855l0.011-0.001c0.007-0.001,0.015-0.001,0.021-0.002   l88.256-8.392c10.053-0.956,17.428-9.88,16.472-19.934c-0.957-10.053-9.874-17.441-19.934-16.472l-37.684,3.583l156.461-156.461   h-25.855V200.186z"/>
</g>
<g>
	<path style="fill:#1BB3F9;" d="M218.905,353.064l-12.952,1.231v36.734l16.412-1.56c10.053-0.956,17.428-9.88,16.472-19.934   C237.881,359.482,228.965,352.095,218.905,353.064z"/>
	<polygon style="fill:#1BB3F9;" points="337.682,200.186 311.826,200.186 311.826,174.325 205.953,280.197 205.953,331.914  "/>
</g>
<path style="fill:#9CC2D0;" d="M493.715,236.756H293.541c-10.098,0-18.285-8.187-18.285-18.285V18.297  c0-10.098,8.187-18.285,18.285-18.285h200.174C503.813,0.012,512,8.199,512,18.297v200.174  C512,228.569,503.813,236.756,493.715,236.756z"/>
<path style="fill:#72ABC0;" d="M493.715,0.012H393.629v236.744h100.086c10.098,0,18.285-8.187,18.285-18.285V18.297  C512,8.199,503.813,0.012,493.715,0.012z"/>
<g>
</g>
<g>
</g>
<g>
</g>
<g>
</g>
<g>
</g>
<g>
</g>
<g>
</g>
<g>
</g>
<g>
</g>
<g>
</g>
<g>
</g>
<g>
</g>
<g>
</g>
<g>
</g>
<g>
</g>
</svg>
