<?xml version="1.0" encoding="iso-8859-1"?>
<!-- Generator: Adobe Illustrator 19.0.0, SVG Export Plug-In . SVG Version: 6.00 Build 0)  -->
<svg xmlns="http://www.w3.org/2000/svg" xmlns:xlink="http://www.w3.org/1999/xlink" version="1.1" id="Layer_1" x="0px" y="0px" viewBox="0 0 512 512" style="enable-background:new 0 0 512 512;" xml:space="preserve">
<path style="fill:#84DBFF;" d="M393.624,511.988H18.285C8.187,511.988,0,503.801,0,493.703V118.376  c0-10.098,8.187-18.285,18.285-18.285h275.26c10.098,0,18.285,8.187,18.285,18.285v181.885h81.794  c10.098,0,18.285,8.187,18.285,18.285v175.157C411.909,503.801,403.722,511.988,393.624,511.988z"/>
<g>
	<path style="fill:#54C9EB;" d="M393.624,300.262H311.83V118.375c0-10.098-8.187-18.285-18.285-18.285h-87.591v411.897h187.67   c10.098,0,18.285-8.187,18.285-18.285V318.546C411.909,308.448,403.722,300.262,393.624,300.262z"/>
	<path style="fill:#54C9EB;" d="M137.08,397.324l76.251-20.431c13.591-3.644,18.128-20.662,8.196-30.592l-14.981-14.981   L311.83,226.036v-51.717L180.688,305.462l-14.981-14.981c-9.951-9.949-26.957-5.37-30.591,8.198l-20.431,76.251   C111.082,388.38,123.392,400.992,137.08,397.324z"/>
</g>
<path style="fill:#1BB3F9;" d="M311.83,174.32L205.954,280.196v98.674l7.377-1.977c13.589-3.644,18.128-20.662,8.196-30.592  l-14.981-14.981L311.83,226.036V174.32z"/>
<path style="fill:#9CC2D0;" d="M493.715,336.831h-200.17c-10.098,0-18.285-8.187-18.285-18.285V18.297  c0-10.098,8.187-18.285,18.285-18.285h200.17C503.813,0.012,512,8.199,512,18.297v300.249  C512,328.646,503.813,336.831,493.715,336.831z"/>
<path style="fill:#72ABC0;" d="M493.715,0.012H393.63v336.819h100.085c10.098,0,18.285-8.187,18.285-18.285V18.297  C512,8.199,503.813,0.012,493.715,0.012z"/>
<g>
</g>
<g>
</g>
<g>
</g>
<g>
</g>
<g>
</g>
<g>
</g>
<g>
</g>
<g>
</g>
<g>
</g>
<g>
</g>
<g>
</g>
<g>
</g>
<g>
</g>
<g>
</g>
<g>
</g>
</svg>
