<?xml version="1.0" encoding="iso-8859-1"?>
<!-- Generator: Adobe Illustrator 19.0.0, SVG Export Plug-In . SVG Version: 6.00 Build 0)  -->
<svg xmlns="http://www.w3.org/2000/svg" xmlns:xlink="http://www.w3.org/1999/xlink" version="1.1" id="Layer_1" x="0px" y="0px" viewBox="0 0 512 512" style="enable-background:new 0 0 512 512;" xml:space="preserve">
<path style="fill:#84DBFF;" d="M358.575,466.402H16.657C7.458,466.402,0,458.944,0,449.745V107.838  c0-9.199,7.458-16.657,16.657-16.657h205.166c9.199,0,16.657,7.458,16.657,16.657v120.106h120.095  c9.199,0,16.657,7.458,16.657,16.657v205.144C375.232,458.944,367.774,466.402,358.575,466.402z"/>
<g>
	<path style="fill:#54C9EB;" d="M358.575,227.945H238.48V107.838c0-9.199-7.458-16.657-16.657-16.657h-34.207v375.22h170.959   c9.199,0,16.657-7.458,16.657-16.657V244.601C375.232,235.402,367.774,227.945,358.575,227.945z"/>
	<path style="fill:#54C9EB;" d="M238.48,227.945v-23.558l-73.879,73.879l-13.647-13.647c-9.059-9.059-24.554-4.894-27.868,7.467   l-18.612,69.462c-3.334,12.439,8.113,23.691,20.4,20.4l69.462-18.612c12.379-3.316,16.516-18.821,7.468-27.867l-13.647-13.647   l73.878-73.878H238.48V227.945z"/>
</g>
<path style="fill:#1BB3F9;" d="M188.155,301.823l73.878-73.878H238.48v-23.558l-50.864,50.864v89.886l6.719-1.8  c12.379-3.316,16.516-18.821,7.468-27.867L188.155,301.823z"/>
<path style="fill:#EFEFEF;" d="M495.343,261.252H221.818c-9.199,0-16.657-7.458-16.657-16.657V62.26  c0-9.199,7.458-16.657,16.657-16.657h273.526c9.199,0,16.657,7.458,16.657,16.657v182.336  C512,253.795,504.542,261.252,495.343,261.252z"/>
<g>
	<path style="fill:#C5D8DF;" d="M495.343,45.603H358.58v215.649h136.763c9.199,0,16.657-7.458,16.657-16.657V62.26   C512,53.061,504.542,45.603,495.343,45.603z"/>
	<rect x="290.782" y="45.598" style="fill:#C5D8DF;" width="33.313" height="215.649"/>
	<rect x="393.065" y="45.598" style="fill:#C5D8DF;" width="33.313" height="215.649"/>
</g>
<rect x="393.065" y="45.598" style="fill:#9CC2D0;" width="33.313" height="215.649"/>
<g>
</g>
<g>
</g>
<g>
</g>
<g>
</g>
<g>
</g>
<g>
</g>
<g>
</g>
<g>
</g>
<g>
</g>
<g>
</g>
<g>
</g>
<g>
</g>
<g>
</g>
<g>
</g>
<g>
</g>
</svg>
