<?xml version="1.0" encoding="iso-8859-1"?>
<!-- Generator: Adobe Illustrator 19.0.0, SVG Export Plug-In . SVG Version: 6.00 Build 0)  -->
<svg xmlns="http://www.w3.org/2000/svg" xmlns:xlink="http://www.w3.org/1999/xlink" version="1.1" id="Layer_1" x="0px" y="0px" viewBox="0 0 512 512" style="enable-background:new 0 0 512 512;" xml:space="preserve">
<path style="fill:#84DBFF;" d="M393.624,511.988H18.285C8.187,511.988,0,503.801,0,493.703V118.376  c0-10.098,8.187-18.285,18.285-18.285h275.26c10.098,0,18.285,8.187,18.285,18.285v181.885h81.794  c10.098,0,18.285,8.187,18.285,18.285v175.157C411.909,503.801,403.722,511.988,393.624,511.988z"/>
<g>
	<path style="fill:#54C9EB;" d="M393.624,300.262H311.83V118.376c0-10.098-8.187-18.285-18.285-18.285h-87.591v411.897h187.67   c10.098,0,18.285-8.187,18.285-18.285V318.546C411.909,308.448,403.722,300.262,393.624,300.262z"/>
	<path style="fill:#54C9EB;" d="M137.08,397.324l76.251-20.431c13.589-3.641,18.128-20.661,8.196-30.591l-14.981-14.981   L311.83,226.037V174.32L180.688,305.462l-14.981-14.981c-9.946-9.946-26.956-5.373-30.591,8.197l-20.431,76.251   C111.023,388.597,123.592,400.934,137.08,397.324z"/>
</g>
<path style="fill:#1BB3F9;" d="M311.83,174.32L205.954,280.196v98.672l7.376-1.976c13.589-3.641,18.128-20.661,8.196-30.591  l-14.981-14.981l105.283-105.283V174.32H311.83z"/>
<path style="fill:#EFEFEF;" d="M493.715,336.831h-200.17c-10.098,0-18.285-8.187-18.285-18.285v-200.17  c0-10.098,8.187-18.285,18.285-18.285h200.17c10.098,0,18.285,8.187,18.285,18.285v200.17  C512,328.645,503.813,336.831,493.715,336.831z"/>
<path style="fill:#C5D8DF;" d="M493.715,100.091H393.629v236.74h100.086c10.098,0,18.285-8.187,18.285-18.285v-200.17  C512,108.278,503.813,100.091,493.715,100.091z"/>
<path style="fill:#9CC2D0;" d="M512,136.662H275.256V18.297c0-10.098,8.187-18.285,18.285-18.285h200.174  C503.813,0.012,512,8.199,512,18.297V136.662z"/>
<path style="fill:#72ABC0;" d="M493.715,0.012H393.629v136.651H512V18.297C512,8.199,503.813,0.012,493.715,0.012z"/>
<rect x="275.26" y="218.467" style="fill:#C5D8DF;" width="236.74" height="36.57"/>
<rect x="393.624" y="218.467" style="fill:#9CC2D0;" width="118.376" height="36.57"/>
<g>
</g>
<g>
</g>
<g>
</g>
<g>
</g>
<g>
</g>
<g>
</g>
<g>
</g>
<g>
</g>
<g>
</g>
<g>
</g>
<g>
</g>
<g>
</g>
<g>
</g>
<g>
</g>
<g>
</g>
</svg>
