<?xml version="1.0" encoding="iso-8859-1"?>
<!-- Generator: Adobe Illustrator 19.0.0, SVG Export Plug-In . SVG Version: 6.00 Build 0)  -->
<svg xmlns="http://www.w3.org/2000/svg" xmlns:xlink="http://www.w3.org/1999/xlink" version="1.1" id="Layer_1" x="0px" y="0px" viewBox="0 0 512 512" style="enable-background:new 0 0 512 512;" xml:space="preserve">
<path style="fill:#EFEFEF;" d="M456.263,189.416H55.737c-9.859,0-17.86,7.99-17.86,17.86v240.366c0,9.871,8.001,17.86,17.86,17.86  h400.527c9.859,0,17.86-7.99,17.86-17.86V207.277C474.124,197.406,466.122,189.416,456.263,189.416z"/>
<g>
	<path style="fill:#C5D8DF;" d="M456.263,189.416H256v276.087h200.263c9.859,0,17.86-7.99,17.86-17.86V207.277   C474.124,197.406,466.122,189.416,456.263,189.416z"/>
	<polygon style="fill:#C5D8DF;" points="274.015,213.23 238.294,213.23 238.294,325.427 37.876,325.427 37.876,361.148    238.294,361.148 238.294,465.503 274.015,465.503 274.015,361.148 474.124,361.148 474.124,325.427 274.015,325.427  "/>
</g>
<polygon style="fill:#9CC2D0;" points="274.015,325.427 274.015,213.23 256,213.23 256,465.503 274.015,465.503 274.015,361.148   474.124,361.148 474.124,325.427 "/>
<path style="fill:#1C3D66;" d="M494.14,46.497H17.86C8.001,46.497,0,54.486,0,64.357v142.919c0,9.859,8.001,17.86,17.86,17.86  H494.14c9.859,0,17.86-8.001,17.86-17.86V64.357C512,54.486,503.999,46.497,494.14,46.497z"/>
<path style="fill:#163457;" d="M494.14,46.497H256v178.64h238.14c9.859,0,17.86-8.001,17.86-17.86V64.357  C512,54.486,503.999,46.497,494.14,46.497z"/>
<g>
	<path style="fill:#FFE365;" d="M288.78,171.091h-65.562c-9.864,0-17.86-7.997-17.86-17.86s7.997-17.86,17.86-17.86h65.562   c9.864,0,17.86,7.997,17.86,17.86S298.644,171.091,288.78,171.091z"/>
	<path style="fill:#FFE365;" d="M160.319,171.091H94.757c-9.864,0-17.86-7.997-17.86-17.86s7.997-17.86,17.86-17.86h65.562   c9.864,0,17.86,7.997,17.86,17.86S170.183,171.091,160.319,171.091z"/>
</g>
<g>
	<path style="fill:#FFC733;" d="M288.78,135.37H256v35.721h32.78c9.864,0,17.86-7.997,17.86-17.86S298.644,135.37,288.78,135.37z"/>
	<path style="fill:#FFC733;" d="M417.547,171.091h-65.562c-9.864,0-17.86-7.997-17.86-17.86s7.997-17.86,17.86-17.86h65.562   c9.864,0,17.86,7.997,17.86,17.86S427.41,171.091,417.547,171.091z"/>
</g>
<g>
</g>
<g>
</g>
<g>
</g>
<g>
</g>
<g>
</g>
<g>
</g>
<g>
</g>
<g>
</g>
<g>
</g>
<g>
</g>
<g>
</g>
<g>
</g>
<g>
</g>
<g>
</g>
<g>
</g>
</svg>
