<?xml version="1.0" encoding="iso-8859-1"?>
<!-- Generator: Adobe Illustrator 19.0.0, SVG Export Plug-In . SVG Version: 6.00 Build 0)  -->
<svg xmlns="http://www.w3.org/2000/svg" xmlns:xlink="http://www.w3.org/1999/xlink" version="1.1" id="Layer_1" x="0px" y="0px" viewBox="0 0 512 512" style="enable-background:new 0 0 512 512;" xml:space="preserve">
<path style="fill:#EFEFEF;" d="M404.68,406.184H107.32c-9.024,0-16.34-7.316-16.34-16.34V211.385c0-9.024,7.316-16.34,16.34-16.34  h297.362c9.024,0,16.34,7.316,16.34,16.34v178.46C421.021,398.869,413.706,406.184,404.68,406.184z"/>
<g>
	<path style="fill:#C5D8DF;" d="M404.68,195.044H256v211.141h148.68c9.024,0,16.34-7.316,16.34-16.34v-178.46   C421.021,202.359,413.706,195.044,404.68,195.044z"/>
	<polygon style="fill:#C5D8DF;" points="421.021,300.614 272.454,300.614 272.454,195.044 239.773,195.044 239.773,300.614    90.979,300.614 90.979,333.295 239.773,333.295 239.773,406.184 272.454,406.184 272.454,333.295 421.021,333.295  "/>
</g>
<polygon style="fill:#9CC2D0;" points="272.454,300.614 272.454,195.044 256,195.044 256,406.184 272.454,406.184 272.454,333.295   421.021,333.295 421.021,300.614 "/>
<path style="fill:#1C3D66;" d="M24.511,357.564l45.932-26.518c10.887-6.286,10.871-22.026,0-28.302l-45.932-26.519  C13.622,269.938,0,277.825,0,290.375v53.038C0,355.971,13.638,363.842,24.511,357.564z"/>
<path style="fill:#9CC2D0;" d="M421.021,227.725H90.979v-105.57c0-9.024,7.316-16.34,16.34-16.34h297.362  c9.024,0,16.34,7.316,16.34,16.34v105.57H421.021z"/>
<path style="fill:#72ABC0;" d="M421.021,122.155c0-9.024-7.316-16.34-16.34-16.34H256v121.91h165.021V122.155z"/>
<path style="fill:#163457;" d="M512,343.412v-53.038c0-12.573-13.642-20.427-24.511-14.151l-45.932,26.518  c-10.887,6.286-10.871,22.026,0,28.302l45.932,26.518C498.351,363.835,512,355.981,512,343.412z"/>
<g>
</g>
<g>
</g>
<g>
</g>
<g>
</g>
<g>
</g>
<g>
</g>
<g>
</g>
<g>
</g>
<g>
</g>
<g>
</g>
<g>
</g>
<g>
</g>
<g>
</g>
<g>
</g>
<g>
</g>
</svg>
