<?xml version="1.0" encoding="iso-8859-1"?>
<!-- Generator: Adobe Illustrator 19.0.0, SVG Export Plug-In . SVG Version: 6.00 Build 0)  -->
<svg xmlns="http://www.w3.org/2000/svg" xmlns:xlink="http://www.w3.org/1999/xlink" version="1.1" id="Layer_1" x="0px" y="0px" viewBox="0 0 512 512" style="enable-background:new 0 0 512 512;" xml:space="preserve">
<path style="fill:#EFEFEF;" d="M495.66,185.191H16.34c-9.02,0-16.34,7.321-16.34,16.34v108.936c0,9.02,7.321,16.34,16.34,16.34  H495.66c9.02,0,16.34-7.321,16.34-16.34V201.532C512,192.512,504.679,185.191,495.66,185.191z"/>
<g>
	<path style="fill:#C5D8DF;" d="M0,256v54.468c0,9.02,7.321,16.34,16.34,16.34H495.66c9.02,0,16.34-7.321,16.34-16.34V256H0z"/>
	<rect x="159.777" y="185.191" style="fill:#C5D8DF;" width="32.681" height="141.617"/>
	<rect x="319.542" y="185.191" style="fill:#C5D8DF;" width="32.681" height="141.617"/>
</g>
<g>
	<rect x="159.777" y="256" style="fill:#9CC2D0;" width="32.681" height="70.809"/>
	<rect x="319.542" y="256" style="fill:#9CC2D0;" width="32.681" height="70.809"/>
</g>
<g>
</g>
<g>
</g>
<g>
</g>
<g>
</g>
<g>
</g>
<g>
</g>
<g>
</g>
<g>
</g>
<g>
</g>
<g>
</g>
<g>
</g>
<g>
</g>
<g>
</g>
<g>
</g>
<g>
</g>
</svg>
