<?xml version="1.0" encoding="iso-8859-1"?>
<!-- Generator: Adobe Illustrator 19.0.0, SVG Export Plug-In . SVG Version: 6.00 Build 0)  -->
<svg xmlns="http://www.w3.org/2000/svg" xmlns:xlink="http://www.w3.org/1999/xlink" version="1.1" id="Layer_1" x="0px" y="0px" viewBox="0 0 512 512" style="enable-background:new 0 0 512 512;" xml:space="preserve">
<path style="fill:#EFEFEF;" d="M456.128,276.515c7.198-2.487,12.027-9.265,12.027-16.88v-68.521c0-9.864-7.997-17.86-17.86-17.86  H17.86c-9.864,0-17.86,7.997-17.86,17.86v259.511c0,9.863,7.997,17.86,17.86,17.86c0.002,0,285.638,0,285.638,0h146.797  c9.863,0,17.86-7.997,17.86-17.86V348.359c0-15.85-19.247-23.874-30.488-12.628l-90.472,90.472l-25.115,3.664l3.66-25.108  C460.248,270.249,451.44,278.136,456.128,276.515z"/>
<g>
	<path style="fill:#C5D8DF;" d="M456.128,276.515c7.198-2.487,12.027-9.265,12.027-16.88v-68.521c0-9.864-7.997-17.86-17.86-17.86   H234.077v295.231c39.978,0,69.421,0,69.421,0h146.797c9.863,0,17.86-7.997,17.86-17.86V348.359   c0-15.85-19.247-23.874-30.488-12.628l-90.472,90.472l-25.115,3.664l3.66-25.108C460.248,270.249,451.44,278.136,456.128,276.515z"/>
	<polygon style="fill:#C5D8DF;" points="427.482,320.867 251.936,320.867 251.936,173.255 216.216,173.255 216.216,320.867    0,320.867 0,356.587 216.216,356.587 216.216,468.485 251.936,468.485 251.936,356.587 391.761,356.587  "/>
</g>
<g>
	<polygon style="fill:#9CC2D0;" points="251.936,320.867 251.936,173.255 234.077,173.255 234.077,468.485 251.936,468.485    251.936,356.587 391.761,356.587 427.482,320.867  "/>
	<path style="fill:#9CC2D0;" d="M468.152,208.969H0.001V61.348c0-9.864,7.997-17.86,17.86-17.86h432.43   c9.864,0,17.86,7.997,17.86,17.86v147.62H468.152z"/>
</g>
<path style="fill:#72ABC0;" d="M468.152,61.348c0-9.864-7.997-17.86-17.86-17.86H234.077v165.481h234.075L468.152,61.348  L468.152,61.348z"/>
<path style="fill:#1C3D66;" d="M302.405,468.512c-13.757,0-20.496-10.733-19.077-20.468l7.918-54.306  c0.555-3.807,2.325-7.333,5.045-10.053l103.553-103.541c6.974-6.973,18.28-6.974,25.255,0l46.709,46.698  c6.971,6.969,6.977,18.285,0.001,25.259L368.256,455.654c-2.721,2.721-6.246,4.49-10.053,5.045  C308.754,467.905,305.459,468.512,302.405,468.512z"/>
<path style="fill:#163457;" d="M497.077,254.855c-19.853-19.818-52.132-19.813-71.957,0.012l-25.277,25.278l-12.632,12.631  c7.791,7.788,54.966,54.952,71.971,71.953l12.627-12.627l25.278-25.278C516.996,306.917,516.95,274.69,497.077,254.855z"/>
<g>
</g>
<g>
</g>
<g>
</g>
<g>
</g>
<g>
</g>
<g>
</g>
<g>
</g>
<g>
</g>
<g>
</g>
<g>
</g>
<g>
</g>
<g>
</g>
<g>
</g>
<g>
</g>
<g>
</g>
</svg>
