<?xml version="1.0" encoding="iso-8859-1"?>
<!-- Generator: Adobe Illustrator 19.0.0, SVG Export Plug-In . SVG Version: 6.00 Build 0)  -->
<svg xmlns="http://www.w3.org/2000/svg" xmlns:xlink="http://www.w3.org/1999/xlink" version="1.1" id="Layer_1" x="0px" y="0px" viewBox="0 0 512 512" style="enable-background:new 0 0 512 512;" xml:space="preserve">
<path style="fill:#1C3D66;" d="M371.35,256.581c-9.22,0-16.696-7.475-16.696-16.696V132.049c0-54.4-44.258-98.658-98.658-98.658  s-98.658,44.258-98.658,98.658v107.836c0,9.22-7.475,16.696-16.696,16.696c-9.22,0-16.696-7.475-16.696-16.696V132.049  C123.947,59.237,183.185,0,255.997,0s132.049,59.237,132.049,132.049v107.836C388.046,249.106,380.571,256.581,371.35,256.581z"/>
<path style="fill:#163457;" d="M255.997,0v33.391c54.4,0,98.658,44.258,98.658,98.658v107.836c0,9.22,7.475,16.696,16.696,16.696  s16.696-7.475,16.696-16.696V132.049C388.046,59.237,328.809,0,255.997,0z"/>
<path style="fill:#FFE365;" d="M426.931,512H85.062c-9.22,0-16.696-7.475-16.696-16.696V239.885c0-9.22,7.475-16.696,16.696-16.696  h341.869c9.22,0,16.696,7.475,16.696,16.696v255.419C443.627,504.525,436.152,512,426.931,512z"/>
<g>
	<path style="fill:#FFC733;" d="M426.931,223.19H255.997V512h170.935c9.22,0,16.696-7.475,16.696-16.696V239.885   C443.627,230.665,436.152,223.19,426.931,223.19z"/>
	<rect x="68.371" y="415.755" style="fill:#FFC733;" width="375.263" height="33.391"/>
	<rect x="68.371" y="286.041" style="fill:#FFC733;" width="375.263" height="33.391"/>
</g>
<g>
	<rect x="255.997" y="415.755" style="fill:#FFAF00;" width="187.626" height="33.391"/>
	<rect x="255.997" y="286.041" style="fill:#FFAF00;" width="187.626" height="33.391"/>
</g>
<g>
</g>
<g>
</g>
<g>
</g>
<g>
</g>
<g>
</g>
<g>
</g>
<g>
</g>
<g>
</g>
<g>
</g>
<g>
</g>
<g>
</g>
<g>
</g>
<g>
</g>
<g>
</g>
<g>
</g>
</svg>
