<?xml version="1.0" encoding="iso-8859-1"?>
<!-- Generator: Adobe Illustrator 19.0.0, SVG Export Plug-In . SVG Version: 6.00 Build 0)  -->
<svg xmlns="http://www.w3.org/2000/svg" xmlns:xlink="http://www.w3.org/1999/xlink" version="1.1" id="Layer_1" x="0px" y="0px" viewBox="0 0 512 512" style="enable-background:new 0 0 512 512;" xml:space="preserve">
<path style="fill:#EFEFEF;" d="M288.089,461.124L138.447,349.993H17.587C7.874,349.993,0,342.118,0,332.405V179.606  c0-9.713,7.874-17.587,17.587-17.587h120.859L288.089,50.887c11.595-8.612,28.073-0.297,28.073,14.119v381.999  C316.162,461.534,299.591,469.668,288.089,461.124z"/>
<g>
	<path style="fill:#C5D8DF;" d="M0,256.006v76.4c0,9.713,7.874,17.587,17.587,17.587h120.859l149.643,111.131   c11.502,8.544,28.073,0.409,28.073-14.119V256.006L0,256.006L0,256.006z"/>
	<path style="fill:#C5D8DF;" d="M371.097,199.326c-6.868-6.867-6.868-18.004,0-24.872L449.5,96.052   c6.868-6.867,18.005-6.87,24.872,0c6.868,6.867,6.868,18.004,0,24.872l-78.403,78.402   C389.102,206.194,377.964,206.196,371.097,199.326z"/>
	<path style="fill:#C5D8DF;" d="M494.413,273.593H383.534c-9.713,0-17.587-7.874-17.587-17.587s7.874-17.587,17.587-17.587h110.879   c9.713,0,17.587,7.874,17.587,17.587S504.126,273.593,494.413,273.593z"/>
	<path style="fill:#C5D8DF;" d="M17.587,162.019C7.874,162.019,0,169.893,0,179.606v152.799c0,9.713,7.874,17.587,17.587,17.587   h120.859V162.019L17.587,162.019L17.587,162.019z"/>
</g>
<g>
	<path style="fill:#9CC2D0;" d="M365.945,256.006c0,9.713,7.874,17.587,17.587,17.587h110.879c9.713,0,17.587-7.874,17.587-17.587   H365.945z"/>
	<path style="fill:#9CC2D0;" d="M449.5,415.959l-78.403-78.403c-6.868-6.867-6.868-18.004,0-24.872   c6.867-6.867,18.004-6.867,24.872,0l78.403,78.403c6.868,6.867,6.868,18.004,0,24.872   C467.503,422.828,456.369,422.827,449.5,415.959z"/>
	<path style="fill:#9CC2D0;" d="M0,256.006v76.4c0,9.713,7.874,17.587,17.587,17.587h120.859v-93.987L0,256.006L0,256.006z"/>
</g>
<g>
</g>
<g>
</g>
<g>
</g>
<g>
</g>
<g>
</g>
<g>
</g>
<g>
</g>
<g>
</g>
<g>
</g>
<g>
</g>
<g>
</g>
<g>
</g>
<g>
</g>
<g>
</g>
<g>
</g>
</svg>
