<?xml version="1.0" encoding="iso-8859-1"?>
<!-- Generator: Adobe Illustrator 19.0.0, SVG Export Plug-In . SVG Version: 6.00 Build 0)  -->
<svg xmlns="http://www.w3.org/2000/svg" xmlns:xlink="http://www.w3.org/1999/xlink" version="1.1" id="Layer_1" x="0px" y="0px" viewBox="0 0 512.001 512.001" style="enable-background:new 0 0 512.001 512.001;" xml:space="preserve">
<path style="fill:#EFEFEF;" d="M248.256,510.143C134.005,451.972,55.043,341.465,37.034,214.538L17.532,77.14  c-1.22-8.591,4.201-16.73,12.599-18.916L251.701,0.552c2.819-0.734,5.779-0.734,8.598,0l221.571,57.673  c8.397,2.186,13.818,10.324,12.599,18.916l-19.501,137.398c-18.011,126.928-96.972,237.435-211.223,295.606  C258.881,512.62,253.121,512.621,248.256,510.143z"/>
<g>
	<path style="fill:#C5D8DF;" d="M481.871,58.224L260.299,0.55c-1.409-0.366-2.854-0.55-4.299-0.55v512   c2.657,0,5.312-0.619,7.744-1.858c114.251-58.171,193.212-168.678,211.223-295.606l19.502-137.398   C495.688,68.549,490.267,60.41,481.871,58.224z"/>
	<path style="fill:#C5D8DF;" d="M273.067,3.874L260.299,0.55c-2.819-0.734-5.779-0.734-8.598,0l-12.767,3.323v501.355   c3.082,1.675,6.187,3.318,9.323,4.914c4.863,2.476,10.622,2.478,15.487,0c3.136-1.596,6.241-3.24,9.323-4.914V3.874z"/>
</g>
<path style="fill:#9CC2D0;" d="M260.299,0.55c-1.409-0.366-2.854-0.55-4.299-0.55v512c2.656,0,5.311-0.619,7.744-1.858  c3.136-1.596,6.241-3.24,9.323-4.914V3.874L260.299,0.55z"/>
<g>
</g>
<g>
</g>
<g>
</g>
<g>
</g>
<g>
</g>
<g>
</g>
<g>
</g>
<g>
</g>
<g>
</g>
<g>
</g>
<g>
</g>
<g>
</g>
<g>
</g>
<g>
</g>
<g>
</g>
</svg>
