<?xml version="1.0" encoding="iso-8859-1"?>
<!-- Generator: Adobe Illustrator 19.0.0, SVG Export Plug-In . SVG Version: 6.00 Build 0)  -->
<svg xmlns="http://www.w3.org/2000/svg" xmlns:xlink="http://www.w3.org/1999/xlink" version="1.1" id="Layer_1" x="0px" y="0px" viewBox="0 0 512 512" style="enable-background:new 0 0 512 512;" xml:space="preserve">
<path style="fill:#1BB3F9;" d="M435.697,512H126.482c-36.876,0-66.876-29.994-66.876-66.862V66.862  c0-9.22,7.475-16.696,16.696-16.696s16.696,7.475,16.696,16.696c0,18.463,15.021,33.485,33.485,33.485h309.216  c9.22,0,16.696,7.475,16.696,16.696v378.262C452.393,504.525,444.917,512,435.697,512z"/>
<path style="fill:#008BE5;" d="M435.697,100.346H255.999V512h179.698c9.22,0,16.696-7.475,16.696-16.696V117.042  C452.393,107.822,444.917,100.346,435.697,100.346z"/>
<path style="fill:#84DBFF;" d="M435.697,133.738H126.482c-36.876,0-66.876-30.001-66.876-66.876c0-36.867,30-66.862,66.876-66.862  h309.216c9.22,0,16.696,7.475,16.696,16.696v100.346C452.393,126.263,444.917,133.738,435.697,133.738z"/>
<path style="fill:#54C9EB;" d="M435.697,0H255.999v133.738h179.698c9.22,0,16.696-7.475,16.696-16.696V16.696  C452.393,7.475,444.917,0,435.697,0z"/>
<path style="fill:#FFE365;" d="M331.065,324.88h-150.14c-9.22,0-16.696-7.475-16.696-16.696v-89.856  c0-9.22,7.475-16.696,16.696-16.696h150.141c9.22,0,16.696,7.475,16.696,16.696v89.856  C347.761,317.404,340.287,324.88,331.065,324.88z"/>
<path style="fill:#1C3D66;" d="M331.065,397.938h-150.14c-9.22,0-16.696-7.475-16.696-16.696c0-9.22,7.475-16.696,16.696-16.696  h150.141c9.22,0,16.696,7.475,16.696,16.696C347.762,390.462,340.287,397.938,331.065,397.938z"/>
<path style="fill:#FFC733;" d="M331.065,201.631h-75.066v123.247h75.066c9.22,0,16.696-7.475,16.696-16.696v-89.856  C347.761,209.106,340.287,201.631,331.065,201.631z"/>
<path style="fill:#163457;" d="M331.065,364.546h-75.066v33.391h75.066c9.22,0,16.696-7.475,16.696-16.696  C347.761,372.021,340.287,364.546,331.065,364.546z"/>
<g>
</g>
<g>
</g>
<g>
</g>
<g>
</g>
<g>
</g>
<g>
</g>
<g>
</g>
<g>
</g>
<g>
</g>
<g>
</g>
<g>
</g>
<g>
</g>
<g>
</g>
<g>
</g>
<g>
</g>
</svg>
