<?xml version="1.0" encoding="iso-8859-1"?>
<!-- Generator: Adobe Illustrator 19.0.0, SVG Export Plug-In . SVG Version: 6.00 Build 0)  -->
<svg xmlns="http://www.w3.org/2000/svg" xmlns:xlink="http://www.w3.org/1999/xlink" version="1.1" id="Layer_1" x="0px" y="0px" viewBox="0 0 512 512" style="enable-background:new 0 0 512 512;" xml:space="preserve">
<path style="fill:#B7E183;" d="M470.326,512H41.674c-9.864,0-17.86-7.997-17.86-17.86V17.86C23.814,7.997,31.811,0,41.674,0h428.651  c9.864,0,17.86,7.997,17.86,17.86V494.14C488.186,504.003,480.189,512,470.326,512z"/>
<path style="fill:#71DE56;" d="M470.326,0H256v512h214.326c9.864,0,17.86-7.997,17.86-17.86V17.86  C488.186,7.997,480.189,0,470.326,0z"/>
<g>
	<path style="fill:#FFE365;" d="M127.631,106.645c-14.773,0-26.791-12.018-26.791-26.791s12.018-26.791,26.791-26.791   s26.791,12.018,26.791,26.791S142.404,106.645,127.631,106.645z"/>
	<path style="fill:#FFE365;" d="M393.299,97.715H213.172c-9.864,0-17.86-7.997-17.86-17.86s7.997-17.86,17.86-17.86h180.128   c9.864,0,17.86,7.997,17.86,17.86S403.163,97.715,393.299,97.715z"/>
	<path style="fill:#FFE365;" d="M127.631,282.791c-14.773,0-26.791-12.018-26.791-26.791s12.018-26.791,26.791-26.791   s26.791,12.018,26.791,26.791S142.404,282.791,127.631,282.791z"/>
	<path style="fill:#FFE365;" d="M393.299,273.86H213.172c-9.864,0-17.86-7.997-17.86-17.86s7.997-17.86,17.86-17.86h180.128   c9.864,0,17.86,7.997,17.86,17.86S403.163,273.86,393.299,273.86z"/>
	<path style="fill:#FFE365;" d="M127.631,458.937c-14.773,0-26.791-12.018-26.791-26.791c0-14.773,12.018-26.791,26.791-26.791   s26.791,12.018,26.791,26.791C154.422,446.919,142.404,458.937,127.631,458.937z"/>
	<path style="fill:#FFE365;" d="M393.299,450.006H213.172c-9.864,0-17.86-7.997-17.86-17.86c0-9.864,7.997-17.86,17.86-17.86   h180.128c9.864,0,17.86,7.997,17.86,17.86C411.16,442.01,403.163,450.006,393.299,450.006z"/>
</g>
<g>
	<rect x="23.814" y="158.756" style="fill:#71DE56;" width="464.372" height="35.721"/>
	<rect x="23.814" y="317.523" style="fill:#71DE56;" width="464.372" height="35.721"/>
</g>
<g>
	<path style="fill:#FFC733;" d="M393.299,61.994H256v35.721h137.299c9.864,0,17.86-7.997,17.86-17.86S403.163,61.994,393.299,61.994   z"/>
	<path style="fill:#FFC733;" d="M393.299,238.14H256v35.721h137.299c9.864,0,17.86-7.997,17.86-17.86S403.163,238.14,393.299,238.14   z"/>
	<path style="fill:#FFC733;" d="M393.299,414.285H256v35.721h137.299c9.864,0,17.86-7.997,17.86-17.86   C411.16,422.282,403.163,414.285,393.299,414.285z"/>
</g>
<g>
	<rect x="256" y="158.756" style="fill:#2FBD66;" width="232.186" height="35.721"/>
	<rect x="256" y="317.523" style="fill:#2FBD66;" width="232.186" height="35.721"/>
</g>
<g>
</g>
<g>
</g>
<g>
</g>
<g>
</g>
<g>
</g>
<g>
</g>
<g>
</g>
<g>
</g>
<g>
</g>
<g>
</g>
<g>
</g>
<g>
</g>
<g>
</g>
<g>
</g>
<g>
</g>
</svg>
