<?xml version="1.0" encoding="iso-8859-1"?>
<!-- Generator: Adobe Illustrator 19.0.0, SVG Export Plug-In . SVG Version: 6.00 Build 0)  -->
<svg xmlns="http://www.w3.org/2000/svg" xmlns:xlink="http://www.w3.org/1999/xlink" version="1.1" id="Layer_1" x="0px" y="0px" viewBox="0 0 512 512" style="enable-background:new 0 0 512 512;" xml:space="preserve">
<path style="fill:#EFEFEF;" d="M496,378.667H16c-8.836,0-16-7.164-16-16V149.333c0-8.836,7.164-16,16-16h480c8.836,0,16,7.164,16,16  v213.333C512,371.503,504.836,378.667,496,378.667z"/>
<g>
	<path style="fill:#C5D8DF;" d="M496,133.333H256v245.333h240c8.836,0,16-7.164,16-16V149.333   C512,140.497,504.836,133.333,496,133.333z"/>
	<path style="fill:#C5D8DF;" d="M152.278,315.566c-8.284-3.075-12.507-12.284-9.43-20.569l33.09-89.133   c3.075-8.284,12.285-12.508,20.569-9.43c8.284,3.075,12.507,12.284,9.43,20.569l-33.09,89.133   C169.77,314.421,160.558,318.64,152.278,315.566z"/>
	<path style="fill:#C5D8DF;" d="M122.205,272H58.998c-8.836,0-16-7.164-16-16c0-8.836,7.164-16,16-16h63.206c8.836,0,16,7.164,16,16   C138.205,264.836,131.041,272,122.205,272z"/>
	<path style="fill:#C5D8DF;" d="M315.493,315.566c-8.284-3.075-12.507-12.284-9.43-20.569l33.09-89.133   c3.075-8.284,12.285-12.508,20.569-9.43c8.284,3.075,12.507,12.284,9.43,20.569l-33.09,89.133   C332.986,314.421,323.774,318.64,315.493,315.566z"/>
	<path style="fill:#C5D8DF;" d="M287.603,272h-63.207c-8.836,0-16-7.164-16-16c0-8.836,7.164-16,16-16h63.207   c8.836,0,16,7.164,16,16C303.603,264.836,296.441,272,287.603,272z"/>
</g>
<g>
	<path style="fill:#9CC2D0;" d="M315.493,315.566c-8.284-3.075-12.507-12.284-9.43-20.569l33.09-89.133   c3.075-8.284,12.285-12.508,20.569-9.43c8.284,3.075,12.507,12.284,9.43,20.569l-33.09,89.133   C332.986,314.421,323.774,318.64,315.493,315.566z"/>
	<path style="fill:#9CC2D0;" d="M453.002,272h-63.206c-8.836,0-16-7.164-16-16c0-8.836,7.164-16,16-16h63.206   c8.836,0,16,7.164,16,16C469.002,264.836,461.839,272,453.002,272z"/>
	<path style="fill:#9CC2D0;" d="M287.603,240H256v32h31.603c8.836,0,16-7.164,16-16C303.603,247.164,296.441,240,287.603,240z"/>
</g>
<g>
</g>
<g>
</g>
<g>
</g>
<g>
</g>
<g>
</g>
<g>
</g>
<g>
</g>
<g>
</g>
<g>
</g>
<g>
</g>
<g>
</g>
<g>
</g>
<g>
</g>
<g>
</g>
<g>
</g>
</svg>
