<?xml version="1.0" encoding="iso-8859-1"?>
<!-- Generator: Adobe Illustrator 19.0.0, SVG Export Plug-In . SVG Version: 6.00 Build 0)  -->
<svg xmlns="http://www.w3.org/2000/svg" xmlns:xlink="http://www.w3.org/1999/xlink" version="1.1" id="Layer_1" x="0px" y="0px" viewBox="0 0 512 512" style="enable-background:new 0 0 512 512;" xml:space="preserve">
<path style="fill:#EFEFEF;" d="M356.174,512H155.826c-9.22,0-16.696-7.475-16.696-16.696V16.696C139.13,7.475,146.606,0,155.826,0  h200.348c9.22,0,16.696,7.475,16.696,16.696v478.609C372.87,504.525,365.394,512,356.174,512z"/>
<path style="fill:#C5D8DF;" d="M139.13,256v239.304c0,9.22,7.475,16.696,16.696,16.696h200.348c9.22,0,16.696-7.475,16.696-16.696  V256H139.13z"/>
<g>
	<path style="fill:#1C3D66;" d="M2.418,304.198v-96.393c0-12.846,13.939-20.871,25.043-14.458l83.478,48.196   c11.124,6.422,11.107,22.505,0,28.917l-83.478,48.196C16.423,325.031,2.418,317.129,2.418,304.198z"/>
	<path style="fill:#1C3D66;" d="M484.539,318.659l-83.478-48.196c-11.124-6.422-11.107-22.505,0-28.917l83.478-48.196   c11.125-6.423,25.043,1.635,25.043,14.458v96.393C509.582,317.126,495.571,325.03,484.539,318.659z"/>
</g>
<rect x="239.304" style="fill:#C5D8DF;" width="33.391" height="512"/>
<g>
	<path style="fill:#163457;" d="M2.418,256v48.198c0,12.931,14.005,20.833,25.043,14.458l83.478-48.196   c5.555-3.208,8.337-8.834,8.337-14.461H2.418z"/>
	<path style="fill:#163457;" d="M392.724,256c-0.002,5.625,2.775,11.252,8.337,14.463l83.478,48.196   c11.031,6.37,25.043-1.533,25.043-14.458V256H392.724z"/>
</g>
<rect x="239.304" y="256" style="fill:#9CC2D0;" width="33.391" height="256"/>
<g>
</g>
<g>
</g>
<g>
</g>
<g>
</g>
<g>
</g>
<g>
</g>
<g>
</g>
<g>
</g>
<g>
</g>
<g>
</g>
<g>
</g>
<g>
</g>
<g>
</g>
<g>
</g>
<g>
</g>
</svg>
