<?xml version="1.0" encoding="iso-8859-1"?>
<!-- Generator: Adobe Illustrator 19.0.0, SVG Export Plug-In . SVG Version: 6.00 Build 0)  -->
<svg xmlns="http://www.w3.org/2000/svg" xmlns:xlink="http://www.w3.org/1999/xlink" version="1.1" id="Layer_1" x="0px" y="0px" viewBox="0 0 512 512" style="enable-background:new 0 0 512 512;" xml:space="preserve">
<path style="fill:#54C9EB;" d="M256,512c-85.338,0-158.392-37.003-158.392-90.057V311.314c0-9.22,7.475-16.696,16.696-16.696  S131,302.093,131,311.314c0,26.755,51.932,56.666,125,56.666c73.168,0,125-29.962,125-56.666c0-9.22,7.475-16.696,16.696-16.696  c9.22,0,16.696,7.475,16.696,16.696v110.629C414.392,475.081,341.186,512,256,512z"/>
<path style="fill:#1BB3F9;" d="M397.696,294.618c-9.22,0-16.696,7.475-16.696,16.696c0,26.705-51.832,56.666-125,56.666V512  c85.186,0,158.392-36.919,158.392-90.057V311.314C414.392,302.093,406.916,294.618,397.696,294.618z"/>
<g>
	<path style="fill:#1C3D66;" d="M209.719,471.507c-9.095-1.517-15.238-10.121-13.72-19.217c1.517-9.095,10.122-15.226,19.216-13.72   c36.205,6.04,78.131,3.961,112.623-7.641c8.742-2.943,18.206,1.763,21.148,10.503c2.94,8.741-1.763,18.207-10.503,21.148   C298.578,476.001,251.077,478.405,209.719,471.507z"/>
	<circle style="fill:#1C3D66;" cx="165.042" cy="441.8" r="12.8"/>
</g>
<path style="fill:#84DBFF;" d="M256,401.371c-85.338,0-158.392-37.003-158.392-90.057V200.685c0-9.22,7.475-16.696,16.696-16.696  S131,191.465,131,200.685c0,26.755,51.932,56.666,125,56.666c73.168,0,125-29.962,125-56.666c0-9.22,7.475-16.696,16.696-16.696  c9.22,0,16.696,7.475,16.696,16.696v110.629C414.392,364.454,341.186,401.371,256,401.371z"/>
<path style="fill:#54C9EB;" d="M397.696,183.991c-9.22,0-16.696,7.475-16.696,16.696c0,26.705-51.832,56.666-125,56.666v144.02  c85.186,0,158.392-36.919,158.392-90.057V200.686C414.392,191.466,406.916,183.991,397.696,183.991z"/>
<g>
	<path style="fill:#1C3D66;" d="M209.717,360.878c-9.095-1.517-15.236-10.121-13.719-19.217   c1.517-9.095,10.122-15.242,19.217-13.718c36.281,6.054,78.197,3.936,112.623-7.641c8.738-2.943,18.207,1.763,21.147,10.504   c2.94,8.74-1.763,18.207-10.504,21.147C298.733,365.318,251.245,367.809,209.717,360.878z"/>
	<circle style="fill:#1C3D66;" cx="165.042" cy="331.175" r="12.8"/>
</g>
<path style="fill:#54C9EB;" d="M256,290.744c-85.338,0-158.392-37.003-158.392-90.057V90.057c0-9.22,7.475-16.696,16.696-16.696  S131,80.837,131,90.057c0,26.687,51.798,56.666,125,56.666c73.177,0,125-29.966,125-56.666c0-9.22,7.475-16.696,16.696-16.696  c9.22,0,16.696,7.475,16.696,16.696v110.629C414.392,253.825,341.186,290.744,256,290.744z"/>
<path style="fill:#1BB3F9;" d="M397.696,73.362c-9.22,0-16.696,7.475-16.696,16.696c0,26.7-51.822,56.666-125,56.666v144.02  c85.186,0,158.392-36.919,158.392-90.057V90.057C414.392,80.837,406.916,73.362,397.696,73.362z"/>
<g>
	<path style="fill:#1C3D66;" d="M209.719,250.25c-9.095-1.517-15.238-10.121-13.72-19.217c1.517-9.095,10.122-15.226,19.216-13.72   c36.205,6.04,78.131,3.961,112.623-7.641c8.742-2.942,18.206,1.762,21.148,10.503c2.94,8.741-1.763,18.207-10.503,21.148   C298.578,254.743,251.077,257.148,209.719,250.25z"/>
	<circle style="fill:#1C3D66;" cx="165.042" cy="220.55" r="12.8"/>
</g>
<path style="fill:#84DBFF;" d="M256,180.115c-85.071,0-158.392-36.783-158.392-90.057C97.608,36.919,170.814,0,256,0  c85.338,0,158.392,37.003,158.392,90.057C414.392,143.622,340.548,180.115,256,180.115z"/>
<path style="fill:#54C9EB;" d="M256,0v180.115c84.548,0,158.392-36.493,158.392-90.057C414.392,37.003,341.338,0,256,0z"/>
<g>
	<path style="fill:#163457;" d="M348.985,441.432c-2.942-8.74-12.406-13.444-21.148-10.503   c-22.054,7.418-47.144,10.926-71.837,10.925v33.399c28.203-0.001,56.903-4.07,82.482-12.674   C347.222,459.639,351.924,450.172,348.985,441.432z"/>
	<path style="fill:#163457;" d="M348.985,330.804c-2.94-8.741-12.408-13.446-21.147-10.504   c-22.026,7.407-47.116,10.923-71.838,10.923v33.4c28.268-0.002,56.969-4.095,82.481-12.674   C347.222,349.011,351.924,339.544,348.985,330.804z"/>
	<path style="fill:#163457;" d="M348.985,220.174c-2.942-8.741-12.406-13.443-21.148-10.503   c-22.054,7.418-47.144,10.926-71.837,10.925v33.399c28.203-0.001,56.903-4.07,82.482-12.674   C347.222,238.382,351.924,228.914,348.985,220.174z"/>
</g>
<g>
</g>
<g>
</g>
<g>
</g>
<g>
</g>
<g>
</g>
<g>
</g>
<g>
</g>
<g>
</g>
<g>
</g>
<g>
</g>
<g>
</g>
<g>
</g>
<g>
</g>
<g>
</g>
<g>
</g>
</svg>
