<?xml version="1.0" encoding="iso-8859-1"?>
<!-- Generator: Adobe Illustrator 19.0.0, SVG Export Plug-In . SVG Version: 6.00 Build 0)  -->
<svg xmlns="http://www.w3.org/2000/svg" xmlns:xlink="http://www.w3.org/1999/xlink" version="1.1" id="Layer_1" x="0px" y="0px" viewBox="0 0 512 512" style="enable-background:new 0 0 512 512;" xml:space="preserve">
<g>
	<path style="fill:#163457;" d="M494.933,104.929h-50.302c-9.425,0-17.067-7.641-17.067-17.067s7.641-17.067,17.067-17.067h50.302   c9.425,0,17.067,7.641,17.067,17.067S504.359,104.929,494.933,104.929z"/>
	<path style="fill:#163457;" d="M494.933,441.204h-50.302c-9.425,0-17.067-7.641-17.067-17.067c0-9.425,7.641-17.067,17.067-17.067   h50.302c9.425,0,17.067,7.641,17.067,17.067C512,433.563,504.359,441.204,494.933,441.204z"/>
</g>
<path style="fill:#1C3D66;" d="M67.369,104.929H17.067C7.641,104.929,0,97.288,0,87.863s7.641-17.067,17.067-17.067h50.302  c9.425,0,17.067,7.641,17.067,17.067S76.794,104.929,67.369,104.929z"/>
<path style="fill:#EFEFEF;" d="M394.33,393.166H117.67c-9.425,0-17.067-7.641-17.067-17.067V135.901  c0-9.425,7.641-17.067,17.067-17.067h276.66c9.425,0,17.067,7.641,17.067,17.067v240.197  C411.397,385.525,403.755,393.166,394.33,393.166z"/>
<path style="fill:#C5D8DF;" d="M394.33,118.834H256v274.331h138.33c9.425,0,17.067-7.641,17.067-17.067V135.901  C411.397,126.475,403.755,118.834,394.33,118.834z"/>
<path style="fill:#FFE365;" d="M444.631,152.967H67.369c-9.425,0-17.067-7.641-17.067-17.067V39.822  c0-9.425,7.641-17.067,17.067-17.067h377.262c9.425,0,17.067,7.641,17.067,17.067v96.079  C461.698,145.327,454.056,152.967,444.631,152.967z"/>
<path style="fill:#1C3D66;" d="M67.369,441.204H17.067C7.641,441.204,0,433.563,0,424.137c0-9.425,7.641-17.067,17.067-17.067  h50.302c9.425,0,17.067,7.641,17.067,17.067C84.436,433.563,76.794,441.204,67.369,441.204z"/>
<g>
	<path style="fill:#C5D8DF;" d="M315.762,235.916H196.238c-9.425,0-17.067-7.641-17.067-17.067c0-9.425,7.641-17.067,17.067-17.067   h119.524c9.425,0,17.067,7.641,17.067,17.067C332.828,228.275,325.187,235.916,315.762,235.916z"/>
	<path style="fill:#C5D8DF;" d="M315.762,310.217H196.238c-9.425,0-17.067-7.641-17.067-17.067c0-9.425,7.641-17.067,17.067-17.067   h119.524c9.425,0,17.067,7.641,17.067,17.067C332.828,302.576,325.187,310.217,315.762,310.217z"/>
</g>
<path style="fill:#FFE365;" d="M444.631,489.244H67.369c-9.425,0-17.067-7.641-17.067-17.067v-96.079  c0-9.425,7.641-17.067,17.067-17.067h377.262c9.425,0,17.067,7.641,17.067,17.067v96.079  C461.698,481.603,454.056,489.244,444.631,489.244z"/>
<path style="fill:#FFC733;" d="M444.631,22.756H256v130.212h188.631c9.425,0,17.067-7.641,17.067-17.067V39.822  C461.698,30.397,454.056,22.756,444.631,22.756z"/>
<g>
	<path style="fill:#9CC2D0;" d="M315.762,201.783H256v34.133h59.762c9.425,0,17.067-7.641,17.067-17.067   C332.828,209.424,325.187,201.783,315.762,201.783z"/>
	<path style="fill:#9CC2D0;" d="M315.762,276.084H256v34.133h59.762c9.425,0,17.067-7.641,17.067-17.067   S325.187,276.084,315.762,276.084z"/>
</g>
<path style="fill:#FFC733;" d="M444.631,359.033H256v130.212h188.631c9.425,0,17.067-7.641,17.067-17.067v-96.079  C461.698,366.673,454.056,359.033,444.631,359.033z"/>
<g>
</g>
<g>
</g>
<g>
</g>
<g>
</g>
<g>
</g>
<g>
</g>
<g>
</g>
<g>
</g>
<g>
</g>
<g>
</g>
<g>
</g>
<g>
</g>
<g>
</g>
<g>
</g>
<g>
</g>
</svg>
