<?xml version="1.0" encoding="iso-8859-1"?>
<!-- Generator: Adobe Illustrator 19.0.0, SVG Export Plug-In . SVG Version: 6.00 Build 0)  -->
<svg xmlns="http://www.w3.org/2000/svg" xmlns:xlink="http://www.w3.org/1999/xlink" version="1.1" id="Layer_1" x="0px" y="0px" viewBox="0 0 512 512" style="enable-background:new 0 0 512 512;" xml:space="preserve">
<path style="fill:#FFC733;" d="M435.697,512H126.482c-36.876,0-66.876-29.994-66.876-66.862V66.862  c0-9.22,7.475-16.696,16.696-16.696s16.696,7.475,16.696,16.696c0,18.463,15.021,33.485,33.485,33.485h309.216  c9.22,0,16.696,7.475,16.696,16.696v378.262C452.393,504.525,444.917,512,435.697,512z"/>
<path style="fill:#FFAF00;" d="M435.697,100.346H255.999V512h179.698c9.22,0,16.696-7.475,16.696-16.696V117.042  C452.393,107.822,444.917,100.346,435.697,100.346z"/>
<path style="fill:#FFE365;" d="M435.697,133.738H126.482c-36.876,0-66.876-30.001-66.876-66.876c0-36.867,30-66.862,66.876-66.862  h309.216c9.22,0,16.696,7.475,16.696,16.696v100.346C452.393,126.263,444.917,133.738,435.697,133.738z"/>
<path style="fill:#FFC733;" d="M435.697,0H255.999v133.738h179.698c9.22,0,16.696-7.475,16.696-16.696V16.696  C452.393,7.475,444.917,0,435.697,0z"/>
<path style="fill:#EFEFEF;" d="M376.51,390.131H135.489c-9.22,0-16.696-7.475-16.696-16.696V238.913  c0-12.386,13.046-20.454,24.122-14.954l113.084,56.163l113.084-56.163c11.097-5.505,24.122,2.585,24.122,14.954v134.522  C393.205,382.655,385.73,390.131,376.51,390.131z"/>
<path style="fill:#C5D8DF;" d="M369.084,223.959l-113.084,56.163v110.009h120.51c9.22,0,16.696-7.475,16.696-16.696V238.913  C393.205,226.543,380.181,218.453,369.084,223.959z"/>
<path style="fill:#9CC2D0;" d="M333.248,306.901l-53.64-36.833c0.024-0.557,0.03-1.114-0.001-1.672l-23.608,11.726l-23.608-11.725  c-0.031,0.558-0.026,1.115-0.001,1.672l-53.64,36.833c-7.602,5.219-9.532,15.613-4.313,23.214c5.22,7.601,15.613,9.531,23.214,4.312  l58.348-40.065l58.348,40.065c7.601,5.219,17.995,3.289,23.214-4.312C342.78,322.514,340.85,312.121,333.248,306.901z"/>
<path style="fill:#72ABC0;" d="M333.248,306.901l-53.64-36.833c0.024-0.557,0.03-1.114-0.001-1.672l-23.608,11.726v14.24  l58.348,40.065c7.601,5.219,17.995,3.289,23.214-4.312C342.78,322.514,340.85,312.121,333.248,306.901z"/>
<path style="fill:#C5D8DF;" d="M248.572,313.716l-120.509-59.851c-6.942-3.448-10.598-11.221-8.829-18.767  c1.771-7.546,8.503-12.881,16.255-12.881H376.51c7.751,0,14.484,5.335,16.255,12.881c1.771,7.546-1.885,15.32-8.829,18.767  l-120.509,59.851C258.748,316.039,253.251,316.04,248.572,313.716z"/>
<path style="fill:#9CC2D0;" d="M392.764,235.098c-1.771-7.546-8.504-12.881-16.255-12.881H255.999v93.242  c2.543,0,5.088-0.581,7.427-1.742l120.509-59.851C390.878,250.417,394.534,242.645,392.764,235.098z"/>
<g>
</g>
<g>
</g>
<g>
</g>
<g>
</g>
<g>
</g>
<g>
</g>
<g>
</g>
<g>
</g>
<g>
</g>
<g>
</g>
<g>
</g>
<g>
</g>
<g>
</g>
<g>
</g>
<g>
</g>
</svg>
