<?xml version="1.0" encoding="iso-8859-1"?>
<!-- Generator: Adobe Illustrator 19.0.0, SVG Export Plug-In . SVG Version: 6.00 Build 0)  -->
<svg xmlns="http://www.w3.org/2000/svg" xmlns:xlink="http://www.w3.org/1999/xlink" version="1.1" id="Layer_1" x="0px" y="0px" viewBox="0 0 512 512" style="enable-background:new 0 0 512 512;" xml:space="preserve">
<path style="fill:#FF5752;" d="M435.697,512H126.482c-36.876,0-66.876-29.994-66.876-66.862V66.862  c0-9.22,7.475-16.696,16.696-16.696s16.696,7.475,16.696,16.696c0,18.463,15.021,33.485,33.485,33.485h309.216  c9.22,0,16.696,7.475,16.696,16.696v378.262C452.393,504.525,444.917,512,435.697,512z"/>
<path style="fill:#DB3A3C;" d="M435.697,100.346H255.999V512h179.698c9.22,0,16.696-7.475,16.696-16.696V117.042  C452.393,107.822,444.917,100.346,435.697,100.346z"/>
<path style="fill:#FFE365;" d="M143.178,117.042V512h33.391V117.042c0-9.22-7.475-16.696-16.696-16.696  S143.178,107.822,143.178,117.042z"/>
<path style="fill:#FF7976;" d="M435.697,133.738H126.482c-36.876,0-66.876-30.001-66.876-66.876c0-36.867,30-66.862,66.876-66.862  h309.216c9.22,0,16.696,7.475,16.696,16.696v100.346C452.393,126.263,444.917,133.738,435.697,133.738z"/>
<g>
	<path style="fill:#FF5752;" d="M435.697,0H255.999v133.738h179.698c9.22,0,16.696-7.475,16.696-16.696V16.696   C452.393,7.475,444.917,0,435.697,0z"/>
	<path style="fill:#FF5752;" d="M452.393,220.601l-123.174,71.113c-11.126,6.423-11.106,22.506,0,28.917l123.174,71.115V220.601z"/>
</g>
<g>
</g>
<g>
</g>
<g>
</g>
<g>
</g>
<g>
</g>
<g>
</g>
<g>
</g>
<g>
</g>
<g>
</g>
<g>
</g>
<g>
</g>
<g>
</g>
<g>
</g>
<g>
</g>
<g>
</g>
</svg>
