<?xml version="1.0" encoding="iso-8859-1"?>
<!-- Generator: Adobe Illustrator 19.0.0, SVG Export Plug-In . SVG Version: 6.00 Build 0)  -->
<svg xmlns="http://www.w3.org/2000/svg" xmlns:xlink="http://www.w3.org/1999/xlink" version="1.1" id="Layer_1" x="0px" y="0px" viewBox="0 0 512 512" style="enable-background:new 0 0 512 512;" xml:space="preserve">
<path style="fill:#FFE365;" d="M256,512C114.511,512,0,397.503,0,256C0,114.511,114.497,0,256,0c141.49,0,256,114.497,256,256  C512,397.49,397.503,512,256,512z"/>
<g>
	<path style="fill:#FFC733;" d="M256,0v512c141.503,0,256-114.51,256-256C512,114.497,397.49,0,256,0z"/>
	<path style="fill:#FFC733;" d="M256,386.775c-108.696,0-169.506-125.11-103.803-210.448l3.179,3.179   c9.241,9.243,25.138,5.088,28.554-7.652l11.734-43.795c3.397-12.682-8.241-24.297-20.902-20.902l-43.795,11.735   c-12.684,3.397-16.921,19.283-7.652,28.553l4.582,4.582c-87.438,107.401-10.468,268.881,128.102,268.881   c9.425,0,17.067-7.641,17.067-17.067C273.066,394.415,265.425,386.775,256,386.775z"/>
	<path style="fill:#FFC733;" d="M384.102,359.972C470.156,254.273,396.622,91.092,256,91.092c-9.425,0-17.067,7.641-17.067,17.067   s7.641,17.067,17.067,17.067c109.917,0,168.753,126.09,103.803,210.448l-3.179-3.179c-9.284-9.283-25.159-5.015-28.554,7.652   l-11.734,43.795c-3.381,12.624,8.182,24.312,20.902,20.902l43.795-11.735c12.684-3.397,16.921-19.283,7.652-28.553L384.102,359.972   z"/>
</g>
<g>
	<path style="fill:#FFAF00;" d="M256,386.775v34.133c9.425,0,17.067-7.641,17.067-17.067S265.425,386.775,256,386.775z"/>
	<path style="fill:#FFAF00;" d="M384.102,359.972C470.156,254.273,396.622,91.092,256,91.092v34.133   c109.916,0,168.753,126.09,103.803,210.448l-3.179-3.179c-9.284-9.283-25.159-5.014-28.554,7.652l-11.734,43.795   c-3.381,12.624,8.181,24.312,20.902,20.902l43.795-11.735c12.684-3.397,16.921-19.283,7.652-28.553L384.102,359.972z"/>
</g>
<g>
</g>
<g>
</g>
<g>
</g>
<g>
</g>
<g>
</g>
<g>
</g>
<g>
</g>
<g>
</g>
<g>
</g>
<g>
</g>
<g>
</g>
<g>
</g>
<g>
</g>
<g>
</g>
<g>
</g>
</svg>
