<?xml version="1.0" encoding="iso-8859-1"?>
<!-- Generator: Adobe Illustrator 19.0.0, SVG Export Plug-In . SVG Version: 6.00 Build 0)  -->
<svg xmlns="http://www.w3.org/2000/svg" xmlns:xlink="http://www.w3.org/1999/xlink" version="1.1" id="Layer_1" x="0px" y="0px" viewBox="0 0 512 512" style="enable-background:new 0 0 512 512;" xml:space="preserve">
<path style="fill:#84DBFF;" d="M0,256C0,114.511,114.497,0,256,0c141.49,0,256,114.497,256,256c0,141.49-114.497,256-256,256  C114.511,512,0,397.503,0,256z"/>
<path style="fill:#54C9EB;" d="M256,0v512c141.503,0,256-114.51,256-256C512,114.497,397.49,0,256,0z"/>
<path style="fill:#EFEFEF;" d="M115.226,240.373l222.322-97.533c14.556-6.384,29.206,8.954,22.151,23.202l-44.539,89.961  l44.539,89.961c7.053,14.237-7.589,29.589-22.151,23.202l-222.322-97.533C101.627,265.663,101.656,246.327,115.226,240.373z"/>
<path style="fill:#C5D8DF;" d="M315.161,256.001l44.539-89.961c7.054-14.246-7.596-29.586-22.151-23.202L256,178.615v154.772  l81.549,35.775c14.562,6.388,29.203-8.965,22.151-23.202L315.161,256.001z"/>
<g>
</g>
<g>
</g>
<g>
</g>
<g>
</g>
<g>
</g>
<g>
</g>
<g>
</g>
<g>
</g>
<g>
</g>
<g>
</g>
<g>
</g>
<g>
</g>
<g>
</g>
<g>
</g>
<g>
</g>
</svg>
