<?xml version="1.0" encoding="iso-8859-1"?>
<!-- Generator: Adobe Illustrator 19.0.0, SVG Export Plug-In . SVG Version: 6.00 Build 0)  -->
<svg xmlns="http://www.w3.org/2000/svg" xmlns:xlink="http://www.w3.org/1999/xlink" version="1.1" id="Layer_1" x="0px" y="0px" viewBox="0 0 512.001 512.001" style="enable-background:new 0 0 512.001 512.001;" xml:space="preserve">
<path style="fill:#84DBFF;" d="M378.183,482.602H133.818c-8.836,0-16-7.164-16-16V241.11l-11.963,11.963  c-6.247,6.247-16.379,6.247-22.627,0L4.686,174.531c-6.249-6.247-6.249-16.379,0-22.627L122.505,34.086  c3.001-3.001,7.07-4.687,11.313-4.687h244.365c4.244,0,8.314,1.685,11.313,4.687l117.818,117.818c6.249,6.247,6.249,16.379,0,22.627  l-78.542,78.542c-6.247,6.247-16.379,6.247-22.627,0l-11.963-11.963v225.491C394.183,475.438,387.019,482.602,378.183,482.602z"/>
<g>
	<path style="fill:#54C9EB;" d="M507.314,151.903L389.496,34.086c-3.001-3.001-7.07-4.687-11.313-4.687H256.001v453.202h122.182   c8.836,0,16-7.164,16-16V241.11l11.963,11.963c6.247,6.247,16.379,6.247,22.627,0l78.542-78.542   C513.563,168.283,513.563,158.152,507.314,151.903z"/>
	<path style="fill:#54C9EB;" d="M149.172,29.4l65.997,79.147c21.268,25.508,60.43,25.465,81.663,0.001L362.828,29.4   C362.828,29.4,149.172,29.4,149.172,29.4z"/>
</g>
<path style="fill:#1BB3F9;" d="M256.001,29.4v98.261c15.107-0.001,30.211-6.378,40.83-19.114L362.827,29.4L256.001,29.4  L256.001,29.4z"/>
<g>
</g>
<g>
</g>
<g>
</g>
<g>
</g>
<g>
</g>
<g>
</g>
<g>
</g>
<g>
</g>
<g>
</g>
<g>
</g>
<g>
</g>
<g>
</g>
<g>
</g>
<g>
</g>
<g>
</g>
</svg>
