<?xml version="1.0" encoding="iso-8859-1"?>
<!-- Generator: Adobe Illustrator 19.0.0, SVG Export Plug-In . SVG Version: 6.00 Build 0)  -->
<svg xmlns="http://www.w3.org/2000/svg" xmlns:xlink="http://www.w3.org/1999/xlink" version="1.1" id="Layer_1" x="0px" y="0px" viewBox="0 0 512.001 512.001" style="enable-background:new 0 0 512.001 512.001;" xml:space="preserve">
<path style="fill:#EFEFEF;" d="M420.506,508.469l-187.64-139.342H80.847c-9.863,0-17.859-7.996-17.859-17.859V160.744  c0-9.863,7.996-17.859,17.859-17.859h152.019L420.506,3.543c11.779-8.74,28.507-0.305,28.507,14.339v476.249  C449.013,508.889,432.186,517.14,420.506,508.469z"/>
<g>
	<path style="fill:#C5D8DF;" d="M62.988,256.006v95.262c0,9.863,7.996,17.859,17.859,17.859h152.019l187.64,139.342   c11.68,8.669,28.507,0.419,28.507-14.339V256.006H62.988z"/>
	<path style="fill:#C5D8DF;" d="M80.847,142.886c-9.863,0-17.859,7.996-17.859,17.859v190.523c0,9.863,7.996,17.859,17.859,17.859   h152.019V142.886L80.847,142.886L80.847,142.886z"/>
</g>
<path style="fill:#9CC2D0;" d="M62.988,256.006v95.262c0,9.863,7.996,17.859,17.859,17.859h152.019V256.006H62.988z"/>
<g>
</g>
<g>
</g>
<g>
</g>
<g>
</g>
<g>
</g>
<g>
</g>
<g>
</g>
<g>
</g>
<g>
</g>
<g>
</g>
<g>
</g>
<g>
</g>
<g>
</g>
<g>
</g>
<g>
</g>
</svg>
