<?xml version="1.0" encoding="iso-8859-1"?>
<!-- Generator: Adobe Illustrator 19.0.0, SVG Export Plug-In . SVG Version: 6.00 Build 0)  -->
<svg xmlns="http://www.w3.org/2000/svg" xmlns:xlink="http://www.w3.org/1999/xlink" version="1.1" id="Layer_1" x="0px" y="0px" viewBox="0 0 512 512" style="enable-background:new 0 0 512 512;" xml:space="preserve">
<path style="fill:#EFEFEF;" d="M495.304,450.783H16.696C7.475,450.783,0,443.307,0,434.087V177.731  c0-9.22,7.475-16.696,16.696-16.696h478.609c9.22,0,16.696,7.475,16.696,16.696v256.356  C512,443.307,504.525,450.783,495.304,450.783z"/>
<path style="fill:#C5D8DF;" d="M495.304,161.035H256v289.747h239.304c9.22,0,16.696-7.475,16.696-16.696V177.731  C512,168.51,504.525,161.035,495.304,161.035z"/>
<path style="fill:#84DBFF;" d="M512,194.426H0V77.913c0-9.22,7.475-16.696,16.696-16.696h478.609c9.22,0,16.696,7.475,16.696,16.696  V194.426z"/>
<path style="fill:#54C9EB;" d="M512,77.913c0-9.22-7.475-16.696-16.696-16.696H256v133.209h256V77.913z"/>
<path style="fill:#FFE365;" d="M206.296,407.298H85.975c-9.22,0-16.696-7.475-16.696-16.696V254.606  c0-9.22,7.475-16.696,16.696-16.696h120.321c9.22,0,16.696,7.475,16.696,16.696v135.997  C222.992,399.823,215.516,407.298,206.296,407.298z"/>
<g>
	<path style="fill:#1BB3F9;" d="M443.568,147.769c-12.275,0-22.261-9.986-22.261-22.261s9.986-22.261,22.261-22.261   s22.261,9.986,22.261,22.261S455.842,147.769,443.568,147.769z"/>
	<path style="fill:#1BB3F9;" d="M382.926,147.769c-12.275,0-22.261-9.986-22.261-22.261s9.986-22.261,22.261-22.261   s22.261,9.986,22.261,22.261S395.201,147.769,382.926,147.769z"/>
	<path style="fill:#1BB3F9;" d="M322.285,147.769c-12.275,0-22.261-9.986-22.261-22.261s9.986-22.261,22.261-22.261   s22.261,9.986,22.261,22.261S334.56,147.769,322.285,147.769z"/>
</g>
<g>
	<path style="fill:#9CC2D0;" d="M426.025,276.637H284.364c-9.22,0-16.696-7.475-16.696-16.696c0-9.22,7.475-16.696,16.696-16.696   h141.66c9.22,0,16.696,7.475,16.696,16.696C442.72,269.162,435.246,276.637,426.025,276.637z"/>
	<path style="fill:#9CC2D0;" d="M426.025,339.299H284.364c-9.22,0-16.696-7.475-16.696-16.696c0-9.22,7.475-16.696,16.696-16.696   h141.66c9.22,0,16.696,7.475,16.696,16.696C442.72,331.824,435.246,339.299,426.025,339.299z"/>
	<path style="fill:#9CC2D0;" d="M426.025,401.963H284.364c-9.22,0-16.696-7.475-16.696-16.696c0-9.22,7.475-16.696,16.696-16.696   h141.66c9.22,0,16.696,7.475,16.696,16.696C442.72,394.488,435.246,401.963,426.025,401.963z"/>
</g>
<g>
</g>
<g>
</g>
<g>
</g>
<g>
</g>
<g>
</g>
<g>
</g>
<g>
</g>
<g>
</g>
<g>
</g>
<g>
</g>
<g>
</g>
<g>
</g>
<g>
</g>
<g>
</g>
<g>
</g>
</svg>
