<?xml version="1.0" encoding="iso-8859-1"?>
<!-- Generator: Adobe Illustrator 19.0.0, SVG Export Plug-In . SVG Version: 6.00 Build 0)  -->
<svg xmlns="http://www.w3.org/2000/svg" xmlns:xlink="http://www.w3.org/1999/xlink" version="1.1" id="Layer_1" x="0px" y="0px" viewBox="0 0 512 512" style="enable-background:new 0 0 512 512;" xml:space="preserve">
<path style="fill:#EFEFEF;" d="M356.174,512H155.826c-9.22,0-16.696-7.475-16.696-16.696V16.696C139.13,7.475,146.606,0,155.826,0  h200.348c9.22,0,16.696,7.475,16.696,16.696v478.609C372.87,504.525,365.394,512,356.174,512z"/>
<path style="fill:#C5D8DF;" d="M139.13,256v239.304c0,9.22,7.475,16.696,16.696,16.696h200.348c9.22,0,16.696-7.475,16.696-16.696  V256H139.13z"/>
<g>
	<path style="fill:#1C3D66;" d="M94.244,318.66l-83.478-48.197c-11.126-6.424-11.105-22.506,0-28.917l83.478-48.196   c11.124-6.423,25.043,1.634,25.043,14.458v96.393C119.287,317.128,105.274,325.029,94.244,318.66z"/>
	<path style="fill:#1C3D66;" d="M392.713,304.196v-96.393c0-12.845,13.938-20.872,25.043-14.458l83.478,48.196   c11.126,6.424,11.105,22.506,0,28.917l-83.478,48.197C406.656,325.064,392.713,317.055,392.713,304.196z"/>
</g>
<g>
	<path style="fill:#C5D8DF;" d="M239.304,0v58.795c0,9.22,7.475,16.696,16.696,16.696c9.22,0,16.696-7.475,16.696-16.696V0H239.304z   "/>
	<path style="fill:#C5D8DF;" d="M256,184.618c-9.22,0-16.696-7.475-16.696-16.696v-42.1c0-9.22,7.475-16.696,16.696-16.696   c9.22,0,16.696,7.475,16.696,16.696v42.1C272.696,177.143,265.22,184.618,256,184.618z"/>
	<path style="fill:#C5D8DF;" d="M256,293.746c-9.22,0-16.696-7.475-16.696-16.696v-42.1c0-9.22,7.475-16.696,16.696-16.696   c9.22,0,16.696,7.475,16.696,16.696v42.1C272.696,286.27,265.22,293.746,256,293.746z"/>
</g>
<g>
	<path style="fill:#163457;" d="M2.429,256c-0.002,5.624,2.774,11.251,8.337,14.463l83.478,48.197   c11.03,6.369,25.043-1.532,25.043-14.458V256H2.429z"/>
	<path style="fill:#163457;" d="M392.713,256v48.196c0,12.859,13.943,20.868,25.043,14.458l83.478-48.197   c5.554-3.207,8.334-8.832,8.337-14.458H392.713V256z"/>
</g>
<g>
	<path style="fill:#9CC2D0;" d="M239.304,256v21.05c0,9.22,7.475,16.696,16.696,16.696c9.22,0,16.696-7.475,16.696-16.696V256   H239.304z"/>
	<path style="fill:#9CC2D0;" d="M256,402.873c-9.22,0-16.696-7.475-16.696-16.696v-42.1c0-9.22,7.475-16.696,16.696-16.696   c9.22,0,16.696,7.475,16.696,16.696v42.1C272.696,395.398,265.22,402.873,256,402.873z"/>
	<path style="fill:#9CC2D0;" d="M256,436.509c-9.22,0-16.696,7.475-16.696,16.696V512h33.391v-58.795   C272.696,443.984,265.22,436.509,256,436.509z"/>
</g>
<g>
</g>
<g>
</g>
<g>
</g>
<g>
</g>
<g>
</g>
<g>
</g>
<g>
</g>
<g>
</g>
<g>
</g>
<g>
</g>
<g>
</g>
<g>
</g>
<g>
</g>
<g>
</g>
<g>
</g>
</svg>
