<?xml version="1.0" encoding="iso-8859-1"?>
<!-- Generator: Adobe Illustrator 19.0.0, SVG Export Plug-In . SVG Version: 6.00 Build 0)  -->
<svg xmlns="http://www.w3.org/2000/svg" xmlns:xlink="http://www.w3.org/1999/xlink" version="1.1" id="Layer_1" x="0px" y="0px" viewBox="0 0 512.001 512.001" style="enable-background:new 0 0 512.001 512.001;" xml:space="preserve">
<path style="fill:#FFE365;" d="M495.304,465.687H16.696C7.475,465.687,0,458.212,0,448.991v-267.13  c0-12.386,13.047-20.454,24.122-14.954L256,282.069l231.878-115.162C498.995,161.39,512,169.519,512,181.861v267.13  C512,458.212,504.525,465.687,495.304,465.687z"/>
<path style="fill:#FFC733;" d="M487.878,166.907L256,282.069v183.618h239.304c9.22,0,16.696-7.475,16.696-16.696v-267.13  C512,169.519,498.995,161.39,487.878,166.907z"/>
<path style="fill:#FF9000;" d="M419.635,384.37c7.6,5.22,17.996,3.287,23.214-4.312c5.219-7.601,3.289-17.995-4.313-23.214  l-139.804-95.998l-34.231,17.001L419.635,384.37z"/>
<path style="fill:#FFAF00;" d="M92.365,384.37l155.133-106.524l-34.231-17.001L73.464,356.844  c-7.602,5.219-9.532,15.613-4.313,23.214C74.37,387.658,84.764,389.589,92.365,384.37z"/>
<path style="fill:#FFC733;" d="M248.573,315.664L9.269,196.813C3.592,193.993,0,188.201,0,181.861s3.591-12.132,9.269-14.954  l239.304-118.85c4.678-2.324,10.175-2.324,14.854,0l239.304,118.85c5.679,2.82,9.269,8.613,9.269,14.954s-3.592,12.132-9.269,14.954  l-239.304,118.85C258.765,317.979,253.271,317.997,248.573,315.664z"/>
<path style="fill:#FFAF00;" d="M502.731,166.907L263.426,48.057c-2.34-1.162-4.883-1.743-7.426-1.743v271.092  c2.548,0,5.092-0.583,7.427-1.743l239.303-118.85c5.679-2.82,9.269-8.613,9.269-14.954C512,175.519,508.409,169.729,502.731,166.907  z"/>
<g>
</g>
<g>
</g>
<g>
</g>
<g>
</g>
<g>
</g>
<g>
</g>
<g>
</g>
<g>
</g>
<g>
</g>
<g>
</g>
<g>
</g>
<g>
</g>
<g>
</g>
<g>
</g>
<g>
</g>
</svg>
