<?xml version="1.0" encoding="iso-8859-1"?>
<!-- Generator: Adobe Illustrator 19.0.0, SVG Export Plug-In . SVG Version: 6.00 Build 0)  -->
<svg xmlns="http://www.w3.org/2000/svg" xmlns:xlink="http://www.w3.org/1999/xlink" version="1.1" id="Layer_1" x="0px" y="0px" viewBox="0 0 512 512" style="enable-background:new 0 0 512 512;" xml:space="preserve">
<path style="fill:#84DBFF;" d="M434.152,59.987H95.713V17.86C95.713,7.997,87.716,0,77.853,0s-17.86,7.997-17.86,17.86v42.132H17.86  C7.997,59.992,0,67.989,0,77.853s7.997,17.86,17.86,17.86h42.127v271.26c0,16.101,19.77,24.003,30.852,12.256l68.868-73.005  l54.08,57.334c7.069,7.494,18.955,7.451,25.985,0l112.58-119.348l68.809,72.924c11.05,11.711,30.851,3.892,30.851-12.257V77.848  C452.013,67.984,444.016,59.987,434.152,59.987z"/>
<path style="fill:#54C9EB;" d="M434.152,59.987H226.78v309.175c4.739-0.001,9.473-1.874,12.992-5.603l112.58-119.348l68.809,72.924  c11.05,11.711,30.851,3.892,30.851-12.257V77.848C452.013,67.984,444.016,59.987,434.152,59.987z"/>
<path style="fill:#FFE365;" d="M226.78,235.513c-28.37,0-51.45-23.08-51.45-51.451s23.08-51.451,51.45-51.451  s51.45,23.08,51.45,51.451S255.151,235.513,226.78,235.513z"/>
<path style="fill:#2FBD66;" d="M494.14,416.287h-42.127V304.878c0-4.558-1.742-8.942-4.87-12.257l-81.801-86.695  c-7.049-7.47-18.938-7.466-25.983,0.001L226.78,325.275L172.7,267.94c-7.053-7.478-18.94-7.468-25.985,0l-81.86,86.778  c-3.127,3.315-4.869,7.699-4.869,12.256v67.179c0,9.864,7.997,17.86,17.86,17.86h338.439v42.126c0,9.864,7.997,17.86,17.86,17.86  s17.86-7.997,17.86-17.86v-42.132h42.133c9.864,0,17.86-7.997,17.86-17.86C512,424.284,504.003,416.287,494.14,416.287z"/>
<path style="fill:#27A14D;" d="M494.14,416.287h-42.127V304.878c0-4.558-1.742-8.942-4.87-12.257l-81.801-86.695  c-7.049-7.47-18.938-7.466-25.983,0.001L226.78,325.275v126.738h189.507v42.127c0,9.864,7.997,17.86,17.86,17.86  s17.86-7.997,17.86-17.86v-42.132h42.132c9.864,0,17.86-7.997,17.86-17.86C512,424.284,504.003,416.287,494.14,416.287z"/>
<path style="fill:#FFC733;" d="M226.78,132.612v102.901c28.37,0,51.45-23.08,51.45-51.451  C278.232,155.692,255.151,132.612,226.78,132.612z"/>
<g>
</g>
<g>
</g>
<g>
</g>
<g>
</g>
<g>
</g>
<g>
</g>
<g>
</g>
<g>
</g>
<g>
</g>
<g>
</g>
<g>
</g>
<g>
</g>
<g>
</g>
<g>
</g>
<g>
</g>
</svg>
