<?xml version="1.0" encoding="iso-8859-1"?>
<!-- Generator: Adobe Illustrator 19.0.0, SVG Export Plug-In . SVG Version: 6.00 Build 0)  -->
<svg xmlns="http://www.w3.org/2000/svg" xmlns:xlink="http://www.w3.org/1999/xlink" version="1.1" id="Layer_1" x="0px" y="0px" viewBox="0 0 512 512" style="enable-background:new 0 0 512 512;" xml:space="preserve">
<path style="fill:#EFEFEF;" d="M422.957,512H89.043c-9.22,0-16.696-7.475-16.696-16.696V16.696C72.348,7.475,79.823,0,89.043,0  h333.913c9.22,0,16.696,7.475,16.696,16.696v478.609C439.652,504.525,432.177,512,422.957,512z"/>
<path style="fill:#C5D8DF;" d="M422.957,0H256v512h166.957c9.22,0,16.696-7.475,16.696-16.696V16.696  C439.652,7.475,432.177,0,422.957,0z"/>
<path style="fill:#FFE365;" d="M367.304,379.036H144.696c-9.22,0-16.696-7.475-16.696-16.696V72.348  c0-9.22,7.475-16.696,16.696-16.696h222.609c9.22,0,16.696,7.475,16.696,16.696V362.34C384,371.561,376.525,379.036,367.304,379.036  z"/>
<path style="fill:#C5D8DF;" d="M278.261,484.474h-44.522c-9.22,0-16.696-7.475-16.696-16.696v-44.522  c0-9.22,7.475-16.696,16.696-16.696h44.522c9.22,0,16.696,7.475,16.696,16.696v44.522  C294.957,476.999,287.481,484.474,278.261,484.474z"/>
<path style="fill:#9CC2D0;" d="M278.261,406.561H256v77.913h22.261c9.22,0,16.696-7.475,16.696-16.696v-44.522  C294.957,414.037,287.481,406.561,278.261,406.561z"/>
<path style="fill:#C5D8DF;" d="M184.162,462.214h-39.466c-9.22,0-16.696-7.475-16.696-16.696s7.475-16.696,16.696-16.696h39.466  c9.22,0,16.696,7.475,16.696,16.696S193.382,462.214,184.162,462.214z"/>
<path style="fill:#FFC733;" d="M367.304,55.652H256v323.384h111.304c9.22,0,16.696-7.475,16.696-16.696V72.348  C384,63.127,376.525,55.652,367.304,55.652z"/>
<path style="fill:#9CC2D0;" d="M367.304,462.214h-39.466c-9.22,0-16.696-7.475-16.696-16.696s7.475-16.696,16.696-16.696h39.466  c9.22,0,16.696,7.475,16.696,16.696S376.525,462.214,367.304,462.214z"/>
<g>
</g>
<g>
</g>
<g>
</g>
<g>
</g>
<g>
</g>
<g>
</g>
<g>
</g>
<g>
</g>
<g>
</g>
<g>
</g>
<g>
</g>
<g>
</g>
<g>
</g>
<g>
</g>
<g>
</g>
</svg>
