<?xml version="1.0" encoding="iso-8859-1"?>
<!-- Generator: Adobe Illustrator 19.0.0, SVG Export Plug-In . SVG Version: 6.00 Build 0)  -->
<svg xmlns="http://www.w3.org/2000/svg" xmlns:xlink="http://www.w3.org/1999/xlink" version="1.1" id="Layer_1" x="0px" y="0px" viewBox="0 0 512 512" style="enable-background:new 0 0 512 512;" xml:space="preserve">
<path style="fill:#1C3D66;" d="M495.294,493.117H16.705c-11.325,0-19.361-11.056-15.889-21.819l50.052-155.216  c1.304-4.046,4.105-7.443,7.827-9.495l123.9-68.338c6.382-3.519,14.313-2.494,19.588,2.54  c14.564,13.895,33.677,21.547,53.818,21.547s39.254-7.652,53.818-21.547c5.275-5.032,13.205-6.06,19.588-2.54l123.9,68.338  c3.722,2.053,6.521,5.449,7.827,9.495l50.052,155.216C514.66,482.077,506.602,493.117,495.294,493.117z"/>
<path style="fill:#163457;" d="M511.183,471.298l-50.052-155.216c-1.304-4.046-4.105-7.443-7.827-9.495l-123.9-68.338  c-6.383-3.52-14.312-2.493-19.588,2.54c-14.564,13.895-33.677,21.547-53.818,21.547v230.783h239.294  C506.602,493.117,514.66,482.077,511.183,471.298z"/>
<path style="fill:#EFEFEF;" d="M205.424,493.117h101.151l50.983-239.341l-28.153-15.529c-6.383-3.52-14.312-2.493-19.588,2.54  c-14.564,13.895-33.677,21.547-53.818,21.547s-39.254-7.652-53.818-21.547c-5.274-5.033-13.205-6.059-19.588-2.54l-28.153,15.529  L205.424,493.117z"/>
<path style="fill:#C5D8DF;" d="M357.559,253.776l-28.153-15.529c-6.383-3.52-14.312-2.493-19.588,2.54  c-14.564,13.895-33.677,21.547-53.818,21.547v230.783h50.576L357.559,253.776z"/>
<path style="fill:#FF5752;" d="M272.129,333.425c-4.396-16.45-27.861-16.453-32.258,0l-38.097,142.557l3.65,17.135h101.151  l3.65-17.136L272.129,333.425z"/>
<path style="fill:#DB3A3C;" d="M310.225,475.981l-38.096-142.556c-2.198-8.225-9.163-12.339-16.13-12.339v172.03h50.576  L310.225,475.981z"/>
<path style="fill:#FF7976;" d="M242.198,347.132L192.78,274.52c-6.392-9.391-1.722-22.321,9.216-25.445  c14.564-4.164,19.739,13.259,54.004,13.259c34.406,0,39.33-17.453,53.992-13.262c10.945,3.126,15.614,16.064,9.228,25.449  l-49.417,72.612C263.175,356.867,248.811,356.847,242.198,347.132z"/>
<path style="fill:#FF5752;" d="M309.991,249.071c-14.663-4.19-19.587,13.262-53.992,13.262v92.093  c5.244,0.001,10.49-2.427,13.802-7.295l49.417-72.612C325.607,265.135,320.937,252.198,309.991,249.071z"/>
<path style="fill:#FFE365;" d="M256,295.724c-61.409,0-111.369-49.959-111.369-111.369v-54.104  c0-61.409,49.959-111.369,111.369-111.369s111.369,49.959,111.369,111.369v54.104C367.369,245.765,317.408,295.724,256,295.724z"/>
<path style="fill:#FFC733;" d="M256,18.883v276.84c61.409,0,111.369-49.959,111.369-111.369v-54.104  C367.369,68.842,317.408,18.883,256,18.883z"/>
<g>
</g>
<g>
</g>
<g>
</g>
<g>
</g>
<g>
</g>
<g>
</g>
<g>
</g>
<g>
</g>
<g>
</g>
<g>
</g>
<g>
</g>
<g>
</g>
<g>
</g>
<g>
</g>
<g>
</g>
</svg>
