<?xml version="1.0" encoding="iso-8859-1"?>
<!-- Generator: Adobe Illustrator 19.0.0, SVG Export Plug-In . SVG Version: 6.00 Build 0)  -->
<svg xmlns="http://www.w3.org/2000/svg" xmlns:xlink="http://www.w3.org/1999/xlink" version="1.1" id="Layer_1" x="0px" y="0px" viewBox="0 0 512 512" style="enable-background:new 0 0 512 512;" xml:space="preserve">
<path style="fill:#FFC733;" d="M213.739,512c-85.402,0-158.538-37.061-158.538-90.317V311.228c0-9.425,7.641-17.067,17.067-17.067  s17.067,7.641,17.067,17.067c0,24.592,40.339,42.67,64.513,48.772c6.418,1.62,11.32,6.804,12.579,13.301  c9.639,49.75,47.737,89.434,97.059,101.098c7.877,1.863,13.361,9.002,13.132,17.092c-0.23,8.091-6.11,14.907-14.079,16.321  C246.874,510.591,230.454,512,213.739,512z"/>
<path style="fill:#FFAF00;" d="M263.486,474.4c-18.455-4.365-35.337-12.653-49.746-23.923V512c16.714,0,33.133-1.409,48.799-4.188  c7.969-1.414,13.849-8.231,14.079-16.321C276.847,483.401,271.363,476.262,263.486,474.4z"/>
<path style="fill:#FFE365;" d="M145.495,393.095c-42.231-10.66-90.293-38.336-90.293-81.868V200.772  c0-9.425,7.641-17.067,17.067-17.067s17.067,7.641,17.067,17.067c0,29.628,53.912,48.018,83.008,52.766  c12.072,1.969,18.202,15.65,11.674,25.97c-13.053,20.626-19.951,44.499-19.951,69.039c0,8.316,0.795,16.647,2.363,24.763  C168.796,385.558,157.608,396.153,145.495,393.095z"/>
<path style="fill:#FFC733;" d="M166.846,287.225c-46.982-7.665-105.379-32.89-111.267-79.991  c-0.598-4.734-0.377-1.809-0.377-116.917c0-9.425,7.641-17.067,17.067-17.067s17.067,7.641,17.067,17.067  c0,73.811,248.81,72.073,248.81,0c0-9.425,7.641-17.067,17.067-17.067c9.425,0,17.067,7.641,17.067,17.067  c0,119.33,0.238,113.078-0.592,118.527c-3.254,22.967-17.046,25.361-25.952,21.407c-16.489-7.323-34.103-11.035-52.353-11.035  c-44.61,0-85.495,22.537-109.365,60.287C180.374,285.266,173.629,288.33,166.846,287.225z"/>
<path style="fill:#FFAF00;" d="M372.278,90.317c0-9.425-7.641-17.067-17.067-17.067s-17.067,7.641-17.067,17.067  c0,36.037-62.202,54.489-124.405,54.707v101.551c22.378-17.533,50.198-27.359,79.644-27.359c18.25,0,35.864,3.713,52.353,11.035  c8.905,3.954,22.696,1.56,25.952-21.407C372.516,203.395,372.278,209.646,372.278,90.317z"/>
<path style="fill:#FFE365;" d="M213.737,180.68c-84.251,0-158.539-36.489-158.539-90.366C55.198,30.358,141.135,0,213.739,0  c85.404,0,158.544,37.063,158.544,90.315C372.283,148.544,289.837,180.68,213.737,180.68z"/>
<path style="fill:#FFC733;" d="M372.283,90.315C372.283,37.063,299.143,0,213.74,0v180.68  C289.839,180.679,372.283,148.543,372.283,90.315z"/>
<path style="fill:#EFEFEF;" d="M293.384,512c-89.848,0-163.452-72.841-163.452-163.453c0-120.898,126.486-198.281,232.531-148.183  c56.517,26.383,94.374,83.41,94.374,148.183C456.838,438.675,383.513,512,293.384,512z"/>
<path style="fill:#C5D8DF;" d="M362.463,200.364c-22.573-10.664-46.071-15.532-69.078-15.45V512  c90.129,0,163.453-73.325,163.453-163.453C456.838,283.774,418.981,226.747,362.463,200.364z"/>
<g>
	<path style="fill:#84DBFF;" d="M268.324,340.547h-41.807c-9.425,0-17.067-7.641-17.067-17.067v-41.807   c0-9.425,7.641-17.067,17.067-17.067h41.807c9.425,0,17.067,7.641,17.067,17.067v41.807   C285.391,332.906,277.749,340.547,268.324,340.547z"/>
	<path style="fill:#84DBFF;" d="M360.252,340.547h-41.806c-9.425,0-17.067-7.641-17.067-17.067v-41.807   c0-9.425,7.641-17.067,17.067-17.067h41.806c9.425,0,17.067,7.641,17.067,17.067v41.807   C377.319,332.906,369.677,340.547,360.252,340.547z"/>
	<path style="fill:#84DBFF;" d="M268.324,432.475h-41.807c-9.425,0-17.067-7.641-17.067-17.067v-41.806   c0-9.425,7.641-17.067,17.067-17.067h41.807c9.425,0,17.067,7.641,17.067,17.067v41.806   C285.391,424.834,277.749,432.475,268.324,432.475z"/>
	<path style="fill:#84DBFF;" d="M360.252,432.475h-41.806c-9.425,0-17.067-7.641-17.067-17.067v-41.806   c0-9.425,7.641-17.067,17.067-17.067h41.806c9.425,0,17.067,7.641,17.067,17.067v41.806   C377.319,424.834,369.677,432.475,360.252,432.475z"/>
</g>
<g>
	<path style="fill:#54C9EB;" d="M360.252,356.535h-20.903v75.94h20.903c9.425,0,17.067-7.641,17.067-17.067v-41.807   C377.319,364.177,369.677,356.535,360.252,356.535z"/>
	<path style="fill:#54C9EB;" d="M360.252,264.607h-20.903v75.94h20.903c9.425,0,17.067-7.641,17.067-17.067v-41.807   C377.319,272.249,369.677,264.607,360.252,264.607z"/>
	<path style="fill:#54C9EB;" d="M268.324,356.535h-20.903v75.94h20.903c9.425,0,17.067-7.641,17.067-17.067v-41.807   C285.391,364.177,277.749,356.535,268.324,356.535z"/>
	<path style="fill:#54C9EB;" d="M268.324,264.607h-20.903v75.94h20.903c9.425,0,17.067-7.641,17.067-17.067v-41.807   C285.391,272.249,277.749,264.607,268.324,264.607z"/>
</g>
<g>
</g>
<g>
</g>
<g>
</g>
<g>
</g>
<g>
</g>
<g>
</g>
<g>
</g>
<g>
</g>
<g>
</g>
<g>
</g>
<g>
</g>
<g>
</g>
<g>
</g>
<g>
</g>
<g>
</g>
</svg>
