<?xml version="1.0" encoding="iso-8859-1"?>
<!-- Generator: Adobe Illustrator 19.0.0, SVG Export Plug-In . SVG Version: 6.00 Build 0)  -->
<svg xmlns="http://www.w3.org/2000/svg" xmlns:xlink="http://www.w3.org/1999/xlink" version="1.1" id="Layer_1" x="0px" y="0px" viewBox="0 0 512 512" style="enable-background:new 0 0 512 512;" xml:space="preserve">
<path style="fill:#FFE365;" d="M459.399,389.366H336.766c-9.425,0-17.066-7.641-17.066-17.066V237.213l-80.432-80.432h-64.046  c-9.425,0-17.066-7.641-17.066-17.066V17.081c0-9.425,7.641-17.066,17.066-17.066H368.97c4.527,0,8.868,1.798,12.067,4.999  l90.428,90.43c3.2,3.2,4.999,7.541,4.999,12.067v264.789C476.465,381.725,468.824,389.366,459.399,389.366z"/>
<path style="fill:#FFAF00;" d="M471.466,95.443l-90.428-90.43c-3.201-3.2-7.541-4.999-12.067-4.999h-51.66v234.809l2.39,2.39V372.3  c0,9.425,7.641,17.066,17.066,17.066H459.4c9.425,0,17.066-7.641,17.066-17.066V107.51  C476.465,102.984,474.667,98.643,471.466,95.443z"/>
<path style="fill:#FFE365;" d="M336.766,512H52.588c-9.425,0-17.066-7.641-17.066-17.066V139.714  c0-9.425,7.641-17.066,17.066-17.066h193.747c4.527,0,8.868,1.798,12.067,4.999l90.43,90.43c3.2,3.201,4.999,7.541,4.999,12.067  v264.789C353.833,504.359,346.191,512,336.766,512z"/>
<g>
	<path style="fill:#FFC733;" d="M348.833,218.077l-90.43-90.43c-3.2-3.201-7.541-4.999-12.067-4.999h-51.658V512h142.089   c9.425,0,17.066-7.641,17.066-17.066V230.145C353.833,225.618,352.035,221.277,348.833,218.077z"/>
	<path style="fill:#FFC733;" d="M257.732,331.883H131.621c-9.425,0-17.066-7.641-17.066-17.066s7.641-17.066,17.066-17.066h126.112   c9.425,0,17.066,7.641,17.066,17.066S267.158,331.883,257.732,331.883z"/>
	<path style="fill:#FFC733;" d="M257.732,396.668H131.621c-9.425,0-17.066-7.641-17.066-17.066c0-9.425,7.641-17.066,17.066-17.066   h126.112c9.425,0,17.066,7.641,17.066,17.066C274.799,389.027,267.158,396.668,257.732,396.668z"/>
	<path style="fill:#FFC733;" d="M257.732,461.454H131.621c-9.425,0-17.066-7.641-17.066-17.066c0-9.425,7.641-17.066,17.066-17.066   h126.112c9.425,0,17.066,7.641,17.066,17.066C274.799,453.813,267.158,461.454,257.732,461.454z"/>
	<path style="fill:#FFC733;" d="M336.766,247.206h-90.427c-9.425,0-17.066-7.641-17.066-17.066v-90.427   c0-15.173,18.409-22.791,29.133-12.067l90.427,90.427C359.542,228.78,351.961,247.206,336.766,247.206z"/>
</g>
<path style="fill:#FF9000;" d="M459.399,124.572h-90.426c-9.425,0-17.066-7.641-17.066-17.066V17.079  c0-15.203,18.435-22.771,29.133-12.067l90.427,90.427C482.174,106.146,474.593,124.572,459.399,124.572z"/>
<g>
	<path style="fill:#FFAF00;" d="M336.766,247.206h-90.427c-9.425,0-17.066-7.641-17.066-17.066v-90.427   c0-15.173,18.409-22.791,29.133-12.067l90.427,90.427C359.542,228.78,351.961,247.206,336.766,247.206z"/>
	<path style="fill:#FFAF00;" d="M257.732,427.322h-63.055v34.133h63.055c9.425,0,17.066-7.641,17.066-17.066   C274.799,434.963,267.158,427.322,257.732,427.322z"/>
	<path style="fill:#FFAF00;" d="M257.732,362.536h-63.055v34.133h63.055c9.425,0,17.066-7.641,17.066-17.066   C274.799,370.177,267.158,362.536,257.732,362.536z"/>
	<path style="fill:#FFAF00;" d="M257.732,297.75h-63.055v34.133h63.055c9.425,0,17.066-7.641,17.066-17.066   S267.158,297.75,257.732,297.75z"/>
</g>
<g>
</g>
<g>
</g>
<g>
</g>
<g>
</g>
<g>
</g>
<g>
</g>
<g>
</g>
<g>
</g>
<g>
</g>
<g>
</g>
<g>
</g>
<g>
</g>
<g>
</g>
<g>
</g>
<g>
</g>
</svg>
