<?xml version="1.0" encoding="iso-8859-1"?>
<!-- Generator: Adobe Illustrator 19.0.0, SVG Export Plug-In . SVG Version: 6.00 Build 0)  -->
<svg xmlns="http://www.w3.org/2000/svg" xmlns:xlink="http://www.w3.org/1999/xlink" version="1.1" id="Layer_1" x="0px" y="0px" viewBox="0 0 512 512" style="enable-background:new 0 0 512 512;" xml:space="preserve">
<path style="fill:#FFE365;" d="M256,512C114.512,512,0,397.503,0,256C0,114.512,114.497,0,256,0c141.488,0,256,114.497,256,256  C512,397.488,397.503,512,256,512z"/>
<g>
	<path style="fill:#FFC733;" d="M256,0v512c141.503,0,256-114.512,256-256C512,114.497,397.488,0,256,0z"/>
	<path style="fill:#FFC733;" d="M282.41,244.123c-15.874,12.411-16.162,21.071-16.162,36.078c0,5.484-2.887,11.834-17.03,11.834   c-11.833,0-15.874-4.33-15.874-19.338c0-24.822,10.968-36.657,19.339-43.873c9.524-8.082,25.688-17.029,25.688-32.614   c0-13.278-11.545-19.627-25.977-19.627c-29.44,0-23.09,22.224-38.676,22.224c-7.793,0-17.318-5.195-17.318-16.452   c0-15.585,17.896-38.676,56.86-38.676c36.945,0,61.478,20.494,61.478,47.624S290.204,238.061,282.41,244.123z M271.731,334.174   c0,11.833-9.813,22.224-22.224,22.224s-21.935-10.391-21.935-22.224c0-12.123,9.813-22.224,21.935-22.224   C261.629,311.95,271.731,322.051,271.731,334.174z"/>
</g>
<g>
	<path style="fill:#FFAF00;" d="M271.731,334.174c0-9.871-6.699-18.399-15.731-21.228v42.46   C265.172,352.547,271.731,343.847,271.731,334.174z"/>
	<path style="fill:#FFAF00;" d="M256,143.726v32.998c12.7,0.991,22.37,7.335,22.37,19.486c0,13.89-12.835,22.506-22.37,29.938   v65.272c8.334-1.72,10.248-6.756,10.248-11.22c0-15.007,0.288-23.667,16.162-36.078c7.794-6.061,32.327-25.688,32.327-52.819   C314.737,164.85,291.409,144.717,256,143.726z"/>
</g>
<g>
</g>
<g>
</g>
<g>
</g>
<g>
</g>
<g>
</g>
<g>
</g>
<g>
</g>
<g>
</g>
<g>
</g>
<g>
</g>
<g>
</g>
<g>
</g>
<g>
</g>
<g>
</g>
<g>
</g>
</svg>
