<?xml version="1.0" encoding="iso-8859-1"?>
<!-- Generator: Adobe Illustrator 19.0.0, SVG Export Plug-In . SVG Version: 6.00 Build 0)  -->
<svg xmlns="http://www.w3.org/2000/svg" xmlns:xlink="http://www.w3.org/1999/xlink" version="1.1" id="Layer_1" x="0px" y="0px" viewBox="0 0 512 512" style="enable-background:new 0 0 512 512;" xml:space="preserve">
<path style="fill:#71DE56;" d="M256,512C114.511,512,0,397.503,0,256C0,114.511,114.497,0,256,0c141.488,0,256,114.497,256,256  C512,397.488,397.503,512,256,512z"/>
<path style="fill:#2FBD66;" d="M256,0v512c141.503,0,256-114.512,256-256C512,114.497,397.488,0,256,0z"/>
<path style="fill:#B7E183;" d="M242.544,360.298L131.696,218.209c-8.711-11.166-0.757-27.565,13.456-27.565h221.697  c14.214,0,22.165,16.4,13.456,27.565L269.457,360.298C262.626,369.052,249.378,369.059,242.544,360.298z"/>
<path style="fill:#71DE56;" d="M366.849,190.645H256v176.22c5.021,0,10.041-2.19,13.457-6.567l110.849-142.089  C389.014,207.045,381.063,190.645,366.849,190.645z"/>
<g>
</g>
<g>
</g>
<g>
</g>
<g>
</g>
<g>
</g>
<g>
</g>
<g>
</g>
<g>
</g>
<g>
</g>
<g>
</g>
<g>
</g>
<g>
</g>
<g>
</g>
<g>
</g>
<g>
</g>
</svg>
