<?xml version="1.0" encoding="iso-8859-1"?>
<!-- Generator: Adobe Illustrator 19.0.0, SVG Export Plug-In . SVG Version: 6.00 Build 0)  -->
<svg xmlns="http://www.w3.org/2000/svg" xmlns:xlink="http://www.w3.org/1999/xlink" version="1.1" id="Layer_1" x="0px" y="0px" viewBox="0 0 512.001 512.001" style="enable-background:new 0 0 512.001 512.001;" xml:space="preserve">
<path style="fill:#EFEFEF;" d="M256.493,326.741L91.647,161.896l-27.097-3.422c-5.502-0.694-10.415-3.793-13.412-8.458L2.988,75.079  c-4.762-7.413-3.716-17.142,2.515-23.371L51.726,5.486c6.229-6.229,15.959-7.275,23.371-2.514l74.936,48.148  c4.665,2.998,7.764,7.91,8.458,13.413l3.42,27.098l164.847,164.845c7.31,7.309,7.315,19.176,0,26.49l-43.774,43.774  C275.671,334.057,263.809,334.058,256.493,326.741z"/>
<path style="fill:#C5D8DF;" d="M150.032,51.121L75.097,2.974c-7.41-4.762-17.141-3.716-23.371,2.514l-23.12,23.119l276.257,276.257  l21.895-21.895c7.315-7.314,7.309-19.181,0-26.49L161.911,91.631l-3.42-27.098C157.795,59.031,154.698,54.119,150.032,51.121z"/>
<path style="fill:#FF7976;" d="M372.809,499.189l-105.311-105.31c-7.31-7.309-7.315-19.176,0-26.49l99.908-99.907  c7.315-7.315,19.176-7.315,26.49,0l105.31,105.31c17.041,17.041,17.041,44.77,0,61.812l-64.586,64.586  C417.539,516.271,389.891,516.272,372.809,499.189z"/>
<path style="fill:#FF5752;" d="M367.405,267.482l-49.962,49.962l149.46,149.459l32.301-32.301c17.041-17.041,17.041-44.77,0-61.812  l-105.31-105.31C386.581,260.166,374.721,260.166,367.405,267.482z"/>
<path style="fill:#FFE365;" d="M383.532,447.672l51.302,51.302l64.157-64.157l-51.302-51.302  c-17.689-17.689-46.468-17.688-64.157-0.001c0,0,0,0,0,0.001C365.844,401.204,365.844,429.985,383.532,447.672z"/>
<path style="fill:#FF5752;" d="M249.57,411.805l-39.07-39.07c-7.31-7.309-7.315-19.176,0-26.49l135.761-135.76  c7.314-7.315,19.175-7.314,26.49,0l39.07,39.07c7.31,7.309,7.315,19.176,0,26.49L276.06,411.805  C268.746,419.119,256.885,419.12,249.57,411.805z"/>
<path style="fill:#FFC733;" d="M447.689,383.515c-17.689-17.689-46.468-17.688-64.157-0.001c0,0,0,0,0,0.001  c-0.003,0.003-0.005,0.005-0.008,0.008l83.38,83.38l32.086-32.086L447.689,383.515z"/>
<path style="fill:#DB3A3C;" d="M346.261,210.484l-67.888,67.888l65.56,65.56l67.888-67.888c7.315-7.314,7.31-19.181,0-26.49  l-39.07-39.07C365.437,203.17,353.575,203.169,346.261,210.484z"/>
<g>
</g>
<g>
</g>
<g>
</g>
<g>
</g>
<g>
</g>
<g>
</g>
<g>
</g>
<g>
</g>
<g>
</g>
<g>
</g>
<g>
</g>
<g>
</g>
<g>
</g>
<g>
</g>
<g>
</g>
</svg>
