<?xml version="1.0" encoding="iso-8859-1"?>
<!-- Generator: Adobe Illustrator 19.0.0, SVG Export Plug-In . SVG Version: 6.00 Build 0)  -->
<svg xmlns="http://www.w3.org/2000/svg" xmlns:xlink="http://www.w3.org/1999/xlink" version="1.1" id="Layer_1" x="0px" y="0px" viewBox="0 0 512.001 512.001" style="enable-background:new 0 0 512.001 512.001;" xml:space="preserve">
<path style="fill:#1C3D66;" d="M428.485,506.376l-216.5-216.499c-7.494-7.493-7.497-19.657,0-27.153l50.74-50.739  c7.497-7.498,19.654-7.498,27.153,0l216.499,216.499c7.498,7.497,7.498,19.654,0,27.153l-50.739,50.74  C448.147,513.869,435.981,513.874,428.485,506.376z"/>
<path style="fill:#163457;" d="M262.725,211.985l-25.371,25.37l243.652,243.652l25.37-25.371c7.498-7.498,7.498-19.654,0-27.153  L289.876,211.984C282.38,204.487,270.222,204.487,262.725,211.985z"/>
<g>
	<path style="fill:#FFE365;" d="M136.815,163.972l-57.633-57.635c-7.497-7.497-7.497-19.654,0-27.153   c7.497-7.498,19.653-7.5,27.153,0l57.632,57.633c7.497,7.497,7.497,19.654,0,27.153   C156.471,171.468,144.315,171.472,136.815,163.972z"/>
	<path style="fill:#FFE365;" d="M100.705,289.549H19.2c-10.604,0-19.2-8.596-19.2-19.2s8.596-19.2,19.2-19.2h81.505   c10.604,0,19.2,8.596,19.2,19.2S111.309,289.549,100.705,289.549z"/>
</g>
<path style="fill:#EFEFEF;" d="M289.876,211.985l-54.118-54.118c-7.492-7.493-19.656-7.498-27.153,0l-50.739,50.74  c-7.498,7.497-7.498,19.654,0,27.153l54.118,54.117L289.876,211.985z"/>
<path style="fill:#C5D8DF;" d="M235.759,157.866c-7.492-7.493-19.656-7.498-27.153,0l-25.37,25.37l67.694,67.694l38.947-38.947  L235.759,157.866z"/>
<g>
	<path style="fill:#FFC733;" d="M79.185,79.185l84.786,84.786c7.497-7.498,7.496-19.654-0.001-27.151l-57.633-57.635   C98.836,71.685,86.683,71.688,79.185,79.185z"/>
	<path style="fill:#FFC733;" d="M270.346,119.908c-10.604,0-19.2-8.596-19.2-19.2V19.203c0-10.604,8.596-19.2,19.2-19.2   s19.2,8.596,19.2,19.2v81.505C289.546,111.312,280.95,119.908,270.346,119.908z"/>
</g>
<g>
</g>
<g>
</g>
<g>
</g>
<g>
</g>
<g>
</g>
<g>
</g>
<g>
</g>
<g>
</g>
<g>
</g>
<g>
</g>
<g>
</g>
<g>
</g>
<g>
</g>
<g>
</g>
<g>
</g>
</svg>
