<?xml version="1.0" encoding="iso-8859-1"?>
<!-- Generator: Adobe Illustrator 19.0.0, SVG Export Plug-In . SVG Version: 6.00 Build 0)  -->
<svg xmlns="http://www.w3.org/2000/svg" xmlns:xlink="http://www.w3.org/1999/xlink" version="1.1" id="Layer_1" x="0px" y="0px" viewBox="0 0 512 512" style="enable-background:new 0 0 512 512;" xml:space="preserve">
<path style="fill:#1C3D66;" d="M310.3,485.911L256,374.305l-54.3,111.606c-4.035,8.291-14.027,11.743-22.318,7.709  c-8.291-4.034-11.743-14.027-7.709-22.318l69.313-142.463c2.795-5.746,8.624-9.392,15.013-9.392s12.218,3.645,15.013,9.392  l69.313,142.463c4.035,8.291,0.582,18.284-7.709,22.318C324.331,497.653,314.336,494.207,310.3,485.911z"/>
<path style="fill:#163457;" d="M340.326,471.302L271.014,328.84c-2.795-5.746-8.624-9.392-15.013-9.392v54.857l54.3,111.606  c4.036,8.297,14.031,11.742,22.318,7.709C340.909,489.585,344.36,479.594,340.326,471.302z"/>
<path style="fill:#EFEFEF;" d="M467.478,352.839H44.522c-9.22,0-16.696-7.475-16.696-16.696V71.363  c0-9.22,7.475-16.696,16.696-16.696h422.957c9.22,0,16.696,7.475,16.696,16.696v264.781  C484.174,345.364,476.699,352.839,467.478,352.839z"/>
<path style="fill:#C5D8DF;" d="M467.478,54.667H256v298.172h211.478c9.22,0,16.696-7.475,16.696-16.696V71.363  C484.174,62.142,476.699,54.667,467.478,54.667z"/>
<path style="fill:#1C3D66;" d="M495.304,54.667H272.696V33.389c0-9.22-7.475-16.696-16.696-16.696s-16.696,7.475-16.696,16.696  v21.278H16.696C7.475,54.667,0,62.142,0,71.363s7.475,16.696,16.696,16.696h478.609c9.22,0,16.696-7.475,16.696-16.696  S504.525,54.667,495.304,54.667z"/>
<path style="fill:#163457;" d="M495.304,54.667H272.696V33.389c0-9.22-7.475-16.696-16.696-16.696v71.365h239.304  c9.22,0,16.696-7.475,16.696-16.696S504.525,54.667,495.304,54.667z"/>
<g>
</g>
<g>
</g>
<g>
</g>
<g>
</g>
<g>
</g>
<g>
</g>
<g>
</g>
<g>
</g>
<g>
</g>
<g>
</g>
<g>
</g>
<g>
</g>
<g>
</g>
<g>
</g>
<g>
</g>
</svg>
