<?xml version="1.0" encoding="iso-8859-1"?>
<!-- Generator: Adobe Illustrator 19.0.0, SVG Export Plug-In . SVG Version: 6.00 Build 0)  -->
<svg xmlns="http://www.w3.org/2000/svg" xmlns:xlink="http://www.w3.org/1999/xlink" version="1.1" id="Layer_1" x="0px" y="0px" viewBox="0 0 512 512" style="enable-background:new 0 0 512 512;" xml:space="preserve">
<path style="fill:#1C3D66;" d="M493.268,512H18.732C8.387,512,0,503.613,0,493.268V18.732C0,8.387,8.387,0,18.732,0h474.537  C503.613,0,512,8.387,512,18.732v474.537C512,503.613,503.613,512,493.268,512z"/>
<path style="fill:#163457;" d="M493.268,0H256v512h237.268c10.345,0,18.732-8.387,18.732-18.732V18.732  C512,8.387,503.613,0,493.268,0z"/>
<path style="fill:#B7E183;" d="M374.013,137.039H137.986c-10.345,0-18.732,8.387-18.732,18.732s8.387,18.732,18.732,18.732h99.278  v181.726c0,10.345,8.387,18.732,18.732,18.732s18.732-8.387,18.732-18.732V174.502h99.287c10.345,0,18.732-8.387,18.732-18.732  S384.36,137.039,374.013,137.039z"/>
<path style="fill:#71DE56;" d="M374.013,137.039H256V374.96c10.344-0.003,18.728-8.388,18.728-18.732V174.502h99.287  c10.345,0,18.732-8.387,18.732-18.732S384.36,137.039,374.013,137.039z"/>
<g>
</g>
<g>
</g>
<g>
</g>
<g>
</g>
<g>
</g>
<g>
</g>
<g>
</g>
<g>
</g>
<g>
</g>
<g>
</g>
<g>
</g>
<g>
</g>
<g>
</g>
<g>
</g>
<g>
</g>
</svg>
