<?xml version="1.0" encoding="iso-8859-1"?>
<!-- Generator: Adobe Illustrator 19.0.0, SVG Export Plug-In . SVG Version: 6.00 Build 0)  -->
<svg xmlns="http://www.w3.org/2000/svg" xmlns:xlink="http://www.w3.org/1999/xlink" version="1.1" id="Layer_1" x="0px" y="0px" viewBox="0 0 512.001 512.001" style="enable-background:new 0 0 512.001 512.001;" xml:space="preserve">
<path style="fill:#84DBFF;" d="M181.387,318.359L77.206,214.178c-6.385-6.384-6.126-16.818,0.557-22.88l81.076-73.541  c2.908-2.637,6.692-4.098,10.618-4.098h132.309c24.867,0,45.096,20.236,45.096,45.107c0,18.052-10.663,33.661-26.02,40.86  l37.933,15.189l81.813-71.083c18.903-16.933,48.36-13.806,63.275,6.749c12.61,17.377,10.342,41.575-5.267,56.318L388.709,311.864  c-3.558,3.401-8.495,4.948-13.359,4.192l-128.387-20.04l-46.95,25.104C193.868,324.407,186.304,323.278,181.387,318.359z"/>
<g>
	<path style="fill:#54C9EB;" d="M503.863,150.482c-14.914-20.554-44.371-23.682-63.275-6.749l-81.813,71.083l-37.933-15.189   c15.357-7.199,26.02-22.808,26.02-40.86c0-24.872-20.23-45.107-45.096-45.107h-24.132L127.161,264.132l54.227,54.227   c4.918,4.918,12.48,6.047,18.626,2.761l46.95-25.104l128.387,20.04c4.864,0.755,9.801-0.791,13.359-4.192l109.888-105.066   C514.206,192.057,516.474,167.859,503.863,150.482z"/>
	<path style="fill:#54C9EB;" d="M147.579,393.712L4.629,250.764c-6.172-6.172-6.172-16.177,0-22.349l54.582-54.582   c6.171-6.172,16.177-6.172,22.349,0l142.95,142.949c6.168,6.169,6.171,16.178,0,22.349l-54.582,54.582   C163.757,399.884,153.75,399.885,147.579,393.712z"/>
</g>
<path style="fill:#1BB3F9;" d="M149.51,241.783l-76.931,76.931l74.998,74.999c6.172,6.173,16.178,6.172,22.349,0l54.582-54.582  c6.171-6.171,6.168-16.181,0-22.349L149.51,241.783z"/>
<g>
</g>
<g>
</g>
<g>
</g>
<g>
</g>
<g>
</g>
<g>
</g>
<g>
</g>
<g>
</g>
<g>
</g>
<g>
</g>
<g>
</g>
<g>
</g>
<g>
</g>
<g>
</g>
<g>
</g>
</svg>
