<?xml version="1.0" encoding="iso-8859-1"?>
<!-- Generator: Adobe Illustrator 19.0.0, SVG Export Plug-In . SVG Version: 6.00 Build 0)  -->
<svg xmlns="http://www.w3.org/2000/svg" xmlns:xlink="http://www.w3.org/1999/xlink" version="1.1" id="Layer_1" x="0px" y="0px" viewBox="0 0 512 512" style="enable-background:new 0 0 512 512;" xml:space="preserve">
<path style="fill:#84DBFF;" d="M256,512C114.511,512,0,397.503,0,256C0,114.511,114.497,0,256,0c141.49,0,256,114.497,256,256  C512,397.49,397.503,512,256,512z"/>
<path style="fill:#54C9EB;" d="M256,0v512c141.503,0,256-114.51,256-256C512,114.497,397.49,0,256,0z"/>
<path style="fill:#EFEFEF;" d="M240.373,396.774L142.84,174.452c-6.384-14.556,8.954-29.206,23.202-22.151l89.961,44.539  l89.961-44.539c14.237-7.053,29.589,7.589,23.202,22.151l-97.533,222.322C265.663,410.373,246.327,410.344,240.373,396.774z"/>
<path style="fill:#C5D8DF;" d="M345.962,152.3l-89.961,44.539H256v210.124c6.323,0.002,12.648-3.391,15.63-10.189l97.533-222.322  C375.55,159.888,360.199,145.248,345.962,152.3z"/>
<g>
</g>
<g>
</g>
<g>
</g>
<g>
</g>
<g>
</g>
<g>
</g>
<g>
</g>
<g>
</g>
<g>
</g>
<g>
</g>
<g>
</g>
<g>
</g>
<g>
</g>
<g>
</g>
<g>
</g>
</svg>
