<?xml version="1.0" encoding="iso-8859-1"?>
<!-- Generator: Adobe Illustrator 19.0.0, SVG Export Plug-In . SVG Version: 6.00 Build 0)  -->
<svg xmlns="http://www.w3.org/2000/svg" xmlns:xlink="http://www.w3.org/1999/xlink" version="1.1" id="Layer_1" x="0px" y="0px" viewBox="0 0 512 512" style="enable-background:new 0 0 512 512;" xml:space="preserve">
<path style="fill:#FFAF00;" d="M464.933,272.34h-86.032c-9.024,0-16.34-7.316-16.34-16.34v-86.031c0-9.024,7.316-16.34,16.34-16.34  h86.032c9.024,0,16.34,7.316,16.34,16.34V256C481.274,265.024,473.957,272.34,464.933,272.34z"/>
<path style="fill:#FFC733;" d="M133.099,272.34H47.166c-9.024,0-16.34-7.316-16.34-16.34V133.099c0-9.024,7.316-16.34,16.34-16.34  h85.933c9.024,0,16.34,7.316,16.34,16.34v122.902C149.439,265.024,142.123,272.34,133.099,272.34z"/>
<path style="fill:#EFEFEF;" d="M378.902,272.34H133.099c-9.024,0-16.34-7.316-16.34-16.34V59.357c0-9.024,7.316-16.34,16.34-16.34  h245.804c9.024,0,16.34,7.316,16.34,16.34V256C395.243,265.024,387.927,272.34,378.902,272.34z"/>
<path style="fill:#C5D8DF;" d="M378.902,43.017H256.001V272.34h122.901c9.024,0,16.34-7.316,16.34-16.34V59.357  C395.243,50.333,387.927,43.017,378.902,43.017z"/>
<path style="fill:#FFE365;" d="M476.904,468.984H35.096c-8.423,0-15.467-6.403-16.266-14.789L0.075,257.551  c-0.915-9.592,6.637-17.892,16.266-17.892h479.317c9.635,0,17.181,8.306,16.266,17.892l-18.754,196.643  C492.371,462.58,485.327,468.984,476.904,468.984z"/>
<path style="fill:#FFC733;" d="M495.659,239.66H256v229.324h220.904c8.423,0,15.467-6.403,16.266-14.789l18.754-196.643  C512.84,247.966,505.295,239.66,495.659,239.66z"/>
<g>
</g>
<g>
</g>
<g>
</g>
<g>
</g>
<g>
</g>
<g>
</g>
<g>
</g>
<g>
</g>
<g>
</g>
<g>
</g>
<g>
</g>
<g>
</g>
<g>
</g>
<g>
</g>
<g>
</g>
</svg>
