<?xml version="1.0" encoding="iso-8859-1"?>
<!-- Generator: Adobe Illustrator 19.0.0, SVG Export Plug-In . SVG Version: 6.00 Build 0)  -->
<svg xmlns="http://www.w3.org/2000/svg" xmlns:xlink="http://www.w3.org/1999/xlink" version="1.1" id="Layer_1" x="0px" y="0px" viewBox="0 0 512 512" style="enable-background:new 0 0 512 512;" xml:space="preserve">
<path style="fill:#1BB3F9;" d="M400.517,326.452l-87.226-48.114c-9.863-5.44-11.612-18.915-3.466-26.692  c22.02-21.03,24.278-43.311,24.288-66.772c-0.102,0.001-0.205,0.001-0.307,0.001c-37.004,0-72.354-12.724-100.854-36.339  c-15.03,17.74-33.923,32.113-55.018,41.787c0.078,17.286,2.391,40.471,24.246,61.316c8.157,7.781,6.403,21.259-3.46,26.7  l-87.237,48.114c-10.174,5.605-22.844-0.644-24.572-12.137c-2.422-16.111-1.889-12.412-1.889-135.223  C85.053,85.547,159.89,10.01,252.59,8.195c0.117-0.002,0.236-0.002,0.351-0.003C340.273,4.1,426.978,78,426.978,179.137  c0,120.949,0.583,118.708-1.888,135.175C423.357,325.867,410.634,332.029,400.517,326.452z"/>
<path style="fill:#008BE5;" d="M426.978,179.137C426.978,79.181,342.286,5.84,256,8.091v156.346  c23.586,13.369,50.235,20.437,77.805,20.437c0.103,0,0.206,0,0.307-0.001c-0.011,23.461-2.268,45.743-24.288,66.772  c-8.146,7.778-6.397,21.252,3.466,26.692l87.226,48.115c10.117,5.576,22.84-0.585,24.574-12.141  C427.563,297.845,426.978,300.086,426.978,179.137z"/>
<path style="fill:#54C9EB;" d="M495.294,503.97H16.705c-11.326,0-19.359-11.057-15.889-21.819l50.052-155.219  c1.306-4.046,4.105-7.443,7.825-9.495l123.9-68.337c6.38-3.522,14.311-2.492,19.587,2.539  c30.271,28.876,77.775,28.617,107.614,0.026c5.322-5.101,13.29-6.059,19.625-2.565l123.889,68.337  c3.722,2.053,6.52,5.449,7.826,9.495l50.052,155.219C514.659,492.93,506.602,503.97,495.294,503.97z"/>
<path style="fill:#1BB3F9;" d="M511.184,482.152l-50.052-155.219c-1.306-4.046-4.105-7.443-7.826-9.495L329.418,249.1  c-6.335-3.494-14.303-2.535-19.625,2.565C294.835,265.997,275.439,273.206,256,273.2v230.771h239.294  C506.602,503.97,514.659,492.93,511.184,482.152z"/>
<path style="fill:#84DBFF;" d="M179.133,275.8c-35.191-33.566-34.761-71.988-34.531-92.629c0.036-3.17-1.071-15.253,10.935-19.691  c24.922-9.217,46.662-26.613,61.216-48.985c5.902-9.074,18.767-10.21,26.169-2.319c27.001,28.774,66.536,43.141,105.757,38.422  c9.87-1.206,18.688,6.527,18.688,16.576c0,25.212,4.673,73.492-34.858,108.969C289.727,316.751,222.174,316.858,179.133,275.8z"/>
<path style="fill:#54C9EB;" d="M367.367,167.172c0-10.048-8.818-17.782-18.688-16.576c-33.285,4.005-66.794-5.743-92.679-26.371  v182.369c27.589,0.009,55.139-10.168,76.509-30.453C372.041,240.664,367.367,192.384,367.367,167.172z"/>
<g>
</g>
<g>
</g>
<g>
</g>
<g>
</g>
<g>
</g>
<g>
</g>
<g>
</g>
<g>
</g>
<g>
</g>
<g>
</g>
<g>
</g>
<g>
</g>
<g>
</g>
<g>
</g>
<g>
</g>
</svg>
