<?xml version="1.0" encoding="iso-8859-1"?>
<!-- Generator: Adobe Illustrator 19.0.0, SVG Export Plug-In . SVG Version: 6.00 Build 0)  -->
<svg xmlns="http://www.w3.org/2000/svg" xmlns:xlink="http://www.w3.org/1999/xlink" version="1.1" id="Layer_1" x="0px" y="0px" viewBox="0 0 512 512" style="enable-background:new 0 0 512 512;" xml:space="preserve">
<path style="fill:#EFEFEF;" d="M420.707,512H91.293c-9.22,0-16.696-7.475-16.696-16.696V60.745c0-9.22,7.475-16.696,16.696-16.696  h329.414c9.22,0,16.696,7.475,16.696,16.696v434.559C437.403,504.525,429.927,512,420.707,512z"/>
<path style="fill:#C5D8DF;" d="M420.707,44.05H256V512h164.707c9.22,0,16.696-7.475,16.696-16.696V60.745  C437.403,51.525,429.927,44.05,420.707,44.05z"/>
<g>
	<path style="fill:#FF7976;" d="M322.148,196.382H189.852c-9.22,0-16.696-7.475-16.696-16.696s7.475-16.696,16.696-16.696h132.296   c9.22,0,16.696,7.475,16.696,16.696S331.369,196.382,322.148,196.382z"/>
	<path style="fill:#FF7976;" d="M322.148,311.416H189.852c-9.22,0-16.696-7.475-16.696-16.696c0-9.22,7.475-16.696,16.696-16.696   h132.296c9.22,0,16.696,7.475,16.696,16.696C338.844,303.941,331.369,311.416,322.148,311.416z"/>
	<path style="fill:#FF7976;" d="M322.148,426.451H189.852c-9.22,0-16.696-7.475-16.696-16.696c0-9.22,7.475-16.696,16.696-16.696   h132.296c9.22,0,16.696,7.475,16.696,16.696C338.844,418.976,331.369,426.451,322.148,426.451z"/>
</g>
<g>
	<path style="fill:#1C3D66;" d="M142.191,77.441c-9.22,0-16.696-7.475-16.696-16.696v-44.05c0-9.22,7.475-16.696,16.696-16.696   c9.22,0,16.696,7.475,16.696,16.696v44.05C158.887,69.966,151.412,77.441,142.191,77.441z"/>
	<path style="fill:#1C3D66;" d="M218.064,77.441c-9.22,0-16.696-7.475-16.696-16.696v-44.05c0-9.22,7.475-16.696,16.696-16.696   s16.696,7.475,16.696,16.696v44.05C234.76,69.966,227.285,77.441,218.064,77.441z"/>
</g>
<g>
	<path style="fill:#FF5752;" d="M322.148,162.991H256v33.391h66.148c9.22,0,16.696-7.475,16.696-16.696   S331.369,162.991,322.148,162.991z"/>
	<path style="fill:#FF5752;" d="M322.148,278.025H256v33.391h66.148c9.22,0,16.696-7.475,16.696-16.696   C338.844,285.5,331.369,278.025,322.148,278.025z"/>
	<path style="fill:#FF5752;" d="M322.148,393.06H256v33.391h66.148c9.22,0,16.696-7.475,16.696-16.696   C338.844,400.535,331.369,393.06,322.148,393.06z"/>
</g>
<g>
	<path style="fill:#163457;" d="M293.936,77.441c-9.22,0-16.696-7.475-16.696-16.696v-44.05C277.24,7.475,284.715,0,293.936,0   s16.696,7.475,16.696,16.696v44.05C310.632,69.966,303.157,77.441,293.936,77.441z"/>
	<path style="fill:#163457;" d="M369.809,77.441c-9.22,0-16.696-7.475-16.696-16.696v-44.05c0-9.22,7.475-16.696,16.696-16.696   c9.22,0,16.696,7.475,16.696,16.696v44.05C386.504,69.966,379.029,77.441,369.809,77.441z"/>
</g>
<g>
</g>
<g>
</g>
<g>
</g>
<g>
</g>
<g>
</g>
<g>
</g>
<g>
</g>
<g>
</g>
<g>
</g>
<g>
</g>
<g>
</g>
<g>
</g>
<g>
</g>
<g>
</g>
<g>
</g>
</svg>
