<?xml version="1.0" encoding="iso-8859-1"?>
<!-- Generator: Adobe Illustrator 19.0.0, SVG Export Plug-In . SVG Version: 6.00 Build 0)  -->
<svg xmlns="http://www.w3.org/2000/svg" xmlns:xlink="http://www.w3.org/1999/xlink" version="1.1" id="Layer_1" x="0px" y="0px" viewBox="0 0 512 512" style="enable-background:new 0 0 512 512;" xml:space="preserve">
<path style="fill:#84DBFF;" d="M369.684,340.835c-25.029,0-49.632-6.585-71.15-19.042c-2.425-1.404-4.438-3.42-5.84-5.845  l-63.183-109.428c-1.404-2.432-2.144-5.191-2.144-8c0-78.473,63.843-142.316,142.316-142.316  C448.157,56.204,512,120.047,512,198.519S448.157,340.835,369.684,340.835z"/>
<path style="fill:#FFE365;" d="M177.734,328.204H16c-8.836,0-16-7.164-16-16V84.835c0-8.836,7.164-16,16-16h227.369  c8.836,0,16,7.164,16,16v113.684c0,2.809-0.739,5.568-2.143,8l-65.633,113.684C188.734,325.154,183.451,328.204,177.734,328.204z"/>
<path style="fill:#FFC733;" d="M243.369,68.835H129.684v259.369h48.051c5.716,0,10.998-3.05,13.857-8l65.633-113.684  c1.404-2.432,2.143-5.191,2.143-8V84.835C259.369,75.999,252.205,68.835,243.369,68.835z"/>
<path style="fill:#FF7976;" d="M382.669,455.796H104.067c-12.31,0-20.001-13.358-13.856-24l139.3-241.276  c6.157-10.661,21.568-10.643,27.713-0.001c76.102,131.804,47.534,82.321,139.301,241.277  C402.681,442.458,394.96,455.796,382.669,455.796z"/>
<path style="fill:#FF5752;" d="M396.526,431.796c-91.767-158.957-63.199-109.474-139.301-241.277  c-3.073-5.323-8.464-7.987-13.856-7.988v273.265h139.3C394.96,455.796,402.681,442.458,396.526,431.796z"/>
<path style="fill:#54C9EB;" d="M369.684,56.204L369.684,56.204v284.632l0,0C448.157,340.835,512,276.992,512,198.52  S448.157,56.204,369.684,56.204z"/>
<g>
</g>
<g>
</g>
<g>
</g>
<g>
</g>
<g>
</g>
<g>
</g>
<g>
</g>
<g>
</g>
<g>
</g>
<g>
</g>
<g>
</g>
<g>
</g>
<g>
</g>
<g>
</g>
<g>
</g>
</svg>
