<?xml version="1.0" encoding="iso-8859-1"?>
<!-- Generator: Adobe Illustrator 19.0.0, SVG Export Plug-In . SVG Version: 6.00 Build 0)  -->
<svg xmlns="http://www.w3.org/2000/svg" xmlns:xlink="http://www.w3.org/1999/xlink" version="1.1" id="Layer_1" x="0px" y="0px" viewBox="0 0 512 512" style="enable-background:new 0 0 512 512;" xml:space="preserve">
<path style="fill:#1C3D66;" d="M492.18,512H19.82c-11.177,0-19.109-10.913-15.682-21.535l49.4-153.196  c1.287-3.994,4.051-7.346,7.725-9.371l122.287-67.448c6.301-3.477,14.127-2.46,19.333,2.506c29.721,28.356,76.49,28.38,106.236,0  c5.206-4.966,13.032-5.981,19.333-2.506l122.287,67.448c3.674,2.027,6.436,5.378,7.725,9.371l49.4,153.196  C511.285,501.082,503.362,512,492.18,512z"/>
<path style="fill:#163457;" d="M507.862,490.465l-49.4-153.196c-1.289-3.994-4.051-7.346-7.725-9.371L328.45,260.449  c-6.3-3.476-14.126-2.461-19.333,2.506c-14.871,14.188-33.996,21.277-53.118,21.276V512h236.18  C503.362,512,511.285,501.081,507.862,490.465z"/>
<path style="fill:#FFE365;" d="M239.519,282.431v229.568h32.955V282.432C261.878,284.741,250.805,284.892,239.519,282.431z"/>
<path style="fill:#FFC733;" d="M272.473,282.433c-5.379,1.171-10.883,1.781-16.473,1.781V512h16.473V282.433z"/>
<path style="fill:#FFE365;" d="M256,317.176c-60.609,0-109.919-49.31-109.919-109.919v-53.4  c0-60.609,49.309-109.919,109.919-109.919c60.609,0,109.919,49.31,109.919,109.919v53.4  C365.919,267.867,316.609,317.176,256,317.176z"/>
<path style="fill:#FFC733;" d="M256,43.939v273.237c60.609,0,109.919-49.31,109.919-109.919v-53.4  C365.919,93.249,316.609,43.939,256,43.939z"/>
<path style="fill:#1C3D66;" d="M410.81,136.524h-1.932C400.235,59.817,334.977,0,256,0S111.765,59.817,103.124,136.524h-1.932  c-24.044,0-43.605,19.562-43.605,43.605s19.561,43.605,43.605,43.605h17.428c9.1,0,16.478-7.378,16.478-16.478v-53.399  c0-66.666,54.237-120.903,120.903-120.903s120.904,54.237,120.904,120.904v47.927c-28.851,36.655-67.86,32.13-98.936,32.13  c-9.1,0-16.478,7.378-16.478,16.478s7.378,16.478,16.478,16.478c35.776,0,85.911,3.408,123.591-43.136h9.252  c24.044,0,43.604-19.562,43.604-43.605S434.854,136.524,410.81,136.524z"/>
<path style="fill:#163457;" d="M410.81,136.524h-1.932C400.235,59.817,334.977,0,256,0v32.955  c66.666,0,120.904,54.237,120.904,120.904v47.927c-28.851,36.655-67.86,32.13-98.936,32.13c-9.1,0-16.478,7.378-16.478,16.478  s7.378,16.478,16.478,16.478c35.776,0,85.911,3.408,123.591-43.136h9.252c24.044,0,43.604-19.562,43.604-43.605  S434.854,136.524,410.81,136.524z"/>
<g>
</g>
<g>
</g>
<g>
</g>
<g>
</g>
<g>
</g>
<g>
</g>
<g>
</g>
<g>
</g>
<g>
</g>
<g>
</g>
<g>
</g>
<g>
</g>
<g>
</g>
<g>
</g>
<g>
</g>
</svg>
