<?xml version="1.0" encoding="iso-8859-1"?>
<!-- Generator: Adobe Illustrator 19.0.0, SVG Export Plug-In . SVG Version: 6.00 Build 0)  -->
<svg xmlns="http://www.w3.org/2000/svg" xmlns:xlink="http://www.w3.org/1999/xlink" version="1.1" id="Layer_1" x="0px" y="0px" viewBox="0 0 512 512" style="enable-background:new 0 0 512 512;" xml:space="preserve">
<path style="fill:#84DBFF;" d="M322.47,205.326H189.551c-8.836,0-16-7.164-16-16v-34.317c0-20.586,16.748-37.333,37.333-37.333  h90.253c20.586,0,37.333,16.748,37.333,37.333v34.317C338.47,198.162,331.308,205.326,322.47,205.326z"/>
<g>
	<path style="fill:#54C9EB;" d="M301.137,117.676H256v87.65h66.47c8.836,0,16-7.164,16-16v-34.317   C338.47,134.423,321.723,117.676,301.137,117.676z"/>
	<path style="fill:#54C9EB;" d="M309.744,322.442H202.277c-10.384,0-18.013-9.753-15.537-19.821   c1.505-6.119,2.269-12.443,2.269-18.793c0-43.289-35.214-78.507-78.496-78.507c-8.836,0-16-7.164-16-16c0-8.836,7.164-16,16-16   H401.51c8.836,0,16,7.164,16,16c0,8.836-7.164,16-16,16c-43.282,0-78.496,35.218-78.496,78.507c0,6.353,0.763,12.675,2.268,18.793   C327.761,312.704,320.112,322.442,309.744,322.442z"/>
</g>
<path style="fill:#1BB3F9;" d="M401.509,173.322H256v149.12h53.744c10.368,0,18.017-9.738,15.537-19.821  c-1.505-6.117-2.268-12.439-2.268-18.793c0-43.289,35.214-78.507,78.496-78.507c8.836,0,16-7.164,16-16  C417.509,180.485,410.346,173.322,401.509,173.322z"/>
<path style="fill:#84DBFF;" d="M110.507,394.324C49.573,394.324,0,344.756,0,283.828c0-60.933,49.573-110.507,110.507-110.507  c60.928,0,110.496,49.573,110.496,110.507C221.002,344.661,172.017,394.324,110.507,394.324z"/>
<path style="fill:#FFE365;" d="M110.502,350.685c-36.867,0-66.861-29.994-66.861-66.861s29.994-66.862,66.861-66.862  s66.862,29.994,66.862,66.862C177.363,320.69,147.37,350.685,110.502,350.685z"/>
<path style="fill:#1BB3F9;" d="M266.434,263.882h-20.848c-8.836,0-16-7.164-16-16c0-8.836,7.164-16,16-16h20.848  c8.836,0,16,7.164,16,16C282.434,256.718,275.27,263.882,266.434,263.882z"/>
<path style="fill:#008BE5;" d="M266.434,231.882H256v32h10.434c8.836,0,16-7.164,16-16  C282.434,239.045,275.27,231.882,266.434,231.882z"/>
<path style="fill:#54C9EB;" d="M401.504,394.324c-61.57,0-110.496-49.74-110.496-110.496c0-60.933,49.568-110.507,110.496-110.507  S512,222.895,512,283.828C512,344.756,462.432,394.324,401.504,394.324z"/>
<path style="fill:#FFE365;" d="M401.507,350.685c-36.867,0-66.861-29.994-66.861-66.861s29.994-66.862,66.861-66.862  s66.862,29.994,66.862,66.862C468.369,320.69,438.375,350.685,401.507,350.685z"/>
<g>
	<path style="fill:#FFC733;" d="M401.508,216.962v133.722c36.867,0,66.861-29.994,66.861-66.861S438.375,216.962,401.508,216.962z"/>
	<path style="fill:#FFC733;" d="M110.502,216.962v133.722c36.867,0,66.861-29.994,66.861-66.861S147.37,216.962,110.502,216.962z"/>
</g>
<g>
</g>
<g>
</g>
<g>
</g>
<g>
</g>
<g>
</g>
<g>
</g>
<g>
</g>
<g>
</g>
<g>
</g>
<g>
</g>
<g>
</g>
<g>
</g>
<g>
</g>
<g>
</g>
<g>
</g>
</svg>
