<?xml version="1.0" encoding="iso-8859-1"?>
<!-- Generator: Adobe Illustrator 19.0.0, SVG Export Plug-In . SVG Version: 6.00 Build 0)  -->
<svg xmlns="http://www.w3.org/2000/svg" xmlns:xlink="http://www.w3.org/1999/xlink" version="1.1" id="Layer_1" x="0px" y="0px" viewBox="0 0 512 512" style="enable-background:new 0 0 512 512;" xml:space="preserve">
<path style="fill:#1C3D66;" d="M256.704,284.55l-38.122-38.122c-7.69-7.689-7.69-20.157,0-27.847c7.689-7.689,20.157-7.689,27.847,0  l38.122,38.122c7.69,7.689,7.69,20.157,0,27.847C276.86,292.24,264.394,292.24,256.704,284.55z"/>
<path style="fill:#163457;" d="M218.59,218.575l65.968,65.968c7.683-7.69,7.681-20.153-0.007-27.839l-38.122-38.122  C238.742,210.895,226.279,210.893,218.59,218.575z"/>
<path style="fill:#EFEFEF;" d="M42.311,246.428c-56.408-56.406-56.416-147.706,0-204.119c56.406-56.408,147.706-56.416,204.119,0  l0,0l0,0c56.276,56.276,56.276,147.843,0,204.119S98.588,302.705,42.311,246.428z"/>
<path style="fill:#C5D8DF;" d="M246.429,42.31C190.018-14.104,98.724-14.1,42.317,42.302L246.436,246.42  C302.705,190.145,302.702,98.583,246.429,42.31z"/>
<path style="fill:#54C9EB;" d="M105.877,182.86c-21.224-21.224-21.224-55.76,0-76.984c21.224-21.222,55.76-21.224,76.984,0  s21.224,55.76,0,76.984C161.638,204.085,127.103,204.086,105.877,182.86z"/>
<g>
	<path style="fill:#1BB3F9;" d="M182.861,105.878c-21.222-21.222-55.751-21.222-76.976-0.007l76.983,76.983   C204.086,161.628,204.083,127.099,182.861,105.878z"/>
	<path style="fill:#1BB3F9;" d="M379.467,504.569L226.2,311.904c-6.234-7.836-5.595-19.102,1.486-26.181l58.037-58.037   c7.08-7.082,18.348-7.722,26.181-1.486L504.57,379.466c9.189,7.308,9.981,21.02,1.666,29.333L408.8,506.235   C400.504,514.53,386.799,513.787,379.467,504.569z"/>
</g>
<path style="fill:#84DBFF;" d="M252.856,174.251c-59.82-59.82-157.157-59.817-216.974,0c-13.194,13.578-32.372,5.227-34.484-10.167  c-6.201-45.188,8.71-89.576,40.913-121.775c56.276-56.278,147.843-56.276,204.119,0c32.201,32.199,47.114,76.586,40.911,121.776  C285.23,179.477,266.057,187.836,252.856,174.251z"/>
<path style="fill:#54C9EB;" d="M42.317,42.302l87.751,87.751c43.906-4.075,89.244,10.655,122.788,44.199  c13.2,13.583,32.373,5.226,34.484-10.167c6.203-45.19-8.71-89.576-40.911-121.776C190.156-13.965,98.594-13.969,42.317,42.302z"/>
<path style="fill:#008BE5;" d="M504.568,379.466L311.905,226.199c-7.834-6.236-19.103-5.596-26.181,1.486l-29.011,29.011  L457.525,457.51l48.71-48.71C514.55,400.486,513.758,386.774,504.568,379.466z"/>
<g>
</g>
<g>
</g>
<g>
</g>
<g>
</g>
<g>
</g>
<g>
</g>
<g>
</g>
<g>
</g>
<g>
</g>
<g>
</g>
<g>
</g>
<g>
</g>
<g>
</g>
<g>
</g>
<g>
</g>
</svg>
