<?xml version="1.0" encoding="iso-8859-1"?>
<!-- Generator: Adobe Illustrator 19.0.0, SVG Export Plug-In . SVG Version: 6.00 Build 0)  -->
<svg xmlns="http://www.w3.org/2000/svg" xmlns:xlink="http://www.w3.org/1999/xlink" version="1.1" id="Layer_1" x="0px" y="0px" viewBox="0 0 512 512" style="enable-background:new 0 0 512 512;" xml:space="preserve">
<path style="fill:#54C9EB;" d="M307.975,205.328H204.039c-8.836,0-16-7.164-16-16v-55.651c0-8.836,7.164-16,16-16h103.936  c8.836,0,16,7.164,16,16v55.651C323.975,198.164,316.812,205.328,307.975,205.328z"/>
<path style="fill:#1BB3F9;" d="M307.975,117.677H256v87.651h51.975c8.836,0,16-7.164,16-16v-55.651  C323.975,124.841,316.812,117.677,307.975,117.677z"/>
<path style="fill:#84DBFF;" d="M256.006,350.837c-36.95,0-67.011-30.062-67.011-67.012c0-43.283-35.214-78.497-78.498-78.497  c-8.836,0-16-7.164-16-16s7.164-16,16-16h291.006c8.836,0,16,7.164,16,16s-7.164,16-16,16c-43.284,0-78.498,35.214-78.498,78.497  C323.005,320.777,292.95,350.837,256.006,350.837z"/>
<g>
	<path style="fill:#54C9EB;" d="M401.503,173.328H256v177.509c0.002,0,0.004,0,0.006,0c36.944,0,66.999-30.062,66.999-67.012   c0-43.283,35.214-78.497,78.498-78.497c8.836,0,16-7.164,16-16S410.339,173.328,401.503,173.328z"/>
	<path style="fill:#54C9EB;" d="M110.497,394.323C49.569,394.323,0,344.754,0,283.825c0-60.928,49.569-110.497,110.497-110.497   c60.929,0,110.498,49.569,110.498,110.497C220.995,344.754,171.426,394.323,110.497,394.323z"/>
</g>
<path style="fill:#FFE365;" d="M110.497,350.687c-36.867,0-66.861-29.994-66.861-66.861c0-36.867,29.994-66.862,66.861-66.862  s66.862,29.994,66.862,66.862C177.358,320.692,147.364,350.687,110.497,350.687z"/>
<path style="fill:#1BB3F9;" d="M401.503,394.323c-60.929,0-110.498-49.569-110.498-110.498c0-60.928,49.569-110.497,110.498-110.497  c60.928,0,110.497,49.569,110.497,110.497C512,344.754,462.431,394.323,401.503,394.323z"/>
<path style="fill:#FFE365;" d="M401.502,350.687c-36.867,0-66.861-29.994-66.861-66.861c0-36.867,29.994-66.862,66.861-66.862  s66.862,29.994,66.862,66.862C468.364,320.692,438.37,350.687,401.502,350.687z"/>
<g>
	<path style="fill:#FFC733;" d="M401.503,216.964v133.722c36.867,0,66.861-29.994,66.861-66.861   C468.364,246.959,438.37,216.965,401.503,216.964z"/>
	<path style="fill:#FFC733;" d="M110.497,216.964v133.722c36.867,0,66.861-29.994,66.861-66.861   C177.358,246.959,147.365,216.965,110.497,216.964z"/>
</g>
<g>
</g>
<g>
</g>
<g>
</g>
<g>
</g>
<g>
</g>
<g>
</g>
<g>
</g>
<g>
</g>
<g>
</g>
<g>
</g>
<g>
</g>
<g>
</g>
<g>
</g>
<g>
</g>
<g>
</g>
</svg>
