<?xml version="1.0" encoding="iso-8859-1"?>
<!-- Generator: Adobe Illustrator 19.0.0, SVG Export Plug-In . SVG Version: 6.00 Build 0)  -->
<svg xmlns="http://www.w3.org/2000/svg" xmlns:xlink="http://www.w3.org/1999/xlink" version="1.1" id="Layer_1" x="0px" y="0px" viewBox="0 0 512 512" style="enable-background:new 0 0 512 512;" xml:space="preserve">
<path style="fill:#FFE365;" d="M96.033,512c-0.335,0-0.671-0.009-1.007-0.026l-72.625-3.712  c-10.088-0.516-18.148-8.577-18.664-18.664l-3.711-72.624c-0.285-5.565,1.803-10.991,5.743-14.932l203.805-203.805  c-15.977-53.946-1.375-112.808,38.894-153.077c60.21-60.212,158.178-60.213,218.38-0.009c60.205,60.205,60.201,158.17-0.009,218.38  c-40.271,40.267-99.131,54.871-153.077,38.894L109.957,506.23C106.256,509.934,101.242,512,96.033,512z"/>
<g>
	<path style="fill:#FFC733;" d="M466.848,45.151L466.848,45.151L9.481,502.518c3.34,3.342,7.878,5.486,12.921,5.743l72.624,3.712   c0.336,0.017,0.672,0.026,1.007,0.026c5.209,0,10.223-2.065,13.924-5.768l203.805-203.805   c53.946,15.977,112.806,1.373,153.077-38.894C527.049,203.321,527.053,105.357,466.848,45.151z"/>
	<path style="fill:#FFC733;" d="M452.037,32.109l-57.122,57.122l-17.626-17.626c-10.711-10.714-29.033-5.788-32.951,8.83   l-23.097,86.2c-3.944,14.717,9.602,28.014,24.121,24.121l86.2-23.097c14.639-3.925,19.527-22.253,8.83-32.951l-17.626-17.626   l57.122-57.122C471.999,49.756,462.635,40.304,452.037,32.109z"/>
</g>
<g>
	<path style="fill:#FFAF00;" d="M440.394,134.71l-17.626-17.626l57.122-57.122c-3.982-5.151-8.342-10.108-13.043-14.809   L326.351,185.647c4.708,4.695,11.737,7.061,19.011,5.11l86.2-23.097C446.202,163.737,451.091,145.409,440.394,134.71z"/>
	<path style="fill:#FFAF00;" d="M96.376,415.439c-0.528,0.528-1.012,1.083-1.468,1.654l3.121-3.121   C97.459,414.426,96.904,414.911,96.376,415.439z"/>
	<path style="fill:#FFAF00;" d="M124.228,415.439c-7.162-7.162-18.467-7.647-26.2-1.468l-3.121,3.121   c-6.179,7.732-5.696,19.036,1.468,26.198l38.261,38.261l27.853-27.853L124.228,415.439z"/>
	<path style="fill:#FFAF00;" d="M139.581,372.233c-0.528,0.528-1.012,1.083-1.468,1.653l3.121-3.121   C140.665,371.221,140.109,371.704,139.581,372.233z"/>
	<path style="fill:#FFAF00;" d="M167.434,372.232c-7.162-7.162-18.467-7.647-26.2-1.467l-3.121,3.121   c-6.18,7.732-5.696,19.036,1.468,26.198l38.261,38.261l27.853-27.853L167.434,372.232z"/>
</g>
<g>
</g>
<g>
</g>
<g>
</g>
<g>
</g>
<g>
</g>
<g>
</g>
<g>
</g>
<g>
</g>
<g>
</g>
<g>
</g>
<g>
</g>
<g>
</g>
<g>
</g>
<g>
</g>
<g>
</g>
</svg>
