<?xml version="1.0" encoding="iso-8859-1"?>
<!-- Generator: Adobe Illustrator 19.0.0, SVG Export Plug-In . SVG Version: 6.00 Build 0)  -->
<svg xmlns="http://www.w3.org/2000/svg" xmlns:xlink="http://www.w3.org/1999/xlink" version="1.1" id="Layer_1" x="0px" y="0px" viewBox="0 0 512 512" style="enable-background:new 0 0 512 512;" xml:space="preserve">
<path style="fill:#1BB3F9;" d="M435.697,512H126.482c-36.876,0-66.876-29.994-66.876-66.862V66.862  c0-9.22,7.475-16.696,16.696-16.696s16.696,7.475,16.696,16.696c0,18.463,15.021,33.485,33.485,33.485h309.216  c9.22,0,16.696,7.475,16.696,16.696v378.262C452.393,504.525,444.917,512,435.697,512z"/>
<path style="fill:#008BE5;" d="M435.697,100.346H255.999V512h179.698c9.22,0,16.696-7.475,16.696-16.696V117.042  C452.393,107.822,444.917,100.346,435.697,100.346z"/>
<path style="fill:#84DBFF;" d="M435.697,133.738H126.482c-36.876,0-66.876-30.001-66.876-66.876c0-36.867,30-66.862,66.876-66.862  h309.216c9.22,0,16.696,7.475,16.696,16.696v100.346C452.393,126.263,444.917,133.738,435.697,133.738z"/>
<path style="fill:#54C9EB;" d="M435.697,0H255.999v133.738h179.698c9.22,0,16.696-7.475,16.696-16.696V16.696  C452.393,7.475,444.917,0,435.697,0z"/>
<path style="fill:#EFEFEF;" d="M312.283,409.626l-68.328-50.737h-54.193c-9.22,0-16.696-7.475-16.696-16.696v-72.046  c0-9.22,7.475-16.696,16.696-16.696h54.194l68.326-50.736c11.012-8.172,26.648-0.282,26.648,13.404v180.102  C338.932,410.014,323.203,417.734,312.283,409.626z"/>
<g>
	<path style="fill:#C5D8DF;" d="M173.067,270.147v72.046c0,9.22,7.475,16.696,16.696,16.696h54.193l0,0V253.45h-54.194   C180.542,253.451,173.067,260.926,173.067,270.147z"/>
	<path style="fill:#C5D8DF;" d="M312.283,202.715l-56.283,41.794v123.323l56.283,41.794c10.92,8.109,26.648,0.388,26.648-13.404   V216.12C338.932,202.435,323.295,194.543,312.283,202.715z"/>
</g>
<g>
</g>
<g>
</g>
<g>
</g>
<g>
</g>
<g>
</g>
<g>
</g>
<g>
</g>
<g>
</g>
<g>
</g>
<g>
</g>
<g>
</g>
<g>
</g>
<g>
</g>
<g>
</g>
<g>
</g>
</svg>
