<?xml version="1.0" encoding="iso-8859-1"?>
<!-- Generator: Adobe Illustrator 19.0.0, SVG Export Plug-In . SVG Version: 6.00 Build 0)  -->
<svg xmlns="http://www.w3.org/2000/svg" xmlns:xlink="http://www.w3.org/1999/xlink" version="1.1" id="Layer_1" x="0px" y="0px" viewBox="0 0 512 512" style="enable-background:new 0 0 512 512;" xml:space="preserve">
<path style="fill:#FFC733;" d="M129.741,386.104C59.976,386.104,0,355.611,0,311.056V222.52c0-9.024,7.316-16.34,16.34-16.34  s16.34,7.316,16.34,16.34c0,20.626,45.871,45.559,109.006,42.019c9.432-0.514,17.253,6.988,17.253,16.315v88.527  C158.94,386.794,141.22,386.104,129.741,386.104z"/>
<path style="fill:#FFAF00;" d="M141.687,264.538c-4.035,0.227-7.999,0.334-11.886,0.337v121.229  c11.482,0.002,29.139,0.66,29.139-16.724v-88.527C158.94,271.527,151.118,264.024,141.687,264.538z"/>
<path style="fill:#FFE365;" d="M0,222.52v-88.539c0-9.024,7.316-16.34,16.34-16.34s16.34,7.316,16.34,16.34  c0,21.093,47.473,45.929,110.125,41.959c11.264-0.719,19.878,9.983,16.729,20.851c-0.4,1.383-0.595,2.743-0.595,4.157v79.894  c0,8.598-6.663,15.725-15.24,16.303C74.895,301.795,0,272.491,0,222.52z"/>
<g>
	<path style="fill:#FFC733;" d="M142.806,175.94c-4.415,0.28-8.752,0.412-13.005,0.416v121.266   c4.644-0.011,9.286-0.164,13.899-0.476c8.579-0.578,15.24-7.705,15.24-16.303v-79.894c0-1.415,0.195-2.775,0.595-4.157   C162.683,185.922,154.07,175.221,142.806,175.94z"/>
	<path style="fill:#FFC733;" d="M129.792,209.032C59.935,209.032,0,178.568,0,133.981c0-44.659,60.144-75.058,129.741-75.058   c80.289,0,141.926,39.74,127.855,88.307c-1.917,6.615-7.776,11.317-14.649,11.759c-48.018,3.079-78.809,21.755-83.4,37.764   C155.804,209.805,143.316,209.032,129.792,209.032z"/>
</g>
<path style="fill:#FFAF00;" d="M129.801,58.924v150.109c13.521,0,26.003,0.769,29.745-12.279  c4.592-16.009,35.382-34.685,83.4-37.764c5.505-0.354,10.353-3.445,13.053-8.059v-35.369  C242.385,82.528,191.635,58.939,129.801,58.924z"/>
<path style="fill:#FFC733;" d="M382.259,386.104c-11.32,0-29.2,0.788-29.2-16.724v-88.527c0-9.351,7.848-16.827,17.253-16.315  c58.372,3.272,109.007-19.396,109.007-42.018c0-9.024,7.316-16.34,16.34-16.34c9.024,0,16.34,7.316,16.34,16.34v88.537  C512,355.884,451.536,386.104,382.259,386.104z"/>
<path style="fill:#FFAF00;" d="M495.66,206.179c-9.024,0-16.34,7.316-16.34,16.34c0,21.072-43.935,42.179-97.131,42.33v121.254  c0.023,0,0.048,0,0.071,0c69.277,0,129.741-30.22,129.741-75.047V222.52C512,213.494,504.684,206.179,495.66,206.179z"/>
<path style="fill:#FFE365;" d="M383.66,297.667c-13.543,0-30.6,0.391-30.6-16.825v-79.894c0-1.415-0.195-2.775-0.595-4.156  c-3.153-10.887,5.483-21.568,16.73-20.853c62.705,3.969,110.124-20.883,110.124-41.959c0-9.024,7.316-16.34,16.34-16.34  c9.024,0,16.34,7.316,16.34,16.34v88.538C512,272.435,440.43,297.665,383.66,297.667z"/>
<g>
	<path style="fill:#FFC733;" d="M495.66,117.64c-9.024,0-16.34,7.316-16.34,16.34c0,19.593-40.984,42.444-97.131,42.375v121.312   c0.493,0,0.986,0,1.472,0C440.43,297.665,512,272.435,512,222.52v-88.539C512,124.956,504.684,117.64,495.66,117.64z"/>
	<path style="fill:#FFC733;" d="M382.206,209.032c-13.522,0-26.009,0.771-29.752-12.279c-4.592-16.009-35.382-34.685-83.4-37.764   c-6.873-0.441-12.732-5.144-14.649-11.759c-14.296-49.344,48.849-88.307,127.855-88.307C452.085,58.922,512,89.449,512,133.981   C512,178.763,451.734,209.032,382.206,209.032z"/>
</g>
<path style="fill:#FFAF00;" d="M382.259,58.922c-0.024,0-0.047,0.001-0.071,0.001v150.109c0.005,0,0.011,0,0.016,0  c69.53,0,129.794-30.269,129.794-75.052C512,89.449,452.085,58.922,382.259,58.922z"/>
<path style="fill:#FFE365;" d="M256,453.078c-69.808,0-129.743-30.52-129.743-75.054v-88.538c0-9.024,7.316-16.34,16.34-16.34  s16.34,7.316,16.34,16.34c0,53.124,194.123,56.139,194.123,0c0-9.024,7.316-16.34,16.34-16.34s16.34,7.316,16.34,16.34v88.538  C385.743,422.652,325.644,453.078,256,453.078z"/>
<path style="fill:#FFC733;" d="M256,364.54c-69.808,0-129.743-30.52-129.743-75.054v-88.538c0-9.024,7.316-16.34,16.34-16.34  s16.34,7.316,16.34,16.34c0,53.129,194.123,56.137,194.123,0c0-9.024,7.316-16.34,16.34-16.34s16.34,7.316,16.34,16.34v88.538  C385.743,334.114,325.644,364.54,256,364.54z"/>
<path style="fill:#FFE365;" d="M255.997,276.029c-69.18,0-129.74-30.195-129.74-75.082c0-45.554,61.783-75.053,129.743-75.053  c69.805,0,129.743,30.517,129.743,75.053C385.743,245.951,324.99,276.029,255.997,276.029z"/>
<g>
	<path style="fill:#FFC733;" d="M256,115.561v35.369c0.671-1.146,1.215-2.384,1.596-3.699   C260.826,136.083,260.057,125.403,256,115.561z"/>
	<path style="fill:#FFC733;" d="M369.403,273.144c-9.024,0-16.34,7.316-16.34,16.34c0,28.07-48.531,41.35-97.062,40.974v122.619   c69.644,0,129.743-30.426,129.743-75.054v-88.538C385.743,280.461,378.427,273.144,369.403,273.144z"/>
</g>
<path style="fill:#FFAF00;" d="M369.403,184.606c-9.024,0-16.34,7.316-16.34,16.34c0,28.068-48.531,41.35-97.062,40.975V364.54  c69.644,0,129.743-30.426,129.743-75.054v-88.538C385.743,191.923,378.427,184.606,369.403,184.606z"/>
<path style="fill:#FFC733;" d="M385.743,200.947c0-44.536-59.938-75.053-129.743-75.053v150.135  C324.993,276.028,385.743,245.95,385.743,200.947z"/>
<g>
</g>
<g>
</g>
<g>
</g>
<g>
</g>
<g>
</g>
<g>
</g>
<g>
</g>
<g>
</g>
<g>
</g>
<g>
</g>
<g>
</g>
<g>
</g>
<g>
</g>
<g>
</g>
<g>
</g>
</svg>
