<?xml version="1.0" encoding="iso-8859-1"?>
<!-- Generator: Adobe Illustrator 19.0.0, SVG Export Plug-In . SVG Version: 6.00 Build 0)  -->
<svg xmlns="http://www.w3.org/2000/svg" xmlns:xlink="http://www.w3.org/1999/xlink" version="1.1" id="Layer_1" x="0px" y="0px" viewBox="0 0 512 512" style="enable-background:new 0 0 512 512;" xml:space="preserve">
<path style="fill:#B7E183;" d="M243.77,0C175.29,0,110.975,26.601,62.673,74.903c-8.693,8.694-8.693,22.788,0.001,31.481  c8.692,8.694,22.788,8.694,31.481,0c39.893-39.893,93.026-61.863,149.614-61.863c117.074,0,211.478,94.377,211.478,211.478  c0,117.077-94.378,211.478-211.478,211.478c-49.081,0-95.556-16.538-133.054-46.952l8.779-8.78  c12.111-12.113,6.535-32.818-9.98-37.242l-69.24-18.553c-16.542-4.429-31.692,10.741-27.264,27.264l18.553,69.241  c4.458,16.633,25.203,22.02,37.244,9.98l10.289-10.289C125.107,490.884,182.78,512,243.77,512c141.686,0,256-114.292,256-256  C499.77,114.315,385.479,0,243.77,0z"/>
<path style="fill:#1C3D66;" d="M307.638,289.956h-71.273c-12.295,0-22.261-9.966-22.261-22.261V158.01  c0-12.295,9.966-22.261,22.261-22.261c12.295,0,22.261,9.966,22.261,22.261v87.424h49.011c12.295,0,22.261,9.966,22.261,22.261  C329.898,279.989,319.933,289.956,307.638,289.956z"/>
<path style="fill:#71DE56;" d="M499.77,256c0-137.581-107.768-249.344-243.76-255.704V44.88  C367.353,51.189,455.248,143.01,455.248,256c0,112.967-87.873,204.811-199.238,211.12v44.584  C391.98,505.345,499.77,393.603,499.77,256z"/>
<path style="fill:#163457;" d="M307.638,245.434h-49.012V158.01c0-3.785-0.951-7.345-2.617-10.466v142.413h51.627  c12.295,0,22.261-9.966,22.261-22.261C329.898,255.401,319.933,245.434,307.638,245.434z"/>
<g>
</g>
<g>
</g>
<g>
</g>
<g>
</g>
<g>
</g>
<g>
</g>
<g>
</g>
<g>
</g>
<g>
</g>
<g>
</g>
<g>
</g>
<g>
</g>
<g>
</g>
<g>
</g>
<g>
</g>
</svg>
