<?xml version="1.0" encoding="iso-8859-1"?>
<!-- Generator: Adobe Illustrator 19.0.0, SVG Export Plug-In . SVG Version: 6.00 Build 0)  -->
<svg xmlns="http://www.w3.org/2000/svg" xmlns:xlink="http://www.w3.org/1999/xlink" version="1.1" id="Layer_1" x="0px" y="0px" viewBox="0 0 512 512" style="enable-background:new 0 0 512 512;" xml:space="preserve">
<path style="fill:#71DE56;" d="M445.217,512H66.783c-9.22,0-16.696-7.475-16.696-16.696V16.696C50.087,7.475,57.562,0,66.783,0  h378.435c9.22,0,16.696,7.475,16.696,16.696v478.609C461.913,504.525,454.438,512,445.217,512z"/>
<path style="fill:#2FBD66;" d="M445.217,0H256v512h189.217c9.22,0,16.696-7.475,16.696-16.696V16.696  C461.913,7.475,454.438,0,445.217,0z"/>
<path style="fill:#B7E183;" d="M389.565,456.348h-267.13c-9.22,0-16.696-7.475-16.696-16.696V72.348  c0-9.22,7.475-16.696,16.696-16.696h267.13c9.22,0,16.696,7.475,16.696,16.696v367.304  C406.261,448.873,398.786,456.348,389.565,456.348z"/>
<path style="fill:#71DE56;" d="M389.565,55.652H256v400.696h133.565c9.22,0,16.696-7.475,16.696-16.696V72.348  C406.261,63.127,398.786,55.652,389.565,55.652z"/>
<path style="fill:#2FBD66;" d="M317.217,289.391c-18.412,0-33.391-14.979-33.391-33.391s14.979-33.391,33.391-33.391  s33.391,14.979,33.391,33.391S335.629,289.391,317.217,289.391z M317.216,255.979l0.001,0.021  C317.217,255.986,317.216,255.979,317.216,255.979z"/>
<g>
</g>
<g>
</g>
<g>
</g>
<g>
</g>
<g>
</g>
<g>
</g>
<g>
</g>
<g>
</g>
<g>
</g>
<g>
</g>
<g>
</g>
<g>
</g>
<g>
</g>
<g>
</g>
<g>
</g>
</svg>
