<?xml version="1.0" encoding="iso-8859-1"?>
<!-- Generator: Adobe Illustrator 19.0.0, SVG Export Plug-In . SVG Version: 6.00 Build 0)  -->
<svg xmlns="http://www.w3.org/2000/svg" xmlns:xlink="http://www.w3.org/1999/xlink" version="1.1" id="Layer_1" x="0px" y="0px" viewBox="0 0 512 512" style="enable-background:new 0 0 512 512;" xml:space="preserve">
<path style="fill:#1BB3F9;" d="M256,512C114.511,512,0,397.503,0,256C0,114.511,114.497,0,256,0c141.49,0,256,114.497,256,256  C512,397.49,397.503,512,256,512z"/>
<path style="fill:#008BE5;" d="M256,0v512c141.503,0,256-114.51,256-256C512,114.497,397.49,0,256,0z"/>
<path style="fill:#84DBFF;" d="M372.656,139.343c-6.664-6.665-17.471-6.665-24.136,0s-6.665,17.471,0,24.136  c24.669,24.668,38.254,57.527,38.254,92.521c0,172.584-261.551,172.737-261.551,0c0-29.224,9.481-56.954,26.973-79.673l3.179,3.179  c9.24,9.242,25.138,5.088,28.554-7.652l11.734-43.795c3.397-12.681-8.238-24.296-20.902-20.902l-43.795,11.735  c-12.685,3.4-16.921,19.283-7.652,28.553l4.582,4.582C104.057,181.312,91.092,217.64,91.092,256  c0,91.824,74.245,164.9,164.908,164.9c90.615,0,164.908-73.013,164.908-164.9C420.908,211.888,403.772,170.458,372.656,139.343z"/>
<path style="fill:#54C9EB;" d="M372.656,139.343c-6.664-6.665-17.471-6.665-24.136,0s-6.665,17.471,0,24.136  c24.669,24.668,38.254,57.527,38.254,92.521c0,86.292-65.388,129.477-130.775,129.495v35.404c90.615,0,164.908-73.013,164.908-164.9  C420.908,211.888,403.772,170.458,372.656,139.343z"/>
<g>
</g>
<g>
</g>
<g>
</g>
<g>
</g>
<g>
</g>
<g>
</g>
<g>
</g>
<g>
</g>
<g>
</g>
<g>
</g>
<g>
</g>
<g>
</g>
<g>
</g>
<g>
</g>
<g>
</g>
</svg>
