<?xml version="1.0" encoding="iso-8859-1"?>
<!-- Generator: Adobe Illustrator 19.0.0, SVG Export Plug-In . SVG Version: 6.00 Build 0)  -->
<svg xmlns="http://www.w3.org/2000/svg" xmlns:xlink="http://www.w3.org/1999/xlink" version="1.1" id="Layer_1" x="0px" y="0px" viewBox="0 0 512 512" style="enable-background:new 0 0 512 512;" xml:space="preserve">
<path style="fill:#C5D8DF;" d="M459.395,389.368H336.765c-9.425,0-17.066-7.641-17.066-17.066V237.216l-80.432-80.431h-64.045  c-9.425,0-17.066-7.641-17.066-17.066V17.087c0-9.425,7.641-17.066,17.066-17.066h193.746c4.526,0,8.866,1.798,12.067,4.999  l90.428,90.428c3.2,3.2,4.999,7.541,4.999,12.067v264.785C476.461,381.727,468.82,389.368,459.395,389.368z"/>
<path style="fill:#9CC2D0;" d="M471.463,95.449L381.034,5.019c-3.2-3.2-7.541-4.999-12.067-4.999h-51.659v234.806l2.389,2.389  v135.084c0,9.425,7.641,17.066,17.066,17.066h122.632c9.425,0,17.066-7.641,17.066-17.066V107.516  C476.461,102.99,474.664,98.648,471.463,95.449z"/>
<path style="fill:#EFEFEF;" d="M336.765,512H52.59c-9.425,0-17.066-7.641-17.066-17.066V139.719c0-9.425,7.641-17.066,17.066-17.066  h193.746c4.526,0,8.866,1.798,12.067,4.999l90.428,90.428c3.2,3.2,4.999,7.541,4.999,12.067v264.785  C353.831,504.359,346.19,512,336.765,512z"/>
<path style="fill:#C5D8DF;" d="M348.831,218.081l-90.428-90.428c-3.2-3.2-7.541-4.999-12.067-4.999h-51.659V512h142.087  c9.425,0,17.066-7.641,17.066-17.066V230.149C353.831,225.622,352.032,221.28,348.831,218.081z"/>
<path style="fill:#72ABC0;" d="M459.395,124.576h-90.426c-9.425,0-17.066-7.641-17.066-17.066V17.085  c0-15.143,18.39-22.814,29.133-12.067l90.426,90.426C482.176,106.156,474.584,124.576,459.395,124.576z"/>
<path style="fill:#9CC2D0;" d="M336.763,247.208h-90.426c-9.425,0-17.066-7.641-17.066-17.066v-90.426  c0-15.174,18.412-22.791,29.133-12.067l90.426,90.426C359.544,228.788,351.953,247.208,336.763,247.208z"/>
<g>
</g>
<g>
</g>
<g>
</g>
<g>
</g>
<g>
</g>
<g>
</g>
<g>
</g>
<g>
</g>
<g>
</g>
<g>
</g>
<g>
</g>
<g>
</g>
<g>
</g>
<g>
</g>
<g>
</g>
</svg>
