<?xml version="1.0" encoding="iso-8859-1"?>
<!-- Generator: Adobe Illustrator 19.0.0, SVG Export Plug-In . SVG Version: 6.00 Build 0)  -->
<svg xmlns="http://www.w3.org/2000/svg" xmlns:xlink="http://www.w3.org/1999/xlink" version="1.1" id="Layer_1" x="0px" y="0px" viewBox="0 0 512 512" style="enable-background:new 0 0 512 512;" xml:space="preserve">
<path style="fill:#84DBFF;" d="M512,256c0,141.49-114.497,256-256,256C114.511,512,0,397.503,0,256C0,114.511,114.497,0,256,0  C397.49,0,512,114.497,512,256z"/>
<path style="fill:#54C9EB;" d="M256,0v512c141.503,0,256-114.51,256-256C512,114.497,397.49,0,256,0z"/>
<path style="fill:#EFEFEF;" d="M396.774,271.627L174.452,369.16c-14.556,6.384-29.206-8.954-22.151-23.202l44.539-89.961  l-44.539-89.961c-7.053-14.237,7.589-29.589,22.151-23.202l222.322,97.533C410.373,246.337,410.344,265.673,396.774,271.627z"/>
<path style="fill:#C5D8DF;" d="M396.774,240.37L256,178.613v154.772l140.774-61.757C410.344,265.673,410.373,246.337,396.774,240.37  z"/>
<g>
</g>
<g>
</g>
<g>
</g>
<g>
</g>
<g>
</g>
<g>
</g>
<g>
</g>
<g>
</g>
<g>
</g>
<g>
</g>
<g>
</g>
<g>
</g>
<g>
</g>
<g>
</g>
<g>
</g>
</svg>
