<?xml version="1.0" encoding="iso-8859-1"?>
<!-- Generator: Adobe Illustrator 19.0.0, SVG Export Plug-In . SVG Version: 6.00 Build 0)  -->
<svg xmlns="http://www.w3.org/2000/svg" xmlns:xlink="http://www.w3.org/1999/xlink" version="1.1" id="Layer_1" x="0px" y="0px" viewBox="0 0 512 512" style="enable-background:new 0 0 512 512;" xml:space="preserve">
<path style="fill:#FFC733;" d="M435.697,512H126.482c-36.876,0-66.876-29.994-66.876-66.862V66.862  c0-9.22,7.475-16.696,16.696-16.696s16.696,7.475,16.696,16.696c0,18.463,15.021,33.485,33.485,33.485h309.216  c9.22,0,16.696,7.475,16.696,16.696v378.262C452.393,504.525,444.917,512,435.697,512z"/>
<path style="fill:#FFAF00;" d="M435.697,100.346H255.999V512h179.698c9.22,0,16.696-7.475,16.696-16.696V117.042  C452.393,107.822,444.917,100.346,435.697,100.346z"/>
<path style="fill:#FFE365;" d="M435.697,133.738H126.482c-36.876,0-66.876-30.001-66.876-66.876c0-36.867,30-66.862,66.876-66.862  h309.216c9.22,0,16.696,7.475,16.696,16.696v100.346C452.393,126.263,444.917,133.738,435.697,133.738z"/>
<path style="fill:#FFC733;" d="M435.697,0H255.999v133.738h179.698c9.22,0,16.696-7.475,16.696-16.696V16.696  C452.393,7.475,444.917,0,435.697,0z"/>
<path style="fill:#FF7976;" d="M232.927,397.949l-68.704-68.704c-23.267-23.266-29.372-58.848-15.19-88.539l12.553-26.283  c11.91-24.934,44.975-30.61,64.516-11.069l14.604,14.605c0,0,0,0,0.001,0c11.987,11.989,15.132,30.322,7.825,45.62l-7.239,15.156  l42.142,42.142l15.156-7.238c15.298-7.307,33.633-4.162,45.621,7.828l14.603,14.604c19.538,19.538,13.87,52.606-11.069,64.515  l-26.282,12.553C291.768,427.323,256.189,421.213,232.927,397.949z"/>
<path style="fill:#FF5752;" d="M358.818,336.07l-14.603-14.604c-11.989-11.99-30.324-15.135-45.621-7.828l-15.156,7.238  l-27.438-27.435v120.406c20.466,9.191,44.438,9.335,65.466-0.708l26.282-12.553C372.688,388.676,378.356,355.61,358.818,336.07z"/>
<g>
</g>
<g>
</g>
<g>
</g>
<g>
</g>
<g>
</g>
<g>
</g>
<g>
</g>
<g>
</g>
<g>
</g>
<g>
</g>
<g>
</g>
<g>
</g>
<g>
</g>
<g>
</g>
<g>
</g>
</svg>
