<?xml version="1.0" encoding="iso-8859-1"?>
<!-- Generator: Adobe Illustrator 19.0.0, SVG Export Plug-In . SVG Version: 6.00 Build 0)  -->
<svg xmlns="http://www.w3.org/2000/svg" xmlns:xlink="http://www.w3.org/1999/xlink" version="1.1" id="Layer_1" x="0px" y="0px" viewBox="0 0 512 512" style="enable-background:new 0 0 512 512;" xml:space="preserve">
<path style="fill:#EFEFEF;" d="M400.808,168.045H111.192c-9.425,0-17.067-7.641-17.067-17.067V35.132  c0-9.425,7.641-17.067,17.067-17.067h289.617c9.425,0,17.067,7.641,17.067,17.067v115.846  C417.875,160.404,410.234,168.045,400.808,168.045z"/>
<path style="fill:#C5D8DF;" d="M400.808,18.066H256v149.98h144.808c9.425,0,17.067-7.641,17.067-17.067V35.132  C417.875,25.707,410.234,18.066,400.808,18.066z"/>
<path style="fill:#1C3D66;" d="M472.178,385.255h-71.373c-9.425,0-17.067-7.641-17.067-17.067v-48.014H128.262v48.014  c0,9.425-7.641,17.067-17.067,17.067H39.822C17.864,385.255,0,367.391,0,345.433V173.731c0-21.958,17.864-39.822,39.822-39.822  h432.356c21.958,0,39.822,17.864,39.822,39.822v171.702C512,367.39,494.136,385.255,472.178,385.255z"/>
<path style="fill:#163457;" d="M472.178,133.907H256v186.266h127.738v48.014c0,9.425,7.641,17.067,17.067,17.067h71.373  c21.958,0,39.822-17.864,39.822-39.822V173.73C512,151.773,494.136,133.907,472.178,133.907z"/>
<path style="fill:#EFEFEF;" d="M400.805,493.934h-289.61c-9.425,0-17.067-7.641-17.067-17.067V303.106  c0-9.425,7.641-17.067,17.067-17.067h289.61c9.425,0,17.067,7.641,17.067,17.067v173.761  C417.872,486.293,410.23,493.934,400.805,493.934z"/>
<g>
	<path style="fill:#C5D8DF;" d="M400.805,286.04H256v207.895h144.805c9.425,0,17.067-7.641,17.067-17.067V303.106   C417.872,293.681,410.23,286.04,400.805,286.04z"/>
	<path style="fill:#C5D8DF;" d="M329.956,433.968H182.044c-9.425,0-17.067-7.641-17.067-17.067s7.641-17.067,17.067-17.067h147.911   c9.425,0,17.067,7.641,17.067,17.067S339.381,433.968,329.956,433.968z"/>
	<path style="fill:#C5D8DF;" d="M329.956,380.14H182.044c-9.425,0-17.067-7.641-17.067-17.067s7.641-17.067,17.067-17.067h147.911   c9.425,0,17.067,7.641,17.067,17.067S339.381,380.14,329.956,380.14z"/>
</g>
<path style="fill:#FFC733;" d="M400.808,234.122h-43.443c-9.425,0-17.067-7.641-17.067-17.067c0-9.425,7.641-17.067,17.067-17.067  h43.443c9.425,0,17.067,7.641,17.067,17.067C417.875,226.48,410.234,234.122,400.808,234.122z"/>
<g>
	<path style="fill:#9CC2D0;" d="M329.956,399.834H256v34.133h73.956c9.425,0,17.067-7.641,17.067-17.067   S339.381,399.834,329.956,399.834z"/>
	<path style="fill:#9CC2D0;" d="M329.956,346.006H256v34.133h73.956c9.425,0,17.067-7.641,17.067-17.067   S339.381,346.006,329.956,346.006z"/>
</g>
<g>
</g>
<g>
</g>
<g>
</g>
<g>
</g>
<g>
</g>
<g>
</g>
<g>
</g>
<g>
</g>
<g>
</g>
<g>
</g>
<g>
</g>
<g>
</g>
<g>
</g>
<g>
</g>
<g>
</g>
</svg>
