<?xml version="1.0" encoding="iso-8859-1"?>
<!-- Generator: Adobe Illustrator 19.0.0, SVG Export Plug-In . SVG Version: 6.00 Build 0)  -->
<svg xmlns="http://www.w3.org/2000/svg" xmlns:xlink="http://www.w3.org/1999/xlink" version="1.1" id="Layer_1" x="0px" y="0px" viewBox="0 0 512 512" style="enable-background:new 0 0 512 512;" xml:space="preserve">
<path style="fill:#FFE365;" d="M420.707,512H91.292c-9.22,0-16.696-7.475-16.696-16.696V83.536c0-9.22,7.475-16.696,16.696-16.696  h82.354c9.22,0,16.696,7.475,16.696,16.696v17.203h131.316V83.536c0-9.22,7.475-16.696,16.696-16.696h82.354  c9.22,0,16.696,7.475,16.696,16.696v411.768C437.402,504.525,429.928,512,420.707,512z"/>
<g>
	<path style="fill:#FFC733;" d="M420.707,66.84h-82.354c-9.22,0-16.696,7.475-16.696,16.696v17.203h-65.657V512h164.707   c9.22,0,16.696-7.475,16.696-16.696V83.536C437.402,74.316,429.928,66.84,420.707,66.84z"/>
	<path style="fill:#FFC733;" d="M338.352,134.131H173.646c-9.22,0-16.696-7.475-16.696-16.696V57.873   c0-9.22,7.475-16.696,16.696-16.696h26.935C207.763,17.379,229.891,0,255.999,0s48.236,17.379,55.418,41.177h26.935   c9.22,0,16.696,7.475,16.696,16.696v59.563C355.048,126.655,347.573,134.131,338.352,134.131z"/>
</g>
<g>
	<path style="fill:#1C3D66;" d="M322.148,234.367H189.851c-9.22,0-16.696-7.475-16.696-16.696s7.475-16.696,16.696-16.696h132.296   c9.22,0,16.696,7.475,16.696,16.696S331.368,234.367,322.148,234.367z"/>
	<path style="fill:#1C3D66;" d="M322.148,323.065H189.851c-9.22,0-16.696-7.475-16.696-16.696c0-9.22,7.475-16.696,16.696-16.696   h132.296c9.22,0,16.696,7.475,16.696,16.696C338.843,315.59,331.368,323.065,322.148,323.065z"/>
	<path style="fill:#1C3D66;" d="M322.148,411.764H189.851c-9.22,0-16.696-7.475-16.696-16.696s7.475-16.696,16.696-16.696h132.296   c9.22,0,16.696,7.475,16.696,16.696S331.368,411.764,322.148,411.764z"/>
</g>
<g>
	<path style="fill:#163457;" d="M322.148,200.976h-66.148v33.391h66.148c9.22,0,16.696-7.475,16.696-16.696   S331.368,200.976,322.148,200.976z"/>
	<path style="fill:#163457;" d="M322.148,289.674h-66.148v33.391h66.148c9.22,0,16.696-7.475,16.696-16.696   C338.843,297.149,331.368,289.674,322.148,289.674z"/>
	<path style="fill:#163457;" d="M322.148,378.372h-66.148v33.391h66.148c9.22,0,16.696-7.475,16.696-16.696   S331.368,378.372,322.148,378.372z"/>
</g>
<path style="fill:#FFAF00;" d="M338.352,41.177h-26.935C304.235,17.379,282.108,0,255.999,0v134.131h82.353  c9.22,0,16.696-7.475,16.696-16.696V57.873C355.048,48.651,347.573,41.177,338.352,41.177z"/>
<g>
</g>
<g>
</g>
<g>
</g>
<g>
</g>
<g>
</g>
<g>
</g>
<g>
</g>
<g>
</g>
<g>
</g>
<g>
</g>
<g>
</g>
<g>
</g>
<g>
</g>
<g>
</g>
<g>
</g>
</svg>
