<?xml version="1.0" encoding="iso-8859-1"?>
<!-- Generator: Adobe Illustrator 19.0.0, SVG Export Plug-In . SVG Version: 6.00 Build 0)  -->
<svg xmlns="http://www.w3.org/2000/svg" xmlns:xlink="http://www.w3.org/1999/xlink" version="1.1" id="Layer_1" x="0px" y="0px" viewBox="0 0 512.001 512.001" style="enable-background:new 0 0 512.001 512.001;" xml:space="preserve">
<path style="fill:#9CC2D0;" d="M458.089,512.001H160.291c-9.22,0-16.695-7.475-16.695-16.695v-53.18  c0-9.22,7.475-16.695,16.695-16.695h227.922v-302.36c0-9.22,7.475-16.695,16.695-16.695h53.18c9.22,0,16.695,7.475,16.695,16.695  v372.235C474.784,504.526,467.309,512.001,458.089,512.001z"/>
<path style="fill:#72ABC0;" d="M458.089,106.375h-53.18c-9.22,0-16.695,7.475-16.695,16.695v302.36H309.19v86.57h148.898  c9.22,0,16.695-7.475,16.695-16.695V123.071C474.784,113.85,467.309,106.375,458.089,106.375z"/>
<path style="fill:#C5D8DF;" d="M404.908,458.82H107.111c-9.22,0-16.695-7.475-16.695-16.695v-53.18  c0-9.22,7.475-16.695,16.695-16.695h227.922V69.891c0-9.22,7.475-16.695,16.695-16.695h53.18c9.22,0,16.695,7.475,16.695,16.695  v372.234C421.603,451.346,414.128,458.82,404.908,458.82z"/>
<path style="fill:#9CC2D0;" d="M404.908,53.196h-53.18c-9.22,0-16.695,7.475-16.695,16.695v302.36h-79.024v86.57h148.898  c9.22,0,16.695-7.475,16.695-16.695V69.891C421.603,60.671,414.128,53.196,404.908,53.196z"/>
<path style="fill:#EFEFEF;" d="M351.728,405.641H53.93c-9.22,0-16.695-7.475-16.695-16.695V94.875c0-4.429,1.759-8.674,4.891-11.805  l78.166-78.164c3.131-3.131,7.377-4.891,11.805-4.891h219.632c9.22,0,16.695,7.475,16.695,16.695v372.235  C368.423,398.167,360.948,405.641,351.728,405.641z"/>
<g>
	<path style="fill:#C5D8DF;" d="M351.728,0.016H202.83v405.625h148.898c9.22,0,16.695-7.475,16.695-16.695V16.711   C368.423,7.491,360.948,0.016,351.728,0.016z"/>
	<path style="fill:#C5D8DF;" d="M132.096,111.57H53.93c-14.814,0-22.317-17.99-11.805-28.5l78.166-78.164   c10.495-10.493,28.5-3.035,28.5,11.805v78.164C148.791,104.095,141.316,111.57,132.096,111.57z"/>
</g>
<g>
</g>
<g>
</g>
<g>
</g>
<g>
</g>
<g>
</g>
<g>
</g>
<g>
</g>
<g>
</g>
<g>
</g>
<g>
</g>
<g>
</g>
<g>
</g>
<g>
</g>
<g>
</g>
<g>
</g>
</svg>
