<?xml version="1.0" encoding="iso-8859-1"?>
<!-- Generator: Adobe Illustrator 19.0.0, SVG Export Plug-In . SVG Version: 6.00 Build 0)  -->
<svg xmlns="http://www.w3.org/2000/svg" xmlns:xlink="http://www.w3.org/1999/xlink" version="1.1" id="Layer_1" x="0px" y="0px" viewBox="0 0 512 512" style="enable-background:new 0 0 512 512;" xml:space="preserve">
<g>
	<path style="fill:#84DBFF;" d="M215.507,234.239H18.732C8.387,234.239,0,225.852,0,215.507V18.732C0,8.387,8.387,0,18.732,0   h196.775c10.345,0,18.732,8.387,18.732,18.732v196.775C234.239,225.852,225.852,234.239,215.507,234.239z"/>
	<path style="fill:#84DBFF;" d="M493.268,234.239H296.493c-10.345,0-18.732-8.387-18.732-18.732V18.732   C277.761,8.387,286.148,0,296.493,0h196.775C503.613,0,512,8.387,512,18.732v196.775C512,225.852,503.613,234.239,493.268,234.239z   "/>
</g>
<path style="fill:#54C9EB;" d="M493.268,0h-98.388v234.239h98.388c10.345,0,18.732-8.387,18.732-18.732V18.732  C512,8.387,503.613,0,493.268,0z"/>
<g>
	<path style="fill:#84DBFF;" d="M215.507,512H18.732C8.387,512,0,503.613,0,493.268V296.493c0-10.345,8.387-18.732,18.732-18.732   h196.775c10.345,0,18.732,8.387,18.732,18.732v196.775C234.239,503.613,225.852,512,215.507,512z"/>
	<path style="fill:#84DBFF;" d="M493.268,512H296.493c-10.345,0-18.732-8.387-18.732-18.732V296.493   c0-10.345,8.387-18.732,18.732-18.732h196.775c10.345,0,18.732,8.387,18.732,18.732v196.775C512,503.613,503.613,512,493.268,512z"/>
</g>
<g>
	<path style="fill:#54C9EB;" d="M493.268,277.761h-98.388V512h98.388c10.345,0,18.732-8.387,18.732-18.732V296.493   C512,286.148,503.613,277.761,493.268,277.761z"/>
	<path style="fill:#54C9EB;" d="M150.694,98.388h-14.843V83.543c0-10.345-8.387-18.732-18.732-18.732s-18.732,8.387-18.732,18.732   v14.843H83.543c-10.345,0-18.732,8.387-18.732,18.732s8.387,18.732,18.732,18.732h14.844v14.843   c0,10.345,8.387,18.732,18.732,18.732s18.732-8.387,18.732-18.732V135.85h14.843c10.345,0,18.732-8.387,18.732-18.732   C169.426,106.774,161.04,98.388,150.694,98.388z"/>
	<path style="fill:#54C9EB;" d="M150.694,413.612H83.543c-10.345,0-18.732-8.387-18.732-18.732c0-10.345,8.387-18.732,18.732-18.732   h67.151c10.345,0,18.732,8.387,18.732,18.732C169.426,405.226,161.04,413.612,150.694,413.612z"/>
	<path style="fill:#54C9EB;" d="M428.457,413.612h-67.151c-10.345,0-18.732-8.387-18.732-18.732   c0-10.345,8.387-18.732,18.732-18.732h67.151c10.345,0,18.732,8.387,18.732,18.732   C447.188,405.226,438.801,413.612,428.457,413.612z"/>
	<path style="fill:#54C9EB;" d="M421.371,117.119l10.496-10.496c7.315-7.315,7.315-19.175,0-26.49   c-7.314-7.315-19.175-7.315-26.49,0l-10.496,10.496l-10.496-10.496c-7.314-7.315-19.175-7.315-26.49,0   c-7.315,7.315-7.315,19.175,0,26.49l10.496,10.496l-10.496,10.496c-7.315,7.315-7.315,19.175,0,26.49   c3.658,3.658,8.452,5.487,13.245,5.487s9.588-1.828,13.245-5.487l10.496-10.496l10.496,10.496   c3.658,3.658,8.452,5.487,13.245,5.487c4.793,0,9.588-1.828,13.245-5.487c7.315-7.315,7.315-19.175,0-26.49L421.371,117.119z"/>
	<circle style="fill:#54C9EB;" cx="394.877" cy="346.711" r="14.985"/>
	<circle style="fill:#54C9EB;" cx="394.877" cy="443.042" r="14.985"/>
	<path style="fill:#54C9EB;" d="M215.507,0h-98.388v234.239h98.388c10.345,0,18.732-8.387,18.732-18.732V18.732   C234.239,8.387,225.852,0,215.507,0z"/>
	<path style="fill:#54C9EB;" d="M215.507,277.761h-98.388V512h98.388c10.345,0,18.732-8.387,18.732-18.732V296.493   C234.239,286.148,225.852,277.761,215.507,277.761z"/>
</g>
<g>
	<path style="fill:#1BB3F9;" d="M150.694,98.388h-14.843V83.543c0-10.345-8.387-18.732-18.732-18.732l0,0v104.614l0,0   c10.345,0,18.732-8.387,18.732-18.732v-14.843h14.843c10.345,0,18.732-8.387,18.732-18.732S161.04,98.388,150.694,98.388z"/>
	<path style="fill:#1BB3F9;" d="M150.694,376.149h-33.575v37.463h33.575c10.345,0,18.732-8.387,18.732-18.732   C169.426,384.536,161.04,376.149,150.694,376.149z"/>
	<path style="fill:#1BB3F9;" d="M428.457,376.149h-33.575v37.463h33.575c10.345,0,18.732-8.387,18.732-18.732   C447.188,384.536,438.801,376.149,428.457,376.149z"/>
	<path style="fill:#1BB3F9;" d="M421.371,117.119l10.496-10.496c7.315-7.315,7.315-19.175,0-26.49   c-7.314-7.315-19.175-7.315-26.49,0l-10.496,10.496v52.981l10.496,10.496c3.658,3.658,8.452,5.487,13.245,5.487   s9.588-1.828,13.245-5.487c7.315-7.315,7.315-19.175,0-26.49L421.371,117.119z"/>
	<path style="fill:#1BB3F9;" d="M409.866,346.718c0-8.276-6.708-14.985-14.985-14.985v29.971   C403.158,361.703,409.866,354.993,409.866,346.718z"/>
	<path style="fill:#1BB3F9;" d="M409.866,443.044c0-8.276-6.708-14.985-14.985-14.985v29.971   C403.158,458.029,409.866,451.32,409.866,443.044z"/>
</g>
<g>
</g>
<g>
</g>
<g>
</g>
<g>
</g>
<g>
</g>
<g>
</g>
<g>
</g>
<g>
</g>
<g>
</g>
<g>
</g>
<g>
</g>
<g>
</g>
<g>
</g>
<g>
</g>
<g>
</g>
</svg>
