<?xml version="1.0" encoding="iso-8859-1"?>
<!-- Generator: Adobe Illustrator 19.0.0, SVG Export Plug-In . SVG Version: 6.00 Build 0)  -->
<svg xmlns="http://www.w3.org/2000/svg" xmlns:xlink="http://www.w3.org/1999/xlink" version="1.1" id="Layer_1" x="0px" y="0px" viewBox="0 0 512.001 512.001" style="enable-background:new 0 0 512.001 512.001;" xml:space="preserve">
<path style="fill:#008BE5;" d="M110.314,450.008H16.705c-11.325,0-19.36-11.057-15.889-21.819l40.262-124.863  c1.306-4.047,4.105-7.443,7.827-9.495l99.665-54.964c6.383-3.522,14.313-2.493,19.588,2.54  c11.624,11.091,27.104,17.008,43.388,16.374c7.778-0.289,14.662,4.749,16.736,12.204c2.076,7.455-1.243,15.359-8.02,19.097  l-55.827,30.79l-38.23,118.565C123.979,445.333,117.559,450.008,110.314,450.008z"/>
<path style="fill:#1BB3F9;" d="M116.342,198.368v-43.521c0-51.2,41.654-92.855,92.854-92.855c20.9,0,40.637,6.782,57.076,19.61  c8.568,6.687,8.549,19.654-0.002,26.324c-14.573,11.369-22.93,28.471-22.93,46.921v43.521c0,16.407,6.546,31.694,18.43,43.044  c8.149,7.781,6.394,21.255-3.468,26.693l-38.042,20.978c-2.275,1.254-4.813,1.961-7.408,2.062  C160.412,293.205,116.342,251.419,116.342,198.368z"/>
<path style="fill:#54C9EB;" d="M495.295,450.006H110.313c-11.326,0-19.36-11.057-15.889-21.819l40.262-124.86  c1.306-4.046,4.105-7.443,7.827-9.495l99.668-54.972c6.38-3.522,14.31-2.493,19.588,2.539c11.105,10.596,25.679,16.43,41.037,16.43  s29.933-5.834,41.037-16.43c5.273-5.032,13.204-6.06,19.588-2.539l99.666,54.972c3.723,2.053,6.521,5.449,7.827,9.495l40.263,124.86  C514.653,438.943,506.625,450.006,495.295,450.006z"/>
<path style="fill:#1BB3F9;" d="M511.185,428.187l-40.263-124.86c-1.306-4.046-4.105-7.443-7.827-9.495l-99.667-54.972  c-6.383-3.522-14.313-2.493-19.588,2.539c-11.105,10.596-25.679,16.43-41.037,16.43l0,0v192.176h192.491  C506.625,450.006,514.653,438.943,511.185,428.187z"/>
<path style="fill:#84DBFF;" d="M302.804,291.22c-50.754,0-92.852-40.946-92.852-92.851v-43.523  c0-51.199,41.653-92.852,92.852-92.852c51.198,0,92.851,41.653,92.851,92.852v43.523C395.655,250.205,353.621,291.22,302.804,291.22  z"/>
<path style="fill:#54C9EB;" d="M302.804,61.994L302.804,61.994v229.225l0,0c50.817,0,92.851-41.015,92.851-92.851v-43.523  C395.655,103.647,354.002,61.994,302.804,61.994z"/>
<g>
</g>
<g>
</g>
<g>
</g>
<g>
</g>
<g>
</g>
<g>
</g>
<g>
</g>
<g>
</g>
<g>
</g>
<g>
</g>
<g>
</g>
<g>
</g>
<g>
</g>
<g>
</g>
<g>
</g>
</svg>
