<?xml version="1.0" encoding="iso-8859-1"?>
<!-- Generator: Adobe Illustrator 19.0.0, SVG Export Plug-In . SVG Version: 6.00 Build 0)  -->
<svg xmlns="http://www.w3.org/2000/svg" xmlns:xlink="http://www.w3.org/1999/xlink" version="1.1" id="Layer_1" x="0px" y="0px" viewBox="0 0 512.001 512.001" style="enable-background:new 0 0 512.001 512.001;" xml:space="preserve">
<path style="fill:#84DBFF;" d="M305.084,65.014l26.224,101.555h122.631c35.137,0,62.218,31.012,57.533,65.801l-29.323,217.729  c-3.863,28.677-28.596,50.304-57.532,50.304L216.406,500.4c-7.369,0-14.578-1.379-21.426-4.1l-83.065-32.988  c-7.313-2.904-12.113-9.975-12.113-17.843V221.498c0-7.868,4.8-14.94,12.114-17.843l47.511-18.868  c15.233-6.052,23.631-22.583,19.533-38.455L167.381,101.5c-11.633-45.048,17.898-86.601,63.836-89.733  C265.364,9.419,296.498,31.767,305.084,65.014z"/>
<g>
	<path style="fill:#54C9EB;" d="M99.802,333.482v111.984c0,7.868,4.8,14.94,12.113,17.843l83.065,32.988   c6.849,2.721,14.057,4.1,21.426,4.1l208.211,0.003c28.936,0,53.67-21.627,57.532-50.304l15.706-116.615H99.802V333.482z"/>
	<path style="fill:#54C9EB;" d="M19.2,166.566h99.804c10.603,0,19.2,8.596,19.2,19.2V481.2c0,10.603-8.596,19.2-19.2,19.2H19.2   C8.596,500.4,0,491.803,0,481.2V185.766C0,175.161,8.596,166.566,19.2,166.566z"/>
</g>
<path style="fill:#1BB3F9;" d="M0,333.482v147.716c0,10.603,8.596,19.2,19.2,19.2h99.804c10.603,0,19.2-8.596,19.2-19.2V333.482H0z"/>
<g>
</g>
<g>
</g>
<g>
</g>
<g>
</g>
<g>
</g>
<g>
</g>
<g>
</g>
<g>
</g>
<g>
</g>
<g>
</g>
<g>
</g>
<g>
</g>
<g>
</g>
<g>
</g>
<g>
</g>
</svg>
