<?xml version="1.0" encoding="iso-8859-1"?>
<!-- Generator: Adobe Illustrator 19.0.0, SVG Export Plug-In . SVG Version: 6.00 Build 0)  -->
<svg xmlns="http://www.w3.org/2000/svg" xmlns:xlink="http://www.w3.org/1999/xlink" version="1.1" id="Layer_1" x="0px" y="0px" viewBox="0 0 512 512" style="enable-background:new 0 0 512 512;" xml:space="preserve">
<path style="fill:#FFE365;" d="M256,512C114.511,512,0,397.503,0,256C0,114.511,114.497,0,256,0c141.49,0,256,114.497,256,256  C512,397.49,397.503,512,256,512z"/>
<path style="fill:#FFC733;" d="M256,0v512c141.503,0,256-114.51,256-256C512,114.497,397.49,0,256,0z"/>
<path style="fill:#1C3D66;" d="M148.565,340.658l59.788-124.322c1.678-3.49,4.494-6.306,7.984-7.984l124.322-59.788  c14.494-6.972,29.755,8.267,22.777,22.777l-59.789,124.322c-1.678,3.49-4.494,6.306-7.984,7.984l-124.322,59.788  C156.816,370.424,141.61,355.122,148.565,340.658z"/>
<path style="fill:#163457;" d="M340.658,148.565L256,189.278v133.443l39.663-19.075c3.49-1.678,6.306-4.493,7.984-7.984  l59.788-124.322C370.413,156.832,355.153,141.594,340.658,148.565z"/>
<g>
</g>
<g>
</g>
<g>
</g>
<g>
</g>
<g>
</g>
<g>
</g>
<g>
</g>
<g>
</g>
<g>
</g>
<g>
</g>
<g>
</g>
<g>
</g>
<g>
</g>
<g>
</g>
<g>
</g>
</svg>
