<?xml version="1.0" encoding="iso-8859-1"?>
<!-- Generator: Adobe Illustrator 19.0.0, SVG Export Plug-In . SVG Version: 6.00 Build 0)  -->
<svg xmlns="http://www.w3.org/2000/svg" xmlns:xlink="http://www.w3.org/1999/xlink" version="1.1" id="Layer_1" x="0px" y="0px" viewBox="0 0 512 512" style="enable-background:new 0 0 512 512;" xml:space="preserve">
<path style="fill:#0F2A47;" d="M316.046,238.372c-2.654-9.043,2.525-18.528,11.569-21.182l152.893-44.882  c9.039-2.661,18.528,2.525,21.182,11.569c2.654,9.043-2.525,18.528-11.569,21.182l-152.893,44.882  C328.201,252.593,318.705,247.43,316.046,238.372z"/>
<path style="fill:#163457;" d="M256,512c-9.425,0-17.067-7.641-17.067-17.067V335.644c0-9.425,7.641-17.067,17.067-17.067  c9.425,0,17.067,7.641,17.067,17.067v159.289C273.067,504.359,265.425,512,256,512z"/>
<path style="fill:#0F2A47;" d="M256,318.578V512c9.425,0,17.067-7.641,17.067-17.067V335.644  C273.067,326.219,265.425,318.578,256,318.578z"/>
<path style="fill:#163457;" d="M174.771,249.941L21.878,205.059c-9.044-2.654-14.223-12.139-11.569-21.182  c2.654-9.045,12.141-14.222,21.182-11.569l152.893,44.882c9.044,2.654,14.223,12.139,11.569,21.182  C193.299,247.417,183.815,252.597,174.771,249.941z"/>
<path style="fill:#1C3D66;" d="M256,512C114.512,512,0,397.503,0,256C0,114.512,114.497,0,256,0c141.488,0,256,114.497,256,256  C512,397.488,397.503,512,256,512z M256,34.133C133.663,34.133,34.133,133.663,34.133,256S133.663,477.867,256,477.867  S477.867,378.337,477.867,256S378.337,34.133,256,34.133z"/>
<path style="fill:#163457;" d="M256,0v34.133c122.337,0,221.867,99.529,221.867,221.867S378.337,477.867,256,477.867V512  c141.503,0,256-114.512,256-256C512,114.497,397.488,0,256,0z"/>
<path style="fill:#1C3D66;" d="M256,352.711c-53.327,0-96.711-43.385-96.711-96.711s43.385-96.711,96.711-96.711  s96.711,43.385,96.711,96.711S309.327,352.711,256,352.711z"/>
<path style="fill:#9CC2D0;" d="M256,307.2c-28.232,0-51.2-22.968-51.2-51.2s22.968-51.2,51.2-51.2s51.2,22.968,51.2,51.2  S284.232,307.2,256,307.2z"/>
<path style="fill:#163457;" d="M256,159.289v193.422c53.327,0,96.711-43.385,96.711-96.711S309.327,159.289,256,159.289z"/>
<path style="fill:#72ABC0;" d="M256,204.8v102.4c28.232,0,51.2-22.968,51.2-51.2S284.232,204.8,256,204.8z"/>
<g>
</g>
<g>
</g>
<g>
</g>
<g>
</g>
<g>
</g>
<g>
</g>
<g>
</g>
<g>
</g>
<g>
</g>
<g>
</g>
<g>
</g>
<g>
</g>
<g>
</g>
<g>
</g>
<g>
</g>
</svg>
