<?xml version="1.0" encoding="iso-8859-1"?>
<!-- Generator: Adobe Illustrator 19.0.0, SVG Export Plug-In . SVG Version: 6.00 Build 0)  -->
<svg xmlns="http://www.w3.org/2000/svg" xmlns:xlink="http://www.w3.org/1999/xlink" version="1.1" id="Layer_1" x="0px" y="0px" viewBox="0 0 512.001 512.001" style="enable-background:new 0 0 512.001 512.001;" xml:space="preserve">
<path style="fill:#9CC2D0;" d="M255.434,136.428l-54.488-54.487c-6.663-6.663-6.652-17.483,0.028-24.13  c38.931-38.747,102.196-38.678,141.028,0.156c7.701,7.699,14.05,16.534,18.869,26.255c3.248,6.554,1.953,14.449-3.219,19.621  l-9.145,9.145c-3.73,3.731-8.978,5.524-14.213,4.854c-20.32-2.593-40.293,4.187-54.785,18.614  C272.854,143.082,262.084,143.078,255.434,136.428z"/>
<path style="fill:#C5D8DF;" d="M430.73,477.644L188.345,211.705c-6.133-6.731-5.893-17.093,0.545-23.532l28.08-28.08  c6.438-6.441,16.801-6.68,23.532-0.544l265.939,242.383c7.183,6.547,7.441,17.776,0.57,24.646l-51.634,51.634  C448.499,485.092,437.273,484.825,430.73,477.644z"/>
<path style="fill:#9CC2D0;" d="M240.502,159.55c-6.731-6.134-17.094-5.896-23.532,0.544l-14.04,14.04l278.263,278.263l25.818-25.818  c6.871-6.871,6.613-18.101-0.57-24.646L240.502,159.55z"/>
<path style="fill:#EFEFEF;" d="M145.774,255.391l-64.973-64.974c-6.656-6.655-6.656-17.446,0-24.102L195.112,52.005  c6.655-6.655,17.446-6.655,24.102,0l64.973,64.973c3.196,3.196,4.992,7.531,4.992,12.05s-1.795,8.855-4.992,12.05L169.876,255.391  C163.227,262.042,152.429,262.047,145.774,255.391z"/>
<g>
	<path style="fill:#C5D8DF;" d="M219.215,52.005c-6.655-6.655-17.447-6.656-24.102,0l-57.155,57.155l89.075,89.075l57.156-57.156   c3.197-3.195,4.992-7.531,4.992-12.05c0-4.521-1.795-8.856-4.991-12.05L219.215,52.005z"/>
	<path style="fill:#C5D8DF;" d="M106.187,331.204L4.992,230.01c-6.656-6.655-6.656-17.446,0-24.102l57.704-57.704   c6.655-6.655,17.446-6.655,24.102,0l101.194,101.194c6.656,6.655,6.656,17.446,0,24.102l-57.704,57.704   C123.632,337.859,112.842,337.859,106.187,331.204z"/>
</g>
<g>
</g>
<g>
</g>
<g>
</g>
<g>
</g>
<g>
</g>
<g>
</g>
<g>
</g>
<g>
</g>
<g>
</g>
<g>
</g>
<g>
</g>
<g>
</g>
<g>
</g>
<g>
</g>
<g>
</g>
</svg>
