<?xml version="1.0" encoding="iso-8859-1"?>
<!-- Generator: Adobe Illustrator 19.0.0, SVG Export Plug-In . SVG Version: 6.00 Build 0)  -->
<svg xmlns="http://www.w3.org/2000/svg" xmlns:xlink="http://www.w3.org/1999/xlink" version="1.1" id="Layer_1" x="0px" y="0px" viewBox="0 0 512 512" style="enable-background:new 0 0 512 512;" xml:space="preserve">
<path style="fill:#84DBFF;" d="M256,0c141.49,0,256,114.497,256,256c0,141.49-114.497,256-256,256C114.511,512,0,397.503,0,256  C0,114.511,114.497,0,256,0z"/>
<path style="fill:#54C9EB;" d="M256,0v512c141.503,0,256-114.51,256-256C512,114.497,397.49,0,256,0z"/>
<path style="fill:#EFEFEF;" d="M271.627,115.226l97.533,222.322c6.384,14.556-8.954,29.206-23.202,22.151l-89.961-44.539  l-89.961,44.539c-14.237,7.053-29.589-7.589-23.202-22.151l97.533-222.322C246.337,101.627,265.673,101.656,271.627,115.226z"/>
<path style="fill:#C5D8DF;" d="M369.161,337.549l-97.533-222.322c-2.978-6.787-9.302-10.187-15.627-10.189v210.124l89.96,44.538  C360.206,366.755,375.545,352.105,369.161,337.549z"/>
<g>
</g>
<g>
</g>
<g>
</g>
<g>
</g>
<g>
</g>
<g>
</g>
<g>
</g>
<g>
</g>
<g>
</g>
<g>
</g>
<g>
</g>
<g>
</g>
<g>
</g>
<g>
</g>
<g>
</g>
</svg>
