<?xml version="1.0" encoding="iso-8859-1"?>
<!-- Generator: Adobe Illustrator 19.0.0, SVG Export Plug-In . SVG Version: 6.00 Build 0)  -->
<svg xmlns="http://www.w3.org/2000/svg" xmlns:xlink="http://www.w3.org/1999/xlink" version="1.1" id="Layer_1" x="0px" y="0px" viewBox="0 0 512 512" style="enable-background:new 0 0 512 512;" xml:space="preserve">
<path style="fill:#EFEFEF;" d="M169.746,154.666H50.795c-9.864,0-17.86-7.997-17.86-17.86V17.86C32.935,7.997,40.931,0,50.795,0  h118.951c9.864,0,17.86,7.997,17.86,17.86v118.945C187.606,146.669,179.61,154.666,169.746,154.666z"/>
<path style="fill:#FF7976;" d="M255.889,512c-122.63-0.06-222.955-102.364-222.955-224.994V118.945h154.672v168.964  c0,37.532,29.803,68.851,67.33,69.425c38.196,0.583,69.456-30.325,69.456-68.397V118.945h154.672v169.99  C479.065,411.971,378.938,512.061,255.889,512z"/>
<path style="fill:#C5D8DF;" d="M461.205,154.666H342.254c-9.882,0-17.872-8.025-17.872-17.866V17.86  c0-9.864,7.997-17.86,17.86-17.86h118.951c9.864,0,17.86,7.997,17.86,17.86v118.287c0.008,0.217,0.012,0.433,0.012,0.651v0.006  C479.065,146.669,471.069,154.666,461.205,154.666z"/>
<path style="fill:#FF5752;" d="M324.392,118.945v169.99c0,37.718-30.683,68.384-68.392,68.387v154.678  c122.999,0,223.065-100.065,223.065-223.064v-169.99H324.392z"/>
<g>
</g>
<g>
</g>
<g>
</g>
<g>
</g>
<g>
</g>
<g>
</g>
<g>
</g>
<g>
</g>
<g>
</g>
<g>
</g>
<g>
</g>
<g>
</g>
<g>
</g>
<g>
</g>
<g>
</g>
</svg>
