<?xml version="1.0" encoding="iso-8859-1"?>
<!-- Generator: Adobe Illustrator 19.0.0, SVG Export Plug-In . SVG Version: 6.00 Build 0)  -->
<svg xmlns="http://www.w3.org/2000/svg" xmlns:xlink="http://www.w3.org/1999/xlink" version="1.1" id="Layer_1" x="0px" y="0px" viewBox="0 0 512 512" style="enable-background:new 0 0 512 512;" xml:space="preserve">
<path style="fill:#FF7976;" d="M422.116,425.037H89.884c-7.829,0-14.509-5.666-15.786-13.39L39.187,200.529  c-1.611-9.743,5.915-18.61,15.786-18.61h402.054c9.875,0,17.396,8.871,15.786,18.61l-34.911,211.118  C436.625,419.371,429.946,425.037,422.116,425.037z"/>
<g>
	<path style="fill:#FF5752;" d="M457.027,181.919H256v243.118h166.116c7.829,0,14.509-5.666,15.786-13.39l34.911-211.118   C474.422,190.791,466.902,181.919,457.027,181.919z"/>
	<path style="fill:#FF5752;" d="M317.14,308.555H194.86c-8.836,0-16-7.164-16-16c0-8.836,7.164-16,16-16h122.282   c8.836,0,16,7.164,16,16C333.141,301.391,325.978,308.555,317.14,308.555z"/>
	<path style="fill:#FF5752;" d="M317.14,362.4H194.86c-8.836,0-16-7.164-16-16c0-8.836,7.164-16,16-16h122.282   c8.836,0,16,7.164,16,16C333.141,355.236,325.978,362.4,317.14,362.4z"/>
</g>
<path style="fill:#DB3A3C;" d="M245.246,209.764l-104.61-94.955c-6.543-5.938-7.033-16.058-1.092-22.601  c5.937-6.541,16.057-7.035,22.601-1.092L256,176.31l93.856-85.193c6.546-5.939,16.665-5.45,22.601,1.092  c5.939,6.544,5.45,16.662-1.092,22.601l-104.61,94.955C260.654,215.303,251.346,215.303,245.246,209.764z"/>
<path style="fill:#C9352D;" d="M372.458,92.209c-5.936-6.543-16.055-7.033-22.601-1.092L256,176.31v37.609  c3.852,0,7.705-1.385,10.754-4.154l104.61-94.955C377.907,108.873,378.397,98.753,372.458,92.209z"/>
<path style="fill:#FF5752;" d="M496,213.918H16c-8.836,0-16-7.164-16-16c0-8.836,7.164-16,16-16h480c8.836,0,16,7.164,16,16  C512,206.754,504.836,213.918,496,213.918z"/>
<g>
	<path style="fill:#DB3A3C;" d="M496,181.918H256v32h240c8.836,0,16-7.164,16-16C512,189.082,504.836,181.918,496,181.918z"/>
	<path style="fill:#DB3A3C;" d="M317.14,276.555H256v32h61.14c8.836,0,16-7.164,16-16   C333.14,283.719,325.978,276.555,317.14,276.555z"/>
	<path style="fill:#DB3A3C;" d="M317.14,330.4H256v32h61.14c8.836,0,16-7.164,16-16C333.14,337.564,325.978,330.4,317.14,330.4z"/>
</g>
<g>
</g>
<g>
</g>
<g>
</g>
<g>
</g>
<g>
</g>
<g>
</g>
<g>
</g>
<g>
</g>
<g>
</g>
<g>
</g>
<g>
</g>
<g>
</g>
<g>
</g>
<g>
</g>
<g>
</g>
</svg>
