<?xml version="1.0" encoding="iso-8859-1"?>
<!-- Generator: Adobe Illustrator 19.0.0, SVG Export Plug-In . SVG Version: 6.00 Build 0)  -->
<svg xmlns="http://www.w3.org/2000/svg" xmlns:xlink="http://www.w3.org/1999/xlink" version="1.1" id="Layer_1" x="0px" y="0px" viewBox="0 0 512.002 512.002" style="enable-background:new 0 0 512.002 512.002;" xml:space="preserve">
<path style="fill:#EFEFEF;" d="M447.434,512H64.556c-9.22,0-16.695-7.475-16.695-16.695V16.712c0-9.22,7.475-16.695,16.695-16.695  h261.04c4.429,0,8.675,1.759,11.805,4.889l121.838,121.839c3.131,3.131,4.891,7.377,4.891,11.805v356.756  C464.129,504.527,456.654,512,447.434,512z"/>
<path style="fill:#C5D8DF;" d="M459.238,126.744L337.402,4.907c-3.131-3.131-7.377-4.889-11.805-4.889h-69.603v511.984h191.439  c9.22,0,16.695-7.475,16.695-16.695V138.55C464.129,134.122,462.37,129.875,459.238,126.744z"/>
<path style="fill:#54C9EB;" d="M361.654,440.928L244.66,323.933c-6.52-6.519-6.52-17.09,0-23.61c6.519-6.519,17.09-6.519,23.61,0  l116.995,116.995c6.52,6.519,6.52,17.09,0,23.61C378.744,447.449,368.173,447.448,361.654,440.928z"/>
<path style="fill:#84DBFF;" d="M146.959,323.933c-33.445-33.445-33.445-87.865,0-121.31s87.865-33.445,121.31,0l0,0  c33.446,33.445,33.446,87.865,0,121.31C234.824,357.378,180.405,357.379,146.959,323.933z"/>
<path style="fill:#9CC2D0;" d="M447.434,155.239H325.599c-9.22,0-16.695-7.475-16.695-16.695V16.708  c0-14.867,18.028-22.279,28.5-11.806l121.834,121.834C469.714,137.213,462.298,155.239,447.434,155.239z"/>
<path style="fill:#1BB3F9;" d="M385.265,417.317L268.269,300.322c-3.379-3.379-7.847-4.991-12.274-4.867v39.813l105.66,105.66  c6.52,6.52,17.089,6.52,23.61,0C391.785,434.409,391.785,423.837,385.265,417.317z"/>
<path style="fill:#54C9EB;" d="M268.269,202.623c-3.833-3.833-7.954-7.206-12.274-10.161v141.631  c4.322-2.955,8.441-6.328,12.274-10.161C301.715,290.488,301.715,236.067,268.269,202.623z"/>
<g>
</g>
<g>
</g>
<g>
</g>
<g>
</g>
<g>
</g>
<g>
</g>
<g>
</g>
<g>
</g>
<g>
</g>
<g>
</g>
<g>
</g>
<g>
</g>
<g>
</g>
<g>
</g>
<g>
</g>
</svg>
