<?xml version="1.0" encoding="iso-8859-1"?>
<!-- Generator: Adobe Illustrator 19.0.0, SVG Export Plug-In . SVG Version: 6.00 Build 0)  -->
<svg xmlns="http://www.w3.org/2000/svg" xmlns:xlink="http://www.w3.org/1999/xlink" version="1.1" id="Layer_1" x="0px" y="0px" viewBox="0 0 512 512" style="enable-background:new 0 0 512 512;" xml:space="preserve">
<path style="fill:#FFC733;" d="M130.327,463.05c-29.267-15.155-45.386-36.511-45.386-60.135v-97.947c0-8.836,7.164-16,16-16  s16,7.164,16,16c0,13.347,15.465,27.608,40.359,37.215c40.679,15.661,97.514,15.661,138.201-0.004  c24.883-9.602,40.348-23.863,40.348-37.21c0-8.836,7.164-16,16-16c8.836,0,16,7.164,16,16v97.947  c0,23.624-16.118,44.979-45.387,60.135C268.843,490.815,183.978,490.831,130.327,463.05z"/>
<path style="fill:#FFAF00;" d="M351.849,288.968c-8.836,0-16,7.164-16,16c0,13.347-15.465,27.608-40.348,37.21  c-20.344,7.833-44.726,11.749-69.105,11.749v129.952c34.63-0.001,69.255-6.945,96.068-20.829  c29.267-15.155,45.387-36.511,45.387-60.135v-97.947C367.849,296.132,360.686,288.968,351.849,288.968z"/>
<path style="fill:#FFE365;" d="M130.327,365.102c-22.489-11.643-37.215-26.948-42.83-44.13H16c-8.836,0-16-7.164-16-16v-99.742  c0-8.836,7.164-16,16-16h85.013c8.836,0,16,7.164,16,16c0,19.301,22.641,32.198,40.291,39.009  c40.673,15.663,97.504,15.663,138.19-0.004c17.775-6.862,40.27-19.725,40.27-39.005c0-8.836,7.164-16,16-16h35.61V174.03  c0-13.733,16.223-21.069,26.538-12.041l92.629,81.069c7.282,6.373,7.277,17.712,0,24.08l-92.629,81.069  c-10.33,9.038-26.538,1.676-26.538-12.041v-15.195h-22.081c-5.615,17.181-20.34,32.488-42.83,44.13  C268.843,392.861,183.978,392.876,130.327,365.102z"/>
<g>
	<path style="fill:#FFC733;" d="M506.541,243.061l-92.629-81.069c-10.315-9.028-26.538-1.693-26.538,12.041v15.199h-35.61   c-8.836,0-16,7.164-16,16c0,19.28-22.495,32.143-40.27,39.005c-20.343,7.834-44.722,11.75-69.099,11.75v129.941   c34.628,0,69.255-6.944,96.068-20.825c22.49-11.643,37.216-26.948,42.83-44.13h22.081v15.199c0,13.715,16.208,21.077,26.538,12.041   l92.629-81.069C513.818,260.773,513.823,249.434,506.541,243.061z"/>
	<path style="fill:#FFC733;" d="M130.327,267.156C101.06,252,84.941,230.645,84.941,207.022v-97.947c0-8.836,7.164-16,16-16   s16,7.164,16,16c0,13.347,15.465,27.608,40.359,37.214c40.679,15.661,97.514,15.661,138.201-0.004   c24.883-9.602,40.348-23.863,40.348-37.21c0-8.836,7.164-16,16-16c8.836,0,16,7.164,16,16v97.947   c0,23.624-16.118,44.979-45.387,60.134C268.843,294.919,183.978,294.935,130.327,267.156z"/>
</g>
<path style="fill:#FFAF00;" d="M351.849,93.074c-8.836,0-16,7.164-16,16c0,13.347-15.465,27.607-40.348,37.21  c-20.344,7.833-44.726,11.749-69.105,11.749v129.952c34.63-0.001,69.255-6.945,96.068-20.829  C351.73,252,367.85,230.645,367.85,207.022v-97.947C367.849,100.237,360.686,93.074,351.849,93.074z"/>
<path style="fill:#FFE365;" d="M145.791,176.147c-38.675-14.925-60.849-39.371-60.849-67.073c0-48.071,65.726-80.953,141.454-80.953  c76.171,0,141.454,33.129,141.454,80.953c0,27.703-22.175,52.148-60.839,67.068C258.796,194.704,194.015,194.712,145.791,176.147z"/>
<path style="fill:#FFC733;" d="M226.395,28.121v161.947c28.253-0.001,56.506-4.643,80.615-13.925  c38.664-14.921,60.839-39.367,60.839-67.068C367.849,61.249,302.567,28.121,226.395,28.121z"/>
<g>
</g>
<g>
</g>
<g>
</g>
<g>
</g>
<g>
</g>
<g>
</g>
<g>
</g>
<g>
</g>
<g>
</g>
<g>
</g>
<g>
</g>
<g>
</g>
<g>
</g>
<g>
</g>
<g>
</g>
</svg>
