<?xml version="1.0" encoding="iso-8859-1"?>
<!-- Generator: Adobe Illustrator 19.0.0, SVG Export Plug-In . SVG Version: 6.00 Build 0)  -->
<svg xmlns="http://www.w3.org/2000/svg" xmlns:xlink="http://www.w3.org/1999/xlink" version="1.1" id="Layer_1" x="0px" y="0px" viewBox="0 0 512 512" style="enable-background:new 0 0 512 512;" xml:space="preserve">
<path style="fill:#9CC2D0;" d="M256,179.162c-8.836,0-16-7.164-16-16V77.568c0-8.836,7.164-16,16-16c8.836,0,16,7.164,16,16v85.594  C272,171.998,264.836,179.162,256,179.162z"/>
<path style="fill:#72ABC0;" d="M256,61.568v117.594c8.836,0,16-7.164,16-16V77.568C272,68.732,264.836,61.568,256,61.568z"/>
<path style="fill:#C5D8DF;" d="M313.949,232.142H198.06c-8.836,0-16-7.164-16-16v-52.98c0-8.836,7.164-16,16-16h115.889  c8.836,0,16,7.164,16,16v52.98C329.949,224.978,322.785,232.142,313.949,232.142z"/>
<path style="fill:#9CC2D0;" d="M313.949,147.162H256v84.98h57.949c8.836,0,16-7.164,16-16v-52.98  C329.949,154.325,322.785,147.162,313.949,147.162z"/>
<path style="fill:#EFEFEF;" d="M386.855,450.432c-56.217,0-105.478-37.521-120.55-91.49h-20.61  c-15.053,53.904-64.259,91.49-120.55,91.49C56.14,450.432,0,394.292,0,325.287s56.14-125.146,125.145-125.146h261.711  c69.005,0,125.145,56.14,125.145,125.146S455.86,450.432,386.855,450.432z"/>
<path style="fill:#C5D8DF;" d="M386.855,200.142H256v158.8h10.305c15.071,53.969,64.334,91.49,120.55,91.49  c69.005,0,125.145-56.14,125.145-125.145S455.86,200.142,386.855,200.142z"/>
<path style="fill:#84DBFF;" d="M167.862,309.287h-26.718V282.57c0-8.836-7.164-16-16-16s-16,7.164-16,16v26.718H82.428  c-8.836,0-16,7.164-16,16c0,8.836,7.164,16,16,16h26.717v26.717c0,8.836,7.164,16,16,16s16-7.164,16-16v-26.717h26.718  c8.836,0,16-7.164,16-16C183.862,316.451,176.699,309.287,167.862,309.287z"/>
<g>
	<circle style="fill:#FF5752;" cx="364.267" cy="347.872" r="23.637"/>
	<circle style="fill:#FF5752;" cx="409.44" cy="302.699" r="23.637"/>
</g>
<g>
</g>
<g>
</g>
<g>
</g>
<g>
</g>
<g>
</g>
<g>
</g>
<g>
</g>
<g>
</g>
<g>
</g>
<g>
</g>
<g>
</g>
<g>
</g>
<g>
</g>
<g>
</g>
<g>
</g>
</svg>
