<?xml version="1.0" encoding="iso-8859-1"?>
<!-- Generator: Adobe Illustrator 19.0.0, SVG Export Plug-In . SVG Version: 6.00 Build 0)  -->
<svg xmlns="http://www.w3.org/2000/svg" xmlns:xlink="http://www.w3.org/1999/xlink" version="1.1" id="Layer_1" x="0px" y="0px" viewBox="0 0 512 512" style="enable-background:new 0 0 512 512;" xml:space="preserve">
<path style="fill:#1C3D66;" d="M74.221,487.524c-32.632-32.632-32.632-85.732,0-118.365l233.146-233.144  c9.756-9.756,25.573-9.756,35.328,0c9.755,9.756,9.756,25.573,0,35.328L109.55,404.488c-13.152,13.154-13.154,34.556,0,47.708  c13.152,13.154,34.556,13.154,47.708,0L401.745,207.71c36.13-36.13,36.133-94.606,0-130.738c-36.045-36.045-94.693-36.045-130.739,0  L75.829,272.148c-9.756,9.756-25.573,9.756-35.328,0s-9.756-25.573,0-35.328L235.677,41.644c55.525-55.525,145.87-55.525,201.395,0  c55.655,55.655,55.662,145.734,0,201.395L192.585,487.526C159.954,520.157,106.856,520.159,74.221,487.524z"/>
<path style="fill:#163457;" d="M437.072,41.644L437.072,41.644l-35.328,35.328l0,0c36.133,36.133,36.13,94.61,0,130.738  L157.257,452.197c-13.152,13.154-34.555,13.154-47.708,0c-13.154-13.154-13.152-34.556,0-47.708l233.146-233.146  c9.755-9.755,9.755-25.569,0.003-35.325L49.761,428.953c0.154,21.229,8.299,42.41,24.46,58.571  c32.635,32.635,85.733,32.632,118.364,0l244.487-244.487C492.734,187.378,492.727,97.297,437.072,41.644z"/>
<g>
</g>
<g>
</g>
<g>
</g>
<g>
</g>
<g>
</g>
<g>
</g>
<g>
</g>
<g>
</g>
<g>
</g>
<g>
</g>
<g>
</g>
<g>
</g>
<g>
</g>
<g>
</g>
<g>
</g>
</svg>
