<?xml version="1.0" encoding="iso-8859-1"?>
<!-- Generator: Adobe Illustrator 19.0.0, SVG Export Plug-In . SVG Version: 6.00 Build 0)  -->
<svg xmlns="http://www.w3.org/2000/svg" xmlns:xlink="http://www.w3.org/1999/xlink" version="1.1" id="Layer_1" x="0px" y="0px" viewBox="0 0 512 512" style="enable-background:new 0 0 512 512;" xml:space="preserve">
<path style="fill:#9CC2D0;" d="M255.999,512c-9.425,0-17.067-7.641-17.067-17.067V391.86c0-9.425,7.641-17.067,17.067-17.067  s17.067,7.641,17.067,17.067v103.074C273.065,504.359,265.424,512,255.999,512z"/>
<path style="fill:#72ABC0;" d="M256,374.793V512c9.425,0,17.066-7.641,17.066-17.067V391.86  C273.065,382.434,265.425,374.793,256,374.793z"/>
<path style="fill:#C5D8DF;" d="M255.999,408.926c-52.554,0-102.849-22.539-137.989-61.838c-6.283-7.027-5.68-17.816,1.346-24.098  c7.028-6.283,17.818-5.679,24.098,1.346c28.672,32.066,69.693,50.457,112.544,50.457c42.852,0,83.874-18.392,112.546-50.459  c6.283-7.027,17.071-7.63,24.098-1.347c7.027,6.283,7.63,17.071,1.347,24.098C358.85,386.386,308.554,408.926,255.999,408.926z"/>
<path style="fill:#EFEFEF;" d="M256,0c-58.63,0-107.315,43.406-115.587,99.772c-0.831,5.575-1.252,11.275-1.252,17.067v106.985  c0,5.791,0.421,11.492,1.252,17.067c8.272,56.366,56.957,99.772,115.587,99.772c64.421,0,116.838-52.417,116.838-116.838V116.838  C372.838,52.417,320.421,0,256,0z"/>
<g>
	<path style="fill:#C5D8DF;" d="M311.908,512H200.09c-9.425,0-17.067-7.641-17.067-17.067s7.641-17.067,17.067-17.067h111.819   c9.425,0,17.067,7.641,17.067,17.067S321.333,512,311.908,512z"/>
	<path style="fill:#C5D8DF;" d="M233.665,116.838c0,9.421-7.646,17.067-17.067,17.067h-77.437v-17.067   c0-5.791,0.421-11.492,1.252-17.067h76.186C226.019,99.772,233.665,107.406,233.665,116.838z"/>
	<path style="fill:#C5D8DF;" d="M233.665,223.824c0,9.421-7.646,17.067-17.067,17.067h-76.186   c-0.831-5.575-1.252-11.275-1.252-17.067v-17.067h77.437C226.019,206.757,233.665,214.391,233.665,223.824z"/>
	<path style="fill:#C5D8DF;" d="M233.665,170.325c0,9.432-7.646,17.067-17.067,17.067h-77.437v-34.133h77.437   C226.019,153.259,233.665,160.905,233.665,170.325z"/>
</g>
<path style="fill:#9CC2D0;" d="M392.644,322.987c-7.027-6.282-17.815-5.68-24.098,1.347  c-28.672,32.067-69.693,50.459-112.546,50.459v34.133c52.555,0,102.851-22.54,137.991-61.842  C400.272,340.058,399.669,329.268,392.644,322.987z"/>
<path style="fill:#C5D8DF;" d="M256,0v340.662c64.421,0,116.838-52.417,116.838-116.838V116.838C372.838,52.417,320.421,0,256,0z"/>
<path style="fill:#9CC2D0;" d="M311.908,477.867H256V512h55.908c9.425,0,17.067-7.641,17.067-17.067  S321.333,477.867,311.908,477.867z"/>
<g>
</g>
<g>
</g>
<g>
</g>
<g>
</g>
<g>
</g>
<g>
</g>
<g>
</g>
<g>
</g>
<g>
</g>
<g>
</g>
<g>
</g>
<g>
</g>
<g>
</g>
<g>
</g>
<g>
</g>
</svg>
