<?xml version="1.0" encoding="iso-8859-1"?>
<!-- Generator: Adobe Illustrator 19.0.0, SVG Export Plug-In . SVG Version: 6.00 Build 0)  -->
<svg xmlns="http://www.w3.org/2000/svg" xmlns:xlink="http://www.w3.org/1999/xlink" version="1.1" id="Layer_1" x="0px" y="0px" viewBox="0 0 512 512" style="enable-background:new 0 0 512 512;" xml:space="preserve">
<path style="fill:#EFEFEF;" d="M422.957,512H89.043c-9.22,0-16.696-7.475-16.696-16.696V16.696C72.348,7.475,79.823,0,89.043,0  h333.913c9.22,0,16.696,7.475,16.696,16.696v478.609C439.652,504.525,432.177,512,422.957,512z"/>
<path style="fill:#C5D8DF;" d="M422.957,0H256v512h166.957c9.22,0,16.696-7.475,16.696-16.696V16.696  C439.652,7.475,432.177,0,422.957,0z"/>
<path style="fill:#FF7976;" d="M248.106,345.2c-58.622-31.453-90.907-71.95-90.907-114.03c0-61.689,61.047-83.377,98.794-52.41  c37.64-30.941,98.806-9.578,98.806,52.41c0,42.08-32.285,82.576-90.907,114.03C258.962,347.846,253.037,347.845,248.106,345.2z"/>
<path style="fill:#FF5752;" d="M256,178.755v168.429c2.714,0,5.427-0.661,7.894-1.983c58.622-31.453,90.907-71.95,90.907-114.03  C354.8,169.186,293.641,147.822,256,178.755z"/>
<g>
</g>
<g>
</g>
<g>
</g>
<g>
</g>
<g>
</g>
<g>
</g>
<g>
</g>
<g>
</g>
<g>
</g>
<g>
</g>
<g>
</g>
<g>
</g>
<g>
</g>
<g>
</g>
<g>
</g>
</svg>
