<?xml version="1.0" encoding="iso-8859-1"?>
<!-- Generator: Adobe Illustrator 19.0.0, SVG Export Plug-In . SVG Version: 6.00 Build 0)  -->
<svg xmlns="http://www.w3.org/2000/svg" xmlns:xlink="http://www.w3.org/1999/xlink" version="1.1" id="Layer_1" x="0px" y="0px" viewBox="0 0 512 512" style="enable-background:new 0 0 512 512;" xml:space="preserve">
<path style="fill:#1C3D66;" d="M366.36,147.506c-9.425,0-17.067-7.641-17.067-17.067V71.673H162.707v58.766  c0,9.425-7.641,17.067-17.067,17.067c-9.425,0-17.067-7.641-17.067-17.067V54.606c0-9.425,7.641-17.067,17.067-17.067h220.719  c9.425,0,17.067,7.641,17.067,17.067v75.833C383.427,139.865,375.785,147.506,366.36,147.506z"/>
<path style="fill:#163457;" d="M366.36,37.539H256v34.133h93.293v58.766c0,9.425,7.641,17.067,17.067,17.067  c9.425,0,17.067-7.641,17.067-17.067V54.605C383.427,45.18,375.785,37.539,366.36,37.539z"/>
<path style="fill:#FF7976;" d="M472.178,474.461H39.822C17.864,474.461,0,456.597,0,434.639v-281.45  c0-21.958,17.864-39.822,39.822-39.822h432.356c21.958,0,39.822,17.864,39.822,39.822v281.45  C512,456.597,494.136,474.461,472.178,474.461z"/>
<g>
	<path style="fill:#FF5752;" d="M472.178,113.367H256v361.094h216.178c21.958,0,39.822-17.864,39.822-39.822v-281.45   C512,131.231,494.136,113.367,472.178,113.367z"/>
	<path style="fill:#FF5752;" d="M405.932,234.383H106.068c-9.425,0-17.067-7.641-17.067-17.067s7.641-17.067,17.067-17.067h299.864   c9.425,0,17.067,7.641,17.067,17.067S415.357,234.383,405.932,234.383z"/>
	<path style="fill:#FF5752;" d="M405.932,310.981H106.068c-9.425,0-17.067-7.641-17.067-17.067c0-9.425,7.641-17.067,17.067-17.067   h299.864c9.425,0,17.067,7.641,17.067,17.067C422.998,303.34,415.357,310.981,405.932,310.981z"/>
	<path style="fill:#FF5752;" d="M405.932,387.578H106.068c-9.425,0-17.067-7.641-17.067-17.067s7.641-17.067,17.067-17.067h299.864   c9.425,0,17.067,7.641,17.067,17.067S415.357,387.578,405.932,387.578z"/>
</g>
<g>
	<path style="fill:#DB3A3C;" d="M405.932,200.25H256v34.133h149.932c9.425,0,17.067-7.641,17.067-17.067   S415.357,200.25,405.932,200.25z"/>
	<path style="fill:#DB3A3C;" d="M405.932,276.848H256v34.133h149.932c9.425,0,17.067-7.641,17.067-17.067   C422.998,284.489,415.357,276.848,405.932,276.848z"/>
	<path style="fill:#DB3A3C;" d="M405.932,353.445H256v34.133h149.932c9.425,0,17.067-7.641,17.067-17.067   S415.357,353.445,405.932,353.445z"/>
</g>
<g>
</g>
<g>
</g>
<g>
</g>
<g>
</g>
<g>
</g>
<g>
</g>
<g>
</g>
<g>
</g>
<g>
</g>
<g>
</g>
<g>
</g>
<g>
</g>
<g>
</g>
<g>
</g>
<g>
</g>
</svg>
