<?xml version="1.0" encoding="iso-8859-1"?>
<!-- Generator: Adobe Illustrator 19.0.0, SVG Export Plug-In . SVG Version: 6.00 Build 0)  -->
<svg xmlns="http://www.w3.org/2000/svg" xmlns:xlink="http://www.w3.org/1999/xlink" version="1.1" id="Layer_1" x="0px" y="0px" viewBox="0 0 512 512" style="enable-background:new 0 0 512 512;" xml:space="preserve">
<path style="fill:#163457;" d="M69.625,476.028c-70.48-70.479-29.57-216.489,80.704-326.763  c69.849-69.85,154.779-113.004,227.184-115.438c9.413-0.292,17.311,7.062,17.628,16.482c0.316,9.42-7.062,17.311-16.481,17.629  c-73.408,2.466-151.671,52.934-204.198,105.46c-98.12,98.12-134.577,224.624-80.704,278.498  c67.152,67.152,206.96-9.168,278.498-80.704c106.849-106.848,139.58-246.047,65.924-289.99c-8.093-4.828-10.74-15.303-5.912-23.396  c4.828-8.093,15.303-10.741,23.396-5.912c7.825,4.668,15.034,10.276,21.427,16.67c70.422,70.421,29.669,216.391-80.703,326.763  C285.525,506.185,139.818,546.22,69.625,476.028z"/>
<g>
	<path style="fill:#0F2A47;" d="M378.66,67.937c9.418-0.316,16.798-8.209,16.481-17.629c-0.316-9.418-8.215-16.774-17.628-16.482   c-32.989,1.109-68.577,10.695-104.155,27.383v38.18C307.339,81.278,343.554,69.117,378.66,67.937z"/>
	<path style="fill:#0F2A47;" d="M477.091,68.561c-6.393-6.393-13.603-12.002-21.427-16.67c-8.093-4.829-18.568-2.181-23.396,5.912   c-4.828,8.094-2.181,18.569,5.912,23.396c73.656,43.943,40.925,183.142-65.924,289.99c-26.14,26.14-61.4,52.911-98.897,73.095   v39.04c42.134-19.767,84.668-49.641,123.03-88.003C506.76,284.952,547.513,138.982,477.091,68.561z"/>
</g>
<path style="fill:#1C3D66;" d="M150.329,395.323c-53.21-53.21-91.345-115.511-107.378-175.426  c-2.437-9.103,2.969-18.459,12.074-20.896c9.102-2.439,18.459,2.969,20.896,12.074c14.508,54.215,49.504,111.079,98.541,160.116  c98.237,98.236,224.671,134.527,278.498,80.704c67.152-67.153-9.166-206.961-80.703-278.498  C274.12,75.264,147.621,38.829,93.757,92.693c-13.447,13.446-21.53,31.612-24.024,53.994c-1.043,9.366-9.48,16.117-18.85,15.069  c-9.366-1.044-16.113-9.483-15.069-18.85c3.375-30.272,14.75-55.286,33.811-74.346c70.482-70.482,216.495-29.562,326.763,80.704  c110.437,110.436,151.088,256.38,80.703,326.763C406.208,546.912,259.929,504.923,150.329,395.323z"/>
<path style="fill:#163457;" d="M396.388,149.265c-38.256-38.256-80.815-68.155-123.03-87.961v38.165  c33.669,17.805,67.715,42.746,98.897,73.929c71.537,71.536,147.855,211.345,80.703,278.498  c-36.732,36.729-107.278,31.483-179.6-6.767v38.135c79.253,37.202,157.518,38.98,203.733-7.236  C547.475,405.645,506.825,259.701,396.388,149.265z"/>
<path style="fill:#FFE365;" d="M273.358,346.424c-40.875,0-74.13-33.254-74.13-74.13s33.254-74.13,74.13-74.13  c40.875,0,74.129,33.254,74.129,74.13S314.233,346.424,273.358,346.424z"/>
<path style="fill:#FFC733;" d="M273.358,198.165L273.358,198.165v148.259l0,0c40.875,0,74.129-33.254,74.129-74.13  S314.233,198.165,273.358,198.165z"/>
<path style="fill:#84DBFF;" d="M360.992,53.618c0-26.131,18.079-52.584,52.632-52.584c36.91,0,62.489,37.147,49.229,71.627l0,0  C442.646,125.309,360.992,114.333,360.992,53.618z"/>
<path style="fill:#FF7976;" d="M0,180.462c0-29.075,23.655-52.73,52.73-52.73c29.105,0.042,52.73,23.697,52.73,52.73  c0,25.281-17.992,47.048-42.787,51.778C30.523,238.542,0,213.8,0,180.462z"/>
<path style="fill:#FF5752;" d="M52.73,127.732v105.474c3.276-0.009,6.599-0.311,9.943-0.966  c24.796-4.73,42.787-26.496,42.787-51.778C105.46,151.429,81.836,127.774,52.73,127.732z"/>
<path style="fill:#54C9EB;" d="M413.695,1.036v105.346c20.162-0.08,40.413-10.938,49.157-33.722  C476.103,38.204,450.567,1.085,413.695,1.036z"/>
<g>
</g>
<g>
</g>
<g>
</g>
<g>
</g>
<g>
</g>
<g>
</g>
<g>
</g>
<g>
</g>
<g>
</g>
<g>
</g>
<g>
</g>
<g>
</g>
<g>
</g>
<g>
</g>
<g>
</g>
</svg>
