<?xml version="1.0" encoding="iso-8859-1"?>
<!-- Generator: Adobe Illustrator 19.0.0, SVG Export Plug-In . SVG Version: 6.00 Build 0)  -->
<svg xmlns="http://www.w3.org/2000/svg" xmlns:xlink="http://www.w3.org/1999/xlink" version="1.1" id="Layer_1" x="0px" y="0px" viewBox="0 0 512 512" style="enable-background:new 0 0 512 512;" xml:space="preserve">
<path style="fill:#FFE365;" d="M58.275,461.866l41-49.199C36.742,371.498,0,308.278,0,240.167C0,117.487,117.017,22.092,256,22.092  c139.009,0,256,95.417,256,218.074c0,140.19-151.386,241.479-308.761,213.438L75.986,489.227  C59.765,493.764,47.665,474.597,58.275,461.866z"/>
<g>
	<path style="fill:#FFC733;" d="M512,240.167C512,117.51,395.009,22.092,256,22.092v436.18C392.806,458.309,512,364.56,512,240.167z   "/>
	<path style="fill:#FFC733;" d="M256,377.584c-50.365,0-91.339-40.975-91.339-91.339c0-9.425,7.641-17.067,17.067-17.067   c9.425,0,17.067,7.641,17.067,17.067c0,31.544,25.663,57.205,57.205,57.205s57.205-25.663,57.205-57.205   c0-9.425,7.641-17.067,17.067-17.067s17.067,7.641,17.067,17.067C347.339,336.609,306.365,377.584,256,377.584z"/>
</g>
<g>
	<path style="fill:#163457;" d="M279.867,207.259h-47.733c-9.425,0-17.067-7.641-17.067-17.067c0-9.425,7.641-17.067,17.067-17.067   h47.733c9.425,0,17.067,7.641,17.067,17.067C296.934,199.617,289.293,207.259,279.867,207.259z"/>
	<path style="fill:#163457;" d="M151.295,207.259H131.85c-9.425,0-17.067-7.641-17.067-17.067c0-9.425,7.641-17.067,17.067-17.067   h19.445c9.425,0,17.067,7.641,17.067,17.067C168.362,199.617,160.72,207.259,151.295,207.259z"/>
</g>
<path style="fill:#1C3D66;" d="M191.713,247.678c-31.697,0-57.485-25.789-57.485-57.486s25.788-57.486,57.485-57.486  s57.486,25.789,57.486,57.486S223.411,247.678,191.713,247.678z"/>
<path style="fill:#FFAF00;" d="M330.272,269.179c-9.425,0-17.067,7.641-17.067,17.067c0,31.544-25.663,57.205-57.205,57.205v34.133  c50.365,0,91.339-40.975,91.339-91.339C347.339,276.819,339.698,269.179,330.272,269.179z"/>
<g>
	<path style="fill:#0F2A47;" d="M279.867,173.125H256v34.133h23.867c9.425,0,17.067-7.641,17.067-17.067   C296.934,180.767,289.293,173.125,279.867,173.125z"/>
	<path style="fill:#0F2A47;" d="M380.142,207.259h-19.443c-9.425,0-17.067-7.641-17.067-17.067c0-9.425,7.641-17.067,17.067-17.067   h19.443c9.425,0,17.067,7.641,17.067,17.067C397.208,199.617,389.568,207.259,380.142,207.259z"/>
</g>
<path style="fill:#163457;" d="M320.287,247.678c-31.697,0-57.486-25.789-57.486-57.486s25.789-57.486,57.486-57.486  s57.485,25.789,57.485,57.486S351.984,247.678,320.287,247.678z"/>
<g>
</g>
<g>
</g>
<g>
</g>
<g>
</g>
<g>
</g>
<g>
</g>
<g>
</g>
<g>
</g>
<g>
</g>
<g>
</g>
<g>
</g>
<g>
</g>
<g>
</g>
<g>
</g>
<g>
</g>
</svg>
