<?xml version="1.0" encoding="iso-8859-1"?>
<!-- Generator: Adobe Illustrator 19.0.0, SVG Export Plug-In . SVG Version: 6.00 Build 0)  -->
<svg xmlns="http://www.w3.org/2000/svg" xmlns:xlink="http://www.w3.org/1999/xlink" version="1.1" id="Layer_1" x="0px" y="0px" viewBox="0 0 512 512" style="enable-background:new 0 0 512 512;" xml:space="preserve">
<path style="fill:#72ABC0;" d="M330.373,145.432c-9.425,0-17.067-7.641-17.067-17.067V17.067C313.306,7.641,320.948,0,330.373,0  c9.425,0,17.067,7.641,17.067,17.067v111.299C347.44,137.791,339.798,145.432,330.373,145.432z"/>
<g>
	<path style="fill:#9CC2D0;" d="M181.614,145.432c-9.425,0-17.067-7.641-17.067-17.067V17.067C164.548,7.641,172.189,0,181.614,0   c9.425,0,17.067,7.641,17.067,17.067v111.299C198.681,137.791,191.04,145.432,181.614,145.432z"/>
	<path style="fill:#9CC2D0;" d="M256,512c-9.425,0-17.067-7.641-17.067-17.067v-59.756c0-9.425,7.641-17.067,17.067-17.067   s17.067,7.641,17.067,17.067v59.756C273.067,504.359,265.425,512,256,512z"/>
</g>
<path style="fill:#72ABC0;" d="M256,418.111V512c9.425,0,17.067-7.641,17.067-17.067v-59.756  C273.067,425.752,265.425,418.111,256,418.111z"/>
<path style="fill:#C5D8DF;" d="M299.486,452.244h-86.972c-9.425,0-17.067-7.641-17.067-17.067v-54.509  c0-9.425,7.641-17.067,17.067-17.067h86.971c9.425,0,17.067,7.641,17.067,17.067v54.509  C316.553,444.603,308.911,452.244,299.486,452.244z"/>
<path style="fill:#9CC2D0;" d="M299.486,363.602H256v88.642h43.486c9.425,0,17.067-7.641,17.067-17.067v-54.509  C316.553,371.243,308.911,363.602,299.486,363.602z"/>
<path style="fill:#EFEFEF;" d="M342.393,397.735H169.607c-6.256,0-12.01-3.422-14.997-8.919L92.666,274.794  c-1.359-2.501-2.07-5.301-2.07-8.148V128.358c0-9.425,7.641-17.067,17.067-17.067h296.673c9.425,0,17.067,7.641,17.067,17.067  v138.288c0,2.846-0.711,5.647-2.07,8.148L357.39,388.815C354.402,394.312,348.648,397.735,342.393,397.735z"/>
<g>
	<path style="fill:#C5D8DF;" d="M404.337,111.292H256v286.442h86.393c6.255,0,12.01-3.422,14.997-8.919l61.944-114.021   c1.359-2.501,2.07-5.301,2.07-8.148V128.358C421.403,118.933,413.762,111.292,404.337,111.292z"/>
	<path style="fill:#C5D8DF;" d="M308.556,340.846H203.444c-6.255,0-12.01-3.422-14.997-8.919l-38.892-71.588   c-1.359-2.501-2.07-5.301-2.07-8.148v-66.943c0-9.425,7.641-17.067,17.067-17.067h182.895c9.425,0,17.067,7.641,17.067,17.067   v66.943c0,2.846-0.711,5.647-2.07,8.148l-38.892,71.588C320.567,337.423,314.812,340.846,308.556,340.846z"/>
	<path style="fill:#C5D8DF;" d="M452.26,145.432H59.74c-9.425,0-17.067-7.641-17.067-17.067c0-9.425,7.641-17.067,17.067-17.067   h392.519c9.425,0,17.067,7.641,17.067,17.067C469.325,137.791,461.685,145.432,452.26,145.432z"/>
</g>
<g>
	<path style="fill:#9CC2D0;" d="M347.448,168.181H256v172.665h52.556c6.255,0,12.01-3.422,14.997-8.919l38.892-71.588   c1.359-2.501,2.07-5.301,2.07-8.148v-66.943C364.514,175.822,356.873,168.181,347.448,168.181z"/>
	<path style="fill:#9CC2D0;" d="M452.26,111.299H256v34.133h196.26c9.425,0,17.067-7.641,17.067-17.067   C469.327,118.94,461.685,111.299,452.26,111.299z"/>
</g>
<g>
</g>
<g>
</g>
<g>
</g>
<g>
</g>
<g>
</g>
<g>
</g>
<g>
</g>
<g>
</g>
<g>
</g>
<g>
</g>
<g>
</g>
<g>
</g>
<g>
</g>
<g>
</g>
<g>
</g>
</svg>
