<?xml version="1.0" encoding="iso-8859-1"?>
<!-- Generator: Adobe Illustrator 19.0.0, SVG Export Plug-In . SVG Version: 6.00 Build 0)  -->
<svg xmlns="http://www.w3.org/2000/svg" xmlns:xlink="http://www.w3.org/1999/xlink" version="1.1" id="Layer_1" x="0px" y="0px" viewBox="0 0 512 512" style="enable-background:new 0 0 512 512;" xml:space="preserve">
<path style="fill:#FFE365;" d="M96.033,512c-0.335,0-0.671-0.009-1.007-0.026l-72.625-3.712  c-10.088-0.516-18.148-8.577-18.664-18.664l-3.711-72.624c-0.285-5.565,1.803-10.991,5.743-14.932l203.805-203.805  c-15.977-53.946-1.375-112.808,38.894-153.077c60.21-60.212,158.178-60.213,218.38-0.009c60.205,60.205,60.201,158.17-0.009,218.38  c-40.271,40.267-99.131,54.871-153.077,38.894L109.957,506.23C106.256,509.934,101.242,512,96.033,512z"/>
<g>
	<path style="fill:#FFC733;" d="M466.848,45.151L466.848,45.151L9.481,502.518c3.34,3.342,7.878,5.486,12.921,5.743l72.624,3.712   c0.336,0.017,0.672,0.026,1.007,0.026c5.209,0,10.223-2.065,13.924-5.768l203.805-203.805   c53.946,15.977,112.806,1.373,153.077-38.894C527.049,203.321,527.053,105.357,466.848,45.151z"/>
	<path style="fill:#FFC733;" d="M389.664,129.139l-6.205,18.301c-0.832,2.455-0.404,5.164,1.148,7.241l11.557,15.487   c3.905,5.234,0.114,12.673-6.414,12.589l-19.322-0.247c-2.593-0.033-5.035,1.212-6.532,3.328l-11.158,15.777   c-3.77,5.331-12.017,4.024-13.955-2.21l-5.737-18.453c-0.769-2.476-2.709-4.414-5.185-5.185l-18.453-5.737   c-6.235-1.938-7.542-10.185-2.21-13.955l15.777-11.158c2.117-1.497,3.361-3.94,3.328-6.532l-0.247-19.322   c-0.084-6.53,7.355-10.32,12.589-6.414l15.487,11.557c2.078,1.551,4.786,1.98,7.241,1.148l18.301-6.205   C385.858,117.052,391.761,122.956,389.664,129.139z"/>
</g>
<g>
	<path style="fill:#FFAF00;" d="M96.376,415.439c-0.528,0.528-1.012,1.083-1.468,1.654l3.121-3.121   C97.459,414.426,96.904,414.911,96.376,415.439z"/>
	<path style="fill:#FFAF00;" d="M124.228,415.439c-7.162-7.162-18.467-7.647-26.2-1.468l-3.121,3.121   c-6.179,7.732-5.696,19.036,1.468,26.198l38.261,38.261l27.853-27.853L124.228,415.439z"/>
	<path style="fill:#FFAF00;" d="M139.581,372.233c-0.528,0.528-1.012,1.083-1.468,1.653l3.121-3.121   C140.665,371.221,140.109,371.704,139.581,372.233z"/>
	<path style="fill:#FFAF00;" d="M167.434,372.232c-7.162-7.162-18.467-7.647-26.2-1.467l-3.121,3.121   c-6.18,7.732-5.696,19.036,1.468,26.198l38.262,38.261l27.853-27.853L167.434,372.232z"/>
	<path style="fill:#FFAF00;" d="M389.748,182.758c6.53,0.083,10.319-7.355,6.414-12.589l-11.557-15.487   c-1.551-2.078-1.98-4.786-1.148-7.241l6.207-18.301c0.764-2.254,0.457-4.467-0.532-6.274l-56.69,56.69   c0.239,0.444,0.449,0.906,0.603,1.396l5.737,18.453c1.938,6.235,10.185,7.542,13.955,2.211l11.158-15.777   c1.497-2.117,3.94-3.361,6.532-3.328L389.748,182.758z"/>
</g>
<g>
</g>
<g>
</g>
<g>
</g>
<g>
</g>
<g>
</g>
<g>
</g>
<g>
</g>
<g>
</g>
<g>
</g>
<g>
</g>
<g>
</g>
<g>
</g>
<g>
</g>
<g>
</g>
<g>
</g>
</svg>
