<?xml version="1.0" encoding="iso-8859-1"?>
<!-- Generator: Adobe Illustrator 19.0.0, SVG Export Plug-In . SVG Version: 6.00 Build 0)  -->
<svg xmlns="http://www.w3.org/2000/svg" xmlns:xlink="http://www.w3.org/1999/xlink" version="1.1" id="Layer_1" x="0px" y="0px" viewBox="0 0 512 512" style="enable-background:new 0 0 512 512;" xml:space="preserve">
<path style="fill:#C5D8DF;" d="M85.168,122.018c-8.023,0-15.098-5.799-16.451-13.974l-6.403-38.717H16.696  C7.475,69.327,0,61.852,0,52.632s7.475-16.696,16.696-16.696h59.78c8.17,0,15.14,5.912,16.472,13.972l8.713,52.689  C103.338,112.74,95.522,122.018,85.168,122.018z"/>
<path style="fill:#EFEFEF;" d="M459.691,337.365H120.799c-8.17,0-15.14-5.912-16.472-13.972l-35.61-215.349  c-1.681-10.168,6.172-19.419,16.472-19.419h410.113c10.306,0,18.151,9.257,16.472,19.419l-35.61,215.349  C474.829,331.453,467.86,337.365,459.691,337.365z"/>
<g>
	<path style="fill:#C5D8DF;" d="M495.301,88.625H290.244v248.74H459.69c8.17,0,15.14-5.912,16.472-13.972l35.61-215.349   C513.453,97.882,505.607,88.625,495.301,88.625z"/>
	<path style="fill:#C5D8DF;" d="M212.391,476.063c-32.102,0-58.22-26.116-58.22-58.218s26.117-58.22,58.22-58.22   s58.22,26.117,58.22,58.22S244.493,476.063,212.391,476.063z"/>
	<path style="fill:#C5D8DF;" d="M370.042,476.063c-32.102,0-58.22-26.116-58.22-58.218s26.117-58.22,58.22-58.22   s58.218,26.117,58.218,58.22S402.144,476.063,370.042,476.063z"/>
	<path style="fill:#C5D8DF;" d="M290.245,267.064c-9.22,0-16.696-7.475-16.696-16.696v-74.747c0-9.22,7.475-16.696,16.696-16.696   c9.22,0,16.696,7.475,16.696,16.696v74.747C306.941,259.589,299.466,267.064,290.245,267.064z"/>
	<path style="fill:#C5D8DF;" d="M212.391,267.064c-9.22,0-16.696-7.475-16.696-16.696v-74.747c0-9.22,7.475-16.696,16.696-16.696   c9.22,0,16.696,7.475,16.696,16.696v74.747C229.086,259.589,221.611,267.064,212.391,267.064z"/>
</g>
<g>
	<path style="fill:#9CC2D0;" d="M290.244,158.926v108.138c9.22,0,16.696-7.475,16.696-16.696v-74.747   C306.94,166.401,299.466,158.926,290.244,158.926z"/>
	<path style="fill:#9CC2D0;" d="M368.099,267.064c-9.22,0-16.696-7.475-16.696-16.696v-74.747c0-9.22,7.475-16.696,16.696-16.696   s16.696,7.475,16.696,16.696v74.747C384.794,259.589,377.319,267.064,368.099,267.064z"/>
	<path style="fill:#9CC2D0;" d="M212.391,359.626v116.438c32.102,0,58.22-26.116,58.22-58.218S244.493,359.626,212.391,359.626z"/>
	<path style="fill:#9CC2D0;" d="M370.041,359.626v116.438c32.102,0,58.22-26.116,58.22-58.218S402.143,359.626,370.041,359.626z"/>
</g>
<g>
</g>
<g>
</g>
<g>
</g>
<g>
</g>
<g>
</g>
<g>
</g>
<g>
</g>
<g>
</g>
<g>
</g>
<g>
</g>
<g>
</g>
<g>
</g>
<g>
</g>
<g>
</g>
<g>
</g>
</svg>
