<?xml version="1.0" encoding="iso-8859-1"?>
<!-- Generator: Adobe Illustrator 19.0.0, SVG Export Plug-In . SVG Version: 6.00 Build 0)  -->
<svg xmlns="http://www.w3.org/2000/svg" xmlns:xlink="http://www.w3.org/1999/xlink" version="1.1" id="Layer_1" x="0px" y="0px" viewBox="0 0 512 512" style="enable-background:new 0 0 512 512;" xml:space="preserve">
<path style="fill:#EFEFEF;" d="M256,0C114.509,0,0,114.497,0,256c0,141.491,114.497,256,256,256c141.491,0,256-114.497,256-256  C512,114.509,397.503,0,256,0z M256,352.711c-53.327,0-96.711-43.385-96.711-96.711s43.385-96.711,96.711-96.711  s96.711,43.385,96.711,96.711S309.327,352.711,256,352.711z"/>
<g>
	<path style="fill:#C5D8DF;" d="M19.88,156.762l143.36,71.931c9.26-31.402,34.051-56.193,65.454-65.454L156.762,19.88   C95.378,45.685,45.705,95.331,19.88,156.762z"/>
	<path style="fill:#C5D8DF;" d="M256,0v159.289c53.327,0,96.711,43.385,96.711,96.711S309.327,352.711,256,352.711V512   c141.491,0,256-114.497,256-256C512,114.509,397.503,0,256,0z"/>
</g>
<g>
</g>
<g>
</g>
<g>
</g>
<g>
</g>
<g>
</g>
<g>
</g>
<g>
</g>
<g>
</g>
<g>
</g>
<g>
</g>
<g>
</g>
<g>
</g>
<g>
</g>
<g>
</g>
<g>
</g>
</svg>
