<?xml version="1.0" encoding="iso-8859-1"?>
<!-- Generator: Adobe Illustrator 19.0.0, SVG Export Plug-In . SVG Version: 6.00 Build 0)  -->
<svg xmlns="http://www.w3.org/2000/svg" xmlns:xlink="http://www.w3.org/1999/xlink" version="1.1" id="Layer_1" x="0px" y="0px" viewBox="0 0 512 512" style="enable-background:new 0 0 512 512;" xml:space="preserve">
<path style="fill:#54C9EB;" d="M493.268,512H18.732C8.387,512,0,503.613,0,493.268V18.732C0,8.387,8.387,0,18.732,0h355.902  c4.969,0,9.733,1.973,13.245,5.486L506.513,124.12c3.514,3.514,5.487,8.278,5.487,13.246v355.902  C512,503.613,503.613,512,493.268,512z"/>
<path style="fill:#1BB3F9;" d="M506.513,124.12L387.879,5.486C384.367,1.973,379.603,0,374.634,0H256v512h237.268  c10.345,0,18.732-8.387,18.732-18.732V137.366C512,132.398,510.027,127.634,506.513,124.12z"/>
<g>
	<path style="fill:#84DBFF;" d="M437.914,512H74.086V298.204c0-10.345,8.387-18.732,18.732-18.732h326.364   c10.345,0,18.732,8.387,18.732,18.732V512z"/>
	<path style="fill:#84DBFF;" d="M137.366,185.75h237.268c10.345,0,18.732-8.387,18.732-18.732V10.973l-5.487-5.487   C384.367,1.973,379.603,0,374.634,0h-256v167.018C118.634,177.363,127.021,185.75,137.366,185.75z"/>
</g>
<g>
	<path style="fill:#54C9EB;" d="M437.914,298.204c0-10.345-8.387-18.732-18.732-18.732H256V512h181.914V298.204z"/>
	<path style="fill:#54C9EB;" d="M387.879,5.486C384.367,1.973,379.603,0,374.634,0H256v185.75h118.634   c10.345,0,18.732-8.387,18.732-18.732V10.973L387.879,5.486z"/>
</g>
<path style="fill:#1BB3F9;" d="M309.514,130.735c-10.345,0-18.732-8.387-18.732-18.732V73.747c0-10.345,8.387-18.732,18.732-18.732  c10.345,0,18.732,8.387,18.732,18.732v38.256C328.246,122.349,319.859,130.735,309.514,130.735z"/>
<g>
</g>
<g>
</g>
<g>
</g>
<g>
</g>
<g>
</g>
<g>
</g>
<g>
</g>
<g>
</g>
<g>
</g>
<g>
</g>
<g>
</g>
<g>
</g>
<g>
</g>
<g>
</g>
<g>
</g>
</svg>
