<?xml version="1.0" encoding="iso-8859-1"?>
<!-- Generator: Adobe Illustrator 19.0.0, SVG Export Plug-In . SVG Version: 6.00 Build 0)  -->
<svg xmlns="http://www.w3.org/2000/svg" xmlns:xlink="http://www.w3.org/1999/xlink" version="1.1" id="Layer_1" x="0px" y="0px" viewBox="0 0 512 512" style="enable-background:new 0 0 512 512;" xml:space="preserve">
<path style="fill:#EFEFEF;" d="M493.268,512H18.732C8.387,512,0,503.613,0,493.268V18.732C0,8.387,8.387,0,18.732,0h474.537  C503.613,0,512,8.387,512,18.732v474.537C512,503.613,503.613,512,493.268,512z"/>
<g>
	<path style="fill:#C5D8DF;" d="M493.268,0H256v512h237.268c10.345,0,18.732-8.387,18.732-18.732V18.732   C512,8.387,503.613,0,493.268,0z"/>
	<path style="fill:#C5D8DF;" d="M512,156.098v-37.463H399.61V0c-8.953,0-268.083,0-287.219,0v118.634H0v37.463h112.39v81.171H0   v37.463h112.39v81.171H0v37.463h112.39V512c13.562,0,271.434,0,287.219,0V393.366H512v-37.463H399.61v-81.171H512v-37.463H399.61   v-81.171H512z"/>
</g>
<path style="fill:#9CC2D0;" d="M512,156.098v-37.463H399.61V0C395.049,0,325.593,0,256,0v512c67.86,0,135.749,0,143.61,0V393.366  H512v-37.463H399.61v-81.171H512v-37.463H399.61v-81.171H512z"/>
<g>
</g>
<g>
</g>
<g>
</g>
<g>
</g>
<g>
</g>
<g>
</g>
<g>
</g>
<g>
</g>
<g>
</g>
<g>
</g>
<g>
</g>
<g>
</g>
<g>
</g>
<g>
</g>
<g>
</g>
</svg>
