<?xml version="1.0" encoding="iso-8859-1"?>
<!-- Generator: Adobe Illustrator 19.0.0, SVG Export Plug-In . SVG Version: 6.00 Build 0)  -->
<svg xmlns="http://www.w3.org/2000/svg" xmlns:xlink="http://www.w3.org/1999/xlink" version="1.1" id="Layer_1" x="0px" y="0px" viewBox="0 0 512 512" style="enable-background:new 0 0 512 512;" xml:space="preserve">
<path style="fill:#B7E183;" d="M493.268,512H18.732C8.387,512,0,503.613,0,493.268V18.732C0,8.387,8.387,0,18.732,0h474.537  C503.613,0,512,8.387,512,18.732v474.537C512,503.613,503.613,512,493.268,512z"/>
<g>
	<path style="fill:#71DE56;" d="M493.268,0H256v512h237.268c10.345,0,18.732-8.387,18.732-18.732V18.732   C512,8.387,503.613,0,493.268,0z"/>
	<path style="fill:#71DE56;" d="M362.685,294.828h-32.08l10.084-77.658h21.996c10.345,0,18.732-8.387,18.732-18.732   s-8.387-18.732-18.732-18.732h-17.131l3.634-27.98c1.332-10.259-5.905-19.656-16.163-20.988   c-10.276-1.337-19.656,5.905-20.988,16.163l-4.26,32.804h-77.343l3.633-27.98c1.332-10.259-5.904-19.656-16.163-20.988   c-10.254-1.335-19.656,5.904-20.988,16.163l-4.26,32.804h-43.339c-10.345,0-18.732,8.387-18.732,18.732s8.387,18.732,18.732,18.732   h38.474l-10.084,77.658h-28.39c-10.345,0-18.732,8.387-18.732,18.732s8.387,18.732,18.732,18.732h23.526l-3.633,27.98   c-1.332,10.259,5.904,19.656,16.163,20.988c10.223,1.332,19.652-5.874,20.988-16.163l4.26-32.804h77.342l-3.634,27.98   c-1.332,10.259,5.906,19.656,16.163,20.988c10.228,1.331,19.652-5.878,20.988-16.163l4.26-32.804h36.945   c10.345,0,18.732-8.387,18.732-18.732C381.416,303.215,373.029,294.828,362.685,294.828z M215.483,294.828l10.084-77.658h77.343   l-10.084,77.658H215.483z"/>
</g>
<path style="fill:#2FBD66;" d="M362.685,294.828h-32.08l10.084-77.658h21.996c10.345,0,18.732-8.387,18.732-18.732  s-8.387-18.732-18.732-18.732h-17.131l3.634-27.98c1.332-10.259-5.905-19.656-16.163-20.988  c-10.276-1.337-19.656,5.905-20.988,16.163l-4.26,32.804H256v37.463h46.91l-10.084,77.658H256v37.463h31.961l-3.634,27.98  c-1.332,10.259,5.905,19.656,16.163,20.988c10.228,1.331,19.652-5.878,20.988-16.163l4.26-32.804h36.945  c10.345,0,18.732-8.387,18.732-18.732C381.415,303.215,373.029,294.828,362.685,294.828z"/>
<g>
</g>
<g>
</g>
<g>
</g>
<g>
</g>
<g>
</g>
<g>
</g>
<g>
</g>
<g>
</g>
<g>
</g>
<g>
</g>
<g>
</g>
<g>
</g>
<g>
</g>
<g>
</g>
<g>
</g>
</svg>
