<?xml version="1.0" encoding="iso-8859-1"?>
<!-- Generator: Adobe Illustrator 19.0.0, SVG Export Plug-In . SVG Version: 6.00 Build 0)  -->
<svg xmlns="http://www.w3.org/2000/svg" xmlns:xlink="http://www.w3.org/1999/xlink" version="1.1" id="Layer_1" x="0px" y="0px" viewBox="0 0 512 512" style="enable-background:new 0 0 512 512;" xml:space="preserve">
<path style="fill:#EFEFEF;" d="M494.409,132.882H353.054V44.914c0-9.715-7.876-17.591-17.591-17.591H17.591  C7.876,27.323,0,35.199,0,44.914v316.614c0,9.715,7.876,17.59,17.591,17.59h141.356v87.968c0,9.715,7.876,17.591,17.591,17.591  h317.872c9.715,0,17.591-7.876,17.591-17.591V150.472C512,140.758,504.124,132.882,494.409,132.882z"/>
<g>
	<path style="fill:#C5D8DF;" d="M494.409,132.882H353.054V44.914c0-9.715-7.876-17.591-17.591-17.591h-79.463v457.353h238.409   c9.715,0,17.591-7.876,17.591-17.591V150.472C512,140.758,504.124,132.882,494.409,132.882z"/>
	<path style="fill:#C5D8DF;" d="M512,273.6v-35.181H353.054V132.882H194.112V27.323h-35.181v105.558H0v35.181h158.931V238.4H0   v35.181h158.931c0,65.204,0.015,102.848,0.015,105.537c0.401,0,22.469,0.013,158.927,0.013v105.545h35.181V379.131H512V343.95   H353.054V273.6L512,273.6L512,273.6z"/>
</g>
<g>
	<rect x="158.936" y="132.879" style="fill:#9CC2D0;" width="194.117" height="246.255"/>
	<path style="fill:#9CC2D0;" d="M512,273.6v-35.181H353.054V132.882h-97.054V379.13c17.428,0,37.875,0.001,61.873,0.001v105.545   h35.181V379.131H512V343.95H353.054V273.6L512,273.6L512,273.6z"/>
</g>
<rect x="256.001" y="132.879" style="fill:#72ABC0;" width="97.053" height="246.255"/>
<g>
</g>
<g>
</g>
<g>
</g>
<g>
</g>
<g>
</g>
<g>
</g>
<g>
</g>
<g>
</g>
<g>
</g>
<g>
</g>
<g>
</g>
<g>
</g>
<g>
</g>
<g>
</g>
<g>
</g>
</svg>
