<?xml version="1.0" encoding="iso-8859-1"?>
<!-- Generator: Adobe Illustrator 19.0.0, SVG Export Plug-In . SVG Version: 6.00 Build 0)  -->
<svg xmlns="http://www.w3.org/2000/svg" xmlns:xlink="http://www.w3.org/1999/xlink" version="1.1" id="Layer_1" x="0px" y="0px" viewBox="0 0 512.001 512.001" style="enable-background:new 0 0 512.001 512.001;" xml:space="preserve">
<path style="fill:#B7E183;" d="M429.862,482.458H17.067C7.641,482.458,0,474.816,0,465.391V52.597  c0-9.425,7.641-17.067,17.067-17.067h412.795c9.425,0,17.067,7.641,17.067,17.067v412.794  C446.928,474.816,439.287,482.458,429.862,482.458z"/>
<g>
	<path style="fill:#71DE56;" d="M429.862,35.531H223.464v446.927h206.397c9.425,0,17.067-7.641,17.067-17.067V52.597   C446.928,43.172,439.287,35.531,429.862,35.531z"/>
	<path style="fill:#71DE56;" d="M210.73,330.812L96.79,216.873c-6.665-6.665-6.665-17.471,0-24.136   c6.664-6.665,17.471-6.665,24.136,0l101.872,101.872L482.866,34.541c6.664-6.664,17.471-6.664,24.136,0   c6.665,6.665,6.665,17.471,0,24.136L234.866,330.812C228.201,337.478,217.395,337.478,210.73,330.812z"/>
</g>
<path style="fill:#2FBD66;" d="M507.002,34.541c-6.664-6.664-17.471-6.664-24.136,0L223.464,293.943v41.837  c4.143-0.16,8.239-1.803,11.402-4.966L507.002,58.676C513.667,52.013,513.667,41.206,507.002,34.541z"/>
<g>
</g>
<g>
</g>
<g>
</g>
<g>
</g>
<g>
</g>
<g>
</g>
<g>
</g>
<g>
</g>
<g>
</g>
<g>
</g>
<g>
</g>
<g>
</g>
<g>
</g>
<g>
</g>
<g>
</g>
</svg>
