<?xml version="1.0" encoding="iso-8859-1"?>
<!-- Generator: Adobe Illustrator 19.0.0, SVG Export Plug-In . SVG Version: 6.00 Build 0)  -->
<svg xmlns="http://www.w3.org/2000/svg" xmlns:xlink="http://www.w3.org/1999/xlink" version="1.1" id="Layer_1" x="0px" y="0px" viewBox="0 0 512 512" style="enable-background:new 0 0 512 512;" xml:space="preserve">
<path style="fill:#C5D8DF;" d="M495.66,343.193H372.398c-9.024,0-16.34-7.316-16.34-16.34V201.488H139.602  c-9.024,0-16.34-7.316-16.34-16.34v-49.01c0-9.024,7.316-16.34,16.34-16.34H495.66c9.024,0,16.34,7.316,16.34,16.34v190.715  C512,335.876,504.684,343.193,495.66,343.193z"/>
<path style="fill:#9CC2D0;" d="M495.66,119.797H317.631v81.691h38.427v125.364c0,9.024,7.316,16.34,16.34,16.34H495.66  c9.024,0,16.34-7.316,16.34-16.34V136.138C512,127.113,504.684,119.797,495.66,119.797z"/>
<path style="fill:#54C9EB;" d="M512,152.478H123.261V61.887c0-9.024,7.316-16.34,16.34-16.34H495.66  c9.024,0,16.34,7.316,16.34,16.34V152.478z"/>
<path style="fill:#1BB3F9;" d="M495.66,45.546H317.631v106.932H512V61.887C512,52.862,504.684,45.546,495.66,45.546z"/>
<g>
	<path style="fill:#54C9EB;" d="M457.17,108.494c-6.179,0-11.205-5.026-11.205-11.205c0-6.179,5.026-11.205,11.205-11.205   s11.205,5.026,11.205,11.205C468.375,103.468,463.348,108.494,457.17,108.494z"/>
	<path style="fill:#54C9EB;" d="M412.055,108.494c-6.179,0-11.205-5.026-11.205-11.205c0-6.179,5.026-11.205,11.205-11.205   c6.179,0,11.205,5.026,11.205,11.205C423.261,103.468,418.234,108.494,412.055,108.494z"/>
	<path style="fill:#54C9EB;" d="M366.942,108.494c-6.179,0-11.205-5.026-11.205-11.205c0-6.179,5.026-11.205,11.205-11.205   s11.205,5.026,11.205,11.205C378.147,103.468,373.119,108.494,366.942,108.494z"/>
</g>
<path style="fill:#EFEFEF;" d="M372.398,466.454H16.34c-9.024,0-16.34-7.316-16.34-16.34V259.399c0-9.024,7.316-16.34,16.34-16.34  h356.058c9.024,0,16.34,7.316,16.34,16.34v190.715C388.739,459.138,381.423,466.454,372.398,466.454z"/>
<path style="fill:#C5D8DF;" d="M372.398,243.058H194.369v223.395h178.029c9.024,0,16.34-7.316,16.34-16.34V259.399  C388.739,250.375,381.423,243.058,372.398,243.058z"/>
<path style="fill:#84DBFF;" d="M388.739,275.739H0v-90.591c0-9.024,7.316-16.34,16.34-16.34h356.058  c9.024,0,16.34,7.316,16.34,16.34V275.739z"/>
<g>
	<path style="fill:#54C9EB;" d="M372.398,168.807H194.369v106.932h194.369v-90.591C388.739,176.124,381.423,168.807,372.398,168.807   z"/>
	<path style="fill:#54C9EB;" d="M333.911,231.753c-6.179,0-11.205-5.026-11.205-11.205c0-6.179,5.026-11.205,11.205-11.205   s11.205,5.026,11.205,11.205C345.117,226.726,340.09,231.753,333.911,231.753z"/>
	<path style="fill:#54C9EB;" d="M288.797,231.753c-6.179,0-11.205-5.026-11.205-11.205c0-6.179,5.026-11.205,11.205-11.205   s11.205,5.026,11.205,11.205C300.003,226.726,294.975,231.753,288.797,231.753z"/>
	<path style="fill:#54C9EB;" d="M243.683,231.753c-6.179,0-11.205-5.026-11.205-11.205c0-6.179,5.026-11.205,11.205-11.205   c6.179,0,11.205,5.026,11.205,11.205C254.889,226.726,249.861,231.753,243.683,231.753z"/>
</g>
<g>
	<path style="fill:#1BB3F9;" d="M333.911,231.753c-6.179,0-11.205-5.026-11.205-11.205c0-6.179,5.026-11.205,11.205-11.205   s11.205,5.026,11.205,11.205C345.117,226.726,340.09,231.753,333.911,231.753z"/>
	<path style="fill:#1BB3F9;" d="M288.797,231.753c-6.179,0-11.205-5.026-11.205-11.205c0-6.179,5.026-11.205,11.205-11.205   s11.205,5.026,11.205,11.205C300.003,226.726,294.975,231.753,288.797,231.753z"/>
	<path style="fill:#1BB3F9;" d="M243.683,231.753c-6.179,0-11.205-5.026-11.205-11.205c0-6.179,5.026-11.205,11.205-11.205   c6.179,0,11.205,5.026,11.205,11.205C254.889,226.726,249.861,231.753,243.683,231.753z"/>
</g>
<g>
	<path style="fill:#008BE5;" d="M457.17,108.494c-6.179,0-11.205-5.026-11.205-11.205c0-6.179,5.026-11.205,11.205-11.205   s11.205,5.026,11.205,11.205C468.375,103.468,463.348,108.494,457.17,108.494z"/>
	<path style="fill:#008BE5;" d="M412.055,108.494c-6.179,0-11.205-5.026-11.205-11.205c0-6.179,5.026-11.205,11.205-11.205   c6.179,0,11.205,5.026,11.205,11.205C423.261,103.468,418.234,108.494,412.055,108.494z"/>
	<path style="fill:#008BE5;" d="M366.942,108.494c-6.179,0-11.205-5.026-11.205-11.205c0-6.179,5.026-11.205,11.205-11.205   s11.205,5.026,11.205,11.205C378.147,103.468,373.119,108.494,366.942,108.494z"/>
</g>
<g>
</g>
<g>
</g>
<g>
</g>
<g>
</g>
<g>
</g>
<g>
</g>
<g>
</g>
<g>
</g>
<g>
</g>
<g>
</g>
<g>
</g>
<g>
</g>
<g>
</g>
<g>
</g>
<g>
</g>
</svg>
