<?xml version="1.0" encoding="iso-8859-1"?>
<!-- Generator: Adobe Illustrator 19.0.0, SVG Export Plug-In . SVG Version: 6.00 Build 0)  -->
<svg xmlns="http://www.w3.org/2000/svg" xmlns:xlink="http://www.w3.org/1999/xlink" version="1.1" id="Layer_1" x="0px" y="0px" viewBox="0 0 512.001 512.001" style="enable-background:new 0 0 512.001 512.001;" xml:space="preserve">
<path style="fill:#C5D8DF;" d="M425.015,373.029l-96.378-119.935l54.651-68.011c8.216-10.221,2.275-25.56-10.708-27.557  c-10.712-1.647-20.867-6.13-29.376-12.971c-8.497-6.82-15.057-15.769-18.973-25.882c-4.736-12.229-20.991-14.769-29.219-4.527  l-39.01,48.558l-39.022-48.559c-8.221-10.23-24.492-7.717-29.224,4.545c-3.899,10.101-10.453,19.042-18.977,25.873  c-8.499,6.833-18.654,11.316-29.366,12.963c-12.96,1.994-18.937,17.317-10.708,27.557l54.655,68.011L86.998,373.026  c-16.101,20.023-23.436,45.115-20.654,70.656c2.782,25.539,15.346,48.465,35.376,64.557c7.35,5.904,18.089,4.73,23.99-2.615  l130.294-162.133l130.295,162.133c5.904,7.346,16.647,8.516,23.994,2.612C451.629,475.014,458.233,414.36,425.015,373.029z"/>
<path style="fill:#9CC2D0;" d="M425.015,373.029l-96.378-119.935l54.651-68.011c8.216-10.221,2.275-25.56-10.708-27.557  c-10.712-1.647-20.867-6.13-29.376-12.971c-8.497-6.82-15.057-15.769-18.973-25.882c-4.736-12.229-20.991-14.769-29.219-4.527  l-39.01,48.558l-0.002-0.002v180.793l0.005-0.006l130.295,162.133c5.904,7.346,16.647,8.516,23.993,2.612  C451.629,475.014,458.233,414.36,425.015,373.029z"/>
<path style="fill:#1C3D66;" d="M54.951,156.44C21.66,115.016,28.232,54.533,69.681,21.236C111.013-11.982,171.673-5.379,204.9,35.96  c32.977,41.038,26.913,101.827-14.755,135.222C148.684,204.512,88.057,197.664,54.951,156.44z M91.06,47.843  c-26.731,21.472-30.988,60.483-9.5,87.22c13.829,17.221,35.994,25.828,57.852,22.464c10.713-1.647,20.867-6.13,29.367-12.963  c8.524-6.831,15.078-15.772,18.977-25.873c0.002-0.006,0.005-0.013,0.007-0.018c7.988-20.624,4.36-44.124-9.467-61.33  C156.859,30.672,117.724,26.412,91.06,47.843z"/>
<path style="fill:#163457;" d="M321.83,171.175c-41.963-33.721-47.448-94.497-14.726-135.217l0,0  C340.4-5.479,400.881-12.069,442.321,21.231c41.437,33.296,48.028,93.776,14.726,135.218  C424.195,197.33,363.645,204.776,321.83,171.175z M333.709,57.337c-13.828,17.209-17.46,40.716-9.477,61.347  c3.911,10.098,10.474,19.051,18.977,25.884c8.505,6.833,18.659,11.316,29.368,12.962c21.858,3.353,44.032-5.253,57.863-22.462  c21.48-26.73,17.234-65.747-9.5-87.231C394.21,26.357,355.193,30.604,333.709,57.337L333.709,57.337z"/>
<g>
</g>
<g>
</g>
<g>
</g>
<g>
</g>
<g>
</g>
<g>
</g>
<g>
</g>
<g>
</g>
<g>
</g>
<g>
</g>
<g>
</g>
<g>
</g>
<g>
</g>
<g>
</g>
<g>
</g>
</svg>
