<?xml version="1.0" encoding="iso-8859-1"?>
<!-- Generator: Adobe Illustrator 19.0.0, SVG Export Plug-In . SVG Version: 6.00 Build 0)  -->
<svg xmlns="http://www.w3.org/2000/svg" xmlns:xlink="http://www.w3.org/1999/xlink" version="1.1" id="Layer_1" x="0px" y="0px" viewBox="0 0 512 512" style="enable-background:new 0 0 512 512;" xml:space="preserve">
<path style="fill:#163457;" d="M408.027,430.452h-29.83c-20.586,0-37.333-16.748-37.333-37.333v-45.135c0-8.836,7.164-16,16-16  h72.497c8.836,0,16,7.164,16,16v45.135C445.36,413.705,428.612,430.452,408.027,430.452z"/>
<path style="fill:#DB3A3C;" d="M496,277.166h-66.647c-8.836,0-16-7.164-16-16v-44.118c0-8.836,7.164-16,16-16H496  c8.836,0,16,7.164,16,16v44.118C512,270.002,504.836,277.166,496,277.166z"/>
<path style="fill:#1C3D66;" d="M133.811,430.452h-29.83c-20.586,0-37.333-16.748-37.333-37.333v-45.135c0-8.836,7.164-16,16-16  h72.497c8.836,0,16,7.164,16,16v45.135C171.145,413.705,154.397,430.452,133.811,430.452z"/>
<path style="fill:#FF5752;" d="M82.647,277.166H16c-8.836,0-16-7.164-16-16v-44.118c0-8.836,7.164-16,16-16h66.647  c8.836,0,16,7.164,16,16v44.118C98.647,270.002,91.484,277.166,82.647,277.166z"/>
<path style="fill:#FFE365;" d="M429.356,233.047H82.643c-11.255,0-18.989-11.338-14.908-21.81l46.579-119.501  c2.395-6.144,8.313-10.189,14.908-10.189h253.556c6.594,0,12.513,4.046,14.908,10.189l46.578,119.5  C448.351,221.725,440.596,233.047,429.356,233.047z"/>
<path style="fill:#FFC733;" d="M444.263,211.236l-46.577-119.5c-2.395-6.144-8.314-10.189-14.908-10.189H256v151.5h173.356  C440.596,233.047,448.351,221.725,444.263,211.236z"/>
<path style="fill:#FF7976;" d="M429.356,363.984H82.644c-8.836,0-16-7.164-16-16V201.047h378.713v146.937  C445.356,356.821,438.193,363.984,429.356,363.984z"/>
<path style="fill:#FF5752;" d="M256,201.047v162.937h173.356c8.836,0,16-7.164,16-16V201.047H256z"/>
<path style="fill:#FFE365;" d="M152.695,319.867h-4.81c-20.595,0-37.35-16.755-37.35-37.35s16.755-37.35,37.35-37.35h4.81  c20.595,0,37.35,16.755,37.35,37.35S173.29,319.867,152.695,319.867z"/>
<path style="fill:#FF5752;" d="M281.104,298.516h-50.202c-8.836,0-16-7.164-16-16c0-8.836,7.164-16,16-16h50.202  c8.836,0,16,7.164,16,16C297.104,291.353,289.94,298.516,281.104,298.516z"/>
<path style="fill:#FFC733;" d="M363.667,319.867h-4.809c-20.595,0-37.35-16.755-37.35-37.35s16.755-37.35,37.35-37.35h4.809  c20.595,0,37.35,16.755,37.35,37.35S384.262,319.867,363.667,319.867z"/>
<path style="fill:#DB3A3C;" d="M281.104,266.516H256v32h25.104c8.836,0,16-7.164,16-16  C297.104,273.68,289.94,266.516,281.104,266.516z"/>
<g>
</g>
<g>
</g>
<g>
</g>
<g>
</g>
<g>
</g>
<g>
</g>
<g>
</g>
<g>
</g>
<g>
</g>
<g>
</g>
<g>
</g>
<g>
</g>
<g>
</g>
<g>
</g>
<g>
</g>
</svg>
