<?xml version="1.0" encoding="iso-8859-1"?>
<!-- Generator: Adobe Illustrator 19.0.0, SVG Export Plug-In . SVG Version: 6.00 Build 0)  -->
<svg xmlns="http://www.w3.org/2000/svg" xmlns:xlink="http://www.w3.org/1999/xlink" version="1.1" id="Layer_1" x="0px" y="0px" viewBox="0 0 512 512" style="enable-background:new 0 0 512 512;" xml:space="preserve">
<path style="fill:#EFEFEF;" d="M495.304,340.325H98.543c-9.22,0-16.696-7.475-16.696-16.696V188.37  c0-9.22,7.475-16.696,16.696-16.696h396.761c9.22,0,16.696,7.475,16.696,16.696V323.63C512,332.85,504.525,340.325,495.304,340.325z  "/>
<g>
	<path style="fill:#C5D8DF;" d="M81.848,256v67.63c0,9.22,7.475,16.696,16.696,16.696h396.761c9.22,0,16.696-7.475,16.696-16.696   V256H81.848z"/>
	<rect x="280.231" y="171.676" style="fill:#C5D8DF;" width="33.391" height="168.648"/>
</g>
<path style="fill:#1C3D66;" d="M0,303.254v-94.51c0-12.847,13.939-20.871,25.043-14.458l81.848,47.254  c11.124,6.423,11.107,22.504,0,28.918l-81.848,47.255C14.007,324.086,0,316.189,0,303.254z"/>
<rect x="280.231" y="256" style="fill:#9CC2D0;" width="33.391" height="84.324"/>
<path style="fill:#163457;" d="M0,256v47.254c0,12.935,14.007,20.832,25.043,14.46l81.848-47.255  c5.555-3.208,8.336-8.833,8.337-14.458H0L0,256z"/>
<g>
</g>
<g>
</g>
<g>
</g>
<g>
</g>
<g>
</g>
<g>
</g>
<g>
</g>
<g>
</g>
<g>
</g>
<g>
</g>
<g>
</g>
<g>
</g>
<g>
</g>
<g>
</g>
<g>
</g>
</svg>
