<?xml version="1.0" encoding="iso-8859-1"?>
<!-- Generator: Adobe Illustrator 19.0.0, SVG Export Plug-In . SVG Version: 6.00 Build 0)  -->
<svg xmlns="http://www.w3.org/2000/svg" xmlns:xlink="http://www.w3.org/1999/xlink" version="1.1" id="Layer_1" x="0px" y="0px" viewBox="0 0 512 512" style="enable-background:new 0 0 512 512;" xml:space="preserve">
<path style="fill:#84DBFF;" d="M493.268,512H18.732C8.387,512,0,503.613,0,493.268V18.732C0,8.387,8.387,0,18.732,0h474.537  C503.613,0,512,8.387,512,18.732v474.537C512,503.613,503.613,512,493.268,512z"/>
<g>
	<path style="fill:#54C9EB;" d="M493.268,0H256v512h237.268c10.345,0,18.732-8.387,18.732-18.732V18.732   C512,8.387,503.613,0,493.268,0z"/>
	<path style="fill:#54C9EB;" d="M374.015,274.732H137.984c-10.345,0-18.732-8.387-18.732-18.732   c0-10.345,8.387-18.732,18.732-18.732h236.031c10.345,0,18.732,8.387,18.732,18.732   C392.746,266.345,384.36,274.732,374.015,274.732z"/>
	<circle style="fill:#54C9EB;" cx="256" cy="139.851" r="36.138"/>
	<circle style="fill:#54C9EB;" cx="256" cy="372.149" r="36.138"/>
</g>
<g>
	<path style="fill:#1BB3F9;" d="M374.015,237.268H256v37.463h118.015c10.345,0,18.732-8.387,18.732-18.732   C392.746,245.655,384.36,237.268,374.015,237.268z"/>
	<path style="fill:#1BB3F9;" d="M256,103.712v72.276c19.958,0,36.138-16.179,36.138-36.137S275.958,103.712,256,103.712z"/>
	<path style="fill:#1BB3F9;" d="M256,336.011v72.276c19.958,0,36.138-16.18,36.138-36.138S275.958,336.011,256,336.011z"/>
</g>
<g>
</g>
<g>
</g>
<g>
</g>
<g>
</g>
<g>
</g>
<g>
</g>
<g>
</g>
<g>
</g>
<g>
</g>
<g>
</g>
<g>
</g>
<g>
</g>
<g>
</g>
<g>
</g>
<g>
</g>
</svg>
