<?xml version="1.0" encoding="iso-8859-1"?>
<!-- Generator: Adobe Illustrator 19.0.0, SVG Export Plug-In . SVG Version: 6.00 Build 0)  -->
<svg xmlns="http://www.w3.org/2000/svg" xmlns:xlink="http://www.w3.org/1999/xlink" version="1.1" id="Layer_1" x="0px" y="0px" viewBox="0 0 512 512" style="enable-background:new 0 0 512 512;" xml:space="preserve">
<path style="fill:#FFC733;" d="M464.932,235.47H47.164c-9.024,0-16.34-7.316-16.34-16.34V96.227c0-9.024,7.316-16.34,16.34-16.34  h169.952c9.024,0,16.34,7.316,16.34,16.34v20.53h231.475c9.024,0,16.34,7.316,16.34,16.34v86.032  C481.272,228.154,473.957,235.47,464.932,235.47z"/>
<path style="fill:#FFAF00;" d="M464.932,116.757H255.999V235.47h208.933c9.024,0,16.34-7.316,16.34-16.34v-86.032  C481.272,124.073,473.957,116.757,464.932,116.757z"/>
<path style="fill:#FFE365;" d="M476.903,432.112H35.097c-8.423,0-15.467-6.403-16.267-14.789L0.075,220.681  c-0.913-9.595,6.64-17.892,16.267-17.892h479.316c9.638,0,17.179,8.306,16.267,17.892L493.17,417.324  C492.37,425.709,485.326,432.112,476.903,432.112z"/>
<path style="fill:#FFC733;" d="M495.657,202.789H255.999v229.324h220.903c8.423,0,15.467-6.403,16.267-14.789l18.755-196.644  C512.837,211.095,505.296,202.789,495.657,202.789z"/>
<g>
</g>
<g>
</g>
<g>
</g>
<g>
</g>
<g>
</g>
<g>
</g>
<g>
</g>
<g>
</g>
<g>
</g>
<g>
</g>
<g>
</g>
<g>
</g>
<g>
</g>
<g>
</g>
<g>
</g>
</svg>
