<?xml version="1.0" encoding="iso-8859-1"?>
<!-- Generator: Adobe Illustrator 19.0.0, SVG Export Plug-In . SVG Version: 6.00 Build 0)  -->
<svg xmlns="http://www.w3.org/2000/svg" xmlns:xlink="http://www.w3.org/1999/xlink" version="1.1" id="Layer_1" x="0px" y="0px" viewBox="0 0 512 512" style="enable-background:new 0 0 512 512;" xml:space="preserve">
<path style="fill:#84DBFF;" d="M393.621,511.789H18.285C8.187,511.789,0,503.602,0,493.504V118.179  c0-10.098,8.187-18.285,18.285-18.285h275.256c10.098,0,18.285,8.187,18.285,18.285v81.809h81.797  c10.098,0,18.285,8.187,18.285,18.285v275.232C411.906,503.602,403.72,511.789,393.621,511.789z"/>
<g>
	<path style="fill:#54C9EB;" d="M393.621,199.988h-81.797v-81.809c0-10.098-8.187-18.285-18.285-18.285h-87.588v411.894H393.62   c10.098,0,18.285-8.187,18.285-18.285V218.273C411.906,208.174,403.72,199.988,393.621,199.988z"/>
	<path style="fill:#54C9EB;" d="M311.826,199.988v-25.861L180.688,305.262l-14.981-14.981c-9.943-9.943-26.953-5.377-30.592,8.198   l-20.43,76.251c-3.662,13.688,8.938,26.003,22.394,22.394l76.251-20.431c13.587-3.641,18.132-20.658,8.198-30.592l-14.98-14.98   l131.134-131.133H311.826z"/>
</g>
<path style="fill:#1BB3F9;" d="M206.547,331.122l131.135-131.134h-25.856v-25.861L205.953,279.999v98.671l7.377-1.977  c13.587-3.641,18.132-20.658,8.198-30.592L206.547,331.122z"/>
<path style="fill:#EFEFEF;" d="M493.715,236.557H293.541c-10.098,0-18.285-8.187-18.285-18.285V85.221  c0-10.098,8.187-18.285,18.285-18.285h200.174c10.098,0,18.285,8.187,18.285,18.285v133.05  C512,228.371,503.813,236.557,493.715,236.557z"/>
<g>
	<path style="fill:#C5D8DF;" d="M493.715,66.937H393.629v169.621h100.086c10.098,0,18.285-8.187,18.285-18.285V85.221   C512,75.123,503.813,66.937,493.715,66.937z"/>
	<polygon style="fill:#C5D8DF;" points="512,151.747 411.906,151.747 411.906,66.937 375.337,66.937 375.337,151.747    275.256,151.747 275.256,188.316 375.337,188.316 375.337,236.558 411.906,236.558 411.906,188.316 512,188.316  "/>
</g>
<g>
	<polygon style="fill:#9CC2D0;" points="411.906,151.747 411.906,66.937 393.628,66.937 393.628,236.558 411.906,236.558    411.906,188.316 512,188.316 512,151.747  "/>
	<path style="fill:#9CC2D0;" d="M512,103.506H275.256v-85.01c0-10.098,8.187-18.285,18.285-18.285h200.174   C503.813,0.212,512,8.398,512,18.496V103.506z"/>
</g>
<path style="fill:#72ABC0;" d="M493.715,0.212H393.629v103.295H512v-85.01C512,8.398,503.813,0.212,493.715,0.212z"/>
<g>
</g>
<g>
</g>
<g>
</g>
<g>
</g>
<g>
</g>
<g>
</g>
<g>
</g>
<g>
</g>
<g>
</g>
<g>
</g>
<g>
</g>
<g>
</g>
<g>
</g>
<g>
</g>
<g>
</g>
</svg>
