<?xml version="1.0" encoding="iso-8859-1"?>
<!-- Generator: Adobe Illustrator 19.0.0, SVG Export Plug-In . SVG Version: 6.00 Build 0)  -->
<svg xmlns="http://www.w3.org/2000/svg" xmlns:xlink="http://www.w3.org/1999/xlink" version="1.1" id="Layer_1" x="0px" y="0px" viewBox="0 0 512 512" style="enable-background:new 0 0 512 512;" xml:space="preserve">
<path style="fill:#FF7976;" d="M494.933,238.933h-17.716c-8.313-108.761-95.389-195.838-204.15-204.15V17.067  C273.067,7.641,265.425,0,256,0c-9.425,0-17.067,7.641-17.067,17.067v17.716c-108.761,8.313-195.838,95.389-204.15,204.15H17.067  C7.641,238.933,0,246.575,0,256c0,9.425,7.641,17.067,17.067,17.067h17.716c8.313,108.761,95.389,195.838,204.15,204.15v17.716  c0,9.425,7.641,17.067,17.067,17.067c9.425,0,17.067-7.641,17.067-17.067v-17.716c108.761-8.313,195.838-95.389,204.15-204.15  h17.716c9.425,0,17.067-7.641,17.067-17.067S504.359,238.933,494.933,238.933z M442.949,238.933H339.616  c-6.804-33.387-33.163-59.746-66.55-66.55V69.051C362.991,77.194,434.806,149.009,442.949,238.933z M238.933,238.933h-31.198  c5.151-14.523,16.675-26.047,31.198-31.198V238.933z M238.933,273.067v31.198c-14.523-5.151-26.047-16.675-31.198-31.198H238.933  L238.933,273.067z M273.067,273.067h31.198c-5.151,14.523-16.675,26.047-31.198,31.198V273.067L273.067,273.067z M273.067,238.933  v-31.198c14.523,5.151,26.047,16.675,31.198,31.198H273.067z M238.933,69.051v103.333c-33.387,6.804-59.745,33.163-66.55,66.55  H69.051C77.194,149.009,149.009,77.194,238.933,69.051z M69.051,273.067h103.333c6.804,33.387,33.163,59.746,66.55,66.55v103.333  C149.009,434.806,77.194,362.991,69.051,273.067z M273.067,442.949V339.616c33.387-6.804,59.745-33.163,66.55-66.55h103.333  C434.806,362.991,362.991,434.806,273.067,442.949z"/>
<path style="fill:#FF5752;" d="M273.067,273.067h31.198c-5.151,14.523-16.675,26.047-31.198,31.198V273.067L273.067,273.067z   M273.067,238.933v-31.198c14.523,5.151,26.047,16.675,31.198,31.198H273.067z M273.067,442.949V339.616  c33.387-6.804,59.745-33.163,66.55-66.55h103.333C434.806,362.991,362.991,434.806,273.067,442.949z M494.933,238.933h-17.715  c-8.317-108.76-95.391-195.834-204.151-204.151V17.067C273.067,7.646,265.421,0,256,0v512c9.421,0,17.067-7.646,17.067-17.067  v-17.715c108.76-8.317,195.834-95.391,204.151-204.151h17.715c9.421,0,17.067-7.646,17.067-17.067  C512,246.579,504.354,238.933,494.933,238.933z M339.615,238.933c-6.804-33.382-33.166-59.745-66.549-66.549V69.052  c89.93,8.146,161.735,79.952,169.882,169.882H339.615z"/>
<g>
</g>
<g>
</g>
<g>
</g>
<g>
</g>
<g>
</g>
<g>
</g>
<g>
</g>
<g>
</g>
<g>
</g>
<g>
</g>
<g>
</g>
<g>
</g>
<g>
</g>
<g>
</g>
<g>
</g>
</svg>
