<?xml version="1.0" encoding="iso-8859-1"?>
<!-- Generator: Adobe Illustrator 19.0.0, SVG Export Plug-In . SVG Version: 6.00 Build 0)  -->
<svg xmlns="http://www.w3.org/2000/svg" xmlns:xlink="http://www.w3.org/1999/xlink" version="1.1" id="Layer_1" x="0px" y="0px" viewBox="0 0 511.999 511.999" style="enable-background:new 0 0 511.999 511.999;" xml:space="preserve">
<path style="fill:#B7E183;" d="M482.204,456.585l-67.361-84.261c-41.728-52.192-102.216-86.233-168.032-95.117v66.266  c0,13.226-14.706,21.208-25.797,13.994L7.583,218.635c-10.113-6.577-10.109-21.413,0-27.988L221.015,51.816  c11.087-7.212,25.797,0.763,25.797,13.994v71.913c112.188,16.938,205.909,97.984,237.604,209.395L511.3,441.59  C516.266,459.038,493.537,470.759,482.204,456.585z"/>
<path style="fill:#71DE56;" d="M396.327,207.465c41.153,36.25,72.31,84.187,88.089,139.655l26.884,94.472  c4.965,17.446-17.763,29.168-29.096,14.993l-67.361-84.261c-41.728-52.192-102.216-86.233-168.032-95.117v66.266  c0,13.226-14.706,21.208-25.797,13.994L7.583,218.635c-4.162-2.707-6.582-6.818-7.317-11.17H396.327z"/>
<g>
</g>
<g>
</g>
<g>
</g>
<g>
</g>
<g>
</g>
<g>
</g>
<g>
</g>
<g>
</g>
<g>
</g>
<g>
</g>
<g>
</g>
<g>
</g>
<g>
</g>
<g>
</g>
<g>
</g>
</svg>
