<?xml version="1.0" encoding="iso-8859-1"?>
<!-- Generator: Adobe Illustrator 19.0.0, SVG Export Plug-In . SVG Version: 6.00 Build 0)  -->
<svg xmlns="http://www.w3.org/2000/svg" xmlns:xlink="http://www.w3.org/1999/xlink" version="1.1" id="Layer_1" x="0px" y="0px" viewBox="0 0 512 512" style="enable-background:new 0 0 512 512;" xml:space="preserve">
<path style="fill:#C5D8DF;" d="M68.598,499.161c-11.462-5.686-13.977-20.97-4.923-30.023l37.01-37.01l-20.814-20.814l-37.01,37.01  c-9.046,9.046-24.333,6.546-30.023-4.923c-23.513-47.43-14.143-104.467,23.321-141.929c34.195-34.195,84.689-44.984,129.311-28.728  l107.275-107.276c-16.256-44.615-5.465-95.118,28.728-129.31c37.462-37.462,94.5-46.833,141.929-23.321  c11.462,5.686,13.977,20.97,4.923,30.023l-37.01,37.01l20.814,20.814l37.01-37.01c9.025-9.03,24.323-6.567,30.023,4.923  c23.513,47.43,14.143,104.467-23.321,141.929c-34.195,34.192-84.694,44.98-129.312,28.728L239.255,346.529  c16.256,44.618,5.465,95.12-28.728,129.311C173.08,513.289,116.05,522.685,68.598,499.161z"/>
<path style="fill:#9CC2D0;" d="M239.255,346.529l107.274-107.275c44.618,16.253,95.119,5.464,129.312-28.728  c37.463-37.462,46.834-94.5,23.321-141.929c-5.7-11.491-20.997-13.954-30.023-4.923l-37.01,37.01l-10.407-10.407L90.278,421.722  l10.407,10.407l-37.01,37.01c-9.053,9.053-6.539,24.337,4.923,30.023c47.452,23.523,104.482,14.126,141.929-23.321  C244.719,441.649,255.511,391.148,239.255,346.529z"/>
<g>
</g>
<g>
</g>
<g>
</g>
<g>
</g>
<g>
</g>
<g>
</g>
<g>
</g>
<g>
</g>
<g>
</g>
<g>
</g>
<g>
</g>
<g>
</g>
<g>
</g>
<g>
</g>
<g>
</g>
</svg>
