<?xml version="1.0" encoding="iso-8859-1"?>
<!-- Generator: Adobe Illustrator 19.0.0, SVG Export Plug-In . SVG Version: 6.00 Build 0)  -->
<svg xmlns="http://www.w3.org/2000/svg" xmlns:xlink="http://www.w3.org/1999/xlink" version="1.1" id="Layer_1" x="0px" y="0px" viewBox="0 0 512 512" style="enable-background:new 0 0 512 512;" xml:space="preserve">
<g>
	<path style="fill:#FFE365;" d="M113.447,398.48c-78.578-78.578-78.578-206.432,0-285.009c78.579-78.575,206.434-78.575,285.009,0   c78.578,78.578,78.578,206.432,0,285.009C319.881,477.055,192.028,477.057,113.447,398.48z"/>
	<path style="fill:#FFE365;" d="M61.714,323.933c2.775-3.962,5.577-7.956,8.495-11.977c5.774-7.989,16.942-9.787,24.943-4.012   c7.989,5.786,9.787,16.942,4,24.943c-7.124,9.854-13.716,19.466-19.775,28.781L61.714,323.933z"/>
</g>
<path style="fill:#1C3D66;" d="M477.355,145.535c-67.408,116.306-215.378,264.343-331.841,331.841  c-38.023,22.043-101.041,52.497-132.251,21.288c-39.685-39.713,19.33-133.447,51.493-179.065  c4.346,13.144,10.084,25.919,17.216,38.111C59.896,391.185,23.457,458.375,38.527,473.4c6.286,6.286,35.194,4.31,89.068-26.919  c110.074-63.742,254.181-207.167,318.864-318.864c31.229-53.874,33.217-82.782,26.919-89.068  c-3.834-3.846-17.228-5.036-42.325,4.215c-20.788,7.655-45.802,21.062-73.352,39.23c-12.192-7.132-24.979-12.87-38.123-17.216  c37.015-26.098,71.15-45.219,99.129-55.529c36.801-13.561,63.685-12.204,79.936,4.036  C521.907,36.549,514.739,81.041,477.355,145.535z"/>
<g>
	<path style="fill:#FFC733;" d="M113.449,113.469l285.009,285.009c78.578-78.578,78.578-206.43,0-285.009   C319.881,34.894,192.028,34.894,113.449,113.469z"/>
	<path style="fill:#FFC733;" d="M323.55,61.991c-3.844,2.693-7.716,5.411-11.615,8.241c-7.989,5.786-9.787,16.941-4.012,24.943   c5.786,7.989,16.942,9.787,24.943,4c9.537-6.895,18.862-13.306,27.892-19.182L323.55,61.991z"/>
</g>
<path style="fill:#163457;" d="M418.706,9.249c-27.979,10.311-62.113,29.431-99.129,55.529  c13.144,4.346,25.931,10.084,38.123,17.216c27.55-18.168,52.565-31.574,73.352-39.23c25.098-9.251,38.492-8.06,42.325-4.215  c6.298,6.286,4.31,35.194-26.919,89.068c-32.252,55.693-84.251,119.273-141.93,176.932l25.256,25.255  c59.995-59.996,113.858-126.101,147.57-184.269c37.384-64.494,44.552-108.987,21.288-132.251  C482.391-2.955,455.507-4.312,418.706,9.249z"/>
<g>
</g>
<g>
</g>
<g>
</g>
<g>
</g>
<g>
</g>
<g>
</g>
<g>
</g>
<g>
</g>
<g>
</g>
<g>
</g>
<g>
</g>
<g>
</g>
<g>
</g>
<g>
</g>
<g>
</g>
</svg>
