<?xml version="1.0" encoding="iso-8859-1"?>
<!-- Generator: Adobe Illustrator 19.0.0, SVG Export Plug-In . SVG Version: 6.00 Build 0)  -->
<svg xmlns="http://www.w3.org/2000/svg" xmlns:xlink="http://www.w3.org/1999/xlink" version="1.1" id="Layer_1" x="0px" y="0px" viewBox="0 0 512.002 512.002" style="enable-background:new 0 0 512.002 512.002;" xml:space="preserve">
<path style="fill:#FFE365;" d="M447.434,512H64.556c-9.22,0-16.695-7.475-16.695-16.695V16.712c0-9.22,7.475-16.695,16.695-16.695  h261.04c4.429,0,8.675,1.759,11.805,4.889l121.838,121.839c3.131,3.131,4.891,7.377,4.891,11.805v356.756  C464.129,504.527,456.654,512,447.434,512z"/>
<g>
	<path style="fill:#FFC733;" d="M459.238,126.744L337.402,4.907c-3.131-3.131-7.377-4.889-11.805-4.889h-69.603v511.984h191.439   c9.22,0,16.695-7.475,16.695-16.695V138.55C464.129,134.122,462.37,129.875,459.238,126.744z"/>
	<path style="fill:#FFC733;" d="M355.054,244.923H156.935c-9.22,0-16.695-7.475-16.695-16.695s7.475-16.695,16.695-16.695h198.119   c9.22,0,16.695,7.475,16.695,16.695S364.274,244.923,355.054,244.923z"/>
	<path style="fill:#FFC733;" d="M355.054,333.62H156.935c-9.22,0-16.695-7.475-16.695-16.695c0-9.22,7.475-16.695,16.695-16.695   h198.119c9.22,0,16.695,7.475,16.695,16.695C371.749,326.145,364.274,333.62,355.054,333.62z"/>
	<path style="fill:#FFC733;" d="M355.054,422.316H156.935c-9.22,0-16.695-7.475-16.695-16.695c0-9.22,7.475-16.695,16.695-16.695   h198.119c9.22,0,16.695,7.475,16.695,16.695C371.749,414.841,364.274,422.316,355.054,422.316z"/>
</g>
<g>
	<path style="fill:#FFAF00;" d="M447.434,155.239H325.599c-9.22,0-16.695-7.475-16.695-16.695V16.708   c0-14.867,18.028-22.279,28.5-11.806l121.834,121.834C469.714,137.213,462.298,155.239,447.434,155.239z"/>
	<path style="fill:#FFAF00;" d="M355.054,211.533h-99.06v33.391h99.06c9.22,0,16.695-7.475,16.695-16.695   S364.274,211.533,355.054,211.533z"/>
	<path style="fill:#FFAF00;" d="M355.054,300.229h-99.06v33.391h99.06c9.22,0,16.695-7.475,16.695-16.695   C371.749,307.704,364.274,300.229,355.054,300.229z"/>
	<path style="fill:#FFAF00;" d="M355.054,388.925h-99.06v33.391h99.06c9.22,0,16.695-7.475,16.695-16.695   C371.749,396.4,364.274,388.925,355.054,388.925z"/>
</g>
<g>
</g>
<g>
</g>
<g>
</g>
<g>
</g>
<g>
</g>
<g>
</g>
<g>
</g>
<g>
</g>
<g>
</g>
<g>
</g>
<g>
</g>
<g>
</g>
<g>
</g>
<g>
</g>
<g>
</g>
</svg>
