<?xml version="1.0" encoding="iso-8859-1"?>
<!-- Generator: Adobe Illustrator 19.0.0, SVG Export Plug-In . SVG Version: 6.00 Build 0)  -->
<svg xmlns="http://www.w3.org/2000/svg" xmlns:xlink="http://www.w3.org/1999/xlink" version="1.1" id="Layer_1" x="0px" y="0px" viewBox="0 0 512 512" style="enable-background:new 0 0 512 512;" xml:space="preserve">
<path style="fill:#EFEFEF;" d="M465.89,512H46.11c-9.978,0-18.067-8.089-18.067-18.067V156.28c0-9.978,8.089-18.067,18.067-18.067  H465.89c9.978,0,18.067,8.089,18.067,18.067v337.653C483.957,503.911,475.868,512,465.89,512z"/>
<path style="fill:#C5D8DF;" d="M465.89,138.213H255.999V512H465.89c9.978,0,18.067-8.089,18.067-18.067V156.28  C483.957,146.302,475.868,138.213,465.89,138.213z"/>
<path style="fill:#FF7976;" d="M483.957,174.347H28.043V61.581c0-9.978,8.089-18.067,18.067-18.067H465.89  c9.978,0,18.067,8.089,18.067,18.067V174.347z"/>
<path style="fill:#FF5752;" d="M483.957,61.581c0-9.978-8.089-18.067-18.067-18.067H255.999v130.833h227.958V61.581z"/>
<path style="fill:#1C3D66;" d="M240.492,286.375l-8.648,5.367c-17.588,11.723-31.908-20.812-13.419-31.906l39.361-23.855  c8.882-5.554,29.223,0.34,29.223,12.523v189.648c0,9.543-11.63,14.314-23.26,14.314c-11.63,0-23.259-4.771-23.259-14.314V286.375  H240.492z"/>
<path style="fill:#FF5752;" d="M127.767,79.647c-9.978,0-18.067-8.089-18.067-18.067V18.067C109.701,8.089,117.79,0,127.767,0  s18.067,8.089,18.067,18.067v43.514C145.834,71.558,137.745,79.647,127.767,79.647z"/>
<path style="fill:#163457;" d="M257.788,235.982l-1.787,1.084V451.72c2.497,0.489,5.12,0.746,7.752,0.746  c11.629,0,23.26-4.771,23.26-14.314V248.504C287.01,236.321,266.67,230.428,257.788,235.982z"/>
<path style="fill:#DB3A3C;" d="M384.233,79.647c-9.978,0-18.067-8.089-18.067-18.067V18.067C366.166,8.089,374.255,0,384.233,0  c9.978,0,18.067,8.089,18.067,18.067v43.514C402.299,71.558,394.21,79.647,384.233,79.647z"/>
<g>
</g>
<g>
</g>
<g>
</g>
<g>
</g>
<g>
</g>
<g>
</g>
<g>
</g>
<g>
</g>
<g>
</g>
<g>
</g>
<g>
</g>
<g>
</g>
<g>
</g>
<g>
</g>
<g>
</g>
</svg>
