<?xml version="1.0" encoding="iso-8859-1"?>
<!-- Generator: Adobe Illustrator 19.0.0, SVG Export Plug-In . SVG Version: 6.00 Build 0)  -->
<svg xmlns="http://www.w3.org/2000/svg" xmlns:xlink="http://www.w3.org/1999/xlink" version="1.1" id="Layer_1" x="0px" y="0px" viewBox="0 0 512 512" style="enable-background:new 0 0 512 512;" xml:space="preserve">
<path style="fill:#163457;" d="M312.306,89.698H199.693c-9.22,0-16.696-7.475-16.696-16.696V16.696  c0-9.22,7.475-16.696,16.696-16.696h112.614c9.22,0,16.696,7.475,16.696,16.696v56.307  C329.002,82.223,321.528,89.698,312.306,89.698z"/>
<path style="fill:#0F2A47;" d="M312.306,0h-56.307v89.698h56.307c9.22,0,16.696-7.475,16.696-16.696V16.696  C329.002,7.475,321.528,0,312.306,0z"/>
<path style="fill:#1C3D66;" d="M368.613,512H143.386c-9.22,0-16.696-7.475-16.696-16.696V73.002c0-9.22,7.475-16.696,16.696-16.696  h225.228c9.22,0,16.696,7.475,16.696,16.696v422.302C385.308,504.525,377.833,512,368.613,512z"/>
<path style="fill:#163457;" d="M368.613,56.307H255.999V512h112.613c9.22,0,16.696-7.475,16.696-16.696V73.002  C385.308,63.782,377.833,56.307,368.613,56.307z"/>
<path style="fill:#B7E183;" d="M312.306,455.693H199.693c-9.22,0-16.696-7.475-16.696-16.696V232.539  c0-9.22,7.475-16.696,16.696-16.696h112.614c9.22,0,16.696,7.475,16.696,16.696v206.458  C329.002,448.218,321.528,455.693,312.306,455.693z"/>
<g>
	<path style="fill:#71DE56;" d="M312.306,215.844h-56.307v239.85h56.307c9.22,0,16.696-7.475,16.696-16.696V232.539   C329.002,223.319,321.528,215.844,312.306,215.844z"/>
	<rect x="182.995" y="319.076" style="fill:#71DE56;" width="146.009" height="33.391"/>
</g>
<rect x="255.999" y="319.076" style="fill:#2FBD66;" width="73.005" height="33.391"/>
<g>
</g>
<g>
</g>
<g>
</g>
<g>
</g>
<g>
</g>
<g>
</g>
<g>
</g>
<g>
</g>
<g>
</g>
<g>
</g>
<g>
</g>
<g>
</g>
<g>
</g>
<g>
</g>
<g>
</g>
</svg>
