<?xml version="1.0" encoding="iso-8859-1"?>
<!-- Generator: Adobe Illustrator 19.0.0, SVG Export Plug-In . SVG Version: 6.00 Build 0)  -->
<svg xmlns="http://www.w3.org/2000/svg" xmlns:xlink="http://www.w3.org/1999/xlink" version="1.1" id="Layer_1" x="0px" y="0px" viewBox="0 0 512 512" style="enable-background:new 0 0 512 512;" xml:space="preserve">
<path style="fill:#54C9EB;" d="M469.87,504.772L236.365,271.265c-9.638-9.638-9.638-25.263,0-34.9c9.638-9.637,25.263-9.638,34.9,0  l233.506,233.506c9.638,9.638,9.638,25.263,0,34.9C495.133,514.409,479.508,514.409,469.87,504.772z"/>
<path style="fill:#1BB3F9;" d="M236.365,236.366l268.406,268.406c9.638-9.638,9.638-25.263,0-34.9L271.265,236.366  C261.627,226.727,246.002,226.727,236.365,236.366z"/>
<path style="fill:#84DBFF;" d="M45.732,266.902c-60.976-60.976-60.976-160.194,0-221.17s160.192-60.976,221.17,0l0,0  c60.976,60.976,60.976,160.194,0,221.17C205.928,327.877,106.709,327.882,45.732,266.902z"/>
<path style="fill:#54C9EB;" d="M45.732,45.733l221.17,221.17c60.977-60.977,60.976-160.194,0-221.17  C205.925-15.244,106.708-15.244,45.732,45.733z"/>
<g>
</g>
<g>
</g>
<g>
</g>
<g>
</g>
<g>
</g>
<g>
</g>
<g>
</g>
<g>
</g>
<g>
</g>
<g>
</g>
<g>
</g>
<g>
</g>
<g>
</g>
<g>
</g>
<g>
</g>
</svg>
