<?xml version="1.0" encoding="iso-8859-1"?>
<!-- Generator: Adobe Illustrator 19.0.0, SVG Export Plug-In . SVG Version: 6.00 Build 0)  -->
<svg xmlns="http://www.w3.org/2000/svg" xmlns:xlink="http://www.w3.org/1999/xlink" version="1.1" id="Layer_1" x="0px" y="0px" viewBox="0 0 512.002 512.002" style="enable-background:new 0 0 512.002 512.002;" xml:space="preserve">
<path style="fill:#FFE365;" d="M466.751,45.251c-60.333-60.334-157.988-60.337-218.334,0.009  c-40.26,40.26-54.86,99.108-38.886,153.043L5.769,402.066c-3.94,3.94-6.027,9.364-5.742,14.928l3.712,72.608  c0.516,10.084,8.576,18.145,18.66,18.66l72.608,3.712c0.336,0.017,0.671,0.026,1.006,0.026c5.208,0,10.221-2.065,13.923-5.768  L313.7,302.472c53.931,15.975,112.783,1.374,153.043-38.886C527.073,203.253,527.098,105.597,466.751,45.251z M430.023,184.812  c-22.339,22.339-62.419,17.245-91.25-11.585c-28.833-28.831-33.921-68.914-11.585-91.25c22.335-22.336,62.418-17.247,91.25,11.584  C447.271,122.394,452.359,162.477,430.023,184.812z"/>
<g>
	<path style="fill:#FFC733;" d="M466.751,45.251c-0.004-0.004-0.009-0.008-0.013-0.012l-48.312,48.312   c0.004,0.004,0.008,0.008,0.013,0.012c28.831,28.833,33.921,68.916,11.585,91.25c-22.339,22.339-62.42,17.247-91.25-11.585   c-0.004-0.004-0.008-0.009-0.012-0.013L9.468,502.507c3.341,3.347,7.882,5.496,12.93,5.755l72.608,3.712   c0.336,0.017,0.671,0.026,1.006,0.026c5.208,0,10.221-2.065,13.923-5.768l203.763-203.762   c53.931,15.975,112.783,1.374,153.043-38.886C527.073,203.253,527.098,105.597,466.751,45.251z"/>
	<path style="fill:#FFC733;" d="M96.356,415.459c-0.5,0.5-0.965,1.023-1.399,1.561l2.962-2.962   C97.379,414.494,96.856,414.959,96.356,415.459z"/>
</g>
<path style="fill:#FFAF00;" d="M124.203,415.459c-7.189-7.19-18.553-7.655-26.285-1.401l-2.962,2.962  c-6.254,7.733-5.789,19.096,1.399,26.286l38.253,38.253l27.847-27.847L124.203,415.459z"/>
<path style="fill:#FFC733;" d="M139.553,372.262c-0.5,0.5-0.965,1.023-1.399,1.561l2.962-2.962  C140.576,371.296,140.053,371.761,139.553,372.262z"/>
<path style="fill:#FFAF00;" d="M167.4,372.262c-7.189-7.19-18.553-7.655-26.285-1.401l-2.962,2.962  c-6.254,7.733-5.789,19.096,1.399,26.286l38.253,38.253l27.847-27.847L167.4,372.262z"/>
<g>
</g>
<g>
</g>
<g>
</g>
<g>
</g>
<g>
</g>
<g>
</g>
<g>
</g>
<g>
</g>
<g>
</g>
<g>
</g>
<g>
</g>
<g>
</g>
<g>
</g>
<g>
</g>
<g>
</g>
</svg>
