<?xml version="1.0" encoding="iso-8859-1"?>
<!-- Generator: Adobe Illustrator 19.0.0, SVG Export Plug-In . SVG Version: 6.00 Build 0)  -->
<svg xmlns="http://www.w3.org/2000/svg" xmlns:xlink="http://www.w3.org/1999/xlink" version="1.1" id="Layer_1" x="0px" y="0px" viewBox="0 0 512 512" style="enable-background:new 0 0 512 512;" xml:space="preserve">
<path style="fill:#1C3D66;" d="M256.653,284.55l-38.121-38.122c-7.69-7.689-7.69-20.157,0-27.847c7.69-7.69,20.157-7.69,27.847,0  l38.122,38.122c7.69,7.689,7.69,20.157,0,27.847C276.813,292.237,264.343,292.241,256.653,284.55z"/>
<path style="fill:#163457;" d="M218.559,218.556l65.966,65.966c7.664-7.691,7.657-20.139-0.025-27.82l-38.122-38.122  C238.699,210.899,226.251,210.892,218.559,218.556z"/>
<path style="fill:#1BB3F9;" d="M379.416,504.567L226.149,311.903c-6.234-7.836-5.594-19.102,1.486-26.181l58.037-58.037  c7.078-7.082,18.348-7.722,26.181-1.486l192.665,153.267c9.189,7.308,9.981,21.02,1.666,29.333l-97.435,97.435  C400.453,514.529,386.748,513.786,379.416,504.567z"/>
<path style="fill:#84DBFF;" d="M42.258,246.428c-56.276-56.276-56.276-147.843,0-204.119c56.406-56.408,147.706-56.416,204.121,0  l0,0l0,0c56.274,56.276,56.274,147.843,0,204.119C190.103,302.704,98.537,302.705,42.258,246.428z"/>
<g>
	<path style="fill:#54C9EB;" d="M246.38,42.309L246.38,42.309L246.38,42.309C189.974-14.098,98.693-14.099,42.286,42.283   l204.119,204.119C302.654,190.123,302.646,98.576,246.38,42.309z"/>
	<path style="fill:#54C9EB;" d="M186.527,164.059h-84.416c-10.875,0-19.691-8.816-19.691-19.691   c0-10.875,8.816-19.691,19.691-19.691h84.416c10.875,0,19.691,8.816,19.691,19.691   C206.218,155.243,197.401,164.059,186.527,164.059z"/>
</g>
<path style="fill:#008BE5;" d="M504.519,379.465L311.854,226.199c-7.834-6.236-19.104-5.596-26.181,1.486l-28.993,28.993  l200.813,200.813l48.692-48.692C514.5,400.485,513.707,386.774,504.519,379.465z"/>
<path style="fill:#1BB3F9;" d="M186.527,124.677h-61.848l39.382,39.382h22.465c10.875,0,19.691-8.816,19.691-19.691  C206.218,133.493,197.401,124.677,186.527,124.677z"/>
<g>
</g>
<g>
</g>
<g>
</g>
<g>
</g>
<g>
</g>
<g>
</g>
<g>
</g>
<g>
</g>
<g>
</g>
<g>
</g>
<g>
</g>
<g>
</g>
<g>
</g>
<g>
</g>
<g>
</g>
</svg>
