<?xml version="1.0" encoding="iso-8859-1"?>
<!-- Generator: Adobe Illustrator 19.0.0, SVG Export Plug-In . SVG Version: 6.00 Build 0)  -->
<svg xmlns="http://www.w3.org/2000/svg" xmlns:xlink="http://www.w3.org/1999/xlink" version="1.1" id="Layer_1" x="0px" y="0px" viewBox="0 0 512 512" style="enable-background:new 0 0 512 512;" xml:space="preserve">
<path style="fill:#54C9EB;" d="M395.609,170.137H236.072c-11.13,0-19.137-10.703-16.029-21.367l19.928-68.373  c2.077-7.125,8.607-12.024,16.029-12.024h119.681c7.422,0,13.952,4.899,16.029,12.024l19.928,68.373  C414.752,159.457,406.716,170.137,395.609,170.137z"/>
<path style="fill:#1BB3F9;" d="M411.638,148.77L391.71,80.397c-2.077-7.125-8.607-12.024-16.029-12.024h-59.841v101.764h79.768  C406.716,170.137,414.752,159.457,411.638,148.77z"/>
<path style="fill:#54C9EB;" d="M153.441,170.137H62.277c-9.22,0-16.696-7.475-16.696-16.696v-45.582  c0-9.22,7.475-16.696,16.696-16.696h91.164c9.22,0,16.696,7.475,16.696,16.696v45.582  C170.136,162.663,162.661,170.137,153.441,170.137z"/>
<path style="fill:#84DBFF;" d="M495.304,443.627H16.696C7.475,443.627,0,436.152,0,426.932v-273.49  c0-9.22,7.475-16.696,16.696-16.696h478.609c9.22,0,16.696,7.475,16.696,16.696v273.49C512,436.152,504.525,443.627,495.304,443.627  z"/>
<path style="fill:#54C9EB;" d="M495.304,136.746H315.841v306.882h179.464c9.22,0,16.696-7.475,16.696-16.696v-273.49  C512,144.221,504.525,136.746,495.304,136.746z"/>
<path style="fill:#FFE365;" d="M315.841,375.255c-46.907,0-85.068-38.162-85.068-85.069s38.162-85.068,85.068-85.068  c46.907,0,85.069,38.161,85.069,85.068S362.748,375.255,315.841,375.255z"/>
<g>
	<path style="fill:#54C9EB;" d="M131.304,330.103H84.415c-9.22,0-16.696-7.475-16.696-16.696s7.475-16.696,16.696-16.696h46.888   c9.22,0,16.696,7.475,16.696,16.696S140.524,330.103,131.304,330.103z"/>
	<path style="fill:#54C9EB;" d="M131.304,379.813H84.415c-9.22,0-16.696-7.475-16.696-16.696c0-9.22,7.475-16.696,16.696-16.696   h46.888c9.22,0,16.696,7.475,16.696,16.696C147.999,372.338,140.524,379.813,131.304,379.813z"/>
</g>
<path style="fill:#FFC733;" d="M400.908,290.187c0-46.907-38.161-85.068-85.068-85.068v170.135  C362.748,375.255,400.908,337.092,400.908,290.187z"/>
<g>
</g>
<g>
</g>
<g>
</g>
<g>
</g>
<g>
</g>
<g>
</g>
<g>
</g>
<g>
</g>
<g>
</g>
<g>
</g>
<g>
</g>
<g>
</g>
<g>
</g>
<g>
</g>
<g>
</g>
</svg>
