<?xml version="1.0" encoding="iso-8859-1"?>
<!-- Generator: Adobe Illustrator 19.0.0, SVG Export Plug-In . SVG Version: 6.00 Build 0)  -->
<svg xmlns="http://www.w3.org/2000/svg" xmlns:xlink="http://www.w3.org/1999/xlink" version="1.1" id="Layer_1" x="0px" y="0px" viewBox="0 0 512.001 512.001" style="enable-background:new 0 0 512.001 512.001;" xml:space="preserve">
<path style="fill:#FF7976;" d="M244.512,449.396l-240-247.54c-5.567-5.742-6.038-14.713-1.106-21.007L95.079,63.876  c3.034-3.87,7.677-6.13,12.594-6.13h296.656c4.916,0,9.561,2.26,12.594,6.13l91.671,116.972c4.932,6.294,4.461,15.266-1.106,21.007  l-240,247.54C261.21,455.871,250.8,455.88,244.512,449.396z"/>
<g>
	<path style="fill:#FF5752;" d="M508.595,180.847L416.922,63.876c-3.034-3.87-7.677-6.13-12.594-6.13H256v396.51   c4.174,0,8.348-1.621,11.488-4.86l240-247.54C513.054,196.112,513.527,187.142,508.595,180.847z"/>
	<path style="fill:#FF5752;" d="M424.571,73.636l-7.649-9.76c-3.034-3.87-7.677-6.13-12.594-6.13h-7.897l-89.649,116.972H205.216   L115.567,57.745h-7.895c-4.916,0-9.561,2.26-12.594,6.13l-7.649,9.76L164.9,174.717H8.211l-4.804,6.13   c-4.932,6.294-4.461,15.266,1.106,21.007l4.715,4.863h175.444l54.886,231.54l-1.148,4.842l6.103,6.295   c6.278,6.476,16.688,6.485,22.975,0l6.103-6.295l-1.148-4.842l54.886-231.541h175.443l4.715-4.863   c5.567-5.742,6.038-14.713,1.106-21.007l-4.804-6.13H347.101L424.571,73.636z M256,368.89l-38.443-162.173h76.885L256,368.89z"/>
</g>
<path style="fill:#DB3A3C;" d="M508.595,180.847l-4.804-6.13H347.101l77.47-101.082l-7.649-9.76c-3.034-3.87-7.677-6.13-12.594-6.13  h-7.897l-89.649,116.972H256v32h38.443L256,368.89v85.365c4.172,0,8.345-1.618,11.488-4.86l6.103-6.295l-1.148-4.842l54.886-231.541  h175.443l4.715-4.863C513.054,196.112,513.527,187.142,508.595,180.847z"/>
<g>
</g>
<g>
</g>
<g>
</g>
<g>
</g>
<g>
</g>
<g>
</g>
<g>
</g>
<g>
</g>
<g>
</g>
<g>
</g>
<g>
</g>
<g>
</g>
<g>
</g>
<g>
</g>
<g>
</g>
</svg>
