<?xml version="1.0" encoding="iso-8859-1"?>
<!-- Generator: Adobe Illustrator 19.0.0, SVG Export Plug-In . SVG Version: 6.00 Build 0)  -->
<svg xmlns="http://www.w3.org/2000/svg" xmlns:xlink="http://www.w3.org/1999/xlink" version="1.1" id="Layer_1" x="0px" y="0px" viewBox="0 0 512 512" style="enable-background:new 0 0 512 512;" xml:space="preserve">
<path style="fill:#EFEFEF;" d="M422.957,512H89.043c-9.22,0-16.696-7.475-16.696-16.696V16.696C72.348,7.475,79.823,0,89.043,0  h333.913c9.22,0,16.696,7.475,16.696,16.696v478.609C439.652,504.525,432.177,512,422.957,512z"/>
<path style="fill:#C5D8DF;" d="M422.957,0H256v512h166.957c9.22,0,16.696-7.475,16.696-16.696V16.696  C439.652,7.475,432.177,0,422.957,0z"/>
<path style="fill:#FF7976;" d="M318.987,264.125l-48.373,87.585c-6.344,11.487-22.884,11.475-29.229,0l-48.373-87.585  c-2.823-5.103-2.727-11.242,0-16.15l48.373-87.585c6.344-11.475,22.884-11.487,29.229,0l48.373,87.585  C321.715,252.885,321.81,259.023,318.987,264.125z"/>
<path style="fill:#FF5752;" d="M318.987,247.975l-48.373-87.585c-3.172-5.743-8.893-8.612-14.614-8.611v208.543  c5.721,0.001,11.442-2.867,14.614-8.611l48.373-87.585C321.81,259.023,321.715,252.885,318.987,247.975z"/>
<g>
</g>
<g>
</g>
<g>
</g>
<g>
</g>
<g>
</g>
<g>
</g>
<g>
</g>
<g>
</g>
<g>
</g>
<g>
</g>
<g>
</g>
<g>
</g>
<g>
</g>
<g>
</g>
<g>
</g>
</svg>
