<?xml version="1.0" encoding="iso-8859-1"?>
<!-- Generator: Adobe Illustrator 19.0.0, SVG Export Plug-In . SVG Version: 6.00 Build 0)  -->
<svg xmlns="http://www.w3.org/2000/svg" xmlns:xlink="http://www.w3.org/1999/xlink" version="1.1" id="Layer_1" x="0px" y="0px" viewBox="0 0 512 512" style="enable-background:new 0 0 512 512;" xml:space="preserve">
<g>
	<path style="fill:#1C3D66;" d="M445.257,64.264H204.784c-11.162,0-20.211-9.049-20.211-20.211s9.049-20.211,20.211-20.211h240.473   c11.162,0,20.211,9.049,20.211,20.211S456.418,64.264,445.257,64.264z"/>
	<path style="fill:#1C3D66;" d="M445.257,276.211H204.784c-11.162,0-20.211-9.049-20.211-20.211   c0-11.162,9.049-20.211,20.211-20.211h240.473c11.162,0,20.211,9.049,20.211,20.211   C465.467,267.162,456.418,276.211,445.257,276.211z"/>
	<path style="fill:#1C3D66;" d="M445.257,488.157H204.784c-11.162,0-20.211-9.049-20.211-20.211s9.049-20.211,20.211-20.211h240.473   c11.162,0,20.211,9.049,20.211,20.211S456.418,488.157,445.257,488.157z"/>
</g>
<g>
	<path style="fill:#FFE365;" d="M90.588,88.11c-24.292,0-44.055-19.763-44.055-44.055S66.296,0,90.588,0   s44.055,19.762,44.055,44.054S114.881,88.11,90.588,88.11z"/>
	<path style="fill:#FFE365;" d="M90.588,300.054c-24.292,0-44.055-19.763-44.055-44.054c0-24.29,19.763-44.054,44.055-44.054   S134.643,231.71,134.643,256C134.643,280.29,114.881,300.054,90.588,300.054z"/>
	<path style="fill:#FFE365;" d="M90.588,512c-24.292,0-44.055-19.762-44.055-44.054c0-24.292,19.763-44.055,44.055-44.055   s44.054,19.763,44.054,44.055C134.641,492.238,114.881,512,90.588,512z"/>
</g>
<g>
	<path style="fill:#163457;" d="M445.257,23.843H325.02v40.421h120.236c11.162,0,20.211-9.049,20.211-20.211   S456.418,23.843,445.257,23.843z"/>
	<path style="fill:#163457;" d="M445.257,235.789H325.02v40.421h120.236c11.162,0,20.211-9.049,20.211-20.211   C465.467,244.838,456.418,235.789,445.257,235.789z"/>
	<path style="fill:#163457;" d="M445.257,447.736H325.02v40.421h120.236c11.162,0,20.211-9.049,20.211-20.211   S456.418,447.736,445.257,447.736z"/>
</g>
<g>
	<path style="fill:#FFC733;" d="M90.588,0L90.588,0v88.11l0,0c24.292,0,44.054-19.763,44.054-44.055S114.881,0,90.588,0z"/>
	<path style="fill:#FFC733;" d="M90.588,211.946L90.588,211.946v88.108l0,0c24.292,0,44.054-19.763,44.054-44.054   S114.881,211.946,90.588,211.946z"/>
	<path style="fill:#FFC733;" d="M90.588,423.89L90.588,423.89V512l0,0c24.292,0,44.054-19.762,44.054-44.054   C134.641,443.655,114.881,423.89,90.588,423.89z"/>
</g>
<g>
</g>
<g>
</g>
<g>
</g>
<g>
</g>
<g>
</g>
<g>
</g>
<g>
</g>
<g>
</g>
<g>
</g>
<g>
</g>
<g>
</g>
<g>
</g>
<g>
</g>
<g>
</g>
<g>
</g>
</svg>
