<?xml version="1.0" encoding="iso-8859-1"?>
<!-- Generator: Adobe Illustrator 19.0.0, SVG Export Plug-In . SVG Version: 6.00 Build 0)  -->
<svg xmlns="http://www.w3.org/2000/svg" xmlns:xlink="http://www.w3.org/1999/xlink" version="1.1" id="Layer_1" x="0px" y="0px" viewBox="0 0 512.001 512.001" style="enable-background:new 0 0 512.001 512.001;" xml:space="preserve">
<path style="fill:#84DBFF;" d="M275.897,500.402c-32.265,0.001-60.82-21.814-68.981-53.414l-26.225-101.555H58.061  c-35.137,0-62.218-31.012-57.533-65.801L29.851,61.903c3.863-28.677,28.596-50.304,57.532-50.304l208.211,0.003  c7.369,0,14.578,1.379,21.426,4.1l83.065,32.988c7.313,2.904,12.113,9.975,12.113,17.843v223.969c0,7.868-4.8,14.94-12.114,17.843  l-47.511,18.868c-15.233,6.052-23.631,22.583-19.533,38.455L344.62,410.5C356.844,457.839,323.554,500.402,275.897,500.402z"/>
<g>
	<path style="fill:#54C9EB;" d="M14.146,178.518L0.528,279.631c-4.685,34.789,22.396,65.801,57.533,65.801h122.631l26.225,101.555   c8.161,31.6,36.717,53.415,68.981,53.414c47.655,0,80.946-42.562,68.722-89.899l-11.579-44.832   c-4.099-15.872,4.298-32.403,19.533-38.455l47.511-18.868c7.314-2.904,12.114-9.975,12.114-17.843V178.519H14.146V178.518z"/>
	<path style="fill:#54C9EB;" d="M492.8,345.434h-99.804c-10.603,0-19.2-8.596-19.2-19.2V30.801c0-10.603,8.596-19.2,19.2-19.2H492.8   c10.603,0,19.2,8.596,19.2,19.2v295.434C511.999,336.838,503.404,345.434,492.8,345.434z"/>
</g>
<path style="fill:#1BB3F9;" d="M373.797,178.518v147.716c0,10.603,8.596,19.2,19.2,19.2h99.804c10.603,0,19.2-8.596,19.2-19.2  V178.518H373.797z"/>
<g>
</g>
<g>
</g>
<g>
</g>
<g>
</g>
<g>
</g>
<g>
</g>
<g>
</g>
<g>
</g>
<g>
</g>
<g>
</g>
<g>
</g>
<g>
</g>
<g>
</g>
<g>
</g>
<g>
</g>
</svg>
