<?xml version="1.0" encoding="iso-8859-1"?>
<!-- Generator: Adobe Illustrator 19.0.0, SVG Export Plug-In . SVG Version: 6.00 Build 0)  -->
<svg xmlns="http://www.w3.org/2000/svg" xmlns:xlink="http://www.w3.org/1999/xlink" version="1.1" id="Layer_1" x="0px" y="0px" viewBox="0 0 512.002 512.002" style="enable-background:new 0 0 512.002 512.002;" xml:space="preserve">
<path style="fill:#EFEFEF;" d="M290.557,279.089l-57.644-57.644c-22.424-22.424-22.424-58.908,0-81.332L356.207,16.819  c22.423-22.425,58.909-22.425,81.332,0l57.644,57.644c22.424,22.424,22.424,58.908,0,81.332L371.889,279.089  C349.468,301.511,312.979,301.512,290.557,279.089z M383.316,43.929L260.022,167.223c-7.475,7.475-7.475,19.636,0,27.111  l57.644,57.644c7.476,7.474,19.635,7.475,27.112,0l123.294-123.294c7.475-7.475,7.475-19.636,0-27.111l-57.644-57.644  C402.95,36.454,390.793,36.454,383.316,43.929z"/>
<path style="fill:#C5D8DF;" d="M495.182,74.464l-28.823-28.823l-27.11,27.11l28.823,28.823c7.475,7.475,7.475,19.636,0,27.111  L344.778,251.98c-7.476,7.475-19.635,7.474-27.111,0l-28.823-28.823l-27.109,27.109l28.823,28.823  c22.421,22.424,58.911,22.422,81.332,0l123.294-123.294C517.606,133.371,517.606,96.888,495.182,74.464z"/>
<path style="fill:#EFEFEF;" d="M74.463,495.183l-57.644-57.645c-22.424-22.424-22.424-58.908,0-81.332l123.294-123.294  c22.424-22.426,58.911-22.424,81.332,0l57.644,57.644c22.424,22.424,22.424,58.908,0,81.332L155.795,495.182  C133.374,517.606,96.884,517.607,74.463,495.183z M167.221,260.023L43.928,383.317c-7.475,7.475-7.475,19.636,0,27.111  l57.644,57.644c7.476,7.474,19.635,7.475,27.111,0l123.294-123.294c7.475-7.475,7.475-19.636,0-27.111l-57.644-57.644  C186.855,252.548,174.699,252.548,167.221,260.023z"/>
<g>
	<path style="fill:#C5D8DF;" d="M279.087,290.559l-28.823-28.823l-27.11,27.11l28.823,28.823c7.475,7.475,7.475,19.636,0,27.111   L128.683,468.074c-7.476,7.475-19.635,7.474-27.111,0l-28.823-28.823l-27.11,27.11l28.823,28.823   c22.421,22.424,58.911,22.423,81.332,0l123.294-123.294C301.511,349.466,301.511,312.982,279.087,290.559z"/>
	<path style="fill:#C5D8DF;" d="M158.484,353.517c-7.487-7.485-7.487-19.624,0-27.11L326.4,158.49c7.485-7.485,19.624-7.485,27.11,0   c7.487,7.485,7.487,19.624,0,27.11L185.594,353.517C178.107,361.005,165.97,361.003,158.484,353.517z"/>
</g>
<path style="fill:#9CC2D0;" d="M353.51,158.491L353.51,158.491L158.484,353.517l0,0c7.487,7.487,19.622,7.488,27.11,0L353.51,185.6  C360.997,178.115,360.997,165.977,353.51,158.491z"/>
<g>
</g>
<g>
</g>
<g>
</g>
<g>
</g>
<g>
</g>
<g>
</g>
<g>
</g>
<g>
</g>
<g>
</g>
<g>
</g>
<g>
</g>
<g>
</g>
<g>
</g>
<g>
</g>
<g>
</g>
</svg>
