<?xml version="1.0" encoding="iso-8859-1"?>
<!-- Generator: Adobe Illustrator 19.0.0, SVG Export Plug-In . SVG Version: 6.00 Build 0)  -->
<svg xmlns="http://www.w3.org/2000/svg" xmlns:xlink="http://www.w3.org/1999/xlink" version="1.1" id="Layer_1" x="0px" y="0px" viewBox="0 0 512.001 512.001" style="enable-background:new 0 0 512.001 512.001;" xml:space="preserve">
<path style="fill:#72ABC0;" d="M226.75,359.846c-7.498-7.497-7.498-19.654,0-27.153l55.814-55.814  c7.497-7.497,19.654-7.497,27.153,0c7.498,7.497,7.498,19.654,0,27.153l-55.814,55.814  C246.403,367.344,234.247,367.343,226.75,359.846z"/>
<path style="fill:#9CC2D0;" d="M421.924,90.077c-7.498-7.497-7.498-19.654,0-27.153l57.3-57.3c7.497-7.497,19.654-7.497,27.153,0  c7.498,7.497,7.498,19.654,0,27.153l-57.3,57.3C441.578,97.575,429.421,97.574,421.924,90.077z"/>
<path style="fill:#72ABC0;" d="M506.378,5.625l-84.453,84.452c7.498,7.497,19.653,7.498,27.153,0l57.3-57.3  C513.876,25.279,513.876,13.122,506.378,5.625z"/>
<g>
	<path style="fill:#9CC2D0;" d="M152.15,285.245c-7.498-7.497-7.498-19.654,0-27.153l55.814-55.814   c7.497-7.497,19.654-7.497,27.153,0c7.498,7.497,7.498,19.654,0,27.153l-55.814,55.814   C171.804,292.744,159.647,292.743,152.15,285.245z"/>
	<path style="fill:#9CC2D0;" d="M5.624,506.376c-7.498-7.497-7.498-19.654,0-27.153l57.299-57.3c7.497-7.497,19.654-7.497,27.153,0   c7.498,7.497,7.498,19.654,0,27.153l-57.299,57.3C25.278,513.876,13.122,513.874,5.624,506.376z"/>
</g>
<path style="fill:#72ABC0;" d="M32.776,506.376l57.299-57.3c7.498-7.497,7.498-19.654,0-27.151L5.625,506.376  C13.122,513.874,25.278,513.876,32.776,506.376z"/>
<path style="fill:#EFEFEF;" d="M106.251,492.399L19.603,405.75c-4.977-4.977-6.831-12.276-4.835-19.025l26.116-88.245  c0.909-3.069,2.57-5.864,4.835-8.128l69.349-69.349c7.498-7.498,19.654-7.498,27.153,0l148.777,148.777  c7.493,7.491,7.498,19.657,0,27.153l-69.349,69.349c-2.264,2.264-5.057,3.926-8.128,4.833l-88.243,26.117  C118.497,499.236,111.207,497.356,106.251,492.399z"/>
<g>
	<path style="fill:#C5D8DF;" d="M290.997,369.781l-74.388-74.388L62.927,449.074l43.324,43.324   c4.956,4.957,12.246,6.838,19.025,4.835l88.243-26.117c3.069-0.908,5.864-2.57,8.128-4.833l69.349-69.349   C298.495,389.438,298.489,377.272,290.997,369.781z"/>
	<path style="fill:#C5D8DF;" d="M287.874,420.969L91.032,224.126c-7.498-7.497-7.498-19.654,0-27.153   c7.497-7.497,19.654-7.497,27.153,0l196.842,196.842c7.498,7.497,7.498,19.654,0,27.153   C307.528,428.468,295.372,428.466,287.874,420.969z"/>
</g>
<path style="fill:#EFEFEF;" d="M369.781,290.997L221.004,142.219c-7.498-7.497-7.498-19.654,0-27.153l69.349-69.349  c2.264-2.264,5.057-3.926,8.128-4.835l88.244-26.116c6.751-1.993,14.051-0.142,19.025,4.835l86.648,86.648  c4.977,4.977,6.831,12.276,4.835,19.025l-26.116,88.244c-0.909,3.069-2.572,5.864-4.835,8.128l-69.349,69.349  C389.436,298.495,377.279,298.494,369.781,290.997z"/>
<g>
	<path style="fill:#C5D8DF;" d="M471.117,213.52l26.116-88.244c1.997-6.748,0.141-14.049-4.835-19.025l-43.324-43.324   L295.393,216.609l74.388,74.388c7.498,7.498,19.653,7.498,27.153,0l69.349-69.349C468.547,219.384,470.209,216.591,471.117,213.52z   "/>
	<path style="fill:#C5D8DF;" d="M393.817,315.026L196.975,118.184c-7.498-7.497-7.498-19.654,0-27.153   c7.497-7.497,19.654-7.497,27.153,0L420.97,287.874c7.498,7.497,7.498,19.654,0,27.153   C413.47,322.526,401.314,322.525,393.817,315.026z"/>
	<path style="fill:#C5D8DF;" d="M153.109,412.728l-53.837-53.837c-7.498-7.497-7.498-19.654,0-27.153   c7.497-7.497,19.654-7.497,27.153,0l53.837,53.837c7.498,7.497,7.498,19.654,0,27.153   C172.764,420.227,160.607,420.226,153.109,412.728z"/>
	<path style="fill:#C5D8DF;" d="M385.575,180.262l-53.837-53.837c-7.498-7.497-7.498-19.654,0-27.153   c7.497-7.497,19.654-7.497,27.153,0l53.837,53.837c7.498,7.497,7.498,19.654,0,27.153   C405.229,187.76,393.073,187.76,385.575,180.262z"/>
</g>
<g>
	<path style="fill:#9CC2D0;" d="M315.027,393.817l-98.42-98.42l-27.153,27.151l98.42,98.42c7.498,7.498,19.653,7.5,27.153,0   C322.526,413.471,322.526,401.314,315.027,393.817z"/>
	<path style="fill:#9CC2D0;" d="M420.97,287.874l-98.422-98.42l-27.153,27.153l98.42,98.42c7.498,7.498,19.653,7.5,27.153,0   C428.468,307.53,428.468,295.372,420.97,287.874z"/>
	<path style="fill:#9CC2D0;" d="M180.262,385.575l-26.918-26.918l-27.153,27.153l26.918,26.918c7.498,7.498,19.653,7.498,27.153,0   C187.76,405.231,187.76,393.073,180.262,385.575z"/>
	<path style="fill:#9CC2D0;" d="M412.728,153.109l-26.918-26.918l-27.153,27.153l26.918,26.918c7.498,7.498,19.653,7.498,27.153,0   C420.227,172.763,420.227,160.606,412.728,153.109z"/>
</g>
<g>
</g>
<g>
</g>
<g>
</g>
<g>
</g>
<g>
</g>
<g>
</g>
<g>
</g>
<g>
</g>
<g>
</g>
<g>
</g>
<g>
</g>
<g>
</g>
<g>
</g>
<g>
</g>
<g>
</g>
</svg>
