<?xml version="1.0" encoding="iso-8859-1"?>
<!-- Generator: Adobe Illustrator 19.0.0, SVG Export Plug-In . SVG Version: 6.00 Build 0)  -->
<svg xmlns="http://www.w3.org/2000/svg" xmlns:xlink="http://www.w3.org/1999/xlink" version="1.1" id="Layer_1" x="0px" y="0px" viewBox="0 0 512 512" style="enable-background:new 0 0 512 512;" xml:space="preserve">
<path style="fill:#FFE365;" d="M495.304,406.27H16.696C7.475,406.27,0,398.795,0,389.574v-267.13  c0-12.387,13.046-20.453,24.122-14.954L256,222.653L487.878,107.49C498.97,101.983,512,110.073,512,122.444v267.13  C512,398.795,504.525,406.27,495.304,406.27z"/>
<path style="fill:#FFC733;" d="M487.878,107.49L256,222.653V406.27h239.304c9.22,0,16.696-7.475,16.696-16.696v-267.13  C512,110.073,498.97,101.983,487.878,107.49z"/>
<path style="fill:#FF9000;" d="M381.18,298.547c7.604,5.221,17.998,3.286,23.214-4.313c5.219-7.601,3.289-17.995-4.312-23.214  l-101.348-69.592l-34.231,17.001L381.18,298.547z"/>
<path style="fill:#FFAF00;" d="M130.819,298.547l116.677-80.118l-34.231-17.001l-101.348,69.592  c-7.602,5.219-9.532,15.613-4.313,23.214C112.826,301.838,123.221,303.766,130.819,298.547z"/>
<path style="fill:#FFC733;" d="M248.573,256.247L9.269,137.396c-15.736-7.815-10.143-31.648,7.426-31.648h478.609  c17.569,0,23.161,23.834,7.426,31.649L263.427,256.248C258.749,258.571,253.251,258.571,248.573,256.247z"/>
<path style="fill:#FFAF00;" d="M495.304,105.748H256V257.99c2.544,0,5.088-0.581,7.427-1.743l239.303-118.851  C518.466,129.582,512.875,105.748,495.304,105.748z"/>
<g>
</g>
<g>
</g>
<g>
</g>
<g>
</g>
<g>
</g>
<g>
</g>
<g>
</g>
<g>
</g>
<g>
</g>
<g>
</g>
<g>
</g>
<g>
</g>
<g>
</g>
<g>
</g>
<g>
</g>
</svg>
