<?xml version="1.0" encoding="iso-8859-1"?>
<!-- Generator: Adobe Illustrator 19.0.0, SVG Export Plug-In . SVG Version: 6.00 Build 0)  -->
<svg xmlns="http://www.w3.org/2000/svg" xmlns:xlink="http://www.w3.org/1999/xlink" version="1.1" id="Layer_1" x="0px" y="0px" viewBox="0 0 512 512" style="enable-background:new 0 0 512 512;" xml:space="preserve">
<path style="fill:#C5D8DF;" d="M420.707,512H91.292c-9.22,0-16.696-7.475-16.696-16.696V83.536c0-9.22,7.475-16.696,16.696-16.696  h82.354c9.22,0,16.696,7.475,16.696,16.696v17.203h131.316V83.536c0-9.22,7.475-16.696,16.696-16.696h82.354  c9.22,0,16.696,7.475,16.696,16.696v411.768C437.402,504.525,429.928,512,420.707,512z"/>
<path style="fill:#9CC2D0;" d="M420.707,66.84h-82.354c-9.22,0-16.696,7.475-16.696,16.696v17.203h-65.657V512h164.707  c9.22,0,16.696-7.475,16.696-16.696V83.536C437.402,74.316,429.928,66.84,420.707,66.84z"/>
<path style="fill:#84DBFF;" d="M338.352,134.131H173.646c-9.22,0-16.696-7.475-16.696-16.696V57.873  c0-9.22,7.475-16.696,16.696-16.696h26.935C207.763,17.379,229.891,0,255.999,0s48.236,17.379,55.418,41.177h26.935  c9.22,0,16.696,7.475,16.696,16.696v59.563C355.048,126.655,347.573,134.131,338.352,134.131z"/>
<path style="fill:#EFEFEF;" d="M359.291,445.155H152.708c-9.22,0-16.696-7.475-16.696-16.696V184.28  c0-9.22,7.475-16.696,16.696-16.696h206.583c9.22,0,16.696,7.475,16.696,16.696v244.178  C375.987,437.68,368.511,445.155,359.291,445.155z"/>
<path style="fill:#54C9EB;" d="M338.352,41.177h-26.935C304.235,17.379,282.108,0,255.999,0v134.131h82.353  c9.22,0,16.696-7.475,16.696-16.696V57.873C355.048,48.651,347.573,41.177,338.352,41.177z"/>
<path style="fill:#C5D8DF;" d="M359.291,167.584H255.999v277.57h103.292c9.22,0,16.696-7.475,16.696-16.696V184.28  C375.987,175.059,368.511,167.584,359.291,167.584z"/>
<g>
</g>
<g>
</g>
<g>
</g>
<g>
</g>
<g>
</g>
<g>
</g>
<g>
</g>
<g>
</g>
<g>
</g>
<g>
</g>
<g>
</g>
<g>
</g>
<g>
</g>
<g>
</g>
<g>
</g>
</svg>
