<?xml version="1.0" encoding="iso-8859-1"?>
<!-- Generator: Adobe Illustrator 19.0.0, SVG Export Plug-In . SVG Version: 6.00 Build 0)  -->
<svg xmlns="http://www.w3.org/2000/svg" xmlns:xlink="http://www.w3.org/1999/xlink" version="1.1" id="Layer_1" x="0px" y="0px" viewBox="0 0 512 512" style="enable-background:new 0 0 512 512;" xml:space="preserve">
<path style="fill:#008BE5;" d="M97.637,413.032H16.009c-10.855,0-18.553-10.597-15.227-20.909l34.732-107.721  c1.25-3.877,3.933-7.133,7.499-9.099l85.977-47.426c6.118-3.374,13.718-2.389,18.773,2.434  c13.789,13.158,33.204,16.795,49.946,11.223c6.638-2.21,13.939,0.149,18.03,5.823c1.751,2.429,3.757,4.726,5.961,6.831  c7.814,7.457,6.133,20.373-3.318,25.585l-80.433,44.363l-25.086,77.807C110.733,408.552,104.582,413.032,97.637,413.032z"/>
<path id="SVGCleanerId_0" style="fill:#008BE5;" d="M495.99,413.032h-81.628c-6.945,0-13.096-4.48-15.227-11.09l-25.086-77.807  l-80.433-44.363c-9.458-5.217-11.128-18.134-3.318-25.585c2.205-2.104,4.211-4.402,5.961-6.831c4.089-5.673,11.39-8.032,18.03-5.823  c16.665,5.545,36.097,1.99,49.946-11.223c5.055-4.822,12.654-5.809,18.773-2.434l85.977,47.426c3.567,1.968,6.249,5.222,7.499,9.099  l34.732,107.721C514.549,402.454,506.826,413.032,495.99,413.032z"/>
<path style="fill:#1BB3F9;" d="M125.675,253.462c-16.318-15.561-25.308-36.556-25.308-59.114v-37.551  c0-45.047,36.653-81.696,81.706-81.696c26.213,0,50.97,12.659,66.225,33.861c6.303,8.76,2.286,21.135-7.952,24.53  c-20.362,6.753-34.042,25.713-34.042,47.181v37.551c0,10.546,3.254,20.607,9.412,29.099c6.347,8.752,2.349,21.163-7.9,24.573  C180.16,281.1,148.305,275.056,125.675,253.462z"/>
<path id="SVGCleanerId_1" style="fill:#1BB3F9;" d="M304.185,271.895c-10.259-3.413-14.243-15.829-7.9-24.573  c6.158-8.491,9.412-18.554,9.412-29.099v-37.551c0-21.489-13.675-40.449-34.029-47.176c-10.253-3.39-14.267-15.775-7.966-24.534  c15.254-21.202,40.011-33.861,66.225-33.861c45.052,0,81.706,36.648,81.706,81.696v37.551c0,22.558-8.99,43.553-25.311,59.118  C363.857,274.901,332.051,281.171,304.185,271.895z"/>
<path style="fill:#54C9EB;" d="M422.063,436.899H89.937c-10.855,0-18.554-10.599-15.226-20.912l34.731-107.707  c1.25-3.877,3.933-7.133,7.501-9.1l85.988-47.426c6.122-3.376,13.727-2.386,18.781,2.444c9.26,8.851,21.438,13.725,34.289,13.725  c32.67,0,35.019-26.125,53.07-16.168l85.988,47.426c3.568,1.968,6.249,5.222,7.501,9.1l34.731,107.707  C440.623,426.317,432.9,436.899,422.063,436.899z"/>
<path style="fill:#84DBFF;" d="M256,299.92c-44.609,0-81.695-36.112-81.695-81.696v-37.551c0-35.285,22.492-66.451,55.969-77.553  c8.254-2.748,16.915-4.143,25.727-4.143c8.812,0,17.472,1.395,25.743,4.148c33.455,11.059,55.953,42.227,55.953,77.548v37.551  C337.696,263.313,301.184,299.92,256,299.92z"/>
<g>
	<path id="SVGCleanerId_0_1_" style="fill:#008BE5;" d="M495.99,413.032h-81.628c-6.945,0-13.096-4.48-15.227-11.09l-25.086-77.807   l-80.433-44.363c-9.458-5.217-11.128-18.134-3.318-25.585c2.205-2.104,4.211-4.402,5.961-6.831   c4.089-5.673,11.39-8.032,18.03-5.823c16.665,5.545,36.097,1.99,49.946-11.223c5.055-4.822,12.654-5.809,18.773-2.434   l85.977,47.426c3.567,1.968,6.249,5.222,7.499,9.099l34.732,107.721C514.549,402.454,506.826,413.032,495.99,413.032z"/>
</g>
<g>
	<path id="SVGCleanerId_1_1_" style="fill:#1BB3F9;" d="M304.185,271.895c-10.259-3.413-14.243-15.829-7.9-24.573   c6.158-8.491,9.412-18.554,9.412-29.099v-37.551c0-21.489-13.675-40.449-34.029-47.176c-10.253-3.39-14.267-15.775-7.966-24.534   c15.254-21.202,40.011-33.861,66.225-33.861c45.052,0,81.706,36.648,81.706,81.696v37.551c0,22.558-8.99,43.553-25.311,59.118   C363.857,274.901,332.051,281.171,304.185,271.895z"/>
</g>
<path style="fill:#1BB3F9;" d="M437.289,415.987L402.558,308.28c-1.25-3.877-3.933-7.133-7.501-9.1l-85.988-47.426  c-18.049-9.957-20.4,16.168-53.07,16.168v168.977h166.064C432.9,436.899,440.623,426.317,437.289,415.987z"/>
<path style="fill:#54C9EB;" d="M281.743,103.126c-8.27-2.753-16.932-4.148-25.743-4.148V299.92  c45.183,0,81.696-36.607,81.696-81.696v-37.551C337.696,145.353,315.197,114.185,281.743,103.126z"/>
<g>
</g>
<g>
</g>
<g>
</g>
<g>
</g>
<g>
</g>
<g>
</g>
<g>
</g>
<g>
</g>
<g>
</g>
<g>
</g>
<g>
</g>
<g>
</g>
<g>
</g>
<g>
</g>
<g>
</g>
</svg>
