<?xml version="1.0" encoding="iso-8859-1"?>
<!-- Generator: Adobe Illustrator 19.0.0, SVG Export Plug-In . SVG Version: 6.00 Build 0)  -->
<svg xmlns="http://www.w3.org/2000/svg" xmlns:xlink="http://www.w3.org/1999/xlink" version="1.1" id="Layer_1" x="0px" y="0px" viewBox="0 0 512 512" style="enable-background:new 0 0 512 512;" xml:space="preserve">
<path style="fill:#1C3D66;" d="M371.354,256.58c-9.22,0-16.696-7.475-16.696-16.696V132.048c0-54.399-44.258-98.657-98.658-98.657  c-48.712,0-89.292,35.483-97.245,81.962h36.489c9.22,0,16.696,7.475,16.696,16.696c0,9.22-7.475,16.696-16.696,16.696h-54.597  c-9.22,0-16.696-7.475-16.696-16.696C123.951,59.237,183.188,0,256,0s132.049,59.237,132.049,132.049v107.836  C388.049,249.106,380.574,256.58,371.354,256.58z"/>
<path style="fill:#163457;" d="M256,0v33.391c54.4,0,98.658,44.258,98.658,98.658v107.836c0,9.22,7.475,16.696,16.696,16.696  s16.696-7.475,16.696-16.696V132.049C388.049,59.237,328.812,0,256,0z"/>
<path style="fill:#FFE365;" d="M426.935,512H85.065c-9.22,0-16.696-7.475-16.696-16.696v-255.42c0-9.22,7.475-16.696,16.696-16.696  h341.869c9.22,0,16.696,7.475,16.696,16.696v255.42C443.63,504.525,436.155,512,426.935,512z"/>
<g>
	<path style="fill:#FFC733;" d="M426.935,223.189H256V512h170.935c9.22,0,16.696-7.475,16.696-16.696v-255.42   C443.63,230.664,436.155,223.189,426.935,223.189z"/>
	<path style="fill:#FFC733;" d="M312.389,339.427c0-31.094-25.296-56.389-56.389-56.389s-56.389,25.296-56.389,56.389   c0,25.283,16.726,46.731,39.693,53.866v42.163c0,9.22,7.475,16.696,16.696,16.696c9.22,0,16.696-7.475,16.696-16.696v-42.163   C295.663,386.158,312.389,364.71,312.389,339.427z"/>
</g>
<path style="fill:#FFAF00;" d="M256,283.038v169.114c9.22,0,16.696-7.475,16.696-16.696v-42.163  c22.968-7.133,39.693-28.582,39.693-53.866C312.389,308.334,287.094,283.038,256,283.038z"/>
<g>
</g>
<g>
</g>
<g>
</g>
<g>
</g>
<g>
</g>
<g>
</g>
<g>
</g>
<g>
</g>
<g>
</g>
<g>
</g>
<g>
</g>
<g>
</g>
<g>
</g>
<g>
</g>
<g>
</g>
</svg>
