<?xml version="1.0" encoding="iso-8859-1"?>
<!-- Generator: Adobe Illustrator 19.0.0, SVG Export Plug-In . SVG Version: 6.00 Build 0)  -->
<svg xmlns="http://www.w3.org/2000/svg" xmlns:xlink="http://www.w3.org/1999/xlink" version="1.1" id="Layer_1" x="0px" y="0px" viewBox="0 0 512 512" style="enable-background:new 0 0 512 512;" xml:space="preserve">
<path style="fill:#FF7976;" d="M256,512C114.511,512,0,397.503,0,256C0,114.511,114.497,0,256,0c141.49,0,256,114.497,256,256  C512,397.49,397.503,512,256,512z"/>
<path style="fill:#FF5752;" d="M256,0v512c141.503,0,256-114.51,256-256C512,114.497,397.49,0,256,0z"/>
<g>
	<path style="fill:#EFEFEF;" d="M255.997,387.878c-9.425,0-17.067-7.641-17.067-17.067V226.843c0-9.425,7.641-17.067,17.067-17.067   c9.425,0,17.067,7.641,17.067,17.067v143.969C273.063,380.236,265.422,387.878,255.997,387.878z"/>
	<path style="fill:#EFEFEF;" d="M256,192.389c-18.821,0-34.133-15.312-34.133-34.133s15.312-34.133,34.133-34.133   s34.133,15.312,34.133,34.133S274.821,192.389,256,192.389z M255.999,158.234l0.001,0.022   C256,158.241,255.999,158.234,255.999,158.234z"/>
</g>
<g>
	<path style="fill:#C5D8DF;" d="M256,209.777v178.101c9.424-0.002,17.063-7.642,17.063-17.067V226.843   C273.063,217.418,265.424,209.778,256,209.777z"/>
	<path style="fill:#C5D8DF;" d="M256,124.122v34.133v34.133c18.821,0,34.133-15.312,34.133-34.133S274.821,124.122,256,124.122z"/>
</g>
<g>
</g>
<g>
</g>
<g>
</g>
<g>
</g>
<g>
</g>
<g>
</g>
<g>
</g>
<g>
</g>
<g>
</g>
<g>
</g>
<g>
</g>
<g>
</g>
<g>
</g>
<g>
</g>
<g>
</g>
</svg>
