<?xml version="1.0" encoding="iso-8859-1"?>
<!-- Generator: Adobe Illustrator 19.0.0, SVG Export Plug-In . SVG Version: 6.00 Build 0)  -->
<svg xmlns="http://www.w3.org/2000/svg" xmlns:xlink="http://www.w3.org/1999/xlink" version="1.1" id="Layer_1" x="0px" y="0px" viewBox="0 0 512 512" style="enable-background:new 0 0 512 512;" xml:space="preserve">
<path style="fill:#EFEFEF;" d="M494.14,286.863h-20.016V184.546c0-9.859-8.001-17.86-17.86-17.86H55.737  c-9.859,0-17.86,8.001-17.86,17.86v102.317H17.86c-9.859,0-17.86,8.001-17.86,17.86v142.919c0,9.871,8.001,17.86,17.86,17.86H494.14  c9.859,0,17.86-7.99,17.86-17.86V304.723C512,294.864,503.999,286.863,494.14,286.863z"/>
<g>
	<path style="fill:#C5D8DF;" d="M494.14,286.863h-20.016V184.546c0-9.859-8.001-17.86-17.86-17.86H256v120.177v35.721v142.919   h238.14c9.859,0,17.86-7.99,17.86-17.86V304.723C512,294.864,503.999,286.863,494.14,286.863z"/>
	<polygon style="fill:#C5D8DF;" points="474.124,251.142 273.706,251.142 273.706,166.686 237.985,166.686 237.985,251.142    37.876,251.142 37.876,286.863 237.985,286.863 237.985,465.503 273.706,465.503 273.706,286.863 474.124,286.863  "/>
</g>
<g>
	<polygon style="fill:#9CC2D0;" points="273.706,251.142 273.706,166.686 256,166.686 256,465.503 273.706,465.503 273.706,286.863    474.124,286.863 474.124,251.142  "/>
	<path style="fill:#9CC2D0;" d="M474.124,202.407H37.876V64.357c0-9.864,7.997-17.86,17.86-17.86h400.527   c9.864,0,17.86,7.997,17.86,17.86V202.407z"/>
</g>
<path style="fill:#72ABC0;" d="M474.124,64.357c0-9.864-7.997-17.86-17.86-17.86H256v155.91h218.124V64.357z"/>
<g>
</g>
<g>
</g>
<g>
</g>
<g>
</g>
<g>
</g>
<g>
</g>
<g>
</g>
<g>
</g>
<g>
</g>
<g>
</g>
<g>
</g>
<g>
</g>
<g>
</g>
<g>
</g>
<g>
</g>
</svg>
