<?xml version="1.0" encoding="iso-8859-1"?>
<!-- Generator: Adobe Illustrator 19.0.0, SVG Export Plug-In . SVG Version: 6.00 Build 0)  -->
<svg xmlns="http://www.w3.org/2000/svg" xmlns:xlink="http://www.w3.org/1999/xlink" version="1.1" id="Layer_1" x="0px" y="0px" viewBox="0 0 511.999 511.999" style="enable-background:new 0 0 511.999 511.999;" xml:space="preserve">
<path style="fill:#EFEFEF;" d="M273.484,450.723L131.417,345.226H16.696C7.475,345.226,0,337.751,0,328.531V183.479  c0-9.22,7.475-16.696,16.696-16.696h114.721L273.484,61.287c11.007-8.174,26.648-0.282,26.648,13.403v362.63  C300.132,451.116,284.397,458.83,273.484,450.723z"/>
<g>
	<path style="fill:#C5D8DF;" d="M453.305,256.005l53.805-53.805c6.52-6.52,6.52-17.091,0-23.611c-6.519-6.52-17.091-6.52-23.611,0   l-53.805,53.805l-53.805-53.805c-6.519-6.52-17.091-6.52-23.611,0c-6.52,6.52-6.52,17.091,0,23.611l53.805,53.805l-53.805,53.805   c-6.52,6.52-6.52,17.091,0,23.611c6.519,6.52,17.091,6.521,23.611,0l53.805-53.805l53.805,53.805c6.519,6.52,17.091,6.521,23.611,0   c6.52-6.52,6.52-17.091,0-23.611L453.305,256.005z"/>
	<path style="fill:#C5D8DF;" d="M16.696,166.783C7.475,166.783,0,174.258,0,183.479v145.052c0,9.22,7.475,16.696,16.696,16.696   h114.721V166.783H16.696z"/>
	<path style="fill:#C5D8DF;" d="M0,255.999v72.531c0,9.22,7.475,16.696,16.696,16.696h114.721l142.067,105.496   c10.913,8.107,26.65,0.393,26.65-13.403v-181.32H0z"/>
</g>
<g>
	<path style="fill:#9CC2D0;" d="M453.305,256.005l0.004-0.006h-47.232l0.006,0.006l-53.805,53.805c-6.52,6.52-6.52,17.091,0,23.611   c6.518,6.519,17.091,6.521,23.611,0l53.805-53.805l53.805,53.805c6.518,6.519,17.091,6.521,23.611,0   c6.52-6.52,6.52-17.091,0-23.611L453.305,256.005z"/>
	<path style="fill:#9CC2D0;" d="M0,255.999v72.531c0,9.22,7.475,16.696,16.696,16.696h114.721v-89.227H0z"/>
</g>
<g>
</g>
<g>
</g>
<g>
</g>
<g>
</g>
<g>
</g>
<g>
</g>
<g>
</g>
<g>
</g>
<g>
</g>
<g>
</g>
<g>
</g>
<g>
</g>
<g>
</g>
<g>
</g>
<g>
</g>
</svg>
