<?xml version="1.0" encoding="iso-8859-1"?>
<!-- Generator: Adobe Illustrator 19.0.0, SVG Export Plug-In . SVG Version: 6.00 Build 0)  -->
<svg xmlns="http://www.w3.org/2000/svg" xmlns:xlink="http://www.w3.org/1999/xlink" version="1.1" id="Layer_1" x="0px" y="0px" viewBox="0 0 512 512" style="enable-background:new 0 0 512 512;" xml:space="preserve">
<path style="fill:#FFE365;" d="M222.844,485.088H17.067C7.641,485.088,0,477.447,0,468.021V43.979  c0-9.425,7.641-17.067,17.067-17.067h205.777c9.425,0,17.067,7.641,17.067,17.067V468.02  C239.911,477.447,232.271,485.088,222.844,485.088z"/>
<g>
	<path style="fill:#FFC733;" d="M151.48,153.898H88.43c-9.425,0-17.067-7.641-17.067-17.067s7.641-17.067,17.067-17.067h63.05   c9.425,0,17.067,7.641,17.067,17.067S160.906,153.898,151.48,153.898z"/>
	<path style="fill:#FFC733;" d="M151.48,233.343H88.43c-9.425,0-17.067-7.641-17.067-17.067c0-9.425,7.641-17.067,17.067-17.067   h63.05c9.425,0,17.067,7.641,17.067,17.067C168.547,225.702,160.906,233.343,151.48,233.343z"/>
	<path style="fill:#FFC733;" d="M151.48,312.79H88.43c-9.425,0-17.067-7.641-17.067-17.067c0-9.425,7.641-17.067,17.067-17.067   h63.05c9.425,0,17.067,7.641,17.067,17.067C168.547,305.149,160.906,312.79,151.48,312.79z"/>
	<path style="fill:#FFC733;" d="M151.48,392.235H88.43c-9.425,0-17.067-7.641-17.067-17.067c0-9.425,7.641-17.067,17.067-17.067   h63.05c9.425,0,17.067,7.641,17.067,17.067C168.547,384.594,160.906,392.235,151.48,392.235z"/>
	<path style="fill:#FFC733;" d="M222.844,26.912H119.955v458.175h102.889c9.425,0,17.067-7.641,17.067-17.067V43.979   C239.911,34.553,232.271,26.912,222.844,26.912z"/>
</g>
<g>
	<path style="fill:#FFAF00;" d="M151.48,119.765h-31.524v34.133h31.524c9.425,0,17.067-7.641,17.067-17.067   S160.906,119.765,151.48,119.765z"/>
	<path style="fill:#FFAF00;" d="M151.48,199.21h-31.524v34.133h31.524c9.425,0,17.067-7.641,17.067-17.067   C168.547,206.851,160.906,199.21,151.48,199.21z"/>
	<path style="fill:#FFAF00;" d="M151.48,278.657h-31.524v34.133h31.524c9.425,0,17.067-7.641,17.067-17.067   C168.547,286.298,160.906,278.657,151.48,278.657z"/>
	<path style="fill:#FFAF00;" d="M151.48,358.102h-31.524v34.133h31.524c9.425,0,17.067-7.641,17.067-17.067   C168.547,365.743,160.906,358.102,151.48,358.102z"/>
</g>
<path style="fill:#FFE365;" d="M494.933,485.088H289.156c-9.425,0-17.067-7.641-17.067-17.067V43.979  c0-9.425,7.641-17.067,17.067-17.067h205.777c9.425,0,17.067,7.641,17.067,17.067V468.02  C512,477.447,504.359,485.088,494.933,485.088z"/>
<g>
	<path style="fill:#FFC733;" d="M423.569,153.898h-63.05c-9.425,0-17.067-7.641-17.067-17.067s7.641-17.067,17.067-17.067h63.05   c9.425,0,17.067,7.641,17.067,17.067S432.995,153.898,423.569,153.898z"/>
	<path style="fill:#FFC733;" d="M423.569,233.343h-63.05c-9.425,0-17.067-7.641-17.067-17.067c0-9.425,7.641-17.067,17.067-17.067   h63.05c9.425,0,17.067,7.641,17.067,17.067C440.635,225.702,432.995,233.343,423.569,233.343z"/>
	<path style="fill:#FFC733;" d="M423.569,312.79h-63.05c-9.425,0-17.067-7.641-17.067-17.067c0-9.425,7.641-17.067,17.067-17.067   h63.05c9.425,0,17.067,7.641,17.067,17.067C440.635,305.149,432.995,312.79,423.569,312.79z"/>
	<path style="fill:#FFC733;" d="M423.569,392.235h-63.05c-9.425,0-17.067-7.641-17.067-17.067c0-9.425,7.641-17.067,17.067-17.067   h63.05c9.425,0,17.067,7.641,17.067,17.067C440.635,384.594,432.995,392.235,423.569,392.235z"/>
	<path style="fill:#FFC733;" d="M494.933,26.912H392.044v458.175h102.889c9.425,0,17.067-7.641,17.067-17.067V43.979   C512,34.553,504.359,26.912,494.933,26.912z"/>
</g>
<g>
	<path style="fill:#FFAF00;" d="M423.569,119.765h-31.524v34.133h31.524c9.425,0,17.067-7.641,17.067-17.067   S432.995,119.765,423.569,119.765z"/>
	<path style="fill:#FFAF00;" d="M423.569,199.21h-31.524v34.133h31.524c9.425,0,17.067-7.641,17.067-17.067   C440.635,206.851,432.995,199.21,423.569,199.21z"/>
	<path style="fill:#FFAF00;" d="M423.569,278.657h-31.524v34.133h31.524c9.425,0,17.067-7.641,17.067-17.067   C440.635,286.298,432.995,278.657,423.569,278.657z"/>
	<path style="fill:#FFAF00;" d="M423.569,358.102h-31.524v34.133h31.524c9.425,0,17.067-7.641,17.067-17.067   C440.635,365.743,432.995,358.102,423.569,358.102z"/>
</g>
<g>
</g>
<g>
</g>
<g>
</g>
<g>
</g>
<g>
</g>
<g>
</g>
<g>
</g>
<g>
</g>
<g>
</g>
<g>
</g>
<g>
</g>
<g>
</g>
<g>
</g>
<g>
</g>
<g>
</g>
</svg>
