<?xml version="1.0" encoding="iso-8859-1"?>
<!-- Generator: Adobe Illustrator 19.0.0, SVG Export Plug-In . SVG Version: 6.00 Build 0)  -->
<svg xmlns="http://www.w3.org/2000/svg" xmlns:xlink="http://www.w3.org/1999/xlink" version="1.1" id="Layer_1" x="0px" y="0px" viewBox="0 0 512 512" style="enable-background:new 0 0 512 512;" xml:space="preserve">
<path style="fill:#EFEFEF;" d="M422.957,512H89.043c-9.22,0-16.696-7.475-16.696-16.696V16.696C72.348,7.475,79.823,0,89.043,0  h333.913c9.22,0,16.696,7.475,16.696,16.696v478.609C439.652,504.525,432.177,512,422.957,512z"/>
<path style="fill:#C5D8DF;" d="M422.957,0H256v512h166.957c9.22,0,16.696-7.475,16.696-16.696V16.696  C439.652,7.475,432.177,0,422.957,0z"/>
<path style="fill:#1C3D66;" d="M330.78,301.37c10.116-10.431,15.441-24.184,14.996-38.727  c-0.699-22.786-16.226-42.387-37.215-49.105c5.077-31.337-18.123-59.684-48.957-61.732c-34.68-2.323-61.631,28.325-56.15,61.747  c-21.849,6.985-37.607,27.803-37.156,51.769c0.688,36.499,38.075,62.375,73.007,48.453v13.154h-16.108  c-9.22,0-16.696,7.475-16.696,16.696c0,9.22,7.475,16.696,16.696,16.696h65.607c9.22,0,16.696-7.475,16.696-16.696  c0-9.22-7.475-16.696-16.696-16.696h-16.109v-13.192C291.733,321.363,314.904,317.739,330.78,301.37z"/>
<path style="fill:#163457;" d="M330.78,301.37c10.116-10.431,15.441-24.184,14.996-38.727  c-0.699-22.786-16.226-42.387-37.215-49.105c5.077-31.337-18.123-59.684-48.957-61.732c-1.212-0.081-2.412-0.112-3.603-0.115  v208.628h32.804c9.22,0,16.696-7.475,16.696-16.696c0-9.22-7.475-16.696-16.696-16.696h-16.109v-13.192  C291.733,321.363,314.904,317.739,330.78,301.37z"/>
<g>
</g>
<g>
</g>
<g>
</g>
<g>
</g>
<g>
</g>
<g>
</g>
<g>
</g>
<g>
</g>
<g>
</g>
<g>
</g>
<g>
</g>
<g>
</g>
<g>
</g>
<g>
</g>
<g>
</g>
</svg>
