<?xml version="1.0" encoding="iso-8859-1"?>
<!-- Generator: Adobe Illustrator 19.0.0, SVG Export Plug-In . SVG Version: 6.00 Build 0)  -->
<svg xmlns="http://www.w3.org/2000/svg" xmlns:xlink="http://www.w3.org/1999/xlink" version="1.1" id="Layer_1" x="0px" y="0px" viewBox="0 0 512.001 512.001" style="enable-background:new 0 0 512.001 512.001;" xml:space="preserve">
<path style="fill:#FFE365;" d="M184.699,506.77l-54.548-54.548c-6.97-6.968-6.975-18.284,0-25.258  c12.468-12.468,12.467-32.645,0-45.112s-32.644-12.469-45.114,0c-6.974,6.975-18.286,6.974-25.258,0l-54.546-54.55  c-6.975-6.975-6.975-18.283,0-25.258L302.044,5.231c6.974-6.975,18.283-6.975,25.258,0l54.578,54.577  c5.887,5.888,8.424,16.741-1.175,26.375c-12.456,12.456-12.456,32.694-0.019,45.132c12.468,12.467,32.644,12.468,45.113,0  c9.174-9.206,20.085-7.501,26.393-1.194l54.578,54.577c6.969,6.969,6.975,18.284,0,25.258L209.958,506.77  C202.988,513.74,191.672,513.744,184.699,506.77z"/>
<g>
	<path style="fill:#FFC733;" d="M220.438,399.244L112.757,291.563c-6.975-6.975-6.975-18.283,0-25.258l153.549-153.548   c6.974-6.975,18.283-6.975,25.258,0l107.681,107.681c6.975,6.975,6.975,18.283,0,25.258L245.696,399.244   C238.723,406.219,227.413,406.22,220.438,399.244z"/>
	<path style="fill:#FFC733;" d="M506.771,184.698l-54.578-54.577c-6.308-6.307-17.219-8.012-26.393,1.194   c-12.469,12.468-32.645,12.467-45.113,0l0,0L130.151,381.85c0,0,0.001,0,0.001,0.001c12.467,12.467,12.468,32.644,0,45.112   c-6.975,6.974-6.969,18.29,0,25.26l54.548,54.548c6.973,6.974,18.288,6.972,25.258,0l296.812-296.812   C513.746,202.983,513.74,191.668,506.771,184.698z"/>
</g>
<path style="fill:#FFAF00;" d="M399.244,220.437l-53.841-53.841L166.597,345.403l53.841,53.841c6.975,6.976,18.284,6.975,25.258,0  l153.548-153.548C406.22,238.721,406.221,227.412,399.244,220.437z"/>
<g>
</g>
<g>
</g>
<g>
</g>
<g>
</g>
<g>
</g>
<g>
</g>
<g>
</g>
<g>
</g>
<g>
</g>
<g>
</g>
<g>
</g>
<g>
</g>
<g>
</g>
<g>
</g>
<g>
</g>
</svg>
