<?xml version="1.0" encoding="iso-8859-1"?>
<!-- Generator: Adobe Illustrator 19.0.0, SVG Export Plug-In . SVG Version: 6.00 Build 0)  -->
<svg xmlns="http://www.w3.org/2000/svg" xmlns:xlink="http://www.w3.org/1999/xlink" version="1.1" id="Layer_1" x="0px" y="0px" viewBox="0 0 512.001 512.001" style="enable-background:new 0 0 512.001 512.001;" xml:space="preserve">
<path style="fill:#1C3D66;" d="M15.402,496.64c-7.892-7.892-7.892-20.688,0-28.58l29.605-29.605c7.891-7.892,20.688-7.892,28.58,0  s7.892,20.688,0,28.58L43.982,496.64C36.091,504.531,23.293,504.532,15.402,496.64z"/>
<g>
	<path style="fill:#163457;" d="M73.586,438.454c-0.007-0.007-0.015-0.012-0.022-0.019l-58.183,58.183   c0.007,0.007,0.012,0.015,0.019,0.022c7.892,7.894,20.689,7.892,28.58,0l29.605-29.605   C81.479,459.142,81.479,446.347,73.586,438.454z"/>
	<path style="fill:#163457;" d="M84.053,506.082L5.966,427.994c-7.471-7.471-7.926-19.436-1.044-27.454l251.716-293.224   c12.787-14.897,37.219-4.531,35.462,14.976c-2.4,26.647,7.068,52.773,25.974,71.68c18.908,18.908,45.043,28.374,71.68,25.976   c19.532-1.77,29.851,22.694,14.976,35.462L111.507,507.126C103.491,514.008,91.525,513.552,84.053,506.082z"/>
</g>
<path style="fill:#0F2A47;" d="M389.755,219.948c-26.637,2.398-52.772-7.068-71.68-25.976c-0.008-0.008-0.015-0.016-0.023-0.023  L44.986,467.014l39.067,39.067c7.472,7.472,19.437,7.926,27.454,1.044L404.731,255.41  C419.604,242.642,409.285,218.178,389.755,219.948z"/>
<g>
	<polygon style="fill:#1C3D66;" points="154.498,470.22 185.255,443.817 68.231,326.792 41.828,357.548  "/>
	<path style="fill:#1C3D66;" d="M289.495,222.553c-51.38-51.379-50.424-133.918,0-184.342c50.944-50.945,133.393-50.95,184.342,0   c50.824,50.824,50.824,133.519,0,184.342l0,0C423.05,273.339,340.52,273.58,289.495,222.553z"/>
</g>
<g>
	<polygon style="fill:#163457;" points="185.255,443.817 126.719,385.281 98.139,413.861 154.499,470.22  "/>
	<path style="fill:#163457;" d="M473.837,38.211c-0.008-0.008-0.016-0.015-0.023-0.023L289.471,222.53   c0.008,0.008,0.015,0.016,0.023,0.023c51.026,51.027,133.557,50.785,184.342,0C524.659,171.73,524.659,89.035,473.837,38.211z"/>
</g>
<g>
</g>
<g>
</g>
<g>
</g>
<g>
</g>
<g>
</g>
<g>
</g>
<g>
</g>
<g>
</g>
<g>
</g>
<g>
</g>
<g>
</g>
<g>
</g>
<g>
</g>
<g>
</g>
<g>
</g>
</svg>
