<?xml version="1.0" encoding="iso-8859-1"?>
<!-- Generator: Adobe Illustrator 19.0.0, SVG Export Plug-In . SVG Version: 6.00 Build 0)  -->
<svg xmlns="http://www.w3.org/2000/svg" xmlns:xlink="http://www.w3.org/1999/xlink" version="1.1" id="Layer_1" x="0px" y="0px" viewBox="0 0 512 512" style="enable-background:new 0 0 512 512;" xml:space="preserve">
<path style="fill:#EFEFEF;" d="M400.696,512H111.304c-21.481,0-38.957-17.476-38.957-38.957V38.957  C72.348,17.476,89.824,0,111.304,0h289.391c21.481,0,38.957,17.476,38.957,38.957v434.087C439.652,494.524,422.176,512,400.696,512z  "/>
<g>
	<path style="fill:#C5D8DF;" d="M400.696,0H256v512h144.696c21.481,0,38.957-17.476,38.957-38.957V38.957   C439.652,17.476,422.176,0,400.696,0z"/>
	<path style="fill:#C5D8DF;" d="M256,349.062c-16.878,0-56.714-6.118-63.096-21.019c-16.451,1.379-63.356-43.954-63.356-105.434   c0-69.727,56.726-126.453,126.453-126.453s126.452,56.726,126.452,126.453S325.727,349.062,256,349.062z"/>
</g>
<g>
	<path style="fill:#9CC2D0;" d="M256,96.156v252.906c69.727,0,126.453-56.726,126.453-126.453S325.727,96.156,256,96.156z"/>
	<path style="fill:#9CC2D0;" d="M256,261.565c-21.481,0-38.957-17.476-38.957-38.957s17.476-38.957,38.957-38.957   s38.957,17.476,38.957,38.957S277.481,261.565,256,261.565z"/>
	<path style="fill:#9CC2D0;" d="M128.522,346.539c1.269-10.896,7.351-20.449,16.688-26.211l74.587-46.004   c14.917-9.199,32.185,8.045,22.977,22.973l-46.001,74.595c-5.751,9.325-15.292,15.405-26.177,16.681   C147.644,391.263,125.812,369.821,128.522,346.539z"/>
</g>
<g>
	<path style="fill:#72ABC0;" d="M256,183.652v77.913c21.481,0,38.957-17.476,38.957-38.957S277.481,183.652,256,183.652z"/>
	<path style="fill:#72ABC0;" d="M356.174,451.896c-12.889,0-23.374-10.485-23.374-23.374c0-12.889,10.485-23.374,23.374-23.374   c12.889,0,23.374,10.485,23.374,23.374C379.548,441.411,369.063,451.896,356.174,451.896z"/>
</g>
<g>
</g>
<g>
</g>
<g>
</g>
<g>
</g>
<g>
</g>
<g>
</g>
<g>
</g>
<g>
</g>
<g>
</g>
<g>
</g>
<g>
</g>
<g>
</g>
<g>
</g>
<g>
</g>
<g>
</g>
</svg>
