<?xml version="1.0" encoding="iso-8859-1"?>
<!-- Generator: Adobe Illustrator 19.0.0, SVG Export Plug-In . SVG Version: 6.00 Build 0)  -->
<svg xmlns="http://www.w3.org/2000/svg" xmlns:xlink="http://www.w3.org/1999/xlink" version="1.1" id="Layer_1" x="0px" y="0px" viewBox="0 0 512 512" style="enable-background:new 0 0 512 512;" xml:space="preserve">
<path style="fill:#FFE365;" d="M58.275,461.867l41-49.199C36.741,371.499,0,308.279,0,240.168C0,117.444,117.069,22.093,256,22.093  c139.054,0,256,95.452,256,218.074c0,140.206-151.406,241.475-308.761,213.439L75.986,489.228  C59.81,493.753,47.646,474.624,58.275,461.867z"/>
<g>
	<path style="fill:#FFC733;" d="M512,240.168c0-122.541-116.792-217.946-255.725-218.072v436.175   C392.952,458.182,512,364.49,512,240.168z"/>
	<path style="fill:#FFC733;" d="M277.205,319.115c0,11.217-9.576,21.067-20.793,21.067c-12.038,0-21.067-9.849-21.067-21.067   c0-11.49,9.029-21.067,21.067-21.067C267.629,298.048,277.205,307.624,277.205,319.115z M272.006,267.133   c0,8.481-9.302,12.038-15.869,12.038c-8.755,0-16.143-3.557-16.143-12.038c0-32.558-3.83-79.342-3.83-111.9   c0-10.67,8.755-16.689,19.973-16.689c10.67,0,19.698,6.019,19.698,16.689C275.837,187.79,272.006,234.574,272.006,267.133z"/>
</g>
<g>
	<path style="fill:#FFAF00;" d="M272.006,267.133c0-32.558,3.831-79.342,3.831-111.9c0-10.625-8.952-16.632-19.562-16.684v140.617   C262.832,279.117,272.006,275.556,272.006,267.133z"/>
	<path style="fill:#FFAF00;" d="M256.412,298.049c-0.047,0-0.09,0.007-0.137,0.007v42.119c0.047,0,0.09,0.007,0.137,0.007   c11.217,0,20.793-9.849,20.793-21.067C277.205,307.625,267.629,298.049,256.412,298.049z"/>
</g>
<g>
</g>
<g>
</g>
<g>
</g>
<g>
</g>
<g>
</g>
<g>
</g>
<g>
</g>
<g>
</g>
<g>
</g>
<g>
</g>
<g>
</g>
<g>
</g>
<g>
</g>
<g>
</g>
<g>
</g>
</svg>
