<?xml version="1.0" encoding="iso-8859-1"?>
<!-- Generator: Adobe Illustrator 19.0.0, SVG Export Plug-In . SVG Version: 6.00 Build 0)  -->
<svg xmlns="http://www.w3.org/2000/svg" xmlns:xlink="http://www.w3.org/1999/xlink" version="1.1" id="Layer_1" x="0px" y="0px" viewBox="0 0 512 512" style="enable-background:new 0 0 512 512;" xml:space="preserve">
<path style="fill:#EFEFEF;" d="M422.957,512H89.043c-9.22,0-16.696-7.475-16.696-16.696V16.696C72.348,7.475,79.823,0,89.043,0  h333.913c9.22,0,16.696,7.475,16.696,16.696v478.609C439.652,504.525,432.177,512,422.957,512z"/>
<path style="fill:#C5D8DF;" d="M422.957,0H256v512h166.957c9.22,0,16.696-7.475,16.696-16.696V16.696  C439.652,7.475,432.177,0,422.957,0z"/>
<path style="fill:#1C3D66;" d="M292.507,317.555c29.834,0,53.203-26.731,53.203-60.856c0-38.134-29.056-74.725-81.816-103.033  c-4.931-2.645-10.857-2.645-15.787,0c-52.759,28.308-81.815,64.899-81.815,103.033c0,34.125,23.369,60.856,53.202,60.856  c7.278,0,13.896-1.329,19.811-3.456v12.829h-16.108c-9.22,0-16.696,7.475-16.696,16.696c0,9.22,7.475,16.696,16.696,16.696h65.608  c9.22,0,16.696-7.475,16.696-16.696c0-9.22-7.475-16.696-16.696-16.696h-16.109v-12.829  C278.61,316.226,285.229,317.555,292.507,317.555z"/>
<path style="fill:#163457;" d="M292.507,317.555c29.834,0,53.203-26.731,53.203-60.856c0-38.134-29.056-74.725-81.816-103.033  c-2.465-1.322-5.179-1.983-7.894-1.983v208.637h32.805c9.22,0,16.696-7.475,16.696-16.696c0-9.22-7.475-16.696-16.696-16.696  h-16.109v-12.829C278.61,316.226,285.229,317.555,292.507,317.555z"/>
<g>
</g>
<g>
</g>
<g>
</g>
<g>
</g>
<g>
</g>
<g>
</g>
<g>
</g>
<g>
</g>
<g>
</g>
<g>
</g>
<g>
</g>
<g>
</g>
<g>
</g>
<g>
</g>
<g>
</g>
</svg>
