<?xml version="1.0" encoding="iso-8859-1"?>
<!-- Generator: Adobe Illustrator 19.0.0, SVG Export Plug-In . SVG Version: 6.00 Build 0)  -->
<svg xmlns="http://www.w3.org/2000/svg" xmlns:xlink="http://www.w3.org/1999/xlink" version="1.1" id="Layer_1" x="0px" y="0px" viewBox="0 0 512 512" style="enable-background:new 0 0 512 512;" xml:space="preserve">
<path style="fill:#FFAF00;" d="M418.812,373.733h-46.021c-9.22,0-16.696-7.475-16.696-16.696c0-9.22,7.475-16.696,16.696-16.696  h46.021c27.181,0,50.183-18.227,57.426-43.102h-46.035c-9.22,0-16.696-7.475-16.696-16.696c0-9.22,7.475-16.696,16.696-16.696  h65.102c9.22,0,16.696,7.475,16.696,16.696C512,331.929,470.195,373.733,418.812,373.733z"/>
<path style="fill:#FFC733;" d="M228.149,488.549c-52.698,0-192.305-7.664-192.305-60.369c0-26.734,35.335-45.159,105.02-54.767  c2.707-0.373,5.463-0.077,8.027,0.864c24.988,9.16,51.654,13.805,79.258,13.805s54.27-4.645,79.258-13.805  c2.564-0.941,5.321-1.235,8.026-0.864c69.687,9.607,105.02,28.033,105.02,54.767C420.454,480.885,280.849,488.549,228.149,488.549z"/>
<path style="fill:#FFAF00;" d="M315.433,373.414c-2.705-0.372-5.463-0.077-8.026,0.864c-24.988,9.16-51.654,13.805-79.258,13.805  l0,0v100.467l0,0c52.699,0,192.305-7.664,192.305-60.369C420.454,401.447,385.121,383.021,315.433,373.414z"/>
<path style="fill:#FFE365;" d="M228.149,421.474C102.471,421.474,0,335.598,0,228.365c0-9.22,7.475-16.696,16.696-16.696h422.908  c9.22,0,16.696,7.475,16.696,16.696C456.299,334.082,355.517,421.474,228.149,421.474z"/>
<path style="fill:#EFEFEF;" d="M178.528,141.659c12.033-5.293,11.923-22.517-0.194-27.641  c-39.117-16.545-39.462-71.884-0.628-88.962c20.233-8.897,33.628,21.69,13.442,30.566c-12.033,5.291-11.922,22.518,0.194,27.642  c39.107,16.54,39.474,71.878,0.628,88.961C171.579,181.192,158.501,150.467,178.528,141.659z"/>
<path style="fill:#FFC733;" d="M439.603,211.67H228.149v209.805l0,0c127.368,0,228.149-87.392,228.149-193.11  C456.299,219.144,448.824,211.67,439.603,211.67z"/>
<path style="fill:#C5D8DF;" d="M265.149,141.659c12.033-5.293,11.923-22.517-0.194-27.641  c-39.116-16.545-39.462-71.884-0.628-88.962c20.233-8.898,33.628,21.69,13.442,30.566c-12.033,5.291-11.922,22.518,0.194,27.642  c39.106,16.54,39.475,71.876,0.628,88.961C258.397,181.106,244.931,150.551,265.149,141.659z"/>
<g>
</g>
<g>
</g>
<g>
</g>
<g>
</g>
<g>
</g>
<g>
</g>
<g>
</g>
<g>
</g>
<g>
</g>
<g>
</g>
<g>
</g>
<g>
</g>
<g>
</g>
<g>
</g>
<g>
</g>
</svg>
