<?xml version="1.0" encoding="iso-8859-1"?>
<!-- Generator: Adobe Illustrator 19.0.0, SVG Export Plug-In . SVG Version: 6.00 Build 0)  -->
<svg xmlns="http://www.w3.org/2000/svg" xmlns:xlink="http://www.w3.org/1999/xlink" version="1.1" id="Layer_1" x="0px" y="0px" viewBox="0 0 512 512" style="enable-background:new 0 0 512 512;" xml:space="preserve">
<path style="fill:#163457;" d="M424.784,512c-9.425,0-17.067-7.641-17.067-17.067V17.067C407.718,7.641,415.359,0,424.784,0  s17.067,7.641,17.067,17.067v477.867C441.851,504.359,434.21,512,424.784,512z"/>
<path style="fill:#1C3D66;" d="M87.215,512c-9.425,0-17.067-7.641-17.067-17.067V17.067C70.148,7.641,77.789,0,87.215,0  s17.067,7.641,17.067,17.067v477.867C104.281,504.359,96.64,512,87.215,512z"/>
<path style="fill:#FFE365;" d="M424.789,512H87.21c-9.425,0-17.067-7.641-17.067-17.067v-20.81  c0-44.19,11.596-87.792,33.536-126.093c20.002-34.918,48.135-64.688,81.732-86.595v-10.867  c-23.266-15.152-43.748-33.898-60.979-55.828c-8.789-11.185-0.786-27.61,13.42-27.61h236.294c14.226,0,22.197,16.441,13.42,27.61  c-17.232,21.931-37.713,40.677-60.979,55.828v10.867c33.597,21.906,61.73,51.676,81.732,86.595  c21.939,38.301,33.536,81.903,33.536,126.093v20.81C441.855,504.359,434.214,512,424.789,512z"/>
<path style="fill:#FFC733;" d="M408.319,348.03c-20.002-34.918-48.135-64.688-81.732-86.595v-10.867  c23.266-15.152,43.748-33.898,60.979-55.828c8.777-11.17,0.806-27.61-13.42-27.61H255.999V512h168.789  c9.425,0,17.067-7.641,17.067-17.067v-20.81C441.855,429.933,430.258,386.331,408.319,348.03z"/>
<path style="fill:#EFEFEF;" d="M424.789,0H87.21c-9.425,0-17.067,7.641-17.067,17.067v20.81c0,56.629,19.281,112.338,54.292,156.868  c0.003,0.003,0.007,0.007,0.009,0.011c1.732,2.204,3.505,4.368,5.303,6.507c12.426,0,241.621,0,252.501,0  c1.798-2.139,3.57-4.303,5.303-6.507c0.002-0.003,0.007-0.007,0.009-0.011c35.011-44.528,54.292-100.238,54.292-156.868v-20.81  C441.855,7.641,434.214,0,424.789,0z"/>
<path style="fill:#C5D8DF;" d="M424.789,0H255.999v201.262c60.406,0,120.793,0,126.251,0c1.798-2.139,3.57-4.303,5.303-6.507  c0.002-0.003,0.007-0.007,0.009-0.011c35.011-44.528,54.292-100.238,54.292-156.868V17.067C441.855,7.641,434.214,0,424.789,0z"/>
<g>
	<path style="fill:#1C3D66;" d="M471.827,34.133H40.172c-9.425,0-17.067-7.641-17.067-17.067S30.747,0,40.172,0h431.656   c9.425,0,17.067,7.641,17.067,17.067S481.253,34.133,471.827,34.133z"/>
	<path style="fill:#1C3D66;" d="M471.827,512H40.172c-9.425,0-17.067-7.641-17.067-17.067s7.641-17.067,17.067-17.067h431.656   c9.425,0,17.067,7.641,17.067,17.067S481.253,512,471.827,512z"/>
</g>
<g>
	<path style="fill:#163457;" d="M471.827,0H255.999v34.133h215.827c9.425,0,17.067-7.641,17.067-17.067S481.253,0,471.827,0z"/>
	<path style="fill:#163457;" d="M471.827,477.867H255.999V512h215.827c9.425,0,17.067-7.641,17.067-17.067   S481.253,477.867,471.827,477.867z"/>
</g>
<g>
</g>
<g>
</g>
<g>
</g>
<g>
</g>
<g>
</g>
<g>
</g>
<g>
</g>
<g>
</g>
<g>
</g>
<g>
</g>
<g>
</g>
<g>
</g>
<g>
</g>
<g>
</g>
<g>
</g>
</svg>
