<?xml version="1.0" encoding="iso-8859-1"?>
<!-- Generator: Adobe Illustrator 19.0.0, SVG Export Plug-In . SVG Version: 6.00 Build 0)  -->
<svg xmlns="http://www.w3.org/2000/svg" xmlns:xlink="http://www.w3.org/1999/xlink" version="1.1" id="Layer_1" x="0px" y="0px" viewBox="0 0 512 512" style="enable-background:new 0 0 512 512;" xml:space="preserve">
<g>
	<path style="fill:#FFE365;" d="M124.52,488.342H16.696C7.475,488.342,0,480.867,0,471.647V256c0-9.22,7.475-16.696,16.696-16.696   H124.52c9.22,0,16.696,7.475,16.696,16.696v215.647C141.215,480.867,133.74,488.342,124.52,488.342z"/>
	<path style="fill:#FFE365;" d="M309.912,488.342H202.089c-9.22,0-16.696-7.475-16.696-16.696V40.353   c0-9.22,7.475-16.696,16.696-16.696h107.824c9.22,0,16.696,7.475,16.696,16.696v431.294   C326.608,480.868,319.133,488.342,309.912,488.342z"/>
	<path style="fill:#FFE365;" d="M495.304,488.342H387.48c-9.22,0-16.696-7.475-16.696-16.696v-323.47   c0-9.22,7.475-16.696,16.696-16.696h107.824c9.22,0,16.696,7.475,16.696,16.696v323.47   C512,480.867,504.525,488.342,495.304,488.342z"/>
</g>
<g>
	<path style="fill:#FFC733;" d="M124.52,239.304H70.607v249.038h53.911c9.22,0,16.696-7.475,16.696-16.696V256   C141.215,246.78,133.74,239.304,124.52,239.304z"/>
	<path style="fill:#FFC733;" d="M309.912,23.658H256v464.684h53.912c9.22,0,16.696-7.475,16.696-16.696V40.353   C326.608,31.132,319.133,23.658,309.912,23.658z"/>
	<path style="fill:#FFC733;" d="M495.304,131.48h-53.911v356.862h53.911c9.22,0,16.696-7.475,16.696-16.696v-323.47   C512,138.956,504.525,131.48,495.304,131.48z"/>
</g>
<g>
</g>
<g>
</g>
<g>
</g>
<g>
</g>
<g>
</g>
<g>
</g>
<g>
</g>
<g>
</g>
<g>
</g>
<g>
</g>
<g>
</g>
<g>
</g>
<g>
</g>
<g>
</g>
<g>
</g>
</svg>
