<?xml version="1.0" encoding="iso-8859-1"?>
<!-- Generator: Adobe Illustrator 19.0.0, SVG Export Plug-In . SVG Version: 6.00 Build 0)  -->
<svg xmlns="http://www.w3.org/2000/svg" xmlns:xlink="http://www.w3.org/1999/xlink" version="1.1" id="Layer_1" x="0px" y="0px" viewBox="0 0 512 512" style="enable-background:new 0 0 512 512;" xml:space="preserve">
<path style="fill:#1C3D66;" d="M371.354,256.581c-9.22,0-16.696-7.475-16.696-16.696V132.049c0-54.4-44.258-98.658-98.658-98.658  s-98.658,44.258-98.658,98.658v107.836c0,9.22-7.475,16.696-16.696,16.696c-9.22,0-16.696-7.475-16.696-16.696V132.049  C123.951,59.237,183.188,0,256,0s132.049,59.237,132.049,132.049v107.836C388.049,249.106,380.574,256.581,371.354,256.581z"/>
<path style="fill:#163457;" d="M256,0v33.391c54.4,0,98.658,44.258,98.658,98.658v107.836c0,9.22,7.475,16.696,16.696,16.696  s16.696-7.475,16.696-16.696V132.049C388.049,59.237,328.812,0,256,0z"/>
<path style="fill:#FFE365;" d="M426.935,512H85.065c-9.22,0-16.696-7.475-16.696-16.696V239.885c0-9.22,7.475-16.696,16.696-16.696  h341.869c9.22,0,16.696,7.475,16.696,16.696v255.419C443.63,504.525,436.155,512,426.935,512z"/>
<g>
	<path style="fill:#FFC733;" d="M426.935,223.19H256V512h170.935c9.22,0,16.696-7.475,16.696-16.696V239.885   C443.63,230.665,436.155,223.19,426.935,223.19z"/>
	<path style="fill:#FFC733;" d="M334.913,449.148H177.087c-9.22,0-16.696-7.475-16.696-16.696V302.738   c0-9.22,7.475-16.696,16.696-16.696h157.826c9.22,0,16.696,7.475,16.696,16.696v129.715   C351.608,441.672,344.134,449.148,334.913,449.148z"/>
</g>
<path style="fill:#FFAF00;" d="M334.913,286.042H256v163.106h78.913c9.22,0,16.696-7.475,16.696-16.696V302.738  C351.608,293.517,344.134,286.042,334.913,286.042z"/>
<g>
</g>
<g>
</g>
<g>
</g>
<g>
</g>
<g>
</g>
<g>
</g>
<g>
</g>
<g>
</g>
<g>
</g>
<g>
</g>
<g>
</g>
<g>
</g>
<g>
</g>
<g>
</g>
<g>
</g>
</svg>
