<?xml version="1.0" encoding="iso-8859-1"?>
<!-- Generator: Adobe Illustrator 19.0.0, SVG Export Plug-In . SVG Version: 6.00 Build 0)  -->
<svg xmlns="http://www.w3.org/2000/svg" xmlns:xlink="http://www.w3.org/1999/xlink" version="1.1" id="Layer_1" x="0px" y="0px" viewBox="0 0 512.001 512.001" style="enable-background:new 0 0 512.001 512.001;" xml:space="preserve">
<g>
	<path style="fill:#84DBFF;" d="M106.12,486.2C-94.48,340.955,8.256,22.555,256.006,22.555   c247.561,0,350.562,318.322,149.898,463.634c-7.636,5.531-18.31,3.822-23.842-3.814c-5.529-7.637-3.822-18.311,3.815-23.842   C559.742,332.629,470.701,56.702,256.006,56.702c-214.755,0-303.715,275.959-129.86,401.841c7.637,5.529,9.346,16.205,3.816,23.842   C124.432,490.021,113.758,491.729,106.12,486.2z"/>
	<path style="fill:#84DBFF;" d="M327.159,404.299c-5.594-7.591-3.975-18.28,3.616-23.873   c97.984-72.201,46.874-228.117-74.769-228.117c-121.699,0-172.712,155.944-74.769,228.116c7.591,5.594,9.21,16.282,3.616,23.873   c-5.593,7.591-16.28,9.21-23.873,3.616c-124.468-91.72-59.438-289.752,95.025-289.752c154.54,0,219.424,198.086,95.025,289.752   C343.441,413.508,332.753,411.892,327.159,404.299z"/>
</g>
<path style="fill:#FFE365;" d="M256.006,343.529c-35.774,0-64.878-29.104-64.878-64.878s29.104-64.878,64.878-64.878  s64.878,29.104,64.878,64.878S291.779,343.529,256.006,343.529z"/>
<g>
	<path style="fill:#54C9EB;" d="M256.006,22.555v34.146c214.694,0,303.735,275.927,129.87,401.833   c-7.637,5.529-9.345,16.203-3.815,23.841c5.532,7.637,16.206,9.346,23.842,3.815C606.568,340.877,503.566,22.555,256.006,22.555z"/>
	<path style="fill:#54C9EB;" d="M256.006,118.165v34.146c121.642,0,172.752,155.916,74.769,228.117   c-7.591,5.594-9.21,16.282-3.616,23.873c5.594,7.592,16.282,9.209,23.873,3.616C475.431,316.251,410.545,118.165,256.006,118.165z"/>
</g>
<path style="fill:#FFC733;" d="M320.884,278.652c0-35.774-29.104-64.878-64.878-64.878v129.755  C291.78,343.528,320.884,314.424,320.884,278.652z"/>
<g>
</g>
<g>
</g>
<g>
</g>
<g>
</g>
<g>
</g>
<g>
</g>
<g>
</g>
<g>
</g>
<g>
</g>
<g>
</g>
<g>
</g>
<g>
</g>
<g>
</g>
<g>
</g>
<g>
</g>
</svg>
