<?xml version="1.0" encoding="iso-8859-1"?>
<!-- Generator: Adobe Illustrator 19.0.0, SVG Export Plug-In . SVG Version: 6.00 Build 0)  -->
<svg xmlns="http://www.w3.org/2000/svg" xmlns:xlink="http://www.w3.org/1999/xlink" version="1.1" id="Layer_1" x="0px" y="0px" viewBox="0 0 512 512" style="enable-background:new 0 0 512 512;" xml:space="preserve">
<path style="fill:#EFEFEF;" d="M405.551,512H106.449c-8.916,0-16.331-6.863-17.015-15.754L58.002,89.156  c-0.218-2.821,0.269-5.654,1.418-8.24L90.852,10.14C93.589,3.974,99.702,0,106.449,0h299.102c6.747,0,12.86,3.974,15.598,10.14  l31.432,70.777c1.149,2.586,1.636,5.419,1.418,8.24l-31.432,407.09C421.881,505.137,414.466,512,405.551,512z"/>
<g>
	<path style="fill:#C5D8DF;" d="M452.581,80.916L421.148,10.14C418.411,3.974,412.298,0,405.551,0H256v512h149.551   c8.916,0,16.331-6.863,17.015-15.754l31.432-407.09C454.218,86.336,453.73,83.504,452.581,80.916z"/>
	<path style="fill:#C5D8DF;" d="M476.678,104.91H35.322c-9.425,0-17.067-7.641-17.067-17.067s7.641-17.067,17.067-17.067h441.355   c9.425,0,17.067,7.641,17.067,17.067S486.103,104.91,476.678,104.91z"/>
	<path style="fill:#C5D8DF;" d="M256,437.185c-9.425,0-17.067-7.641-17.067-17.067V196.791c0-9.425,7.641-17.067,17.067-17.067   s17.067,7.641,17.067,17.067v223.326C273.067,429.544,265.425,437.185,256,437.185z"/>
	<path style="fill:#C5D8DF;" d="M181.877,437.185c-9.425,0-17.067-7.641-17.067-17.067V196.791c0-9.425,7.641-17.067,17.067-17.067   s17.067,7.641,17.067,17.067v223.326C198.944,429.544,191.303,437.185,181.877,437.185z"/>
</g>
<g>
	<path style="fill:#9CC2D0;" d="M476.678,70.777H256v34.133h220.678c9.425,0,17.067-7.641,17.067-17.067   S486.103,70.777,476.678,70.777z"/>
	<path style="fill:#9CC2D0;" d="M256,179.725v257.46c9.425,0,17.067-7.641,17.067-17.067V196.791   C273.067,187.366,265.425,179.725,256,179.725z"/>
	<path style="fill:#9CC2D0;" d="M330.123,437.185c-9.425,0-17.067-7.641-17.067-17.067V196.791c0-9.425,7.641-17.067,17.067-17.067   s17.067,7.641,17.067,17.067v223.326C347.189,429.544,339.549,437.185,330.123,437.185z"/>
</g>
<g>
</g>
<g>
</g>
<g>
</g>
<g>
</g>
<g>
</g>
<g>
</g>
<g>
</g>
<g>
</g>
<g>
</g>
<g>
</g>
<g>
</g>
<g>
</g>
<g>
</g>
<g>
</g>
<g>
</g>
</svg>
